<?xml version="1.0" encoding="UTF-8" standalone="no"?>
<!-- Created with Inkscape (http://www.inkscape.org/) -->

<svg
   xmlns:dc="http://purl.org/dc/elements/1.1/"
   xmlns:cc="http://creativecommons.org/ns#"
   xmlns:rdf="http://www.w3.org/1999/02/22-rdf-syntax-ns#"
   xmlns:svg="http://www.w3.org/2000/svg"
   xmlns="http://www.w3.org/2000/svg"
   xmlns:sodipodi="http://sodipodi.sourceforge.net/DTD/sodipodi-0.dtd"
   xmlns:inkscape="http://www.inkscape.org/namespaces/inkscape"
   width="297mm"
   height="210mm"
   id="svg2"
   version="1.1"
   inkscape:version="0.92.3 (2405546, 2018-03-11)"
   sodipodi:docname="PhotoManAndChild-undecorated.svg"
   inkscape:export-filename="/home/christian/SportsCar.svg.png"
   inkscape:export-xdpi="138.06"
   inkscape:export-ydpi="138.06">
  <defs
     id="defs4" />
  <sodipodi:namedview
     id="base"
     pagecolor="#ffffff"
     bordercolor="#666666"
     borderopacity="1.0"
     inkscape:pageopacity="0.0"
     inkscape:pageshadow="2"
     inkscape:zoom="1"
     inkscape:cx="980.56616"
     inkscape:cy="275.27225"
     inkscape:document-units="mm"
     inkscape:current-layer="layer1"
     showgrid="false"
     units="mm"
     inkscape:window-width="1920"
     inkscape:window-height="1080"
     inkscape:window-x="1920"
     inkscape:window-y="0"
     inkscape:window-maximized="0"
     inkscape:snap-global="false" />
  <metadata
     id="metadata7">
    <rdf:RDF>
      <cc:Work
         rdf:about="">
        <dc:format>image/svg+xml</dc:format>
        <dc:type
           rdf:resource="http://purl.org/dc/dcmitype/StillImage" />
        <dc:title />
      </cc:Work>
    </rdf:RDF>
  </metadata>
  <g
     inkscape:label="Mask"
     inkscape:groupmode="layer"
     id="Mask"
     style="display:inline;opacity:1"
     transform="translate(0,-328.81888)">
    <rect
       style="display:inline;opacity:1;fill:none;fill-opacity:1;stroke:#808080;stroke-width:0.779378;stroke-linecap:round;stroke-linejoin:round;stroke-miterlimit:4;stroke-dasharray:none;stroke-dashoffset:0;stroke-opacity:1"
       id="rect814"
       width="566.14978"
       x="442.59436"
       y="-873.50861"
       heightx="549.12811"
       height="377.17337"
       transform="rotate(90)" />
  </g>
  <g
     inkscape:groupmode="layer"
     id="layer3"
     inkscape:label="Overlay 1"
     style="display:none">
    <path
       style="opacity:1;fill:none;fill-opacity:1;stroke:#000000;stroke-width:0.25523639;stroke-linecap:round;stroke-linejoin:round;stroke-miterlimit:4;stroke-dasharray:none;stroke-dashoffset:0;stroke-opacity:1"
       d="m 611.29025,326.76267 c -5.54705,4.52207 -7.24911,13.66822 -8.65569,18.21583 -3.17906,-1.36063 -4.28652,0.86499 -4.85224,3.61577 -0.69318,3.37053 -0.32765,9.6499 0.09,13.10828 0.32654,2.70407 1.91512,6.05764 4.66584,4.73615 1.39327,11.28324 6.97618,19.80695 15.18228,22.07558 0.0675,11.06611 -5.76267,10.07618 -8.63171,10.26625 -3.34339,0.22149 -7.98399,-0.92649 -12.47433,1.05628 -3.60085,1.59 -8.19935,5.93949 -9.95774,10.78978 -3.27915,9.04512 -7.89468,17.65187 -10.26536,26.97641 -1.83021,7.19871 -3.51799,13.78807 -2.5621,21.15403 1.99501,15.37324 14.64229,31.72337 18.03131,42.62891 0.31471,13.01085 1.29009,21.20786 2.644,21.73752 0.90147,0.35266 0.61859,0.21174 2.50528,-0.11928 -0.14673,7.31168 -0.61668,14.12706 -0.28305,20.88282 0.39836,8.06669 1.03283,15.88827 1.62766,23.94286 1.44343,19.54585 5.32373,46.7214 2.86475,58.72741 -5.15989,8.46106 -8.78201,14.27997 -7.71175,19.07333 1.0359,4.63942 7.84471,4.59351 12.36697,3.12851 7.60225,-2.46279 10.46352,-15.24623 12.05583,-21.9631 0.24186,-6.46367 -1.57747,-10.98722 -0.59682,-16.35297 2.64203,-14.4562 3.81569,-28.01982 2.74539,-43.92619 1.12418,-15.73757 3.56471,-31.97122 4.0584,-50.49126 1.16891,5.78819 1.06736,3.14051 2.02919,8.95235 0.96183,5.81184 2.02483,17.32934 2.7454,26.0215 0.87267,10.52697 1.38814,21.1187 2.41625,31.63164 0.76518,7.82442 4.44447,20.5612 4.89054,26.78741 0.19285,2.09044 0.38318,10.81707 -0.13043,14.52022 0.33042,4.12517 0.39833,5.6821 2.61154,10.01918 2.29084,4.4892 5.72362,9.01646 9.51172,10.55104 6.7667,2.74123 15.23433,2.42251 13.76439,-4.34408 -1.53911,-7.08496 -6.69547,-14.39229 -9.78791,-18.14343 0.68342,-8.47143 1.47818,-30.50353 1.67111,-45.47794 0.0528,-4.09862 0.53774,-3.06337 0.47746,-7.16188 -0.23408,-15.91436 0.10063,-34.81244 -0.47746,-46.37718 1.76297,0.36207 3.29898,0.0125 3.9003,-0.43208 2.02857,-1.49978 1.51292,-20.79739 0.87428,-25.52574 3.55589,-9.57172 14.80522,-25.87346 17.54662,-39.74842 1.39592,-7.0652 1.58066,-13.33571 -0.35811,-20.292 -2.84071,-10.19251 -5.84786,-21.42458 -12.41392,-29.7218 -3.62289,-4.57808 -9.26265,-9.18538 -14.08503,-8.95236 -4.10885,0.19856 -6.11028,1.0423 -11.45901,1.19365 -4.88407,0.1382 -5.44035,-3.57408 -5.43109,-11.01139 7.88733,-1.46908 16.99674,-12.11396 18.19638,-23.60436 2.04969,0.28792 4.31555,-2.4197 4.71491,-5.96824 0.42905,-3.81235 0.77119,-8.02822 0.20377,-11.88102 -0.28288,-1.92077 -1.15005,-4.45177 -4.26216,-3.63639 -0.58001,-3.82681 -4.6391,-13.44522 -10.78027,-17.16306 -6.9042,-4.17977 -23.86489,-3.86037 -29.21539,0.50146 z"
       id="path904-8-1"
       inkscape:connector-curvature="0"
       sodipodi:nodetypes="scssccssssscscsscsscscccssccssscsscscsssssccsscss" />
    <path
       style="opacity:1;fill:none;fill-opacity:1;stroke:#000000;stroke-width:0.25523639;stroke-linecap:round;stroke-linejoin:round;stroke-miterlimit:4;stroke-dasharray:none;stroke-dashoffset:0;stroke-opacity:1"
       d="m 596.14111,421.77686 c -2.46878,10.33948 -6.15704,19.48687 -7.17679,28.61281 -0.98774,8.8395 1.64722,16.92503 3.77896,25.55911 1.30051,5.26741 1.78148,7.73753 3.0581,12.99372 z"
       id="path906-7-5"
       inkscape:connector-curvature="0"
       sodipodi:nodetypes="csscc" />
    <path
       style="opacity:1;fill:none;fill-opacity:1;stroke:#000000;stroke-width:0.25523639;stroke-linecap:round;stroke-linejoin:round;stroke-miterlimit:4;stroke-dasharray:none;stroke-dashoffset:0;stroke-opacity:1"
       d="m 595.8035,488.83549 1.20637,34.13613"
       id="path908-9-5"
       inkscape:connector-curvature="0"
       sodipodi:nodetypes="cc" />
    <path
       style="opacity:1;fill:none;fill-opacity:1;stroke:#000000;stroke-width:0.25523639;stroke-linecap:round;stroke-linejoin:round;stroke-miterlimit:4;stroke-dasharray:none;stroke-dashoffset:0;stroke-opacity:1"
       d="m 652.5227,420.08879 0.84403,62.71185 c 0,0 9.72763,-23.32106 9.11559,-35.5339 -0.48293,-9.63637 -9.95962,-27.17795 -9.95962,-27.17795 z"
       id="path910-2-4"
       inkscape:connector-curvature="0"
       sodipodi:nodetypes="ccsc" />
    <path
       style="opacity:1;fill:none;fill-opacity:1;stroke:#000000;stroke-width:0.25523639;stroke-linecap:round;stroke-linejoin:round;stroke-miterlimit:4;stroke-dasharray:none;stroke-dashoffset:0;stroke-opacity:1"
       d="m 653.39145,482.88504 0.47658,40.0841"
       id="path912-0-7"
       inkscape:connector-curvature="0"
       sodipodi:nodetypes="cc" />
    <path
       style="opacity:1;fill:none;fill-opacity:1;stroke:#000000;stroke-width:0.25523639;stroke-linecap:round;stroke-linejoin:round;stroke-miterlimit:4;stroke-dasharray:none;stroke-dashoffset:0;stroke-opacity:1"
       d="m 595.88278,487.59877 c 7.06914,2.63691 49.40191,2.2729 57.50443,-1.50639"
       id="path914-2-6"
       inkscape:connector-curvature="0"
       sodipodi:nodetypes="cc" />
    <path
       style="opacity:1;fill:none;fill-opacity:1;stroke:#000000;stroke-width:0.25523639;stroke-linecap:round;stroke-linejoin:round;stroke-miterlimit:4;stroke-dasharray:none;stroke-dashoffset:0;stroke-opacity:1"
       d="m 602.65716,344.97602 c -1.21224,6.73881 -1.35081,14.00328 -0.11937,21.42596"
       id="path916-3-5"
       inkscape:connector-curvature="0"
       sodipodi:nodetypes="cc" />
    <path
       style="opacity:1;fill:none;fill-opacity:1;stroke:#000000;stroke-width:0.25523639;stroke-linecap:round;stroke-linejoin:round;stroke-miterlimit:4;stroke-dasharray:none;stroke-dashoffset:0;stroke-opacity:1"
       d="m 651.28474,343.43291 c 0.63712,6.65597 0.34724,14.50964 -0.65279,21.48564"
       id="path918-7-6"
       inkscape:connector-curvature="0"
       sodipodi:nodetypes="cc" />
    <path
       style="opacity:1;fill:none;fill-opacity:1;stroke:#000000;stroke-width:0.25523639;stroke-linecap:round;stroke-linejoin:round;stroke-miterlimit:4;stroke-dasharray:none;stroke-dashoffset:0;stroke-opacity:1"
       d="m 613.50228,343.23634 c -0.92012,1.6254 0.46281,3.72523 2.28914,4.11654 1.77076,0.37939 3.96509,-2.49776 2.87644,-4.70013 -0.91752,-1.85618 -4.37305,-0.8164 -5.16558,0.58359 z"
       id="path920-5-9"
       inkscape:connector-curvature="0"
       sodipodi:nodetypes="ssss" />
    <path
       style="opacity:1;fill:none;fill-opacity:1;stroke:#000000;stroke-width:0.25523639;stroke-linecap:round;stroke-linejoin:round;stroke-miterlimit:4;stroke-dasharray:none;stroke-dashoffset:0;stroke-opacity:1"
       d="m 635.30488,342.53638 c -1.40023,1.81234 0.47756,4.77144 2.76608,4.68265 2.4235,-0.094 3.59102,-3.02906 1.97573,-4.83821 -1.28149,-1.43528 -3.60954,-1.30996 -4.74181,0.15556 z"
       id="path922-9-3"
       inkscape:connector-curvature="0"
       sodipodi:nodetypes="ssss" />
    <path
       style="opacity:1;fill:none;fill-opacity:1;stroke:#000000;stroke-width:0.25523639;stroke-linecap:round;stroke-linejoin:round;stroke-miterlimit:4;stroke-dasharray:none;stroke-dashoffset:0;stroke-opacity:1"
       d="m 612.8572,369.38609 c 7.24124,9.18794 13.97048,15.50958 28.27247,-1.66262 0.67701,-1.07669 -0.0388,-1.83669 -0.71619,-1.43238 -9.04161,5.10487 -16.48284,4.53566 -26.60135,1.30453 -1.08805,-0.33329 -1.51681,1.02327 -0.95493,1.79047 z"
       id="path924-2-7"
       inkscape:connector-curvature="0"
       sodipodi:nodetypes="ccccc" />
    <path
       style="opacity:1;fill:none;fill-opacity:1;stroke:#000000;stroke-width:0.25523639;stroke-linecap:round;stroke-linejoin:round;stroke-miterlimit:4;stroke-dasharray:none;stroke-dashoffset:0;stroke-opacity:1"
       d="m 593.27139,500.94741 c 0.0725,4.36597 0.27766,12.9051 1.20213,13.09791 0.73621,0.15355 1.51282,0.14148 2.18425,-0.027"
       id="path926-2-4"
       inkscape:connector-curvature="0"
       sodipodi:nodetypes="csc" />
    <path
       style="opacity:1;fill:none;fill-opacity:1;stroke:#000000;stroke-width:0.25523639;stroke-linecap:round;stroke-linejoin:round;stroke-miterlimit:4;stroke-dasharray:none;stroke-dashoffset:0;stroke-opacity:1"
       d="m 592.54985,507.65258 c 0.0995,4.84422 1.05528,12.91607 2.33698,13.17956 0.86327,0.17747 1.31992,-0.0866 2.02027,-0.25951"
       id="path928-8-5"
       inkscape:connector-curvature="0"
       sodipodi:nodetypes="csc" />
    <path
       style="display:inline;opacity:1;fill:none;fill-opacity:1;stroke:#000000;stroke-width:0.25523639;stroke-linecap:round;stroke-linejoin:round;stroke-miterlimit:4;stroke-dasharray:none;stroke-dashoffset:0;stroke-opacity:1"
       d="m 657.15211,500.94741 c -0.0725,4.36597 -0.27766,12.9051 -1.20213,13.09791 -0.73621,0.15355 -1.51282,0.14148 -2.18425,-0.027"
       id="path926-3-9-2"
       inkscape:connector-curvature="0"
       sodipodi:nodetypes="csc" />
    <path
       style="display:inline;opacity:1;fill:none;fill-opacity:1;stroke:#000000;stroke-width:0.25523639;stroke-linecap:round;stroke-linejoin:round;stroke-miterlimit:4;stroke-dasharray:none;stroke-dashoffset:0;stroke-opacity:1"
       d="m 658.21099,507.65258 c -0.0995,4.84422 -1.05527,12.91607 -2.33697,13.17956 -0.86328,0.17747 -1.31993,-0.0866 -2.02028,-0.25951"
       id="path928-7-7-5"
       inkscape:connector-curvature="0"
       sodipodi:nodetypes="csc" />
    <path
       style="opacity:1;vector-effect:none;fill:none;fill-opacity:1;stroke:#000000;stroke-width:0.25523639;stroke-linecap:round;stroke-linejoin:round;stroke-miterlimit:4;stroke-dasharray:none;stroke-dashoffset:0;stroke-opacity:1"
       d="m 617.7064,388.54412 c 4.66951,0.55008 12.13231,0.5817 14.72661,-0.0298"
       id="path965-3-4"
       inkscape:connector-curvature="0"
       sodipodi:nodetypes="cc" />
    <path
       style="display:inline;opacity:1;fill:none;stroke:#000000;stroke-width:0.37795275;stroke-linecap:round;stroke-linejoin:round;stroke-miterlimit:4;stroke-dasharray:none;stroke-opacity:1"
       d="m 682.91624,180.06135 c -13.8836,0.67378 -25.0151,8.19727 -26.6443,27.00283 -5.9455,1.77831 -4.9869,8.15934 -4.6192,14.1465 0.6866,4.71687 1.9202,9.267 6.8612,6.53869 2.168,9.25249 5.2802,12.99692 9.9851,16.63657 -0.5576,7.46312 0.7274,13.23842 -7.2356,14.31513 -20.7332,2.80338 -25.572,6.02258 -33.7161,17.7615 -12.0464,17.36358 -15.4595,59.13213 -15.0478,92.36101 0.2265,18.29006 2.4584,36.14376 5.8485,50.51867 l 2.4517,-0.41952 c -0.3497,3.54948 -1.0914,7.08424 -0.503,10.67076 1.3764,8.12423 5.2672,13.16765 7.795,16.00728 0.9064,1.01794 6.4983,5.01589 7.874,5.08841 0.6724,-0.15495 1.5762,-2.15639 0.7759,-3.15319 0.1865,-0.32322 0.2683,-0.6213 0.2751,-0.9022 0.4792,16.09678 1.1821,55.07622 0.6023,76.26296 -0.8204,29.97534 -5.8869,102.21923 -5.8869,102.21923 l 4.6193,-1.15482 c -5.803,6.31782 -8.0172,10.84123 -10.6821,15.59002 -3.0829,5.49359 -2.568,13.26264 2.021,16.16742 6.5056,4.11795 15.9128,-2.42854 21.9415,-7.2176 6.9655,-5.53329 13.8577,-22.80761 13.8577,-22.80761 l 4.3306,0.5774 4.9914,-87.23144 6.6063,-80.44399 c 3.6638,17.94529 15.004,63.48445 17.5459,80.13396 6.4793,42.43967 4.1286,39.1318 5.147,83.23125 l 5.5122,-1.00598 c 0,0 3.3912,15.66361 7.1116,22.78279 4.3845,8.38992 15.1397,15.48035 26.8495,2.74269 6.3229,-6.87797 -5.7741,-27.42687 -5.7741,-27.42687 l 4.4749,-0.14436 c 0,0 -3.3148,-62.05604 -6.5725,-92.94236 -1.7443,-16.53765 -2.997,-31.51825 -5.4967,-47.95869 -1.828,-12.02306 -5.0245,-29.66282 -6.462,-37.54053 1.5723,0.68623 4.5572,-1.76101 8.0296,-11.05194 1.4516,2.97915 1.1871,5.86358 -0.4398,10.02569 -1.7444,4.46285 -7.1652,5.27173 -5.6455,8.01153 -0.8172,0.98309 0.052,2.99813 0.7217,3.16447 1.3767,-0.0492 7.0362,-3.95066 7.9597,-4.95308 2.5756,-2.79635 6.5539,-7.77222 8.0679,-15.87195 0.7156,-3.9422 -0.1822,-7.84786 -0.3925,-11.7692 l 4.3419,0.3902 c 0,0 3.3838,-40.24566 2.9795,-62.36005 -0.4043,-22.11438 -4.929,-70.01572 -11.1943,-81.01245 -7.7928,-13.67766 -23.5152,-15.19281 -32.4949,-15.5939 -8.0675,-0.36034 -10.1403,-1.76589 -10.2579,-7.01806 l -0.4917,-8.69894 c 4.4501,-2.05829 10.1494,-5.60763 12.1256,-18.76575 5.8878,2.76892 5.0994,-3.89914 5.7741,-8.94982 1.7692,-14.62569 0.3042,-14.95043 -3.1758,-14.4352 -3.0507,-15.39052 -11.3379,-20.92314 -24.745,-21.51746 z m 36.5075,131.3575 4.396,42.01996 -2.1157,62.93521 4.7185,0.42403 -3.0675,12.55186 c -0.592,3.44061 -1.6745,5.75143 -2.269,7.41607 -0.073,-0.39758 -0.5075,-2.80358 -0.5075,-2.80358 l -2.4089,-29.46585 z m -80.28,0.11955 c 0.2493,7.07036 -2.1962,86.41426 -2.0661,91.71763 l -0.9067,20.80021 -1.6916,-7.47471 1.1796,-0.20075 -1.4954,-54.49286 c 0.9389,-25.45765 3.2538,-44.3043 4.9802,-50.34952 z m -8.1785,117.86113 c 2.2183,6.25698 4.269,9.43624 5.8598,10.66625 0.063,1.87036 0.1018,3.52471 0.1895,6.46651 -0.091,-2.01473 -4.7199,-4.24027 -5.7809,-7.10256 -1.1624,-3.1361 -1.7702,-7.07609 -0.2684,-10.0302 z"
       id="path881-3-1-4"
       inkscape:connector-curvature="0"
       sodipodi:nodetypes="cccccssscccccccsccsssccccsccssccssccccccccccsscccccccccccccccccccccccccac" />
    <path
       style="display:inline;opacity:1;fill:none;stroke:#000000;stroke-width:0.37795275;stroke-linecap:butt;stroke-linejoin:miter;stroke-miterlimit:4;stroke-dasharray:none;stroke-opacity:1"
       d="m 636.43854,623.85478 c 2.5118,-7.30079 14.0811,-6.9501 17.3523,-6.83884 4.461,0.15172 10.6692,-0.23379 9.7989,8.67614"
       id="path883-6-2-4"
       inkscape:connector-curvature="0"
       sodipodi:nodetypes="csc" />
    <path
       style="display:inline;opacity:1;fill:none;stroke:#000000;stroke-width:0.37795275;stroke-linecap:butt;stroke-linejoin:miter;stroke-miterlimit:4;stroke-dasharray:none;stroke-opacity:1"
       d="m 707.58294,620.80393 c -0.6381,-6.06046 4.555,-10.07845 11.3898,-11.33107 6.2148,-1.139 16.3416,2.61031 16.6976,9.37419"
       id="path885-7-9-3"
       inkscape:connector-curvature="0"
       sodipodi:nodetypes="csc" />
    <path
       style="display:inline;opacity:1;fill:none;fill-opacity:1;stroke:#000000;stroke-width:0.37795275;stroke-linecap:round;stroke-linejoin:round;stroke-miterlimit:4;stroke-dasharray:none;stroke-dashoffset:0;stroke-opacity:1"
       d="m 707.66124,201.64981 c -0.3069,8.39937 -0.9382,15.80657 -2.5261,23.31284"
       id="path901-5-3-0"
       inkscape:connector-curvature="0"
       sodipodi:nodetypes="cc" />
    <path
       style="display:inline;opacity:1;fill:none;fill-opacity:1;stroke:#000000;stroke-width:0.37795275;stroke-linecap:round;stroke-linejoin:round;stroke-miterlimit:4;stroke-dasharray:none;stroke-dashoffset:0;stroke-opacity:1"
       d="m 656.29164,207.11417 c 0.5183,6.86422 1.2214,13.71723 2.169,20.6186"
       id="path905-3-1-7"
       inkscape:connector-curvature="0"
       sodipodi:nodetypes="cc" />
    <path
       style="display:inline;opacity:1;fill:none;fill-opacity:1;stroke:#000000;stroke-width:0.37795275;stroke-linecap:round;stroke-linejoin:round;stroke-miterlimit:4;stroke-dasharray:none;stroke-dashoffset:0;stroke-opacity:1"
       d="m 682.11094,204.53685 c -2.0252,6.48138 -10.0468,20.6818 1.8405,19.84839"
       id="path907-5-9-8"
       inkscape:connector-curvature="0"
       sodipodi:nodetypes="cc" />
    <path
       style="display:inline;opacity:1;fill:none;fill-opacity:1;stroke:#000000;stroke-width:0.37795275;stroke-linecap:round;stroke-linejoin:round;stroke-miterlimit:4;stroke-dasharray:none;stroke-dashoffset:0;stroke-opacity:1"
       d="m 667.59924,205.9556 c -1.1793,1.9794 0.4752,4.24733 2.4547,4.21022 1.9796,-0.0371 3.6943,-3.2511 2.2674,-4.73585 -1.427,-1.48473 -3.5428,-1.45377 -4.7221,0.52563 z"
       id="path909-6-4-6"
       inkscape:connector-curvature="0"
       sodipodi:nodetypes="zzzz" />
    <path
       style="display:inline;opacity:1;fill:none;fill-opacity:1;stroke:#000000;stroke-width:0.37795275;stroke-linecap:round;stroke-linejoin:round;stroke-miterlimit:4;stroke-dasharray:none;stroke-dashoffset:0;stroke-opacity:1"
       d="m 696.72664,204.10379 c -2.0579,-0.18654 -3.5278,2.40007 -2.5984,3.8975 0.9294,1.49744 2.9529,1.77758 4.2584,0.3248 1.3055,-1.45278 0.3978,-4.03576 -1.66,-4.2223 z"
       id="path911-2-7-8"
       inkscape:connector-curvature="0"
       sodipodi:nodetypes="zzzz" />
    <path
       style="display:inline;opacity:1;fill:none;fill-opacity:1;stroke:#000000;stroke-width:0.37795275;stroke-linecap:round;stroke-linejoin:round;stroke-miterlimit:4;stroke-dasharray:none;stroke-dashoffset:0;stroke-opacity:1"
       d="m 667.16234,228.90659 c 9.8,10.17574 20.0986,11.10467 30.3154,-1.42902 0.2833,-0.90554 -1.0902,-2.40155 -2.201,-1.25637 -7.4156,7.64493 -19.2358,5.37353 -26.5937,0.9935 -1.8922,-1.12639 -2.1294,1.05987 -1.5207,1.69189 z"
       id="path913-9-8-8"
       inkscape:connector-curvature="0"
       sodipodi:nodetypes="scsss" />
    <path
       style="display:inline;opacity:1;fill:none;fill-opacity:1;stroke:#000000;stroke-width:0.37795275;stroke-linecap:round;stroke-linejoin:round;stroke-miterlimit:4;stroke-dasharray:none;stroke-dashoffset:0;stroke-opacity:1"
       d="m 636.81434,447.42451 -0.8934,1.16166 c -1.5833,-0.84797 -4.3036,-2.30177 -5.678,-3.38273 -2.5804,-2.40838 -4.3006,-6.32558 -5.2862,-9.96765"
       id="path899-5-1-4-4"
       inkscape:connector-curvature="0"
       sodipodi:nodetypes="cccc" />
    <path
       style="display:inline;opacity:1;fill:none;fill-opacity:1;stroke:#000000;stroke-width:0.37795275;stroke-linecap:round;stroke-linejoin:round;stroke-miterlimit:4;stroke-dasharray:none;stroke-dashoffset:0;stroke-opacity:1"
       d="m 723.62734,447.35781 0.8736,1.17665 c 1.5975,-0.82099 4.342,-2.22844 5.7346,-3.28595 2.6208,-2.36426 4.4072,-6.25171 5.4544,-9.87653"
       id="path899-5-3-6-2-5-3"
       inkscape:connector-curvature="0"
       sodipodi:nodetypes="cccc" />
    <path
       style="display:inline;opacity:1;fill:none;fill-opacity:1;stroke:#000000;stroke-width:0.37795275;stroke-linecap:round;stroke-linejoin:round;stroke-miterlimit:4;stroke-dasharray:none;stroke-dashoffset:0;stroke-opacity:1"
       d="m 637.28004,403.50901 c 2.887,0.28871 80.8096,0.22166 80.8096,0.22166"
       id="path1009-7-0-1"
       inkscape:connector-curvature="0"
       sodipodi:nodetypes="cc" />
    <path
       style="display:inline;opacity:1;fill:none;fill-opacity:1;stroke:#000000;stroke-width:0.37795275;stroke-linecap:round;stroke-linejoin:round;stroke-miterlimit:4;stroke-dasharray:none;stroke-dashoffset:0;stroke-opacity:1"
       d="m 668.47174,244.4708 c 6.5954,3.39918 16.7876,2.67847 24.6821,-0.85066"
       id="path1015-0-3-4"
       inkscape:connector-curvature="0"
       sodipodi:nodetypes="cc" />
    <path
       style="display:inline;opacity:1;fill:none;fill-opacity:1;stroke:#000000;stroke-width:0.37795275;stroke-linecap:round;stroke-linejoin:round;stroke-miterlimit:4;stroke-dasharray:none;stroke-dashoffset:0;stroke-opacity:1"
       d="m 620.74494,418.9097 13.8053,-2.34767"
       id="path1069-9-6-9"
       inkscape:connector-curvature="0" />
    <path
       style="display:inline;opacity:1;fill:none;fill-opacity:1;stroke:#000000;stroke-width:0.37795275;stroke-linecap:round;stroke-linejoin:round;stroke-miterlimit:4;stroke-dasharray:none;stroke-dashoffset:0;stroke-opacity:1"
       d="m 636.18334,424.07387 c 1.0831,4.219 1.595,8.59375 3.3429,12.63144 1.3605,4.34504 -1.5313,4.50755 -2.6539,3.3939"
       id="path1071-3-1-2"
       inkscape:connector-curvature="0"
       sodipodi:nodetypes="ccc" />
    <path
       style="display:inline;opacity:1;fill:none;fill-opacity:1;stroke:#000000;stroke-width:0.37795275;stroke-linecap:round;stroke-linejoin:round;stroke-miterlimit:4;stroke-dasharray:none;stroke-dashoffset:0;stroke-opacity:1"
       d="m 721.08194,436.70531 c -0.2732,1.26318 -0.9589,2.65323 0.638,3.75115"
       id="path1073-6-0-0"
       inkscape:connector-curvature="0"
       sodipodi:nodetypes="cc" />
    <path
       style="display:inline;opacity:1;fill:none;fill-opacity:1;stroke:#000000;stroke-width:0.37795275;stroke-linecap:round;stroke-linejoin:round;stroke-miterlimit:4;stroke-dasharray:none;stroke-dashoffset:0;stroke-opacity:1"
       d="m 726.41524,416.82674 13.6522,1.22487"
       id="path1075-0-6-6"
       inkscape:connector-curvature="0" />
    <path
       style="display:inline;opacity:1;fill:none;fill-opacity:1;stroke:#000000;stroke-width:0.37795275;stroke-linecap:round;stroke-linejoin:round;stroke-miterlimit:4;stroke-dasharray:none;stroke-dashoffset:0;stroke-opacity:1"
       d="m 639.14344,311.48817 1.2759,-5.18016"
       id="path1090-6-3-8"
       inkscape:connector-curvature="0" />
    <path
       style="display:inline;opacity:1;fill:none;fill-opacity:1;stroke:#000000;stroke-width:0.37795275;stroke-linecap:round;stroke-linejoin:round;stroke-miterlimit:4;stroke-dasharray:none;stroke-dashoffset:0;stroke-opacity:1"
       d="m 719.42594,311.40264 -1.4316,-6.11536"
       id="path1092-2-2-9"
       inkscape:connector-curvature="0" />
  </g>
  <g
     inkscape:groupmode="layer"
     id="layer1"
     inkscape:label="Overlay"
     style="display:inline"
     transform="translate(0,-328.81888)">
    <path
       style="opacity:1;fill:none;fill-opacity:1;stroke:#c0c0c0;stroke-width:0.37795276;stroke-linecap:round;stroke-linejoin:round;stroke-miterlimit:4;stroke-dasharray:none;stroke-dashoffset:0;stroke-opacity:1"
       d="m 708.12252,508.81888 c -13.8836,0.67378 -25.01535,8.19639 -26.64454,27.00195 -5.94551,1.77831 -4.98685,8.15934 -4.61915,14.14649 0.6866,4.71687 1.92034,9.26737 6.86133,6.53906 2.168,9.25249 5.27948,12.99707 9.98438,16.63672 -0.5576,7.46312 0.72118,13.1979 -7.23633,14.31445 -34.2332,4.80338 -52.37318,37.57365 -56.71484,45.76172 -16.26531,30.67523 -10.26405,61.86986 -6.98829,90.61523 -1.51748,0.88651 -3.68883,2.98378 -3.6621,6.29102 -0.61232,0.39835 -0.49856,0.43731 -1.11132,0.94531 -2.54633,2.11097 -4.96181,5.09319 -6.12891,8.3125 -3.27917,9.04512 -7.89494,17.65203 -10.26563,26.97657 -1.83019,7.19871 -3.51838,13.78833 -2.5625,21.15429 1.995,15.37324 14.64223,31.72337 18.03125,42.62891 0.31471,13.01085 1.29062,21.20862 2.64454,21.73828 0.90147,0.35266 0.61917,0.21188 2.50586,-0.11914 -0.14674,7.31168 -0.61685,14.12705 -0.28322,20.88281 0.39836,8.06669 1.03214,15.88682 1.62697,23.94141 1.44343,19.54585 5.32421,46.7225 2.86523,58.72851 -5.1599,8.46106 -8.78315,14.27891 -7.7129,19.07227 1.0359,4.63942 7.84493,4.59391 12.3672,3.12891 6.75638,-2.18877 9.76039,-12.50714 11.46484,-19.4961 h 19.45703 c 0.34546,1.32675 0.89676,2.72091 1.9043,4.69531 2.29084,4.4892 5.72362,9.01621 9.51172,10.55079 6.7667,2.74123 15.23361,2.42284 13.76367,-4.34375 -0.80262,-3.69468 -2.58861,-7.4504 -4.55273,-10.73047 1.83987,-0.0678 3.90012,-0.13398 5.78515,-0.17188 h 3.73047 l -0.42116,-0.0137 c 0.70821,3.6e-4 1.25581,-1.62617 1.30206,-2.97852 l 4.99219,-87.23046 6.60742,-80.44532 c 3.6638,17.94529 16.50302,59.48526 19.04492,76.13477 6.4793,42.43967 7.87808,38.13102 8.89649,82.23047 l 0.26367,3.99414 c 0,0 3.39092,15.66402 7.11133,22.7832 4.3845,8.38992 15.1398,15.47985 26.8496,2.74219 6.3229,-6.87797 -5.77539,-27.42578 -5.77539,-27.42578 l -0.0254,-2.39453 c 0,0 -0.31456,-64.05704 -3.57226,-94.94336 -1.7443,-16.53765 -2.7464,-29.76855 -5.2461,-46.20899 -1.828,-12.02306 -3.77539,-27.16135 -5.21289,-35.03906 1.5723,0.68623 4.55885,-1.7618 8.03125,-11.05273 1.4516,2.97915 1.1855,5.86327 -0.4414,10.02539 -1.7444,4.46285 -7.16423,5.27194 -5.64453,8.01171 -0.8172,0.9831 0.051,2.99772 0.7207,3.16407 1.3767,-0.0492 7.03743,-3.95071 7.96094,-4.95313 2.5756,-2.79635 6.55436,-7.77136 8.06836,-15.87109 0.7156,-3.9422 -0.18228,-7.84819 -0.39258,-11.76953 1.68501,-21.47266 5.9745,-41.14042 5.82031,-61.96875 -0.4043,-22.11438 -3.42806,-70.01694 -9.69336,-81.01367 -7.7928,-13.67766 -23.51639,-15.19266 -32.49609,-15.59375 -8.0675,-0.36034 -10.14022,-1.76541 -10.25782,-7.01758 l -0.49218,-8.69922 c 4.4501,-2.05829 10.15075,-5.60751 12.12695,-18.76563 5.8878,2.76892 5.09874,-3.89852 5.77344,-8.94922 1.7692,-14.62567 0.30422,-14.95077 -3.17578,-14.43554 -3.05073,-15.39049 -11.33707,-20.92322 -24.74417,-21.51755 z M 665.05806,629.3013 c 0.0809,2.295 0.1773,10.53872 -0.29687,25.22461 -5.88812,-2.90145 -13.10179,-2.60611 -20.19532,-1.86523 5.53456,-10.27663 11.80577,-17.72702 20.49219,-23.35938 z m 79.57227,10.875 5.89453,42.01953 c 0,0 1.15315,41.20357 1.13476,61.81055 -4.6e-4,0.51638 0.0728,1.04302 -0.0312,1.54883 -0.8233,4.00596 -3.06836,12.55273 -3.06836,12.55273 -0.592,3.44061 -1.67308,5.75138 -2.26758,7.41602 -0.073,-0.39758 -0.5078,-2.80469 -0.50782,-2.80469 l -2.41015,-29.46484 z m -107.24805,74.33985 c 1.6754,1.25947 3.5281,2.19884 5.54297,2.75585 0.0246,4.03211 -0.73303,6.46163 -1.8457,7.93165 -0.86905,-1.41573 -0.929,-2.3911 -2.71875,-2.76368 -0.37528,-2.56192 -0.6987,-5.21729 -0.97852,-7.92382 z m 25.35547,0.63867 c -0.19436,5.9948 -0.31571,10.18221 -0.38281,13.11328 -4.21753,-0.24573 -4.72558,-3.94281 -4.7168,-10.9961 1.67431,-0.31184 3.40251,-1.05804 5.09961,-2.11718 z m -13.39454,129.6289 c 1.16891,5.78819 1.06747,3.13934 2.02931,8.95118 0.96182,5.81184 2.02356,17.32932 2.74414,26.02148 0.87266,10.52697 1.38986,21.11987 2.41796,31.63281 0.76518,7.82442 4.4426,20.5609 4.88868,26.78711 0.069,0.74804 0.12563,2.45208 0.16211,4.36524 -9.91406,2.84831 -14.48523,4.36089 -18.85938,5.82422 -0.37153,-3.13878 -0.76417,-6.01071 -0.1875,-9.16602 2.64203,-14.4562 3.81638,-28.01941 2.74609,-43.92578 1.12419,-15.73757 3.56491,-31.9702 4.05859,-50.49024 z"
       id="path904"
       inkscape:connector-curvature="0"
       sodipodi:nodetypes="cccccsscccscccccccccccccsccccccccsccccccscccccccccccsccccccccccccsscccccccccccccccssccccscc" />
    <path
       style="opacity:1;fill:none;fill-opacity:1;stroke:#c0c0c0;stroke-width:0.37795276;stroke-linecap:round;stroke-linejoin:round;stroke-miterlimit:4;stroke-dasharray:none;stroke-dashoffset:0;stroke-opacity:1"
       d="m 621.34676,750.53419 c -2.46878,10.33948 -6.15704,19.48687 -7.17678,28.61281 -0.98775,8.8395 1.64721,16.92503 3.77895,25.55911 1.30052,5.26741 1.78148,7.73753 3.0581,12.99372 z"
       id="path906"
       inkscape:connector-curvature="0"
       sodipodi:nodetypes="csscc" />
    <path
       style="opacity:1;fill:none;fill-opacity:1;stroke:#c0c0c0;stroke-width:0.37795276;stroke-linecap:round;stroke-linejoin:round;stroke-miterlimit:4;stroke-dasharray:none;stroke-dashoffset:0;stroke-opacity:1"
       d="m 621.00915,817.59282 1.20637,34.13613"
       id="path908"
       inkscape:connector-curvature="0"
       sodipodi:nodetypes="cc" />
    <path
       style="opacity:1;fill:none;fill-opacity:1;stroke:#c0c0c0;stroke-width:0.37795276;stroke-linecap:round;stroke-linejoin:round;stroke-miterlimit:4;stroke-dasharray:none;stroke-dashoffset:0;stroke-opacity:1"
       d="m 677.72835,748.84612 0.84403,62.71185 c 0,0 9.72763,-23.32106 9.11559,-35.5339 -0.48293,-9.63637 -9.95962,-27.17795 -9.95962,-27.17795 z"
       id="path910"
       inkscape:connector-curvature="0"
       sodipodi:nodetypes="ccsc" />
    <path
       style="opacity:1;fill:none;fill-opacity:1;stroke:#c0c0c0;stroke-width:0.37795276;stroke-linecap:round;stroke-linejoin:round;stroke-miterlimit:4;stroke-dasharray:none;stroke-dashoffset:0;stroke-opacity:1"
       d="m 678.59711,811.64237 1.00013,87.53281 -0.60448,4.68856 c -0.19449,15.6452 -0.96472,31.29041 -1.63565,46.93561 1.95147,2.42617 3.66558,4.91169 5.2852,7.42083"
       id="path912"
       inkscape:connector-curvature="0"
       sodipodi:nodetypes="ccccc" />
    <path
       style="opacity:1;fill:none;fill-opacity:1;stroke:#c0c0c0;stroke-width:0.37795276;stroke-linecap:round;stroke-linejoin:round;stroke-miterlimit:4;stroke-dasharray:none;stroke-dashoffset:0;stroke-opacity:1"
       d="m 621.08843,816.3561 c 7.06914,2.63691 49.40192,2.2729 57.50443,-1.50639"
       id="path914"
       inkscape:connector-curvature="0"
       sodipodi:nodetypes="cc" />
    <path
       style="opacity:1;fill:none;fill-opacity:1;stroke:#c0c0c0;stroke-width:0.37795276;stroke-linecap:round;stroke-linejoin:round;stroke-miterlimit:4;stroke-dasharray:none;stroke-dashoffset:0;stroke-opacity:1"
       d="m 627.86282,673.73335 c -1.21224,6.73881 -1.35081,14.00328 -0.11937,21.42596"
       id="path916"
       inkscape:connector-curvature="0"
       sodipodi:nodetypes="cc" />
    <path
       style="opacity:1;fill:none;fill-opacity:1;stroke:#c0c0c0;stroke-width:0.37795276;stroke-linecap:round;stroke-linejoin:round;stroke-miterlimit:4;stroke-dasharray:none;stroke-dashoffset:0;stroke-opacity:1"
       d="m 676.4904,672.19024 c 0.63712,6.65597 0.34724,14.50964 -0.65279,21.48564"
       id="path918"
       inkscape:connector-curvature="0"
       sodipodi:nodetypes="cc" />
    <path
       style="opacity:1;fill:none;fill-opacity:1;stroke:#c0c0c0;stroke-width:0.37795276;stroke-linecap:round;stroke-linejoin:round;stroke-miterlimit:4;stroke-dasharray:none;stroke-dashoffset:0;stroke-opacity:1"
       d="m 638.70794,671.99367 c -0.92012,1.6254 0.4628,3.72523 2.28913,4.11654 1.77076,0.37939 3.9651,-2.49776 2.87644,-4.70013 -0.91751,-1.85618 -4.37305,-0.8164 -5.16557,0.58359 z"
       id="path920"
       inkscape:connector-curvature="0"
       sodipodi:nodetypes="ssss" />
    <path
       style="opacity:1;fill:none;fill-opacity:1;stroke:#c0c0c0;stroke-width:0.37795276;stroke-linecap:round;stroke-linejoin:round;stroke-miterlimit:4;stroke-dasharray:none;stroke-dashoffset:0;stroke-opacity:1"
       d="m 660.51053,671.29371 c -1.40022,1.81234 0.47757,4.77144 2.76608,4.68265 2.4235,-0.094 3.59102,-3.02906 1.97573,-4.83821 -1.28148,-1.43528 -3.60954,-1.30996 -4.74181,0.15556 z"
       id="path922"
       inkscape:connector-curvature="0"
       sodipodi:nodetypes="ssss" />
    <path
       style="opacity:1;fill:none;fill-opacity:1;stroke:#c0c0c0;stroke-width:0.37795276;stroke-linecap:round;stroke-linejoin:round;stroke-miterlimit:4;stroke-dasharray:none;stroke-dashoffset:0;stroke-opacity:1"
       d="m 638.06286,698.14342 c 7.24123,9.18794 13.97047,15.50958 28.27246,-1.66262 0.67701,-1.07669 -0.0388,-1.83669 -0.71618,-1.43238 -9.04161,5.10487 -16.48284,4.53566 -26.60136,1.30453 -1.08804,-0.33329 -1.5168,1.02327 -0.95492,1.79047 z"
       id="path924"
       inkscape:connector-curvature="0"
       sodipodi:nodetypes="ccccc" />
    <path
       style="opacity:1;fill:none;fill-opacity:1;stroke:#c0c0c0;stroke-width:0.37795276;stroke-linecap:round;stroke-linejoin:round;stroke-miterlimit:4;stroke-dasharray:none;stroke-dashoffset:0;stroke-opacity:1"
       d="m 618.47704,829.70474 c 0.0725,4.36597 0.27766,12.9051 1.20213,13.09791 0.73622,0.15355 1.51283,0.14148 2.18425,-0.027"
       id="path926"
       inkscape:connector-curvature="0"
       sodipodi:nodetypes="csc" />
    <path
       style="opacity:1;fill:none;fill-opacity:1;stroke:#c0c0c0;stroke-width:0.37795276;stroke-linecap:round;stroke-linejoin:round;stroke-miterlimit:4;stroke-dasharray:none;stroke-dashoffset:0;stroke-opacity:1"
       d="m 617.7555,836.40991 c 0.0995,4.84422 1.05528,12.91607 2.33698,13.17956 0.86328,0.17747 1.31993,-0.0866 2.02027,-0.25951"
       id="path928"
       inkscape:connector-curvature="0"
       sodipodi:nodetypes="csc" />
    <path
       style="opacity:1;vector-effect:none;fill:none;fill-opacity:1;stroke:#c0c0c0;stroke-width:0.37795276;stroke-linecap:round;stroke-linejoin:round;stroke-miterlimit:4;stroke-dasharray:none;stroke-dashoffset:0;stroke-opacity:1"
       d="m 642.91205,717.30145 c 4.66951,0.55008 12.13231,0.5817 14.72662,-0.0298"
       id="path965"
       inkscape:connector-curvature="0"
       sodipodi:nodetypes="cc" />
    <path
       style="display:inline;opacity:1;fill:none;stroke:#c0c0c0;stroke-width:0.37795276;stroke-linecap:butt;stroke-linejoin:miter;stroke-miterlimit:4;stroke-dasharray:none;stroke-opacity:1"
       d="m 732.78859,949.56127 c -0.6381,-6.06046 4.555,-10.07845 11.38981,-11.33107 6.21479,-1.139 16.34159,2.61031 16.69759,9.37419"
       id="path885-7"
       inkscape:connector-curvature="0"
       sodipodi:nodetypes="csc" />
    <path
       style="display:inline;opacity:1;fill:none;fill-opacity:1;stroke:#c0c0c0;stroke-width:0.37795276;stroke-linecap:round;stroke-linejoin:round;stroke-miterlimit:4;stroke-dasharray:none;stroke-dashoffset:0;stroke-opacity:1"
       d="m 732.86689,530.40715 c -0.3069,8.39936 -0.9382,15.80656 -2.5261,23.31284"
       id="path901-5"
       inkscape:connector-curvature="0"
       sodipodi:nodetypes="cc" />
    <path
       style="display:inline;opacity:1;fill:none;fill-opacity:1;stroke:#c0c0c0;stroke-width:0.37795276;stroke-linecap:round;stroke-linejoin:round;stroke-miterlimit:4;stroke-dasharray:none;stroke-dashoffset:0;stroke-opacity:1"
       d="m 681.49729,535.87151 c 0.5183,6.86422 1.22141,13.71723 2.169,20.6186"
       id="path905-3"
       inkscape:connector-curvature="0"
       sodipodi:nodetypes="cc" />
    <path
       style="display:inline;opacity:1;fill:none;fill-opacity:1;stroke:#c0c0c0;stroke-width:0.37795276;stroke-linecap:round;stroke-linejoin:round;stroke-miterlimit:4;stroke-dasharray:none;stroke-dashoffset:0;stroke-opacity:1"
       d="m 707.31659,533.29419 c -2.0252,6.48138 -10.04679,20.6818 1.84051,19.84839"
       id="path907-5"
       inkscape:connector-curvature="0"
       sodipodi:nodetypes="cc" />
    <path
       style="display:inline;opacity:1;fill:none;fill-opacity:1;stroke:#c0c0c0;stroke-width:0.37795276;stroke-linecap:round;stroke-linejoin:round;stroke-miterlimit:4;stroke-dasharray:none;stroke-dashoffset:0;stroke-opacity:1"
       d="m 692.80489,534.71294 c -1.1793,1.9794 0.4752,4.24733 2.4547,4.21022 1.9796,-0.0371 3.6943,-3.2511 2.2674,-4.73585 -1.427,-1.48473 -3.5428,-1.45377 -4.7221,0.52563 z"
       id="path909-6"
       inkscape:connector-curvature="0"
       sodipodi:nodetypes="zzzz" />
    <path
       style="display:inline;opacity:1;fill:none;fill-opacity:1;stroke:#c0c0c0;stroke-width:0.37795276;stroke-linecap:round;stroke-linejoin:round;stroke-miterlimit:4;stroke-dasharray:none;stroke-dashoffset:0;stroke-opacity:1"
       d="m 721.9323,532.86113 c -2.0579,-0.18655 -3.5278,2.40007 -2.5984,3.8975 0.9294,1.49744 2.9529,1.77757 4.2584,0.3248 1.3055,-1.45278 0.3978,-4.03576 -1.66,-4.2223 z"
       id="path911-2"
       inkscape:connector-curvature="0"
       sodipodi:nodetypes="zzzz" />
    <path
       style="display:inline;opacity:1;fill:none;fill-opacity:1;stroke:#c0c0c0;stroke-width:0.37795276;stroke-linecap:round;stroke-linejoin:round;stroke-miterlimit:4;stroke-dasharray:none;stroke-dashoffset:0;stroke-opacity:1"
       d="m 692.368,557.66393 c 9.8,10.17574 20.0986,11.10467 30.3154,-1.42902 0.2833,-0.90554 -1.0902,-2.40156 -2.20101,-1.25637 -7.4156,7.64493 -19.2358,5.37353 -26.5937,0.9935 -1.8922,-1.12639 -2.1294,1.05987 -1.52069,1.69189 z"
       id="path913-9"
       inkscape:connector-curvature="0"
       sodipodi:nodetypes="scsss" />
    <path
       style="display:inline;opacity:1;fill:none;fill-opacity:1;stroke:#c0c0c0;stroke-width:0.37795276;stroke-linecap:round;stroke-linejoin:round;stroke-miterlimit:4;stroke-dasharray:none;stroke-dashoffset:0;stroke-opacity:1"
       d="m 748.83299,776.11514 0.8736,1.17665 c 1.5975,-0.82099 4.342,-2.22844 5.7346,-3.28594 2.62081,-2.36426 4.4072,-6.25171 5.4544,-9.87653"
       id="path899-5-3-6-2"
       inkscape:connector-curvature="0"
       sodipodi:nodetypes="cccc" />
    <path
       style="display:inline;opacity:1;fill:none;fill-opacity:1;stroke:#c0c0c0;stroke-width:0.37795276;stroke-linecap:round;stroke-linejoin:round;stroke-miterlimit:4;stroke-dasharray:none;stroke-dashoffset:0;stroke-opacity:1"
       d="m 685.24883,732.51634 c 3.3245,0.60122 58.04646,-0.0283 58.04646,-0.0283"
       id="path1009-7"
       inkscape:connector-curvature="0"
       sodipodi:nodetypes="cc" />
    <path
       style="display:inline;opacity:1;fill:none;fill-opacity:1;stroke:#c0c0c0;stroke-width:0.37795276;stroke-linecap:round;stroke-linejoin:round;stroke-miterlimit:4;stroke-dasharray:none;stroke-dashoffset:0;stroke-opacity:1"
       d="m 693.6774,573.22814 c 6.5954,3.39918 16.7876,2.67847 24.6821,-0.85066"
       id="path1015-0"
       inkscape:connector-curvature="0"
       sodipodi:nodetypes="cc" />
    <path
       style="display:inline;opacity:1;fill:none;fill-opacity:1;stroke:#c0c0c0;stroke-width:0.37795276;stroke-linecap:round;stroke-linejoin:round;stroke-miterlimit:4;stroke-dasharray:none;stroke-dashoffset:0;stroke-opacity:1"
       d="m 746.28759,765.46265 c -0.27319,1.26318 -0.95889,2.65323 0.63801,3.75115"
       id="path1073-6"
       inkscape:connector-curvature="0"
       sodipodi:nodetypes="cc" />
    <path
       style="display:inline;opacity:1;fill:none;fill-opacity:1;stroke:#c0c0c0;stroke-width:0.37795276;stroke-linecap:round;stroke-linejoin:round;stroke-miterlimit:4;stroke-dasharray:none;stroke-dashoffset:0;stroke-opacity:1"
       d="M 744.6316,640.15998 743.2,634.04462"
       id="path1092-2"
       inkscape:connector-curvature="0" />
    <path
       style="opacity:1;vector-effect:none;fill:none;fill-opacity:1;stroke:#c0c0c0;stroke-width:0.37795276;stroke-linecap:round;stroke-linejoin:round;stroke-miterlimit:4;stroke-dasharray:none;stroke-dashoffset:0;stroke-opacity:1"
       d="m 627.769,673.76967 c -1.74549,-0.5336 -4.57516,-1.04112 -5.125,5 -0.37583,4.12929 -0.38996,8.31712 0.375,12.4375 0.46857,2.52393 1.86329,5.07197 4.70312,3.9375"
       id="path3513"
       inkscape:connector-curvature="0"
       sodipodi:nodetypes="cssc" />
    <path
       style="opacity:1;vector-effect:none;fill:none;fill-opacity:1;stroke:#c0c0c0;stroke-width:0.37795276;stroke-linecap:round;stroke-linejoin:round;stroke-miterlimit:4;stroke-dasharray:none;stroke-dashoffset:0;stroke-opacity:1"
       d="m 644.54818,652.66682 c -2.72463,0.26624 -5.49746,0.95663 -7.57509,2.44182 -5.10285,3.64774 -7.21079,11.03061 -9.15315,18.66339"
       id="path3515"
       inkscape:connector-curvature="0"
       sodipodi:nodetypes="csc" />
    <path
       style="opacity:1;vector-effect:none;fill:none;fill-opacity:1;stroke:#c0c0c0;stroke-width:0.37795276;stroke-linecap:round;stroke-linejoin:round;stroke-miterlimit:4;stroke-dasharray:none;stroke-dashoffset:0;stroke-opacity:1"
       d="m 664.76628,654.45917 c 5.33333,3.6739 9.73512,9.03001 11.66726,17.72187"
       id="path3517"
       inkscape:connector-curvature="0"
       sodipodi:nodetypes="cc" />
    <path
       style="opacity:1;vector-effect:none;fill:none;fill-opacity:1;stroke:#c0c0c0;stroke-width:0.37795276;stroke-linecap:round;stroke-linejoin:round;stroke-miterlimit:4;stroke-dasharray:none;stroke-dashoffset:0;stroke-opacity:1"
       d="m 676.47774,672.18104 c 1.40405,-0.0474 3.82534,-0.28461 4.19844,3.35875 0.46612,4.55183 0.56371,9.15106 -0.44195,13.61181 -0.93232,4.13552 -2.68007,4.31702 -4.41941,4.59619 -1.25518,9.42058 -6.12878,16.40506 -13.08147,21.52256"
       id="path3519"
       inkscape:connector-curvature="0"
       sodipodi:nodetypes="csscc" />
    <path
       style="opacity:1;vector-effect:none;fill:none;fill-opacity:1;stroke:#c0c0c0;stroke-width:0.37795276;stroke-linecap:round;stroke-linejoin:round;stroke-miterlimit:4;stroke-dasharray:none;stroke-dashoffset:0;stroke-opacity:1"
       d="m 637.394,714.51967 c -4.58312,-3.49884 -8.28769,-8.93973 -9.71875,-19.40625"
       id="path3521"
       inkscape:connector-curvature="0"
       sodipodi:nodetypes="cc" />
    <path
       style="opacity:1;vector-effect:none;fill:none;fill-opacity:1;stroke:#c0c0c0;stroke-width:0.37795276;stroke-linecap:round;stroke-linejoin:round;stroke-miterlimit:4;stroke-dasharray:none;stroke-dashoffset:0;stroke-opacity:1"
       d="m 637.87413,727.31327 c 0.63437,3.35438 1.55476,6.41138 3.51343,8.77254 l 2.91053,3.24264 c 1.0842,1.8478 -0.79034,3.0537 -3.11765,4.57659 -2.92094,-2.81301 -4.14807,-5.50207 -6.17646,-8.46384 -1.02412,-2.67357 -1.37151,-4.57559 -1.93382,-8.17278"
       id="path3629"
       inkscape:connector-curvature="0"
       sodipodi:nodetypes="cccccc" />
    <path
       style="display:inline;opacity:1;vector-effect:none;fill:none;fill-opacity:1;stroke:#c0c0c0;stroke-width:0.37795276;stroke-linecap:round;stroke-linejoin:round;stroke-miterlimit:4;stroke-dasharray:none;stroke-dashoffset:0;stroke-opacity:1"
       d="m 639.66309,742.33593 c 1.0842,1.8478 -0.85284,2.4912 -3.18015,4.01409 -2.92094,-2.81301 -4.14807,-5.50207 -6.17646,-8.46384 -1.02412,-2.67357 -1.99651,-7.32559 -2.55882,-10.92278"
       id="path3629-2"
       inkscape:connector-curvature="0"
       sodipodi:nodetypes="cccc" />
    <path
       style="display:inline;opacity:1;vector-effect:none;fill:none;fill-opacity:1;stroke:#c0c0c0;stroke-width:0.37795276;stroke-linecap:round;stroke-linejoin:round;stroke-miterlimit:4;stroke-dasharray:none;stroke-dashoffset:0;stroke-opacity:1"
       d="m 633.17318,742.39174 c -0.49221,1.51456 -1.10872,1.39054 -3.58398,2.65886 -2.60722,-3.10603 -3.54319,-5.90975 -5.24709,-9.06936 -0.73576,-2.76685 -0.88012,-4.69494 -1.059,-8.33141"
       id="path3629-7"
       inkscape:connector-curvature="0"
       sodipodi:nodetypes="cccc" />
    <path
       style="display:inline;opacity:1;vector-effect:none;fill:none;fill-opacity:1;stroke:#c0c0c0;stroke-width:0.37795276;stroke-linecap:round;stroke-linejoin:round;stroke-miterlimit:4;stroke-dasharray:none;stroke-dashoffset:0;stroke-opacity:1"
       d="m 627.37304,741.87372 c -0.45091,0.58951 -0.90595,0.88761 -1.73105,1.38895 -2.33904,-2.2526 -3.3217,-4.40595 -4.94599,-6.77768 -0.8201,-2.14094 -1.09829,-3.66404 -1.54856,-6.54459"
       id="path3629-22"
       inkscape:connector-curvature="0"
       sodipodi:nodetypes="cccc" />
    <path
       style="opacity:1;vector-effect:none;fill:none;fill-opacity:1;stroke:#c0c0c0;stroke-width:0.37795276;stroke-linecap:round;stroke-linejoin:round;stroke-miterlimit:4;stroke-dasharray:none;stroke-dashoffset:0;stroke-opacity:1"
       d="m 641.0815,725.20717 c -0.96155,1.36218 -2.09944,1.66639 -3.21843,2.084"
       id="path3658"
       inkscape:connector-curvature="0"
       sodipodi:nodetypes="cc" />
    <path
       style="opacity:1;vector-effect:none;fill:none;fill-opacity:1;stroke:#c0c0c0;stroke-width:0.37795276;stroke-linecap:round;stroke-linejoin:round;stroke-miterlimit:4;stroke-dasharray:none;stroke-dashoffset:0;stroke-opacity:1"
       d="m 642.71875,948.38436 c 0.22996,3.23608 0.71474,6.49037 -0.16383,9.64728"
       id="path3663"
       inkscape:connector-curvature="0"
       sodipodi:nodetypes="cc" />
    <path
       style="opacity:1;vector-effect:none;fill:none;fill-opacity:1;stroke:#c0c0c0;stroke-width:0.37795276;stroke-linecap:round;stroke-linejoin:round;stroke-miterlimit:4;stroke-dasharray:none;stroke-dashoffset:0;stroke-opacity:1"
       d="m 661.58698,942.52974 c 0.0923,5.13 -0.67831,9.50059 0.35087,15.45502"
       id="path3665"
       inkscape:connector-curvature="0"
       sodipodi:nodetypes="cc" />
    <path
       style="opacity:1;vector-effect:none;fill:none;fill-opacity:1;stroke:#c0c0c0;stroke-width:0.37795276;stroke-linecap:round;stroke-linejoin:round;stroke-miterlimit:4;stroke-dasharray:none;stroke-dashoffset:0;stroke-opacity:1"
       d="m 693.13894,952.50468 c -5.68151,-1.69605 -10.54619,-4.79236 -15.42377,-7.86656"
       id="path3667"
       inkscape:connector-curvature="0"
       sodipodi:nodetypes="cc" />
    <path
       style="opacity:1;vector-effect:none;fill:none;fill-opacity:1;stroke:#c0c0c0;stroke-width:0.37795276;stroke-linecap:round;stroke-linejoin:round;stroke-miterlimit:4;stroke-dasharray:none;stroke-dashoffset:0;stroke-opacity:1"
       d="m 662.3577,728.32973 c 7.56052,0.20779 14.33561,-4.57794 22.84839,4.19845 0,0 5.00567,4.21317 8.72532,12.53546 3.54859,7.93958 7.29102,19.25142 8.11884,25.98728 0.83154,6.76613 -0.34411,15.4728 -2.87545,22.41778 -2.40281,6.59233 -5.80985,12.61179 -8.5078,17.96974 -4.23509,8.41063 -6.88238,14.5031 -6.88238,14.5031 0.77247,8.53269 0.96733,22.02083 -0.71875,25.35938 -1.13969,0.6931 -2.81753,0.77935 -4.01562,0.5625"
       id="path3669"
       inkscape:connector-curvature="0"
       sodipodi:nodetypes="ccssssccc" />
    <path
       style="display:inline;opacity:1;fill:none;fill-opacity:1;stroke:#c0c0c0;stroke-width:0.37795276;stroke-linecap:round;stroke-linejoin:round;stroke-miterlimit:4;stroke-dasharray:none;stroke-dashoffset:0;stroke-opacity:1"
       d="m 682.39652,829.70474 c -0.0725,4.36597 -0.27765,12.9051 -1.20213,13.09791 -0.73621,0.15355 -1.51282,0.14148 -2.18425,-0.027"
       id="path926-6"
       inkscape:connector-curvature="0"
       sodipodi:nodetypes="csc" />
    <path
       style="display:inline;opacity:1;fill:none;fill-opacity:1;stroke:#c0c0c0;stroke-width:0.37795276;stroke-linecap:round;stroke-linejoin:round;stroke-miterlimit:4;stroke-dasharray:none;stroke-dashoffset:0;stroke-opacity:1"
       d="m 683.43596,836.40991 c -0.0995,4.84422 -1.05528,12.91607 -2.33698,13.17956 -0.86327,0.17747 -1.31992,-0.0866 -2.02027,-0.25951"
       id="path928-1"
       inkscape:connector-curvature="0"
       sodipodi:nodetypes="csc" />
  </g>
</svg>
