<?xml version="1.0" encoding="UTF-8" standalone="no"?>
<!-- Created with Inkscape (http://www.inkscape.org/) -->

<svg
   xmlns:dc="http://purl.org/dc/elements/1.1/"
   xmlns:cc="http://creativecommons.org/ns#"
   xmlns:rdf="http://www.w3.org/1999/02/22-rdf-syntax-ns#"
   xmlns:svg="http://www.w3.org/2000/svg"
   xmlns="http://www.w3.org/2000/svg"
   xmlns:sodipodi="http://sodipodi.sourceforge.net/DTD/sodipodi-0.dtd"
   xmlns:inkscape="http://www.inkscape.org/namespaces/inkscape"
   width="297mm"
   height="210mm"
   id="svg2"
   version="1.1"
   inkscape:version="0.92.3 (2405546, 2018-03-11)"
   sodipodi:docname="Tractor-undecorated.svg">
  <defs
     id="defs4" />
  <sodipodi:namedview
     id="base"
     pagecolor="#ffffff"
     bordercolor="#666666"
     borderopacity="1.0"
     inkscape:pageopacity="0.0"
     inkscape:pageshadow="2"
     inkscape:zoom="1"
     inkscape:cx="613.72502"
     inkscape:cy="484.94755"
     inkscape:document-units="mm"
     inkscape:current-layer="layer1"
     showgrid="false"
     units="mm"
     inkscape:window-width="1920"
     inkscape:window-height="1080"
     inkscape:window-x="1920"
     inkscape:window-y="0"
     inkscape:window-maximized="0"
     inkscape:snap-global="false" />
  <metadata
     id="metadata7">
    <rdf:RDF>
      <cc:Work
         rdf:about="">
        <dc:format>image/svg+xml</dc:format>
        <dc:type
           rdf:resource="http://purl.org/dc/dcmitype/StillImage" />
        <dc:title></dc:title>
      </cc:Work>
    </rdf:RDF>
  </metadata>
  <g
     inkscape:label="Mask"
     inkscape:groupmode="layer"
     id="Mask"
     style="display:inline"
     transform="translate(0,-328.81888)">
    <path
       style="fill:#ffffff;fill-opacity:1;stroke:#808080;stroke-width:0.75590551;stroke-linecap:butt;stroke-linejoin:miter;stroke-miterlimit:4;stroke-dasharray:none;stroke-opacity:1"
       d="m 647,778.26966 c -18.94965,-50.77255 -52.56651,-52.21005 -90,-42.24999 l -15,-76.75 h 57 v -77.00001 h 8.33333 v -75.24999 h 8.33334 v 75.24999 H 624 v 77.00001 h 119 l 37.5,-100.25 H 764 c 4.54236,-5.98588 14.58014,-12.97329 27,-13.5 l 106.5,-2.5 c 14.10068,0.59376 19.72419,4.41175 20.5,16 h -22 l 7.5,91.5 c -116.92871,-28.98491 -166.4214,70.41931 -146,127.74999 z"
       id="path923"
       inkscape:connector-curvature="0"
       sodipodi:nodetypes="ccccccccccccccccccccc" />
    <circle
       style="fill:#ffffff;fill-opacity:1;stroke:#808080;stroke-width:0.75590551;stroke-linecap:round;stroke-linejoin:round;stroke-miterlimit:4;stroke-dasharray:none;stroke-opacity:1"
       id="path925"
       cx="583.5"
       cy="795.51965"
       r="58" />
    <circle
       style="fill:#ffffff;fill-opacity:1;stroke:#808080;stroke-width:0.75590551;stroke-linecap:round;stroke-linejoin:round;stroke-miterlimit:4;stroke-dasharray:none;stroke-opacity:1"
       id="path927"
       cx="863.25"
       cy="752.76965"
       r="100.75" />
  </g>
  <g
     inkscape:groupmode="layer"
     id="layer1"
     inkscape:label="Overlay"
     style="display:inline"
     transform="translate(0,-328.81888)">
    <path
       style="display:inline;fill:#ffffff;fill-opacity:1;stroke:#c0c0c0;stroke-width:0.37795275;stroke-linecap:round;stroke-linejoin:round;stroke-miterlimit:4;stroke-dasharray:none;stroke-opacity:1"
       d="m 783.125,564.51967 -39.37501,105.5 c -1.25505,3.17469 -3.27527,7.52714 -3.5,11.5 v 28.3243 c 0.39336,4.11133 8.18836,5.26946 15.43199,5.1757 0.58785,-22.88604 45.56851,-90.67904 131.85355,-72.31801 4.28662,0.49607 7.14265,-1.71845 6.96447,-9.68199 l -5,-70.5 c -0.74252,-2.4712 -1.7855,-6.22503 -5.75001,-6.24999 h -93 c -2.22884,0.133 -5.33666,2.9667 -7.62499,8.24999 z"
       id="path929"
       inkscape:connector-curvature="0"
       sodipodi:nodetypes="ccccccccccc" />
    <path
       style="fill:none;fill-opacity:1;stroke:#c0c0c0;stroke-width:0.37795275;stroke-linecap:round;stroke-linejoin:round;stroke-miterlimit:4;stroke-dasharray:none;stroke-opacity:1"
       d="m 787,563.26966 -19,50.25001 c -1.02233,3.98307 1.17442,4.19206 3.5,4.25 h 110.74999 c 3.68487,0.0137 7.5526,0.25459 7,-5 L 886,565.26967 c -0.37987,-3.44141 -2.18967,-6.30297 -3.75001,-6.375 H 792 c -2.18927,0.15184 -4.01623,1.91651 -5,4.37499 z"
       id="path932"
       inkscape:connector-curvature="0"
       sodipodi:nodetypes="ccccccccc" />
    <path
       style="fill:none;fill-opacity:1;stroke:#c0c0c0;stroke-width:0.37795275;stroke-linecap:round;stroke-linejoin:round;stroke-miterlimit:4;stroke-dasharray:none;stroke-opacity:1"
       d="m 771.80705,621.53451 c -2.72115,0.32889 -5.33526,0.90752 -7.07107,3.53554 l -19.79899,49.85102 c -1.01842,2.92427 -1.80511,5.50406 -1.76776,9.54595 v 9.19239 c -0.0272,3.00137 0.96449,4.09847 2.2981,4.24263 h 10.07626 c 16.21146,-30.36317 50.90637,-69.59974 127.98633,-60.45762 2.76164,0.48314 6.97008,0.27795 7.07107,-3.18199 l -0.44194,-8.92721 c -0.67559,-2.24118 -3.03941,-3.54132 -4.86136,-3.80071 z"
       id="path934"
       inkscape:connector-curvature="0"
       sodipodi:nodetypes="cccccccccccc" />
    <path
       style="fill:none;stroke:#c0c0c0;stroke-width:0.37795275;stroke-linecap:round;stroke-linejoin:round;stroke-miterlimit:4;stroke-dasharray:none;stroke-opacity:1"
       d="m 599.05072,659.21385 24.94513,0.0419"
       id="path936"
       inkscape:connector-curvature="0"
       sodipodi:nodetypes="cc" />
    <path
       style="fill:none;stroke:#c0c0c0;stroke-width:0.37795275;stroke-linecap:round;stroke-linejoin:round;stroke-miterlimit:4;stroke-dasharray:none;stroke-opacity:1"
       d="m 607.28125,582.33217 8.375,-0.0312"
       id="path938"
       inkscape:connector-curvature="0" />
    <circle
       style="fill:none;fill-opacity:1;stroke:#c0c0c0;stroke-width:0.37795275;stroke-linecap:round;stroke-linejoin:round;stroke-miterlimit:4;stroke-dasharray:none;stroke-opacity:1"
       id="path940"
       cx="583.5"
       cy="795.51965"
       r="36.140903" />
    <circle
       style="display:inline;fill:none;fill-opacity:1;stroke:#c0c0c0;stroke-width:0.37795275;stroke-linecap:round;stroke-linejoin:round;stroke-miterlimit:4;stroke-dasharray:none;stroke-opacity:1"
       id="path942"
       cx="863.25"
       cy="752.76965"
       r="64.04966" />
    <path
       style="fill:none;stroke:#c0c0c0;stroke-width:0.37795275;stroke-linecap:round;stroke-linejoin:round;stroke-miterlimit:4;stroke-dasharray:none;stroke-opacity:1"
       d="M 881.375,637.17591 V 621.57145"
       id="path949"
       inkscape:connector-curvature="0"
       sodipodi:nodetypes="cc" />
    <path
       style="fill:none;stroke:#c0c0c0;stroke-width:0.37795275;stroke-linecap:round;stroke-linejoin:round;stroke-miterlimit:4;stroke-dasharray:none;stroke-opacity:1"
       d="m 881.375,617.64467 v -12.375 c 0,-1.83913 -7.5,-1.48926 -8.25,0.25 l -3.87501,12.19887"
       id="path951"
       inkscape:connector-curvature="0"
       sodipodi:nodetypes="cccc" />
    <path
       style="fill:none;stroke:#c0c0c0;stroke-width:0.37795275;stroke-linecap:round;stroke-linejoin:round;stroke-miterlimit:4;stroke-dasharray:none;stroke-opacity:1"
       d="m 868.1875,621.61343 -4.43751,14.40624"
       id="path953"
       inkscape:connector-curvature="0"
       sodipodi:nodetypes="cc" />
  </g>
</svg>
