<?xml version="1.0" encoding="UTF-8" standalone="no"?>
<!-- Created with Inkscape (http://www.inkscape.org/) -->

<svg
   xmlns:dc="http://purl.org/dc/elements/1.1/"
   xmlns:cc="http://creativecommons.org/ns#"
   xmlns:rdf="http://www.w3.org/1999/02/22-rdf-syntax-ns#"
   xmlns:svg="http://www.w3.org/2000/svg"
   xmlns="http://www.w3.org/2000/svg"
   xmlns:xlink="http://www.w3.org/1999/xlink"
   xmlns:sodipodi="http://sodipodi.sourceforge.net/DTD/sodipodi-0.dtd"
   xmlns:inkscape="http://www.inkscape.org/namespaces/inkscape"
   width="297mm"
   height="210mm"
   id="svg2"
   version="1.1"
   inkscape:version="0.92.3 (2405546, 2018-03-11)"
   sodipodi:docname="Tractor.svg"
   viewBox="0 0 1052.3622 744.09448">
  <defs
     id="defs4" />
  <sodipodi:namedview
     id="base"
     pagecolor="#ffffff"
     bordercolor="#666666"
     borderopacity="1.0"
     inkscape:pageopacity="0.0"
     inkscape:pageshadow="2"
     inkscape:zoom="1"
     inkscape:cx="909.72502"
     inkscape:cy="484.94755"
     inkscape:document-units="mm"
     inkscape:current-layer="layer1"
     showgrid="false"
     units="mm"
     inkscape:window-width="1920"
     inkscape:window-height="1015"
     inkscape:window-x="0"
     inkscape:window-y="0"
     inkscape:window-maximized="1"
     inkscape:snap-global="false" />
  <metadata
     id="metadata7">
    <rdf:RDF>
      <cc:Work
         rdf:about="">
        <dc:format>image/svg+xml</dc:format>
        <dc:type
           rdf:resource="http://purl.org/dc/dcmitype/StillImage" />
        <dc:title></dc:title>
      </cc:Work>
    </rdf:RDF>
  </metadata>
  <g
     inkscape:label="Mask"
     inkscape:groupmode="layer"
     id="Mask"
     style="display:inline"
     transform="translate(0,-308.2677)">
    <path
       style="fill:#ffffff;fill-opacity:1;stroke:#808080;stroke-width:0.70866144;stroke-linecap:butt;stroke-linejoin:miter;stroke-miterlimit:4;stroke-dasharray:none;stroke-opacity:1"
       d="m 606.5625,729.62781 c -17.7653,-47.59927 -49.2811,-48.94693 -84.375,-39.60937 L 508.125,618.06532 h 53.4375 v -72.18751 h 7.8125 v -70.54687 h 7.8125 v 70.54687 H 585 v 72.18751 h 111.5625 l 35.15625,-93.98438 H 716.25 c 4.25846,-5.61176 13.66888,-12.16246 25.3125,-12.65625 l 99.84375,-2.34375 c 13.21939,0.55665 18.49143,4.13602 19.21875,15 H 840 l 7.03125,85.78125 c -109.62067,-27.17335 -156.02006,66.0181 -136.875,119.76562 z"
       id="path923"
       inkscape:connector-curvature="0"
       sodipodi:nodetypes="ccccccccccccccccccccc" />
    <circle
       style="fill:#ffffff;fill-opacity:1;stroke:#808080;stroke-width:0.70866144;stroke-linecap:round;stroke-linejoin:round;stroke-miterlimit:4;stroke-dasharray:none;stroke-opacity:1"
       id="path925"
       cx="547.03125"
       cy="745.79968"
       r="54.375" />
    <circle
       style="fill:#ffffff;fill-opacity:1;stroke:#808080;stroke-width:0.70866144;stroke-linecap:round;stroke-linejoin:round;stroke-miterlimit:4;stroke-dasharray:none;stroke-opacity:1"
       id="path927"
       cx="809.29688"
       cy="705.72156"
       r="94.453125" />
  </g>
  <g
     inkscape:groupmode="layer"
     id="layer1"
     inkscape:label="Overlay"
     style="display:inline"
     transform="translate(0,-308.2677)">
    <path
       style="display:inline;fill:#ffffff;stroke:#c0c0c0;stroke-width:0.35433071;stroke-linecap:round;stroke-linejoin:round;stroke-opacity:1;stroke-miterlimit:4;stroke-dasharray:none;fill-opacity:1"
       d="m 734.17969,529.23719 -36.91407,98.90625 c -1.17661,2.97627 -3.07057,7.05669 -3.28125,10.78125 v 26.55403 c 0.36877,3.85437 7.67658,4.94012 14.46749,4.85222 0.55111,-21.45566 42.72047,-85.0116 123.6127,-67.79814 4.01871,0.46507 6.69623,-1.61104 6.52919,-9.07686 l -4.6875,-66.09375 c -0.69611,-2.31675 -1.67391,-5.83597 -5.39063,-5.85937 h -87.1875 c -2.08954,0.12469 -5.00312,2.78128 -7.14843,7.73437 z"
       id="path929"
       inkscape:connector-curvature="0"
       sodipodi:nodetypes="ccccccccccc"
       transform="translate(0,1.5793938e-6)" />
    <path
       style="fill:none;stroke:#c0c0c0;stroke-width:0.35433071;stroke-linecap:round;stroke-linejoin:round;stroke-opacity:1;stroke-miterlimit:4;stroke-dasharray:none;fill-opacity:1"
       d="M 737.8125,528.06531 720,575.17469 c -0.95843,3.73413 1.10102,3.93006 3.28125,3.98438 h 103.82812 c 3.45456,0.0128 7.08056,0.23867 6.5625,-4.6875 L 830.625,529.94032 c -0.35613,-3.22633 -2.05282,-5.90904 -3.51563,-5.97657 H 742.5 c -2.05244,0.14235 -3.76522,1.79673 -4.6875,4.10156 z"
       id="path932"
       inkscape:connector-curvature="0"
       sodipodi:nodetypes="ccccccccc" />
    <path
       style="fill:none;stroke:#c0c0c0;stroke-width:0.35433071;stroke-linecap:round;stroke-linejoin:round;stroke-opacity:1;stroke-miterlimit:4;stroke-dasharray:none;fill-opacity:1"
       d="m 723.56911,582.6886 c -2.55108,0.30834 -5.00181,0.8508 -6.62913,3.31457 l -18.56155,46.73533 c -0.95477,2.74151 -1.69229,5.16006 -1.65728,8.94933 v 8.61787 c -0.0255,2.81378 0.90421,3.84231 2.15447,3.97746 h 9.4465 c 15.19824,-28.46547 47.72472,-65.24975 119.98718,-56.67902 2.58904,0.45295 6.53445,0.26058 6.62913,-2.98311 l -0.41432,-8.36926 c -0.63337,-2.10111 -2.84945,-3.31999 -4.55753,-3.56317 z"
       id="path934"
       inkscape:connector-curvature="0"
       sodipodi:nodetypes="cccccccccccc" />
    <path
       style="fill:none;stroke:#c0c0c0;stroke-width:0.35433071;stroke-linecap:round;stroke-linejoin:round;stroke-opacity:1;stroke-miterlimit:4;stroke-dasharray:none"
       d="m 561.61005,618.01298 23.38606,0.0393"
       id="path936"
       inkscape:connector-curvature="0"
       sodipodi:nodetypes="cc" />
    <path
       style="fill:none;stroke:#c0c0c0;stroke-width:0.35433071;stroke-linecap:round;stroke-linejoin:round;stroke-opacity:1;stroke-miterlimit:4;stroke-dasharray:none"
       d="m 569.32617,545.93641 7.85156,-0.0293"
       id="path938"
       inkscape:connector-curvature="0" />
    <circle
       style="fill:none;fill-opacity:1;stroke:#c0c0c0;stroke-width:0.35433071;stroke-linecap:round;stroke-linejoin:round;stroke-miterlimit:4;stroke-dasharray:none;stroke-opacity:1"
       id="path940"
       cx="547.03125"
       cy="745.79968"
       r="33.882095" />
    <circle
       style="display:inline;fill:none;fill-opacity:1;stroke:#c0c0c0;stroke-width:0.35433072;stroke-linecap:round;stroke-linejoin:round;stroke-miterlimit:4;stroke-dasharray:none;stroke-opacity:1"
       id="path942"
       cx="809.29688"
       cy="705.72156"
       r="60.046555" />
    <path
       style="fill:none;stroke:#c0c0c0;stroke-width:0.35433072;stroke-linecap:round;stroke-linejoin:round;stroke-miterlimit:4;stroke-dasharray:none;stroke-opacity:1"
       d="m 826.28906,597.35242 0,-14.62919"
       id="path949"
       inkscape:connector-curvature="0"
       sodipodi:nodetypes="cc" />
    <path
       style="fill:none;stroke:#c0c0c0;stroke-width:0.35433072;stroke-linecap:round;stroke-linejoin:round;stroke-miterlimit:4;stroke-dasharray:none;stroke-opacity:1"
       d="m 826.28906,579.04188 v -11.60156 c 0,-1.72419 -7.03125,-1.39619 -7.73437,0.23437 l -3.63282,11.43644"
       id="path951"
       inkscape:connector-curvature="0"
       sodipodi:nodetypes="cccc" />
    <path
       style="fill:none;stroke:#c0c0c0;stroke-width:0.35433072;stroke-linecap:round;stroke-linejoin:round;stroke-miterlimit:4;stroke-dasharray:none;stroke-opacity:1"
       d="m 813.92578,582.76259 -4.16016,13.50585"
       id="path953"
       inkscape:connector-curvature="0"
       sodipodi:nodetypes="cc" />
  </g>
</svg>
