<?xml version="1.0" encoding="UTF-8" standalone="no"?>
<!-- Created with Inkscape (http://www.inkscape.org/) -->

<svg
   xmlns:dc="http://purl.org/dc/elements/1.1/"
   xmlns:cc="http://creativecommons.org/ns#"
   xmlns:rdf="http://www.w3.org/1999/02/22-rdf-syntax-ns#"
   xmlns:svg="http://www.w3.org/2000/svg"
   xmlns="http://www.w3.org/2000/svg"
   xmlns:sodipodi="http://sodipodi.sourceforge.net/DTD/sodipodi-0.dtd"
   xmlns:inkscape="http://www.inkscape.org/namespaces/inkscape"
   width="297mm"
   height="210mm"
   id="svg2"
   version="1.1"
   inkscape:version="0.92.3 (2405546, 2018-03-11)"
   sodipodi:docname="FlowerFairy-undecorated.svg"
   inkscape:export-filename="/home/christian/SportsCar.svg.png"
   inkscape:export-xdpi="138.06"
   inkscape:export-ydpi="138.06">
  <defs
     id="defs4" />
  <sodipodi:namedview
     id="base"
     pagecolor="#ffffff"
     bordercolor="#666666"
     borderopacity="1.0"
     inkscape:pageopacity="0.0"
     inkscape:pageshadow="2"
     inkscape:zoom="1.4142136"
     inkscape:cx="433.51739"
     inkscape:cy="433.57082"
     inkscape:document-units="mm"
     inkscape:current-layer="layer2"
     showgrid="false"
     units="mm"
     inkscape:window-width="1920"
     inkscape:window-height="1080"
     inkscape:window-x="1920"
     inkscape:window-y="0"
     inkscape:window-maximized="0"
     inkscape:snap-global="false"
     showguides="false" />
  <metadata
     id="metadata7">
    <rdf:RDF>
      <cc:Work
         rdf:about="">
        <dc:format>image/svg+xml</dc:format>
        <dc:type
           rdf:resource="http://purl.org/dc/dcmitype/StillImage" />
        <dc:title></dc:title>
      </cc:Work>
    </rdf:RDF>
  </metadata>
  <g
     inkscape:label="Mask"
     inkscape:groupmode="layer"
     id="Mask"
     style="display:inline;opacity:1"
     transform="translate(0,-328.81888)">
    <path
       style="display:inline;fill:#ffffff;fill-opacity:1;stroke:#808080;stroke-width:0.75590551;stroke-linecap:round;stroke-linejoin:round;stroke-miterlimit:4;stroke-dasharray:none;stroke-dashoffset:0;stroke-opacity:1"
       d="m 873.97461,536.44974 c -50.62817,0.34294 -112.74217,27.56787 -157.01367,101.05664 l -1.14649,-0.0176 -5.17187,-0.2207 c -1.33927,-0.30369 -3.06884,0.48544 -2.82813,-4.24219 l -0.17773,-9.01562 c 5.45155,-3.06369 11.062,-5.8096 15.38086,-11.13868 6.61645,-8.16409 10.13527,-17.9096 12.55078,-28.10742 2.41551,-10.19782 2.26314,-24.91598 1.06055,-36.59179 -2.82878,4.69155 -5.65755,3.45578 -8.48633,2.29882 -2.27643,1.81065 -5.48922,-0.21013 -6.97852,-2.61132 -1.36429,2.72381 -5.25509,2.31721 -9.63867,-0.39454 -6.62095,5.04672 -8.08722,0.97362 -10.60547,-1.23828 -5.27431,4.95912 -8.30639,4.49988 -10.88672,1.02735 -1.70534,2.6525 -6.70893,3.54162 -7.67578,1.44726 0,0 -2.41026,9.88731 -3.53515,14.84961 -0.86616,3.82095 -1.99501,7.60181 -2.47461,11.49024 -0.43307,3.51116 -0.47996,7.07191 -0.35352,10.60742 0.16104,4.50282 1.19719,17.56948 5.30274,25.98633 3.70042,7.58632 13.82639,13.40802 14.49609,13.43554 l 0.35351,7.24805 c 0.45128,4.83793 -0.97709,6.15152 -3.18164,6.00977 l -5.98437,0.8789 C 642.19403,563.69833 578.67231,536.24924 527.37109,536.45365 c -22.38935,0.0892 -42.45165,5.44575 -57.61132,14.37109 31.23709,6.50379 62.9365,52.58771 22.98046,68.23437 27.09892,1.82595 59.53403,49.31492 13.08204,67.5293 29.38008,4.66242 64.34843,44.44558 9.90039,83.79297 38.82614,11.964 56.19646,34.80563 28.2832,80.60938 21.36935,-2.85622 32.24065,6.99512 35.70898,25.80859 17.83958,-66.32668 11.44653,-148.22486 73.24414,-191.67383 l -6.45898,25.39453 -7.94531,36.29102 c -0.24832,0.85018 -0.48502,1.6235 -0.69727,2.21093 -2.37026,6.55998 -2.21365,5.37961 -4.625,7.5293 -2.41136,2.1497 -6.0848,2.71657 -9.55859,4.45508 -3.4738,1.7385 -14.19484,7.1375 -16.07031,9.10352 -1.65037,1.75771 1.62207,2.19567 3.03515,1.44921 0.85085,0.67673 0.79898,0.8047 4.19531,-0.22851 3.9648,-1.20611 6.2356,-1.90899 10.78711,-3.0586 4.5515,-1.1496 8.32761,-2.0418 13.08985,-2.29687 4.76235,-0.25507 5.72017,-0.84189 11.11328,-9.3125 2.10662,-3.30866 3.82338,-8.97809 5.34961,-15.3457 l 6.57617,-25.29688 9.25,-40 c 0,0 -2.73927,21.19692 1,36 2.47323,9.79105 9.58417,23.85441 2.54297,35.26172 -9.25181,14.98869 -48.11039,75.57149 -46.79297,147.23828 9.35827,-1.33632 20.0475,-3.64061 26,-2.5 5.40829,3.0494 10.40468,0.33225 15.5,-1 0.60802,-1.15432 4.44105,-2.02328 7.04883,-2.17773 10.64284,-3.16866 5.21276,0.10228 9.45117,-0.82227 0.73724,-0.0406 1.44995,-0.13683 2.15234,-0.25586 l 1.08008,5.03321 c -3.3317,2.73849 -9.65185,11.12365 -12.66406,17.36718 -1.31636,1.53216 -3.62259,3.61657 -4.29492,5.18555 -0.50614,0.91417 0.12925,1.41301 1.55078,1.96484 0.0895,0.59737 -1.0257,1.56403 1.3125,1.92969 0.49331,1.18856 1.78978,1.80855 2.81055,1.80469 0.58267,0.38161 2.11713,1.27941 2.99609,1.47265 3.77487,3.71557 5.68773,0.56978 8.0918,-2.63671 8.58712,-16.62811 11.74642,-18.73456 12.91992,-19.41602 0.20379,0.30174 0.4402,0.56476 0.71094,0.77539 0.62076,0.72476 3.23206,0.15508 12.72656,20.20117 2.29248,3.28721 4.09775,6.49577 7.99804,2.91211 0.88509,-0.16293 2.44948,-1.00777 3.04493,-1.36914 1.02003,0.0389 2.33527,-0.53417 2.86914,-1.70508 2.34937,-0.28509 1.26695,-1.29083 1.37695,-1.88476 1.43965,-0.50266 2.09161,-0.97914 1.61719,-1.91016 -0.61802,-1.59116 -2.85034,-3.7536 -4.11328,-5.33008 -2.79591,-6.34335 -8.82295,-14.9416 -12.0586,-17.79296 l 1.625,-6.49024 c 2.85807,-0.006 4.48951,-1.16759 6.24805,-1.10547 5.15856,0.61577 10.75812,-0.53246 15,3.75 3.74603,-1.45436 5.75526,3.57807 14.25,-0.25 4.25175,3.9737 8.93965,1.40527 13.5,0.75 -0.0947,3.78147 5.3779,0.3254 8.25,0.25 2.20284,-50.17638 -17.51613,-101.33317 -44,-141 -9.84184,-14.60944 -7.97024,-28.21429 -3.25,-39.75 4.72024,-11.53571 5.77946,-21.6936 6.25,-33.75 0,0 3.59272,16.00865 5.75,28.25 2.15728,12.24135 2.34111,36.22786 6.75,45.25 4.40889,9.02214 5.29635,9.71231 10,10.5 4.70365,0.78769 8.35619,2.09708 12.75,3.75 4.39381,1.65292 6.57055,2.60673 10.375,4.25 3.25902,1.40768 3.22118,1.27427 4.14258,0.69727 1.32045,0.90025 4.62247,0.83215 3.17969,-1.09961 -1.64313,-2.16399 -11.6904,-8.73045 -14.94727,-10.84766 -3.25687,-2.11721 -6.845,-3.09337 -9,-5.5 -2.155,-2.40663 -2.13055,-1.21553 -3.75,-8 -1.61945,-6.78447 -3.703,-31.59848 -4.75,-41 -1.047,-9.40152 -3.51953,-19.80859 -3.51953,-19.80859 58.01667,44.05255 54.96162,128.5553 72.45312,193.58789 3.46833,-18.81347 14.33964,-28.66481 35.70899,-25.80859 -27.91325,-45.80374 -10.54294,-68.64538 28.2832,-80.60938 -54.44804,-39.34739 -19.4797,-79.13055 9.90039,-83.79297 -46.45199,-18.21438 -14.01687,-65.70335 13.08203,-67.5293 -39.95602,-15.64666 -8.25663,-61.73058 22.98047,-68.23437 -15.51211,-9.13284 -36.15126,-14.53088 -59.16406,-14.375 z M 701.00586,885.93411 c 0.9892,0.15434 2.02882,0.41942 3.125,0.81446 -0.0907,1.45778 -0.4035,2.96104 -1.31055,4.44531 -0.0223,0.0366 -0.0406,0.0728 -0.0625,0.10938 -0.18386,-0.40639 -0.38373,-0.81522 -0.61719,-1.22852 -0.78838,-1.39572 -1.0628,-2.78782 -1.13476,-4.14063 z"
       id="path1637"
       inkscape:connector-curvature="0" />
  </g>
  <g
     inkscape:groupmode="layer"
     id="layer1"
     inkscape:label="Overlay"
     style="display:inline"
     transform="translate(0,-328.81888)">
    <path
       style="fill:none;stroke:#c0c0c0;stroke-width:0.37795275;stroke-linecap:round;stroke-linejoin:round;stroke-miterlimit:4;stroke-dasharray:none;stroke-dashoffset:0;stroke-opacity:1"
       d="m 695.88147,625.11425 c 2.77993,0.63561 8.39202,0.0982 11.79984,-1.01646"
       id="path1662"
       inkscape:connector-curvature="0"
       sodipodi:nodetypes="cc" />
    <path
       style="fill:none;stroke:#c0c0c0;stroke-width:0.37795275;stroke-linecap:round;stroke-linejoin:round;stroke-miterlimit:4;stroke-dasharray:none;stroke-dashoffset:0;stroke-opacity:1"
       d="m 686.77747,618.79449 c -4.9737,-4.80205 -5.61612,-17.77552 -2.56326,-29.78688 3.05284,-12.01135 10.3465,-21.45731 21.30159,-21.2132 10.95508,0.24411 18.52077,12.26067 19.97576,21.30159 1.45501,9.04092 -5.74523,27.312 -5.74523,27.312"
       id="path1664"
       inkscape:connector-curvature="0"
       sodipodi:nodetypes="czzzc" />
    <path
       style="fill:none;stroke:#c0c0c0;stroke-width:0.37795275;stroke-linecap:round;stroke-linejoin:round;stroke-miterlimit:4;stroke-dasharray:none;stroke-dashoffset:0;stroke-opacity:1"
       d="m 761.54811,756.22678 9.625,5 c 3.17854,1.13542 1.34428,5.21593 -1.39866,3.5076"
       id="path1666"
       inkscape:connector-curvature="0"
       sodipodi:nodetypes="ccc" />
    <path
       style="display:inline;opacity:1;fill:none;stroke:#c0c0c0;stroke-width:0.37795275;stroke-linecap:round;stroke-linejoin:round;stroke-miterlimit:4;stroke-dasharray:none;stroke-dashoffset:0;stroke-opacity:1"
       d="m 783.55697,769.21184 c 0.96538,-0.8991 0.10528,-1.47059 -0.51256,-2.05306 l -11.85607,-9.90394"
       id="path1668"
       inkscape:connector-curvature="0"
       sodipodi:nodetypes="ccc" />
    <path
       style="display:inline;opacity:1;fill:none;stroke:#c0c0c0;stroke-width:0.37795275;stroke-linecap:round;stroke-linejoin:round;stroke-miterlimit:4;stroke-dasharray:none;stroke-dashoffset:0;stroke-opacity:1"
       d="m 680.47397,922.01575 c -0.0561,-1.82607 2.46994,-3.98901 3.75804,-5.99032"
       id="path1671-4-3-4-7"
       inkscape:connector-curvature="0"
       sodipodi:nodetypes="cc" />
    <path
       style="display:inline;opacity:1;fill:none;stroke:#c0c0c0;stroke-width:0.37795275;stroke-linecap:round;stroke-linejoin:round;stroke-miterlimit:4;stroke-dasharray:none;stroke-dashoffset:0;stroke-opacity:1"
       d="m 677.97081,920.81524 c 0.37125,-0.94749 2.00894,-4.3712 3.19186,-4.78073"
       id="path1673-7-7-7-8"
       inkscape:connector-curvature="0"
       sodipodi:nodetypes="cc" />
    <path
       style="display:inline;opacity:1;fill:none;stroke:#c0c0c0;stroke-width:0.37795275;stroke-linecap:round;stroke-linejoin:round;stroke-miterlimit:4;stroke-dasharray:none;stroke-dashoffset:0;stroke-opacity:1"
       d="m 675.13259,919.34233 c 1.23477,-1.91902 2.23188,-3.7025 3.95132,-4.85906"
       id="path1675-6-4-4-6"
       inkscape:connector-curvature="0"
       sodipodi:nodetypes="cc" />
    <path
       style="display:inline;opacity:1;fill:none;stroke:#c0c0c0;stroke-width:0.37795275;stroke-linecap:round;stroke-linejoin:round;stroke-miterlimit:4;stroke-dasharray:none;stroke-dashoffset:0;stroke-opacity:1"
       d="m 673.51489,917.49785 c 0.58206,-1.46993 1.94156,-3.21214 3.74178,-4.80671"
       id="path1677-5-5-4-8"
       inkscape:connector-curvature="0"
       sodipodi:nodetypes="cc" />
    <path
       style="display:inline;opacity:1;fill:none;stroke:#c0c0c0;stroke-width:0.37795275;stroke-linecap:round;stroke-linejoin:round;stroke-miterlimit:4;stroke-dasharray:none;stroke-dashoffset:0;stroke-opacity:1"
       d="m 723.37557,923.85959 c 0.11881,-1.82308 -2.33142,-4.07152 -3.54998,-6.11591"
       id="path1671-4-3-4-3"
       inkscape:connector-curvature="0"
       sodipodi:nodetypes="cc" />
    <path
       style="display:inline;opacity:1;fill:none;stroke:#c0c0c0;stroke-width:0.37795275;stroke-linecap:round;stroke-linejoin:round;stroke-miterlimit:4;stroke-dasharray:none;stroke-dashoffset:0;stroke-opacity:1"
       d="m 725.91852,922.74579 c -0.33849,-0.9597 -1.85757,-4.43764 -3.02571,-4.88758"
       id="path1673-7-7-7-1"
       inkscape:connector-curvature="0"
       sodipodi:nodetypes="cc" />
    <path
       style="display:inline;opacity:1;fill:none;stroke:#c0c0c0;stroke-width:0.37795275;stroke-linecap:round;stroke-linejoin:round;stroke-miterlimit:4;stroke-dasharray:none;stroke-dashoffset:0;stroke-opacity:1"
       d="m 728.80566,921.37127 c -1.1681,-1.96031 -2.10335,-3.777 -3.78203,-4.99196"
       id="path1675-6-4-4-4"
       inkscape:connector-curvature="0"
       sodipodi:nodetypes="cc" />
    <path
       style="display:inline;opacity:1;fill:none;stroke:#c0c0c0;stroke-width:0.37795275;stroke-linecap:round;stroke-linejoin:round;stroke-miterlimit:4;stroke-dasharray:none;stroke-dashoffset:0;stroke-opacity:1"
       d="m 730.48578,919.58347 c -0.53121,-1.48907 -1.83004,-3.27696 -3.57441,-4.93245"
       id="path1677-5-5-4-9"
       inkscape:connector-curvature="0"
       sodipodi:nodetypes="cc" />
    <path
       style="display:inline;opacity:1;fill:none;stroke:#c0c0c0;stroke-width:0.37795275;stroke-linecap:round;stroke-linejoin:round;stroke-miterlimit:4;stroke-dasharray:none;stroke-dashoffset:0;stroke-opacity:1"
       d="m 633.95537,760.86614 -10.1251,3.88873 c -3.28585,0.77168 -1.92094,5.03221 0.99632,3.64236"
       id="path1666-0-2"
       inkscape:connector-curvature="0"
       sodipodi:nodetypes="ccc" />
    <path
       style="display:inline;opacity:1;fill:none;stroke:#c0c0c0;stroke-width:0.37795275;stroke-linecap:round;stroke-linejoin:round;stroke-miterlimit:4;stroke-dasharray:none;stroke-dashoffset:0;stroke-opacity:1"
       d="m 610.6288,771.30034 c -0.85838,-1.00174 0.0601,-1.47317 0.73971,-1.98261 l 12.89217,-8.51145"
       id="path1668-6-6"
       inkscape:connector-curvature="0"
       sodipodi:nodetypes="ccc" />
    <path
       style="display:inline;opacity:1;fill:none;stroke:#c0c0c0;stroke-width:0.37795275;stroke-linecap:round;stroke-linejoin:round;stroke-miterlimit:4;stroke-dasharray:none;stroke-dashoffset:0;stroke-opacity:1"
       d="m 653.04374,685.01479 c 6.4978,-44.52129 19.35326,-43.74952 33.83127,-45.7451"
       id="path1864"
       inkscape:connector-curvature="0"
       sodipodi:nodetypes="cc" />
    <path
       style="display:inline;opacity:1;fill:none;stroke:#c0c0c0;stroke-width:0.37795275;stroke-linecap:round;stroke-linejoin:round;stroke-miterlimit:4;stroke-dasharray:none;stroke-dashoffset:0;stroke-opacity:1"
       d="m 716.90626,637.42593 c 28.02359,-0.81003 30.22218,17.32738 33.88265,45.64293"
       id="path1866"
       inkscape:connector-curvature="0"
       sodipodi:nodetypes="cc" />
    <path
       style="display:inline;opacity:1;fill:none;stroke:#c0c0c0;stroke-width:0.37795275;stroke-linecap:round;stroke-linejoin:round;stroke-miterlimit:4;stroke-dasharray:none;stroke-dashoffset:0;stroke-opacity:1"
       d="m 702.68751,891.51968 c -1.8144,2.05878 -2.49039,7.00292 -1.0625,9.0625"
       id="path1851"
       inkscape:connector-curvature="0"
       sodipodi:nodetypes="cc" />
    <path
       style="display:inline;fill:none;stroke:#c0c0c0;stroke-width:0.37795275;stroke-linecap:round;stroke-linejoin:round;stroke-miterlimit:4;stroke-dasharray:none;stroke-dashoffset:0;stroke-opacity:1"
       d="m 687.85025,887.76682 c 18.24485,2.56299 3.75401,-2.04425 13.21971,-1.80119"
       id="path926-5-3"
       inkscape:connector-curvature="0"
       sodipodi:nodetypes="cc" />
    <path
       style="display:inline;fill:none;stroke:#c0c0c0;stroke-width:0.37795275;stroke-linecap:round;stroke-linejoin:round;stroke-miterlimit:4;stroke-dasharray:none;stroke-dashoffset:0;stroke-opacity:1"
       d="m 704.26512,886.78563 c 6.05165,2.79737 5.80245,1.15501 13.19133,1.19882"
       id="path926-5-3-5"
       inkscape:connector-curvature="0"
       sodipodi:nodetypes="cc" />
  </g>
  <g
     inkscape:groupmode="layer"
     id="layer2"
     inkscape:label="Detailed"
     style="display:inline">
    <path
       style="fill:none;stroke:#c0c0c0;stroke-width:0.37795275;stroke-linecap:round;stroke-linejoin:round;stroke-miterlimit:4;stroke-dasharray:none;stroke-dashoffset:0;stroke-opacity:1"
       d="m 686.74998,310.57581 c -1.53412,15.48291 29.36168,18.23482 30.25,-1.875"
       id="path926"
       inkscape:connector-curvature="0"
       sodipodi:nodetypes="cc" />
    <path
       style="fill:none;stroke:#c0c0c0;stroke-width:0.37795275;stroke-linecap:round;stroke-linejoin:round;stroke-miterlimit:4;stroke-dasharray:none;stroke-dashoffset:0;stroke-opacity:1"
       d="m 671.02751,347.12675 3.37868,-34.14644"
       id="path926-3"
       inkscape:connector-curvature="0"
       sodipodi:nodetypes="cc" />
    <path
       style="fill:none;stroke:#c0c0c0;stroke-width:0.37795275;stroke-linecap:round;stroke-linejoin:round;stroke-miterlimit:4;stroke-dasharray:none;stroke-dashoffset:0;stroke-opacity:1"
       d="m 733.7301,347.94394 -0.57543,-36.6779"
       id="path926-6"
       inkscape:connector-curvature="0"
       sodipodi:nodetypes="cc" />
    <path
       style="fill:none;stroke:#c0c0c0;stroke-width:0.37795275;stroke-linecap:round;stroke-linejoin:round;stroke-miterlimit:4;stroke-dasharray:none;stroke-dashoffset:0;stroke-opacity:1"
       d="m 677.6522,409.31007 c 15.49441,2.34753 31.22169,2.36651 47.1875,0"
       id="path926-7"
       inkscape:connector-curvature="0"
       sodipodi:nodetypes="cc" />
    <path
       style="fill:none;stroke:#c0c0c0;stroke-width:0.37795275;stroke-linecap:round;stroke-linejoin:round;stroke-miterlimit:4;stroke-dasharray:none;stroke-dashoffset:0;stroke-opacity:1"
       d="m 674.64516,418.62593 c 18.24486,2.563 36.19254,2.1542 53.96674,0.0108"
       id="path926-5"
       inkscape:connector-curvature="0"
       sodipodi:nodetypes="cc" />
    <path
       style="fill:#ffffff;fill-opacity:1;stroke:#c0c0c0;stroke-width:0.37795275;stroke-linecap:round;stroke-linejoin:round;stroke-miterlimit:4;stroke-dasharray:none;stroke-opacity:1"
       d="m 701.35893,408.32759 c -3.33333,-0.0417 -7.01136,3.44014 -7.24784,7.07108 -0.23649,3.63094 3.38204,9.23909 7.24784,9.19238 3.86581,-0.0467 7.12425,-5.63876 6.8943,-9.19238 -0.22996,-3.55361 -3.56096,-7.0294 -6.8943,-7.07108 z"
       id="path974"
       inkscape:connector-curvature="0"
       sodipodi:nodetypes="zzzzz" />
    <path
       style="fill:none;stroke:#c0c0c0;stroke-width:0.37795275;stroke-linecap:round;stroke-linejoin:round;stroke-miterlimit:4;stroke-dasharray:none;stroke-opacity:1"
       d="m 512.57271,223.67222 c 17.82462,11.17642 26.99925,35.62651 16.03555,63.74011 24.79062,14.86977 27.92498,54.21182 11.81371,67.58936 30.57035,22.64355 28.36405,52.457 16.57106,84.36753 13.36102,6.23505 17.13699,16.0645 20.0061,26.23402 9.3901,-49.86088 23.31392,-89.89899 69.56854,-132.6579 l 12.87006,-28.84063 C 625.17474,245.59006 572.0189,227.84419 512.57271,223.67222 Z"
       id="path1006"
       inkscape:connector-curvature="0"
       sodipodi:nodetypes="cccccccc" />
    <path
       style="fill:none;stroke:#c0c0c0;stroke-width:0.37795275;stroke-linecap:round;stroke-linejoin:round;stroke-miterlimit:4;stroke-dasharray:none;stroke-opacity:1"
       d="m 892.43255,223.67222 c -17.82461,11.17642 -26.99924,35.62651 -16.03554,63.74011 -24.79062,14.86977 -27.92498,54.21182 -11.81371,67.58937 -30.57035,22.64353 -28.36405,52.45698 -16.57107,84.36752 -13.36101,6.23504 -17.13698,16.06449 -20.00609,26.23402 -9.3901,-49.86089 -23.31392,-89.89899 -69.56854,-132.65789 l -12.87006,-28.84064 c 34.26299,-58.51465 87.41883,-76.26052 146.86501,-80.43249 z"
       id="path1006-6"
       inkscape:connector-curvature="0"
       sodipodi:nodetypes="cccccccc" />
    <path
       style="fill:none;stroke:#c0c0c0;stroke-width:0.37795275;stroke-linecap:round;stroke-linejoin:round;stroke-miterlimit:4;stroke-dasharray:none;stroke-opacity:1"
       d="m 692.15397,263.87438 c -0.65647,-2.0454 1.35404,-3.78115 3.46232,-3.54441 2.10828,0.23675 3.26992,2.10346 1.80697,3.93719 -1.46294,1.83373 -4.61282,1.65262 -5.26929,-0.39278 z"
       id="path1032"
       inkscape:connector-curvature="0"
       sodipodi:nodetypes="zzzz" />
    <path
       style="fill:none;stroke:#c0c0c0;stroke-width:0.37795275;stroke-linecap:round;stroke-linejoin:round;stroke-miterlimit:4;stroke-dasharray:none;stroke-opacity:1"
       d="m 709.56388,263.85294 c -0.61571,-2.00041 1.03143,-3.39788 2.91054,-3.28554 1.87912,0.11234 3.21404,2.47724 1.51409,4.19976 -1.69994,1.7225 -3.80892,1.08618 -4.42463,-0.91422 z"
       id="path1034"
       inkscape:connector-curvature="0"
       sodipodi:nodetypes="zzzz" />
    <path
       style="fill:none;stroke:#c0c0c0;stroke-width:0.37795275;stroke-linecap:round;stroke-linejoin:round;stroke-miterlimit:4;stroke-dasharray:none;stroke-opacity:1"
       d="m 702.68736,265.6688 c -3.41287,8.60433 -3.99014,14.05799 1.06065,13.25825"
       id="path1036"
       inkscape:connector-curvature="0"
       sodipodi:nodetypes="cc" />
    <path
       style="fill:none;stroke:#c0c0c0;stroke-width:0.37795275;stroke-linecap:round;stroke-linejoin:round;stroke-miterlimit:4;stroke-dasharray:none;stroke-opacity:1"
       d="m 713.87595,284.41867 c -7.84721,5.11638 -19.10347,6.12809 -22.45064,-0.97227"
       id="path1036-2"
       inkscape:connector-curvature="0"
       sodipodi:nodetypes="cc" />
  </g>
</svg>
