<?xml version="1.0" encoding="UTF-8" standalone="no"?>
<!-- Created with Inkscape (http://www.inkscape.org/) -->

<svg
   xmlns:dc="http://purl.org/dc/elements/1.1/"
   xmlns:cc="http://creativecommons.org/ns#"
   xmlns:rdf="http://www.w3.org/1999/02/22-rdf-syntax-ns#"
   xmlns:svg="http://www.w3.org/2000/svg"
   xmlns="http://www.w3.org/2000/svg"
   xmlns:sodipodi="http://sodipodi.sourceforge.net/DTD/sodipodi-0.dtd"
   xmlns:inkscape="http://www.inkscape.org/namespaces/inkscape"
   width="297mm"
   height="210mm"
   id="svg2"
   version="1.1"
   inkscape:version="0.92.3 (2405546, 2018-03-11)"
   sodipodi:docname="PhotoCastleRuin-undecorated.svg"
   inkscape:export-filename="/home/christian/SportsCar.svg.png"
   inkscape:export-xdpi="138.06"
   inkscape:export-ydpi="138.06">
  <defs
     id="defs4" />
  <sodipodi:namedview
     id="base"
     pagecolor="#ffffff"
     bordercolor="#666666"
     borderopacity="1.0"
     inkscape:pageopacity="0.0"
     inkscape:pageshadow="2"
     inkscape:zoom="4"
     inkscape:cx="709.57502"
     inkscape:cy="452.9648"
     inkscape:document-units="mm"
     inkscape:current-layer="layer1"
     showgrid="false"
     units="mm"
     inkscape:window-width="1920"
     inkscape:window-height="1080"
     inkscape:window-x="1920"
     inkscape:window-y="0"
     inkscape:window-maximized="0"
     inkscape:snap-global="false" />
  <metadata
     id="metadata7">
    <rdf:RDF>
      <cc:Work
         rdf:about="">
        <dc:format>image/svg+xml</dc:format>
        <dc:type
           rdf:resource="http://purl.org/dc/dcmitype/StillImage" />
        <dc:title />
      </cc:Work>
    </rdf:RDF>
  </metadata>
  <g
     inkscape:label="Mask"
     inkscape:groupmode="layer"
     id="Mask"
     style="display:inline;opacity:1"
     transform="translate(0,-328.81888)">
    <rect
       style="display:inline;opacity:1;fill:none;fill-opacity:1;stroke:#808080;stroke-width:0.779378;stroke-linecap:round;stroke-linejoin:round;stroke-miterlimit:4;stroke-dasharray:none;stroke-dashoffset:0;stroke-opacity:1"
       id="rect814"
       width="566.14978"
       x="401.84705"
       y="537.08258"
       heightx="549.12811"
       height="377.17337" />
  </g>
  <g
     inkscape:groupmode="layer"
     id="layer1"
     inkscape:label="Overlay"
     style="display:inline"
     transform="translate(0,-328.81888)">
    <path
       style="display:inline;opacity:1;vector-effect:none;fill:none;fill-opacity:1;stroke:#c0c0c0;stroke-width:0.37799999;stroke-linecap:round;stroke-linejoin:round;stroke-miterlimit:4;stroke-dasharray:none;stroke-dashoffset:0;stroke-opacity:1"
       d="m 599.26737,598.885 0.86178,1.03856"
       id="path818"
       inkscape:connector-curvature="0" />
    <path
       style="display:inline;opacity:1;vector-effect:none;fill:none;fill-opacity:1;stroke:#c0c0c0;stroke-width:0.37799999;stroke-linecap:round;stroke-linejoin:round;stroke-miterlimit:4;stroke-dasharray:none;stroke-dashoffset:0;stroke-opacity:1"
       d="m 600.17335,597.49288 1.14905,1.34792"
       id="path820"
       inkscape:connector-curvature="0" />
    <path
       style="display:inline;opacity:1;vector-effect:none;fill:none;fill-opacity:1;stroke:#c0c0c0;stroke-width:0.37799999;stroke-linecap:round;stroke-linejoin:round;stroke-miterlimit:4;stroke-dasharray:none;stroke-dashoffset:0;stroke-opacity:1"
       d="m 601.78643,596.45432 1.17115,1.61309"
       id="path822"
       inkscape:connector-curvature="0" />
    <path
       style="display:inline;opacity:1;vector-effect:none;fill:none;fill-opacity:1;stroke:#c0c0c0;stroke-width:0.37799999;stroke-linecap:round;stroke-linejoin:round;stroke-miterlimit:4;stroke-dasharray:none;stroke-dashoffset:0;stroke-opacity:1"
       d="m 643.88138,592.74201 -1.19324,2.80633"
       id="path824"
       inkscape:connector-curvature="0" />
    <path
       style="display:inline;opacity:1;vector-effect:none;fill:none;fill-opacity:1;stroke:#c0c0c0;stroke-width:0.37799999;stroke-linecap:round;stroke-linejoin:round;stroke-miterlimit:4;stroke-dasharray:none;stroke-dashoffset:0;stroke-opacity:1"
       d="m 645.78173,593.25024 -1.39211,2.74004"
       id="path826"
       inkscape:connector-curvature="0" />
    <path
       style="display:inline;opacity:1;vector-effect:none;fill:none;fill-opacity:1;stroke:#c0c0c0;stroke-width:0.37799999;stroke-linecap:round;stroke-linejoin:round;stroke-miterlimit:4;stroke-dasharray:none;stroke-dashoffset:0;stroke-opacity:1"
       d="m 646.59933,594.88543 -0.97228,1.92244"
       id="path828"
       inkscape:connector-curvature="0" />
    <path
       style="display:inline;opacity:1;vector-effect:none;fill:none;fill-opacity:1;stroke:#c0c0c0;stroke-width:0.37799999;stroke-linecap:round;stroke-linejoin:round;stroke-miterlimit:4;stroke-dasharray:none;stroke-dashoffset:0;stroke-opacity:1"
       d="m 618.60232,609.24853 c 3.83436,0.64612 6.71357,0.46733 9.25868,0 -3.08623,3.50013 -6.17245,4.43168 -9.25868,0 z"
       id="path830"
       inkscape:connector-curvature="0"
       sodipodi:nodetypes="ccc" />
    <path
       style="display:inline;opacity:1;vector-effect:none;fill:none;fill-opacity:1;stroke:#c0c0c0;stroke-width:0.37799999;stroke-linecap:round;stroke-linejoin:round;stroke-miterlimit:4;stroke-dasharray:none;stroke-dashoffset:0;stroke-opacity:1"
       d="m 620.19331,601.40407 c 0.401,-0.5098 1.52866,-0.516 1.90035,0.22097 0.37169,0.73697 -0.33187,1.77464 -1.21534,1.63519 -0.88347,-0.13945 -1.08601,-1.34636 -0.68501,-1.85616 z"
       id="path832"
       inkscape:connector-curvature="0"
       sodipodi:nodetypes="zzzz" />
    <path
       style="display:inline;opacity:1;vector-effect:none;fill:none;fill-opacity:1;stroke:#c0c0c0;stroke-width:0.37799999;stroke-linecap:round;stroke-linejoin:round;stroke-miterlimit:4;stroke-dasharray:none;stroke-dashoffset:0;stroke-opacity:1"
       d="m 627.98291,601.53594 c -0.401,-0.5098 -1.52866,-0.516 -1.90035,0.22097 -0.37169,0.73697 0.33187,1.77464 1.21534,1.63519 0.88347,-0.13945 1.08601,-1.34636 0.68501,-1.85616 z"
       id="path832-3"
       inkscape:connector-curvature="0"
       sodipodi:nodetypes="zzzz" />
    <path
       style="display:inline;opacity:1;vector-effect:none;fill:none;fill-opacity:1;stroke:#c0c0c0;stroke-width:0.37799999;stroke-linecap:round;stroke-linejoin:round;stroke-miterlimit:4;stroke-dasharray:none;stroke-dashoffset:0;stroke-opacity:1"
       d="m 613.5,633.76967 -0.25,-12.25 c -0.0534,-0.7246 -0.61425,-2.45296 -1.5,-3.5 l -9,-13 c -0.48724,-0.86538 -2.04104,-2.31842 -2.34375,-2.71875 -0.125,-0.0937 -1.8125,-2.21875 -1.8125,-2.21875 -0.15911,-0.19995 -0.61994,-1.26153 0.6875,-1.1875 -0.66018,-0.88804 0.0845,-1.92284 0.9375,-1.40625 -1.03734,-1.29675 0.89375,-1.82469 1.5625,-1 -0.51371,-1.06579 0.76331,-1.77836 1.34375,-1.03125 l 1.71875,2.6875 0.65625,0.51563 0.21875,-1.42188 c 0.39083,-1.00743 1.49233,-0.16093 1.40625,0.40625 l -0.5,2.28125 c -0.20061,0.86997 -0.31761,1.66648 -0.0937,2.04688 l 9.9687,14.48437 c 0.99874,1.48078 4.69529,2.21989 4.4375,-1.21875 -2.84026,-1.52827 -4.59337,-4.48429 -4.96875,-5.53125 -0.37538,-1.04696 -1.01649,-5.64556 0.125,-8.15625 1.14149,-2.51069 3.36117,-4.89902 5.90625,-5.59375 2.54508,-0.69473 5.51687,-0.47449 7.5,1.71875 1.98313,2.19324 1.71478,7.34514 1.25,9.96875 -0.46478,2.62361 -1.47023,3.54477 -2.59375,4.90625 -1.12352,1.36148 -2.55724,2.27308 -3.6875,2.90625 0.1399,3.1082 3.27538,1.46504 3.875,0.75 3.42465,-5.32168 6.80495,-10.67503 9.65625,-16.40625 l 0.5,-1.375 c 0,0 -0.39957,-2.48651 -0.40625,-2.78125 -0.0248,-1.09503 1.60251,-1.0008 1.65625,-0.75 l 0.3438,1.4375 1.03125,-0.78125 1.09375,-2.8125 c 0.39527,-0.49526 1.59056,-0.41884 1.64931,0.0518 0.58216,-0.96334 2.22255,-0.22135 1.91763,0.48705 0.38172,-0.40378 1.50932,0.34949 0.82702,1.6288 0.69687,0.0966 1.07519,0.49411 0.71533,1.58876 l -2.06954,3.05925 -2.6335,2.12186 -1.40625,1 -8.6875,15.40625 c -0.62328,1.4997 -1.14396,2.54323 -1.15625,4.65625 v 11.1875"
       id="path910"
       inkscape:connector-curvature="0"
       sodipodi:nodetypes="cccccccccccccccccczzzzzzccccscccccccccccccc" />
    <path
       style="opacity:1;vector-effect:none;fill:none;fill-opacity:1;stroke:#c0c0c0;stroke-width:0.37799999;stroke-linecap:round;stroke-linejoin:round;stroke-miterlimit:4;stroke-dasharray:none;stroke-dashoffset:0;stroke-opacity:1"
       d="m 655.37745,893.01967 v -212.8363 l 18.49755,-32.0387 v -38 l -34.61244,0 v 23.75 h -35.07322 v -23.75 l -34.64981,0 v 23.75 l -35.00081,0 v -23.75 h -34.61423 v 38 l 15.07673,32.0387 v 165.29505"
       id="path869"
       inkscape:connector-curvature="0"
       sodipodi:nodetypes="cccccccccccccccc" />
    <path
       style="opacity:1;vector-effect:none;fill:none;fill-opacity:1;stroke:#c0c0c0;stroke-width:0.378;stroke-linecap:round;stroke-linejoin:round;stroke-miterlimit:4;stroke-dasharray:none;stroke-dashoffset:0;stroke-opacity:1"
       d="m 967.9375,892.39467 c 0,0 -33.26317,1.48677 -99.375,0 -66.11183,-1.48677 -234.58862,0.0548 -294.0625,3.625 -52.86276,0.15748 -68.09558,3.86588 -124.5,8 -19.37675,1.35252 -48.18657,2.12532 -48.18657,2.12532"
       id="path871"
       inkscape:connector-curvature="0"
       sodipodi:nodetypes="czccc" />
    <path
       style="opacity:1;vector-effect:none;fill:none;fill-opacity:1;stroke:#c0c0c0;stroke-width:0.378;stroke-linecap:round;stroke-linejoin:round;stroke-miterlimit:4;stroke-dasharray:none;stroke-dashoffset:0;stroke-opacity:1"
       d="m 475.25,901.89467 c -11.22966,-11.89974 0.16194,-33.42526 19.875,-29"
       id="path873"
       inkscape:connector-curvature="0"
       sodipodi:nodetypes="cc" />
    <path
       style="opacity:1;vector-effect:none;fill:none;fill-opacity:1;stroke:#c0c0c0;stroke-width:0.378;stroke-linecap:round;stroke-linejoin:round;stroke-miterlimit:4;stroke-dasharray:none;stroke-dashoffset:0;stroke-opacity:1"
       d="m 488.25,872.26967 c -12.85244,-21.40214 28.09914,-35.38258 35.89063,-20.98437"
       id="path875"
       inkscape:connector-curvature="0"
       sodipodi:nodetypes="cc" />
    <path
       style="opacity:1;vector-effect:none;fill:none;fill-opacity:1;stroke:#c0c0c0;stroke-width:0.378;stroke-linecap:round;stroke-linejoin:round;stroke-miterlimit:4;stroke-dasharray:none;stroke-dashoffset:0;stroke-opacity:1"
       d="m 522.125,854.64467 c 5.54135,-13.32011 37.4819,-17.26983 40,3.75"
       id="path877"
       inkscape:connector-curvature="0"
       sodipodi:nodetypes="cc" />
    <path
       style="opacity:1;vector-effect:none;fill:none;fill-opacity:1;stroke:#c0c0c0;stroke-width:0.378;stroke-linecap:round;stroke-linejoin:round;stroke-miterlimit:4;stroke-dasharray:none;stroke-dashoffset:0;stroke-opacity:1"
       d="m 557.5,860.64467 c 8.67366,-5.9146 25.43527,-2.39427 25.625,10"
       id="path879"
       inkscape:connector-curvature="0"
       sodipodi:nodetypes="cc" />
    <path
       style="opacity:1;vector-effect:none;fill:none;fill-opacity:1;stroke:#c0c0c0;stroke-width:0.378;stroke-linecap:round;stroke-linejoin:round;stroke-miterlimit:4;stroke-dasharray:none;stroke-dashoffset:0;stroke-opacity:1"
       d="m 575.75,874.26967 c 17.8855,-12.49441 36.15273,4.78135 28.5,20.375"
       id="path881"
       inkscape:connector-curvature="0"
       sodipodi:nodetypes="cc" />
    <path
       style="opacity:1;vector-effect:none;fill:none;fill-opacity:1;stroke:#c0c0c0;stroke-width:0.37799999;stroke-linecap:round;stroke-linejoin:round;stroke-miterlimit:4;stroke-dasharray:none;stroke-dashoffset:0;stroke-opacity:1"
       d="m 566.04009,749.69762 h 41.7193 v -32.70369 c -0.593,-30.07064 -40.93515,-30.00728 -41.7193,0 z"
       id="path883"
       inkscape:connector-curvature="0"
       sodipodi:nodetypes="ccccc" />
    <path
       style="opacity:1;vector-effect:none;fill:none;fill-opacity:1;stroke:#c0c0c0;stroke-width:0.378;stroke-linecap:round;stroke-linejoin:round;stroke-miterlimit:4;stroke-dasharray:none;stroke-dashoffset:0;stroke-opacity:1"
       d="M 655.22282,746.33886 H 690 v -30.40559 h 40 v 30.40559 h 35 v -30.40559 h 45 v 30.40559 h 35 v -30.40559 h 45 v 30.40559 h 35 v -30.40559 h 42.84375"
       id="path885"
       inkscape:connector-curvature="0"
       sodipodi:nodetypes="cccccccccccccccc" />
  </g>
</svg>
