<?xml version="1.0" encoding="UTF-8" standalone="no"?>
<!-- Created with Inkscape (http://www.inkscape.org/) -->

<svg
   xmlns:dc="http://purl.org/dc/elements/1.1/"
   xmlns:cc="http://creativecommons.org/ns#"
   xmlns:rdf="http://www.w3.org/1999/02/22-rdf-syntax-ns#"
   xmlns:svg="http://www.w3.org/2000/svg"
   xmlns="http://www.w3.org/2000/svg"
   xmlns:sodipodi="http://sodipodi.sourceforge.net/DTD/sodipodi-0.dtd"
   xmlns:inkscape="http://www.inkscape.org/namespaces/inkscape"
   width="297mm"
   height="210mm"
   id="svg2"
   version="1.1"
   inkscape:version="0.92.3 (2405546, 2018-03-11)"
   sodipodi:docname="SportsCar.svg"
   viewBox="0 0 1052.3622 744.09448"
   inkscape:export-filename="/home/christian/SportsCar.svg.png"
   inkscape:export-xdpi="138.06"
   inkscape:export-ydpi="138.06">
  <defs
     id="defs4" />
  <sodipodi:namedview
     id="base"
     pagecolor="#ffffff"
     bordercolor="#666666"
     borderopacity="1.0"
     inkscape:pageopacity="0.0"
     inkscape:pageshadow="2"
     inkscape:zoom="2.8284271"
     inkscape:cx="987.9783"
     inkscape:cy="401.30642"
     inkscape:document-units="mm"
     inkscape:current-layer="layer1"
     showgrid="false"
     units="mm"
     inkscape:window-width="1920"
     inkscape:window-height="1015"
     inkscape:window-x="0"
     inkscape:window-y="0"
     inkscape:window-maximized="1"
     inkscape:snap-global="false" />
  <metadata
     id="metadata7">
    <rdf:RDF>
      <cc:Work
         rdf:about="">
        <dc:format>image/svg+xml</dc:format>
        <dc:type
           rdf:resource="http://purl.org/dc/dcmitype/StillImage" />
        <dc:title></dc:title>
      </cc:Work>
    </rdf:RDF>
  </metadata>
  <g
     inkscape:label="Mask"
     inkscape:groupmode="layer"
     id="Mask"
     style="display:inline"
     transform="translate(0,-308.2677)">
    <circle
       style="display:inline;fill:#ffffff;fill-opacity:1;stroke:#808080;stroke-width:0.70866141;stroke-linecap:round;stroke-linejoin:round;stroke-miterlimit:4;stroke-dasharray:none;stroke-opacity:1"
       id="path924"
       cx="465.46875"
       cy="736.89343"
       r="48.28125"
       transform="translate(0,1.5793938e-6)" />
    <circle
       transform="translate(0,1.5793938e-6)"
       style="display:inline;fill:#ffffff;fill-opacity:1;stroke:#808080;stroke-width:0.70866141;stroke-linecap:round;stroke-linejoin:round;stroke-miterlimit:4;stroke-dasharray:none;stroke-opacity:1"
       id="path924-3"
       cx="854.0625"
       cy="736.89343"
       r="48.28125" />
    <path
       transform="translate(0,1.5793938e-6)"
       style="display:inline;fill:#ffffff;stroke:#808080;stroke-width:0.70866144;stroke-linecap:round;stroke-linejoin:round;stroke-miterlimit:4;stroke-dasharray:none;stroke-opacity:1;fill-opacity:1"
       d="m 423.5518,772.98719 -87.43282,0 -30,-25.3125 c 27.25468,-58.71994 125.21712,-83.00279 244.19352,-78.75 l 59.0625,-60.9375 c 5.0814,-4.83329 10.80171,-8.07901 15.33146,-8.38551 h 110.625 c 30.58289,0.88858 58.70485,14.32482 73.73104,24.32301 l 51.5625,30 c 13.48119,8.48894 27.38454,7.40866 42.1875,-14.0625 l -22.88345,-0.21772 -0.22259,-10.98029 77.59478,-6.72335 c -12.32574,10.4205 -27.05625,16.95887 -41.03228,18.74512 -7.38395,14.55572 -15.25572,27.74407 -3.14396,53.55124 l 34.6875,78.75 h -51.14658 c 22.62103,-9.62038 26.61352,-91.875 -40.72842,-91.875 -71.85181,0 -64.11571,78.12398 -48.10172,91.875 H 509.09009 c 23.05754,-17.69086 22.28132,-90.9375 -41.27759,-90.9375 -75.37415,0 -63.77488,89.49978 -44.2607,90.9375 z"
       id="path942"
       inkscape:connector-curvature="0"
       sodipodi:nodetypes="cccccccccccccccccsccsc" />
  </g>
  <g
     inkscape:groupmode="layer"
     id="layer1"
     inkscape:label="Overlay"
     style="display:inline"
     transform="translate(0,-308.2677)">
    <path
       transform="translate(0,1.5793938e-6)"
       style="display:inline;fill:none;stroke:#c0c0c0;stroke-width:0.35433072;stroke-linecap:round;stroke-linejoin:round;stroke-miterlimit:4;stroke-dasharray:none;stroke-opacity:1"
       d="m 611.20542,614.50841 -50.0499,53.36446 c -6.48397,6.53985 -9.47765,13.34952 -9.28077,18.56155 l 0.66291,66.95418 c 0.27075,5.33471 -1.41109,12.45222 5.63476,11.60097 h 167.05397 c 4.28729,-0.17541 9.01481,0.96986 10.60661,-7.29204 l 7.29203,-141.8633 c 0.0316,-9.98125 -4.39094,-10.77582 -9.28077,-10.6066 l -110.0435,1.32583 c -4.16223,0.50805 -8.39533,3.70337 -12.59534,7.95495 z"
       id="path944"
       inkscape:connector-curvature="0"
       sodipodi:nodetypes="ccccccccccc" />
    <path
       transform="translate(0,1.5793938e-6)"
       style="display:inline;fill:none;stroke:#c0c0c0;stroke-width:0.35433072;stroke-linecap:round;stroke-linejoin:round;stroke-miterlimit:4;stroke-dasharray:none;stroke-opacity:1"
       d="m 752.57812,619.00282 -2.34375,42.42187 c 0.39029,3.58428 -0.84486,8.59082 4.21875,8.08594 l 75.46875,-5.85938 c 13.05224,-0.58938 27.54878,-1.33135 15.9375,-8.78906 -25.84868,-14.59673 -61.01215,-41.19188 -86.23964,-45.91393 -6.3917,-1.83867 -6.91163,5.23653 -7.04161,10.05456 z"
       id="path946"
       inkscape:connector-curvature="0"
       sodipodi:nodetypes="ccccccc" />
    <path
       transform="translate(0,1.5793938e-6)"
       style="display:inline;fill:none;stroke:#c0c0c0;stroke-width:0.35433072;stroke-linecap:round;stroke-linejoin:round;stroke-miterlimit:4;stroke-dasharray:none;stroke-opacity:1"
       d="m 673.24219,694.12 h 48.16406 c -0.33716,-4.44234 -2.56989,-5.8044 -5.39063,-6.21093 h -36.5625 c -3.06995,0.16259 -5.89459,2.82599 -6.21093,6.21093 z"
       id="path948"
       inkscape:connector-curvature="0"
       sodipodi:nodetypes="ccccc" />
    <path
       transform="translate(0,1.5793938e-6)"
       style="display:inline;fill:none;stroke:#c0c0c0;stroke-width:0.35433072;stroke-linecap:round;stroke-linejoin:round;stroke-miterlimit:4;stroke-dasharray:none;stroke-opacity:1"
       d="m 723.86719,671.97157 c 4.33795,-0.16224 7.8068,-0.72516 8.4375,-5.39063 l 1.05468,-48.86719 c -0.84095,-5.89917 -5.23292,-5.20359 -9.02343,-5.625 l -97.03125,0.82032 c -4.49669,0.32325 -8.87337,5.5932 -13.35938,9.96093 l -45.58594,46.99219 c -4.7596,4.95965 -0.59085,6.4495 8.78907,6.32813 z"
       id="path950"
       inkscape:connector-curvature="0"
       sodipodi:nodetypes="ccccccccc" />
    <circle
       style="fill:none;fill-opacity:1;stroke:#c0c0c0;stroke-width:0.30012259;stroke-linecap:round;stroke-linejoin:round;stroke-miterlimit:4;stroke-dasharray:none;stroke-opacity:1"
       id="path979"
       cx="465.46875"
       cy="736.89343"
       r="39.304672" />
    <circle
       style="display:inline;fill:none;fill-opacity:1;stroke:#c0c0c0;stroke-width:0.30012259;stroke-linecap:round;stroke-linejoin:round;stroke-miterlimit:4;stroke-dasharray:none;stroke-opacity:1"
       id="path979-7"
       cx="854.0625"
       cy="736.89343"
       r="39.304672" />
  </g>
</svg>
