<?xml version="1.0" encoding="UTF-8" standalone="no"?>
<!-- Created with Inkscape (http://www.inkscape.org/) -->

<svg
   xmlns:dc="http://purl.org/dc/elements/1.1/"
   xmlns:cc="http://creativecommons.org/ns#"
   xmlns:rdf="http://www.w3.org/1999/02/22-rdf-syntax-ns#"
   xmlns:svg="http://www.w3.org/2000/svg"
   xmlns="http://www.w3.org/2000/svg"
   xmlns:sodipodi="http://sodipodi.sourceforge.net/DTD/sodipodi-0.dtd"
   xmlns:inkscape="http://www.inkscape.org/namespaces/inkscape"
   width="297mm"
   height="210mm"
   id="svg2"
   version="1.1"
   inkscape:version="0.92.3 (2405546, 2018-03-11)"
   sodipodi:docname="WoodFairy-undecorated.svg"
   inkscape:export-filename="/home/christian/SportsCar.svg.png"
   inkscape:export-xdpi="138.06"
   inkscape:export-ydpi="138.06">
  <defs
     id="defs4" />
  <sodipodi:namedview
     id="base"
     pagecolor="#ffffff"
     bordercolor="#666666"
     borderopacity="1.0"
     inkscape:pageopacity="0.0"
     inkscape:pageshadow="2"
     inkscape:zoom="1.4142136"
     inkscape:cx="398.95728"
     inkscape:cy="401.89479"
     inkscape:document-units="mm"
     inkscape:current-layer="layer2"
     showgrid="false"
     units="mm"
     inkscape:window-width="1920"
     inkscape:window-height="1080"
     inkscape:window-x="1920"
     inkscape:window-y="0"
     inkscape:window-maximized="0"
     inkscape:snap-global="false" />
  <metadata
     id="metadata7">
    <rdf:RDF>
      <cc:Work
         rdf:about="">
        <dc:format>image/svg+xml</dc:format>
        <dc:type
           rdf:resource="http://purl.org/dc/dcmitype/StillImage" />
        <dc:title></dc:title>
      </cc:Work>
    </rdf:RDF>
  </metadata>
  <g
     inkscape:label="Mask"
     inkscape:groupmode="layer"
     id="Mask"
     style="display:inline;opacity:1"
     transform="translate(0,-328.81888)">
    <path
       style="display:inline;opacity:1;fill:#ffffff;fill-opacity:1;stroke:#808080;stroke-width:0.75590551;stroke-linecap:round;stroke-linejoin:round;stroke-miterlimit:4;stroke-dasharray:none;stroke-opacity:1"
       d="m 741.62305,532.45365 c -12.7597,-0.1075 -24.91271,3.96159 -37.02539,8.13867 -20.4003,7.03508 -36.02165,13.076 -38.75,36.25 -1.0926,9.28028 -4.66678,19.51766 -7.91407,29.95312 -58.0731,-40.02623 -99.1924,-55.06168 -125.89453,-54.95508 -52.4425,0.20938 -49.34771,58.71869 -10.2207,100.50391 -49.21667,73.44066 27.82765,103.91369 109.98242,71.02149 0.42627,12.85833 2.96935,25.679 6.92188,38.47656 l 5.88086,-1.76758 c 4.68402,16.16217 4.30247,13.80821 6.95703,18.11914 l -6.71289,70.11328 h 14.375 c 0.0305,0.28529 0.086,0.58851 0.125,0.88086 l 1.89257,31.56055 c -5.79591,7.9252 -9.42129,12.5947 -11.5957,27.53711 -0.13913,0.99033 -0.21866,1.94265 1.73633,2.21093 0.21534,0.51305 1.50858,1.99658 2.45898,1.30274 0.0808,0.89905 1.68024,1.6274 2.52344,1.12305 0.26281,1.79939 2.36112,1.58335 2.86524,1.00195 0.0743,3.6467 3.64094,2.19865 4.25195,1.05664 4.4339,-9.53794 8.40332,-18.86092 13.91406,-24.80469 5.43557,-3.17835 3.86705,-2.84626 3.31445,-7.86719 l -1.97265,-31.90234 c 0.24521,-0.68036 0.48929,-1.36277 0.73633,-2.09961 h 36.75 l -8.43946,33.56836 c -1.46462,4.83427 -2.94554,4.21997 1.81446,8.3418 4.32641,6.85415 6.51671,16.74787 9.125,26.9375 0.39105,1.23473 3.63274,3.31136 4.375,-0.25977 0.38886,0.66404 2.41142,1.26163 3,-0.45898 0.73632,0.65053 2.4432,0.22835 2.6875,-0.64063 0.80693,0.85647 2.35043,-0.36329 2.65625,-0.82812 1.97103,0.095 2.06634,-0.85839 2.11132,-1.85742 0.60462,-15.08768 -2.10259,-20.34113 -6.3457,-29.19532 l 8.88281,-35.60742 h 18.25782 l -1.5,-70.33984 2.91015,-12.49414 2.82813,0.53125 13.96484,-39.95117 c 0.9295,-2.37903 1.74257,-4.96916 2.42578,-7.6875 86.20709,40.65557 173.00084,10.84213 121.49024,-66.02149 39.12701,-41.78522 42.2218,-100.29453 -10.22071,-100.50391 -22.98352,-0.0917 -56.64193,11.02503 -102.60156,39.64454 5.32909,-19.29157 4.83503,-40.69635 -14.79687,-51.64258 -9.48005,-5.28582 -18.49428,-7.31512 -27.22461,-7.38867 z"
       id="path1514"
       inkscape:connector-curvature="0" />
  </g>
  <g
     inkscape:groupmode="layer"
     id="layer1"
     inkscape:label="Overlay"
     style="display:inline"
     transform="translate(0,-328.81888)">
    <path
       style="display:inline;opacity:1;fill:#ffffff;fill-opacity:1;stroke:#c0c0c0;stroke-width:0.37795275;stroke-linecap:round;stroke-linejoin:round;stroke-miterlimit:4;stroke-dasharray:none;stroke-opacity:1"
       d="m 644.6539,760.08274 21.74353,-6.27558 c 0,0 -5.13022,-13.76476 -6.09881,-21.56675 -0.96858,-7.802 -0.81115,-14.97654 0.70712,-24.74874 1.51827,-9.7722 9.54594,-33.23402 9.54594,-33.23402"
       id="path5453"
       inkscape:connector-curvature="0"
       sodipodi:nodetypes="cczzc" />
    <path
       style="display:inline;opacity:1;fill:#ffffff;fill-opacity:1;stroke:#c0c0c0;stroke-width:0.37795275;stroke-linecap:round;stroke-linejoin:round;stroke-miterlimit:4;stroke-dasharray:none;stroke-opacity:1"
       d="m 741.84797,678.84279 3.5,35.5 c 0.76471,7.66534 -0.17821,12.84685 -2,16.75 l -12.23744,30.34359 24.47074,4.03804"
       id="path5439"
       inkscape:connector-curvature="0"
       sodipodi:nodetypes="ccccc" />
    <path
       style="display:inline;opacity:1;fill:#ffffff;fill-opacity:1;stroke:#c0c0c0;stroke-width:0.37795275;stroke-linecap:round;stroke-linejoin:round;stroke-miterlimit:4;stroke-dasharray:none;stroke-opacity:1"
       d="m 655.19585,770.19563 c 2.39731,6.99031 6.8541,10.69875 10.78813,11.31695 l 5.37993,1.18468 c 0.27893,-2.88201 1.43194,-4.44744 -3.01322,-6.04307 -5.34484,-1.69077 -8.11478,-8.66181 -8.0193,-8.85989 0.74873,-0.87978 0.42311,-0.88102 2.30343,-1.53856 1.64581,1.02329 1.87911,3.22769 2.80154,5.91447 0.88262,2.57075 5.28971,5.75986 6.98009,5.04604 -0.55139,-3.11504 -2.86996,-10.38962 -4.46241,-14.92999 -1.06597,-3.14679 -3.76974,-5.14708 -4.77756,-7.40978"
       id="path5455"
       inkscape:connector-curvature="0"
       sodipodi:nodetypes="ccccccsccc"
       inkscape:transform-center-x="-1.0892899"
       inkscape:transform-center-y="4.6159121" />
    <path
       style="display:inline;opacity:1;fill:none;fill-opacity:1;stroke:#c0c0c0;stroke-width:0.37795275;stroke-linecap:round;stroke-linejoin:round;stroke-miterlimit:4;stroke-dasharray:none;stroke-opacity:1"
       d="m 651.46919,777.92747 c 5.21402,6.10462 6.87547,8.15954 12.53712,9.02816 l 6.07645,0.31656 c -0.14473,-3.05316 -1.01972,-4.37793 -2.07375,-5.27891"
       id="path5457"
       inkscape:connector-curvature="0"
       sodipodi:nodetypes="cccc"
       inkscape:transform-center-x="5.1041554"
       inkscape:transform-center-y="12.80179" />
    <path
       style="display:inline;opacity:1;fill:#ffffff;fill-opacity:1;stroke:#c0c0c0;stroke-width:0.37795275;stroke-linecap:round;stroke-linejoin:round;stroke-miterlimit:4;stroke-dasharray:none;stroke-opacity:1"
       d="m 655.01023,652.4823 c 8.29879,-7.83955 18.68618,-14.04127 33.57268,-17.64585 16.54155,9.17521 34.49006,8.78301 53.38656,1.94454 13.69039,3.93147 19.19719,7.13183 23.64702,12.75917"
       id="path5468"
       inkscape:connector-curvature="0"
       sodipodi:nodetypes="cccc" />
    <path
       style="display:inline;opacity:1;fill:#ffffff;fill-opacity:1;stroke:#c0c0c0;stroke-width:0.37795275;stroke-linecap:round;stroke-linejoin:round;stroke-miterlimit:4;stroke-dasharray:none;stroke-opacity:1"
       d="m 690.48325,635.85292 c 3.68636,-0.40897 7.43698,-0.75368 11.35791,-0.92808 l 0.17677,-1.32583"
       id="path5470"
       inkscape:connector-curvature="0"
       sodipodi:nodetypes="ccc" />
    <path
       style="display:inline;opacity:1;fill:#ffffff;fill-opacity:1;stroke:#c0c0c0;stroke-width:0.37795275;stroke-linecap:round;stroke-linejoin:round;stroke-miterlimit:4;stroke-dasharray:none;stroke-opacity:1"
       d="m 740.68783,637.24502 c -4.03854,-0.73549 -8.60509,-1.47215 -14.00955,-1.52469 l -0.0884,-2.12132"
       id="path5472"
       inkscape:connector-curvature="0"
       sodipodi:nodetypes="ccc" />
    <path
       style="display:inline;opacity:1;fill:#ffffff;fill-opacity:1;stroke:#c0c0c0;stroke-width:0.37795275;stroke-linecap:round;stroke-linejoin:round;stroke-miterlimit:4;stroke-dasharray:none;stroke-opacity:1"
       d="m 734.34797,762.21779 -4.125,6 c -4.38327,8.38943 -4.06808,11.01778 -0.91053,11.95083 -3.80169,2.39917 -0.31302,5.96471 1.00612,5.33091 -4.5391,3.99311 1.85444,4.47188 3.48308,4.14842 -0.31977,1.76015 3.05664,1.9561 4.54552,1.92859 1.50416,-0.5288 3.55431,-1.46557 4.90164,-2.30805 1.97222,1.50794 4.05828,0.18389 5.82398,-3.19714 1.92792,-4.34908 3.57737,-9.38094 4.27513,-10.97856"
       id="path5474"
       inkscape:connector-curvature="0"
       sodipodi:nodetypes="ccccccccc" />
    <path
       style="display:inline;opacity:1;fill:#ffffff;fill-opacity:1;stroke:#c0c0c0;stroke-width:0.37795275;stroke-linecap:round;stroke-linejoin:round;stroke-miterlimit:4;stroke-dasharray:none;stroke-opacity:1"
       d="m 732.26668,778.30313 c 1.57748,-1.17063 5.53752,-5.0682 5.84644,-6.99695 l -1.50627,-1.07062 c -2.45138,2.97318 -3.47673,5.14345 -4.66682,8.69493 -0.86654,1.32058 -2.55011,1.4729 -2.83601,1.18894"
       id="path5476"
       inkscape:connector-curvature="0"
       sodipodi:nodetypes="ccccc" />
    <path
       style="display:inline;opacity:1;fill:#ffffff;fill-opacity:1;stroke:#c0c0c0;stroke-width:0.37795275;stroke-linecap:round;stroke-linejoin:round;stroke-miterlimit:4;stroke-dasharray:none;stroke-opacity:1"
       d="m 730.08647,785.68822 c 3.72979,-2.60517 12.40294,-6.77848 14.3721,-11.94455"
       id="path5478"
       inkscape:connector-curvature="0"
       sodipodi:nodetypes="cc" />
    <path
       style="display:inline;opacity:1;fill:#ffffff;fill-opacity:1;stroke:#c0c0c0;stroke-width:0.37795275;stroke-linecap:round;stroke-linejoin:round;stroke-miterlimit:4;stroke-dasharray:none;stroke-opacity:1"
       d="m 733.78156,789.67437 c 4.49912,-2.04445 12.88169,-6.27255 15.73507,-13.58342"
       id="path5480"
       inkscape:connector-curvature="0"
       sodipodi:nodetypes="cc" />
    <path
       style="display:inline;opacity:1;fill:#ffffff;fill-opacity:1;stroke:#c0c0c0;stroke-width:0.37795275;stroke-linecap:round;stroke-linejoin:round;stroke-miterlimit:4;stroke-dasharray:none;stroke-opacity:1"
       d="m 743.55874,789.1176 c 2.03901,-1.51017 5.28927,-4.36903 8.02053,-9.17234"
       id="path5482"
       inkscape:connector-curvature="0"
       sodipodi:nodetypes="cc" />
    <path
       style="display:inline;fill:#ffffff;fill-opacity:1;stroke:#c0c0c0;stroke-width:0.37795275;stroke-linecap:round;stroke-linejoin:round;stroke-miterlimit:4;stroke-dasharray:none;stroke-opacity:1"
       d="m 684.34797,559.34279 c -20.42702,20.23221 -21.54167,70.3166 21,74.5 42.54165,4.1834 75.71559,-19.45237 71.74999,-57.75 -3.9656,-38.29763 -72.32297,-36.98221 -92.74999,-16.75 z"
       id="path5429"
       inkscape:connector-curvature="0"
       sodipodi:nodetypes="zzzz" />
    <path
       style="display:inline;fill:#ffffff;fill-opacity:1;stroke:#c0c0c0;stroke-width:0.37795275;stroke-linecap:round;stroke-linejoin:round;stroke-miterlimit:4;stroke-dasharray:none;stroke-opacity:1"
       d="m 659.14959,848.29431 h 20.28512"
       id="path5503"
       inkscape:connector-curvature="0" />
    <path
       style="display:inline;fill:#ffffff;fill-opacity:1;stroke:#c0c0c0;stroke-width:0.37795275;stroke-linecap:round;stroke-linejoin:round;stroke-miterlimit:4;stroke-dasharray:none;stroke-opacity:1"
       d="m 716.16006,848.3827 h 19.88739"
       id="path5505"
       inkscape:connector-curvature="0" />
    <path
       style="display:inline;opacity:1;fill:#ffffff;fill-opacity:1;stroke:#c0c0c0;stroke-width:0.37795275;stroke-linecap:round;stroke-linejoin:round;stroke-miterlimit:4;stroke-dasharray:none;stroke-opacity:1"
       d="m 723.00482,916.96716 c 0.20178,-0.82438 -0.007,-2.0465 -0.39607,-2.91506"
       id="path843"
       inkscape:connector-curvature="0"
       sodipodi:nodetypes="cc" />
    <path
       style="display:inline;opacity:1;fill:#ffffff;fill-opacity:1;stroke:#c0c0c0;stroke-width:0.37795275;stroke-linecap:round;stroke-linejoin:round;stroke-miterlimit:4;stroke-dasharray:none;stroke-opacity:1"
       d="m 726.05421,916.46003 c 0.15481,-0.76047 0.13673,-1.96295 -0.14595,-2.60884"
       id="path845"
       inkscape:connector-curvature="0"
       sodipodi:nodetypes="cc" />
    <path
       style="display:inline;opacity:1;fill:#ffffff;fill-opacity:1;stroke:#c0c0c0;stroke-width:0.37795275;stroke-linecap:round;stroke-linejoin:round;stroke-miterlimit:4;stroke-dasharray:none;stroke-opacity:1"
       d="m 728.75273,915.7373 c 0.31344,-1.04592 0.12307,-1.66131 -0.0129,-2.31197"
       id="path847"
       inkscape:connector-curvature="0"
       sodipodi:nodetypes="cc" />
    <path
       style="display:inline;opacity:1;fill:#ffffff;fill-opacity:1;stroke:#c0c0c0;stroke-width:0.37795275;stroke-linecap:round;stroke-linejoin:round;stroke-miterlimit:4;stroke-dasharray:none;stroke-opacity:1"
       d="m 731.12091,914.99671 c 0.25856,-0.629 0.37729,-1.12878 0.17187,-2.18696"
       id="path849"
       inkscape:connector-curvature="0"
       sodipodi:nodetypes="cc" />
    <path
       style="display:inline;opacity:1;fill:#ffffff;fill-opacity:1;stroke:#c0c0c0;stroke-width:0.37795275;stroke-linecap:round;stroke-linejoin:round;stroke-miterlimit:4;stroke-dasharray:none;stroke-opacity:1"
       d="m 659.30693,914.01186 c -0.047,-0.84741 0.3829,-2.01037 0.9243,-2.79288"
       id="path843-1"
       inkscape:connector-curvature="0"
       sodipodi:nodetypes="cc" />
    <path
       style="display:inline;opacity:1;fill:#ffffff;fill-opacity:1;stroke:#c0c0c0;stroke-width:0.37795275;stroke-linecap:round;stroke-linejoin:round;stroke-miterlimit:4;stroke-dasharray:none;stroke-opacity:1"
       d="m 656.4024,912.95375 c -0.0126,-0.77597 0.22581,-1.95471 0.62223,-2.53775"
       id="path845-8"
       inkscape:connector-curvature="0"
       sodipodi:nodetypes="cc" />
    <path
       style="display:inline;opacity:1;fill:#ffffff;fill-opacity:1;stroke:#c0c0c0;stroke-width:0.37795275;stroke-linecap:round;stroke-linejoin:round;stroke-miterlimit:4;stroke-dasharray:none;stroke-opacity:1"
       d="m 653.88234,911.74809 c -0.11619,-1.08568 0.18389,-1.65568 0.43696,-2.27035"
       id="path847-7"
       inkscape:connector-curvature="0"
       sodipodi:nodetypes="cc" />
    <path
       style="display:inline;opacity:1;fill:#ffffff;fill-opacity:1;stroke:#c0c0c0;stroke-width:0.37795275;stroke-linecap:round;stroke-linejoin:round;stroke-miterlimit:4;stroke-dasharray:none;stroke-opacity:1"
       d="m 651.69028,910.58548 c -0.13875,-0.66576 -0.16373,-1.17886 0.23238,-2.18135"
       id="path849-9"
       inkscape:connector-curvature="0"
       sodipodi:nodetypes="cc" />
    <path
       style="display:inline;opacity:1;fill:none;stroke:#c0c0c0;stroke-width:0.37795275;stroke-linecap:round;stroke-linejoin:round;stroke-miterlimit:4;stroke-dasharray:none;stroke-opacity:1"
       d="m 772.84948,671.08345 c 78.29735,8.60313 102.44163,1.43394 123.56881,-18.77034"
       id="path1150"
       inkscape:connector-curvature="0"
       sodipodi:nodetypes="cc" />
    <path
       style="display:inline;opacity:1;fill:none;stroke:#c0c0c0;stroke-width:0.37795275;stroke-linecap:round;stroke-linejoin:round;stroke-miterlimit:4;stroke-dasharray:none;stroke-opacity:1"
       d="m 643.30514,671.0115 c -37.64199,-2.31825 -92.35877,7.24154 -121.43774,-18.69839"
       id="path1150-6"
       inkscape:connector-curvature="0"
       sodipodi:nodetypes="cc" />
    <path
       style="display:inline;opacity:1;fill:none;fill-opacity:1;stroke:#c0c0c0;stroke-width:0.37795275;stroke-linecap:round;stroke-linejoin:round;stroke-miterlimit:4;stroke-dasharray:none;stroke-opacity:1"
       d="m 657.91849,606.84409 c -4.85492,15.6077 -8.96854,31.65891 -2.94552,45.62408 -17.64282,23.77283 -23.93459,47.34994 -23.17541,70.80548"
       id="path5427"
       inkscape:connector-curvature="0" />
    <path
       style="display:inline;opacity:1;fill:none;fill-opacity:1;stroke:#c0c0c0;stroke-width:0.37795275;stroke-linecap:round;stroke-linejoin:round;stroke-miterlimit:4;stroke-dasharray:none;stroke-opacity:1"
       d="m 774.99446,718.29654 c 2.06994,-8.26906 2.93678,-17.7074 2.20899,-25.93384 -0.96925,-10.95586 -6.19974,-28.48671 -11.54493,-42.85351 0.91785,-11.01075 6.05575,-25.96415 14.43946,-47.41602 1.31831,-3.37322 2.52085,-6.90308 3.5207,-10.50751"
       id="path1512"
       inkscape:connector-curvature="0" />
  </g>
  <g
     inkscape:groupmode="layer"
     id="layer2"
     inkscape:label="Detailed"
     style="display:inline">
    <path
       style="display:inline;fill:none;stroke:#c0c0c0;stroke-width:0.37795275;stroke-linecap:round;stroke-linejoin:round;stroke-miterlimit:4;stroke-dasharray:none;stroke-opacity:1"
       d="m 655.13442,287.7659 c 0,0 -135.09725,-90.65463 -140.36069,-27.93073 -2.46236,29.34359 6.84122,51.60787 43.84501,61.20073 37.00379,9.59288 90.20441,11.34022 90.20441,11.34022"
       id="path3122"
       inkscape:connector-curvature="0"
       sodipodi:nodetypes="cssc" />
    <path
       style="display:inline;fill:none;stroke:#c0c0c0;stroke-width:0.37795275;stroke-linecap:round;stroke-linejoin:round;stroke-miterlimit:4;stroke-dasharray:none;stroke-opacity:1"
       d="m 652.65954,299.07961 c 0,0 -108.2063,-67.96486 -119.14749,-28.99138 -10.94118,38.97349 119.50105,49.14392 119.50105,49.14392"
       id="path3124"
       inkscape:connector-curvature="0"
       sodipodi:nodetypes="czc" />
    <path
       style="display:inline;fill:none;stroke:#c0c0c0;stroke-width:0.37795275;stroke-linecap:round;stroke-linejoin:round;stroke-miterlimit:4;stroke-dasharray:none;stroke-opacity:1"
       d="m 643.37876,305.79711 c -94.78612,-56.09952 -115.52854,-9.25426 0.0884,1e-5"
       id="path3126"
       inkscape:connector-curvature="0"
       sodipodi:nodetypes="cc" />
    <path
       style="display:inline;fill:none;stroke:#c0c0c0;stroke-width:0.37795275;stroke-linecap:round;stroke-linejoin:round;stroke-miterlimit:4;stroke-dasharray:none;stroke-opacity:1"
       d="m 531.83267,330.72263 c -26.98948,50.35501 3.22809,78.83413 99.96722,48.26004"
       id="path3114"
       inkscape:connector-curvature="0"
       sodipodi:nodetypes="cc" />
    <path
       style="display:inline;fill:none;stroke:#c0c0c0;stroke-width:0.37795275;stroke-linecap:round;stroke-linejoin:round;stroke-miterlimit:4;stroke-dasharray:none;stroke-opacity:1"
       d="m 545.53286,336.37949 c -23.38508,48.54629 14.31926,52.20778 89.97933,25.45585"
       id="path3116"
       inkscape:connector-curvature="0"
       sodipodi:nodetypes="cc" />
    <path
       style="display:inline;fill:none;stroke:#c0c0c0;stroke-width:0.37795275;stroke-linecap:round;stroke-linejoin:round;stroke-miterlimit:4;stroke-dasharray:none;stroke-opacity:1"
       d="m 558.26079,339.73824 c -22.37198,46.79988 52.23917,18.93456 81.74497,9.7745"
       id="path3118"
       inkscape:connector-curvature="0"
       sodipodi:nodetypes="cc" />
    <path
       style="display:inline;fill:none;stroke:#c0c0c0;stroke-width:0.37795275;stroke-linecap:round;stroke-linejoin:round;stroke-miterlimit:4;stroke-dasharray:none;stroke-opacity:1"
       d="m 570.63516,341.50602 c -3.40636,14.20966 22.03107,13.48256 60.10407,0.35355"
       id="path3120"
       inkscape:connector-curvature="0"
       sodipodi:nodetypes="cc" />
    <path
       style="display:inline;fill:none;stroke:#c0c0c0;stroke-width:0.37795275;stroke-linecap:round;stroke-linejoin:round;stroke-miterlimit:4;stroke-dasharray:none;stroke-opacity:1"
       d="m 691.37498,263.3258 c 6.10777,-3.77291 15.08499,-6.00419 21.625,-5.125 0,0 -1.15809,-26.92005 -12.75,-25.75001 -11.59191,1.17006 -9.81436,31.22727 -8.875,30.87501 z"
       id="path3144"
       inkscape:connector-curvature="0"
       sodipodi:nodetypes="cczc" />
    <path
       style="display:inline;fill:none;stroke:#c0c0c0;stroke-width:0.37795275;stroke-linecap:round;stroke-linejoin:round;stroke-miterlimit:4;stroke-dasharray:none;stroke-opacity:1"
       d="m 732.74997,258.3258 c 7.34585,1.92778 13.90214,4.90827 19.25001,9.5 0,0 11.69769,-28.12787 1.5,-32.37501 -10.1977,-4.24713 -20.75001,22.87501 -20.75001,22.87501 z"
       id="path3146"
       inkscape:connector-curvature="0"
       sodipodi:nodetypes="cczc" />
    <path
       style="display:inline;fill:none;stroke:#c0c0c0;stroke-width:0.37795275;stroke-linecap:round;stroke-linejoin:round;stroke-miterlimit:4;stroke-dasharray:none;stroke-opacity:1"
       d="m 690.49998,276.7008 c 15.71864,22.42588 35.78272,22.40036 59.5,3.5"
       id="path3148"
       inkscape:connector-curvature="0"
       sodipodi:nodetypes="cc" />
    <path
       style="display:inline;fill:none;stroke:#c0c0c0;stroke-width:0.37795275;stroke-linecap:round;stroke-linejoin:round;stroke-miterlimit:4;stroke-dasharray:none;stroke-opacity:1"
       d="m 708.62498,250.0758 c 0.26787,2.47989 -3.47259,6.37485 -6,5.25 -2.52741,-1.12484 -2.35668,-7.28474 -0.125,-8.625 2.23168,-1.34026 5.85713,0.8951 6.125,3.375 z"
       id="path3150"
       inkscape:connector-curvature="0"
       sodipodi:nodetypes="zzzz" />
    <path
       style="display:inline;fill:none;stroke:#c0c0c0;stroke-width:0.37795275;stroke-linecap:round;stroke-linejoin:round;stroke-miterlimit:4;stroke-dasharray:none;stroke-opacity:1"
       d="m 737.87498,253.0758 c -0.74456,2.51959 2.2162,6.21945 4.875,5.75 2.65881,-0.46945 4.9287,-6.07535 3,-8.125 -1.92869,-2.04965 -7.13045,-0.1446 -7.875,2.375 z"
       id="path3152"
       inkscape:connector-curvature="0"
       sodipodi:nodetypes="zzzz" />
    <path
       style="display:inline;fill:none;stroke:#c0c0c0;stroke-width:0.37795275;stroke-linecap:round;stroke-linejoin:round;stroke-miterlimit:4;stroke-dasharray:none;stroke-opacity:1"
       d="m 773.49998,291.2008 c 98.31907,-37.71285 116.92382,-35.37644 110.63629,-14.91955 -6.40578,20.84157 -75.38225,36.823 -115.57823,30.66954"
       id="path3132"
       inkscape:connector-curvature="0"
       sodipodi:nodetypes="csc" />
    <path
       style="display:inline;fill:none;stroke:#c0c0c0;stroke-width:0.37795275;stroke-linecap:round;stroke-linejoin:round;stroke-miterlimit:4;stroke-dasharray:none;stroke-opacity:1"
       d="m 773.74998,298.7008 c 156.0343,-51.07199 85.05316,-2.61219 -0.24999,0.25001"
       id="path3134"
       inkscape:connector-curvature="0"
       sodipodi:nodetypes="cc" />
    <path
       style="display:inline;opacity:1;fill:none;stroke:#c0c0c0;stroke-width:0.37795275;stroke-linecap:round;stroke-linejoin:round;stroke-miterlimit:4;stroke-dasharray:none;stroke-opacity:1"
       d="M 779.24998,275.45081 C 834.5245,239.11675 903.50932,214.62513 912.86654,249.81019 924.57233,293.82631 882.46421,353.9307 768.99998,329.2008"
       id="path3128"
       inkscape:connector-curvature="0"
       sodipodi:nodetypes="csc" />
    <path
       style="display:inline;opacity:1;fill:none;stroke:#c0c0c0;stroke-width:0.37795275;stroke-linecap:round;stroke-linejoin:round;stroke-miterlimit:4;stroke-dasharray:none;stroke-opacity:1"
       d="m 776.35354,283.52402 c 72.21279,-35.3835 121.68648,-45.55762 122.99229,-24.38805 2.97796,48.27788 -61.69094,73.46962 -133.06552,57.74161"
       id="path3130"
       inkscape:connector-curvature="0"
       sodipodi:nodetypes="csc" />
    <path
       style="display:inline;fill:none;stroke:#c0c0c0;stroke-width:0.37795275;stroke-linecap:round;stroke-linejoin:round;stroke-miterlimit:4;stroke-dasharray:none;stroke-opacity:1"
       d="m 776.58836,381.12758 c 50.37809,13.67115 154.95433,33.45888 111.41162,-50.17677"
       id="path3136"
       inkscape:connector-curvature="0"
       sodipodi:nodetypes="cc" />
    <path
       style="display:inline;fill:none;stroke:#c0c0c0;stroke-width:0.37795275;stroke-linecap:round;stroke-linejoin:round;stroke-miterlimit:4;stroke-dasharray:none;stroke-opacity:1"
       d="m 777.69193,370.37758 c 53.9401,8.6184 126.66131,35.0299 101.5,-34.1875"
       id="path3138"
       inkscape:connector-curvature="0"
       sodipodi:nodetypes="cc" />
    <path
       style="display:inline;fill:none;stroke:#c0c0c0;stroke-width:0.37795275;stroke-linecap:round;stroke-linejoin:round;stroke-miterlimit:4;stroke-dasharray:none;stroke-opacity:1"
       d="m 776.99998,360.7008 c 41.75774,4.61034 101.87062,28.20109 91.9375,-20.125"
       id="path3140"
       inkscape:connector-curvature="0"
       sodipodi:nodetypes="cc" />
    <path
       style="display:inline;fill:none;stroke:#c0c0c0;stroke-width:0.37795275;stroke-linecap:round;stroke-linejoin:round;stroke-miterlimit:4;stroke-dasharray:none;stroke-opacity:1"
       d="m 775.24997,350.20081 c 28.19113,2.28901 78.57402,22.65382 82.75001,-6.75"
       id="path3142"
       inkscape:connector-curvature="0"
       sodipodi:nodetypes="cc" />
  </g>
</svg>
