<?xml version="1.0" encoding="UTF-8" standalone="no"?>
<!-- Created with Inkscape (http://www.inkscape.org/) -->

<svg
   xmlns:dc="http://purl.org/dc/elements/1.1/"
   xmlns:cc="http://creativecommons.org/ns#"
   xmlns:rdf="http://www.w3.org/1999/02/22-rdf-syntax-ns#"
   xmlns:svg="http://www.w3.org/2000/svg"
   xmlns="http://www.w3.org/2000/svg"
   xmlns:sodipodi="http://sodipodi.sourceforge.net/DTD/sodipodi-0.dtd"
   xmlns:inkscape="http://www.inkscape.org/namespaces/inkscape"
   width="297mm"
   height="210mm"
   id="svg2"
   version="1.1"
   inkscape:version="0.92.3 (2405546, 2018-03-11)"
   sodipodi:docname="QuadBike-undecorated.svg"
   inkscape:export-filename="/home/christian/SportsCar.svg.png"
   inkscape:export-xdpi="138.06"
   inkscape:export-ydpi="138.06">
  <defs
     id="defs4" />
  <sodipodi:namedview
     id="base"
     pagecolor="#ffffff"
     bordercolor="#666666"
     borderopacity="1.0"
     inkscape:pageopacity="0.0"
     inkscape:pageshadow="2"
     inkscape:zoom="2"
     inkscape:cx="563.10871"
     inkscape:cy="356.80277"
     inkscape:document-units="mm"
     inkscape:current-layer="Mask"
     showgrid="false"
     units="mm"
     inkscape:window-width="1920"
     inkscape:window-height="1080"
     inkscape:window-x="1920"
     inkscape:window-y="0"
     inkscape:window-maximized="0"
     inkscape:snap-global="false" />
  <metadata
     id="metadata7">
    <rdf:RDF>
      <cc:Work
         rdf:about="">
        <dc:format>image/svg+xml</dc:format>
        <dc:type
           rdf:resource="http://purl.org/dc/dcmitype/StillImage" />
        <dc:title></dc:title>
      </cc:Work>
    </rdf:RDF>
  </metadata>
  <g
     inkscape:label="Mask"
     inkscape:groupmode="layer"
     id="Mask"
     style="display:inline;opacity:1"
     transform="translate(0,-328.81888)">
    <circle
       style="display:inline;opacity:1;fill:#ffffff;fill-opacity:1;stroke:#808080;stroke-width:0.75590551;stroke-linecap:round;stroke-linejoin:round;stroke-miterlimit:4;stroke-dasharray:none;stroke-opacity:1"
       id="path985"
       cx="798.08167"
       cy="825.23608"
       r="46.282337" />
    <path
       style="display:inline;opacity:1;fill:#ffffff;fill-opacity:1;stroke:#808080;stroke-width:0.75590551;stroke-linecap:round;stroke-linejoin:round;stroke-miterlimit:4;stroke-dasharray:none;stroke-opacity:1"
       d="m 645.76336,590.22982 c -18.36524,0.21292 -39.06815,12.0391 -35.94091,29.52394 l 4.22326,-1.33856 5.88107,25.01108 -6.17297,3.18112 5.02594,16.07661 13.08704,-9.30162 23.87092,-8.95957 4.23235,9.26741 c -3.99802,5.37727 -5.96216,11.33635 -4.51968,18.26805 -13.88558,11.46522 -32.3833,19.50936 -52.54884,19.1095 -30.50165,0.77247 -20.47552,24.57469 -17.21224,25.02933 l -12.314,35.53045 c -18.37799,-0.14475 -38.20941,-0.6968 -47.25382,1.77185 -9.81331,3.80735 -4.88997,13.79256 1.65098,12.79514 17.28857,-3.26882 34.28565,-3.02306 51.18748,-1.65098 18.45648,4.18747 21.95125,15.85718 24.35433,28.07135 l 7.72134,50.02675 c 0.76269,3.4595 10.21434,2.20171 9.61632,-2.55628 l 0.0159,-3.55967 h 100.01474 c -0.43178,6.76861 7.56341,8.92469 9.38372,2.1504 3.85277,-23.70333 8.04429,-41.12937 14.83609,-56.38215 4.4802,-8.75235 12.96967,-16.63748 31.78381,-22.29061 14.37642,-3.79027 31.88795,-6.96369 61.91887,-6.60395 7.21086,0.7547 7.063,-10.01938 -0.77533,-9.15342 l -34.72547,2.95993 c -3.62951,-13.57387 -10.18696,-16.89152 -19.40137,-14.44614 -20.56838,6.45522 -41.07553,13.04893 -63.15714,16.09941 16.02117,-6.54131 8.77336,-20.77085 3.71701,-33.84981 l -26.00757,-56.14043 c -4.98763,-6.95298 -10.01588,-13.85679 -21.46512,-13.2079 l -2.88924,-7.84448 7.43175,-3.30197 -10.68811,-30.83744 c -3.68493,-9.52132 -13.86197,-13.57509 -24.88111,-13.44734 z m 16.75844,103.02939 14.08357,33.27516 -38.31022,17.07541 c -11.99346,-6.40361 -26.40822,-23.28494 -51.95595,-6.71342 l 6.78639,-17.65919 c 4.98037,1.47246 4.52139,-7.76951 0.87566,-7.66203 l 2.55401,-0.58378 c -0.30495,1.96461 1.04319,4.89049 3.50266,5.54586 3.59635,-0.46215 8.5566,-0.34603 8.17284,-6.56746 21.57312,3.06016 38.28604,-5.9464 54.29104,-16.71055 z"
       id="path1002"
       inkscape:connector-curvature="0" />
    <circle
       style="display:inline;opacity:1;fill:#ffffff;fill-opacity:1;stroke:#808080;stroke-width:0.75590557;stroke-linecap:round;stroke-linejoin:round;stroke-miterlimit:4;stroke-dasharray:none;stroke-opacity:1"
       id="path985-7"
       cx="551.5"
       cy="825.23608"
       r="46.282337" />
  </g>
  <g
     inkscape:groupmode="layer"
     id="layer1"
     inkscape:label="Overlay"
     style="display:inline"
     transform="translate(0,-328.81888)">
    <path
       style="display:inline;opacity:1;fill:none;stroke:#c0c0c0;stroke-width:0.37795275;stroke-linecap:round;stroke-linejoin:round;stroke-miterlimit:4;stroke-dasharray:none;stroke-opacity:1"
       d="m 662.65269,693.13131 c 6.74001,-4.92946 11.18871,-9.62311 15.47968,-14.86048"
       id="path1023"
       inkscape:connector-curvature="0"
       sodipodi:nodetypes="cc" />
    <path
       style="display:inline;opacity:1;fill:none;stroke:#c0c0c0;stroke-width:0.37795275;stroke-linecap:round;stroke-linejoin:round;stroke-miterlimit:4;stroke-dasharray:none;stroke-opacity:1"
       d="m 676.58439,726.56738 11.14537,-5.15989"
       id="path1025"
       inkscape:connector-curvature="0" />
    <path
       style="display:inline;opacity:1;fill:none;stroke:#c0c0c0;stroke-width:0.37795275;stroke-linecap:round;stroke-linejoin:round;stroke-miterlimit:4;stroke-dasharray:none;stroke-opacity:1"
       d="m 638.51407,743.53636 c -9.06384,3.95596 -3.99473,18.67469 -2.627,20.86994 l 3.50266,10.79983 9.63228,34.7346 -23.35099,6.56747 c -4.44818,1.54611 -5.77093,5.01981 -6.56747,8.02689"
       id="path1027"
       inkscape:connector-curvature="0"
       sodipodi:nodetypes="cccccc" />
    <path
       style="display:inline;opacity:1;fill:none;stroke:#c0c0c0;stroke-width:0.37795275;stroke-linecap:round;stroke-linejoin:round;stroke-miterlimit:4;stroke-dasharray:none;stroke-opacity:1"
       d="M 723.13223,824.78423 H 619.25683"
       id="path1029"
       inkscape:connector-curvature="0"
       sodipodi:nodetypes="cc" />
    <path
       style="display:inline;opacity:1;fill:none;stroke:#c0c0c0;stroke-width:0.37795275;stroke-linecap:round;stroke-linejoin:round;stroke-miterlimit:4;stroke-dasharray:none;stroke-opacity:1"
       d="m 720.89927,748.71735 -58.74232,17.87811 15.32408,42.17772 c 1.91252,6.38718 1.49813,10.18557 1.45944,15.61597"
       id="path1031"
       inkscape:connector-curvature="0"
       sodipodi:nodetypes="cccc" />
    <path
       style="display:inline;opacity:1;fill:none;stroke:#c0c0c0;stroke-width:0.37795275;stroke-linecap:round;stroke-linejoin:round;stroke-miterlimit:4;stroke-dasharray:none;stroke-opacity:1"
       d="m 662.22991,766.59546 -4.01345,0.47431"
       id="path1033"
       inkscape:connector-curvature="0"
       sodipodi:nodetypes="cc" />
    <path
       style="display:inline;opacity:1;fill:none;stroke:#c0c0c0;stroke-width:0.37795275;stroke-linecap:round;stroke-linejoin:round;stroke-miterlimit:4;stroke-dasharray:none;stroke-opacity:1"
       d="m 802.90342,747.17977 c -26.24509,2.27579 -38.08308,5.71132 -51.17915,14.28189 -19.75912,12.93113 -27.33301,58.2162 -31.26284,75.1138"
       id="path1035"
       inkscape:connector-curvature="0"
       sodipodi:nodetypes="csc" />
    <path
       style="display:inline;opacity:1;fill:none;stroke:#c0c0c0;stroke-width:0.37795275;stroke-linecap:round;stroke-linejoin:round;stroke-miterlimit:4;stroke-dasharray:none;stroke-opacity:1"
       d="m 747.2421,764.84413 c -17.5992,7.24526 -32.0751,12.87405 -45.53442,12.25927 -10.49365,-1.17707 -20.20015,-1.15895 -35.48935,0.86099"
       id="path1037"
       inkscape:connector-curvature="0"
       sodipodi:nodetypes="ccc" />
    <circle
       style="display:inline;opacity:1;fill:none;fill-opacity:1;stroke:#c0c0c0;stroke-width:0.37795275;stroke-linecap:round;stroke-linejoin:round;stroke-miterlimit:4;stroke-dasharray:none;stroke-opacity:1"
       id="path1039-6"
       cx="798.08167"
       cy="825.23608"
       r="23.432432" />
    <path
       style="display:inline;opacity:1;fill:none;stroke:#c0c0c0;stroke-width:0.37795275;stroke-linecap:round;stroke-linejoin:round;stroke-miterlimit:4;stroke-dasharray:none;stroke-opacity:1"
       d="m 573.4539,751.68146 c 12.19861,-0.0271 31.04495,3.49915 36.67933,26.29929 3.61477,14.62759 6.26176,26.98103 10.4815,58.61941"
       id="path1007"
       inkscape:connector-curvature="0"
       sodipodi:nodetypes="csc" />
    <path
       style="display:inline;opacity:1;fill:none;stroke:#c0c0c0;stroke-width:0.37795275;stroke-linecap:round;stroke-linejoin:round;stroke-miterlimit:4;stroke-dasharray:none;stroke-opacity:1"
       d="m 612.68204,787.4654 28.60495,-5.10802"
       id="path1009"
       inkscape:connector-curvature="0" />
    <path
       style="display:inline;opacity:1;fill:none;stroke:#c0c0c0;stroke-width:0.37795275;stroke-linecap:round;stroke-linejoin:round;stroke-miterlimit:4;stroke-dasharray:none;stroke-opacity:1"
       d="m 586.70406,736.45809 -5.61882,15.50651"
       id="path1011"
       inkscape:connector-curvature="0" />
    <path
       style="display:inline;opacity:1;fill:none;stroke:#c0c0c0;stroke-width:0.37795275;stroke-linecap:round;stroke-linejoin:round;stroke-miterlimit:4;stroke-dasharray:none;stroke-opacity:1"
       d="m 585.75543,716.17193 7.33367,2.99184"
       id="path1013"
       inkscape:connector-curvature="0" />
    <path
       style="display:inline;opacity:1;fill:none;stroke:#c0c0c0;stroke-width:0.37795275;stroke-linecap:round;stroke-linejoin:round;stroke-miterlimit:4;stroke-dasharray:none;stroke-opacity:1"
       d="m 596.77419,710.73552 c 0.87818,0.8782 5.94633,-2.29571 4.77964,-6.93232 -1.17436,-4.66714 -5.66152,-4.069 -9.12148,-1.42295 -3.98638,3.04862 -2.94901,7.90005 1.86079,9.08499"
       id="path1015"
       inkscape:connector-curvature="0"
       sodipodi:nodetypes="cssc" />
    <path
       style="display:inline;opacity:1;fill:none;stroke:#c0c0c0;stroke-width:0.37795275;stroke-linecap:round;stroke-linejoin:round;stroke-miterlimit:4;stroke-dasharray:none;stroke-opacity:1"
       d="m 614.10755,618.40362 c 20.86804,-6.08737 21.97165,-7.93893 24.38403,5.0437 2.08462,11.21872 -6.31745,13.69726 -18.47154,19.89421"
       id="path1017"
       inkscape:connector-curvature="0"
       sodipodi:nodetypes="csc" />
    <path
       style="display:inline;opacity:1;fill:none;stroke:#c0c0c0;stroke-width:0.37795275;stroke-linecap:round;stroke-linejoin:round;stroke-miterlimit:4;stroke-dasharray:none;stroke-opacity:1"
       d="m 655.68686,644.47357 18.3692,-6.70785"
       id="path1019"
       inkscape:connector-curvature="0" />
    <path
       style="display:inline;opacity:1;fill:none;stroke:#c0c0c0;stroke-width:0.37795275;stroke-linecap:round;stroke-linejoin:round;stroke-miterlimit:4;stroke-dasharray:none;stroke-opacity:1"
       d="m 655.42886,671.87257 c 4.65125,-3.7986 9.68363,-8.6691 12.07414,-11.40335"
       id="path1021"
       inkscape:connector-curvature="0"
       sodipodi:nodetypes="cc" />
    <circle
       style="display:inline;opacity:1;fill:none;fill-opacity:1;stroke:#c0c0c0;stroke-width:0.37795278;stroke-linecap:round;stroke-linejoin:round;stroke-miterlimit:4;stroke-dasharray:none;stroke-opacity:1"
       id="path1039-6-5"
       cx="551.5"
       cy="825.23608"
       r="23.432432" />
  </g>
</svg>
