<?xml version="1.0" encoding="UTF-8" standalone="no"?>
<!-- Created with Inkscape (http://www.inkscape.org/) -->

<svg
   xmlns:dc="http://purl.org/dc/elements/1.1/"
   xmlns:cc="http://creativecommons.org/ns#"
   xmlns:rdf="http://www.w3.org/1999/02/22-rdf-syntax-ns#"
   xmlns:svg="http://www.w3.org/2000/svg"
   xmlns="http://www.w3.org/2000/svg"
   xmlns:xlink="http://www.w3.org/1999/xlink"
   xmlns:sodipodi="http://sodipodi.sourceforge.net/DTD/sodipodi-0.dtd"
   xmlns:inkscape="http://www.inkscape.org/namespaces/inkscape"
   width="297mm"
   height="210mm"
   id="svg2"
   version="1.1"
   inkscape:version="0.92.3 (2405546, 2018-03-11)"
   sodipodi:docname="Quad.svg"
   viewBox="0 0 1052.3622 744.09448"
   inkscape:export-filename="/home/christian/SportsCar.svg.png"
   inkscape:export-xdpi="138.06"
   inkscape:export-ydpi="138.06">
  <defs
     id="defs4" />
  <sodipodi:namedview
     id="base"
     pagecolor="#ffffff"
     bordercolor="#666666"
     borderopacity="1.0"
     inkscape:pageopacity="0.0"
     inkscape:pageshadow="2"
     inkscape:zoom="2"
     inkscape:cx="711.10871"
     inkscape:cy="356.80277"
     inkscape:document-units="mm"
     inkscape:current-layer="Mask"
     showgrid="false"
     units="mm"
     inkscape:window-width="1920"
     inkscape:window-height="1015"
     inkscape:window-x="0"
     inkscape:window-y="0"
     inkscape:window-maximized="1"
     inkscape:snap-global="false" />
  <metadata
     id="metadata7">
    <rdf:RDF>
      <cc:Work
         rdf:about="">
        <dc:format>image/svg+xml</dc:format>
        <dc:type
           rdf:resource="http://purl.org/dc/dcmitype/StillImage" />
        <dc:title></dc:title>
      </cc:Work>
    </rdf:RDF>
  </metadata>
  <g
     inkscape:label="Mask"
     inkscape:groupmode="layer"
     id="Mask"
     style="display:inline;opacity:1"
     transform="translate(0,-308.2677)">
    <circle
       style="display:inline;opacity:1;fill:#ffffff;fill-opacity:1;stroke:#808080;stroke-width:0.70866144;stroke-linecap:round;stroke-linejoin:round;stroke-miterlimit:4;stroke-dasharray:none;stroke-opacity:1"
       id="path985"
       cx="748.20154"
       cy="773.65881"
       r="43.38969" />
    <path
       style="display:inline;opacity:1;fill:#ffffff;fill-opacity:1;stroke:#808080;stroke-width:0.70866144;stroke-linecap:round;stroke-linejoin:round;stroke-miterlimit:4;stroke-dasharray:none;stroke-opacity:1"
       d="m 605.40315,553.34046 c -17.21741,0.19961 -36.62639,11.28665 -33.6946,27.67869 l 3.9593,-1.2549 5.51351,23.44789 -5.78716,2.9823 4.71182,15.07182 12.2691,-8.72027 22.37898,-8.3996 3.96783,8.6882 c -3.74814,5.04119 -5.58952,10.62783 -4.2372,17.1263 -13.01773,10.74864 -30.35934,18.29002 -49.26454,17.91515 -28.59529,0.72419 -19.1958,23.03878 -16.13647,23.465 l -11.54438,33.3098 c -17.22936,-0.13571 -35.82132,-0.65325 -44.30045,1.66111 -9.19998,3.56939 -4.58435,12.93052 1.54779,11.99544 16.20804,-3.06452 32.1428,-2.83412 47.98826,-1.54779 17.30295,3.92575 20.5793,14.8661 22.83219,26.31689 l 7.23875,46.90008 c 0.71503,3.24328 9.57595,2.0641 9.0153,-2.39652 l 0.0149,-3.33719 h 93.76382 c -0.40479,6.34557 7.0907,8.3669 8.79724,2.016 3.61197,-22.22187 7.54152,-38.55878 13.90883,-52.85826 4.20019,-8.20533 12.15907,-15.59764 29.79732,-20.89745 13.4779,-3.55338 29.89496,-6.52846 58.04894,-6.1912 6.76019,0.70753 6.62157,-9.39317 -0.72687,-8.58133 l -32.55513,2.77493 c -3.40266,-12.7255 -9.55027,-15.8358 -18.18878,-13.54326 -19.28286,6.05177 -38.50831,12.23338 -59.20982,15.0932 15.01985,-6.13248 8.22503,-19.47267 3.4847,-31.7342 l -24.3821,-52.63165 c -4.6759,-6.51842 -9.38989,-12.99074 -20.12355,-12.38241 l -2.70866,-7.3542 6.96726,-3.09559 -10.0201,-28.9101 c -3.45462,-8.92624 -12.9956,-12.72665 -23.32604,-12.60688 z m 15.71104,96.59005 13.20334,31.19546 -35.91583,16.0082 c -11.24387,-6.00339 -24.7577,-21.82963 -48.7087,-6.29383 l 6.36224,-16.55549 c 4.6691,1.38043 4.2388,-7.28392 0.82093,-7.18316 l 2.39439,-0.54729 c -0.28589,1.84182 0.97799,4.58483 3.28374,5.19924 3.37158,-0.43326 8.02181,-0.3244 7.66204,-6.15699 20.2248,2.8689 35.89316,-5.57475 50.89785,-15.66614 z"
       id="path1002"
       inkscape:connector-curvature="0" />
    <circle
       transform="translate(0,1.5793938e-6)"
       style="display:inline;opacity:1;fill:#ffffff;fill-opacity:1;stroke:#808080;stroke-width:0.7086615;stroke-linecap:round;stroke-linejoin:round;stroke-miterlimit:4;stroke-dasharray:none;stroke-opacity:1"
       id="path985-7"
       cx="517.03125"
       cy="773.65881"
       r="43.38969" />
  </g>
  <g
     inkscape:groupmode="layer"
     id="layer1"
     inkscape:label="Overlay"
     style="display:inline"
     transform="translate(0,-308.2677)">
    <path
       style="display:inline;opacity:1;fill:none;stroke:#c0c0c0;stroke-width:0.35433072;stroke-linecap:round;stroke-linejoin:round;stroke-miterlimit:4;stroke-dasharray:none;stroke-opacity:1"
       d="m 621.2369,649.8106 c 6.31876,-4.62137 10.48941,-9.02166 14.5122,-13.9317"
       id="path1023"
       inkscape:connector-curvature="0"
       sodipodi:nodetypes="cc" />
    <path
       style="display:inline;opacity:1;fill:none;stroke:#c0c0c0;stroke-width:0.35433072;stroke-linecap:round;stroke-linejoin:round;stroke-miterlimit:4;stroke-dasharray:none;stroke-opacity:1"
       d="m 634.29787,681.15692 10.44878,-4.8374"
       id="path1025"
       inkscape:connector-curvature="0" />
    <path
       style="display:inline;opacity:1;fill:none;stroke:#c0c0c0;stroke-width:0.35433072;stroke-linecap:round;stroke-linejoin:round;stroke-miterlimit:4;stroke-dasharray:none;stroke-opacity:1"
       d="m 598.60694,697.06534 c -8.49735,3.70871 -3.74506,17.50752 -2.46281,19.56557 l 3.28374,10.12484 9.03026,32.56368 -21.89155,6.15701 c -4.17017,1.44948 -5.41025,4.70607 -6.157,7.52521"
       id="path1027"
       inkscape:connector-curvature="0"
       sodipodi:nodetypes="cccccc" />
    <path
       style="display:inline;opacity:1;fill:none;stroke:#c0c0c0;stroke-width:0.35433072;stroke-linecap:round;stroke-linejoin:round;stroke-miterlimit:4;stroke-dasharray:none;stroke-opacity:1"
       d="M 677.93647,773.23522 H 580.55328"
       id="path1029"
       inkscape:connector-curvature="0"
       sodipodi:nodetypes="cc" />
    <path
       style="display:inline;opacity:1;fill:none;stroke:#c0c0c0;stroke-width:0.35433072;stroke-linecap:round;stroke-linejoin:round;stroke-miterlimit:4;stroke-dasharray:none;stroke-opacity:1"
       d="m 675.84307,701.92252 -55.07093,16.76072 14.36633,39.54162 c 1.79298,5.98798 1.40449,9.54897 1.36822,14.63997"
       id="path1031"
       inkscape:connector-curvature="0"
       sodipodi:nodetypes="cccc" />
    <path
       style="display:inline;opacity:1;fill:none;stroke:#c0c0c0;stroke-width:0.35433072;stroke-linecap:round;stroke-linejoin:round;stroke-miterlimit:4;stroke-dasharray:none;stroke-opacity:1"
       d="m 620.84054,718.68324 -3.76261,0.44467"
       id="path1033"
       inkscape:connector-curvature="0"
       sodipodi:nodetypes="cc" />
    <path
       style="display:inline;opacity:1;fill:none;stroke:#c0c0c0;stroke-width:0.35433072;stroke-linecap:round;stroke-linejoin:round;stroke-miterlimit:4;stroke-dasharray:none;stroke-opacity:1"
       d="m 752.72196,700.48103 c -24.60478,2.13356 -35.70289,5.35437 -47.98046,13.38928 -18.52417,12.12293 -25.62469,54.57768 -29.30891,70.41918"
       id="path1035"
       inkscape:connector-curvature="0"
       sodipodi:nodetypes="csc" />
    <path
       style="display:inline;opacity:1;fill:none;stroke:#c0c0c0;stroke-width:0.35433072;stroke-linecap:round;stroke-linejoin:round;stroke-miterlimit:4;stroke-dasharray:none;stroke-opacity:1"
       d="m 700.53947,717.04137 c -16.49925,6.79243 -30.07041,12.06942 -42.68852,11.49307 -9.8378,-1.10351 -18.93764,-1.08652 -33.27127,0.80718"
       id="path1037"
       inkscape:connector-curvature="0"
       sodipodi:nodetypes="ccc" />
    <circle
       style="display:inline;opacity:1;fill:none;fill-opacity:1;stroke:#c0c0c0;stroke-width:0.35433072;stroke-linecap:round;stroke-linejoin:round;stroke-miterlimit:4;stroke-dasharray:none;stroke-opacity:1"
       id="path1039-6"
       cx="748.20154"
       cy="773.65881"
       r="21.967905" />
    <path
       style="display:inline;opacity:1;fill:none;stroke:#c0c0c0;stroke-width:0.35433072;stroke-linecap:round;stroke-linejoin:round;stroke-miterlimit:4;stroke-dasharray:none;stroke-opacity:1"
       d="m 537.61303,704.70137 c 11.4362,-0.0254 29.10464,3.28045 34.38687,24.65558 3.38885,13.71337 5.8704,25.29472 9.82641,54.9557"
       id="path1007"
       inkscape:connector-curvature="0"
       sodipodi:nodetypes="csc" />
    <path
       style="display:inline;opacity:1;fill:none;stroke:#c0c0c0;stroke-width:0.35433072;stroke-linecap:round;stroke-linejoin:round;stroke-miterlimit:4;stroke-dasharray:none;stroke-opacity:1"
       d="m 574.38941,738.24881 26.81714,-4.78877"
       id="path1009"
       inkscape:connector-curvature="0" />
    <path
       style="display:inline;opacity:1;fill:none;stroke:#c0c0c0;stroke-width:0.35433072;stroke-linecap:round;stroke-linejoin:round;stroke-miterlimit:4;stroke-dasharray:none;stroke-opacity:1"
       d="m 550.03506,690.42946 -5.26765,14.53735"
       id="path1011"
       inkscape:connector-curvature="0" />
    <path
       style="display:inline;opacity:1;fill:none;stroke:#c0c0c0;stroke-width:0.35433072;stroke-linecap:round;stroke-linejoin:round;stroke-miterlimit:4;stroke-dasharray:none;stroke-opacity:1"
       d="m 549.14572,671.41118 6.87531,2.80485"
       id="path1013"
       inkscape:connector-curvature="0" />
    <path
       style="display:inline;opacity:1;fill:none;stroke:#c0c0c0;stroke-width:0.35433072;stroke-linecap:round;stroke-linejoin:round;stroke-miterlimit:4;stroke-dasharray:none;stroke-opacity:1"
       d="m 559.4758,666.31455 c 0.8233,0.82331 5.57469,-2.15223 4.48092,-6.49905 -1.10097,-4.37544 -5.30768,-3.81469 -8.55139,-1.33402 -3.73723,2.85809 -2.7647,7.4063 1.74449,8.51718"
       id="path1015"
       inkscape:connector-curvature="0"
       sodipodi:nodetypes="cssc" />
    <path
       style="display:inline;opacity:1;fill:none;stroke:#c0c0c0;stroke-width:0.35433072;stroke-linecap:round;stroke-linejoin:round;stroke-miterlimit:4;stroke-dasharray:none;stroke-opacity:1"
       d="m 575.72583,579.75339 c 19.56379,-5.70691 20.59842,-7.44274 22.86003,4.72847 1.95433,10.51755 -5.92261,12.84118 -17.31707,18.65082"
       id="path1017"
       inkscape:connector-curvature="0"
       sodipodi:nodetypes="csc" />
    <path
       style="display:inline;opacity:1;fill:none;stroke:#c0c0c0;stroke-width:0.35433072;stroke-linecap:round;stroke-linejoin:round;stroke-miterlimit:4;stroke-dasharray:none;stroke-opacity:1"
       d="m 614.70643,604.19397 17.22113,-6.28861"
       id="path1019"
       inkscape:connector-curvature="0" />
    <path
       style="display:inline;opacity:1;fill:none;stroke:#c0c0c0;stroke-width:0.35433072;stroke-linecap:round;stroke-linejoin:round;stroke-miterlimit:4;stroke-dasharray:none;stroke-opacity:1"
       d="m 614.46456,629.88053 c 4.36054,-3.56118 9.0784,-8.12728 11.3195,-10.69064"
       id="path1021"
       inkscape:connector-curvature="0"
       sodipodi:nodetypes="cc" />
    <circle
       style="display:inline;opacity:1;fill:none;fill-opacity:1;stroke:#c0c0c0;stroke-width:0.35433075;stroke-linecap:round;stroke-linejoin:round;stroke-miterlimit:4;stroke-dasharray:none;stroke-opacity:1"
       id="path1039-6-5"
       cx="517.03125"
       cy="773.65881"
       r="21.967905" />
  </g>
</svg>
