<?xml version="1.0" encoding="UTF-8" standalone="no"?>
<!-- Created with Inkscape (http://www.inkscape.org/) -->

<svg
   xmlns:dc="http://purl.org/dc/elements/1.1/"
   xmlns:cc="http://creativecommons.org/ns#"
   xmlns:rdf="http://www.w3.org/1999/02/22-rdf-syntax-ns#"
   xmlns:svg="http://www.w3.org/2000/svg"
   xmlns="http://www.w3.org/2000/svg"
   xmlns:sodipodi="http://sodipodi.sourceforge.net/DTD/sodipodi-0.dtd"
   xmlns:inkscape="http://www.inkscape.org/namespaces/inkscape"
   width="297mm"
   height="210mm"
   id="svg2"
   version="1.1"
   inkscape:version="0.92.3 (2405546, 2018-03-11)"
   sodipodi:docname="FlowerFairy-undecorated.svg"
   viewBox="0 0 1052.3622 744.09448"
   inkscape:export-filename="/home/christian/SportsCar.svg.png"
   inkscape:export-xdpi="138.06"
   inkscape:export-ydpi="138.06">
  <defs
     id="defs4" />
  <sodipodi:namedview
     id="base"
     pagecolor="#ffffff"
     bordercolor="#666666"
     borderopacity="1.0"
     inkscape:pageopacity="0.0"
     inkscape:pageshadow="2"
     inkscape:zoom="1"
     inkscape:cx="742.41297"
     inkscape:cy="528.23897"
     inkscape:document-units="mm"
     inkscape:current-layer="layer2"
     showgrid="false"
     units="mm"
     inkscape:window-width="1920"
     inkscape:window-height="1015"
     inkscape:window-x="0"
     inkscape:window-y="0"
     inkscape:window-maximized="1"
     inkscape:snap-global="false"
     showguides="false" />
  <metadata
     id="metadata7">
    <rdf:RDF>
      <cc:Work
         rdf:about="">
        <dc:format>image/svg+xml</dc:format>
        <dc:type
           rdf:resource="http://purl.org/dc/dcmitype/StillImage" />
        <dc:title />
      </cc:Work>
    </rdf:RDF>
  </metadata>
  <g
     inkscape:label="Mask"
     inkscape:groupmode="layer"
     id="Mask"
     style="display:inline;opacity:1"
     transform="translate(0,-308.2677)">
    <path
       style="display:inline;fill:#ffffff;fill-opacity:1;stroke:#808080;stroke-width:0.75590563;stroke-linecap:round;stroke-linejoin:round;stroke-miterlimit:4;stroke-dasharray:none;stroke-opacity:1;stroke-dashoffset:0"
       d="M 873.97461,207.63086 C 823.34644,207.9738 761.23244,235.19873 716.96094,308.6875 l -1.14649,-0.0176 -5.17187,-0.2207 c -1.33927,-0.30369 -3.06884,0.48544 -2.82813,-4.24219 l -0.17773,-9.01562 c 5.45155,-3.06369 11.062,-5.8096 15.38086,-11.13868 6.61645,-8.16409 10.13527,-17.9096 12.55078,-28.10742 2.41551,-10.19782 2.26314,-24.91598 1.06055,-36.59179 -2.82878,4.69155 -5.65755,3.45578 -8.48633,2.29882 -2.27643,1.81065 -5.48922,-0.21013 -6.97852,-2.61132 -1.36429,2.72381 -5.25509,2.31721 -9.63867,-0.39454 -6.62095,5.04672 -8.08722,0.97362 -10.60547,-1.23828 -5.27431,4.95912 -8.30639,4.49988 -10.88672,1.02735 -1.70534,2.6525 -6.70893,3.54162 -7.67578,1.44726 0,0 -2.41026,9.88731 -3.53515,14.84961 -0.86616,3.82095 -1.99501,7.60181 -2.47461,11.49024 -0.43307,3.51116 -0.47996,7.07191 -0.35352,10.60742 0.16104,4.50282 1.19719,17.56948 5.30274,25.98633 3.70042,7.58632 13.82639,13.40802 14.49609,13.43554 l 0.35351,7.24805 c 0.45128,4.83793 -0.97709,6.15152 -3.18164,6.00977 l -5.98437,0.8789 C 642.19403,234.87945 578.67231,207.43036 527.37109,207.63477 c -22.38935,0.0892 -42.45165,5.44575 -57.61132,14.37109 31.23709,6.50379 62.9365,52.58771 22.98046,68.23437 27.09892,1.82595 59.53403,49.31492 13.08204,67.5293 29.38008,4.66242 64.34843,44.44558 9.90039,83.79297 38.82614,11.964 56.19646,34.80563 28.2832,80.60938 21.36935,-2.85622 32.24065,6.99512 35.70898,25.80859 17.83958,-66.32668 11.44653,-148.22486 73.24414,-191.67383 l -6.45898,25.39453 -7.94531,36.29102 c -0.24832,0.85018 -0.48502,1.6235 -0.69727,2.21093 -2.37026,6.55998 -2.21365,5.37961 -4.625,7.5293 -2.41136,2.1497 -6.0848,2.71657 -9.55859,4.45508 -3.4738,1.7385 -14.19484,7.1375 -16.07031,9.10352 -1.65037,1.75771 1.62207,2.19567 3.03515,1.44921 0.85085,0.67673 0.79898,0.8047 4.19531,-0.22851 3.9648,-1.20611 6.2356,-1.90899 10.78711,-3.0586 4.5515,-1.1496 8.32761,-2.0418 13.08985,-2.29687 4.76235,-0.25507 5.72017,-0.84189 11.11328,-9.3125 2.10662,-3.30866 3.82338,-8.97809 5.34961,-15.3457 l 6.57617,-25.29688 9.25,-40 c 0,0 -2.73927,21.19692 1,36 2.47323,9.79105 9.58417,23.85441 2.54297,35.26172 -9.25181,14.98869 -48.11039,75.57149 -46.79297,147.23828 9.35827,-1.33632 20.0475,-3.64061 26,-2.5 5.40829,3.0494 10.40468,0.33225 15.5,-1 0.60802,-1.15432 4.44105,-2.02328 7.04883,-2.17773 10.64284,-3.16866 5.21276,0.10228 9.45117,-0.82227 0.73724,-0.0406 1.44995,-0.13683 2.15234,-0.25586 l 1.08008,5.03321 c -3.3317,2.73849 -9.65185,11.12365 -12.66406,17.36718 -1.31636,1.53216 -3.62259,3.61657 -4.29492,5.18555 -0.50614,0.91417 0.12925,1.41301 1.55078,1.96484 0.0895,0.59737 -1.0257,1.56403 1.3125,1.92969 0.49331,1.18856 1.78978,1.80855 2.81055,1.80469 0.58267,0.38161 2.11713,1.27941 2.99609,1.47265 3.77487,3.71557 5.68773,0.56978 8.0918,-2.63671 8.58712,-16.62811 11.74642,-18.73456 12.91992,-19.41602 0.20379,0.30174 0.4402,0.56476 0.71094,0.77539 0.62076,0.72476 3.23206,0.15508 12.72656,20.20117 2.29248,3.28721 4.09775,6.49577 7.99804,2.91211 0.88509,-0.16293 2.44948,-1.00777 3.04493,-1.36914 1.02003,0.0389 2.33527,-0.53417 2.86914,-1.70508 2.34937,-0.28509 1.26695,-1.29083 1.37695,-1.88476 1.43965,-0.50266 2.09161,-0.97914 1.61719,-1.91016 -0.61802,-1.59116 -2.85034,-3.7536 -4.11328,-5.33008 -2.79591,-6.34335 -8.82295,-14.9416 -12.0586,-17.79296 l 1.625,-6.49024 c 2.85807,-0.006 4.48951,-1.16759 6.24805,-1.10547 5.15856,0.61577 10.75812,-0.53246 15,3.75 3.74603,-1.45436 5.75526,3.57807 14.25,-0.25 4.25175,3.9737 8.93965,1.40527 13.5,0.75 -0.0947,3.78147 5.3779,0.3254 8.25,0.25 2.20284,-50.17638 -17.51613,-101.33317 -44,-141 -9.84184,-14.60944 -7.97024,-28.21429 -3.25,-39.75 4.72024,-11.53571 5.77946,-21.6936 6.25,-33.75 0,0 3.59272,16.00865 5.75,28.25 2.15728,12.24135 2.34111,36.22786 6.75,45.25 4.40889,9.02214 5.29635,9.71231 10,10.5 4.70365,0.78769 8.35619,2.09708 12.75,3.75 4.39381,1.65292 6.57055,2.60673 10.375,4.25 3.25902,1.40768 3.22118,1.27427 4.14258,0.69727 1.32045,0.90025 4.62247,0.83215 3.17969,-1.09961 -1.64313,-2.16399 -11.6904,-8.73045 -14.94727,-10.84766 -3.25687,-2.11721 -6.845,-3.09337 -9,-5.5 -2.155,-2.40663 -2.13055,-1.21553 -3.75,-8 -1.61945,-6.78447 -3.703,-31.59848 -4.75,-41 -1.047,-9.40152 -3.51953,-19.80859 -3.51953,-19.80859 58.01667,44.05255 54.96162,128.5553 72.45312,193.58789 3.46833,-18.81347 14.33964,-28.66481 35.70899,-25.80859 -27.91325,-45.80374 -10.54294,-68.64538 28.2832,-80.60938 -54.44804,-39.34739 -19.4797,-79.13055 9.90039,-83.79297 -46.45199,-18.21438 -14.01687,-65.70335 13.08203,-67.5293 -39.95602,-15.64666 -8.25663,-61.73058 22.98047,-68.23437 -15.51211,-9.13284 -36.15126,-14.53088 -59.16406,-14.375 z M 701.00586,557.11523 c 0.9892,0.15434 2.02882,0.41942 3.125,0.81446 -0.0907,1.45778 -0.4035,2.96104 -1.31055,4.44531 -0.0223,0.0366 -0.0406,0.0728 -0.0625,0.10938 -0.18386,-0.40639 -0.38373,-0.81522 -0.61719,-1.22852 -0.78838,-1.39572 -1.0628,-2.78782 -1.13476,-4.14063 z"
       transform="matrix(0.9375,0,0,0.9375,0,308.2677)"
       id="path1637"
       inkscape:connector-curvature="0" />
  </g>
  <g
     inkscape:groupmode="layer"
     id="layer1"
     inkscape:label="Overlay"
     style="display:inline"
     transform="translate(0,-308.2677)">
    <path
       style="fill:none;stroke:#808080;stroke-width:0.70866152;stroke-linecap:round;stroke-linejoin:round;stroke-opacity:1;stroke-miterlimit:4;stroke-dasharray:none;stroke-dashoffset:0"
       d="m 652.38888,586.04461 c 2.60618,0.59588 7.86752,0.0921 11.06235,-0.95293"
       id="path1662"
       inkscape:connector-curvature="0"
       sodipodi:nodetypes="cc" />
    <path
       style="fill:none;stroke:#808080;stroke-width:0.70866152;stroke-linecap:round;stroke-linejoin:round;stroke-opacity:1;stroke-miterlimit:4;stroke-dasharray:none;stroke-dashoffset:0"
       d="m 643.85388,580.11983 c -4.66285,-4.50192 -5.26511,-16.66455 -2.40306,-27.9252 2.86204,-11.26064 9.69985,-20.11622 19.97024,-19.88737 10.27039,0.22885 17.36322,11.49438 18.72728,19.97024 1.36407,8.47586 -5.38616,25.605 -5.38616,25.605"
       id="path1664"
       inkscape:connector-curvature="0"
       sodipodi:nodetypes="czzzc" />
    <path
       style="fill:none;stroke:#808080;stroke-width:0.70866152;stroke-linecap:round;stroke-linejoin:round;stroke-opacity:1;stroke-miterlimit:4;stroke-dasharray:none;stroke-dashoffset:0"
       d="m 713.95135,708.96261 9.02344,4.6875 c 2.97988,1.06445 1.26026,4.88993 -1.31124,3.28837"
       id="path1666"
       inkscape:connector-curvature="0"
       sodipodi:nodetypes="ccc" />
    <path
       transform="translate(0,1.5793937e-6)"
       style="display:inline;opacity:1;fill:none;stroke:#808080;stroke-width:0.70866152;stroke-linecap:round;stroke-linejoin:round;stroke-opacity:1;stroke-miterlimit:4;stroke-dasharray:none;stroke-dashoffset:0"
       d="m 734.58466,721.1361 c 0.90504,-0.84291 0.0987,-1.37868 -0.48053,-1.92475 l -11.11506,-9.28494"
       id="path1668"
       inkscape:connector-curvature="0"
       sodipodi:nodetypes="ccc" />
    <path
       transform="translate(0,1.5793937e-6)"
       style="display:inline;opacity:1;fill:none;stroke:#808080;stroke-width:0.70866152;stroke-linecap:round;stroke-linejoin:round;stroke-opacity:1;stroke-miterlimit:4;stroke-dasharray:none;stroke-dashoffset:0"
       d="m 637.94435,864.38976 c -0.0526,-1.71194 2.31557,-3.73969 3.52316,-5.61592"
       id="path1671-4-3-4-7"
       inkscape:connector-curvature="0"
       sodipodi:nodetypes="cc" />
    <path
       transform="translate(0,1.5793937e-6)"
       style="display:inline;opacity:1;fill:none;stroke:#808080;stroke-width:0.70866152;stroke-linecap:round;stroke-linejoin:round;stroke-opacity:1;stroke-miterlimit:4;stroke-dasharray:none;stroke-dashoffset:0"
       d="m 635.59763,863.26429 c 0.34805,-0.88828 1.88339,-4.098 2.99237,-4.48194"
       id="path1673-7-7-7-8"
       inkscape:connector-curvature="0"
       sodipodi:nodetypes="cc" />
    <path
       transform="translate(0,1.5793937e-6)"
       style="display:inline;opacity:1;fill:none;stroke:#808080;stroke-width:0.70866152;stroke-linecap:round;stroke-linejoin:round;stroke-opacity:1;stroke-miterlimit:4;stroke-dasharray:none;stroke-dashoffset:0"
       d="m 632.9368,861.88343 c 1.1576,-1.79908 2.09239,-3.47109 3.70437,-4.55537"
       id="path1675-6-4-4-6"
       inkscape:connector-curvature="0"
       sodipodi:nodetypes="cc" />
    <path
       transform="translate(0,1.5793937e-6)"
       style="display:inline;opacity:1;fill:none;stroke:#808080;stroke-width:0.70866152;stroke-linecap:round;stroke-linejoin:round;stroke-opacity:1;stroke-miterlimit:4;stroke-dasharray:none;stroke-dashoffset:0"
       d="m 631.42021,860.15423 c 0.54568,-1.37806 1.82021,-3.01138 3.50792,-4.50629"
       id="path1677-5-5-4-8"
       inkscape:connector-curvature="0"
       sodipodi:nodetypes="cc" />
    <path
       transform="translate(0,1.5793937e-6)"
       style="display:inline;opacity:1;fill:none;stroke:#808080;stroke-width:0.70866152;stroke-linecap:round;stroke-linejoin:round;stroke-opacity:1;stroke-miterlimit:4;stroke-dasharray:none;stroke-dashoffset:0"
       d="m 678.1646,866.11836 c 0.11138,-1.70913 -2.18571,-3.81705 -3.32811,-5.73366"
       id="path1671-4-3-4-3"
       inkscape:connector-curvature="0"
       sodipodi:nodetypes="cc" />
    <path
       transform="translate(0,1.5793937e-6)"
       style="display:inline;opacity:1;fill:none;stroke:#808080;stroke-width:0.70866152;stroke-linecap:round;stroke-linejoin:round;stroke-opacity:1;stroke-miterlimit:4;stroke-dasharray:none;stroke-dashoffset:0"
       d="m 680.54861,865.07418 c -0.31733,-0.89972 -1.74147,-4.16029 -2.8366,-4.58211"
       id="path1673-7-7-7-1"
       inkscape:connector-curvature="0"
       sodipodi:nodetypes="cc" />
    <path
       transform="translate(0,1.5793937e-6)"
       style="display:inline;opacity:1;fill:none;stroke:#808080;stroke-width:0.70866152;stroke-linecap:round;stroke-linejoin:round;stroke-opacity:1;stroke-miterlimit:4;stroke-dasharray:none;stroke-dashoffset:0"
       d="m 683.25531,863.78556 c -1.0951,-1.83779 -1.97189,-3.54093 -3.54566,-4.67996"
       id="path1675-6-4-4-4"
       inkscape:connector-curvature="0"
       sodipodi:nodetypes="cc" />
    <path
       transform="translate(0,1.5793937e-6)"
       style="display:inline;opacity:1;fill:none;stroke:#808080;stroke-width:0.70866152;stroke-linecap:round;stroke-linejoin:round;stroke-opacity:1;stroke-miterlimit:4;stroke-dasharray:none;stroke-dashoffset:0"
       d="m 684.83042,862.1095 c -0.49801,-1.396 -1.71566,-3.07215 -3.35101,-4.62417"
       id="path1677-5-5-4-9"
       inkscape:connector-curvature="0"
       sodipodi:nodetypes="cc" />
    <path
       transform="translate(0,1.5793937e-6)"
       style="display:inline;opacity:1;fill:none;stroke:#808080;stroke-width:0.70866152;stroke-linecap:round;stroke-linejoin:round;stroke-opacity:1;stroke-miterlimit:4;stroke-dasharray:none;stroke-dashoffset:0"
       d="m 658.76954,835.7997 c -1.701,1.9301 -2.33474,6.56524 -0.99609,8.49609"
       id="path1851"
       inkscape:connector-curvature="0"
       sodipodi:nodetypes="cc" />
    <path
       transform="translate(0,1.5793937e-6)"
       style="display:inline;opacity:1;fill:none;stroke:#808080;stroke-width:0.70866152;stroke-linecap:round;stroke-linejoin:round;stroke-opacity:1;stroke-miterlimit:4;stroke-dasharray:none;stroke-dashoffset:0"
       d="m 594.33316,713.312 -9.49228,3.64569 c -3.08049,0.72345 -1.80088,4.7177 0.93405,3.41471"
       id="path1666-0-2"
       inkscape:connector-curvature="0"
       sodipodi:nodetypes="ccc" />
    <path
       transform="translate(0,1.5793937e-6)"
       style="display:inline;opacity:1;fill:none;stroke:#808080;stroke-width:0.70866152;stroke-linecap:round;stroke-linejoin:round;stroke-opacity:1;stroke-miterlimit:4;stroke-dasharray:none;stroke-dashoffset:0"
       d="m 572.4645,723.09407 c -0.80473,-0.93913 0.0563,-1.3811 0.69348,-1.8587 l 12.08641,-7.97948"
       id="path1668-6-6"
       inkscape:connector-curvature="0"
       sodipodi:nodetypes="ccc" />
    <path
       transform="translate(0,1.5793937e-6)"
       style="display:inline;opacity:1;fill:none;stroke:#808080;stroke-width:0.70866152;stroke-linecap:round;stroke-linejoin:round;stroke-opacity:1;stroke-miterlimit:4;stroke-dasharray:none;stroke-dashoffset:0"
       d="m 612.22851,642.20136 c 6.09168,-41.73871 18.14368,-41.01517 31.71681,-42.88603"
       id="path1864"
       inkscape:connector-curvature="0"
       sodipodi:nodetypes="cc" />
    <path
       transform="translate(0,1.5793937e-6)"
       style="display:inline;opacity:1;fill:none;stroke:#808080;stroke-width:0.70866152;stroke-linecap:round;stroke-linejoin:round;stroke-opacity:1;stroke-miterlimit:4;stroke-dasharray:none;stroke-dashoffset:0"
       d="m 672.09962,597.58681 c 26.27211,-0.75941 28.33329,16.24442 31.76498,42.79024"
       id="path1866"
       inkscape:connector-curvature="0"
       sodipodi:nodetypes="cc" />
  </g>
  <g
     inkscape:groupmode="layer"
     id="layer2"
     inkscape:label="Pattern">
    <path
       style="fill:none;stroke:#808080;stroke-width:0.70866152;stroke-linecap:round;stroke-linejoin:round;stroke-miterlimit:4;stroke-dasharray:none;stroke-opacity:1;stroke-dashoffset:0"
       d="m 643.82811,291.16482 c -1.43824,14.51523 27.52657,17.09515 28.35937,-1.75781"
       id="path926"
       inkscape:connector-curvature="0"
       sodipodi:nodetypes="cc" />
    <path
       style="fill:none;stroke:#808080;stroke-width:0.70866152;stroke-linecap:round;stroke-linejoin:round;stroke-miterlimit:4;stroke-dasharray:none;stroke-opacity:1;stroke-dashoffset:0"
       d="m 629.08829,325.43133 3.16751,-32.01229"
       id="path926-3"
       inkscape:connector-curvature="0"
       sodipodi:nodetypes="cc" />
    <path
       style="fill:none;stroke:#808080;stroke-width:0.70866152;stroke-linecap:round;stroke-linejoin:round;stroke-miterlimit:4;stroke-dasharray:none;stroke-opacity:1;stroke-dashoffset:0"
       d="M 687.87197,326.19744 687.3325,291.81191"
       id="path926-6"
       inkscape:connector-curvature="0"
       sodipodi:nodetypes="cc" />
    <path
       style="fill:none;stroke:#808080;stroke-width:0.7086615;stroke-linecap:round;stroke-linejoin:round;stroke-miterlimit:4;stroke-dasharray:none;stroke-dashoffset:0;stroke-opacity:1"
       d="m 635.29894,383.72819 c 14.52601,2.20081 29.27033,2.2186 44.23828,0"
       id="path926-7"
       inkscape:connector-curvature="0"
       sodipodi:nodetypes="cc" />
    <path
       style="fill:none;stroke:#808080;stroke-width:0.7086615;stroke-linecap:round;stroke-linejoin:round;stroke-miterlimit:4;stroke-dasharray:none;stroke-dashoffset:0;stroke-opacity:1"
       d="m 632.47984,392.46181 c 17.10455,2.40281 33.9305,2.01956 50.59382,0.0101"
       id="path926-5"
       inkscape:connector-curvature="0"
       sodipodi:nodetypes="cc" />
    <path
       style="fill:#ffffff;fill-opacity:1;stroke:#808080;stroke-width:0.70866144;stroke-linecap:round;stroke-linejoin:round;stroke-miterlimit:4;stroke-dasharray:none;stroke-opacity:1"
       d="m 657.524,382.80712 c -3.125,-0.0391 -6.57315,3.22513 -6.79485,6.62913 -0.22171,3.40401 3.17066,8.66165 6.79485,8.61786 3.62419,-0.0438 6.67898,-5.28634 6.4634,-8.61786 -0.21558,-3.33151 -3.3384,-6.59006 -6.4634,-6.62913 z"
       id="path974"
       inkscape:connector-curvature="0"
       sodipodi:nodetypes="zzzzz" />
    <path
       style="fill:none;stroke:#808080;stroke-width:0.7086615;stroke-linecap:round;stroke-linejoin:round;stroke-miterlimit:4;stroke-dasharray:none;stroke-dashoffset:0;stroke-opacity:1"
       d="m 644.85961,524.01369 c 17.10455,2.40281 3.51938,-1.91648 12.39348,-1.68861"
       id="path926-5-3"
       inkscape:connector-curvature="0"
       sodipodi:nodetypes="cc" />
    <path
       style="fill:none;stroke:#808080;stroke-width:0.7086615;stroke-linecap:round;stroke-linejoin:round;stroke-miterlimit:4;stroke-dasharray:none;stroke-dashoffset:0;stroke-opacity:1"
       d="m 660.24855,523.09383 c 5.67342,2.62253 5.4398,1.08282 12.36687,1.12389"
       id="path926-5-3-5"
       inkscape:connector-curvature="0"
       sodipodi:nodetypes="cc" />
    <path
       style="fill:none;stroke:#808080;stroke-width:0.70866144;stroke-linecap:round;stroke-linejoin:round;stroke-miterlimit:4;stroke-dasharray:none;stroke-opacity:1"
       d="m 480.53692,209.69271 c 16.71058,10.47789 25.31179,33.39985 15.03332,59.75635 23.24121,13.94041 26.17967,50.82358 11.07536,63.36502 28.6597,21.22833 26.59129,49.17844 15.53537,79.09456 12.52595,5.84536 16.06592,15.06047 18.75571,24.5944 8.80322,-46.74458 21.8568,-84.28031 65.22051,-124.36678 l 12.06568,-27.03809 C 586.10132,230.24068 536.26772,213.60393 480.53692,209.69271 Z"
       id="path1006"
       inkscape:connector-curvature="0"
       sodipodi:nodetypes="cccccccc" />
    <path
       style="fill:none;stroke:#808080;stroke-width:0.7086615;stroke-linecap:round;stroke-linejoin:round;stroke-miterlimit:4;stroke-dasharray:none;stroke-opacity:1"
       d="m 836.65552,209.69271 c -16.71058,10.47789 -25.31179,33.39985 -15.03332,59.75635 -23.24121,13.94041 -26.17967,50.82358 -11.07536,63.36503 -28.6597,21.22831 -26.59129,49.17842 -15.53537,79.09455 -12.52595,5.84535 -16.06592,15.06046 -18.75571,24.5944 -8.80322,-46.74459 -21.8568,-84.28031 -65.22051,-124.36677 l -12.06568,-27.0381 c 32.12155,-54.85749 81.95515,-71.49424 137.68595,-75.40546 z"
       id="path1006-6"
       inkscape:connector-curvature="0"
       sodipodi:nodetypes="cccccccc" />
    <path
       style="fill:none;stroke:#808080;stroke-width:0.70866144;stroke-linecap:round;stroke-linejoin:round;stroke-miterlimit:4;stroke-dasharray:none;stroke-opacity:1"
       d="m 648.89435,247.38223 c -0.61544,-1.91756 1.26941,-3.54483 3.24592,-3.32288 1.97651,0.22195 3.06555,1.97199 1.69404,3.69111 -1.37151,1.71912 -4.32452,1.54933 -4.93996,-0.36823 z"
       id="path1032"
       inkscape:connector-curvature="0"
       sodipodi:nodetypes="zzzz" />
    <path
       style="fill:none;stroke:#808080;stroke-width:0.70866144;stroke-linecap:round;stroke-linejoin:round;stroke-miterlimit:4;stroke-dasharray:none;stroke-opacity:1"
       d="m 665.21614,247.36213 c -0.57723,-1.87538 0.96696,-3.18551 2.72863,-3.08019 1.76167,0.10532 3.01316,2.32241 1.41946,3.93727 -1.5937,1.61485 -3.57086,1.0183 -4.14809,-0.85708 z"
       id="path1034"
       inkscape:connector-curvature="0"
       sodipodi:nodetypes="zzzz" />
    <path
       style="fill:none;stroke:#808080;stroke-width:0.70866144;stroke-linecap:round;stroke-linejoin:round;stroke-miterlimit:4;stroke-dasharray:none;stroke-opacity:1"
       d="m 658.7694,249.0645 c -3.19957,8.06656 -3.74076,13.17937 0.99436,12.42961"
       id="path1036"
       inkscape:connector-curvature="0"
       sodipodi:nodetypes="cc" />
    <path
       style="fill:none;stroke:#808080;stroke-width:0.7086615;stroke-linecap:round;stroke-linejoin:round;stroke-miterlimit:4;stroke-dasharray:none;stroke-opacity:1"
       d="m 669.2587,266.6425 c -7.35676,4.79661 -17.9095,5.74509 -21.04747,-0.9115"
       id="path1036-2"
       inkscape:connector-curvature="0"
       sodipodi:nodetypes="cc" />
  </g>
</svg>
