<?xml version="1.0" encoding="UTF-8" standalone="no"?>
<!-- Created with Inkscape (http://www.inkscape.org/) -->

<svg
   xmlns:dc="http://purl.org/dc/elements/1.1/"
   xmlns:cc="http://creativecommons.org/ns#"
   xmlns:rdf="http://www.w3.org/1999/02/22-rdf-syntax-ns#"
   xmlns:svg="http://www.w3.org/2000/svg"
   xmlns="http://www.w3.org/2000/svg"
   xmlns:sodipodi="http://sodipodi.sourceforge.net/DTD/sodipodi-0.dtd"
   xmlns:inkscape="http://www.inkscape.org/namespaces/inkscape"
   width="297mm"
   height="210mm"
   id="svg2"
   version="1.1"
   inkscape:version="0.92.3 (2405546, 2018-03-11)"
   sodipodi:docname="PhotoTwoChildren-undecorated.svg"
   inkscape:export-filename="/home/christian/SportsCar.svg.png"
   inkscape:export-xdpi="138.06"
   inkscape:export-ydpi="138.06">
  <defs
     id="defs4" />
  <sodipodi:namedview
     id="base"
     pagecolor="#ffffff"
     bordercolor="#666666"
     borderopacity="1.0"
     inkscape:pageopacity="0.0"
     inkscape:pageshadow="2"
     inkscape:zoom="0.70710678"
     inkscape:cx="326.40231"
     inkscape:cy="307.52851"
     inkscape:document-units="mm"
     inkscape:current-layer="layer1"
     showgrid="false"
     units="mm"
     inkscape:window-width="1920"
     inkscape:window-height="1080"
     inkscape:window-x="1920"
     inkscape:window-y="0"
     inkscape:window-maximized="0"
     inkscape:snap-global="false" />
  <metadata
     id="metadata7">
    <rdf:RDF>
      <cc:Work
         rdf:about="">
        <dc:format>image/svg+xml</dc:format>
        <dc:type
           rdf:resource="http://purl.org/dc/dcmitype/StillImage" />
        <dc:title />
      </cc:Work>
    </rdf:RDF>
  </metadata>
  <g
     inkscape:label="Mask"
     inkscape:groupmode="layer"
     id="Mask"
     style="display:inline;opacity:1"
     transform="translate(0,-328.81888)">
    <rect
       style="display:inline;opacity:1;fill:none;fill-opacity:1;stroke:#808080;stroke-width:0.779378;stroke-linecap:round;stroke-linejoin:round;stroke-miterlimit:4;stroke-dasharray:none;stroke-dashoffset:0;stroke-opacity:1"
       id="rect814"
       width="566.14978"
       x="442.59436"
       y="-873.50861"
       heightx="549.12811"
       height="377.17337"
       transform="rotate(90)" />
  </g>
  <g
     inkscape:groupmode="layer"
     id="layer1"
     inkscape:label="Overlay"
     style="display:inline"
     transform="translate(0,-328.81888)">
    <path
       inkscape:connector-curvature="0"
       style="opacity:1;fill:none;fill-opacity:1;stroke:#c0c0c0;stroke-width:0.32156628;stroke-linecap:round;stroke-linejoin:round;stroke-miterlimit:4;stroke-dasharray:none;stroke-dashoffset:0;stroke-opacity:1"
       d="m 647.9303,538.35817 c -7.50606,-0.13343 -15.26481,1.12155 -19.754,3.83929 -7.98613,4.83476 -13.2644,17.34183 -14.01865,22.31832 -4.04708,-1.06035 -5.17482,2.2311 -5.54268,4.72891 -0.73789,5.01028 -0.29352,10.49172 0.26443,15.44941 0.51933,4.61459 3.46756,8.13705 6.13303,7.76262 1.56005,14.94241 13.40609,28.78546 23.66298,30.69589 0.0121,9.67166 -0.71227,14.49763 -7.06364,14.31791 -6.95563,-0.19682 -9.0341,2.64214 -14.37735,2.38393 -6.27113,-0.30304 -14.39088,4.90233 -19.10218,10.85578 -8.53866,10.78991 -12.18777,22.24809 -15.88191,35.5027 -2.52121,9.04614 -2.28061,17.19944 -0.46531,26.38719 3.56497,18.04335 18.19431,39.24271 22.81848,51.69002 -0.8305,6.14887 -1.50242,31.24427 1.13559,33.19461 0.78197,0.57816 2.78066,1.03249 5.07327,0.56164 -0.75175,15.03908 -0.31669,39.61406 -0.62108,60.30948 -0.0784,5.32981 0.55244,3.98438 0.62108,9.31433 0.25089,19.47311 1.28408,48.12464 2.17281,59.14108 -4.02149,4.87809 -10.72784,14.37984 -12.72932,23.5933 -1.91154,8.79945 9.1014,9.21403 17.90098,5.64927 4.92614,-1.9956 9.38948,-7.88354 12.36855,-13.72142 2.87811,-5.64003 2.96684,-7.66411 3.39653,-13.02858 -0.66791,-4.81567 -0.42093,-16.16439 -0.17013,-18.88284 0.58008,-8.09673 5.36549,-24.65937 6.36055,-34.83444 1.33697,-13.67129 2.0075,-27.44605 3.14235,-41.13557 0.93705,-11.30351 2.31794,-26.28038 3.56872,-33.83824 1.25079,-7.55786 1.12008,-4.11377 2.64016,-11.64087 0.64201,24.08393 3.81428,45.19396 5.2762,65.65948 -1.39185,20.68505 0.13502,38.32281 3.57078,57.12201 1.27526,6.97776 -1.0914,12.86127 -0.77689,21.26677 2.07068,8.73482 5.79286,25.35733 15.679,28.55999 4.22081,1.36736 8.62583,-0.36626 11.28009,-3.6794 2.31277,4.36791 9.85404,4.18269 15.0333,2.50486 9.57788,-3.10281 13.18297,-19.20793 15.18909,-27.67037 0.30471,-8.14341 -1.98778,-13.84246 -0.75229,-20.60263 3.32862,-18.21304 4.80648,-35.30067 3.45803,-55.34074 1.41633,-19.82738 4.49229,-40.2808 5.11427,-63.61376 1.4727,7.2924 1.34433,3.9579 2.55612,11.2801 1.21179,7.3222 2.55019,21.83154 3.45802,32.78259 1.09947,13.26268 1.74868,26.60739 3.04397,39.85238 0.96403,9.85779 5.59972,25.90379 6.16172,33.74805 0.24298,2.63369 0.4831,13.62903 -0.16398,18.29454 0.41628,5.1972 0.50156,7.15855 3.28994,12.62273 2.88618,5.65584 7.21065,11.35962 11.98319,13.29301 8.5252,3.4536 19.19331,3.05208 17.34137,-5.47299 -1.93908,-8.92617 -8.43556,-18.13144 -12.33165,-22.85742 0.86101,-10.67294 1.86414,-38.43239 2.10721,-57.2983 0.0665,-5.16375 0.67653,-3.85965 0.60059,-9.02326 -0.29491,-20.05013 0.12773,-43.8576 -0.60059,-58.42775 2.22112,0.45617 4.15581,0.0149 4.91339,-0.54525 2.55576,-1.88953 1.90534,-26.20232 1.10075,-32.15945 4.47998,-12.0592 18.65337,-32.5961 22.10719,-50.07683 1.7587,-8.90127 1.99164,-16.80318 -0.45096,-25.56726 -3.57895,-12.8413 -7.36762,-26.99244 -15.64004,-37.44591 -3.57858,-4.52208 -8.60465,-10.64418 -13.53694,-12.94455 -0.0105,-1.08455 -0.0275,-2.03845 -0.0164,-2.49666 -0.55333,-4.78669 -4.97673,-2.00481 -8.99662,-1.96987 -4.70409,0.0408 -10.68198,0.61235 -11.03207,5.51399 -4.35521,-0.53385 -5.45446,-3.58291 -5.44429,-11.7495 9.93706,-1.85086 21.41571,-15.26215 22.92711,-29.73863 2.58235,0.36274 5.43516,-3.04799 5.9383,-7.5187 0.54055,-4.8031 0.97314,-10.1157 0.25827,-14.96975 -0.3564,-2.41993 -1.44961,-5.60861 -5.3705,-4.58133 -0.73074,-4.82131 -5.84492,-16.93941 -13.58203,-21.62343 -8.69844,-5.26599 -30.06746,-4.86402 -36.80842,0.63134 -6.9886,5.69726 -9.13286,17.22022 -10.90497,22.94966 -4.00523,-1.71423 -5.3998,1.09108 -6.11254,4.55672 -0.87332,4.24644 -0.41344,12.15614 0.11274,16.51327 0.41142,3.4068 2.41329,7.63191 5.87885,5.96699 1.75535,14.2155 8.79014,24.95565 19.12881,27.81386 0.0325,5.33118 -0.32324,6.79601 -1.30162,9.41476 -1.35965,-1.12928 -3.61732,-2.92007 -5.72716,-3.83313 -5.67651,-2.45659 -16.69688,-4.72746 -21.64188,-5.74562 -6.25217,-1.2873 -11.08724,1.01367 -15.43507,0.72564 -3.73097,-0.24719 -12.62447,4.4511 -12.53663,-9.93953 10.67141,-2.95018 17.92987,-14.03455 19.74171,-28.70757 3.5771,1.71851 5.64279,-2.64323 6.06744,-6.15967 0.5431,-4.49736 1.02031,-12.6631 0.11888,-17.04622 -0.73568,-3.57717 -2.17723,-6.47166 -6.31136,-4.70226 -1.82915,-5.91383 -4.04196,-17.80696 -11.2555,-23.68759 -3.47895,-2.83611 -10.73313,-4.3577 -18.2392,-4.49113 z m 38.56511,216.5623 c 0.44426,1.84186 0.3169,2.39247 0.33206,2.88818 l 1.52916,44.16107 c -0.18485,9.21181 -0.777,17.79993 -0.35666,26.31136 0.50189,10.16302 1.30245,20.01719 2.05186,30.16498 1.81854,24.62536 6.70566,58.86176 3.60766,73.98785 -3.0385,4.98245 -5.64277,9.23066 -7.42851,12.96709 -1.13047,-3.12737 -3.38929,-6.82864 -6.96525,-12.69242 -3.19772,-15.61292 1.84947,-50.9518 3.72655,-76.36973 0.77352,-10.47438 1.59736,-20.64647 2.1154,-31.13659 0.43387,-8.78536 -0.17611,-17.64758 -0.36691,-27.15587 z"
       id="path904" />
    <path
       style="opacity:1;fill:none;fill-opacity:1;stroke:#c0c0c0;stroke-width:0.32156628;stroke-linecap:round;stroke-linejoin:round;stroke-miterlimit:4;stroke-dasharray:none;stroke-dashoffset:0;stroke-opacity:1"
       d="m 758.29653,672.31006 1.06338,79.00918 c 0,0 12.25561,-29.38166 11.48451,-44.76833 -0.60843,-12.14063 -12.54789,-34.24085 -12.54789,-34.24085 z"
       id="path910"
       inkscape:connector-curvature="0"
       sodipodi:nodetypes="ccsc" />
    <path
       style="opacity:1;fill:none;fill-opacity:1;stroke:#c0c0c0;stroke-width:0.32156628;stroke-linecap:round;stroke-linejoin:round;stroke-miterlimit:4;stroke-dasharray:none;stroke-dashoffset:0;stroke-opacity:1"
       d="m 759.39106,751.42557 0.60043,50.501"
       id="path912"
       inkscape:connector-curvature="0"
       sodipodi:nodetypes="cc" />
    <path
       style="opacity:1;fill:none;fill-opacity:1;stroke:#c0c0c0;stroke-width:0.32156628;stroke-linecap:round;stroke-linejoin:round;stroke-miterlimit:4;stroke-dasharray:none;stroke-dashoffset:0;stroke-opacity:1"
       d="m 686.93724,757.36428 c 8.90624,3.32219 62.2403,2.86358 72.44847,-1.89786"
       id="path914"
       inkscape:connector-curvature="0"
       sodipodi:nodetypes="cc" />
    <path
       style="opacity:1;fill:none;fill-opacity:1;stroke:#c0c0c0;stroke-width:0.32156628;stroke-linecap:round;stroke-linejoin:round;stroke-miterlimit:4;stroke-dasharray:none;stroke-dashoffset:0;stroke-opacity:1"
       d="m 695.47213,577.67726 c -1.52728,8.49007 -1.70185,17.6424 -0.1504,26.99406"
       id="path916"
       inkscape:connector-curvature="0"
       sodipodi:nodetypes="cc" />
    <path
       style="opacity:1;fill:none;fill-opacity:1;stroke:#c0c0c0;stroke-width:0.32156628;stroke-linecap:round;stroke-linejoin:round;stroke-miterlimit:4;stroke-dasharray:none;stroke-dashoffset:0;stroke-opacity:1"
       d="m 756.73685,575.73314 c 0.8027,8.3857 0.43749,18.28035 -0.82242,27.06924"
       id="path918"
       inkscape:connector-curvature="0"
       sodipodi:nodetypes="cc" />
    <path
       style="opacity:1;fill:none;fill-opacity:1;stroke:#c0c0c0;stroke-width:0.32156628;stroke-linecap:round;stroke-linejoin:round;stroke-miterlimit:4;stroke-dasharray:none;stroke-dashoffset:0;stroke-opacity:1"
       d="m 709.13563,575.48548 c -1.15924,2.0478 0.58309,4.69334 2.88403,5.18633 2.23095,0.478 4.99552,-3.14686 3.62397,-5.92157 -1.15596,-2.33857 -5.50952,-1.02857 -6.508,0.73524 z"
       id="path920"
       inkscape:connector-curvature="0"
       sodipodi:nodetypes="ssss" />
    <path
       style="opacity:1;fill:none;fill-opacity:1;stroke:#c0c0c0;stroke-width:0.32156628;stroke-linecap:round;stroke-linejoin:round;stroke-miterlimit:4;stroke-dasharray:none;stroke-dashoffset:0;stroke-opacity:1"
       d="m 736.60421,574.60362 c -1.76412,2.28333 0.60167,6.01143 3.48492,5.89956 3.05331,-0.11848 4.52424,-3.81624 2.48917,-6.09555 -1.61451,-1.80827 -4.54757,-1.65039 -5.97409,0.19599 z"
       id="path922"
       inkscape:connector-curvature="0"
       sodipodi:nodetypes="ssss" />
    <path
       style="opacity:1;fill:none;fill-opacity:1;stroke:#c0c0c0;stroke-width:0.32156628;stroke-linecap:round;stroke-linejoin:round;stroke-miterlimit:4;stroke-dasharray:none;stroke-dashoffset:0;stroke-opacity:1"
       d="m 708.32291,608.43093 c 9.12306,11.57566 17.60108,19.54015 35.61981,-2.0947 0.85295,-1.35648 -0.0489,-2.31399 -0.90231,-1.80461 -11.39131,6.4315 -20.76633,5.71436 -33.51441,1.64354 -1.37081,-0.4199 -1.91099,1.28919 -1.20309,2.25577 z"
       id="path924"
       inkscape:connector-curvature="0"
       sodipodi:nodetypes="ccccc" />
    <path
       style="display:inline;opacity:1;fill:none;fill-opacity:1;stroke:#c0c0c0;stroke-width:0.32156628;stroke-linecap:round;stroke-linejoin:round;stroke-miterlimit:4;stroke-dasharray:none;stroke-dashoffset:0;stroke-opacity:1"
       d="m 764.12902,774.18192 c -0.0913,5.50058 -0.34982,16.25883 -1.51453,16.50175 -0.92753,0.19345 -1.90597,0.17824 -2.75189,-0.034"
       id="path926-3"
       inkscape:connector-curvature="0"
       sodipodi:nodetypes="csc" />
    <path
       style="display:inline;opacity:1;fill:none;fill-opacity:1;stroke:#c0c0c0;stroke-width:0.32156628;stroke-linecap:round;stroke-linejoin:round;stroke-miterlimit:4;stroke-dasharray:none;stroke-dashoffset:0;stroke-opacity:1"
       d="m 765.46308,782.62961 c -0.12533,6.10312 -1.32952,16.27265 -2.9443,16.60461 -1.08762,0.22359 -1.66295,-0.10906 -2.5453,-0.32695"
       id="path928-7"
       inkscape:connector-curvature="0"
       sodipodi:nodetypes="csc" />
    <path
       style="opacity:1;vector-effect:none;fill:none;fill-opacity:1;stroke:#c0c0c0;stroke-width:0.32156628;stroke-linecap:round;stroke-linejoin:round;stroke-miterlimit:4;stroke-dasharray:none;stroke-dashoffset:0;stroke-opacity:1"
       d="m 714.43231,632.56769 c 5.88299,0.69302 15.28521,0.73285 18.5537,-0.0376"
       id="path965"
       inkscape:connector-curvature="0"
       sodipodi:nodetypes="cc" />
    <path
       style="opacity:1;fill:none;fill-opacity:1;stroke:#c0c0c0;stroke-width:0.33191583;stroke-linecap:round;stroke-linejoin:round;stroke-miterlimit:4;stroke-dasharray:none;stroke-dashoffset:0;stroke-opacity:1"
       d="m 611.5724,738.20337 -0.1203,7.56098 c 0,0 -12.65005,-30.3273 -11.85414,-46.20918 0.62801,-12.53137 12.95175,-35.34289 12.95175,-35.34289 l -0.69433,55.66027"
       id="path910-3"
       inkscape:connector-curvature="0"
       sodipodi:nodetypes="ccscc" />
    <path
       style="opacity:1;fill:none;fill-opacity:1;stroke:#c0c0c0;stroke-width:0.33191583;stroke-linecap:round;stroke-linejoin:round;stroke-miterlimit:4;stroke-dasharray:none;stroke-dashoffset:0;stroke-opacity:1"
       d="m 611.41995,745.87412 -0.61976,52.12635"
       id="path912-5"
       inkscape:connector-curvature="0"
       sodipodi:nodetypes="cc" />
    <path
       style="opacity:1;fill:none;fill-opacity:1;stroke:#c0c0c0;stroke-width:0.33191583;stroke-linecap:round;stroke-linejoin:round;stroke-miterlimit:4;stroke-dasharray:none;stroke-dashoffset:0;stroke-opacity:1"
       d="m 686.43758,751.98076 c -9.19288,3.42911 -64.47539,2.97894 -75.01211,-1.93575"
       id="path914-6"
       inkscape:connector-curvature="0"
       sodipodi:nodetypes="cc" />
    <path
       style="opacity:1;fill:none;fill-opacity:1;stroke:#c0c0c0;stroke-width:0.33191583;stroke-linecap:round;stroke-linejoin:round;stroke-miterlimit:4;stroke-dasharray:none;stroke-dashoffset:0;stroke-opacity:1"
       d="m 677.3961,566.53375 c 1.57642,8.76332 1.75663,18.21022 0.15522,27.86286"
       id="path916-2"
       inkscape:connector-curvature="0"
       sodipodi:nodetypes="cc" />
    <path
       style="opacity:1;fill:none;fill-opacity:1;stroke:#c0c0c0;stroke-width:0.33191583;stroke-linecap:round;stroke-linejoin:round;stroke-miterlimit:4;stroke-dasharray:none;stroke-dashoffset:0;stroke-opacity:1"
       d="m 614.15957,564.52706 c -0.82853,8.65559 -0.45156,18.8687 0.8489,27.94046"
       id="path918-9"
       inkscape:connector-curvature="0"
       sodipodi:nodetypes="cc" />
    <path
       style="opacity:1;fill:none;fill-opacity:1;stroke:#c0c0c0;stroke-width:0.33191583;stroke-linecap:round;stroke-linejoin:round;stroke-miterlimit:4;stroke-dasharray:none;stroke-dashoffset:0;stroke-opacity:1"
       d="m 663.29284,564.27143 c 1.19655,2.11371 -0.60186,4.84439 -2.97686,5.35325 -2.30275,0.49338 -5.1563,-3.24814 -3.74061,-6.11217 1.19317,-2.41382 5.68684,-1.06166 6.71747,0.75892 z"
       id="path920-1"
       inkscape:connector-curvature="0"
       sodipodi:nodetypes="ssss" />
    <path
       style="opacity:1;fill:none;fill-opacity:1;stroke:#c0c0c0;stroke-width:0.33191583;stroke-linecap:round;stroke-linejoin:round;stroke-miterlimit:4;stroke-dasharray:none;stroke-dashoffset:0;stroke-opacity:1"
       d="m 634.94018,563.36119 c 1.82089,2.35681 -0.62103,6.20491 -3.59708,6.08943 -3.15158,-0.1223 -4.66986,-3.93907 -2.56929,-6.29173 1.66648,-1.86648 4.69394,-1.7035 6.16637,0.2023 z"
       id="path922-2"
       inkscape:connector-curvature="0"
       sodipodi:nodetypes="ssss" />
    <path
       style="opacity:1;fill:none;fill-opacity:1;stroke:#c0c0c0;stroke-width:0.33191583;stroke-linecap:round;stroke-linejoin:round;stroke-miterlimit:4;stroke-dasharray:none;stroke-dashoffset:0;stroke-opacity:1"
       d="m 664.13171,598.27722 c -9.41668,11.94822 -18.16757,20.16905 -36.76622,-2.16211 -0.88041,-1.40015 0.0505,-2.38848 0.93134,-1.8627 11.75793,6.6385 21.4347,5.89829 34.59307,1.69644 1.41492,-0.43343 1.97249,1.33068 1.24181,2.32837 z"
       id="path924-7"
       inkscape:connector-curvature="0"
       sodipodi:nodetypes="ccccc" />
    <path
       style="display:inline;opacity:1;fill:none;fill-opacity:1;stroke:#c0c0c0;stroke-width:0.33191583;stroke-linecap:round;stroke-linejoin:round;stroke-miterlimit:4;stroke-dasharray:none;stroke-dashoffset:0;stroke-opacity:1"
       d="m 606.5295,769.36286 c 0.0942,5.67762 0.36107,16.78212 1.56328,17.03286 0.95738,0.19967 1.96731,0.18398 2.84045,-0.0352"
       id="path926-3-3"
       inkscape:connector-curvature="0"
       sodipodi:nodetypes="csc" />
    <path
       style="display:inline;opacity:1;fill:none;fill-opacity:1;stroke:#c0c0c0;stroke-width:0.33191583;stroke-linecap:round;stroke-linejoin:round;stroke-miterlimit:4;stroke-dasharray:none;stroke-dashoffset:0;stroke-opacity:1"
       d="m 605.1525,778.08244 c 0.12935,6.29954 1.37231,16.79638 3.03905,17.13903 1.12264,0.23079 1.71648,-0.11258 2.62723,-0.33746"
       id="path928-7-6"
       inkscape:connector-curvature="0"
       sodipodi:nodetypes="csc" />
    <path
       style="opacity:1;vector-effect:none;fill:none;fill-opacity:1;stroke:#c0c0c0;stroke-width:0.33191583;stroke-linecap:round;stroke-linejoin:round;stroke-miterlimit:4;stroke-dasharray:none;stroke-dashoffset:0;stroke-opacity:1"
       d="m 657.82569,623.1908 c -6.07235,0.71534 -15.77717,0.75645 -19.15085,-0.0388"
       id="path965-0"
       inkscape:connector-curvature="0"
       sodipodi:nodetypes="cc" />
    <path
       style="opacity:1;vector-effect:none;fill:none;fill-opacity:1;stroke:#c0c0c0;stroke-width:0.39666221;stroke-linecap:round;stroke-linejoin:round;stroke-miterlimit:4;stroke-dasharray:none;stroke-dashoffset:0;stroke-opacity:1"
       d="m 686.49878,755.04035 c -0.31161,-33.24636 4.70256,-67.35431 1.89767,-101.48161 0.36183,-0.60507 1.29495,-1.1763 1.80599,-1.56523 2.22929,-1.69662 6.59556,-2.49707 9.8146,-2.98666 3.33429,-0.50713 5.81039,-0.75841 8.38357,-1.51288 2.22098,-0.65121 4.06423,-3.27283 4.72113,-5.5827"
       id="path944"
       inkscape:connector-curvature="0"
       sodipodi:nodetypes="ccsssc" />
    <path
       style="opacity:1;vector-effect:none;fill:none;fill-opacity:1;stroke:#c0c0c0;stroke-width:0.39666221;stroke-linecap:round;stroke-linejoin:round;stroke-miterlimit:4;stroke-dasharray:none;stroke-dashoffset:0;stroke-opacity:1"
       d="m 738.44927,644.30208 c 0.20516,1.93508 -0.0241,2.92172 -0.7042,4.49126 l -1.57924,3.20749 c -0.53608,1.88378 0.80185,2.76408 1.92376,3.08103 0.88349,0.20928 2.43271,0.20955 3.1993,-0.81423 1.54647,-3.44052 1.16268,-3.20091 2.18193,-6.62792 l 0.51931,-3.47952"
       id="path3629-26"
       inkscape:connector-curvature="0"
       sodipodi:nodetypes="ccccccc" />
    <path
       style="display:inline;opacity:1;vector-effect:none;fill:none;fill-opacity:1;stroke:#c0c0c0;stroke-width:0.39666221;stroke-linecap:round;stroke-linejoin:round;stroke-miterlimit:4;stroke-dasharray:none;stroke-dashoffset:0;stroke-opacity:1"
       d="m 741.78611,653.05388 c -0.56167,1.97373 1.38607,2.32412 2.67792,2.64337 0.62945,0.13195 1.94056,-0.47872 2.30596,-1.0993 1.71703,-3.01423 0.94181,-2.46231 2.11669,-5.70997 0.47181,-2.18943 0.7075,-3.36052 0.71009,-5.37525"
       id="path3629-2-1"
       inkscape:connector-curvature="0"
       sodipodi:nodetypes="ccccc" />
    <path
       style="display:inline;opacity:1;vector-effect:none;fill:none;fill-opacity:1;stroke:#c0c0c0;stroke-width:0.39666221;stroke-linecap:round;stroke-linejoin:round;stroke-miterlimit:4;stroke-dasharray:none;stroke-dashoffset:0;stroke-opacity:1"
       d="m 747.22506,653.89181 c 0.70254,0.59073 0.89202,0.96406 2.72579,1.33474 0.81043,0.15881 1.8673,-0.13665 2.15072,-0.79418 1.41356,-3.48773 1.53819,-5.77424 2.34373,-9.04891 0.0849,-1.08664 0.1256,-1.23937 0.19599,-2.80702"
       id="path3629-7-8"
       inkscape:connector-curvature="0"
       sodipodi:nodetypes="ccccc" />
    <path
       style="display:inline;opacity:1;vector-effect:none;fill:none;fill-opacity:1;stroke:#c0c0c0;stroke-width:0.39666221;stroke-linecap:round;stroke-linejoin:round;stroke-miterlimit:4;stroke-dasharray:none;stroke-dashoffset:0;stroke-opacity:1"
       d="m 753.17846,651.31484 c 0.50343,0.39433 0.63005,0.52277 1.31352,0.74134 0.63904,0.18484 1.0084,-0.12186 1.30509,-0.64009 1.38124,-2.54041 1.75782,-3.8271 2.48518,-6.48005 l 0.17953,-1.64516"
       id="path3629-22-7"
       inkscape:connector-curvature="0"
       sodipodi:nodetypes="ccccc" />
    <path
       style="opacity:1;vector-effect:none;fill:none;fill-opacity:1;stroke:#c0c0c0;stroke-width:0.29224181;stroke-linecap:round;stroke-linejoin:round;stroke-miterlimit:4;stroke-dasharray:none;stroke-dashoffset:0;stroke-opacity:1"
       d="m 611.82312,719.91378 c 1.93519,1.60932 4.47331,4.10282 6.48676,4.57057 l 4.0118,0.90253 c 1.47809,0.46777 1.11538,1.62862 0.52722,3.84984 -0.0569,0.22703 -0.48735,0.61405 -0.66509,0.60812 -2.66498,-0.089 -2.03845,-0.17565 -4.41222,-0.72327 -1.83322,-0.98716 -3.65134,-2.34318 -5.66045,-4.13624"
       id="path3629-0"
       inkscape:connector-curvature="0"
       sodipodi:nodetypes="ccccscc" />
    <path
       style="display:inline;opacity:1;vector-effect:none;fill:none;fill-opacity:1;stroke:#c0c0c0;stroke-width:0.31129715;stroke-linecap:round;stroke-linejoin:round;stroke-miterlimit:4;stroke-dasharray:none;stroke-dashoffset:0;stroke-opacity:1"
       d="m 622.75718,729.95877 c 1.66736,0.57762 0.93976,1.47631 0.29643,3.6749 -0.1345,0.27945 -1.01903,0.71334 -1.19083,0.69812 -3.04701,-0.26996 -4.44724,-0.37746 -6.16553,-1.23791 -2.07134,-1.12697 -3.41037,-2.08079 -5.68643,-4.03329"
       id="path3629-2-2"
       inkscape:connector-curvature="0"
       sodipodi:nodetypes="ccscc" />
    <path
       style="display:inline;opacity:1;vector-effect:none;fill:none;fill-opacity:1;stroke:#c0c0c0;stroke-width:0.31129715;stroke-linecap:round;stroke-linejoin:round;stroke-miterlimit:4;stroke-dasharray:none;stroke-dashoffset:0;stroke-opacity:1"
       d="m 620.56234,734.24986 c 0.66766,1.12903 0.29781,1.64928 -0.0609,2.79004 -0.17247,0.31137 -0.44881,0.46862 -0.61065,0.46038 -3.07175,-0.15664 -3.32969,-0.25749 -6.06569,-0.89223 -2.11021,-1.05242 -1.11468,-0.50077 -3.45887,-2.37089"
       id="path3629-7-3"
       inkscape:connector-curvature="0"
       sodipodi:nodetypes="ccscc" />
    <path
       style="display:inline;opacity:1;vector-effect:none;fill:none;fill-opacity:1;stroke:#c0c0c0;stroke-width:0.31129715;stroke-linecap:round;stroke-linejoin:round;stroke-miterlimit:4;stroke-dasharray:none;stroke-dashoffset:0;stroke-opacity:1"
       d="m 618.93189,737.53716 c 0.0773,0.60639 0.10991,0.73788 -0.0829,1.50936 -0.0426,0.16388 -0.36141,0.29258 -0.47682,0.28489 -3.14245,-0.2093 -3.93606,-0.0293 -6.71404,-1.13564"
       id="path3629-22-75"
       inkscape:connector-curvature="0"
       sodipodi:nodetypes="ccsc" />
    <path
       style="opacity:1;vector-effect:none;fill:none;fill-opacity:1;stroke:#c0c0c0;stroke-width:0.39666221;stroke-linecap:round;stroke-linejoin:round;stroke-miterlimit:4;stroke-dasharray:none;stroke-dashoffset:0;stroke-opacity:1"
       d="m 611.47609,738.11097 c -3.23301,-1.25526 -4.91769,-4.27907 -5.84412,-8.58065 -0.77502,-4.47147 0.16293,-11.44223 6.24734,-14.23377"
       id="path1719"
       inkscape:connector-curvature="0"
       sodipodi:nodetypes="ccc" />
    <path
       style="opacity:1;vector-effect:none;fill:none;fill-opacity:1;stroke:#c0c0c0;stroke-width:0.39666221;stroke-linecap:round;stroke-linejoin:round;stroke-miterlimit:4;stroke-dasharray:none;stroke-dashoffset:0;stroke-opacity:1"
       d="m 612.0144,707.0021 c 0,0 -0.74911,-0.62548 -1.27386,-1.01905 -0.52475,-0.39356 -1.78092,-1.88823 -1.78092,-1.88823 -2.45413,1.17527 -2.28147,2.93545 -1.0495,5.24751 1.16899,2.19386 2.23907,3.37383 3.95382,5.1751"
       id="path1743"
       inkscape:connector-curvature="0"
       sodipodi:nodetypes="cscsc" />
    <path
       style="opacity:1;vector-effect:none;fill:none;fill-opacity:1;stroke:#c0c0c0;stroke-width:0.39666221;stroke-linecap:round;stroke-linejoin:round;stroke-miterlimit:4;stroke-dasharray:none;stroke-dashoffset:0;stroke-opacity:1"
       d="m 686.19729,945.29883 c -1.88983,4.34648 -3.25005,9.00726 -1.71613,12.61586"
       id="path1745"
       inkscape:connector-curvature="0"
       sodipodi:nodetypes="cc" />
  </g>
</svg>
