<?xml version="1.0" encoding="UTF-8" standalone="no"?>
<!-- Created with Inkscape (http://www.inkscape.org/) -->

<svg
   xmlns:dc="http://purl.org/dc/elements/1.1/"
   xmlns:cc="http://creativecommons.org/ns#"
   xmlns:rdf="http://www.w3.org/1999/02/22-rdf-syntax-ns#"
   xmlns:svg="http://www.w3.org/2000/svg"
   xmlns="http://www.w3.org/2000/svg"
   xmlns:sodipodi="http://sodipodi.sourceforge.net/DTD/sodipodi-0.dtd"
   xmlns:inkscape="http://www.inkscape.org/namespaces/inkscape"
   width="297mm"
   height="210mm"
   id="svg2"
   version="1.1"
   inkscape:version="0.92.3 (2405546, 2018-03-11)"
   sodipodi:docname="Astronaut-undecorated.svg">
  <defs
     id="defs4" />
  <sodipodi:namedview
     id="base"
     pagecolor="#ffffff"
     bordercolor="#666666"
     borderopacity="1.0"
     inkscape:pageopacity="0.0"
     inkscape:pageshadow="2"
     inkscape:zoom="1.190709"
     inkscape:cx="255.44811"
     inkscape:cy="377.00893"
     inkscape:document-units="mm"
     inkscape:current-layer="layer1"
     showgrid="false"
     units="mm"
     inkscape:window-width="1920"
     inkscape:window-height="1080"
     inkscape:window-x="1920"
     inkscape:window-y="0"
     inkscape:window-maximized="0"
     inkscape:snap-nodes="false"
     inkscape:snap-others="false" />
  <metadata
     id="metadata7">
    <rdf:RDF>
      <cc:Work
         rdf:about="">
        <dc:format>image/svg+xml</dc:format>
        <dc:type
           rdf:resource="http://purl.org/dc/dcmitype/StillImage" />
        <dc:title />
      </cc:Work>
    </rdf:RDF>
  </metadata>
  <g
     inkscape:label="Mask"
     inkscape:groupmode="layer"
     id="Mask"
     style="display:inline"
     transform="translate(0,-328.81888)">
    <path
       style="fill:#ffffff;fill-opacity:1;stroke:#808080;stroke-width:0.75590551;stroke-linecap:butt;stroke-linejoin:round;stroke-miterlimit:4;stroke-dasharray:none;stroke-opacity:1"
       d="m 652.13247,641.29378 c -61.25485,44.09571 -79.5015,107.3797 -68.0267,183.92403 -0.0459,12.74209 1.34175,21.59318 7.13861,18.47638 0.67377,2.84974 1.16806,5.71934 8.66981,4.19918 -0.4811,5.77456 10.62073,8.24371 10.05692,-0.39445 5.50415,1.86283 9.02515,-2.2799 5.0645,-23.24394 4.7657,25.95779 13.37289,8.76602 8.77388,-1.87908 -6.86068,-26.26684 -10.47961,-55.69286 31.68232,-123.55337 l -2.5195,154.52978 11.33778,110.85832 -5.03902,27.29466 59.03449,-1.28085 -6.07389,-26.55672 20.97479,-118.16212 24.0161,118.53983 -5.23404,26.70081 60.79856,-0.0931 -5.27625,-27.69347 8.38961,-119.26543 3.77926,-130.59445 c 14.19368,45.88449 20.59853,69.71351 16.3768,107.07906 -3.41407,21.45115 7.27272,12.89808 7.97844,2.09958 -1.70205,8.94766 -2.92824,20.85142 5.55865,19.53892 -0.59058,8.94177 10.4764,3.34496 10.57653,-2.49622 3.08251,2.49388 7.62469,6.66486 9.13631,-9.53513 5.16776,6.12618 8.36233,7.76383 10.00161,-15.90593 4.52888,-91.40762 -1.62049,-117.26407 -54.58932,-168.80698 l 1.90816,-119.45534 c -0.65135,-12.38515 -30.65417,-8.26216 -32.47776,2.72328 -37.99445,-12.1728 -79.30347,-9.11267 -109.4421,0.31803 -0.22424,-10.87055 -32.45832,-11.78389 -32.88023,6.6168 0.0922,41.0799 0.20211,64.93806 0.30568,106.01794 z"
       id="path216"
       inkscape:connector-curvature="0"
       sodipodi:nodetypes="cccccccccccccccccccccccccccccccc" />
  </g>
  <g
     inkscape:groupmode="layer"
     id="layer1"
     inkscape:label="Overlay"
     style="display:inline"
     transform="translate(0,-328.81888)">
    <path
       style="fill:none;stroke:#c0c0c0;stroke-width:0.37795275;stroke-linecap:butt;stroke-linejoin:miter;stroke-miterlimit:4;stroke-dasharray:none;stroke-opacity:1"
       d="m 682.54153,580.36845 c -12.53001,27.81693 13.29178,57.267 58.19764,55.22838 28.07319,-1.27445 72.69842,-29.32436 45.72673,-64.13619 -29.30141,-37.81875 -91.39437,-18.90912 -103.92437,8.90781 z"
       id="path218"
       inkscape:connector-curvature="0"
       sodipodi:nodetypes="zssz" />
    <path
       style="fill:none;stroke:#c0c0c0;stroke-width:0.37795275;stroke-linecap:butt;stroke-linejoin:miter;stroke-miterlimit:4;stroke-dasharray:none;stroke-opacity:1"
       d="m 591.24439,843.69419 -1.10241,-13.6474"
       id="path258"
       inkscape:connector-curvature="0" />
    <path
       style="fill:none;stroke:#c0c0c0;stroke-width:0.37795275;stroke-linecap:butt;stroke-linejoin:miter;stroke-miterlimit:4;stroke-dasharray:none;stroke-opacity:1"
       d="m 599.92164,848.05984 -1.84061,-17.06979"
       id="path260"
       inkscape:connector-curvature="0"
       sodipodi:nodetypes="cc" />
    <path
       style="fill:none;stroke:#c0c0c0;stroke-width:0.37795275;stroke-linecap:butt;stroke-linejoin:miter;stroke-miterlimit:4;stroke-dasharray:none;stroke-opacity:1"
       d="m 610.18481,847.40822 c -2.98045,-0.18113 -3.01111,-11.33941 -3.75535,-18.65257"
       id="path262"
       inkscape:connector-curvature="0"
       sodipodi:nodetypes="cc" />
    <path
       style="fill:none;stroke:#c0c0c0;stroke-width:0.37795275;stroke-linecap:butt;stroke-linejoin:miter;stroke-miterlimit:4;stroke-dasharray:none;stroke-opacity:1"
       d="m 849.58175,841.7754 c 2.41103,-0.29007 2.29233,-11.41467 2.67235,-17.59293"
       id="path1069"
       inkscape:connector-curvature="0"
       sodipodi:nodetypes="cc" />
    <path
       style="fill:none;stroke:#c0c0c0;stroke-width:0.37795275;stroke-linecap:butt;stroke-linejoin:miter;stroke-miterlimit:4;stroke-dasharray:none;stroke-opacity:1"
       d="m 860.19687,839.69691 1.18772,-14.9948"
       id="path1071"
       inkscape:connector-curvature="0"
       sodipodi:nodetypes="cc" />
    <path
       style="fill:none;stroke:#c0c0c0;stroke-width:0.37795275;stroke-linecap:butt;stroke-linejoin:miter;stroke-miterlimit:4;stroke-dasharray:none;stroke-opacity:1"
       d="m 869.25315,830.04678 0.74233,-11.06052"
       id="path1073"
       inkscape:connector-curvature="0"
       sodipodi:nodetypes="cc" />
  </g>
</svg>
