<?xml version="1.0" encoding="UTF-8" standalone="no"?>
<!-- Created with Inkscape (http://www.inkscape.org/) -->

<svg
   xmlns:dc="http://purl.org/dc/elements/1.1/"
   xmlns:cc="http://creativecommons.org/ns#"
   xmlns:rdf="http://www.w3.org/1999/02/22-rdf-syntax-ns#"
   xmlns:svg="http://www.w3.org/2000/svg"
   xmlns="http://www.w3.org/2000/svg"
   xmlns:sodipodi="http://sodipodi.sourceforge.net/DTD/sodipodi-0.dtd"
   xmlns:inkscape="http://www.inkscape.org/namespaces/inkscape"
   width="1052.3622"
   height="744.09448"
   id="svg2"
   version="1.1"
   inkscape:version="0.48.3.1 r9886"
   sodipodi:docname="Simple.svg">
  <defs
     id="defs4" />
  <sodipodi:namedview
     id="base"
     pagecolor="#ffffff"
     bordercolor="#666666"
     borderopacity="1.0"
     inkscape:pageopacity="0.0"
     inkscape:pageshadow="2"
     inkscape:zoom="1.1662868"
     inkscape:cx="491.19265"
     inkscape:cy="197.70639"
     inkscape:document-units="mm"
     inkscape:current-layer="layer3"
     showgrid="false"
     units="mm"
     inkscape:window-width="1920"
     inkscape:window-height="1080"
     inkscape:window-x="1920"
     inkscape:window-y="0"
     inkscape:window-maximized="0" />
  <metadata
     id="metadata7">
    <rdf:RDF>
      <cc:Work
         rdf:about="">
        <dc:format>image/svg+xml</dc:format>
        <dc:type
           rdf:resource="http://purl.org/dc/dcmitype/StillImage" />
        <dc:title />
      </cc:Work>
    </rdf:RDF>
  </metadata>
  <g
     inkscape:groupmode="layer"
     id="layer3"
     inkscape:label="Meta"
     style="display:inline"
     transform="translate(0,-308.2677)">
    <path
       style="fill:#000000"
       d="m 35.433071,749.21258 11.904762,0 0,11.90476 -11.904762,0 z m 11.904762,0 11.904762,0 0,11.90476 -11.904762,0 z m 11.904762,0 11.904762,0 0,11.90476 -11.904762,0 z m 11.904762,0 11.904762,0 0,11.90476 -11.904762,0 z m 11.904762,0 11.904762,0 0,11.90476 -11.904762,0 z m 11.904762,0 11.904759,0 0,11.90476 -11.904759,0 z m 11.904759,0 11.90476,0 0,11.90476 -11.90476,0 z m 47.61905,0 11.90476,0 0,11.90476 -11.90476,0 z m 23.80952,0 11.90476,0 0,11.90476 -11.90476,0 z m 23.80953,0 11.90476,0 0,11.90476 -11.90476,0 z m 11.90476,0 11.90476,0 0,11.90476 -11.90476,0 z m 11.90476,0 11.90476,0 0,11.90476 -11.90476,0 z m 11.90476,0 11.90476,0 0,11.90476 -11.90476,0 z m 11.90476,0 11.90477,0 0,11.90476 -11.90477,0 z m 11.90477,0 11.90476,0 0,11.90476 -11.90476,0 z m 11.90476,0 11.90476,0 0,11.90476 -11.90476,0 z m -238.095239,11.90476 11.904762,0 0,11.90476 -11.904762,0 z m 71.428569,0 11.90476,0 0,11.90476 -11.90476,0 z m 23.80953,0 11.90476,0 0,11.90476 -11.90476,0 z m 11.90476,0 11.90476,0 0,11.90476 -11.90476,0 z m 11.90476,0 11.90476,0 0,11.90476 -11.90476,0 z m 23.80952,0 11.90476,0 0,11.90476 -11.90476,0 z m 23.80953,0 11.90476,0 0,11.90476 -11.90476,0 z m 71.42857,0 11.90476,0 0,11.90476 -11.90476,0 z m -238.095239,11.90476 11.904762,0 0,11.90476 -11.904762,0 z m 23.809524,0 11.904762,0 0,11.90476 -11.904762,0 z m 11.904762,0 11.904762,0 0,11.90476 -11.904762,0 z m 11.904762,0 11.904762,0 0,11.90476 -11.904762,0 z m 23.809521,0 11.90476,0 0,11.90476 -11.90476,0 z m 47.61905,0 11.90476,0 0,11.90476 -11.90476,0 z m 11.90476,0 11.90476,0 0,11.90476 -11.90476,0 z m 11.90476,0 11.90476,0 0,11.90476 -11.90476,0 z m 23.80953,0 11.90476,0 0,11.90476 -11.90476,0 z m 23.80952,0 11.90476,0 0,11.90476 -11.90476,0 z m 11.90476,0 11.90476,0 0,11.90476 -11.90476,0 z m 11.90476,0 11.90477,0 0,11.90476 -11.90477,0 z m 23.80953,0 11.90476,0 0,11.90476 -11.90476,0 z m -238.095239,11.90476 11.904762,0 0,11.90476 -11.904762,0 z m 23.809524,0 11.904762,0 0,11.90476 -11.904762,0 z m 11.904762,0 11.904762,0 0,11.90476 -11.904762,0 z m 11.904762,0 11.904762,0 0,11.90476 -11.904762,0 z m 23.809521,0 11.90476,0 0,11.90476 -11.90476,0 z m 23.80953,0 11.90476,0 0,11.90476 -11.90476,0 z m 11.90476,0 11.90476,0 0,11.90476 -11.90476,0 z m 23.80952,0 11.90476,0 0,11.90476 -11.90476,0 z m 11.90476,0 11.90476,0 0,11.90476 -11.90476,0 z m 23.80953,0 11.90476,0 0,11.90476 -11.90476,0 z m 23.80952,0 11.90476,0 0,11.90476 -11.90476,0 z m 11.90476,0 11.90476,0 0,11.90476 -11.90476,0 z m 11.90476,0 11.90477,0 0,11.90476 -11.90477,0 z m 23.80953,0 11.90476,0 0,11.90476 -11.90476,0 z m -238.095239,11.90476 11.904762,0 0,11.90477 -11.904762,0 z m 23.809524,0 11.904762,0 0,11.90477 -11.904762,0 z m 11.904762,0 11.904762,0 0,11.90477 -11.904762,0 z m 11.904762,0 11.904762,0 0,11.90477 -11.904762,0 z m 23.809521,0 11.90476,0 0,11.90477 -11.90476,0 z m 35.71429,0 11.90476,0 0,11.90477 -11.90476,0 z m 59.52381,0 11.90476,0 0,11.90477 -11.90476,0 z m 23.80952,0 11.90476,0 0,11.90477 -11.90476,0 z m 11.90476,0 11.90476,0 0,11.90477 -11.90476,0 z m 11.90476,0 11.90477,0 0,11.90477 -11.90477,0 z m 23.80953,0 11.90476,0 0,11.90477 -11.90476,0 z m -238.095239,11.90477 11.904762,0 0,11.90476 -11.904762,0 z m 71.428569,0 11.90476,0 0,11.90476 -11.90476,0 z m 23.80953,0 11.90476,0 0,11.90476 -11.90476,0 z m 35.71428,0 11.90476,0 0,11.90476 -11.90476,0 z m 11.90476,0 11.90476,0 0,11.90476 -11.90476,0 z m 23.80953,0 11.90476,0 0,11.90476 -11.90476,0 z m 71.42857,0 11.90476,0 0,11.90476 -11.90476,0 z m -238.095239,11.90476 11.904762,0 0,11.90476 -11.904762,0 z m 11.904762,0 11.904762,0 0,11.90476 -11.904762,0 z m 11.904762,0 11.904762,0 0,11.90476 -11.904762,0 z m 11.904762,0 11.904762,0 0,11.90476 -11.904762,0 z m 11.904762,0 11.904762,0 0,11.90476 -11.904762,0 z m 11.904762,0 11.904759,0 0,11.90476 -11.904759,0 z m 11.904759,0 11.90476,0 0,11.90476 -11.90476,0 z m 23.80953,0 11.90476,0 0,11.90476 -11.90476,0 z m 23.80952,0 11.90476,0 0,11.90476 -11.90476,0 z m 23.80952,0 11.90476,0 0,11.90476 -11.90476,0 z m 23.80953,0 11.90476,0 0,11.90476 -11.90476,0 z m 11.90476,0 11.90476,0 0,11.90476 -11.90476,0 z m 11.90476,0 11.90476,0 0,11.90476 -11.90476,0 z m 11.90476,0 11.90476,0 0,11.90476 -11.90476,0 z m 11.90476,0 11.90477,0 0,11.90476 -11.90477,0 z m 11.90477,0 11.90476,0 0,11.90476 -11.90476,0 z m 11.90476,0 11.90476,0 0,11.90476 -11.90476,0 z m -130.95238,11.90476 11.90476,0 0,11.90476 -11.90476,0 z m 35.71428,0 11.90476,0 0,11.90476 -11.90476,0 z m -142.857139,11.90476 11.904762,0 0,11.90476 -11.904762,0 z m 11.904762,0 11.904762,0 0,11.90476 -11.904762,0 z m 11.904762,0 11.904762,0 0,11.90476 -11.904762,0 z m 11.904762,0 11.904762,0 0,11.90476 -11.904762,0 z m 11.904762,0 11.904762,0 0,11.90476 -11.904762,0 z m 23.809521,0 11.90476,0 0,11.90476 -11.90476,0 z m 11.90476,0 11.90477,0 0,11.90476 -11.90477,0 z m 11.90477,0 11.90476,0 0,11.90476 -11.90476,0 z m 35.71428,0 11.90476,0 0,11.90476 -11.90476,0 z m 23.80952,0 11.90477,0 0,11.90476 -11.90477,0 z m 23.80953,0 11.90476,0 0,11.90476 -11.90476,0 z m 23.80952,0 11.90476,0 0,11.90476 -11.90476,0 z m 23.80953,0 11.90476,0 0,11.90476 -11.90476,0 z m -202.380955,11.90476 11.904762,0 0,11.90477 -11.904762,0 z m 11.904762,0 11.904762,0 0,11.90477 -11.904762,0 z m 11.904762,0 11.904762,0 0,11.90477 -11.904762,0 z m 47.619051,0 11.90476,0 0,11.90477 -11.90476,0 z m 11.90476,0 11.90476,0 0,11.90477 -11.90476,0 z m 11.90476,0 11.90476,0 0,11.90477 -11.90476,0 z m 71.42857,0 11.90476,0 0,11.90477 -11.90476,0 z m 23.80952,0 11.90477,0 0,11.90477 -11.90477,0 z m 23.80953,0 11.90476,0 0,11.90477 -11.90476,0 z m -226.190477,11.90477 11.904762,0 0,11.90476 -11.904762,0 z m 35.714286,0 11.904762,0 0,11.90476 -11.904762,0 z m 11.904762,0 11.904759,0 0,11.90476 -11.904759,0 z m 11.904759,0 11.90476,0 0,11.90476 -11.90476,0 z m 11.90476,0 11.90477,0 0,11.90476 -11.90477,0 z m 23.80953,0 11.90476,0 0,11.90476 -11.90476,0 z m 11.90476,0 11.90476,0 0,11.90476 -11.90476,0 z m 11.90476,0 11.90476,0 0,11.90476 -11.90476,0 z m 11.90476,0 11.90476,0 0,11.90476 -11.90476,0 z m 11.90476,0 11.90477,0 0,11.90476 -11.90477,0 z m 11.90477,0 11.90476,0 0,11.90476 -11.90476,0 z m 35.71428,0 11.90476,0 0,11.90476 -11.90476,0 z m 11.90476,0 11.90477,0 0,11.90476 -11.90477,0 z m 11.90477,0 11.90476,0 0,11.90476 -11.90476,0 z m -226.190479,11.90476 11.904762,0 0,11.90476 -11.904762,0 z m 11.904762,0 11.904762,0 0,11.90476 -11.904762,0 z m 11.904762,0 11.904762,0 0,11.90476 -11.904762,0 z m 59.523805,0 11.90477,0 0,11.90476 -11.90477,0 z m 11.90477,0 11.90476,0 0,11.90476 -11.90476,0 z m 11.90476,0 11.90476,0 0,11.90476 -11.90476,0 z m 11.90476,0 11.90476,0 0,11.90476 -11.90476,0 z m 23.80952,0 11.90476,0 0,11.90476 -11.90476,0 z m 35.71429,0 11.90476,0 0,11.90476 -11.90476,0 z m 11.90476,0 11.90476,0 0,11.90476 -11.90476,0 z m 11.90476,0 11.90476,0 0,11.90476 -11.90476,0 z m 11.90476,0 11.90477,0 0,11.90476 -11.90477,0 z m 23.80953,0 11.90476,0 0,11.90476 -11.90476,0 z m -238.095239,11.90476 11.904762,0 0,11.90476 -11.904762,0 z m 11.904762,0 11.904762,0 0,11.90476 -11.904762,0 z m 11.904762,0 11.904762,0 0,11.90476 -11.904762,0 z m 23.809524,0 11.904762,0 0,11.90476 -11.904762,0 z m 23.809521,0 11.90476,0 0,11.90476 -11.90476,0 z m 11.90476,0 11.90477,0 0,11.90476 -11.90477,0 z m 11.90477,0 11.90476,0 0,11.90476 -11.90476,0 z m 11.90476,0 11.90476,0 0,11.90476 -11.90476,0 z m 35.71428,0 11.90476,0 0,11.90476 -11.90476,0 z m 11.90476,0 11.90477,0 0,11.90476 -11.90477,0 z m 11.90477,0 11.90476,0 0,11.90476 -11.90476,0 z m 23.80952,0 11.90476,0 0,11.90476 -11.90476,0 z m -95.23809,11.90476 11.90476,0 0,11.90477 -11.90476,0 z m 11.90476,0 11.90476,0 0,11.90477 -11.90476,0 z m 23.80952,0 11.90476,0 0,11.90477 -11.90476,0 z m 35.71429,0 11.90476,0 0,11.90477 -11.90476,0 z m 11.90476,0 11.90476,0 0,11.90477 -11.90476,0 z m 11.90476,0 11.90476,0 0,11.90477 -11.90476,0 z m 11.90476,0 11.90476,0 0,11.90477 -11.90476,0 z m 35.71429,0 11.90476,0 0,11.90477 -11.90476,0 z m -238.095239,11.90477 11.904762,0 0,11.90476 -11.904762,0 z m 11.904762,0 11.904762,0 0,11.90476 -11.904762,0 z m 11.904762,0 11.904762,0 0,11.90476 -11.904762,0 z m 11.904762,0 11.904762,0 0,11.90476 -11.904762,0 z m 11.904762,0 11.904762,0 0,11.90476 -11.904762,0 z m 11.904762,0 11.904759,0 0,11.90476 -11.904759,0 z m 11.904759,0 11.90476,0 0,11.90476 -11.90476,0 z m 23.80953,0 11.90476,0 0,11.90476 -11.90476,0 z m 35.71428,0 11.90476,0 0,11.90476 -11.90476,0 z m 11.90476,0 11.90476,0 0,11.90476 -11.90476,0 z m 23.80953,0 11.90476,0 0,11.90476 -11.90476,0 z m 47.61904,0 11.90477,0 0,11.90476 -11.90477,0 z m 11.90477,0 11.90476,0 0,11.90476 -11.90476,0 z m -226.190479,11.90476 11.904762,0 0,11.90476 -11.904762,0 z m 71.428569,0 11.90476,0 0,11.90476 -11.90476,0 z m 35.71429,0 11.90476,0 0,11.90476 -11.90476,0 z m 11.90476,0 11.90476,0 0,11.90476 -11.90476,0 z m 11.90476,0 11.90476,0 0,11.90476 -11.90476,0 z m 11.90476,0 11.90476,0 0,11.90476 -11.90476,0 z m 11.90476,0 11.90477,0 0,11.90476 -11.90477,0 z m 35.71429,0 11.90476,0 0,11.90476 -11.90476,0 z m 11.90476,0 11.90476,0 0,11.90476 -11.90476,0 z m 11.90476,0 11.90477,0 0,11.90476 -11.90477,0 z m 11.90477,0 11.90476,0 0,11.90476 -11.90476,0 z m 11.90476,0 11.90476,0 0,11.90476 -11.90476,0 z m -238.095239,11.90476 11.904762,0 0,11.90476 -11.904762,0 z m 23.809524,0 11.904762,0 0,11.90476 -11.904762,0 z m 11.904762,0 11.904762,0 0,11.90476 -11.904762,0 z m 11.904762,0 11.904762,0 0,11.90476 -11.904762,0 z m 23.809521,0 11.90476,0 0,11.90476 -11.90476,0 z m 23.80953,0 11.90476,0 0,11.90476 -11.90476,0 z m 23.80952,0 11.90476,0 0,11.90476 -11.90476,0 z m 11.90476,0 11.90476,0 0,11.90476 -11.90476,0 z m 23.80952,0 11.90477,0 0,11.90476 -11.90477,0 z m 35.71429,0 11.90476,0 0,11.90476 -11.90476,0 z m 35.71429,0 11.90476,0 0,11.90476 -11.90476,0 z m 11.90476,0 11.90476,0 0,11.90476 -11.90476,0 z m -238.095239,11.90476 11.904762,0 0,11.90476 -11.904762,0 z m 23.809524,0 11.904762,0 0,11.90476 -11.904762,0 z m 11.904762,0 11.904762,0 0,11.90476 -11.904762,0 z m 11.904762,0 11.904762,0 0,11.90476 -11.904762,0 z m 23.809521,0 11.90476,0 0,11.90476 -11.90476,0 z m 23.80953,0 11.90476,0 0,11.90476 -11.90476,0 z m 83.33333,0 11.90476,0 0,11.90476 -11.90476,0 z m 11.90476,0 11.90476,0 0,11.90476 -11.90476,0 z m 11.90476,0 11.90476,0 0,11.90476 -11.90476,0 z m -202.380949,11.90476 11.904762,0 0,11.90477 -11.904762,0 z m 23.809524,0 11.904762,0 0,11.90477 -11.904762,0 z m 11.904762,0 11.904762,0 0,11.90477 -11.904762,0 z m 11.904762,0 11.904762,0 0,11.90477 -11.904762,0 z m 23.809521,0 11.90476,0 0,11.90477 -11.90476,0 z m 23.80953,0 11.90476,0 0,11.90477 -11.90476,0 z m 35.71428,0 11.90476,0 0,11.90477 -11.90476,0 z m 11.90476,0 11.90476,0 0,11.90477 -11.90476,0 z m 11.90476,0 11.90477,0 0,11.90477 -11.90477,0 z m 11.90477,0 11.90476,0 0,11.90477 -11.90476,0 z m 47.61904,0 11.90477,0 0,11.90477 -11.90477,0 z m -214.285709,11.90477 11.904762,0 0,11.90476 -11.904762,0 z m 71.428569,0 11.90476,0 0,11.90476 -11.90476,0 z m 23.80953,0 11.90476,0 0,11.90476 -11.90476,0 z m 11.90476,0 11.90476,0 0,11.90476 -11.90476,0 z m 11.90476,0 11.90476,0 0,11.90476 -11.90476,0 z m 11.90476,0 11.90476,0 0,11.90476 -11.90476,0 z m 11.90476,0 11.90476,0 0,11.90476 -11.90476,0 z m 11.90476,0 11.90477,0 0,11.90476 -11.90477,0 z m 35.71429,0 11.90476,0 0,11.90476 -11.90476,0 z m 11.90476,0 11.90476,0 0,11.90476 -11.90476,0 z m 11.90476,0 11.90477,0 0,11.90476 -11.90477,0 z m -214.285709,11.90476 11.904762,0 0,11.90476 -11.904762,0 z m 11.904762,0 11.904762,0 0,11.90476 -11.904762,0 z m 11.904762,0 11.904762,0 0,11.90476 -11.904762,0 z m 11.904762,0 11.904762,0 0,11.90476 -11.904762,0 z m 11.904762,0 11.904762,0 0,11.90476 -11.904762,0 z m 11.904762,0 11.904759,0 0,11.90476 -11.904759,0 z m 11.904759,0 11.90476,0 0,11.90476 -11.90476,0 z m 23.80953,0 11.90476,0 0,11.90476 -11.90476,0 z m 11.90476,0 11.90476,0 0,11.90476 -11.90476,0 z m 11.90476,0 11.90476,0 0,11.90476 -11.90476,0 z m 47.61905,0 11.90476,0 0,11.90476 -11.90476,0 z m 23.80952,0 11.90476,0 0,11.90476 -11.90476,0 z m 35.71429,0 11.90476,0 0,11.90476 -11.90476,0 z"
       id="path7"
       inkscape:connector-curvature="0" />
    <text
       xml:space="preserve"
       style="font-size:12px;line-height:125%;letter-spacing:0px;word-spacing:0px;color:#000000;fill:#000000;fill-opacity:1;fill-rule:nonzero;stroke:none;stroke-width:1px;marker:none;visibility:visible;display:inline;overflow:visible;enable-background:accumulate"
       x="34.782681"
       y="1014.433"
       id="text2990"
       sodipodi:linespacing="125%"><tspan
         sodipodi:role="line"
         id="tspan2992"
         x="34.782681"
         y="1014.433">balloons:Simple</tspan></text>
  </g>
  <g
     inkscape:label="Mask"
     inkscape:groupmode="layer"
     id="Mask"
     style="display:inline"
     transform="translate(0,-308.2677)">
    <path
       style="display:inline;color:#000000;fill:#ffffff;fill-opacity:1;fill-rule:nonzero;stroke:#808080;stroke-width:0.70866143999999998;stroke-miterlimit:4;stroke-opacity:1;stroke-dasharray:none;marker:none;visibility:visible;overflow:visible;enable-background:accumulate"
       d="m 719.87826,469.67333 c -59.50111,0 -107.71875,56.73287 -107.71875,126.71875 0,34.99294 12.62673,71.47568 31.53125,101.40625 9.23053,14.61424 42.29368,49.37259 55.3125,63.3125 9.43598,10.10359 16.51543,16.19773 19.71875,18.8125 l -9.75,17.34375 8.8125,-2.1875 9,4.84375 5.6875,-3.40625 -9.9375,-16.5 c 3.54925,-2.79025 11.73965,-9.58475 21.4375,-19.96875 13.01881,-13.93991 42.86322,-47.63576 52.09375,-62.25 18.90452,-29.93057 31.5625,-66.41331 31.5625,-101.40625 0,-69.98588 -48.2489,-126.71875 -107.75,-126.71875 z"
       id="path2991-3"
       inkscape:connector-curvature="0" />
  </g>
  <g
     inkscape:groupmode="layer"
     id="layer1"
     inkscape:label="Overlay"
     style="display:inline"
     transform="translate(0,-308.2677)" />
</svg>
