<?xml version="1.0" encoding="UTF-8" standalone="no"?>
<!-- Created with Inkscape (http://www.inkscape.org/) -->

<svg
   xmlns:dc="http://purl.org/dc/elements/1.1/"
   xmlns:cc="http://creativecommons.org/ns#"
   xmlns:rdf="http://www.w3.org/1999/02/22-rdf-syntax-ns#"
   xmlns:svg="http://www.w3.org/2000/svg"
   xmlns="http://www.w3.org/2000/svg"
   xmlns:sodipodi="http://sodipodi.sourceforge.net/DTD/sodipodi-0.dtd"
   xmlns:inkscape="http://www.inkscape.org/namespaces/inkscape"
   width="297mm"
   height="210mm"
   id="svg2"
   version="1.1"
   inkscape:version="0.92.3 (2405546, 2018-03-11)"
   sodipodi:docname="Simple.svg"
   viewBox="0 0 1052.3622 744.09448">
  <defs
     id="defs4" />
  <sodipodi:namedview
     id="base"
     pagecolor="#ffffff"
     bordercolor="#666666"
     borderopacity="1.0"
     inkscape:pageopacity="0.0"
     inkscape:pageshadow="2"
     inkscape:zoom="1.1662868"
     inkscape:cx="491.19265"
     inkscape:cy="197.70639"
     inkscape:document-units="mm"
     inkscape:current-layer="layer3"
     showgrid="false"
     units="mm"
     inkscape:window-width="1920"
     inkscape:window-height="1080"
     inkscape:window-x="1920"
     inkscape:window-y="0"
     inkscape:window-maximized="0" />
  <metadata
     id="metadata7">
    <rdf:RDF>
      <cc:Work
         rdf:about="">
        <dc:format>image/svg+xml</dc:format>
        <dc:type
           rdf:resource="http://purl.org/dc/dcmitype/StillImage" />
        <dc:title></dc:title>
      </cc:Work>
    </rdf:RDF>
  </metadata>
  <g
     inkscape:groupmode="layer"
     id="layer3"
     inkscape:label="Meta-manual"
     style="display:inline"
     transform="translate(0,-308.2677)">
    <path
       style="fill:#000000"
       d="m 35.433071,749.21258 h 11.904762 v 11.90476 H 35.433071 Z m 11.904762,0 h 11.904762 v 11.90476 H 47.337833 Z m 11.904762,0 h 11.904762 v 11.90476 H 59.242595 Z m 11.904762,0 h 11.904762 v 11.90476 H 71.147357 Z m 11.904762,0 h 11.904762 v 11.90476 H 83.052119 Z m 11.904762,0 h 11.904759 v 11.90476 H 94.956881 Z m 11.904759,0 h 11.90476 v 11.90476 h -11.90476 z m 47.61905,0 h 11.90476 v 11.90476 h -11.90476 z m 23.80952,0 h 11.90476 v 11.90476 h -11.90476 z m 23.80953,0 h 11.90476 v 11.90476 h -11.90476 z m 11.90476,0 h 11.90476 v 11.90476 H 214.0045 Z m 11.90476,0 h 11.90476 v 11.90476 h -11.90476 z m 11.90476,0 h 11.90476 v 11.90476 h -11.90476 z m 11.90476,0 h 11.90477 v 11.90476 h -11.90477 z m 11.90477,0 h 11.90476 v 11.90476 h -11.90476 z m 11.90476,0 h 11.90476 v 11.90476 H 273.52831 Z M 35.433071,761.11734 H 47.337833 V 773.0221 H 35.433071 Z m 71.428569,0 h 11.90476 v 11.90476 h -11.90476 z m 23.80953,0 h 11.90476 v 11.90476 h -11.90476 z m 11.90476,0 h 11.90476 v 11.90476 h -11.90476 z m 11.90476,0 h 11.90476 v 11.90476 h -11.90476 z m 23.80952,0 h 11.90476 v 11.90476 h -11.90476 z m 23.80953,0 h 11.90476 v 11.90476 h -11.90476 z m 71.42857,0 h 11.90476 V 773.0221 H 273.52831 Z M 35.433071,773.0221 h 11.904762 v 11.90476 H 35.433071 Z m 23.809524,0 h 11.904762 v 11.90476 H 59.242595 Z m 11.904762,0 h 11.904762 v 11.90476 H 71.147357 Z m 11.904762,0 h 11.904762 v 11.90476 H 83.052119 Z m 23.809521,0 h 11.90476 v 11.90476 h -11.90476 z m 47.61905,0 h 11.90476 v 11.90476 h -11.90476 z m 11.90476,0 h 11.90476 v 11.90476 h -11.90476 z m 11.90476,0 h 11.90476 v 11.90476 h -11.90476 z m 23.80953,0 h 11.90476 v 11.90476 h -11.90476 z m 23.80952,0 h 11.90476 v 11.90476 h -11.90476 z m 11.90476,0 h 11.90476 v 11.90476 h -11.90476 z m 11.90476,0 h 11.90477 v 11.90476 h -11.90477 z m 23.80953,0 h 11.90476 v 11.90476 H 273.52831 Z M 35.433071,784.92686 h 11.904762 v 11.90476 H 35.433071 Z m 23.809524,0 h 11.904762 v 11.90476 H 59.242595 Z m 11.904762,0 h 11.904762 v 11.90476 H 71.147357 Z m 11.904762,0 h 11.904762 v 11.90476 H 83.052119 Z m 23.809521,0 h 11.90476 v 11.90476 h -11.90476 z m 23.80953,0 h 11.90476 v 11.90476 h -11.90476 z m 11.90476,0 h 11.90476 v 11.90476 h -11.90476 z m 23.80952,0 h 11.90476 v 11.90476 h -11.90476 z m 11.90476,0 h 11.90476 v 11.90476 h -11.90476 z m 23.80953,0 h 11.90476 v 11.90476 h -11.90476 z m 23.80952,0 h 11.90476 v 11.90476 h -11.90476 z m 11.90476,0 h 11.90476 v 11.90476 h -11.90476 z m 11.90476,0 h 11.90477 v 11.90476 h -11.90477 z m 23.80953,0 h 11.90476 v 11.90476 H 273.52831 Z M 35.433071,796.83162 h 11.904762 v 11.90477 H 35.433071 Z m 23.809524,0 h 11.904762 v 11.90477 H 59.242595 Z m 11.904762,0 h 11.904762 v 11.90477 H 71.147357 Z m 11.904762,0 h 11.904762 v 11.90477 H 83.052119 Z m 23.809521,0 h 11.90476 v 11.90477 h -11.90476 z m 35.71429,0 h 11.90476 v 11.90477 h -11.90476 z m 59.52381,0 h 11.90476 v 11.90477 h -11.90476 z m 23.80952,0 h 11.90476 v 11.90477 h -11.90476 z m 11.90476,0 h 11.90476 v 11.90477 h -11.90476 z m 11.90476,0 h 11.90477 v 11.90477 h -11.90477 z m 23.80953,0 h 11.90476 v 11.90477 H 273.52831 Z M 35.433071,808.73639 h 11.904762 v 11.90476 H 35.433071 Z m 71.428569,0 h 11.90476 v 11.90476 h -11.90476 z m 23.80953,0 h 11.90476 v 11.90476 h -11.90476 z m 35.71428,0 h 11.90476 v 11.90476 h -11.90476 z m 11.90476,0 h 11.90476 v 11.90476 h -11.90476 z m 23.80953,0 h 11.90476 v 11.90476 h -11.90476 z m 71.42857,0 h 11.90476 v 11.90476 H 273.52831 Z M 35.433071,820.64115 h 11.904762 v 11.90476 H 35.433071 Z m 11.904762,0 h 11.904762 v 11.90476 H 47.337833 Z m 11.904762,0 h 11.904762 v 11.90476 H 59.242595 Z m 11.904762,0 h 11.904762 v 11.90476 H 71.147357 Z m 11.904762,0 h 11.904762 v 11.90476 H 83.052119 Z m 11.904762,0 h 11.904759 v 11.90476 H 94.956881 Z m 11.904759,0 h 11.90476 v 11.90476 h -11.90476 z m 23.80953,0 h 11.90476 v 11.90476 h -11.90476 z m 23.80952,0 h 11.90476 v 11.90476 h -11.90476 z m 23.80952,0 h 11.90476 v 11.90476 h -11.90476 z m 23.80953,0 h 11.90476 v 11.90476 h -11.90476 z m 11.90476,0 h 11.90476 v 11.90476 H 214.0045 Z m 11.90476,0 h 11.90476 v 11.90476 h -11.90476 z m 11.90476,0 h 11.90476 v 11.90476 h -11.90476 z m 11.90476,0 h 11.90477 v 11.90476 h -11.90477 z m 11.90477,0 h 11.90476 v 11.90476 h -11.90476 z m 11.90476,0 h 11.90476 v 11.90476 h -11.90476 z m -130.95238,11.90476 h 11.90476 v 11.90476 h -11.90476 z m 35.71428,0 h 11.90476 v 11.90476 H 178.29021 Z M 35.433071,844.45067 h 11.904762 v 11.90476 H 35.433071 Z m 11.904762,0 h 11.904762 v 11.90476 H 47.337833 Z m 11.904762,0 h 11.904762 v 11.90476 H 59.242595 Z m 11.904762,0 h 11.904762 v 11.90476 H 71.147357 Z m 11.904762,0 h 11.904762 v 11.90476 H 83.052119 Z m 23.809521,0 h 11.90476 v 11.90476 h -11.90476 z m 11.90476,0 h 11.90477 v 11.90476 H 118.7664 Z m 11.90477,0 h 11.90476 v 11.90476 h -11.90476 z m 35.71428,0 h 11.90476 v 11.90476 h -11.90476 z m 23.80952,0 h 11.90477 v 11.90476 h -11.90477 z m 23.80953,0 h 11.90476 v 11.90476 H 214.0045 Z m 23.80952,0 h 11.90476 v 11.90476 h -11.90476 z m 23.80953,0 h 11.90476 v 11.90476 H 261.62355 Z M 59.242595,856.35543 H 71.147357 V 868.2602 H 59.242595 Z m 11.904762,0 H 83.052119 V 868.2602 H 71.147357 Z m 11.904762,0 H 94.956881 V 868.2602 H 83.052119 Z m 47.619051,0 h 11.90476 v 11.90477 h -11.90476 z m 11.90476,0 h 11.90476 v 11.90477 h -11.90476 z m 11.90476,0 h 11.90476 v 11.90477 h -11.90476 z m 71.42857,0 h 11.90476 v 11.90477 h -11.90476 z m 23.80952,0 h 11.90477 v 11.90477 h -11.90477 z m 23.80953,0 h 11.90476 V 868.2602 H 273.52831 Z M 47.337833,868.2602 h 11.904762 v 11.90476 H 47.337833 Z m 35.714286,0 h 11.904762 v 11.90476 H 83.052119 Z m 11.904762,0 h 11.904759 v 11.90476 H 94.956881 Z m 11.904759,0 h 11.90476 v 11.90476 h -11.90476 z m 11.90476,0 h 11.90477 v 11.90476 H 118.7664 Z m 23.80953,0 h 11.90476 v 11.90476 h -11.90476 z m 11.90476,0 h 11.90476 v 11.90476 h -11.90476 z m 11.90476,0 h 11.90476 v 11.90476 h -11.90476 z m 11.90476,0 h 11.90476 v 11.90476 h -11.90476 z m 11.90476,0 h 11.90477 v 11.90476 h -11.90477 z m 11.90477,0 h 11.90476 v 11.90476 h -11.90476 z m 35.71428,0 h 11.90476 v 11.90476 h -11.90476 z m 11.90476,0 h 11.90477 v 11.90476 h -11.90477 z m 11.90477,0 h 11.90476 v 11.90476 H 261.62355 Z M 35.433071,880.16496 h 11.904762 v 11.90476 H 35.433071 Z m 11.904762,0 h 11.904762 v 11.90476 H 47.337833 Z m 11.904762,0 h 11.904762 v 11.90476 H 59.242595 Z m 59.523805,0 h 11.90477 v 11.90476 H 118.7664 Z m 11.90477,0 h 11.90476 v 11.90476 h -11.90476 z m 11.90476,0 h 11.90476 v 11.90476 h -11.90476 z m 11.90476,0 h 11.90476 v 11.90476 h -11.90476 z m 23.80952,0 h 11.90476 v 11.90476 h -11.90476 z m 35.71429,0 h 11.90476 v 11.90476 H 214.0045 Z m 11.90476,0 h 11.90476 v 11.90476 h -11.90476 z m 11.90476,0 h 11.90476 v 11.90476 h -11.90476 z m 11.90476,0 h 11.90477 v 11.90476 h -11.90477 z m 23.80953,0 h 11.90476 v 11.90476 H 273.52831 Z M 35.433071,892.06972 h 11.904762 v 11.90476 H 35.433071 Z m 11.904762,0 h 11.904762 v 11.90476 H 47.337833 Z m 11.904762,0 h 11.904762 v 11.90476 H 59.242595 Z m 23.809524,0 h 11.904762 v 11.90476 H 83.052119 Z m 23.809521,0 h 11.90476 v 11.90476 h -11.90476 z m 11.90476,0 h 11.90477 v 11.90476 H 118.7664 Z m 11.90477,0 h 11.90476 v 11.90476 h -11.90476 z m 11.90476,0 h 11.90476 v 11.90476 h -11.90476 z m 35.71428,0 h 11.90476 v 11.90476 h -11.90476 z m 11.90476,0 h 11.90477 v 11.90476 h -11.90477 z m 11.90477,0 h 11.90476 v 11.90476 h -11.90476 z m 23.80952,0 h 11.90476 v 11.90476 h -11.90476 z m -95.23809,11.90476 h 11.90476 v 11.90477 h -11.90476 z m 11.90476,0 h 11.90476 v 11.90477 h -11.90476 z m 23.80952,0 h 11.90476 v 11.90477 h -11.90476 z m 35.71429,0 h 11.90476 v 11.90477 h -11.90476 z m 11.90476,0 h 11.90476 v 11.90477 H 214.0045 Z m 11.90476,0 h 11.90476 v 11.90477 h -11.90476 z m 11.90476,0 h 11.90476 v 11.90477 h -11.90476 z m 35.71429,0 h 11.90476 v 11.90477 H 273.52831 Z M 35.433071,915.87925 h 11.904762 v 11.90476 H 35.433071 Z m 11.904762,0 h 11.904762 v 11.90476 H 47.337833 Z m 11.904762,0 h 11.904762 v 11.90476 H 59.242595 Z m 11.904762,0 h 11.904762 v 11.90476 H 71.147357 Z m 11.904762,0 h 11.904762 v 11.90476 H 83.052119 Z m 11.904762,0 h 11.904759 v 11.90476 H 94.956881 Z m 11.904759,0 h 11.90476 v 11.90476 h -11.90476 z m 23.80953,0 h 11.90476 v 11.90476 h -11.90476 z m 35.71428,0 h 11.90476 v 11.90476 h -11.90476 z m 11.90476,0 h 11.90476 v 11.90476 h -11.90476 z m 23.80953,0 h 11.90476 v 11.90476 h -11.90476 z m 47.61904,0 h 11.90477 v 11.90476 h -11.90477 z m 11.90477,0 h 11.90476 v 11.90476 H 261.62355 Z M 35.433071,927.78401 h 11.904762 v 11.90476 H 35.433071 Z m 71.428569,0 h 11.90476 v 11.90476 h -11.90476 z m 35.71429,0 h 11.90476 v 11.90476 h -11.90476 z m 11.90476,0 h 11.90476 v 11.90476 h -11.90476 z m 11.90476,0 h 11.90476 v 11.90476 h -11.90476 z m 11.90476,0 h 11.90476 v 11.90476 h -11.90476 z m 11.90476,0 h 11.90477 v 11.90476 h -11.90477 z m 35.71429,0 h 11.90476 v 11.90476 h -11.90476 z m 11.90476,0 h 11.90476 v 11.90476 h -11.90476 z m 11.90476,0 h 11.90477 v 11.90476 h -11.90477 z m 11.90477,0 h 11.90476 v 11.90476 h -11.90476 z m 11.90476,0 h 11.90476 v 11.90476 H 273.52831 Z M 35.433071,939.68877 h 11.904762 v 11.90476 H 35.433071 Z m 23.809524,0 h 11.904762 v 11.90476 H 59.242595 Z m 11.904762,0 h 11.904762 v 11.90476 H 71.147357 Z m 11.904762,0 h 11.904762 v 11.90476 H 83.052119 Z m 23.809521,0 h 11.90476 v 11.90476 h -11.90476 z m 23.80953,0 h 11.90476 v 11.90476 h -11.90476 z m 23.80952,0 h 11.90476 v 11.90476 h -11.90476 z m 11.90476,0 h 11.90476 v 11.90476 h -11.90476 z m 23.80952,0 h 11.90477 v 11.90476 h -11.90477 z m 35.71429,0 h 11.90476 v 11.90476 h -11.90476 z m 35.71429,0 h 11.90476 v 11.90476 h -11.90476 z m 11.90476,0 h 11.90476 v 11.90476 H 273.52831 Z M 35.433071,951.59353 h 11.904762 v 11.90476 H 35.433071 Z m 23.809524,0 h 11.904762 v 11.90476 H 59.242595 Z m 11.904762,0 h 11.904762 v 11.90476 H 71.147357 Z m 11.904762,0 h 11.904762 v 11.90476 H 83.052119 Z m 23.809521,0 h 11.90476 v 11.90476 h -11.90476 z m 23.80953,0 h 11.90476 v 11.90476 h -11.90476 z m 83.33333,0 h 11.90476 v 11.90476 H 214.0045 Z m 11.90476,0 h 11.90476 v 11.90476 h -11.90476 z m 11.90476,0 h 11.90476 v 11.90476 H 237.81402 Z M 35.433071,963.49829 h 11.904762 v 11.90477 H 35.433071 Z m 23.809524,0 h 11.904762 v 11.90477 H 59.242595 Z m 11.904762,0 h 11.904762 v 11.90477 H 71.147357 Z m 11.904762,0 h 11.904762 v 11.90477 H 83.052119 Z m 23.809521,0 h 11.90476 v 11.90477 h -11.90476 z m 23.80953,0 h 11.90476 v 11.90477 h -11.90476 z m 35.71428,0 h 11.90476 v 11.90477 h -11.90476 z m 11.90476,0 h 11.90476 v 11.90477 h -11.90476 z m 11.90476,0 h 11.90477 v 11.90477 h -11.90477 z m 11.90477,0 h 11.90476 v 11.90477 h -11.90476 z m 47.61904,0 h 11.90477 v 11.90477 H 249.71878 Z M 35.433071,975.40306 h 11.904762 v 11.90476 H 35.433071 Z m 71.428569,0 h 11.90476 v 11.90476 h -11.90476 z m 23.80953,0 h 11.90476 v 11.90476 h -11.90476 z m 11.90476,0 h 11.90476 v 11.90476 h -11.90476 z m 11.90476,0 h 11.90476 v 11.90476 h -11.90476 z m 11.90476,0 h 11.90476 v 11.90476 h -11.90476 z m 11.90476,0 h 11.90476 v 11.90476 h -11.90476 z m 11.90476,0 h 11.90477 v 11.90476 h -11.90477 z m 35.71429,0 h 11.90476 v 11.90476 h -11.90476 z m 11.90476,0 h 11.90476 v 11.90476 h -11.90476 z m 11.90476,0 h 11.90477 v 11.90476 H 249.71878 Z M 35.433071,987.30782 h 11.904762 v 11.90476 H 35.433071 Z m 11.904762,0 h 11.904762 v 11.90476 H 47.337833 Z m 11.904762,0 h 11.904762 v 11.90476 H 59.242595 Z m 11.904762,0 h 11.904762 v 11.90476 H 71.147357 Z m 11.904762,0 h 11.904762 v 11.90476 H 83.052119 Z m 11.904762,0 h 11.904759 v 11.90476 H 94.956881 Z m 11.904759,0 h 11.90476 v 11.90476 h -11.90476 z m 23.80953,0 h 11.90476 v 11.90476 h -11.90476 z m 11.90476,0 h 11.90476 v 11.90476 h -11.90476 z m 11.90476,0 h 11.90476 v 11.90476 h -11.90476 z m 47.61905,0 h 11.90476 v 11.90476 h -11.90476 z m 23.80952,0 h 11.90476 v 11.90476 h -11.90476 z m 35.71429,0 h 11.90476 v 11.90476 h -11.90476 z"
       id="path7"
       inkscape:connector-curvature="0" />
  </g>
  <g
     inkscape:label="Mask"
     inkscape:groupmode="layer"
     id="Mask"
     style="display:inline"
     transform="translate(0,-308.2677)">
    <path
       style="color:#000000;display:inline;overflow:visible;visibility:visible;fill:#ffffff;fill-opacity:1;fill-rule:nonzero;stroke:#808080;stroke-width:0.70866144;stroke-miterlimit:4;stroke-dasharray:none;stroke-opacity:1;marker:none;enable-background:accumulate"
       d="m 719.87826,469.67333 c -59.50111,0 -107.71875,56.73287 -107.71875,126.71875 0,34.99294 12.62673,71.47568 31.53125,101.40625 9.23053,14.61424 42.29368,49.37259 55.3125,63.3125 9.43598,10.10359 16.51543,16.19773 19.71875,18.8125 l -9.75,17.34375 8.8125,-2.1875 9,4.84375 5.6875,-3.40625 -9.9375,-16.5 c 3.54925,-2.79025 11.73965,-9.58475 21.4375,-19.96875 13.01881,-13.93991 42.86322,-47.63576 52.09375,-62.25 18.90452,-29.93057 31.5625,-66.41331 31.5625,-101.40625 0,-69.98588 -48.2489,-126.71875 -107.75,-126.71875 z"
       id="path2991-3"
       inkscape:connector-curvature="0" />
  </g>
  <g
     inkscape:groupmode="layer"
     id="layer1"
     inkscape:label="Overlay"
     style="display:inline"
     transform="translate(0,-308.2677)" />
</svg>
