<?xml version="1.0" encoding="UTF-8" standalone="no"?>
<!-- Created with Inkscape (http://www.inkscape.org/) -->

<svg
   xmlns:dc="http://purl.org/dc/elements/1.1/"
   xmlns:cc="http://creativecommons.org/ns#"
   xmlns:rdf="http://www.w3.org/1999/02/22-rdf-syntax-ns#"
   xmlns:svg="http://www.w3.org/2000/svg"
   xmlns="http://www.w3.org/2000/svg"
   xmlns:sodipodi="http://sodipodi.sourceforge.net/DTD/sodipodi-0.dtd"
   xmlns:inkscape="http://www.inkscape.org/namespaces/inkscape"
   width="297mm"
   height="210mm"
   id="svg2"
   version="1.1"
   inkscape:version="0.92.3 (2405546, 2018-03-11)"
   sodipodi:docname="PhotoUnicorn-undecorated.svg"
   inkscape:export-filename="/home/christian/SportsCar.svg.png"
   inkscape:export-xdpi="138.06"
   inkscape:export-ydpi="138.06">
  <defs
     id="defs4" />
  <sodipodi:namedview
     id="base"
     pagecolor="#ffffff"
     bordercolor="#666666"
     borderopacity="1.0"
     inkscape:pageopacity="0.0"
     inkscape:pageshadow="2"
     inkscape:zoom="1.4142136"
     inkscape:cx="746.86264"
     inkscape:cy="323.56855"
     inkscape:document-units="mm"
     inkscape:current-layer="Mask"
     showgrid="false"
     units="mm"
     inkscape:window-width="1920"
     inkscape:window-height="1080"
     inkscape:window-x="1920"
     inkscape:window-y="0"
     inkscape:window-maximized="0"
     inkscape:snap-global="false"
     inkscape:lockguides="false" />
  <metadata
     id="metadata7">
    <rdf:RDF>
      <cc:Work
         rdf:about="">
        <dc:format>image/svg+xml</dc:format>
        <dc:type
           rdf:resource="http://purl.org/dc/dcmitype/StillImage" />
        <dc:title />
      </cc:Work>
    </rdf:RDF>
  </metadata>
  <g
     inkscape:label="Mask"
     inkscape:groupmode="layer"
     id="Mask"
     style="display:inline;opacity:1"
     transform="translate(0,-328.81888)">
    <rect
       style="display:inline;opacity:1;fill:none;fill-opacity:1;stroke:#808080;stroke-width:0.779378;stroke-linecap:round;stroke-linejoin:round;stroke-miterlimit:4;stroke-dasharray:none;stroke-dashoffset:0;stroke-opacity:1"
       id="rect814"
       width="566.14978"
       x="401.84705"
       y="537.08258"
       heightx="549.12811"
       height="377.17337" />
  </g>
  <g
     inkscape:groupmode="layer"
     id="layer1"
     inkscape:label="Overlay"
     style="display:inline"
     transform="translate(0,-328.81888)">
    <path
       style="opacity:1;vector-effect:none;fill:none;fill-opacity:1;stroke:#c0c0c0;stroke-width:0.37795276;stroke-linecap:round;stroke-linejoin:round;stroke-miterlimit:4;stroke-dasharray:none;stroke-dashoffset:0;stroke-opacity:1"
       d="m 570.51505,634.07193 c 14.37944,-8.394 28.36498,-6.34945 28.07332,32.50595"
       id="path899"
       inkscape:connector-curvature="0"
       sodipodi:nodetypes="cc" />
    <path
       style="opacity:1;vector-effect:none;fill:none;fill-opacity:1;stroke:#c0c0c0;stroke-width:0.37795276;stroke-linecap:round;stroke-linejoin:round;stroke-miterlimit:4;stroke-dasharray:none;stroke-dashoffset:0;stroke-opacity:1"
       d="m 590.71639,633.28095 c 1.5917,-0.34968 3.15537,0.13125 4.86294,0.90465 11.64894,5.27612 23.56422,30.08716 21.88875,54.7196"
       id="path901"
       inkscape:connector-curvature="0"
       sodipodi:nodetypes="csc" />
    <path
       style="opacity:1;vector-effect:none;fill:none;fill-opacity:1;stroke:#c0c0c0;stroke-width:0.37795276;stroke-linecap:round;stroke-linejoin:round;stroke-miterlimit:4;stroke-dasharray:none;stroke-dashoffset:0;stroke-opacity:1"
       d="m 612.26425,656.28885 c 17.26749,5.78181 18.93162,22.2267 18.83006,51.66023"
       id="path903"
       inkscape:connector-curvature="0"
       sodipodi:nodetypes="cc" />
    <path
       style="opacity:1;vector-effect:none;fill:none;fill-opacity:1;stroke:#c0c0c0;stroke-width:0.37795276;stroke-linecap:round;stroke-linejoin:round;stroke-miterlimit:4;stroke-dasharray:none;stroke-dashoffset:0;stroke-opacity:1"
       d="m 626.21021,668.1375 c 7.00464,2.07846 6.21517,5.94621 11.45213,8.53614 11.7717,5.82167 10.55961,28.72504 11.49083,41.12573"
       id="path905"
       inkscape:connector-curvature="0"
       sodipodi:nodetypes="csc" />
    <path
       style="opacity:1;vector-effect:none;fill:none;fill-opacity:1;stroke:#c0c0c0;stroke-width:0.37795276;stroke-linecap:round;stroke-linejoin:round;stroke-miterlimit:4;stroke-dasharray:none;stroke-dashoffset:0;stroke-opacity:1"
       d="m 643.243,682.01 c 23.64059,17.4843 18.6194,43.88184 24.46155,68.29531 0.10448,4.99271 0.41107,8.54475 -1.64172,7.71607 -2.05278,-0.82869 -2.70032,-0.0906 -4.84305,-1.97006 -2.14274,-1.87945 -3.80791,-1.10494 -6.81313,-4.76098 -3.00521,-3.65603 -5.0808,0.071 -9.11151,-6.07433 -4.03071,-6.14531 -8.44588,-1.04101 -12.96954,-7.79815 -4.52367,-6.75714 -5.77619,-2.15635 -9.93237,-9.60404 -4.15619,-7.44769 -3.20675,-4.26828 -4.92515,-5.74599 -1.71839,-1.47771 -2.05365,-1.66957 -4.26846,-7.55189 -2.2148,-5.88232 -2.97898,-1.84541 -6.56686,-12.06661 -3.58787,-10.22119 -1.29923,3.19394 -9.02942,-14.44708 -7.7302,-17.64102 -4.06396,-0.32559 -10.99949,-13.79039 -2.67002,-5.18366 -2.40527,-4.22658 -4.23854,-4.47219 -1.83326,-0.24563 -0.43425,3.05233 -2.65667,-4.06473 -3.61355,-11.57205 -1.22552,-13.64728 -2.13422,-20.27518 -0.9087,-6.6279 -13.04941,-17.24243 -13.29788,-16.74549 -0.64833,5.63934 -0.59948,11.18273 0.49251,17.238"
       id="path907"
       inkscape:connector-curvature="0"
       sodipodi:nodetypes="cczzzzzzzzzzszszcc" />
    <path
       style="opacity:1;vector-effect:none;fill:none;fill-opacity:1;stroke:#c0c0c0;stroke-width:0.37795276;stroke-linecap:round;stroke-linejoin:round;stroke-miterlimit:4;stroke-dasharray:none;stroke-dashoffset:0;stroke-opacity:1"
       d="m 564.4407,628.65427 c 6.99981,7.46981 8.66142,14.93961 9.8503,22.40941"
       id="path909"
       inkscape:connector-curvature="0"
       sodipodi:nodetypes="cc" />
    <path
       style="opacity:1;vector-effect:none;fill:none;fill-opacity:1;stroke:#c0c0c0;stroke-width:0.37795276;stroke-linecap:round;stroke-linejoin:round;stroke-miterlimit:4;stroke-dasharray:none;stroke-dashoffset:0;stroke-opacity:1"
       d="m 558.03802,650.81742 -38.41612,-45.968 31.0284,54.83326 c 1.09118,1.79162 9.7463,-5.05627 7.38772,-8.86526 z"
       id="path911"
       inkscape:connector-curvature="0"
       sodipodi:nodetypes="cccc" />
    <path
       style="opacity:1;vector-effect:none;fill:none;fill-opacity:1;stroke:#c0c0c0;stroke-width:0.37795276;stroke-linecap:round;stroke-linejoin:round;stroke-miterlimit:4;stroke-dasharray:none;stroke-dashoffset:0;stroke-opacity:1"
       d="m 556.68361,649.29883 c 2.40786,-2.51273 4.67779,-5.1174 7.38771,-7.42876"
       id="path913"
       inkscape:connector-curvature="0"
       sodipodi:nodetypes="cc" />
    <path
       style="opacity:1;vector-effect:none;fill:none;fill-opacity:1;stroke:#c0c0c0;stroke-width:0.37795276;stroke-linecap:round;stroke-linejoin:round;stroke-miterlimit:4;stroke-dasharray:none;stroke-dashoffset:0;stroke-opacity:1"
       d="m 557.58655,648.27277 c -0.66304,-6.40269 -0.91022,-12.80538 -0.69773,-19.20807 2.54818,2.47449 4.99621,4.99906 6.8952,7.79814"
       id="path915"
       inkscape:connector-curvature="0"
       sodipodi:nodetypes="ccc" />
    <path
       style="opacity:1;vector-effect:none;fill:none;fill-opacity:1;stroke:#c0c0c0;stroke-width:0.37795276;stroke-linecap:round;stroke-linejoin:round;stroke-miterlimit:4;stroke-dasharray:none;stroke-dashoffset:0;stroke-opacity:1"
       d="m 555.28814,662.47359 c -0.79108,-3.4392 10.04312,-10.62003 12.55912,-10.0555 1.95048,0.50914 1.70211,2.11771 1.76485,3.57073 0.61054,3.70029 -10.20529,11.64831 -12.18973,10.21967 -0.76637,-1.09842 -1.67003,-1.83073 -2.13424,-3.7349 z"
       id="path917"
       inkscape:connector-curvature="0"
       sodipodi:nodetypes="ccccc" />
    <path
       style="opacity:1;vector-effect:none;fill:none;fill-opacity:1;stroke:#c0c0c0;stroke-width:0.37795276;stroke-linecap:round;stroke-linejoin:round;stroke-miterlimit:4;stroke-dasharray:none;stroke-dashoffset:0;stroke-opacity:1"
       d="m 559.10513,657.01489 c -0.54472,3.09772 0.20651,6.65044 3.18435,7.40472"
       id="path919"
       inkscape:connector-curvature="0"
       sodipodi:nodetypes="cc" />
    <path
       style="opacity:1;vector-effect:none;fill:none;fill-opacity:1;stroke:#c0c0c0;stroke-width:0.37795276;stroke-linecap:round;stroke-linejoin:round;stroke-miterlimit:4;stroke-dasharray:none;stroke-dashoffset:0;stroke-opacity:1"
       d="m 563.53776,653.85459 c 3.54599,0.0977 4.47311,4.06934 4.0222,6.23852"
       id="path921"
       inkscape:connector-curvature="0"
       sodipodi:nodetypes="cc" />
    <path
       style="opacity:1;vector-effect:none;fill:none;fill-opacity:1;stroke:#c0c0c0;stroke-width:0.37795276;stroke-linecap:round;stroke-linejoin:round;stroke-miterlimit:4;stroke-dasharray:none;stroke-dashoffset:0;stroke-opacity:1"
       d="m 549.79193,658.32972 c -4.71232,6.69548 -8.49076,12.15708 -11.00009,19.22602"
       id="path923"
       inkscape:connector-curvature="0"
       sodipodi:nodetypes="cc" />
    <path
       style="opacity:1;vector-effect:none;fill:none;fill-opacity:1;stroke:#c0c0c0;stroke-width:0.37795276;stroke-linecap:round;stroke-linejoin:round;stroke-miterlimit:4;stroke-dasharray:none;stroke-dashoffset:0;stroke-opacity:1"
       d="m 538.77021,677.42657 c 0,0 -4.37117,3.63575 -6.83545,8.52354 -2.46428,4.88779 -7.17133,12.8965 -5.746,18.71554 1.42532,5.81905 5.19911,10.84334 11.492,11.65618 6.29288,0.81284 10.54033,-1.82419 18.55137,-11.32784 13.34888,-7.61794 16.72065,-10.67275 24.29738,-17.40217"
       id="path925"
       inkscape:connector-curvature="0"
       sodipodi:nodetypes="czzzcc" />
    <path
       style="opacity:1;vector-effect:none;fill:none;fill-opacity:1;stroke:#c0c0c0;stroke-width:0.37795276;stroke-linecap:round;stroke-linejoin:round;stroke-miterlimit:4;stroke-dasharray:none;stroke-dashoffset:0;stroke-opacity:1"
       d="m 534.4942,715.48018 c 6.38781,2.39539 12.61427,-4.94796 13.87237,-13.14682"
       id="path927"
       inkscape:connector-curvature="0"
       sodipodi:nodetypes="cc" />
    <path
       style="opacity:1;vector-effect:none;fill:none;fill-opacity:1;stroke:#c0c0c0;stroke-width:0.37795276;stroke-linecap:round;stroke-linejoin:round;stroke-miterlimit:4;stroke-dasharray:none;stroke-dashoffset:0;stroke-opacity:1"
       d="m 529.73465,694.20729 c -0.81497,1.85078 -0.29731,6.76752 0.98674,7.83585 1.28404,1.06833 2.61195,-1.50913 3.13434,-2.55391 0.52239,-1.04478 1.35284,-5.79763 -0.23218,-7.13933 -1.58501,-1.3417 -3.07394,0.006 -3.8889,1.85739 z"
       id="path929"
       inkscape:connector-curvature="0"
       sodipodi:nodetypes="zzzzz" />
    <path
       style="opacity:1;vector-effect:none;fill:none;fill-opacity:1;stroke:#c0c0c0;stroke-width:0.37795276;stroke-linecap:round;stroke-linejoin:round;stroke-miterlimit:4;stroke-dasharray:none;stroke-dashoffset:0;stroke-opacity:1"
       d="m 576.48361,691.2336 10.36571,23.11474 c 0,0 6.85235,13.87163 4.75956,23.10126 -2.09279,9.22963 1.71237,29.89163 3.25043,32.27211"
       id="path931"
       inkscape:connector-curvature="0"
       sodipodi:nodetypes="cczc" />
    <path
       style="opacity:1;vector-effect:none;fill:none;fill-opacity:1;stroke:#c0c0c0;stroke-width:0.37795276;stroke-linecap:round;stroke-linejoin:round;stroke-miterlimit:4;stroke-dasharray:none;stroke-dashoffset:0;stroke-opacity:1"
       d="m 596.25235,756.95217 c 0.98545,12.37683 -1.94972,17.99069 -7.31346,25.19082 -2.8115,3.77408 -9.54154,11.31113 -12.26727,16.04183 -3.38244,5.87047 -3.62776,9.07668 -3.28836,15.41768 0.62714,11.71676 1.12365,31.13265 3.36652,35.40646 1.91018,3.63988 4.00686,7.42525 7.31346,9.86737 3.77982,2.79162 8.74035,5.03893 13.34998,7.66172 0.69158,3.52851 9.89969,11.1394 9.98346,5.10782 0,0 -1.12778,-10.62954 -1.63809,-15.37154 -0.28013,-2.60312 -7.16103,-4.6891 -8.56729,-5.22873 -3.716,-1.42593 -5.9211,-2.87446 -6.53466,-3.12368 -0.3964,-0.16101 -1.70463,-1.757 -2.1821,-4.7173"
       id="path933"
       inkscape:connector-curvature="0"
       sodipodi:nodetypes="csssssccsssc" />
    <path
       style="opacity:1;vector-effect:none;fill:none;fill-opacity:1;stroke:#c0c0c0;stroke-width:0.37795276;stroke-linecap:round;stroke-linejoin:round;stroke-miterlimit:4;stroke-dasharray:none;stroke-dashoffset:0;stroke-opacity:1"
       d="m 588.50356,843.26266 -1.89972,-24.33368 c -0.24435,-3.15081 1.72197,-6.53352 4.43264,-7.88023 15.13092,-8.35618 33.42539,-14.28792 41.69955,-13.7904"
       id="path935"
       inkscape:connector-curvature="0"
       sodipodi:nodetypes="cccc" />
    <path
       style="opacity:1;vector-effect:none;fill:none;fill-opacity:1;stroke:#c0c0c0;stroke-width:0.37795276;stroke-linecap:round;stroke-linejoin:round;stroke-miterlimit:4;stroke-dasharray:none;stroke-dashoffset:0;stroke-opacity:1"
       d="m 597.43917,866.53869 -0.47758,-15.50423"
       id="path937"
       inkscape:connector-curvature="0"
       sodipodi:nodetypes="cc" />
    <path
       style="opacity:1;vector-effect:none;fill:none;fill-opacity:1;stroke:#c0c0c0;stroke-width:0.37795276;stroke-linecap:round;stroke-linejoin:round;stroke-miterlimit:4;stroke-dasharray:none;stroke-dashoffset:0;stroke-opacity:1"
       d="m 606.4686,803.8252 c 0.63324,16.48242 -2.23214,32.38714 -3.61178,49.57978"
       id="path939"
       inkscape:connector-curvature="0"
       sodipodi:nodetypes="cc" />
    <path
       style="opacity:1;vector-effect:none;fill:none;fill-opacity:1;stroke:#c0c0c0;stroke-width:0.37795276;stroke-linecap:round;stroke-linejoin:round;stroke-miterlimit:4;stroke-dasharray:none;stroke-dashoffset:0;stroke-opacity:1"
       d="m 600.06591,870.5609 -2.05214,14.9396 c -3.13585,3.24508 -5.59062,6.66042 -6.97729,10.3428 0.0487,1.38249 0.84449,0.99048 1.47754,0.98503 l 16.5863,-1.44767 2.29342,-11.11144 c 0.12399,-1.76806 1.33477,-12.99029 3.69385,-19.12598 2.35908,-6.1357 4.53805,-18.3289 4.26846,-24.37946 -0.31938,-9.03756 2.3135,-17.74708 5.91018,-26.34952 2.7966,-5.16499 6.45173,-9.36416 10.99948,-12.55912"
       id="path941"
       inkscape:connector-curvature="0"
       sodipodi:nodetypes="cccccczccc" />
    <path
       style="opacity:1;vector-effect:none;fill:none;fill-opacity:1;stroke:#c0c0c0;stroke-width:0.37795276;stroke-linecap:round;stroke-linejoin:round;stroke-miterlimit:4;stroke-dasharray:none;stroke-dashoffset:0;stroke-opacity:1"
       d="m 597.96463,885.48921 13.379,-1.42206"
       id="path943"
       inkscape:connector-curvature="0" />
    <path
       style="opacity:1;vector-effect:none;fill:none;fill-opacity:1;stroke:#c0c0c0;stroke-width:0.37795276;stroke-linecap:round;stroke-linejoin:round;stroke-miterlimit:4;stroke-dasharray:none;stroke-dashoffset:0;stroke-opacity:1"
       d="m 624.69162,798.0792 c 11.16188,5.33105 33.36318,7.15024 46.78887,3.28343 13.42569,-3.86681 22.43842,-5.11597 35.78937,-6.07434 13.35095,-0.95836 38.12238,-2.17171 45.39341,-4.10428"
       id="path945"
       inkscape:connector-curvature="0"
       sodipodi:nodetypes="czzc" />
    <path
       style="opacity:1;vector-effect:none;fill:none;fill-opacity:1;stroke:#c0c0c0;stroke-width:0.37795276;stroke-linecap:round;stroke-linejoin:round;stroke-miterlimit:4;stroke-dasharray:none;stroke-dashoffset:0;stroke-opacity:1"
       d="m 738.38035,793.07197 15.84254,9.52195"
       id="path947"
       inkscape:connector-curvature="0" />
    <path
       style="opacity:1;vector-effect:none;fill:none;fill-opacity:1;stroke:#c0c0c0;stroke-width:0.37795276;stroke-linecap:round;stroke-linejoin:round;stroke-miterlimit:4;stroke-dasharray:none;stroke-dashoffset:0;stroke-opacity:1"
       d="m 776.22187,815.05103 c 2.14798,2.21377 4.48402,6.2339 3.52968,10.93732 -0.95433,4.70343 -11.04344,13.14368 -11.04344,13.14368"
       id="path949"
       inkscape:connector-curvature="0"
       sodipodi:nodetypes="czc" />
    <path
       style="opacity:1;vector-effect:none;fill:none;fill-opacity:1;stroke:#c0c0c0;stroke-width:0.37795276;stroke-linecap:round;stroke-linejoin:round;stroke-miterlimit:4;stroke-dasharray:none;stroke-dashoffset:0;stroke-opacity:1"
       d="m 749.70818,772.7968 c 0,0 4.16869,22.7504 5.49974,34.22975 0.88153,7.60262 1.75054,15.24912 1.64172,22.90192 -0.11691,8.22145 -0.41118,16.58135 -2.46257,24.54362 -3.08891,11.98925 -8.29575,23.49883 -14.61127,34.14767 -5.78756,1.66901 -8.09971,6.44597 -8.45483,10.75322 -0.0733,1.03734 1.64788,1.32382 2.62675,1.31337 3.19556,0.0854 6.55926,0.18614 9.50415,-0.007 0.69183,-0.0455 1.36737,-0.35095 2.06994,-0.64915 3.14458,-1.8562 4.15484,-6.03006 5.82808,-9.2757 3.32259,-6.4449 4.63397,-13.8496 8.29066,-20.11099 4.82896,-8.2687 8.86271,-15.88828 8.78318,-27.33455 -0.11135,-16.026 12.4989,-39.33422 23.55859,-56.22872 3.47685,-5.31114 9.24888,-8.8491 13.13372,-13.7904 7.34841,-9.34678 13.99421,-21.30425 13.13372,-33.16263 -1.2284,-16.9286 -10.02634,-24.64046 -20.52143,-30.04338 -14.52353,-7.47676 -33.08218,-9.00012 -48.67683,-5.66391 -11.77834,2.51978 -43.18805,8.95153 -48.97118,9.05759"
       id="path951"
       inkscape:connector-curvature="0"
       sodipodi:nodetypes="cssscccscssssssssc" />
    <path
       style="opacity:1;vector-effect:none;fill:none;fill-opacity:1;stroke:#c0c0c0;stroke-width:0.37795276;stroke-linecap:round;stroke-linejoin:round;stroke-miterlimit:4;stroke-dasharray:none;stroke-dashoffset:0;stroke-opacity:1"
       d="m 739.81685,888.59923 c 0.34455,-0.32102 12.25653,1.082 11.73826,1.78537"
       id="path953"
       inkscape:connector-curvature="0"
       sodipodi:nodetypes="cc" />
    <path
       style="opacity:1;vector-effect:none;fill:none;fill-opacity:1;stroke:#c0c0c0;stroke-width:0.37795276;stroke-linecap:round;stroke-linejoin:round;stroke-miterlimit:4;stroke-dasharray:none;stroke-dashoffset:0;stroke-opacity:1"
       d="m 755.69749,848.08026 c -7.5389,6.91121 -15.63873,16.31579 -11.55735,23.58492 l 2.27041,4.04373"
       id="path955"
       inkscape:connector-curvature="0"
       sodipodi:nodetypes="csc" />
    <path
       style="opacity:1;vector-effect:none;fill:none;fill-opacity:1;stroke:#c0c0c0;stroke-width:0.37795276;stroke-linecap:round;stroke-linejoin:round;stroke-miterlimit:4;stroke-dasharray:none;stroke-dashoffset:0;stroke-opacity:1"
       d="m 784.89331,798.56927 c 0,0 7.06586,11.10534 9.98346,18.68996 2.91759,7.58463 3.68605,9.07538 -1.27696,16.1941 -4.963,7.11873 -28.32516,26.52582 -28.32516,26.52582"
       id="path957"
       inkscape:connector-curvature="0"
       sodipodi:nodetypes="czzc" />
    <path
       style="opacity:1;vector-effect:none;fill:none;fill-opacity:1;stroke:#c0c0c0;stroke-width:0.37795276;stroke-linecap:round;stroke-linejoin:round;stroke-miterlimit:4;stroke-dasharray:none;stroke-dashoffset:0;stroke-opacity:1"
       d="m 809.84783,718.60129 c 5.32253,0.1637 14.36122,-0.16067 27.11846,7.59841 7.83185,4.76341 15.05012,12.8684 18.39167,22.10401 7.37217,20.37578 6.41811,23.51288 8.00998,32.44624 1.59188,8.93337 2.1754,15.378 2.32174,20.89562 0.14633,5.51761 -0.92859,6.46695 -0.69652,12.07302 0.23207,5.60607 2.07717,15.24748 3.01825,21.35996 0.94108,6.11248 2.3824,10.95096 2.55391,15.32345 0.17151,4.37248 1.08478,8.62583 -0.92869,10.67998 -2.01348,2.05415 -4.57974,0.81868 -6.50086,0.69652 -1.92113,-0.12216 -2.17032,-1.27113 -4.87564,-1.16087 -2.70533,0.11026 -7.53516,3.52312 -10.67998,3.4826 -3.14483,-0.0405 -4.85481,-2.67882 -7.19738,-2.55391 -2.34258,0.12491 -3.51845,3.09809 -5.80434,2.78609 -2.28589,-0.31201 -3.41367,-1.10404 -5.57216,-4.87565 -2.15849,-3.77161 -2.86847,-11.81505 -3.48261,-18.3417 -0.61413,-6.52665 -0.33899,-11.40581 0,-20.66344 0.339,-9.25763 2.8304,-24.01806 2.55391,-34.82602 -0.27649,-10.80797 -1.44941,-23.08832 -3.71477,-29.71821 -2.26537,-6.62989 -6.15409,-10.40409 -6.15409,-10.40409"
       id="path959"
       inkscape:connector-curvature="0"
       sodipodi:nodetypes="csszzzzzzzzzzzzzzzzc" />
    <path
       style="opacity:1;vector-effect:none;fill:none;fill-opacity:1;stroke:#c0c0c0;stroke-width:0.37795276;stroke-linecap:round;stroke-linejoin:round;stroke-miterlimit:4;stroke-dasharray:none;stroke-dashoffset:0;stroke-opacity:1"
       d="m 826.86876,804.72815 c -0.34535,12.75107 1.11223,24.87101 2.873,36.44606"
       id="path961"
       inkscape:connector-curvature="0"
       sodipodi:nodetypes="cc" />
    <path
       style="opacity:1;vector-effect:none;fill:none;fill-opacity:1;stroke:#c0c0c0;stroke-width:0.37795276;stroke-linecap:round;stroke-linejoin:round;stroke-miterlimit:4;stroke-dasharray:none;stroke-dashoffset:0;stroke-opacity:1"
       d="m 865.1207,808.33992 c -0.98781,9.1936 -1.8195,18.3872 -0.65669,27.5808"
       id="path963"
       inkscape:connector-curvature="0"
       sodipodi:nodetypes="cc" />
    <path
       style="opacity:1;vector-effect:none;fill:none;fill-opacity:1;stroke:#c0c0c0;stroke-width:0.37795276;stroke-linecap:round;stroke-linejoin:round;stroke-miterlimit:4;stroke-dasharray:none;stroke-dashoffset:0;stroke-opacity:1"
       d="m 821.61527,719.76943 c 7.43241,2.9411 13.47861,18.00324 16.82758,33.65514"
       id="path965"
       inkscape:connector-curvature="0"
       sodipodi:nodetypes="cc" />
    <path
       style="opacity:1;vector-effect:none;fill:none;fill-opacity:1;stroke:#c0c0c0;stroke-width:0.37795276;stroke-linecap:round;stroke-linejoin:round;stroke-miterlimit:4;stroke-dasharray:none;stroke-dashoffset:0;stroke-opacity:1"
       d="m 837.53991,726.58254 c 6.74791,5.25348 12.56079,22.23837 13.19929,29.16377 0.63851,6.9254 2.1656,9.16636 2.47425,16.79116"
       id="path967"
       inkscape:connector-curvature="0"
       sodipodi:nodetypes="czc" />
    <path
       style="opacity:1;vector-effect:none;fill:none;fill-opacity:1;stroke:#c0c0c0;stroke-width:0.37795276;stroke-linecap:round;stroke-linejoin:round;stroke-miterlimit:4;stroke-dasharray:none;stroke-dashoffset:0;stroke-opacity:1"
       d="m 679.85323,692.02445 c 0,0 -9.83875,28.87047 -10.99949,38.08778 -1.16074,9.2173 -1.3503,7.55582 0.49252,16.08879 1.84281,8.53298 11.78693,28.53952 13.95457,33.49098 -3.21702,7.16316 -5.3379,10.23943 -5.41766,13.29789 -0.0798,3.05846 0.43172,3.19773 1.31337,3.77595 0.88166,0.57821 1.61582,0.58079 2.99613,0.36938 1.38031,-0.21142 1.85918,0.0219 4.39159,-2.83195 2.53242,-2.8539 8.37051,-10.22219 10.50697,-13.13372 2.13646,-2.91154 2.37271,-2.88443 0,-7.38772 -2.37271,-4.50328 -6.1892,-15.91903 -8.16752,-21.01395 -1.97832,-5.09491 -2.88987,-8.29058 -4.43264,-11.65616 -0.0652,-4.80209 2.38732,-6.6597 4.63785,-10.99949 2.25053,-4.3398 4.11004,-8.51927 6.3206,-11.65618 2.21056,-3.1369 3.39372,-3.79967 4.96618,-5.41765 0.83958,-0.86389 3.08526,-3.36042 3.56984,-6.6019 0.52578,-3.5172 -0.36862,-7.31966 -1.31248,-10.6361 -1.35741,-4.76952 -2.26159,-7.08869 -2.62675,-12.76434 -0.36515,-5.67564 0.53021,-12.75687 0.32834,-19.98787 -0.20187,-7.23099 -0.0507,-17.50316 -1.97004,-22.73774 -1.91937,-5.23458 -2.60332,-6.67951 -4.80202,-8.29065 -0.95252,-0.69798 -3.72924,-0.0332 -5.00982,0.22897 -2.46666,0.5049 -4.8677,1.21849 -7.262,2.47985 -3.93564,2.07337 -7.84533,6.77104 -8.33169,10.54801"
       id="path969"
       inkscape:connector-curvature="0"
       sodipodi:nodetypes="czzczzzzzzzczzssszzzsssc" />
    <path
       style="opacity:1;vector-effect:none;fill:none;fill-opacity:1;stroke:#c0c0c0;stroke-width:0.37795276;stroke-linecap:round;stroke-linejoin:round;stroke-miterlimit:4;stroke-dasharray:none;stroke-dashoffset:0;stroke-opacity:1"
       d="m 681.57702,655.61943 c -12.37811,7.90389 -23.42467,19.18197 -34.92746,29.0173"
       id="path971"
       inkscape:connector-curvature="0"
       sodipodi:nodetypes="cc" />
    <path
       style="opacity:1;vector-effect:none;fill:none;fill-opacity:1;stroke:#c0c0c0;stroke-width:0.37795276;stroke-linecap:round;stroke-linejoin:round;stroke-miterlimit:4;stroke-dasharray:none;stroke-dashoffset:0;stroke-opacity:1"
       d="m 684.45003,637.35537 c -17.28839,11.41553 -32.965,24.44039 -47.4045,39.03176"
       id="path973"
       inkscape:connector-curvature="0"
       sodipodi:nodetypes="cc" />
    <path
       style="opacity:1;vector-effect:none;fill:none;fill-opacity:1;stroke:#c0c0c0;stroke-width:0.37795276;stroke-linecap:round;stroke-linejoin:round;stroke-miterlimit:4;stroke-dasharray:none;stroke-dashoffset:0;stroke-opacity:1"
       d="m 673.1222,661.65274 c 0.18028,11.13932 2.7202,24.40544 5.49975,33.94244"
       id="path975"
       inkscape:connector-curvature="0"
       sodipodi:nodetypes="cc" />
    <path
       style="opacity:1;vector-effect:none;fill:none;fill-opacity:1;stroke:#c0c0c0;stroke-width:0.37795276;stroke-linecap:round;stroke-linejoin:round;stroke-miterlimit:4;stroke-dasharray:none;stroke-dashoffset:0;stroke-opacity:1"
       d="m 680.40731,635.20061 c 1.27834,-1.72388 0.69434,-3.61706 0.90294,-5.43818"
       id="path977"
       inkscape:connector-curvature="0"
       sodipodi:nodetypes="cc" />
    <path
       style="opacity:1;vector-effect:none;fill:none;fill-opacity:1;stroke:#c0c0c0;stroke-width:0.37795276;stroke-linecap:round;stroke-linejoin:round;stroke-miterlimit:4;stroke-dasharray:none;stroke-dashoffset:0;stroke-opacity:1"
       d="m 691.38627,627.68977 c -0.0491,1.29235 -0.15634,2.79531 0.8619,4.04272"
       id="path979"
       inkscape:connector-curvature="0"
       sodipodi:nodetypes="cc" />
    <path
       style="opacity:1;vector-effect:none;fill:none;fill-opacity:1;stroke:#c0c0c0;stroke-width:0.37795276;stroke-linecap:round;stroke-linejoin:round;stroke-miterlimit:4;stroke-dasharray:none;stroke-dashoffset:0;stroke-opacity:1"
       d="m 681.1666,629.72139 c -3.46539,-0.46282 -6.81589,-1.95952 -9.52194,-4.67889 -2.70604,-2.71937 -5.06484,-6.70612 -5.41765,-11.16365 -0.35282,-4.45754 -0.66568,-9.30254 1.0671,-13.37998 1.73279,-4.07743 4.92854,-7.07274 8.45483,-9.35777 3.52629,-2.28502 12.3039,-4.29469 17.81261,-1.55963 5.50872,2.73506 5.99093,5.36991 7.71605,9.85029 1.72513,4.48038 1.62729,11.53809 0.65669,15.84254 -0.97059,4.30445 -2.47656,6.72142 -4.51471,8.70108 -2.03815,1.97966 -3.36466,2.8232 -6.07435,3.77595 -2.70969,0.95276 -6.71325,2.43288 -10.17863,1.97006 z"
       id="path981"
       inkscape:connector-curvature="0"
       sodipodi:nodetypes="zzzzzzzzzzz" />
    <path
       style="opacity:1;vector-effect:none;fill:none;fill-opacity:1;stroke:#c0c0c0;stroke-width:0.37795276;stroke-linecap:round;stroke-linejoin:round;stroke-miterlimit:4;stroke-dasharray:none;stroke-dashoffset:0;stroke-opacity:1"
       d="m 673.94306,616.50559 c 6.59159,7.30141 13.80224,9.65887 21.91689,-1.1492 -6.22625,3.74498 -13.51155,4.36695 -21.91689,1.1492 z"
       id="path983"
       inkscape:connector-curvature="0"
       sodipodi:nodetypes="ccc" />
    <path
       style="opacity:1;vector-effect:none;fill:none;fill-opacity:1;stroke:#c0c0c0;stroke-width:0.37795276;stroke-linecap:round;stroke-linejoin:round;stroke-miterlimit:4;stroke-dasharray:none;stroke-dashoffset:0;stroke-opacity:1"
       d="m 674.18931,601.4839 c -0.55803,1.46036 0.28154,3.50112 1.55963,4.0222 1.27809,0.52109 2.91423,-0.37201 3.61178,-1.64171 0.69754,-1.2697 0.79054,-3.92503 -0.65669,-4.67889 -1.44723,-0.75387 -3.95669,0.83804 -4.51472,2.2984 z"
       id="path985"
       inkscape:connector-curvature="0"
       sodipodi:nodetypes="zzzzz" />
    <path
       style="display:inline;opacity:1;vector-effect:none;fill:none;fill-opacity:1;stroke:#c0c0c0;stroke-width:0.37795276;stroke-linecap:round;stroke-linejoin:round;stroke-miterlimit:4;stroke-dasharray:none;stroke-dashoffset:0;stroke-opacity:1"
       d="m 695.13536,601.50795 c -0.22173,1.54754 -1.94703,2.92338 -3.3173,2.7579 -1.37028,-0.16548 -2.36646,-1.74098 -2.35929,-3.18965 0.007,-1.44868 1.38008,-3.32224 3.0113,-3.27805 1.6312,0.0442 2.88703,2.16225 2.66529,3.7098 z"
       id="path985-3"
       inkscape:connector-curvature="0"
       sodipodi:nodetypes="zzzzz" />
    <path
       style="opacity:1;vector-effect:none;fill:none;fill-opacity:1;stroke:#c0c0c0;stroke-width:0.37795276;stroke-linecap:round;stroke-linejoin:round;stroke-miterlimit:4;stroke-dasharray:none;stroke-dashoffset:0;stroke-opacity:1"
       d="m 661.30185,709.75497 c 2.50785,2.41977 9.05398,2.25908 11.96546,2.53057"
       id="path1002"
       inkscape:connector-curvature="0"
       sodipodi:nodetypes="cc" />
    <path
       style="opacity:1;vector-effect:none;fill:none;fill-opacity:1;stroke:#c0c0c0;stroke-width:0.37795276;stroke-linecap:round;stroke-linejoin:round;stroke-miterlimit:4;stroke-dasharray:none;stroke-dashoffset:0;stroke-opacity:1"
       d="m 401.90902,880.13488 c 63.46009,-8.19959 127.51267,-13.07395 192.54385,-15.18557 m 20.93794,-0.5783 c 42.38971,-0.99704 85.07446,-0.85079 128.01434,0.28406 m 19.3137,0.58019 c 71.2527,2.93198 144.40756,7.71645 205.15594,13.34058"
       id="path1052"
       inkscape:connector-curvature="0"
       sodipodi:nodetypes="cccccc" />
  </g>
</svg>
