<?xml version="1.0" encoding="UTF-8" standalone="no"?>
<!-- Created with Inkscape (http://www.inkscape.org/) -->

<svg
   xmlns:dc="http://purl.org/dc/elements/1.1/"
   xmlns:cc="http://creativecommons.org/ns#"
   xmlns:rdf="http://www.w3.org/1999/02/22-rdf-syntax-ns#"
   xmlns:svg="http://www.w3.org/2000/svg"
   xmlns="http://www.w3.org/2000/svg"
   xmlns:sodipodi="http://sodipodi.sourceforge.net/DTD/sodipodi-0.dtd"
   xmlns:inkscape="http://www.inkscape.org/namespaces/inkscape"
   width="297mm"
   height="210mm"
   id="svg2"
   version="1.1"
   inkscape:version="0.92.3 (2405546, 2018-03-11)"
   sodipodi:docname="CompactMpv-undecorated.svg"
   inkscape:export-filename="/home/christian/SportsCar.svg.png"
   inkscape:export-xdpi="138.06"
   inkscape:export-ydpi="138.06">
  <defs
     id="defs4" />
  <sodipodi:namedview
     id="base"
     pagecolor="#ffffff"
     bordercolor="#666666"
     borderopacity="1.0"
     inkscape:pageopacity="0.0"
     inkscape:pageshadow="2"
     inkscape:zoom="1"
     inkscape:cx="838.43217"
     inkscape:cy="615.25713"
     inkscape:document-units="mm"
     inkscape:current-layer="layer1"
     showgrid="false"
     units="mm"
     inkscape:window-width="1920"
     inkscape:window-height="1080"
     inkscape:window-x="1920"
     inkscape:window-y="0"
     inkscape:window-maximized="0"
     inkscape:snap-global="false"
     showguides="true" />
  <metadata
     id="metadata7">
    <rdf:RDF>
      <cc:Work
         rdf:about="">
        <dc:format>image/svg+xml</dc:format>
        <dc:type
           rdf:resource="http://purl.org/dc/dcmitype/StillImage" />
        <dc:title />
      </cc:Work>
    </rdf:RDF>
  </metadata>
  <g
     inkscape:label="Mask"
     inkscape:groupmode="layer"
     id="Mask"
     style="display:inline;opacity:1"
     transform="translate(0,-328.81888)">
    <circle
       style="display:inline;opacity:1;fill:#ffffff;fill-opacity:1;stroke:#808080;stroke-width:0.75590551;stroke-linecap:round;stroke-linejoin:round;stroke-miterlimit:4;stroke-dasharray:none;stroke-dashoffset:0;stroke-opacity:1"
       id="path973"
       cx="453.36298"
       cy="835.84521"
       r="48.239628" />
    <circle
       style="display:inline;opacity:1;fill:#ffffff;fill-opacity:1;stroke:#808080;stroke-width:0.75590551;stroke-linecap:round;stroke-linejoin:round;stroke-miterlimit:4;stroke-dasharray:none;stroke-dashoffset:0;stroke-opacity:1"
       id="path973-3"
       cx="868.82709"
       cy="835.84521"
       r="48.239628" />
    <path
       style="display:inline;opacity:1;fill:#ffffff;fill-opacity:1;stroke:#808080;stroke-width:0.75590551;stroke-linecap:round;stroke-linejoin:round;stroke-miterlimit:4;stroke-dasharray:none;stroke-opacity:1"
       d="m 396.76609,847.12655 -71.4453,-4.12335 c -7.24875,-0.50461 -8.14997,-8.31995 -7.82962,-13.70184 l 6.16481,-48.15 c 9.00832,-49.52199 82.29381,-67.0287 142.598,-78.592 31.37221,-30.45817 105.06825,-87.44071 195.49587,-102.27444 10.25953,-1.53412 28.23707,-2.22563 41.67642,-2.60987 67.35955,-1.9998 136.57608,2.4267 207.15875,11.4182 8.4084,1.07114 14.36071,2.43731 20.87899,3.26234 5.17955,0.65559 12.72313,9.13456 12.72313,9.13456 23.47915,28.82617 33.81259,55.19349 33.81259,188.9579 l 7.69408,2.40477 c 2.37103,0.9996 4.59542,2.35192 -0.90195,22.27824 -2.39158,5.82943 -4.98089,11.29384 -10.15002,11.99549 H 921.9227 c 7.06775,-28.99065 -14.29994,-65.42146 -54.18238,-65.28512 -39.88243,0.13634 -58.54555,36.33387 -52.53681,65.93759 l -308.00346,-0.65247 c 2.14033,-19.26297 -4.07028,-65.39284 -52.80989,-65.28992 -48.7396,0.10296 -57.7322,43.1392 -57.62407,65.28992 z"
       id="path940"
       inkscape:connector-curvature="0"
       sodipodi:nodetypes="cccccccsscccccczcczc" />
  </g>
  <g
     inkscape:groupmode="layer"
     id="layer1"
     inkscape:label="Overlay"
     style="display:inline"
     transform="translate(0,-328.81888)">
    <circle
       style="display:inline;opacity:1;fill:none;fill-opacity:1;stroke:#c0c0c0;stroke-width:0.4932045;stroke-linecap:round;stroke-linejoin:round;stroke-miterlimit:4;stroke-dasharray:none;stroke-dashoffset:0;stroke-opacity:1"
       id="path946"
       cx="453.36298"
       cy="835.84521"
       r="26.838659" />
    <path
       style="display:inline;opacity:1;fill:none;stroke:#c0c0c0;stroke-width:0.4932045;stroke-linecap:round;stroke-linejoin:round;stroke-miterlimit:4;stroke-dasharray:none;stroke-opacity:1"
       d="m 317.32805,830.28006 c 16.72089,-0.35351 56.7257,-0.11131 69.33668,-11.64657 4.65839,-4.26101 5.9009,-8.77737 7.6546,-13.14723 0.52212,-1.90061 -2.00473,-2.31313 -3.99637,-2.20208 l -69.89568,0.57091"
       id="path942"
       inkscape:connector-curvature="0"
       sodipodi:nodetypes="csccc" />
    <path
       style="display:inline;opacity:1;fill:none;stroke:#c0c0c0;stroke-width:0.4932045;stroke-linecap:round;stroke-linejoin:round;stroke-miterlimit:4;stroke-dasharray:none;stroke-opacity:1"
       d="m 320.10104,809.89042 72.75024,-0.48935"
       id="path944"
       inkscape:connector-curvature="0"
       sodipodi:nodetypes="cc" />
    <path
       style="display:inline;opacity:1;fill:none;stroke:#c0c0c0;stroke-width:0.4932045;stroke-linecap:round;stroke-linejoin:round;stroke-miterlimit:4;stroke-dasharray:none;stroke-opacity:1"
       d="m 319.28546,817.59771 70.14036,-2.60988"
       id="path947"
       inkscape:connector-curvature="0" />
    <path
       style="display:inline;opacity:1;fill:none;stroke:#c0c0c0;stroke-width:0.4932045;stroke-linecap:round;stroke-linejoin:round;stroke-miterlimit:4;stroke-dasharray:none;stroke-opacity:1"
       d="m 317.98052,824.57096 62.14762,-1.9574"
       id="path949"
       inkscape:connector-curvature="0" />
    <path
       style="display:inline;opacity:1;fill:none;stroke:#c0c0c0;stroke-width:0.4932045;stroke-linecap:round;stroke-linejoin:round;stroke-miterlimit:4;stroke-dasharray:none;stroke-opacity:1"
       d="m 323.65598,781.95876 7.8432,-1.84546 c 1.22071,-0.35084 2.22704,-1.36051 3.11422,-2.65285 l 15.6864,-25.49041 c 0.67574,-0.89535 -0.99967,-2.02806 -2.88353,-1.9608 l -7.95854,1.26875"
       id="path951"
       inkscape:connector-curvature="0"
       sodipodi:nodetypes="cccccc" />
    <path
       style="display:inline;opacity:1;fill:none;stroke:#c0c0c0;stroke-width:0.4932045;stroke-linecap:round;stroke-linejoin:round;stroke-miterlimit:4;stroke-dasharray:none;stroke-opacity:1"
       d="m 333.34465,758.83285 13.61026,-1.78779"
       id="path953"
       inkscape:connector-curvature="0" />
    <path
       style="display:inline;opacity:1;fill:none;stroke:#c0c0c0;stroke-width:0.4932045;stroke-linecap:round;stroke-linejoin:round;stroke-miterlimit:4;stroke-dasharray:none;stroke-opacity:1"
       d="m 328.90402,765.984 14.07162,-2.13382"
       id="path955"
       inkscape:connector-curvature="0"
       sodipodi:nodetypes="cc" />
    <path
       style="display:inline;opacity:1;fill:none;stroke:#c0c0c0;stroke-width:0.4932045;stroke-linecap:round;stroke-linejoin:round;stroke-miterlimit:4;stroke-dasharray:none;stroke-opacity:1"
       d="m 325.21309,774.57692 12.74521,-2.88353"
       id="path957"
       inkscape:connector-curvature="0"
       sodipodi:nodetypes="cc" />
    <path
       style="display:inline;opacity:1;fill:none;stroke:#c0c0c0;stroke-width:0.4932045;stroke-linecap:round;stroke-linejoin:round;stroke-miterlimit:4;stroke-dasharray:none;stroke-opacity:1"
       d="m 358.42147,750.6733 -14.66813,28.94726 c -1.4103,2.61924 1.58021,4.64226 5.06343,4.59725 22.63528,-0.37694 50.89558,-29.10675 20.28365,-35.36198 -2.27088,-0.34934 -8.91188,-0.91995 -10.67895,1.81747 z"
       id="path959"
       inkscape:connector-curvature="0"
       sodipodi:nodetypes="ccccc" />
    <path
       style="display:inline;opacity:1;fill:none;stroke:#c0c0c0;stroke-width:0.4932045;stroke-linecap:round;stroke-linejoin:round;stroke-miterlimit:4;stroke-dasharray:none;stroke-opacity:1"
       d="m 975.79525,726.76799 h -5.07501 c -2.84524,0.0791 -4.85026,3.31046 -4.84433,5.99773 v 63.6107 c 0.13949,2.99164 0.18226,7.81479 5.26204,7.81479 h 6.5986"
       id="path987"
       inkscape:connector-curvature="0"
       sodipodi:nodetypes="ccccsc" />
    <path
       style="display:inline;opacity:1;fill:none;stroke:#c0c0c0;stroke-width:0.4932045;stroke-linecap:round;stroke-linejoin:round;stroke-miterlimit:4;stroke-dasharray:none;stroke-opacity:1"
       d="m 466.09087,702.55936 c 6.13204,6.07409 19.84892,10.26338 31.4816,-4.24105 38.11474,-47.52409 123.80352,-82.42378 126.25265,-84.00531 3.44593,-2.22521 0.9802,-3.4218 -2.28364,-4.40417"
       id="path989"
       inkscape:connector-curvature="0"
       sodipodi:nodetypes="cssc" />
    <path
       style="display:inline;opacity:1;fill:none;stroke:#c0c0c0;stroke-width:0.4932045;stroke-linecap:round;stroke-linejoin:round;stroke-miterlimit:4;stroke-dasharray:none;stroke-opacity:1"
       d="m 527.04114,682.64715 c -1.61672,1.43567 -2.62126,3.38132 -2.69143,5.38637 v 148.02027 c -0.20949,4.65522 1.78314,5.64023 4.15228,5.99774 h 280.50985 c 0.26939,-14.31525 2.16376,-53.24826 48.36497,-62.43461 2.84796,-0.42875 3.98673,-2.50812 4.24264,-7.2371 0.10205,-4.98676 -0.18364,-41.86708 -0.47338,-45.92138 l -9.22729,-109.55297 c -1.79683,-4.09576 -5.27143,-4.83597 -9.2273,-4.61365 -66.31603,-1.13983 -124.4402,-6.8878 -188.69824,0.92273 -7.89548,0.95969 -37.79037,12.20573 -46.59785,16.60913 -36.15329,18.07529 -50.55339,27.34012 -80.35425,52.82347 z"
       id="path995"
       inkscape:connector-curvature="0"
       sodipodi:nodetypes="ccccccccccssc" />
    <path
       style="display:inline;opacity:1;fill:none;stroke:#c0c0c0;stroke-width:0.4932045;stroke-linecap:round;stroke-linejoin:round;stroke-miterlimit:4;stroke-dasharray:none;stroke-opacity:1"
       d="m 519.00838,696.76431 c 0.44719,-5.30381 -3.73832,-5.14952 -5.74868,-3.68413 -5.86672,6.74285 -9.31268,12.38926 -16.05785,17.53949 -4.99479,4.08612 -2.65505,9.69505 4.63005,9.71945 l 10.25799,0.16312 c 4.19929,0.0809 6.07388,-2.20357 6.36157,-4.7304 z"
       id="path997"
       inkscape:connector-curvature="0"
       sodipodi:nodetypes="ccccccc" />
    <path
       style="display:inline;opacity:1;fill:none;stroke:#c0c0c0;stroke-width:0.4932045;stroke-linecap:round;stroke-linejoin:round;stroke-miterlimit:4;stroke-dasharray:none;stroke-opacity:1"
       d="m 536.06811,689.33329 v 21.87127 c 0.0864,3.03931 1.11988,4.99627 4.24104,4.56728 h 129.29741 c 1.77431,-0.10791 3.09067,-0.51692 3.80616,-2.5375 l 12.84866,-91.09545 c 0.17942,-1.45637 -1.7984,-2.52615 -4.76376,-2.75615 -37.27233,-2.35675 -98.02955,25.34346 -142.6866,64.64578 -1.10816,1.31589 -2.61503,2.89339 -2.74291,5.30477 z"
       id="path999"
       inkscape:connector-curvature="0"
       sodipodi:nodetypes="ccccccccc" />
    <path
       style="display:inline;opacity:1;fill:none;stroke:#c0c0c0;stroke-width:0.4932045;stroke-linecap:round;stroke-linejoin:round;stroke-miterlimit:4;stroke-dasharray:none;stroke-opacity:1"
       d="M 703.24395,609.52363 C 698.66614,652.336 690.4454,694.33884 690.7871,738.24444 v 103.80709"
       id="path1007"
       inkscape:connector-curvature="0"
       sodipodi:nodetypes="ccc" />
    <path
       style="display:inline;opacity:1;fill:none;stroke:#c0c0c0;stroke-width:0.4932045;stroke-linecap:round;stroke-linejoin:round;stroke-miterlimit:4;stroke-dasharray:none;stroke-opacity:1"
       d="m 716.72459,620.12261 c -2.29725,-4e-5 -3.82483,1.89163 -3.93391,3.00004 l -9.66207,89.51604 c -0.22941,2.07652 0.71878,2.97616 2.30682,3.13315 h 133.33446 c 3.72924,-0.0371 5.32627,-2.52517 5.075,-6.59339 l -4.30381,-83.18387 c -0.17417,-1.94789 -1.86651,-3.60098 -4.42065,-3.65826 -39.0372,-0.34716 -76.85072,-2.53013 -118.39584,-2.21371 z"
       id="path1009"
       inkscape:connector-curvature="0"
       sodipodi:nodetypes="ccccccccc" />
    <path
       style="display:inline;opacity:1;fill:none;stroke:#c0c0c0;stroke-width:0.4932045;stroke-linecap:round;stroke-linejoin:round;stroke-miterlimit:4;stroke-dasharray:none;stroke-opacity:1"
       d="m 862.53018,624.28731 7.84319,83.96841 c 0.59787,4.57764 2.44583,7.57781 6.45911,7.51612 h 75.20248 c 3.12253,-0.007 6.86391,-1.92286 6.92047,-7.51612 -3.39057,-79.03939 -42.76904,-93.00476 -90.6582,-91.58093 -3.75042,0.26037 -6.05598,4.17135 -5.76705,7.61252 z"
       id="path1011"
       inkscape:connector-curvature="0"
       sodipodi:nodetypes="ccccccc" />
    <circle
       style="display:inline;opacity:1;fill:#ffffff;fill-opacity:1;stroke:#c0c0c0;stroke-width:0.4932045;stroke-linecap:round;stroke-linejoin:round;stroke-miterlimit:4;stroke-dasharray:none;stroke-dashoffset:0;stroke-opacity:1"
       id="path946-6"
       cx="868.82709"
       cy="835.84521"
       r="26.838659" />
    <path
       style="display:inline;fill:none;stroke:#c0c0c0;stroke-width:0.37795275;stroke-linecap:round;stroke-linejoin:round;stroke-miterlimit:4;stroke-dasharray:none;stroke-opacity:1"
       d="m 646.61067,740.6266 h 30.77311 c 0.11309,-2.09125 -1.2763,-8.06111 -5.09029,-8.21386 h -20.07364 c -4.31509,0 -5.65232,6.41139 -5.60918,8.21386 z"
       id="path843-3"
       inkscape:connector-curvature="0"
       sodipodi:nodetypes="ccccc" />
    <path
       style="display:inline;fill:none;stroke:#c0c0c0;stroke-width:0.37795275;stroke-linecap:round;stroke-linejoin:round;stroke-miterlimit:4;stroke-dasharray:none;stroke-opacity:1"
       d="m 817.79268,740.6266 h 30.77311 c 0.11309,-2.09125 -1.2763,-8.06111 -5.09029,-8.21386 h -20.07364 c -4.31509,0 -5.65232,6.41139 -5.60918,8.21386 z"
       id="path843-3-3"
       inkscape:connector-curvature="0"
       sodipodi:nodetypes="ccccc" />
  </g>
</svg>
