<?xml version="1.0" encoding="UTF-8" standalone="no"?>
<!-- Created with Inkscape (http://www.inkscape.org/) -->

<svg
   xmlns:dc="http://purl.org/dc/elements/1.1/"
   xmlns:cc="http://creativecommons.org/ns#"
   xmlns:rdf="http://www.w3.org/1999/02/22-rdf-syntax-ns#"
   xmlns:svg="http://www.w3.org/2000/svg"
   xmlns="http://www.w3.org/2000/svg"
   xmlns:sodipodi="http://sodipodi.sourceforge.net/DTD/sodipodi-0.dtd"
   xmlns:inkscape="http://www.inkscape.org/namespaces/inkscape"
   width="297mm"
   height="210mm"
   id="svg2"
   version="1.1"
   inkscape:version="0.92.3 (2405546, 2018-03-11)"
   sodipodi:docname="SimpleButterfly-undecorated.svg"
   viewBox="0 0 1052.3622 744.09448"
   inkscape:export-filename="/home/christian/SportsCar.svg.png"
   inkscape:export-xdpi="138.06"
   inkscape:export-ydpi="138.06">
  <defs
     id="defs4" />
  <sodipodi:namedview
     id="base"
     pagecolor="#ffffff"
     bordercolor="#666666"
     borderopacity="1.0"
     inkscape:pageopacity="0.0"
     inkscape:pageshadow="2"
     inkscape:zoom="2.0000001"
     inkscape:cx="618.13885"
     inkscape:cy="416.38019"
     inkscape:document-units="mm"
     inkscape:current-layer="layer3"
     showgrid="false"
     units="mm"
     inkscape:window-width="1920"
     inkscape:window-height="1015"
     inkscape:window-x="0"
     inkscape:window-y="0"
     inkscape:window-maximized="1"
     inkscape:snap-global="false" />
  <metadata
     id="metadata7">
    <rdf:RDF>
      <cc:Work
         rdf:about="">
        <dc:format>image/svg+xml</dc:format>
        <dc:type
           rdf:resource="http://purl.org/dc/dcmitype/StillImage" />
        <dc:title></dc:title>
      </cc:Work>
    </rdf:RDF>
  </metadata>
  <g
     inkscape:label="Mask"
     inkscape:groupmode="layer"
     id="Mask"
     style="display:inline;opacity:1"
     transform="translate(0,-308.2677)">
    <path
       style="fill:#ffffff;fill-opacity:1;stroke:#808080;stroke-width:0.75590551;stroke-linecap:round;stroke-linejoin:round;stroke-miterlimit:4;stroke-dasharray:none;stroke-opacity:1"
       d="m 798.94922,197.9082 c -10.48265,0.0893 -25.65138,12.77503 -46.85156,46.07422 -75.09173,117.94679 -68.67282,118.14583 -85.17188,119.97656 -0.55983,-3.95689 -2.61523,-5.29687 -2.61523,-5.29687 6.74449,-0.30889 8.41678,-8.66126 3.46289,-17.25391 11.09931,-25.02899 23.96878,-67.82056 25.41797,-77.98437 1.44919,-10.1638 3.91928,-10.80462 6.78125,-13.47852 2.86196,-2.6739 12.13512,-5.80418 13.25195,-1.16992 -2.02731,-0.58734 -6.53804,1.78632 -7.35938,3.03125 -0.82133,1.24494 -0.22364,10.01483 3.17383,11.6875 3.39747,1.67268 7.64364,0.29488 9.8125,-4.04102 2.16888,-4.33589 4.47342,-4.50491 -1.07812,-14.0332 -5.55153,-9.52828 -24.96251,-3.54824 -28.95313,14.31446 -3.94561,21.03464 -13.35793,50.02188 -24.89453,76.38476 -1.67397,-1.44274 -3.87293,-1.08316 -7.40625,-1.05859 -3.53333,0.0246 -3.95145,-0.14383 -6.02734,1.58007 -11.5366,-26.36288 -21.32392,-54.60013 -25.26953,-75.63476 -3.9456,-21.03465 -21.71133,-23.21696 -28.20118,-17.56445 -6.48984,5.6525 -4.997,11.6973 -2.82812,16.0332 2.16886,4.33589 6.41307,5.7137 9.81055,4.04101 3.39748,-1.67267 3.99516,-10.44256 3.17382,-11.6875 -0.82133,-1.24493 -5.24027,-3.82171 -7.26757,-3.23437 1.11682,-4.63426 10.29819,-1.30085 13.16015,1.37305 2.86198,2.6739 5.33207,3.31472 6.78125,13.47851 1.4492,10.1638 14.31864,52.95539 25.41797,77.98438 -4.95389,8.59265 -3.27965,16.94501 3.46485,17.2539 0,0 -2.0858,1.35197 -2.62891,5.3711 -16.73936,-1.85198 -9.96924,-1.60094 -85.34766,-119.99805 -75.37842,-118.39711 -74.51219,23.79106 -57.84765,66.27539 16.66453,42.48433 -47.70162,75.83185 41.93554,83.9082 4.05753,2.0397 2.40241,4.58738 -0.57617,3.46289 -41.142,20.91784 -42.78741,144.59914 11.54297,143.13282 54.33037,-1.46633 78.92292,33.45637 83.30859,-27.33399 4.38567,-60.79034 -3.96443,-134.66844 6.98438,-137.03906 1.40096,47.8737 -0.63066,79.56241 10.41992,79.53125 11.04981,-0.0311 9.01308,-31.64098 10.41406,-79.54102 10.65644,3.19959 2.43537,76.54606 6.79493,136.97461 4.38567,60.79036 28.97628,25.86767 83.30664,27.33399 54.33037,1.46633 52.68492,-122.21499 11.54296,-143.13281 -2.97858,1.12448 -4.63369,-1.42319 -0.57617,-3.46289 89.63718,-8.07636 25.27102,-41.42388 41.93555,-83.90821 11.97763,-30.53561 15.79485,-112.57788 -10.99414,-112.34961 z"
       transform="matrix(0.9375,0,0,0.9375,0,308.2677)"
       id="path925"
       inkscape:connector-curvature="0" />
  </g>
  <g
     inkscape:groupmode="layer"
     id="layer1"
     inkscape:label="Overlay"
     style="display:inline"
     transform="translate(0,-308.2677)">
    <path
       style="display:inline;opacity:1;fill:none;stroke:#c0c0c0;stroke-width:0.35433072;stroke-linecap:round;stroke-linejoin:round;stroke-miterlimit:4;stroke-dasharray:none;stroke-opacity:1"
       d="m 562.39204,541.30476 c -1.21481,5.83197 -1.12016,7.27461 -0.19131,7.74764"
       id="path943"
       inkscape:connector-curvature="0"
       sodipodi:nodetypes="cc" />
    <path
       style="display:inline;opacity:1;fill:none;stroke:#c0c0c0;stroke-width:0.35433072;stroke-linecap:round;stroke-linejoin:round;stroke-miterlimit:4;stroke-dasharray:none;stroke-opacity:1"
       d="m 668.81385,541.78483 c 1.21481,5.83198 1.12016,7.27462 0.1913,7.74765"
       id="path943-6"
       inkscape:connector-curvature="0"
       sodipodi:nodetypes="cc" />
    <path
       style="fill:none;stroke:#c0c0c0;stroke-width:0.35433072;stroke-linecap:round;stroke-linejoin:round;stroke-miterlimit:4;stroke-dasharray:none;stroke-dashoffset:0;stroke-opacity:1"
       d="m 608.11992,644.45537 c 4.92259,0.2653 9.84242,0.50857 14.67673,0.0676"
       id="path961"
       inkscape:connector-curvature="0"
       sodipodi:nodetypes="cc" />
    <path
       style="fill:none;stroke:#c0c0c0;stroke-width:0.35433072;stroke-linecap:round;stroke-linejoin:round;stroke-miterlimit:4;stroke-dasharray:none;stroke-opacity:1"
       d="m 605.69752,649.58043 c -0.17246,3.58179 -0.16193,7.46613 0,11.69319"
       id="path963"
       inkscape:connector-curvature="0"
       sodipodi:nodetypes="cc" />
    <path
       style="fill:none;stroke:#c0c0c0;stroke-width:0.35433072;stroke-linecap:round;stroke-linejoin:round;stroke-miterlimit:4;stroke-dasharray:none;stroke-opacity:1"
       d="m 625.2101,649.50869 c 0.17185,4.0696 0.14954,7.82545 0.0239,11.71711"
       id="path965"
       inkscape:connector-curvature="0"
       sodipodi:nodetypes="cc" />
  </g>
  <g
     inkscape:groupmode="layer"
     id="layer3"
     inkscape:label="Detailed"
     style="display:inline">
    <path
       style="fill:none;stroke:#c0c0c0;stroke-width:0.35433072;stroke-linecap:round;stroke-linejoin:round;stroke-miterlimit:4;stroke-dasharray:none;stroke-opacity:1"
       d="m 510.8496,369.6072 c 73.70117,4.30831 63.02734,11.26606 94.54101,-19.61426"
       id="path1700"
       inkscape:connector-curvature="0"
       sodipodi:nodetypes="cc" />
    <path
       style="fill:none;stroke:#c0c0c0;stroke-width:0.35433072;stroke-linecap:round;stroke-linejoin:round;stroke-miterlimit:4;stroke-dasharray:none;stroke-opacity:1"
       d="m 519.84375,397.21949 c -15.92236,10.28169 -13.72004,59.25813 -2.34375,74.0625 11.37629,14.80437 41.36372,18.73491 55.78125,13.59375 14.41753,-5.14116 19.75657,-51.26918 12.65625,-81.5625 -7.10032,-30.29332 -50.17139,-16.37544 -66.09375,-6.09375 z"
       id="path1702"
       inkscape:connector-curvature="0"
       sodipodi:nodetypes="zzzzz" />
    <path
       style="fill:none;stroke:#c0c0c0;stroke-width:0.35433072;stroke-linecap:round;stroke-linejoin:round;stroke-miterlimit:4;stroke-dasharray:none;stroke-opacity:1"
       d="m 492.02637,227.36344 c -9.82861,2.78169 7.3737,45.19564 3.74999,76.87501 -3.62371,31.67937 -9.26129,47.32866 44.0625,47.8125 53.32379,0.48384 35.69408,-16.58168 15.93751,-36.09376 -19.75657,-19.51208 -53.92139,-91.37544 -63.75,-88.59375 z"
       id="path1702-9"
       inkscape:connector-curvature="0"
       sodipodi:nodetypes="zzzzz" />
    <path
       style="fill:none;stroke:#c0c0c0;stroke-width:0.35433072;stroke-linecap:round;stroke-linejoin:round;stroke-miterlimit:4;stroke-dasharray:none;stroke-opacity:1"
       d="m 720.05375,369.6072 c -73.70117,4.30831 -63.02734,11.26606 -94.54101,-19.61426"
       id="path1700-1"
       inkscape:connector-curvature="0"
       sodipodi:nodetypes="cc" />
    <path
       style="fill:none;stroke:#c0c0c0;stroke-width:0.35433072;stroke-linecap:round;stroke-linejoin:round;stroke-miterlimit:4;stroke-dasharray:none;stroke-opacity:1"
       d="m 711.0596,397.21949 c 15.92236,10.28169 13.72004,59.25813 2.34375,74.0625 -11.37629,14.80437 -41.36372,18.73491 -55.78125,13.59375 -14.41754,-5.14116 -19.75657,-51.26918 -12.65626,-81.5625 7.10033,-30.29333 50.1714,-16.37544 66.09376,-6.09375 z"
       id="path1702-2"
       inkscape:connector-curvature="0"
       sodipodi:nodetypes="zzzzz" />
    <path
       style="fill:none;stroke:#c0c0c0;stroke-width:0.35433072;stroke-linecap:round;stroke-linejoin:round;stroke-miterlimit:4;stroke-dasharray:none;stroke-opacity:1"
       d="m 738.87698,227.36344 c 9.82861,2.78169 -7.3737,45.19564 -3.74999,76.87501 3.62371,31.67938 9.26129,47.32867 -44.0625,47.81251 -53.3238,0.48384 -35.69408,-16.58168 -15.93751,-36.09377 19.75657,-19.51208 53.92139,-91.37544 63.75,-88.59375 z"
       id="path1702-9-7"
       inkscape:connector-curvature="0"
       sodipodi:nodetypes="zzzzz" />
    <path
       style="fill:none;stroke:#c0c0c0;stroke-width:0.35433072;stroke-linecap:round;stroke-linejoin:round;stroke-miterlimit:4;stroke-dasharray:none;stroke-opacity:1"
       d="m 534.44978,416.80081 c -7.87641,5.08611 -6.78698,29.31359 -1.1594,36.63695 5.62758,7.32337 20.46165,9.26772 27.59366,6.72451 7.13201,-2.54321 9.7731,-25.36164 6.26074,-40.34703 -3.51236,-14.98538 -24.81859,-8.10054 -32.695,-3.01443 z"
       id="path1702-0"
       inkscape:connector-curvature="0"
       sodipodi:nodetypes="zzzzz" />
    <path
       style="fill:none;stroke:#c0c0c0;stroke-width:0.35433072;stroke-linecap:round;stroke-linejoin:round;stroke-miterlimit:4;stroke-dasharray:none;stroke-opacity:1"
       d="m 696.45385,416.79999 c 7.87641,5.08611 6.78698,29.31359 1.1594,36.63695 -5.62758,7.32337 -20.46165,9.26772 -27.59366,6.72451 -7.13201,-2.54321 -9.7731,-25.36164 -6.26074,-40.34703 3.51236,-14.98538 24.81859,-8.10054 32.695,-3.01443 z"
       id="path1702-0-9"
       inkscape:connector-curvature="0"
       sodipodi:nodetypes="zzzzz" />
  </g>
</svg>
