<?xml version="1.0" encoding="UTF-8" standalone="no"?>
<!-- Created with Inkscape (http://www.inkscape.org/) -->

<svg
   xmlns:dc="http://purl.org/dc/elements/1.1/"
   xmlns:cc="http://creativecommons.org/ns#"
   xmlns:rdf="http://www.w3.org/1999/02/22-rdf-syntax-ns#"
   xmlns:svg="http://www.w3.org/2000/svg"
   xmlns="http://www.w3.org/2000/svg"
   xmlns:sodipodi="http://sodipodi.sourceforge.net/DTD/sodipodi-0.dtd"
   xmlns:inkscape="http://www.inkscape.org/namespaces/inkscape"
   width="1052.3622"
   height="744.09448"
   id="svg2"
   version="1.1"
   inkscape:version="0.48.3.1 r9886"
   sodipodi:docname="Heart.svg">
  <defs
     id="defs4" />
  <sodipodi:namedview
     id="base"
     pagecolor="#ffffff"
     bordercolor="#666666"
     borderopacity="1.0"
     inkscape:pageopacity="0.0"
     inkscape:pageshadow="2"
     inkscape:zoom="0.45649061"
     inkscape:cx="938.38107"
     inkscape:cy="809.07162"
     inkscape:document-units="mm"
     inkscape:current-layer="Mask"
     showgrid="false"
     units="mm"
     inkscape:window-width="1920"
     inkscape:window-height="1080"
     inkscape:window-x="1920"
     inkscape:window-y="0"
     inkscape:window-maximized="0" />
  <metadata
     id="metadata7">
    <rdf:RDF>
      <cc:Work
         rdf:about="">
        <dc:format>image/svg+xml</dc:format>
        <dc:type
           rdf:resource="http://purl.org/dc/dcmitype/StillImage" />
        <dc:title />
      </cc:Work>
    </rdf:RDF>
  </metadata>
  <g
     inkscape:groupmode="layer"
     id="layer3"
     inkscape:label="Meta"
     style="display:inline"
     transform="translate(0,-308.2677)">
    <path
       style="fill:#000000"
       d="m 35.433071,749.21258 11.904762,0 0,11.90476 -11.904762,0 z m 11.904762,0 11.904762,0 0,11.90476 -11.904762,0 z m 11.904762,0 11.904762,0 0,11.90476 -11.904762,0 z m 11.904762,0 11.904762,0 0,11.90476 -11.904762,0 z m 11.904762,0 11.904762,0 0,11.90476 -11.904762,0 z m 11.904762,0 11.904759,0 0,11.90476 -11.904759,0 z m 11.904759,0 11.90476,0 0,11.90476 -11.90476,0 z m 35.71429,0 11.90476,0 0,11.90476 -11.90476,0 z m 35.71428,0 11.90476,0 0,11.90476 -11.90476,0 z m 23.80953,0 11.90476,0 0,11.90476 -11.90476,0 z m 11.90476,0 11.90476,0 0,11.90476 -11.90476,0 z m 11.90476,0 11.90476,0 0,11.90476 -11.90476,0 z m 11.90476,0 11.90476,0 0,11.90476 -11.90476,0 z m 11.90476,0 11.90477,0 0,11.90476 -11.90477,0 z m 11.90477,0 11.90476,0 0,11.90476 -11.90476,0 z m 11.90476,0 11.90476,0 0,11.90476 -11.90476,0 z m -238.095239,11.90476 11.904762,0 0,11.90476 -11.904762,0 z m 71.428569,0 11.90476,0 0,11.90476 -11.90476,0 z m 23.80953,0 11.90476,0 0,11.90476 -11.90476,0 z m 35.71428,0 11.90476,0 0,11.90476 -11.90476,0 z m 35.71429,0 11.90476,0 0,11.90476 -11.90476,0 z m 71.42857,0 11.90476,0 0,11.90476 -11.90476,0 z m -238.095239,11.90476 11.904762,0 0,11.90476 -11.904762,0 z m 23.809524,0 11.904762,0 0,11.90476 -11.904762,0 z m 11.904762,0 11.904762,0 0,11.90476 -11.904762,0 z m 11.904762,0 11.904762,0 0,11.90476 -11.904762,0 z m 23.809521,0 11.90476,0 0,11.90476 -11.90476,0 z m 35.71429,0 11.90476,0 0,11.90476 -11.90476,0 z m 59.52381,0 11.90476,0 0,11.90476 -11.90476,0 z m 23.80952,0 11.90476,0 0,11.90476 -11.90476,0 z m 11.90476,0 11.90476,0 0,11.90476 -11.90476,0 z m 11.90476,0 11.90477,0 0,11.90476 -11.90477,0 z m 23.80953,0 11.90476,0 0,11.90476 -11.90476,0 z m -238.095239,11.90476 11.904762,0 0,11.90476 -11.904762,0 z m 23.809524,0 11.904762,0 0,11.90476 -11.904762,0 z m 11.904762,0 11.904762,0 0,11.90476 -11.904762,0 z m 11.904762,0 11.904762,0 0,11.90476 -11.904762,0 z m 23.809521,0 11.90476,0 0,11.90476 -11.90476,0 z m 23.80953,0 11.90476,0 0,11.90476 -11.90476,0 z m 35.71428,0 11.90476,0 0,11.90476 -11.90476,0 z m 35.71429,0 11.90476,0 0,11.90476 -11.90476,0 z m 23.80952,0 11.90476,0 0,11.90476 -11.90476,0 z m 11.90476,0 11.90476,0 0,11.90476 -11.90476,0 z m 11.90476,0 11.90477,0 0,11.90476 -11.90477,0 z m 23.80953,0 11.90476,0 0,11.90476 -11.90476,0 z m -238.095239,11.90476 11.904762,0 0,11.90477 -11.904762,0 z m 23.809524,0 11.904762,0 0,11.90477 -11.904762,0 z m 11.904762,0 11.904762,0 0,11.90477 -11.904762,0 z m 11.904762,0 11.904762,0 0,11.90477 -11.904762,0 z m 23.809521,0 11.90476,0 0,11.90477 -11.90476,0 z m 47.61905,0 11.90476,0 0,11.90477 -11.90476,0 z m 23.80952,0 11.90476,0 0,11.90477 -11.90476,0 z m 23.80953,0 11.90476,0 0,11.90477 -11.90476,0 z m 23.80952,0 11.90476,0 0,11.90477 -11.90476,0 z m 11.90476,0 11.90476,0 0,11.90477 -11.90476,0 z m 11.90476,0 11.90477,0 0,11.90477 -11.90477,0 z m 23.80953,0 11.90476,0 0,11.90477 -11.90476,0 z m -238.095239,11.90477 11.904762,0 0,11.90476 -11.904762,0 z m 71.428569,0 11.90476,0 0,11.90476 -11.90476,0 z m 23.80953,0 11.90476,0 0,11.90476 -11.90476,0 z m 11.90476,0 11.90476,0 0,11.90476 -11.90476,0 z m 11.90476,0 11.90476,0 0,11.90476 -11.90476,0 z m 23.80952,0 11.90476,0 0,11.90476 -11.90476,0 z m 23.80953,0 11.90476,0 0,11.90476 -11.90476,0 z m 71.42857,0 11.90476,0 0,11.90476 -11.90476,0 z m -238.095239,11.90476 11.904762,0 0,11.90476 -11.904762,0 z m 11.904762,0 11.904762,0 0,11.90476 -11.904762,0 z m 11.904762,0 11.904762,0 0,11.90476 -11.904762,0 z m 11.904762,0 11.904762,0 0,11.90476 -11.904762,0 z m 11.904762,0 11.904762,0 0,11.90476 -11.904762,0 z m 11.904762,0 11.904759,0 0,11.90476 -11.904759,0 z m 11.904759,0 11.90476,0 0,11.90476 -11.90476,0 z m 23.80953,0 11.90476,0 0,11.90476 -11.90476,0 z m 23.80952,0 11.90476,0 0,11.90476 -11.90476,0 z m 23.80952,0 11.90476,0 0,11.90476 -11.90476,0 z m 23.80953,0 11.90476,0 0,11.90476 -11.90476,0 z m 11.90476,0 11.90476,0 0,11.90476 -11.90476,0 z m 11.90476,0 11.90476,0 0,11.90476 -11.90476,0 z m 11.90476,0 11.90476,0 0,11.90476 -11.90476,0 z m 11.90476,0 11.90477,0 0,11.90476 -11.90477,0 z m 11.90477,0 11.90476,0 0,11.90476 -11.90476,0 z m 11.90476,0 11.90476,0 0,11.90476 -11.90476,0 z m -119.04762,11.90476 11.90476,0 0,11.90476 -11.90476,0 z m 23.80952,0 11.90476,0 0,11.90476 -11.90476,0 z m -142.857139,11.90476 11.904762,0 0,11.90476 -11.904762,0 z m 11.904762,0 11.904762,0 0,11.90476 -11.904762,0 z m 11.904762,0 11.904762,0 0,11.90476 -11.904762,0 z m 11.904762,0 11.904762,0 0,11.90476 -11.904762,0 z m 11.904762,0 11.904762,0 0,11.90476 -11.904762,0 z m 23.809521,0 11.90476,0 0,11.90476 -11.90476,0 z m 11.90476,0 11.90477,0 0,11.90476 -11.90477,0 z m 11.90477,0 11.90476,0 0,11.90476 -11.90476,0 z m 11.90476,0 11.90476,0 0,11.90476 -11.90476,0 z m 23.80952,0 11.90476,0 0,11.90476 -11.90476,0 z m 11.90476,0 11.90476,0 0,11.90476 -11.90476,0 z m 11.90476,0 11.90477,0 0,11.90476 -11.90477,0 z m 23.80953,0 11.90476,0 0,11.90476 -11.90476,0 z m 23.80952,0 11.90476,0 0,11.90476 -11.90476,0 z m 23.80953,0 11.90476,0 0,11.90476 -11.90476,0 z m -226.190479,11.90476 11.904762,0 0,11.90477 -11.904762,0 z m 23.809524,0 11.904762,0 0,11.90477 -11.904762,0 z m 23.809524,0 11.904762,0 0,11.90477 -11.904762,0 z m 59.523811,0 11.90476,0 0,11.90477 -11.90476,0 z m 11.90476,0 11.90476,0 0,11.90477 -11.90476,0 z m 11.90476,0 11.90476,0 0,11.90477 -11.90476,0 z m 59.52381,0 11.90476,0 0,11.90477 -11.90476,0 z m 23.80952,0 11.90477,0 0,11.90477 -11.90477,0 z m 23.80953,0 11.90476,0 0,11.90477 -11.90476,0 z m -238.095239,11.90477 11.904762,0 0,11.90476 -11.904762,0 z m 11.904762,0 11.904762,0 0,11.90476 -11.904762,0 z m 11.904762,0 11.904762,0 0,11.90476 -11.904762,0 z m 11.904762,0 11.904762,0 0,11.90476 -11.904762,0 z m 11.904762,0 11.904762,0 0,11.90476 -11.904762,0 z m 23.809521,0 11.90476,0 0,11.90476 -11.90476,0 z m 47.61905,0 11.90476,0 0,11.90476 -11.90476,0 z m 11.90476,0 11.90476,0 0,11.90476 -11.90476,0 z m 11.90476,0 11.90476,0 0,11.90476 -11.90476,0 z m 11.90476,0 11.90477,0 0,11.90476 -11.90477,0 z m 11.90477,0 11.90476,0 0,11.90476 -11.90476,0 z m 35.71428,0 11.90476,0 0,11.90476 -11.90476,0 z m 11.90476,0 11.90477,0 0,11.90476 -11.90477,0 z m 11.90477,0 11.90476,0 0,11.90476 -11.90476,0 z m -226.190479,11.90476 11.904762,0 0,11.90476 -11.904762,0 z m 11.904762,0 11.904762,0 0,11.90476 -11.904762,0 z m 23.809524,0 11.904762,0 0,11.90476 -11.904762,0 z m 47.619043,0 11.90477,0 0,11.90476 -11.90477,0 z m 35.71429,0 11.90476,0 0,11.90476 -11.90476,0 z m 59.52381,0 11.90476,0 0,11.90476 -11.90476,0 z m 11.90476,0 11.90476,0 0,11.90476 -11.90476,0 z m 11.90476,0 11.90476,0 0,11.90476 -11.90476,0 z m 11.90476,0 11.90477,0 0,11.90476 -11.90477,0 z m 23.80953,0 11.90476,0 0,11.90476 -11.90476,0 z m -238.095239,11.90476 11.904762,0 0,11.90476 -11.904762,0 z m 59.52381,0 11.904759,0 0,11.90476 -11.904759,0 z m 11.904759,0 11.90476,0 0,11.90476 -11.90476,0 z m 23.80953,0 11.90476,0 0,11.90476 -11.90476,0 z m 23.80952,0 11.90476,0 0,11.90476 -11.90476,0 z m 23.80952,0 11.90476,0 0,11.90476 -11.90476,0 z m 11.90476,0 11.90477,0 0,11.90476 -11.90477,0 z m 11.90477,0 11.90476,0 0,11.90476 -11.90476,0 z m 23.80952,0 11.90476,0 0,11.90476 -11.90476,0 z m -95.23809,11.90476 11.90476,0 0,11.90477 -11.90476,0 z m 23.80952,0 11.90476,0 0,11.90477 -11.90476,0 z m 11.90476,0 11.90476,0 0,11.90477 -11.90476,0 z m 35.71429,0 11.90476,0 0,11.90477 -11.90476,0 z m 11.90476,0 11.90476,0 0,11.90477 -11.90476,0 z m 11.90476,0 11.90476,0 0,11.90477 -11.90476,0 z m 11.90476,0 11.90476,0 0,11.90477 -11.90476,0 z m 35.71429,0 11.90476,0 0,11.90477 -11.90476,0 z m -238.095239,11.90477 11.904762,0 0,11.90476 -11.904762,0 z m 11.904762,0 11.904762,0 0,11.90476 -11.904762,0 z m 11.904762,0 11.904762,0 0,11.90476 -11.904762,0 z m 11.904762,0 11.904762,0 0,11.90476 -11.904762,0 z m 11.904762,0 11.904762,0 0,11.90476 -11.904762,0 z m 11.904762,0 11.904759,0 0,11.90476 -11.904759,0 z m 11.904759,0 11.90476,0 0,11.90476 -11.90476,0 z m 23.80953,0 11.90476,0 0,11.90476 -11.90476,0 z m 11.90476,0 11.90476,0 0,11.90476 -11.90476,0 z m 11.90476,0 11.90476,0 0,11.90476 -11.90476,0 z m 11.90476,0 11.90476,0 0,11.90476 -11.90476,0 z m 11.90476,0 11.90476,0 0,11.90476 -11.90476,0 z m 23.80953,0 11.90476,0 0,11.90476 -11.90476,0 z m 47.61904,0 11.90477,0 0,11.90476 -11.90477,0 z m 11.90477,0 11.90476,0 0,11.90476 -11.90476,0 z m -226.190479,11.90476 11.904762,0 0,11.90476 -11.904762,0 z m 71.428569,0 11.90476,0 0,11.90476 -11.90476,0 z m 35.71429,0 11.90476,0 0,11.90476 -11.90476,0 z m 11.90476,0 11.90476,0 0,11.90476 -11.90476,0 z m 11.90476,0 11.90476,0 0,11.90476 -11.90476,0 z m 11.90476,0 11.90476,0 0,11.90476 -11.90476,0 z m 11.90476,0 11.90477,0 0,11.90476 -11.90477,0 z m 35.71429,0 11.90476,0 0,11.90476 -11.90476,0 z m 11.90476,0 11.90476,0 0,11.90476 -11.90476,0 z m 11.90476,0 11.90477,0 0,11.90476 -11.90477,0 z m 23.80953,0 11.90476,0 0,11.90476 -11.90476,0 z m -238.095239,11.90476 11.904762,0 0,11.90476 -11.904762,0 z m 23.809524,0 11.904762,0 0,11.90476 -11.904762,0 z m 11.904762,0 11.904762,0 0,11.90476 -11.904762,0 z m 11.904762,0 11.904762,0 0,11.90476 -11.904762,0 z m 23.809521,0 11.90476,0 0,11.90476 -11.90476,0 z m 23.80953,0 11.90476,0 0,11.90476 -11.90476,0 z m 11.90476,0 11.90476,0 0,11.90476 -11.90476,0 z m 35.71428,0 11.90476,0 0,11.90476 -11.90476,0 z m 47.61905,0 11.90476,0 0,11.90476 -11.90476,0 z m 35.71429,0 11.90476,0 0,11.90476 -11.90476,0 z m 11.90476,0 11.90476,0 0,11.90476 -11.90476,0 z m -238.095239,11.90476 11.904762,0 0,11.90476 -11.904762,0 z m 23.809524,0 11.904762,0 0,11.90476 -11.904762,0 z m 11.904762,0 11.904762,0 0,11.90476 -11.904762,0 z m 11.904762,0 11.904762,0 0,11.90476 -11.904762,0 z m 23.809521,0 11.90476,0 0,11.90476 -11.90476,0 z m 23.80953,0 11.90476,0 0,11.90476 -11.90476,0 z m 71.42857,0 11.90476,0 0,11.90476 -11.90476,0 z m 11.90476,0 11.90476,0 0,11.90476 -11.90476,0 z m 11.90476,0 11.90476,0 0,11.90476 -11.90476,0 z m 11.90476,0 11.90476,0 0,11.90476 -11.90476,0 z m -202.380949,11.90476 11.904762,0 0,11.90477 -11.904762,0 z m 23.809524,0 11.904762,0 0,11.90477 -11.904762,0 z m 11.904762,0 11.904762,0 0,11.90477 -11.904762,0 z m 11.904762,0 11.904762,0 0,11.90477 -11.904762,0 z m 23.809521,0 11.90476,0 0,11.90477 -11.90476,0 z m 23.80953,0 11.90476,0 0,11.90477 -11.90476,0 z m 11.90476,0 11.90476,0 0,11.90477 -11.90476,0 z m 11.90476,0 11.90476,0 0,11.90477 -11.90476,0 z m 11.90476,0 11.90476,0 0,11.90477 -11.90476,0 z m 11.90476,0 11.90476,0 0,11.90477 -11.90476,0 z m 71.42857,0 11.90477,0 0,11.90477 -11.90477,0 z m -214.285709,11.90477 11.904762,0 0,11.90476 -11.904762,0 z m 71.428569,0 11.90476,0 0,11.90476 -11.90476,0 z m 23.80953,0 11.90476,0 0,11.90476 -11.90476,0 z m 23.80952,0 11.90476,0 0,11.90476 -11.90476,0 z m 11.90476,0 11.90476,0 0,11.90476 -11.90476,0 z m 11.90476,0 11.90476,0 0,11.90476 -11.90476,0 z m 11.90476,0 11.90477,0 0,11.90476 -11.90477,0 z m 35.71429,0 11.90476,0 0,11.90476 -11.90476,0 z m 11.90476,0 11.90476,0 0,11.90476 -11.90476,0 z m 11.90476,0 11.90477,0 0,11.90476 -11.90477,0 z m -214.285709,11.90476 11.904762,0 0,11.90476 -11.904762,0 z m 11.904762,0 11.904762,0 0,11.90476 -11.904762,0 z m 11.904762,0 11.904762,0 0,11.90476 -11.904762,0 z m 11.904762,0 11.904762,0 0,11.90476 -11.904762,0 z m 11.904762,0 11.904762,0 0,11.90476 -11.904762,0 z m 11.904762,0 11.904759,0 0,11.90476 -11.904759,0 z m 11.904759,0 11.90476,0 0,11.90476 -11.90476,0 z m 23.80953,0 11.90476,0 0,11.90476 -11.90476,0 z m 35.71428,0 11.90476,0 0,11.90476 -11.90476,0 z m 11.90476,0 11.90476,0 0,11.90476 -11.90476,0 z m 23.80953,0 11.90476,0 0,11.90476 -11.90476,0 z m 23.80952,0 11.90476,0 0,11.90476 -11.90476,0 z m 35.71429,0 11.90476,0 0,11.90476 -11.90476,0 z"
       id="path7"
       inkscape:connector-curvature="0" />
    <text
       xml:space="preserve"
       style="font-size:12px;line-height:125%;letter-spacing:0px;word-spacing:0px;color:#000000;fill:#000000;fill-opacity:1;fill-rule:nonzero;stroke:none;stroke-width:1px;marker:none;visibility:visible;display:inline;overflow:visible;enable-background:accumulate"
       x="34.782681"
       y="1014.433"
       id="text2990"
       sodipodi:linespacing="125%"><tspan
         sodipodi:role="line"
         id="tspan2992"
         x="34.782681"
         y="1014.433">balloons:Heart</tspan></text>
  </g>
  <g
     inkscape:label="Mask"
     inkscape:groupmode="layer"
     id="Mask"
     style="display:inline"
     transform="translate(0,-308.2677)">
    <path
       style="color:#000000;fill:#ffffff;fill-opacity:1;fill-rule:nonzero;stroke:#808080;stroke-width:0.70866141999999999;stroke-miterlimit:4;stroke-opacity:1;stroke-dasharray:none;marker:none;visibility:visible;display:inline;overflow:visible;enable-background:accumulate;stroke-linejoin:round;stroke-linecap:round"
       d="M 609.44882,354.3307 718.28125,471.5 l 0.28125,0 c 0.0503,0.0499 0.1062,0.11539 0.15625,0.15625 l -9.75,17.34375 8.8125,-2.1875 9,4.84375 5.6875,-3.40625 -9.9375,-16.5 c 0.65789,-0.5172 1.35801,-1.36297 2.125,-2.4375 0.009,-0.0124 0.0224,-0.0188 0.0312,-0.0312 L 829.13381,354.3438 C 922.6766,248.8004 827.53655,140.24511 728.1895,232.76637 641.01265,137.47514 518.90519,251.00023 609.44882,354.3307 z"
       transform="translate(0,308.2677)"
       id="path2991-3"
       inkscape:connector-curvature="0"
       sodipodi:nodetypes="cccccccccccccc" />
  </g>
  <g
     inkscape:groupmode="layer"
     id="layer1"
     inkscape:label="Overlay"
     style="display:inline"
     transform="translate(0,-308.2677)" />
</svg>
