<?xml version="1.0" encoding="UTF-8" standalone="no"?>
<!-- Created with Inkscape (http://www.inkscape.org/) -->

<svg
   xmlns:dc="http://purl.org/dc/elements/1.1/"
   xmlns:cc="http://creativecommons.org/ns#"
   xmlns:rdf="http://www.w3.org/1999/02/22-rdf-syntax-ns#"
   xmlns:svg="http://www.w3.org/2000/svg"
   xmlns="http://www.w3.org/2000/svg"
   xmlns:sodipodi="http://sodipodi.sourceforge.net/DTD/sodipodi-0.dtd"
   xmlns:inkscape="http://www.inkscape.org/namespaces/inkscape"
   width="297mm"
   height="210mm"
   id="svg2"
   version="1.1"
   inkscape:version="0.92.3 (2405546, 2018-03-11)"
   sodipodi:docname="Heart.svg"
   viewBox="0 0 1052.3622 744.09446">
  <defs
     id="defs4" />
  <sodipodi:namedview
     id="base"
     pagecolor="#ffffff"
     bordercolor="#666666"
     borderopacity="1.0"
     inkscape:pageopacity="0.0"
     inkscape:pageshadow="2"
     inkscape:zoom="0.45649061"
     inkscape:cx="938.38107"
     inkscape:cy="809.07162"
     inkscape:document-units="mm"
     inkscape:current-layer="Mask"
     showgrid="false"
     units="mm"
     inkscape:window-width="1920"
     inkscape:window-height="1080"
     inkscape:window-x="1920"
     inkscape:window-y="0"
     inkscape:window-maximized="0" />
  <metadata
     id="metadata7">
    <rdf:RDF>
      <cc:Work
         rdf:about="">
        <dc:format>image/svg+xml</dc:format>
        <dc:type
           rdf:resource="http://purl.org/dc/dcmitype/StillImage" />
        <dc:title></dc:title>
      </cc:Work>
    </rdf:RDF>
  </metadata>
  <g
     inkscape:groupmode="layer"
     id="layer3"
     inkscape:label="Meta-manual"
     style="display:inline"
     transform="translate(0,-308.26772)">
    <path
       style="fill:#000000"
       d="m 35.433071,749.21258 h 11.904762 v 11.90476 H 35.433071 Z m 11.904762,0 h 11.904762 v 11.90476 H 47.337833 Z m 11.904762,0 h 11.904762 v 11.90476 H 59.242595 Z m 11.904762,0 h 11.904762 v 11.90476 H 71.147357 Z m 11.904762,0 h 11.904762 v 11.90476 H 83.052119 Z m 11.904762,0 h 11.904759 v 11.90476 H 94.956881 Z m 11.904759,0 h 11.90476 v 11.90476 h -11.90476 z m 35.71429,0 h 11.90476 v 11.90476 h -11.90476 z m 35.71428,0 h 11.90476 v 11.90476 h -11.90476 z m 23.80953,0 h 11.90476 v 11.90476 h -11.90476 z m 11.90476,0 h 11.90476 v 11.90476 H 214.0045 Z m 11.90476,0 h 11.90476 v 11.90476 h -11.90476 z m 11.90476,0 h 11.90476 v 11.90476 h -11.90476 z m 11.90476,0 h 11.90477 v 11.90476 h -11.90477 z m 11.90477,0 h 11.90476 v 11.90476 h -11.90476 z m 11.90476,0 h 11.90476 v 11.90476 H 273.52831 Z M 35.433071,761.11734 H 47.337833 V 773.0221 H 35.433071 Z m 71.428569,0 h 11.90476 v 11.90476 h -11.90476 z m 23.80953,0 h 11.90476 v 11.90476 h -11.90476 z m 35.71428,0 h 11.90476 v 11.90476 h -11.90476 z m 35.71429,0 h 11.90476 v 11.90476 h -11.90476 z m 71.42857,0 h 11.90476 V 773.0221 H 273.52831 Z M 35.433071,773.0221 h 11.904762 v 11.90476 H 35.433071 Z m 23.809524,0 h 11.904762 v 11.90476 H 59.242595 Z m 11.904762,0 h 11.904762 v 11.90476 H 71.147357 Z m 11.904762,0 h 11.904762 v 11.90476 H 83.052119 Z m 23.809521,0 h 11.90476 v 11.90476 h -11.90476 z m 35.71429,0 h 11.90476 v 11.90476 h -11.90476 z m 59.52381,0 h 11.90476 v 11.90476 h -11.90476 z m 23.80952,0 h 11.90476 v 11.90476 h -11.90476 z m 11.90476,0 h 11.90476 v 11.90476 h -11.90476 z m 11.90476,0 h 11.90477 v 11.90476 h -11.90477 z m 23.80953,0 h 11.90476 v 11.90476 H 273.52831 Z M 35.433071,784.92686 h 11.904762 v 11.90476 H 35.433071 Z m 23.809524,0 h 11.904762 v 11.90476 H 59.242595 Z m 11.904762,0 h 11.904762 v 11.90476 H 71.147357 Z m 11.904762,0 h 11.904762 v 11.90476 H 83.052119 Z m 23.809521,0 h 11.90476 v 11.90476 h -11.90476 z m 23.80953,0 h 11.90476 v 11.90476 h -11.90476 z m 35.71428,0 h 11.90476 v 11.90476 h -11.90476 z m 35.71429,0 h 11.90476 v 11.90476 h -11.90476 z m 23.80952,0 h 11.90476 v 11.90476 h -11.90476 z m 11.90476,0 h 11.90476 v 11.90476 h -11.90476 z m 11.90476,0 h 11.90477 v 11.90476 h -11.90477 z m 23.80953,0 h 11.90476 v 11.90476 H 273.52831 Z M 35.433071,796.83162 h 11.904762 v 11.90477 H 35.433071 Z m 23.809524,0 h 11.904762 v 11.90477 H 59.242595 Z m 11.904762,0 h 11.904762 v 11.90477 H 71.147357 Z m 11.904762,0 h 11.904762 v 11.90477 H 83.052119 Z m 23.809521,0 h 11.90476 v 11.90477 h -11.90476 z m 47.61905,0 h 11.90476 v 11.90477 h -11.90476 z m 23.80952,0 h 11.90476 v 11.90477 h -11.90476 z m 23.80953,0 h 11.90476 v 11.90477 h -11.90476 z m 23.80952,0 h 11.90476 v 11.90477 h -11.90476 z m 11.90476,0 h 11.90476 v 11.90477 h -11.90476 z m 11.90476,0 h 11.90477 v 11.90477 h -11.90477 z m 23.80953,0 h 11.90476 v 11.90477 H 273.52831 Z M 35.433071,808.73639 h 11.904762 v 11.90476 H 35.433071 Z m 71.428569,0 h 11.90476 v 11.90476 h -11.90476 z m 23.80953,0 h 11.90476 v 11.90476 h -11.90476 z m 11.90476,0 h 11.90476 v 11.90476 h -11.90476 z m 11.90476,0 h 11.90476 v 11.90476 h -11.90476 z m 23.80952,0 h 11.90476 v 11.90476 h -11.90476 z m 23.80953,0 h 11.90476 v 11.90476 h -11.90476 z m 71.42857,0 h 11.90476 v 11.90476 H 273.52831 Z M 35.433071,820.64115 h 11.904762 v 11.90476 H 35.433071 Z m 11.904762,0 h 11.904762 v 11.90476 H 47.337833 Z m 11.904762,0 h 11.904762 v 11.90476 H 59.242595 Z m 11.904762,0 h 11.904762 v 11.90476 H 71.147357 Z m 11.904762,0 h 11.904762 v 11.90476 H 83.052119 Z m 11.904762,0 h 11.904759 v 11.90476 H 94.956881 Z m 11.904759,0 h 11.90476 v 11.90476 h -11.90476 z m 23.80953,0 h 11.90476 v 11.90476 h -11.90476 z m 23.80952,0 h 11.90476 v 11.90476 h -11.90476 z m 23.80952,0 h 11.90476 v 11.90476 h -11.90476 z m 23.80953,0 h 11.90476 v 11.90476 h -11.90476 z m 11.90476,0 h 11.90476 v 11.90476 H 214.0045 Z m 11.90476,0 h 11.90476 v 11.90476 h -11.90476 z m 11.90476,0 h 11.90476 v 11.90476 h -11.90476 z m 11.90476,0 h 11.90477 v 11.90476 h -11.90477 z m 11.90477,0 h 11.90476 v 11.90476 h -11.90476 z m 11.90476,0 h 11.90476 v 11.90476 h -11.90476 z m -119.04762,11.90476 h 11.90476 v 11.90476 h -11.90476 z m 23.80952,0 h 11.90476 v 11.90476 H 178.29021 Z M 35.433071,844.45067 h 11.904762 v 11.90476 H 35.433071 Z m 11.904762,0 h 11.904762 v 11.90476 H 47.337833 Z m 11.904762,0 h 11.904762 v 11.90476 H 59.242595 Z m 11.904762,0 h 11.904762 v 11.90476 H 71.147357 Z m 11.904762,0 h 11.904762 v 11.90476 H 83.052119 Z m 23.809521,0 h 11.90476 v 11.90476 h -11.90476 z m 11.90476,0 h 11.90477 v 11.90476 H 118.7664 Z m 11.90477,0 h 11.90476 v 11.90476 h -11.90476 z m 11.90476,0 h 11.90476 v 11.90476 h -11.90476 z m 23.80952,0 h 11.90476 v 11.90476 h -11.90476 z m 11.90476,0 h 11.90476 v 11.90476 h -11.90476 z m 11.90476,0 h 11.90477 v 11.90476 h -11.90477 z m 23.80953,0 h 11.90476 v 11.90476 H 214.0045 Z m 23.80952,0 h 11.90476 v 11.90476 h -11.90476 z m 23.80953,0 h 11.90476 v 11.90476 H 261.62355 Z M 35.433071,856.35543 H 47.337833 V 868.2602 H 35.433071 Z m 23.809524,0 H 71.147357 V 868.2602 H 59.242595 Z m 23.809524,0 H 94.956881 V 868.2602 H 83.052119 Z m 59.523811,0 h 11.90476 v 11.90477 h -11.90476 z m 11.90476,0 h 11.90476 v 11.90477 h -11.90476 z m 11.90476,0 h 11.90476 v 11.90477 h -11.90476 z m 59.52381,0 h 11.90476 v 11.90477 h -11.90476 z m 23.80952,0 h 11.90477 v 11.90477 h -11.90477 z m 23.80953,0 h 11.90476 V 868.2602 H 273.52831 Z M 35.433071,868.2602 h 11.904762 v 11.90476 H 35.433071 Z m 11.904762,0 h 11.904762 v 11.90476 H 47.337833 Z m 11.904762,0 h 11.904762 v 11.90476 H 59.242595 Z m 11.904762,0 h 11.904762 v 11.90476 H 71.147357 Z m 11.904762,0 h 11.904762 v 11.90476 H 83.052119 Z m 23.809521,0 h 11.90476 v 11.90476 h -11.90476 z m 47.61905,0 h 11.90476 v 11.90476 h -11.90476 z m 11.90476,0 h 11.90476 v 11.90476 h -11.90476 z m 11.90476,0 h 11.90476 v 11.90476 h -11.90476 z m 11.90476,0 h 11.90477 v 11.90476 h -11.90477 z m 11.90477,0 h 11.90476 v 11.90476 h -11.90476 z m 35.71428,0 h 11.90476 v 11.90476 h -11.90476 z m 11.90476,0 h 11.90477 v 11.90476 h -11.90477 z m 11.90477,0 h 11.90476 v 11.90476 H 261.62355 Z M 35.433071,880.16496 h 11.904762 v 11.90476 H 35.433071 Z m 11.904762,0 h 11.904762 v 11.90476 H 47.337833 Z m 23.809524,0 h 11.904762 v 11.90476 H 71.147357 Z m 47.619043,0 h 11.90477 v 11.90476 H 118.7664 Z m 35.71429,0 h 11.90476 v 11.90476 h -11.90476 z m 59.52381,0 h 11.90476 v 11.90476 H 214.0045 Z m 11.90476,0 h 11.90476 v 11.90476 h -11.90476 z m 11.90476,0 h 11.90476 v 11.90476 h -11.90476 z m 11.90476,0 h 11.90477 v 11.90476 h -11.90477 z m 23.80953,0 h 11.90476 v 11.90476 H 273.52831 Z M 35.433071,892.06972 h 11.904762 v 11.90476 H 35.433071 Z m 59.52381,0 h 11.904759 v 11.90476 H 94.956881 Z m 11.904759,0 h 11.90476 v 11.90476 h -11.90476 z m 23.80953,0 h 11.90476 v 11.90476 h -11.90476 z m 23.80952,0 h 11.90476 v 11.90476 h -11.90476 z m 23.80952,0 h 11.90476 v 11.90476 h -11.90476 z m 11.90476,0 h 11.90477 v 11.90476 h -11.90477 z m 11.90477,0 h 11.90476 v 11.90476 h -11.90476 z m 23.80952,0 h 11.90476 v 11.90476 h -11.90476 z m -95.23809,11.90476 h 11.90476 v 11.90477 h -11.90476 z m 23.80952,0 h 11.90476 v 11.90477 h -11.90476 z m 11.90476,0 h 11.90476 v 11.90477 h -11.90476 z m 35.71429,0 h 11.90476 v 11.90477 h -11.90476 z m 11.90476,0 h 11.90476 v 11.90477 H 214.0045 Z m 11.90476,0 h 11.90476 v 11.90477 h -11.90476 z m 11.90476,0 h 11.90476 v 11.90477 h -11.90476 z m 35.71429,0 h 11.90476 v 11.90477 H 273.52831 Z M 35.433071,915.87925 h 11.904762 v 11.90476 H 35.433071 Z m 11.904762,0 h 11.904762 v 11.90476 H 47.337833 Z m 11.904762,0 h 11.904762 v 11.90476 H 59.242595 Z m 11.904762,0 h 11.904762 v 11.90476 H 71.147357 Z m 11.904762,0 h 11.904762 v 11.90476 H 83.052119 Z m 11.904762,0 h 11.904759 v 11.90476 H 94.956881 Z m 11.904759,0 h 11.90476 v 11.90476 h -11.90476 z m 23.80953,0 h 11.90476 v 11.90476 h -11.90476 z m 11.90476,0 h 11.90476 v 11.90476 h -11.90476 z m 11.90476,0 h 11.90476 v 11.90476 h -11.90476 z m 11.90476,0 h 11.90476 v 11.90476 h -11.90476 z m 11.90476,0 h 11.90476 v 11.90476 h -11.90476 z m 23.80953,0 h 11.90476 v 11.90476 h -11.90476 z m 47.61904,0 h 11.90477 v 11.90476 h -11.90477 z m 11.90477,0 h 11.90476 v 11.90476 H 261.62355 Z M 35.433071,927.78401 h 11.904762 v 11.90476 H 35.433071 Z m 71.428569,0 h 11.90476 v 11.90476 h -11.90476 z m 35.71429,0 h 11.90476 v 11.90476 h -11.90476 z m 11.90476,0 h 11.90476 v 11.90476 h -11.90476 z m 11.90476,0 h 11.90476 v 11.90476 h -11.90476 z m 11.90476,0 h 11.90476 v 11.90476 h -11.90476 z m 11.90476,0 h 11.90477 v 11.90476 h -11.90477 z m 35.71429,0 h 11.90476 v 11.90476 h -11.90476 z m 11.90476,0 h 11.90476 v 11.90476 h -11.90476 z m 11.90476,0 h 11.90477 v 11.90476 h -11.90477 z m 23.80953,0 h 11.90476 v 11.90476 H 273.52831 Z M 35.433071,939.68877 h 11.904762 v 11.90476 H 35.433071 Z m 23.809524,0 h 11.904762 v 11.90476 H 59.242595 Z m 11.904762,0 h 11.904762 v 11.90476 H 71.147357 Z m 11.904762,0 h 11.904762 v 11.90476 H 83.052119 Z m 23.809521,0 h 11.90476 v 11.90476 h -11.90476 z m 23.80953,0 h 11.90476 v 11.90476 h -11.90476 z m 11.90476,0 h 11.90476 v 11.90476 h -11.90476 z m 35.71428,0 h 11.90476 v 11.90476 h -11.90476 z m 47.61905,0 h 11.90476 v 11.90476 h -11.90476 z m 35.71429,0 h 11.90476 v 11.90476 h -11.90476 z m 11.90476,0 h 11.90476 v 11.90476 H 273.52831 Z M 35.433071,951.59353 h 11.904762 v 11.90476 H 35.433071 Z m 23.809524,0 h 11.904762 v 11.90476 H 59.242595 Z m 11.904762,0 h 11.904762 v 11.90476 H 71.147357 Z m 11.904762,0 h 11.904762 v 11.90476 H 83.052119 Z m 23.809521,0 h 11.90476 v 11.90476 h -11.90476 z m 23.80953,0 h 11.90476 v 11.90476 h -11.90476 z m 71.42857,0 h 11.90476 v 11.90476 h -11.90476 z m 11.90476,0 h 11.90476 v 11.90476 H 214.0045 Z m 11.90476,0 h 11.90476 v 11.90476 h -11.90476 z m 11.90476,0 h 11.90476 v 11.90476 H 237.81402 Z M 35.433071,963.49829 h 11.904762 v 11.90477 H 35.433071 Z m 23.809524,0 h 11.904762 v 11.90477 H 59.242595 Z m 11.904762,0 h 11.904762 v 11.90477 H 71.147357 Z m 11.904762,0 h 11.904762 v 11.90477 H 83.052119 Z m 23.809521,0 h 11.90476 v 11.90477 h -11.90476 z m 23.80953,0 h 11.90476 v 11.90477 h -11.90476 z m 11.90476,0 h 11.90476 v 11.90477 h -11.90476 z m 11.90476,0 h 11.90476 v 11.90477 h -11.90476 z m 11.90476,0 h 11.90476 v 11.90477 h -11.90476 z m 11.90476,0 h 11.90476 v 11.90477 h -11.90476 z m 71.42857,0 h 11.90477 v 11.90477 H 249.71878 Z M 35.433071,975.40306 h 11.904762 v 11.90476 H 35.433071 Z m 71.428569,0 h 11.90476 v 11.90476 h -11.90476 z m 23.80953,0 h 11.90476 v 11.90476 h -11.90476 z m 23.80952,0 h 11.90476 v 11.90476 h -11.90476 z m 11.90476,0 h 11.90476 v 11.90476 h -11.90476 z m 11.90476,0 h 11.90476 v 11.90476 h -11.90476 z m 11.90476,0 h 11.90477 v 11.90476 h -11.90477 z m 35.71429,0 h 11.90476 v 11.90476 h -11.90476 z m 11.90476,0 h 11.90476 v 11.90476 h -11.90476 z m 11.90476,0 h 11.90477 v 11.90476 H 249.71878 Z M 35.433071,987.30782 h 11.904762 v 11.90476 H 35.433071 Z m 11.904762,0 h 11.904762 v 11.90476 H 47.337833 Z m 11.904762,0 h 11.904762 v 11.90476 H 59.242595 Z m 11.904762,0 h 11.904762 v 11.90476 H 71.147357 Z m 11.904762,0 h 11.904762 v 11.90476 H 83.052119 Z m 11.904762,0 h 11.904759 v 11.90476 H 94.956881 Z m 11.904759,0 h 11.90476 v 11.90476 h -11.90476 z m 23.80953,0 h 11.90476 v 11.90476 h -11.90476 z m 35.71428,0 h 11.90476 v 11.90476 h -11.90476 z m 11.90476,0 h 11.90476 v 11.90476 h -11.90476 z m 23.80953,0 h 11.90476 v 11.90476 h -11.90476 z m 23.80952,0 h 11.90476 v 11.90476 h -11.90476 z m 35.71429,0 h 11.90476 v 11.90476 h -11.90476 z"
       id="path7"
       inkscape:connector-curvature="0" />
  </g>
  <g
     inkscape:label="Mask"
     inkscape:groupmode="layer"
     id="Mask"
     style="display:inline"
     transform="translate(0,-308.26772)">
    <path
       style="color:#000000;display:inline;overflow:visible;visibility:visible;fill:#ffffff;fill-opacity:1;fill-rule:nonzero;stroke:#808080;stroke-width:0.70866144;stroke-linecap:round;stroke-linejoin:round;stroke-miterlimit:4;stroke-dasharray:none;stroke-opacity:1;marker:none;enable-background:accumulate"
       d="M 609.44882,354.3307 718.28125,471.5 h 0.28125 c 0.0503,0.0499 0.1062,0.11539 0.15625,0.15625 l -9.75,17.34375 8.8125,-2.1875 9,4.84375 5.6875,-3.40625 -9.9375,-16.5 c 0.65789,-0.5172 1.35801,-1.36297 2.125,-2.4375 0.009,-0.0124 0.0224,-0.0188 0.0312,-0.0312 L 829.13381,354.3438 C 922.6766,248.8004 827.53655,140.24511 728.1895,232.76637 641.01265,137.47514 518.90519,251.00023 609.44882,354.3307 Z"
       transform="translate(0,308.2677)"
       id="path2991-3"
       inkscape:connector-curvature="0"
       sodipodi:nodetypes="cccccccccccccc" />
  </g>
  <g
     inkscape:groupmode="layer"
     id="layer1"
     inkscape:label="Overlay"
     style="display:inline"
     transform="translate(0,-308.26772)" />
</svg>
