<?xml version="1.0" encoding="UTF-8" standalone="no"?>
<!-- Created with Inkscape (http://www.inkscape.org/) -->

<svg
   xmlns:dc="http://purl.org/dc/elements/1.1/"
   xmlns:cc="http://creativecommons.org/ns#"
   xmlns:rdf="http://www.w3.org/1999/02/22-rdf-syntax-ns#"
   xmlns:svg="http://www.w3.org/2000/svg"
   xmlns="http://www.w3.org/2000/svg"
   xmlns:sodipodi="http://sodipodi.sourceforge.net/DTD/sodipodi-0.dtd"
   xmlns:inkscape="http://www.inkscape.org/namespaces/inkscape"
   width="297mm"
   height="210mm"
   id="svg2"
   version="1.1"
   inkscape:version="0.92.3 (2405546, 2018-03-11)"
   sodipodi:docname="SimpleRocket-undecorated.svg"
   viewBox="0 0 1052.3622 744.09448">
  <defs
     id="defs4" />
  <sodipodi:namedview
     id="base"
     pagecolor="#ffffff"
     bordercolor="#666666"
     borderopacity="1.0"
     inkscape:pageopacity="0.0"
     inkscape:pageshadow="2"
     inkscape:zoom="1.190709"
     inkscape:cx="409.86384"
     inkscape:cy="405.64067"
     inkscape:document-units="mm"
     inkscape:current-layer="Mask"
     showgrid="false"
     units="mm"
     inkscape:window-width="1920"
     inkscape:window-height="1080"
     inkscape:window-x="1920"
     inkscape:window-y="0"
     inkscape:window-maximized="0" />
  <metadata
     id="metadata7">
    <rdf:RDF>
      <cc:Work
         rdf:about="">
        <dc:format>image/svg+xml</dc:format>
        <dc:type
           rdf:resource="http://purl.org/dc/dcmitype/StillImage" />
        <dc:title />
      </cc:Work>
    </rdf:RDF>
  </metadata>
  <g
     inkscape:label="Mask"
     inkscape:groupmode="layer"
     id="Mask"
     style="display:inline"
     transform="translate(0,-308.2677)">
    <path
       style="display:inline;fill:#ffffff;stroke:#808080;stroke-width:0.70866144;stroke-linecap:butt;stroke-linejoin:miter;stroke-miterlimit:4;stroke-dasharray:none;stroke-opacity:1"
       d="m 338.18749,680.2997 c 0.52961,185.32114 454.84375,184.375 454.84375,184.375 v -119 c 21.11536,1.65647 23.13106,8.89133 28.1875,23.6875 -22.9779,35.58447 -21.03813,67.20692 -20.78125,105.5625 h 105.28125 c 0.2731,-39.05365 -9.86928,-86.73308 -34.5,-112.6875 -24.63073,-25.95443 -51.00675,-43.84577 -78.1875,-43.59375 V 700.7997 c 28.95532,27.71245 74.32268,30.06931 112.6875,29.8125 V 625.33095 c -39.06306,-0.27306 -81.38934,7.12071 -112.6875,34.5 V 641.9872 c 27.18076,0.25203 53.55677,-17.63933 78.1875,-43.59375 24.63073,-25.95443 34.77311,-73.63385 34.5,-112.6875 H 800.43749 c -0.25687,38.35558 -2.19666,69.97803 20.78125,105.5625 -5.05644,14.79617 -7.07214,22.03103 -28.1875,23.6875 v -119 c 0,0 -455.37335,-0.97739 -454.84375,184.34375 z"
       id="path3082"
       inkscape:connector-curvature="0" />
  </g>
  <g
     inkscape:groupmode="layer"
     id="layer1"
     inkscape:label="Overlay"
     style="display:inline"
     transform="translate(0,-308.2677)">
    <path
       style="fill:none;stroke:#c0c0c0;stroke-width:0.35433071;stroke-linecap:butt;stroke-linejoin:miter;stroke-miterlimit:4;stroke-dasharray:none;stroke-opacity:1"
       d="m 793.02913,745.68534 0.004,-26.96367"
       id="path3002"
       inkscape:connector-curvature="0"
       sodipodi:nodetypes="cc" />
    <path
       style="fill:none;stroke:#c0c0c0;stroke-width:0.35433071;stroke-linecap:butt;stroke-linejoin:miter;stroke-miterlimit:4;stroke-dasharray:none;stroke-opacity:1"
       d="m 793.03209,641.94474 -0.004,-27.08623"
       id="path3004"
       inkscape:connector-curvature="0"
       sodipodi:nodetypes="cc" />
    <path
       style="display:inline;fill:none;stroke:#c0c0c0;stroke-width:0.35433071;stroke-linecap:butt;stroke-linejoin:miter;stroke-miterlimit:4;stroke-dasharray:none;stroke-opacity:1"
       d="m 793.03274,701.22214 7.6e-4,-42.10198"
       id="path3004-3"
       inkscape:connector-curvature="0"
       sodipodi:nodetypes="cc" />
  </g>
</svg>
