<?xml version="1.0" encoding="UTF-8" standalone="no"?>
<!-- Created with Inkscape (http://www.inkscape.org/) -->

<svg
   xmlns:dc="http://purl.org/dc/elements/1.1/"
   xmlns:cc="http://creativecommons.org/ns#"
   xmlns:rdf="http://www.w3.org/1999/02/22-rdf-syntax-ns#"
   xmlns:svg="http://www.w3.org/2000/svg"
   xmlns="http://www.w3.org/2000/svg"
   xmlns:sodipodi="http://sodipodi.sourceforge.net/DTD/sodipodi-0.dtd"
   xmlns:inkscape="http://www.inkscape.org/namespaces/inkscape"
   width="1052.3622"
   height="744.09448"
   id="svg2"
   version="1.1"
   inkscape:version="0.48.3.1 r9886"
   sodipodi:docname="SimpleRocket.svg">
  <defs
     id="defs4" />
  <sodipodi:namedview
     id="base"
     pagecolor="#ffffff"
     bordercolor="#666666"
     borderopacity="1.0"
     inkscape:pageopacity="0.0"
     inkscape:pageshadow="2"
     inkscape:zoom="0.88476563"
     inkscape:cx="1103.5233"
     inkscape:cy="375.6094"
     inkscape:document-units="mm"
     inkscape:current-layer="layer1"
     showgrid="false"
     units="mm"
     inkscape:window-width="1920"
     inkscape:window-height="1080"
     inkscape:window-x="1920"
     inkscape:window-y="0"
     inkscape:window-maximized="0" />
  <metadata
     id="metadata7">
    <rdf:RDF>
      <cc:Work
         rdf:about="">
        <dc:format>image/svg+xml</dc:format>
        <dc:type
           rdf:resource="http://purl.org/dc/dcmitype/StillImage" />
        <dc:title />
      </cc:Work>
    </rdf:RDF>
  </metadata>
  <g
     inkscape:groupmode="layer"
     id="layer3"
     inkscape:label="Meta"
     style="display:inline"
     transform="translate(0,-308.2677)">
    <path
       style="fill:#000000;display:inline"
       d="m 35.433043,767.75206 9.967063,0 0,9.96707 -9.967063,0 z m 9.967063,0 9.967099,0 0,9.96707 -9.967099,0 z m 9.967099,0 9.9671,0 0,9.96707 -9.9671,0 z m 9.9671,0 9.967063,0 0,9.96707 -9.967063,0 z m 9.967063,0 9.967097,0 0,9.96707 -9.967097,0 z m 9.967097,0 9.967064,0 0,9.96707 -9.967064,0 z m 9.967064,0 9.967101,0 0,9.96707 -9.967101,0 z m 29.901261,0 9.96706,0 0,9.96707 -9.96706,0 z m 49.83541,0 9.96706,0 0,9.96707 -9.96706,0 z m 19.93417,0 9.96705,0 0,9.96707 -9.96705,0 z m 19.93415,0 9.9671,0 0,9.96707 -9.9671,0 z m 9.9671,0 9.96706,0 0,9.96707 -9.96706,0 z m 9.96706,0 9.9671,0 0,9.96707 -9.9671,0 z m 9.9671,0 9.96706,0 0,9.96707 -9.96706,0 z m 9.96706,0 9.9671,0 0,9.96707 -9.9671,0 z m 9.9671,0 9.96706,0 0,9.96707 -9.96706,0 z m 9.96706,0 9.9671,0 0,9.96707 -9.9671,0 z m -239.209957,9.96707 9.967063,0 0,9.96709 -9.967063,0 z m 59.802486,0 9.967101,0 0,9.96709 -9.967101,0 z m 19.934161,0 9.9671,0 0,9.96709 -9.9671,0 z m 9.9671,0 9.96706,0 0,9.96709 -9.96706,0 z m 19.93414,0 9.96711,0 0,9.96709 -9.96711,0 z m 9.96711,0 9.96706,0 0,9.96709 -9.96706,0 z m 19.93416,0 9.96706,0 0,9.96709 -9.96706,0 z m 9.96706,0 9.96711,0 0,9.96709 -9.96711,0 z m 9.96711,0 9.96705,0 0,9.96709 -9.96705,0 z m 19.93415,0 9.9671,0 0,9.96709 -9.9671,0 z m 59.80248,0 9.9671,0 0,9.96709 -9.9671,0 z m -239.209957,9.96709 9.967063,0 0,9.96707 -9.967063,0 z m 19.934162,0 9.9671,0 0,9.96707 -9.9671,0 z m 9.9671,0 9.967063,0 0,9.96707 -9.967063,0 z m 9.967063,0 9.967097,0 0,9.96707 -9.967097,0 z m 19.934161,0 9.967101,0 0,9.96707 -9.967101,0 z m 29.901261,0 9.96706,0 0,9.96707 -9.96706,0 z m 9.96706,0 9.96708,0 0,9.96707 -9.96708,0 z m 9.96708,0 9.96711,0 0,9.96707 -9.96711,0 z m 39.86833,0 9.96711,0 0,9.96707 -9.96711,0 z m 9.96711,0 9.96705,0 0,9.96707 -9.96705,0 z m 19.93415,0 9.9671,0 0,9.96707 -9.9671,0 z m 19.93416,0 9.9671,0 0,9.96707 -9.9671,0 z m 9.9671,0 9.96706,0 0,9.96707 -9.96706,0 z m 9.96706,0 9.9671,0 0,9.96707 -9.9671,0 z m 19.93416,0 9.9671,0 0,9.96707 -9.9671,0 z m -239.209957,9.96707 9.967063,0 0,9.96709 -9.967063,0 z m 19.934162,0 9.9671,0 0,9.96709 -9.9671,0 z m 9.9671,0 9.967063,0 0,9.96709 -9.967063,0 z m 9.967063,0 9.967097,0 0,9.96709 -9.967097,0 z m 19.934161,0 9.967101,0 0,9.96709 -9.967101,0 z m 19.934161,0 9.9671,0 0,9.96709 -9.9671,0 z m 9.9671,0 9.96706,0 0,9.96709 -9.96706,0 z m 19.93414,0 9.96711,0 0,9.96709 -9.96711,0 z m 39.86833,0 9.96711,0 0,9.96709 -9.96711,0 z m 29.90126,0 9.9671,0 0,9.96709 -9.9671,0 z m 19.93416,0 9.9671,0 0,9.96709 -9.9671,0 z m 9.9671,0 9.96706,0 0,9.96709 -9.96706,0 z m 9.96706,0 9.9671,0 0,9.96709 -9.9671,0 z m 19.93416,0 9.9671,0 0,9.96709 -9.9671,0 z m -239.209957,9.96709 9.967063,0 0,9.96708 -9.967063,0 z m 19.934162,0 9.9671,0 0,9.96708 -9.9671,0 z m 9.9671,0 9.967063,0 0,9.96708 -9.967063,0 z m 9.967063,0 9.967097,0 0,9.96708 -9.967097,0 z m 19.934161,0 9.967101,0 0,9.96708 -9.967101,0 z m 39.868321,0 9.96708,0 0,9.96708 -9.96708,0 z m 19.93419,0 9.96706,0 0,9.96708 -9.96706,0 z m 9.96706,0 9.9671,0 0,9.96708 -9.9671,0 z m 29.90127,0 9.96705,0 0,9.96708 -9.96705,0 z m 19.93415,0 9.9671,0 0,9.96708 -9.9671,0 z m 19.93416,0 9.9671,0 0,9.96708 -9.9671,0 z m 9.9671,0 9.96706,0 0,9.96708 -9.96706,0 z m 9.96706,0 9.9671,0 0,9.96708 -9.9671,0 z m 19.93416,0 9.9671,0 0,9.96708 -9.9671,0 z m -239.209957,9.96708 9.967063,0 0,9.96708 -9.967063,0 z m 59.802486,0 9.967101,0 0,9.96708 -9.967101,0 z m 19.934161,0 9.9671,0 0,9.96708 -9.9671,0 z m 19.93416,0 9.96708,0 0,9.96708 -9.96708,0 z m 29.90125,0 9.9671,0 0,9.96708 -9.9671,0 z m 9.9671,0 9.96706,0 0,9.96708 -9.96706,0 z m 9.96706,0 9.96711,0 0,9.96708 -9.96711,0 z m 9.96711,0 9.96705,0 0,9.96708 -9.96705,0 z m 19.93415,0 9.9671,0 0,9.96708 -9.9671,0 z m 59.80248,0 9.9671,0 0,9.96708 -9.9671,0 z m -239.209957,9.96708 9.967063,0 0,9.9671 -9.967063,0 z m 9.967063,0 9.967099,0 0,9.9671 -9.967099,0 z m 9.967099,0 9.9671,0 0,9.9671 -9.9671,0 z m 9.9671,0 9.967063,0 0,9.9671 -9.967063,0 z m 9.967063,0 9.967097,0 0,9.9671 -9.967097,0 z m 9.967097,0 9.967064,0 0,9.9671 -9.967064,0 z m 9.967064,0 9.967101,0 0,9.9671 -9.967101,0 z m 19.934161,0 9.9671,0 0,9.9671 -9.9671,0 z m 19.93416,0 9.96708,0 0,9.9671 -9.96708,0 z m 19.93419,0 9.96706,0 0,9.9671 -9.96706,0 z m 19.93416,0 9.96706,0 0,9.9671 -9.96706,0 z m 19.93417,0 9.96705,0 0,9.9671 -9.96705,0 z m 19.93415,0 9.9671,0 0,9.9671 -9.9671,0 z m 9.9671,0 9.96706,0 0,9.9671 -9.96706,0 z m 9.96706,0 9.9671,0 0,9.9671 -9.9671,0 z m 9.9671,0 9.96706,0 0,9.9671 -9.96706,0 z m 9.96706,0 9.9671,0 0,9.9671 -9.9671,0 z m 9.9671,0 9.96706,0 0,9.9671 -9.96706,0 z m 9.96706,0 9.9671,0 0,9.9671 -9.9671,0 z m -119.60496,9.9671 9.96706,0 0,9.96708 -9.96706,0 z m 9.96706,0 9.9671,0 0,9.96708 -9.9671,0 z m -129.572057,9.96708 9.967063,0 0,9.96708 -9.967063,0 z m 9.967063,0 9.967099,0 0,9.96708 -9.967099,0 z m 9.967099,0 9.9671,0 0,9.96708 -9.9671,0 z m 9.9671,0 9.967063,0 0,9.96708 -9.967063,0 z m 9.967063,0 9.967097,0 0,9.96708 -9.967097,0 z m 19.934161,0 9.967101,0 0,9.96708 -9.967101,0 z m 9.967101,0 9.96706,0 0,9.96708 -9.96706,0 z m 9.96706,0 9.9671,0 0,9.96708 -9.9671,0 z m 9.9671,0 9.96706,0 0,9.96708 -9.96706,0 z m 9.96706,0 9.96708,0 0,9.96708 -9.96708,0 z m 19.93419,0 9.96706,0 0,9.96708 -9.96706,0 z m 19.93416,0 9.96706,0 0,9.96708 -9.96706,0 z m 29.90122,0 9.9671,0 0,9.96708 -9.9671,0 z m 19.9342,0 9.96706,0 0,9.96708 -9.96706,0 z m 19.93416,0 9.96706,0 0,9.96708 -9.96706,0 z m 19.93416,0 9.96706,0 0,9.96708 -9.96706,0 z m -229.242897,9.96708 9.967063,0 0,9.96707 -9.967063,0 z m 49.835422,0 9.967064,0 0,9.96707 -9.967064,0 z m 29.901225,0 9.9671,0 0,9.96707 -9.9671,0 z m 9.9671,0 9.96706,0 0,9.96707 -9.96706,0 z m 69.76958,0 9.96705,0 0,9.96707 -9.96705,0 z m 9.96705,0 9.9671,0 0,9.96707 -9.9671,0 z m 19.9342,0 9.96706,0 0,9.96707 -9.96706,0 z m 19.93416,0 9.96706,0 0,9.96707 -9.96706,0 z m -189.374575,9.96707 9.9671,0 0,9.96709 -9.9671,0 z m 19.934163,0 9.967097,0 0,9.96709 -9.967097,0 z m 19.934161,0 9.967101,0 0,9.96709 -9.967101,0 z m 9.967101,0 9.96706,0 0,9.96709 -9.96706,0 z m 9.96706,0 9.9671,0 0,9.96709 -9.9671,0 z m 9.9671,0 9.96706,0 0,9.96709 -9.96706,0 z m 19.93414,0 9.96711,0 0,9.96709 -9.96711,0 z m 9.96711,0 9.96706,0 0,9.96709 -9.96706,0 z m 29.90122,0 9.96711,0 0,9.96709 -9.96711,0 z m 9.96711,0 9.96705,0 0,9.96709 -9.96705,0 z m 19.93415,0 9.9671,0 0,9.96709 -9.9671,0 z m 9.9671,0 9.96706,0 0,9.96709 -9.96706,0 z m 39.86832,0 9.96706,0 0,9.96709 -9.96706,0 z m 9.96706,0 9.9671,0 0,9.96709 -9.9671,0 z m -239.209957,9.96709 9.967063,0 0,9.96708 -9.967063,0 z m 9.967063,0 9.967099,0 0,9.96708 -9.967099,0 z m 9.967099,0 9.9671,0 0,9.96708 -9.9671,0 z m 19.934163,0 9.967097,0 0,9.96708 -9.967097,0 z m 39.868322,0 9.9671,0 0,9.96708 -9.9671,0 z m 9.9671,0 9.96706,0 0,9.96708 -9.96706,0 z m 9.96706,0 9.96708,0 0,9.96708 -9.96708,0 z m 9.96708,0 9.96711,0 0,9.96708 -9.96711,0 z m 29.90127,0 9.96706,0 0,9.96708 -9.96706,0 z m 39.86832,0 9.9671,0 0,9.96708 -9.9671,0 z m 9.9671,0 9.96706,0 0,9.96708 -9.96706,0 z m 9.96706,0 9.9671,0 0,9.96708 -9.9671,0 z m 39.86832,0 9.9671,0 0,9.96708 -9.9671,0 z m -239.209957,9.96708 9.967063,0 0,9.96709 -9.967063,0 z m 9.967063,0 9.967099,0 0,9.96709 -9.967099,0 z m 49.835423,0 9.967101,0 0,9.96709 -9.967101,0 z m 29.901261,0 9.96706,0 0,9.96709 -9.96706,0 z m 19.93414,0 9.96711,0 0,9.96709 -9.96711,0 z m 39.86833,0 9.96711,0 0,9.96709 -9.96711,0 z m 19.93416,0 9.9671,0 0,9.96709 -9.9671,0 z m 9.9671,0 9.9671,0 0,9.96709 -9.9671,0 z m 19.93416,0 9.9671,0 0,9.96709 -9.9671,0 z m 9.9671,0 9.96706,0 0,9.96709 -9.96706,0 z m 9.96706,0 9.9671,0 0,9.96709 -9.9671,0 z m 19.93416,0 9.9671,0 0,9.96709 -9.9671,0 z m -239.209957,9.96709 9.967063,0 0,9.96708 -9.967063,0 z m 9.967063,0 9.967099,0 0,9.96708 -9.967099,0 z m 39.868359,0 9.967064,0 0,9.96708 -9.967064,0 z m 19.934165,0 9.96706,0 0,9.96708 -9.96706,0 z m 9.96706,0 9.9671,0 0,9.96708 -9.9671,0 z m 9.9671,0 9.96706,0 0,9.96708 -9.96706,0 z m 9.96706,0 9.96708,0 0,9.96708 -9.96708,0 z m 19.93419,0 9.96706,0 0,9.96708 -9.96706,0 z m 9.96706,0 9.9671,0 0,9.96708 -9.9671,0 z m 9.9671,0 9.96706,0 0,9.96708 -9.96706,0 z m 19.93417,0 9.96705,0 0,9.96708 -9.96705,0 z m 29.90125,0 9.96706,0 0,9.96708 -9.96706,0 z m 19.93416,0 9.96706,0 0,9.96708 -9.96706,0 z m 19.93416,0 9.96706,0 0,9.96708 -9.96706,0 z m -229.242897,9.96708 9.967063,0 0,9.96709 -9.967063,0 z m 19.934162,0 9.9671,0 0,9.96709 -9.9671,0 z m 19.934163,0 9.967097,0 0,9.96709 -9.967097,0 z m 19.934161,0 9.967101,0 0,9.96709 -9.967101,0 z m 19.934161,0 9.9671,0 0,9.96709 -9.9671,0 z m 19.93416,0 9.96708,0 0,9.96709 -9.96708,0 z m 29.90125,0 9.9671,0 0,9.96709 -9.9671,0 z m 9.9671,0 9.96706,0 0,9.96709 -9.96706,0 z m 9.96706,0 9.96711,0 0,9.96709 -9.96711,0 z m 9.96711,0 9.96705,0 0,9.96709 -9.96705,0 z m 9.96705,0 9.9671,0 0,9.96709 -9.9671,0 z m 19.9342,0 9.96706,0 0,9.96709 -9.96706,0 z m 29.90122,0 9.9671,0 0,9.96709 -9.9671,0 z m 9.9671,0 9.96706,0 0,9.96709 -9.96706,0 z m 9.96706,0 9.9671,0 0,9.96709 -9.9671,0 z m -239.209957,9.96709 9.967063,0 0,9.96708 -9.967063,0 z m 19.934162,0 9.9671,0 0,9.96708 -9.9671,0 z m 9.9671,0 9.967063,0 0,9.96708 -9.967063,0 z m 69.769545,0 9.96708,0 0,9.96708 -9.96708,0 z m 19.93419,0 9.96706,0 0,9.96708 -9.96706,0 z m 9.96706,0 9.9671,0 0,9.96708 -9.9671,0 z m 29.90127,0 9.96705,0 0,9.96708 -9.96705,0 z m 19.93415,0 9.9671,0 0,9.96708 -9.9671,0 z m 19.93416,0 9.9671,0 0,9.96708 -9.9671,0 z m 29.90126,0 9.96706,0 0,9.96708 -9.96706,0 z m -229.242897,9.96708 9.967063,0 0,9.96709 -9.967063,0 z m 29.901262,0 9.967063,0 0,9.96709 -9.967063,0 z m 9.967063,0 9.967097,0 0,9.96709 -9.967097,0 z m 9.967097,0 9.967064,0 0,9.96709 -9.967064,0 z m 9.967064,0 9.967101,0 0,9.96709 -9.967101,0 z m 19.934161,0 9.9671,0 0,9.96709 -9.9671,0 z m 39.86835,0 9.96706,0 0,9.96709 -9.96706,0 z m 19.93416,0 9.96706,0 0,9.96709 -9.96706,0 z m 19.93417,0 9.96705,0 0,9.96709 -9.96705,0 z m 9.96705,0 9.9671,0 0,9.96709 -9.9671,0 z m 9.9671,0 9.9671,0 0,9.96709 -9.9671,0 z m 9.9671,0 9.96706,0 0,9.96709 -9.96706,0 z m 9.96706,0 9.9671,0 0,9.96709 -9.9671,0 z m 9.9671,0 9.96706,0 0,9.96709 -9.96706,0 z m 9.96706,0 9.9671,0 0,9.96709 -9.9671,0 z m 19.93416,0 9.9671,0 0,9.96709 -9.9671,0 z m -159.47331,9.96709 9.9671,0 0,9.96707 -9.9671,0 z m 69.76957,0 9.96711,0 0,9.96707 -9.96711,0 z m 9.96711,0 9.96705,0 0,9.96707 -9.96705,0 z m 39.86831,0 9.9671,0 0,9.96707 -9.9671,0 z m 29.90126,0 9.96706,0 0,9.96707 -9.96706,0 z m -229.242897,9.96707 9.967063,0 0,9.96709 -9.967063,0 z m 9.967063,0 9.967099,0 0,9.96709 -9.967099,0 z m 9.967099,0 9.9671,0 0,9.96709 -9.9671,0 z m 9.9671,0 9.967063,0 0,9.96709 -9.967063,0 z m 9.967063,0 9.967097,0 0,9.96709 -9.967097,0 z m 9.967097,0 9.967064,0 0,9.96709 -9.967064,0 z m 9.967064,0 9.967101,0 0,9.96709 -9.967101,0 z m 19.934161,0 9.9671,0 0,9.96709 -9.9671,0 z m 9.9671,0 9.96706,0 0,9.96709 -9.96706,0 z m 19.93414,0 9.96711,0 0,9.96709 -9.96711,0 z m 9.96711,0 9.96706,0 0,9.96709 -9.96706,0 z m 39.86833,0 9.96705,0 0,9.96709 -9.96705,0 z m 19.93415,0 9.9671,0 0,9.96709 -9.9671,0 z m 19.93416,0 9.9671,0 0,9.96709 -9.9671,0 z m 29.90126,0 9.96706,0 0,9.96709 -9.96706,0 z m 9.96706,0 9.9671,0 0,9.96709 -9.9671,0 z m -239.209957,9.96709 9.967063,0 0,9.96708 -9.967063,0 z m 59.802486,0 9.967101,0 0,9.96708 -9.967101,0 z m 39.868321,0 9.96708,0 0,9.96708 -9.96708,0 z m 9.96708,0 9.96711,0 0,9.96708 -9.96711,0 z m 29.90127,0 9.96706,0 0,9.96708 -9.96706,0 z m 19.93417,0 9.96705,0 0,9.96708 -9.96705,0 z m 39.86831,0 9.9671,0 0,9.96708 -9.9671,0 z m 9.9671,0 9.96706,0 0,9.96708 -9.96706,0 z m -209.308737,9.96708 9.967063,0 0,9.96709 -9.967063,0 z m 19.934162,0 9.9671,0 0,9.96709 -9.9671,0 z m 9.9671,0 9.967063,0 0,9.96709 -9.967063,0 z m 9.967063,0 9.967097,0 0,9.96709 -9.967097,0 z m 19.934161,0 9.967101,0 0,9.96709 -9.967101,0 z m 19.934161,0 9.9671,0 0,9.96709 -9.9671,0 z m 9.9671,0 9.96706,0 0,9.96709 -9.96706,0 z m 19.93414,0 9.96711,0 0,9.96709 -9.96711,0 z m 39.86833,0 9.96711,0 0,9.96709 -9.96711,0 z m 9.96711,0 9.96705,0 0,9.96709 -9.96705,0 z m 9.96705,0 9.9671,0 0,9.96709 -9.9671,0 z m 9.9671,0 9.9671,0 0,9.96709 -9.9671,0 z m 9.9671,0 9.96706,0 0,9.96709 -9.96706,0 z m 9.96706,0 9.9671,0 0,9.96709 -9.9671,0 z m 19.93416,0 9.9671,0 0,9.96709 -9.9671,0 z m 19.93416,0 9.9671,0 0,9.96709 -9.9671,0 z m -239.209957,9.96709 9.967063,0 0,9.96708 -9.967063,0 z m 19.934162,0 9.9671,0 0,9.96708 -9.9671,0 z m 9.9671,0 9.967063,0 0,9.96708 -9.967063,0 z m 9.967063,0 9.967097,0 0,9.96708 -9.967097,0 z m 19.934161,0 9.967101,0 0,9.96708 -9.967101,0 z m 19.934161,0 9.9671,0 0,9.96708 -9.9671,0 z m 9.9671,0 9.96706,0 0,9.96708 -9.96706,0 z m 29.90125,0 9.96706,0 0,9.96708 -9.96706,0 z m 9.96706,0 9.9671,0 0,9.96708 -9.9671,0 z m 9.9671,0 9.96706,0 0,9.96708 -9.96706,0 z m 9.96706,0 9.96711,0 0,9.96708 -9.96711,0 z m 9.96711,0 9.96705,0 0,9.96708 -9.96705,0 z m 9.96705,0 9.9671,0 0,9.96708 -9.9671,0 z m 9.9671,0 9.9671,0 0,9.96708 -9.9671,0 z m 19.93416,0 9.9671,0 0,9.96708 -9.9671,0 z m 9.9671,0 9.96706,0 0,9.96708 -9.96706,0 z m 9.96706,0 9.9671,0 0,9.96708 -9.9671,0 z m 9.9671,0 9.96706,0 0,9.96708 -9.96706,0 z m 9.96706,0 9.9671,0 0,9.96708 -9.9671,0 z m -239.209957,9.96708 9.967063,0 0,9.96708 -9.967063,0 z m 19.934162,0 9.9671,0 0,9.96708 -9.9671,0 z m 9.9671,0 9.967063,0 0,9.96708 -9.967063,0 z m 9.967063,0 9.967097,0 0,9.96708 -9.967097,0 z m 19.934161,0 9.967101,0 0,9.96708 -9.967101,0 z m 19.934161,0 9.9671,0 0,9.96708 -9.9671,0 z m 9.9671,0 9.96706,0 0,9.96708 -9.96706,0 z m 39.86831,0 9.9671,0 0,9.96708 -9.9671,0 z m 9.9671,0 9.96706,0 0,9.96708 -9.96706,0 z m 9.96706,0 9.96711,0 0,9.96708 -9.96711,0 z m 39.86836,0 9.96706,0 0,9.96708 -9.96706,0 z m 19.93416,0 9.96706,0 0,9.96708 -9.96706,0 z m 9.96706,0 9.9671,0 0,9.96708 -9.9671,0 z m 19.93416,0 9.9671,0 0,9.96708 -9.9671,0 z m -239.209957,9.96708 9.967063,0 0,9.96704 -9.967063,0 z m 59.802486,0 9.967101,0 0,9.96704 -9.967101,0 z m 19.934161,0 9.9671,0 0,9.96704 -9.9671,0 z m 39.86835,0 9.96706,0 0,9.96704 -9.96706,0 z m 9.96706,0 9.9671,0 0,9.96704 -9.9671,0 z m 39.86832,0 9.9671,0 0,9.96704 -9.9671,0 z m 9.9671,0 9.9671,0 0,9.96704 -9.9671,0 z m 9.9671,0 9.96706,0 0,9.96704 -9.96706,0 z m 9.96706,0 9.9671,0 0,9.96704 -9.9671,0 z m 39.86832,0 9.9671,0 0,9.96704 -9.9671,0 z m -239.209957,9.96704 9.967063,0 0,9.9671 -9.967063,0 z m 9.967063,0 9.967099,0 0,9.9671 -9.967099,0 z m 9.967099,0 9.9671,0 0,9.9671 -9.9671,0 z m 9.9671,0 9.967063,0 0,9.9671 -9.967063,0 z m 9.967063,0 9.967097,0 0,9.9671 -9.967097,0 z m 9.967097,0 9.967064,0 0,9.9671 -9.967064,0 z m 9.967064,0 9.967101,0 0,9.9671 -9.967101,0 z m 19.934161,0 9.9671,0 0,9.9671 -9.9671,0 z m 39.86835,0 9.96706,0 0,9.9671 -9.96706,0 z m 19.93416,0 9.96706,0 0,9.9671 -9.96706,0 z m 29.90122,0 9.9671,0 0,9.9671 -9.9671,0 z m 9.9671,0 9.9671,0 0,9.9671 -9.9671,0 z m 49.83542,0 9.96706,0 0,9.9671 -9.96706,0 z m 9.96706,0 9.9671,0 0,9.9671 -9.9671,0 z"
       id="path13"
       inkscape:connector-curvature="0" />
    <text
       xml:space="preserve"
       style="line-height:125%;letter-spacing:0px;word-spacing:0px;color:#000000;fill:#000000;fill-opacity:1;fill-rule:nonzero;stroke:none;stroke-width:1px;marker:none;visibility:visible;display:inline;overflow:visible;enable-background:accumulate"
       x="303.84256"
       y="1014.433"
       id="text2990"
       sodipodi:linespacing="125%"><tspan
         sodipodi:role="line"
         id="tspan2992"
         x="303.84256"
         y="1014.433">space:SimpleRocket</tspan></text>
  </g>
  <g
     inkscape:label="Mask"
     inkscape:groupmode="layer"
     id="Mask"
     style="display:inline"
     transform="translate(0,-308.2677)">
    <path
       style="fill:#ffffff;stroke:#808080;stroke-width:0.70866144;stroke-linecap:butt;stroke-linejoin:miter;stroke-miterlimit:4;stroke-opacity:1;stroke-dasharray:none;display:inline"
       d="m 338.18749,680.2997 c 0.52961,185.32114 454.84375,184.375 454.84375,184.375 l 0,-119 c 21.11536,1.65647 23.13106,8.89133 28.1875,23.6875 -22.9779,35.58447 -21.03813,67.20692 -20.78125,105.5625 l 105.28125,0 c 0.2731,-39.05365 -9.86928,-86.73308 -34.5,-112.6875 -24.63073,-25.95443 -51.00675,-43.84577 -78.1875,-43.59375 l 0,-17.84375 c 28.95532,27.71245 74.32268,30.06931 112.6875,29.8125 l 0,-105.28125 c -39.06306,-0.27306 -81.38934,7.12071 -112.6875,34.5 l 0,-17.84375 c 27.18076,0.25203 53.55677,-17.63933 78.1875,-43.59375 24.63073,-25.95443 34.77311,-73.63385 34.5,-112.6875 l -105.28125,0 c -0.25687,38.35558 -2.19666,69.97803 20.78125,105.5625 -5.05644,14.79617 -7.07214,22.03103 -28.1875,23.6875 l 0,-119 c 0,0 -455.37335,-0.97739 -454.84375,184.34375 z"
       id="path3082"
       inkscape:connector-curvature="0" />
  </g>
  <g
     inkscape:groupmode="layer"
     id="layer1"
     inkscape:label="Overlay"
     style="display:inline"
     transform="translate(0,-308.2677)">
    <path
       style="fill:none;stroke:#808080;stroke-width:0.70866144;stroke-linecap:butt;stroke-linejoin:miter;stroke-miterlimit:4;stroke-opacity:1;stroke-dasharray:none"
       d="m 793.02913,745.68534 0.004,-26.96367"
       id="path3002"
       inkscape:connector-curvature="0"
       sodipodi:nodetypes="cc" />
    <path
       style="fill:none;stroke:#808080;stroke-width:0.70866144;stroke-linecap:butt;stroke-linejoin:miter;stroke-miterlimit:4;stroke-opacity:1;stroke-dasharray:none"
       d="m 793.03209,641.94474 -0.004,-27.08623"
       id="path3004"
       inkscape:connector-curvature="0"
       sodipodi:nodetypes="cc" />
    <path
       style="fill:none;stroke:#808080;stroke-width:0.70866144;stroke-linecap:butt;stroke-linejoin:miter;stroke-miterlimit:4;stroke-opacity:1;stroke-dasharray:none;display:inline"
       d="m 793.03274,701.22214 7.6e-4,-42.10198"
       id="path3004-3"
       inkscape:connector-curvature="0"
       sodipodi:nodetypes="cc" />
  </g>
</svg>
