<?xml version="1.0" encoding="UTF-8" standalone="no"?>
<!-- Created with Inkscape (http://www.inkscape.org/) -->

<svg
   xmlns:dc="http://purl.org/dc/elements/1.1/"
   xmlns:cc="http://creativecommons.org/ns#"
   xmlns:rdf="http://www.w3.org/1999/02/22-rdf-syntax-ns#"
   xmlns:svg="http://www.w3.org/2000/svg"
   xmlns="http://www.w3.org/2000/svg"
   xmlns:sodipodi="http://sodipodi.sourceforge.net/DTD/sodipodi-0.dtd"
   xmlns:inkscape="http://www.inkscape.org/namespaces/inkscape"
   width="297mm"
   height="210mm"
   id="svg2"
   version="1.1"
   inkscape:version="0.92.3 (2405546, 2018-03-11)"
   sodipodi:docname="SimpleRocket.svg"
   viewBox="0 0 1052.3622 744.09448">
  <defs
     id="defs4" />
  <sodipodi:namedview
     id="base"
     pagecolor="#ffffff"
     bordercolor="#666666"
     borderopacity="1.0"
     inkscape:pageopacity="0.0"
     inkscape:pageshadow="2"
     inkscape:zoom="1.190709"
     inkscape:cx="526.18109"
     inkscape:cy="405.64067"
     inkscape:document-units="mm"
     inkscape:current-layer="layer3"
     showgrid="false"
     units="mm"
     inkscape:window-width="1920"
     inkscape:window-height="1080"
     inkscape:window-x="1920"
     inkscape:window-y="0"
     inkscape:window-maximized="0" />
  <metadata
     id="metadata7">
    <rdf:RDF>
      <cc:Work
         rdf:about="">
        <dc:format>image/svg+xml</dc:format>
        <dc:type
           rdf:resource="http://purl.org/dc/dcmitype/StillImage" />
        <dc:title></dc:title>
      </cc:Work>
    </rdf:RDF>
  </metadata>
  <g
     inkscape:groupmode="layer"
     id="layer3"
     inkscape:label="Meta"
     style="display:inline"
     transform="translate(0,-308.2677)">
    <path
       style="display:inline;fill:#000000"
       d="m 35.433043,750.03554 h 9.967063 v 9.96707 h -9.967063 z m 9.967063,0 h 9.967099 v 9.96707 h -9.967099 z m 9.967099,0 h 9.9671 v 9.96707 h -9.9671 z m 9.9671,0 h 9.967063 v 9.96707 h -9.967063 z m 9.967063,0 h 9.967097 v 9.96707 h -9.967097 z m 9.967097,0 h 9.967064 v 9.96707 h -9.967064 z m 9.967064,0 h 9.967101 v 9.96707 h -9.967101 z m 29.901261,0 h 9.96706 v 9.96707 h -9.96706 z m 49.83541,0 h 9.96706 v 9.96707 h -9.96706 z m 19.93417,0 h 9.96705 v 9.96707 h -9.96705 z m 19.93415,0 h 9.9671 v 9.96707 h -9.9671 z m 9.9671,0 h 9.96706 v 9.96707 h -9.96706 z m 9.96706,0 h 9.9671 v 9.96707 h -9.9671 z m 9.9671,0 h 9.96706 v 9.96707 h -9.96706 z m 9.96706,0 h 9.9671 v 9.96707 h -9.9671 z m 9.9671,0 h 9.96706 v 9.96707 h -9.96706 z m 9.96706,0 h 9.9671 v 9.96707 h -9.9671 z m -239.209957,9.96707 h 9.967063 v 9.96709 h -9.967063 z m 59.802486,0 h 9.967101 v 9.96709 h -9.967101 z m 19.934161,0 h 9.9671 v 9.96709 h -9.9671 z m 9.9671,0 h 9.96706 v 9.96709 h -9.96706 z m 19.93414,0 h 9.96711 v 9.96709 h -9.96711 z m 9.96711,0 h 9.96706 v 9.96709 h -9.96706 z m 19.93416,0 h 9.96706 v 9.96709 h -9.96706 z m 9.96706,0 h 9.96711 v 9.96709 h -9.96711 z m 9.96711,0 h 9.96705 v 9.96709 h -9.96705 z m 19.93415,0 h 9.9671 v 9.96709 h -9.9671 z m 59.80248,0 h 9.9671 v 9.96709 H 274.643 Z M 35.433043,769.9697 h 9.967063 v 9.96707 h -9.967063 z m 19.934162,0 h 9.9671 v 9.96707 h -9.9671 z m 9.9671,0 h 9.967063 v 9.96707 h -9.967063 z m 9.967063,0 h 9.967097 v 9.96707 h -9.967097 z m 19.934161,0 h 9.967101 v 9.96707 h -9.967101 z m 29.901261,0 h 9.96706 v 9.96707 h -9.96706 z m 9.96706,0 h 9.96708 v 9.96707 h -9.96708 z m 9.96708,0 h 9.96711 v 9.96707 h -9.96711 z m 39.86833,0 h 9.96711 v 9.96707 h -9.96711 z m 9.96711,0 h 9.96705 v 9.96707 h -9.96705 z m 19.93415,0 h 9.9671 v 9.96707 h -9.9671 z m 19.93416,0 h 9.9671 v 9.96707 h -9.9671 z m 9.9671,0 h 9.96706 v 9.96707 h -9.96706 z m 9.96706,0 h 9.9671 v 9.96707 h -9.9671 z m 19.93416,0 h 9.9671 v 9.96707 h -9.9671 z m -239.209957,9.96707 h 9.967063 v 9.96709 h -9.967063 z m 19.934162,0 h 9.9671 v 9.96709 h -9.9671 z m 9.9671,0 h 9.967063 v 9.96709 h -9.967063 z m 9.967063,0 h 9.967097 v 9.96709 h -9.967097 z m 19.934161,0 h 9.967101 v 9.96709 h -9.967101 z m 19.934161,0 h 9.9671 v 9.96709 h -9.9671 z m 9.9671,0 h 9.96706 v 9.96709 h -9.96706 z m 19.93414,0 h 9.96711 v 9.96709 h -9.96711 z m 39.86833,0 h 9.96711 v 9.96709 h -9.96711 z m 29.90126,0 h 9.9671 v 9.96709 h -9.9671 z m 19.93416,0 h 9.9671 v 9.96709 h -9.9671 z m 9.9671,0 h 9.96706 v 9.96709 h -9.96706 z m 9.96706,0 h 9.9671 v 9.96709 h -9.9671 z m 19.93416,0 h 9.9671 v 9.96709 h -9.9671 z m -239.209957,9.96709 h 9.967063 v 9.96708 h -9.967063 z m 19.934162,0 h 9.9671 v 9.96708 h -9.9671 z m 9.9671,0 h 9.967063 v 9.96708 h -9.967063 z m 9.967063,0 h 9.967097 v 9.96708 h -9.967097 z m 19.934161,0 h 9.967101 v 9.96708 h -9.967101 z m 39.868321,0 h 9.96708 v 9.96708 h -9.96708 z m 19.93419,0 h 9.96706 v 9.96708 h -9.96706 z m 9.96706,0 h 9.9671 v 9.96708 h -9.9671 z m 29.90127,0 h 9.96705 v 9.96708 h -9.96705 z m 19.93415,0 h 9.9671 v 9.96708 h -9.9671 z m 19.93416,0 h 9.9671 v 9.96708 h -9.9671 z m 9.9671,0 h 9.96706 v 9.96708 h -9.96706 z m 9.96706,0 h 9.9671 v 9.96708 h -9.9671 z m 19.93416,0 h 9.9671 v 9.96708 h -9.9671 z m -239.209957,9.96708 h 9.967063 v 9.96708 h -9.967063 z m 59.802486,0 h 9.967101 v 9.96708 h -9.967101 z m 19.934161,0 h 9.9671 v 9.96708 h -9.9671 z m 19.93416,0 h 9.96708 v 9.96708 h -9.96708 z m 29.90125,0 h 9.9671 v 9.96708 h -9.9671 z m 9.9671,0 h 9.96706 v 9.96708 h -9.96706 z m 9.96706,0 h 9.96711 v 9.96708 h -9.96711 z m 9.96711,0 h 9.96705 v 9.96708 h -9.96705 z m 19.93415,0 h 9.9671 v 9.96708 h -9.9671 z m 59.80248,0 h 9.9671 v 9.96708 h -9.9671 z m -239.209957,9.96708 h 9.967063 v 9.9671 h -9.967063 z m 9.967063,0 h 9.967099 v 9.9671 h -9.967099 z m 9.967099,0 h 9.9671 v 9.9671 h -9.9671 z m 9.9671,0 h 9.967063 v 9.9671 h -9.967063 z m 9.967063,0 h 9.967097 v 9.9671 h -9.967097 z m 9.967097,0 h 9.967064 v 9.9671 h -9.967064 z m 9.967064,0 h 9.967101 v 9.9671 h -9.967101 z m 19.934161,0 h 9.9671 v 9.9671 h -9.9671 z m 19.93416,0 h 9.96708 v 9.9671 h -9.96708 z m 19.93419,0 h 9.96706 v 9.9671 h -9.96706 z m 19.93416,0 h 9.96706 v 9.9671 h -9.96706 z m 19.93417,0 h 9.96705 v 9.9671 h -9.96705 z m 19.93415,0 h 9.9671 v 9.9671 h -9.9671 z m 9.9671,0 h 9.96706 v 9.9671 h -9.96706 z m 9.96706,0 h 9.9671 v 9.9671 h -9.9671 z m 9.9671,0 h 9.96706 v 9.9671 h -9.96706 z m 9.96706,0 h 9.9671 v 9.9671 h -9.9671 z m 9.9671,0 h 9.96706 v 9.9671 h -9.96706 z m 9.96706,0 h 9.9671 v 9.9671 h -9.9671 z m -119.60496,9.9671 h 9.96706 v 9.96708 h -9.96706 z m 9.96706,0 h 9.9671 v 9.96708 h -9.9671 z M 35.433043,829.7722 h 9.967063 v 9.96708 h -9.967063 z m 9.967063,0 h 9.967099 v 9.96708 h -9.967099 z m 9.967099,0 h 9.9671 v 9.96708 h -9.9671 z m 9.9671,0 h 9.967063 v 9.96708 h -9.967063 z m 9.967063,0 h 9.967097 v 9.96708 h -9.967097 z m 19.934161,0 h 9.967101 v 9.96708 h -9.967101 z m 9.967101,0 h 9.96706 v 9.96708 h -9.96706 z m 9.96706,0 h 9.9671 v 9.96708 h -9.9671 z m 9.9671,0 h 9.96706 v 9.96708 h -9.96706 z m 9.96706,0 h 9.96708 v 9.96708 h -9.96708 z m 19.93419,0 h 9.96706 v 9.96708 h -9.96706 z m 19.93416,0 h 9.96706 v 9.96708 h -9.96706 z m 29.90122,0 h 9.9671 v 9.96708 h -9.9671 z m 19.9342,0 h 9.96706 v 9.96708 h -9.96706 z m 19.93416,0 h 9.96706 v 9.96708 h -9.96706 z m 19.93416,0 h 9.96706 v 9.96708 h -9.96706 z m -229.242897,9.96708 h 9.967063 v 9.96707 h -9.967063 z m 49.835422,0 h 9.967064 v 9.96707 h -9.967064 z m 29.901225,0 h 9.9671 v 9.96707 h -9.9671 z m 9.9671,0 h 9.96706 v 9.96707 h -9.96706 z m 69.76958,0 h 9.96705 v 9.96707 h -9.96705 z m 9.96705,0 h 9.9671 v 9.96707 h -9.9671 z m 19.9342,0 h 9.96706 v 9.96707 h -9.96706 z m 19.93416,0 h 9.96706 v 9.96707 h -9.96706 z m -189.374575,9.96707 h 9.9671 v 9.96709 h -9.9671 z m 19.934163,0 h 9.967097 v 9.96709 h -9.967097 z m 19.934161,0 h 9.967101 v 9.96709 h -9.967101 z m 9.967101,0 h 9.96706 v 9.96709 h -9.96706 z m 9.96706,0 h 9.9671 v 9.96709 h -9.9671 z m 9.9671,0 h 9.96706 v 9.96709 h -9.96706 z m 19.93414,0 h 9.96711 v 9.96709 h -9.96711 z m 9.96711,0 h 9.96706 v 9.96709 h -9.96706 z m 29.90122,0 h 9.96711 v 9.96709 h -9.96711 z m 9.96711,0 h 9.96705 v 9.96709 h -9.96705 z m 19.93415,0 h 9.9671 v 9.96709 h -9.9671 z m 9.9671,0 h 9.96706 v 9.96709 h -9.96706 z m 39.86832,0 h 9.96706 v 9.96709 h -9.96706 z m 9.96706,0 h 9.9671 v 9.96709 h -9.9671 z m -239.209957,9.96709 h 9.967063 v 9.96708 h -9.967063 z m 9.967063,0 h 9.967099 v 9.96708 h -9.967099 z m 9.967099,0 h 9.9671 v 9.96708 h -9.9671 z m 19.934163,0 h 9.967097 v 9.96708 h -9.967097 z m 39.868322,0 h 9.9671 v 9.96708 h -9.9671 z m 9.9671,0 h 9.96706 v 9.96708 h -9.96706 z m 9.96706,0 h 9.96708 v 9.96708 h -9.96708 z m 9.96708,0 h 9.96711 v 9.96708 h -9.96711 z m 29.90127,0 h 9.96706 v 9.96708 h -9.96706 z m 39.86832,0 h 9.9671 v 9.96708 h -9.9671 z m 9.9671,0 h 9.96706 v 9.96708 h -9.96706 z m 9.96706,0 h 9.9671 v 9.96708 h -9.9671 z m 39.86832,0 h 9.9671 v 9.96708 h -9.9671 z m -239.209957,9.96708 h 9.967063 v 9.96709 h -9.967063 z m 9.967063,0 h 9.967099 v 9.96709 h -9.967099 z m 49.835423,0 h 9.967101 v 9.96709 h -9.967101 z m 29.901261,0 h 9.96706 v 9.96709 h -9.96706 z m 19.93414,0 h 9.96711 v 9.96709 h -9.96711 z m 39.86833,0 h 9.96711 v 9.96709 h -9.96711 z m 19.93416,0 h 9.9671 v 9.96709 h -9.9671 z m 9.9671,0 h 9.9671 v 9.96709 h -9.9671 z m 19.93416,0 h 9.9671 v 9.96709 h -9.9671 z m 9.9671,0 h 9.96706 v 9.96709 h -9.96706 z m 9.96706,0 h 9.9671 v 9.96709 h -9.9671 z m 19.93416,0 h 9.9671 v 9.96709 h -9.9671 z m -239.209957,9.96709 h 9.967063 v 9.96708 h -9.967063 z m 9.967063,0 h 9.967099 v 9.96708 h -9.967099 z m 39.868359,0 h 9.967064 v 9.96708 h -9.967064 z m 19.934165,0 h 9.96706 v 9.96708 h -9.96706 z m 9.96706,0 h 9.9671 v 9.96708 h -9.9671 z m 9.9671,0 h 9.96706 v 9.96708 h -9.96706 z m 9.96706,0 h 9.96708 v 9.96708 h -9.96708 z m 19.93419,0 h 9.96706 v 9.96708 h -9.96706 z m 9.96706,0 h 9.9671 v 9.96708 h -9.9671 z m 9.9671,0 h 9.96706 v 9.96708 h -9.96706 z m 19.93417,0 h 9.96705 v 9.96708 h -9.96705 z m 29.90125,0 h 9.96706 v 9.96708 h -9.96706 z m 19.93416,0 h 9.96706 v 9.96708 h -9.96706 z m 19.93416,0 h 9.96706 v 9.96708 h -9.96706 z m -229.242897,9.96708 h 9.967063 v 9.96709 h -9.967063 z m 19.934162,0 h 9.9671 v 9.96709 h -9.9671 z m 19.934163,0 h 9.967097 v 9.96709 h -9.967097 z m 19.934161,0 h 9.967101 v 9.96709 h -9.967101 z m 19.934161,0 h 9.9671 v 9.96709 h -9.9671 z m 19.93416,0 h 9.96708 v 9.96709 h -9.96708 z m 29.90125,0 h 9.9671 v 9.96709 h -9.9671 z m 9.9671,0 h 9.96706 v 9.96709 h -9.96706 z m 9.96706,0 h 9.96711 v 9.96709 h -9.96711 z m 9.96711,0 h 9.96705 v 9.96709 h -9.96705 z m 9.96705,0 h 9.9671 v 9.96709 h -9.9671 z m 19.9342,0 h 9.96706 v 9.96709 h -9.96706 z m 29.90122,0 h 9.9671 v 9.96709 h -9.9671 z m 9.9671,0 h 9.96706 v 9.96709 h -9.96706 z m 9.96706,0 h 9.9671 v 9.96709 h -9.9671 z m -239.209957,9.96709 h 9.967063 v 9.96708 h -9.967063 z m 19.934162,0 h 9.9671 v 9.96708 h -9.9671 z m 9.9671,0 h 9.967063 v 9.96708 h -9.967063 z m 69.769545,0 h 9.96708 v 9.96708 h -9.96708 z m 19.93419,0 h 9.96706 v 9.96708 h -9.96706 z m 9.96706,0 h 9.9671 v 9.96708 h -9.9671 z m 29.90127,0 h 9.96705 v 9.96708 h -9.96705 z m 19.93415,0 h 9.9671 v 9.96708 h -9.9671 z m 19.93416,0 h 9.9671 v 9.96708 h -9.9671 z m 29.90126,0 h 9.96706 v 9.96708 h -9.96706 z m -229.242897,9.96708 h 9.967063 v 9.96709 h -9.967063 z m 29.901262,0 h 9.967063 v 9.96709 h -9.967063 z m 9.967063,0 h 9.967097 v 9.96709 h -9.967097 z m 9.967097,0 h 9.967064 v 9.96709 h -9.967064 z m 9.967064,0 h 9.967101 v 9.96709 h -9.967101 z m 19.934161,0 h 9.9671 v 9.96709 h -9.9671 z m 39.86835,0 h 9.96706 v 9.96709 h -9.96706 z m 19.93416,0 h 9.96706 v 9.96709 h -9.96706 z m 19.93417,0 h 9.96705 v 9.96709 h -9.96705 z m 9.96705,0 h 9.9671 v 9.96709 h -9.9671 z m 9.9671,0 h 9.9671 v 9.96709 h -9.9671 z m 9.9671,0 h 9.96706 v 9.96709 h -9.96706 z m 9.96706,0 h 9.9671 v 9.96709 h -9.9671 z m 9.9671,0 h 9.96706 v 9.96709 h -9.96706 z m 9.96706,0 h 9.9671 v 9.96709 h -9.9671 z m 19.93416,0 h 9.9671 v 9.96709 h -9.9671 z m -159.47331,9.96709 h 9.9671 v 9.96707 h -9.9671 z m 69.76957,0 h 9.96711 v 9.96707 h -9.96711 z m 9.96711,0 h 9.96705 v 9.96707 h -9.96705 z m 39.86831,0 h 9.9671 v 9.96707 h -9.9671 z m 29.90126,0 h 9.96706 v 9.96707 h -9.96706 z m -229.242897,9.96707 h 9.967063 v 9.96709 h -9.967063 z m 9.967063,0 h 9.967099 v 9.96709 h -9.967099 z m 9.967099,0 h 9.9671 v 9.96709 h -9.9671 z m 9.9671,0 h 9.967063 v 9.96709 h -9.967063 z m 9.967063,0 h 9.967097 v 9.96709 h -9.967097 z m 9.967097,0 h 9.967064 v 9.96709 h -9.967064 z m 9.967064,0 h 9.967101 v 9.96709 h -9.967101 z m 19.934161,0 h 9.9671 v 9.96709 h -9.9671 z m 9.9671,0 h 9.96706 v 9.96709 h -9.96706 z m 19.93414,0 h 9.96711 v 9.96709 h -9.96711 z m 9.96711,0 h 9.96706 v 9.96709 h -9.96706 z m 39.86833,0 h 9.96705 v 9.96709 h -9.96705 z m 19.93415,0 h 9.9671 v 9.96709 h -9.9671 z m 19.93416,0 h 9.9671 v 9.96709 h -9.9671 z m 29.90126,0 h 9.96706 v 9.96709 h -9.96706 z m 9.96706,0 h 9.9671 v 9.96709 h -9.9671 z m -239.209957,9.96709 h 9.967063 v 9.96708 h -9.967063 z m 59.802486,0 h 9.967101 v 9.96708 h -9.967101 z m 39.868321,0 h 9.96708 v 9.96708 h -9.96708 z m 9.96708,0 h 9.96711 v 9.96708 h -9.96711 z m 29.90127,0 h 9.96706 v 9.96708 h -9.96706 z m 19.93417,0 h 9.96705 v 9.96708 h -9.96705 z m 39.86831,0 h 9.9671 v 9.96708 h -9.9671 z m 9.9671,0 h 9.96706 v 9.96708 h -9.96706 z m -209.308737,9.96708 h 9.967063 v 9.96709 h -9.967063 z m 19.934162,0 h 9.9671 v 9.96709 h -9.9671 z m 9.9671,0 h 9.967063 v 9.96709 h -9.967063 z m 9.967063,0 h 9.967097 v 9.96709 h -9.967097 z m 19.934161,0 h 9.967101 v 9.96709 h -9.967101 z m 19.934161,0 h 9.9671 v 9.96709 h -9.9671 z m 9.9671,0 h 9.96706 v 9.96709 h -9.96706 z m 19.93414,0 h 9.96711 v 9.96709 h -9.96711 z m 39.86833,0 h 9.96711 v 9.96709 h -9.96711 z m 9.96711,0 h 9.96705 v 9.96709 h -9.96705 z m 9.96705,0 h 9.9671 v 9.96709 h -9.9671 z m 9.9671,0 h 9.9671 v 9.96709 h -9.9671 z m 9.9671,0 h 9.96706 v 9.96709 h -9.96706 z m 9.96706,0 h 9.9671 v 9.96709 h -9.9671 z m 19.93416,0 h 9.9671 v 9.96709 h -9.9671 z m 19.93416,0 h 9.9671 v 9.96709 h -9.9671 z m -239.209957,9.96709 h 9.967063 v 9.96708 h -9.967063 z m 19.934162,0 h 9.9671 v 9.96708 h -9.9671 z m 9.9671,0 h 9.967063 v 9.96708 h -9.967063 z m 9.967063,0 h 9.967097 v 9.96708 h -9.967097 z m 19.934161,0 h 9.967101 v 9.96708 h -9.967101 z m 19.934161,0 h 9.9671 v 9.96708 h -9.9671 z m 9.9671,0 h 9.96706 v 9.96708 h -9.96706 z m 29.90125,0 h 9.96706 v 9.96708 h -9.96706 z m 9.96706,0 h 9.9671 v 9.96708 h -9.9671 z m 9.9671,0 h 9.96706 v 9.96708 h -9.96706 z m 9.96706,0 h 9.96711 v 9.96708 h -9.96711 z m 9.96711,0 h 9.96705 v 9.96708 h -9.96705 z m 9.96705,0 h 9.9671 v 9.96708 h -9.9671 z m 9.9671,0 h 9.9671 v 9.96708 h -9.9671 z m 19.93416,0 h 9.9671 v 9.96708 h -9.9671 z m 9.9671,0 h 9.96706 v 9.96708 h -9.96706 z m 9.96706,0 h 9.9671 v 9.96708 h -9.9671 z m 9.9671,0 h 9.96706 v 9.96708 h -9.96706 z m 9.96706,0 h 9.9671 v 9.96708 h -9.9671 z m -239.209957,9.96708 h 9.967063 v 9.96708 h -9.967063 z m 19.934162,0 h 9.9671 v 9.96708 h -9.9671 z m 9.9671,0 h 9.967063 v 9.96708 h -9.967063 z m 9.967063,0 h 9.967097 v 9.96708 h -9.967097 z m 19.934161,0 h 9.967101 v 9.96708 h -9.967101 z m 19.934161,0 h 9.9671 v 9.96708 h -9.9671 z m 9.9671,0 h 9.96706 v 9.96708 h -9.96706 z m 39.86831,0 h 9.9671 v 9.96708 h -9.9671 z m 9.9671,0 h 9.96706 v 9.96708 h -9.96706 z m 9.96706,0 h 9.96711 v 9.96708 h -9.96711 z m 39.86836,0 h 9.96706 v 9.96708 h -9.96706 z m 19.93416,0 h 9.96706 v 9.96708 h -9.96706 z m 9.96706,0 h 9.9671 v 9.96708 h -9.9671 z m 19.93416,0 h 9.9671 v 9.96708 h -9.9671 z m -239.209957,9.96708 h 9.967063 v 9.96704 h -9.967063 z m 59.802486,0 h 9.967101 v 9.96704 h -9.967101 z m 19.934161,0 h 9.9671 v 9.96704 h -9.9671 z m 39.86835,0 h 9.96706 v 9.96704 h -9.96706 z m 9.96706,0 h 9.9671 v 9.96704 h -9.9671 z m 39.86832,0 h 9.9671 v 9.96704 h -9.9671 z m 9.9671,0 h 9.9671 v 9.96704 h -9.9671 z m 9.9671,0 h 9.96706 v 9.96704 h -9.96706 z m 9.96706,0 h 9.9671 v 9.96704 h -9.9671 z m 39.86832,0 h 9.9671 v 9.96704 h -9.9671 z m -239.209957,9.96704 h 9.967063 v 9.9671 h -9.967063 z m 9.967063,0 h 9.967099 v 9.9671 h -9.967099 z m 9.967099,0 h 9.9671 v 9.9671 h -9.9671 z m 9.9671,0 h 9.967063 v 9.9671 h -9.967063 z m 9.967063,0 h 9.967097 v 9.9671 h -9.967097 z m 9.967097,0 h 9.967064 v 9.9671 h -9.967064 z m 9.967064,0 h 9.967101 v 9.9671 h -9.967101 z m 19.934161,0 h 9.9671 v 9.9671 h -9.9671 z m 39.86835,0 h 9.96706 v 9.9671 h -9.96706 z m 19.93416,0 h 9.96706 v 9.9671 h -9.96706 z m 29.90122,0 h 9.9671 v 9.9671 h -9.9671 z m 9.9671,0 h 9.9671 v 9.9671 h -9.9671 z m 49.83542,0 h 9.96706 v 9.9671 h -9.96706 z m 9.96706,0 h 9.9671 v 9.9671 h -9.9671 z"
       id="path13"
       inkscape:connector-curvature="0" />
    <text
       xml:space="preserve"
       style="color:#000000;line-height:0%;letter-spacing:0px;word-spacing:0px;display:inline;overflow:visible;visibility:visible;fill:#000000;fill-opacity:1;fill-rule:nonzero;stroke:none;stroke-width:1px;marker:none;enable-background:accumulate"
       x="34.782681"
       y="1014.433"
       id="text2990"><tspan
         sodipodi:role="line"
         id="tspan2992"
         x="34.782681"
         y="1014.433"
         style="font-size:12px;line-height:1.25">space:SimpleRocket</tspan></text>
  </g>
  <g
     inkscape:label="Mask"
     inkscape:groupmode="layer"
     id="Mask"
     style="display:inline"
     transform="translate(0,-308.2677)">
    <path
       style="display:inline;fill:#ffffff;stroke:#808080;stroke-width:0.70866144;stroke-linecap:butt;stroke-linejoin:miter;stroke-miterlimit:4;stroke-dasharray:none;stroke-opacity:1"
       d="m 338.18749,680.2997 c 0.52961,185.32114 454.84375,184.375 454.84375,184.375 v -119 c 21.11536,1.65647 23.13106,8.89133 28.1875,23.6875 -22.9779,35.58447 -21.03813,67.20692 -20.78125,105.5625 h 105.28125 c 0.2731,-39.05365 -9.86928,-86.73308 -34.5,-112.6875 -24.63073,-25.95443 -51.00675,-43.84577 -78.1875,-43.59375 V 700.7997 c 28.95532,27.71245 74.32268,30.06931 112.6875,29.8125 V 625.33095 c -39.06306,-0.27306 -81.38934,7.12071 -112.6875,34.5 V 641.9872 c 27.18076,0.25203 53.55677,-17.63933 78.1875,-43.59375 24.63073,-25.95443 34.77311,-73.63385 34.5,-112.6875 H 800.43749 c -0.25687,38.35558 -2.19666,69.97803 20.78125,105.5625 -5.05644,14.79617 -7.07214,22.03103 -28.1875,23.6875 v -119 c 0,0 -455.37335,-0.97739 -454.84375,184.34375 z"
       id="path3082"
       inkscape:connector-curvature="0" />
  </g>
  <g
     inkscape:groupmode="layer"
     id="layer1"
     inkscape:label="Overlay"
     style="display:inline"
     transform="translate(0,-308.2677)">
    <path
       style="fill:none;stroke:#808080;stroke-width:0.70866144;stroke-linecap:butt;stroke-linejoin:miter;stroke-miterlimit:4;stroke-dasharray:none;stroke-opacity:1"
       d="m 793.02913,745.68534 0.004,-26.96367"
       id="path3002"
       inkscape:connector-curvature="0"
       sodipodi:nodetypes="cc" />
    <path
       style="fill:none;stroke:#808080;stroke-width:0.70866144;stroke-linecap:butt;stroke-linejoin:miter;stroke-miterlimit:4;stroke-dasharray:none;stroke-opacity:1"
       d="m 793.03209,641.94474 -0.004,-27.08623"
       id="path3004"
       inkscape:connector-curvature="0"
       sodipodi:nodetypes="cc" />
    <path
       style="display:inline;fill:none;stroke:#808080;stroke-width:0.70866144;stroke-linecap:butt;stroke-linejoin:miter;stroke-miterlimit:4;stroke-dasharray:none;stroke-opacity:1"
       d="m 793.03274,701.22214 7.6e-4,-42.10198"
       id="path3004-3"
       inkscape:connector-curvature="0"
       sodipodi:nodetypes="cc" />
  </g>
</svg>
