<?xml version="1.0" encoding="UTF-8" standalone="no"?>
<!-- Created with Inkscape (http://www.inkscape.org/) -->

<svg
   xmlns:dc="http://purl.org/dc/elements/1.1/"
   xmlns:cc="http://creativecommons.org/ns#"
   xmlns:rdf="http://www.w3.org/1999/02/22-rdf-syntax-ns#"
   xmlns:svg="http://www.w3.org/2000/svg"
   xmlns="http://www.w3.org/2000/svg"
   xmlns:sodipodi="http://sodipodi.sourceforge.net/DTD/sodipodi-0.dtd"
   xmlns:inkscape="http://www.inkscape.org/namespaces/inkscape"
   width="297mm"
   height="210mm"
   id="svg2"
   version="1.1"
   inkscape:version="0.92.3 (2405546, 2018-03-11)"
   sodipodi:docname="WaterElf-undecorated.svg"
   viewBox="0 0 1052.3622 744.09448"
   inkscape:export-filename="/home/christian/SportsCar.svg.png"
   inkscape:export-xdpi="138.06"
   inkscape:export-ydpi="138.06">
  <defs
     id="defs4" />
  <sodipodi:namedview
     id="base"
     pagecolor="#ffffff"
     bordercolor="#666666"
     borderopacity="1.0"
     inkscape:pageopacity="0.0"
     inkscape:pageshadow="2"
     inkscape:zoom="2"
     inkscape:cx="623.88596"
     inkscape:cy="383.36386"
     inkscape:document-units="mm"
     inkscape:current-layer="layer1"
     showgrid="false"
     units="mm"
     inkscape:window-width="1920"
     inkscape:window-height="1015"
     inkscape:window-x="0"
     inkscape:window-y="0"
     inkscape:window-maximized="1"
     inkscape:snap-global="false" />
  <metadata
     id="metadata7">
    <rdf:RDF>
      <cc:Work
         rdf:about="">
        <dc:format>image/svg+xml</dc:format>
        <dc:type
           rdf:resource="http://purl.org/dc/dcmitype/StillImage" />
        <dc:title></dc:title>
      </cc:Work>
    </rdf:RDF>
  </metadata>
  <g
     inkscape:label="Mask"
     inkscape:groupmode="layer"
     id="Mask"
     style="display:inline;opacity:1"
     transform="translate(0,-308.2677)">
    <path
       style="display:inline;opacity:1;fill:#ffffff;fill-opacity:1;stroke:#808080;stroke-width:0.75590551;stroke-linecap:round;stroke-linejoin:round;stroke-miterlimit:4;stroke-dasharray:none;stroke-opacity:1"
       d="m 716.2793,206.71484 c -0.92593,0.0342 -2.01518,1.11571 -2.28516,1.76758 -3.17867,7.67497 -7.67689,14.57553 -12.98437,20.78516 -3.28253,3.84048 -7.76234,6.47736 -11.44727,9.93359 -6.00875,5.63582 -6.37109,20.20594 -6.37109,25.50781 -1.34707,-4.62441 -3.64424,-6.42926 -5.06641,-12.13281 0,0 -1.65881,21.30725 2.48828,25.44141 0.90896,0.90612 3.76172,-0.81641 3.76172,-0.81641 1.26588,6.46787 3.66426,13.3474 10.48242,14.95703 l -0.29492,10.23047 -5.48633,0.0488 C 621.33675,269.64128 565.38401,275.6475 543.41211,277.16013 c -21.9719,1.51263 -60.25596,10.27755 -75.66016,19.26757 -20.66275,12.05898 -10.48171,23.71146 -1.06054,28.99219 14.04819,7.87427 30.05078,11.13672 30.05078,11.13672 -27.74238,12.77226 -37.87042,31.80417 -0.70703,40.30469 37.16338,8.50052 80.13729,-6.25338 107.37695,-14.80664 27.23966,-8.55326 59.32422,-21.60938 59.32422,-21.60938 l -4.72461,25.86719 c -0.57048,4.84926 0.0167,11.98555 0.63955,16.55914 l 4.06304,22.7136 2.78151,11.60679 1.90652,8.4818 c 0,0 -1.21152,5.35397 -1.09785,8.06304 0.11367,2.70907 1.26895,7.87541 3.10328,10.69366 1.37382,2.11073 4.28743,3.31912 4.28743,3.31912 l -4.77137,29.69762 c -1.75298,13.76475 -1.35227,27.60854 0.70703,39.24414 l 8.83789,55.0664 c 0,0 -6.11668,3.64438 -7.42383,11.40235 -0.76903,4.56423 -4.8192,8.90828 -12.21875,5.99804 -7.58901,-2.98475 -5.23539,3.57152 -3.89062,5.30274 2.53958,3.26941 10.30563,4.82718 15.57812,3.90234 3.42875,-0.60143 6.65796,-2.98769 8.66211,-5.83398 1.69016,-2.40036 3.51755,-4.09353 5.83399,-4.59571 3.23525,-0.70137 7.98508,-2.30448 9.54492,-5.6582 1.81391,-3.89997 -2.1211,-12.72656 -2.1211,-12.72656 l -6.71679,-58.16016 c -0.70811,-8.4609 -0.53212,-17.48363 1.59179,-25.98633 l 12.55079,-44.01757 10.95898,42.60351 c 2.22342,9.19959 3.19401,18.36253 1.41406,29.16797 l -6.18554,53.74023 c 0,0 -2.1809,7.07538 -2.03907,10.70508 0.0901,2.30586 2.34626,6.13113 4.98242,6.14063 6.09936,0.022 7.16876,7.06922 10.90821,9.5957 3.73945,2.52649 17.20655,2.61398 20.08789,-2.04687 1.00982,-1.82985 1.82028,-5.30679 0.0781,-6.70899 -2.23472,-1.79864 -5.62107,2.70439 -8.38476,1.93555 -2.52928,-0.70363 -5.21179,-2.89142 -5.65821,-5.47852 -0.84566,-4.9009 -5.69564,-12.24586 -6.00976,-12.02148 l 9.89844,-62.04883 c 1.73501,-10.73345 1.25581,-20.08285 0.35351,-29.16797 l -4.50723,-33.36742 c 4.11707,-2.94291 6.4104,-12.37631 3.97705,-20.8138 l 8.13174,-44.28362 c 2.54683,-9.4212 0.88512,-27.9659 -1.29296,-37.33008 l -0.47461,-1.39648 0.35351,0.0664 c 0,0 32.08454,13.05612 59.32422,21.60938 27.23968,8.55327 70.21365,23.30715 107.37695,14.80664 37.16346,-8.50053 27.03537,-27.53242 -0.70703,-40.30469 0,0 16.00257,-3.26245 30.05078,-11.13672 9.42117,-5.28072 19.60233,-16.93321 -1.06054,-28.99219 -15.40416,-8.99002 -53.68832,-17.7569 -75.66016,-19.26953 -21.8174,-1.50199 -77.14499,-7.41239 -144.24219,24.61328 l -6.7832,-0.17578 0.4375,-9.1875 c 3.7152,-0.11818 5.92546,-2.87003 6.8125,-7.9375 l 0.3125,-7.8125 c 0.80009,0.59855 3.75481,1.37913 4.82617,0.17774 2.14676,-2.40733 0.9655,-15.99024 2.11133,-24.42774 -1.89583,4.24871 -4.72917,5.93786 -5.6875,10.375 0.0603,-7.28563 0.68675,-18.01229 0.625,-25.0625 -0.0492,-5.61941 0.52013,-11.24047 1.25,-16.8125 0.52448,-4.0041 2.39354,-7.1579 2.24414,-11.90625 -0.061,-1.93749 -0.68218,-2.54415 -1.40234,-2.51758 z"
       id="path967"
       inkscape:connector-curvature="0"
       sodipodi:nodetypes="ccsscccccccssscssccccccssccccsscsssccccccccccccssccccccccccsscscsccccccccccscc"
       transform="matrix(0.9375,0,0,0.9375,0,308.2677)" />
  </g>
  <g
     inkscape:groupmode="layer"
     id="layer1"
     inkscape:label="Overlay"
     style="display:inline;opacity:1"
     transform="translate(0,-308.2677)">
    <g
       style="display:inline;opacity:1;stroke:#c0c0c0;stroke-width:0.26085687;stroke-linecap:round;stroke-linejoin:round;stroke-miterlimit:4;stroke-dasharray:none;stroke-opacity:1"
       id="g1344"
       transform="matrix(1.3263533,0,0,1.3910855,-205.9185,-284.87067)">
      <path
         sodipodi:nodetypes="cccc"
         inkscape:connector-curvature="0"
         id="path1338"
         d="m 631.4922,728.16589 2.35465,0.78649 c 0.38092,0.0665 0.91836,0.26118 1.07354,-0.16125 0.4632,-1.83392 0.002,-1.80295 -0.45238,-2.44998"
         style="fill:none;stroke:#c0c0c0;stroke-width:0.26085687;stroke-linecap:round;stroke-linejoin:round;stroke-miterlimit:4;stroke-dasharray:none;stroke-opacity:1" />
      <path
         sodipodi:nodetypes="cscssascccc"
         inkscape:connector-curvature="0"
         id="path1340"
         d="m 635.36762,710.54043 c 0,0 2.50258,3.33642 2.82617,5.41503 0.38259,2.4576 0.41229,7.2983 0.41229,7.2983 -0.0558,0.4961 -0.34441,0.73539 -1.14455,0.46735 -0.80309,-0.26903 -1.71868,-2.48836 -1.93576,-3.45742 -0.2633,-1.17538 -0.0206,-2.85988 -1.12141,-3.44922 -0.62004,-0.33196 -1.92145,-0.39269 -2.0686,0.49718 -0.31872,1.92743 1.36732,5.02071 3.18203,6.39778 0.8826,0.64147 1.0812,1.85249 0.86932,2.88177 -0.097,0.37089 -0.64748,0.31163 -0.76349,0.28366 -5.93678,-2.19548 -6.48108,-5.98655 -6.27584,-9.05704"
         style="fill:none;stroke:#c0c0c0;stroke-width:0.26085687;stroke-linecap:round;stroke-linejoin:round;stroke-miterlimit:4;stroke-dasharray:none;stroke-opacity:1" />
    </g>
    <path
       transform="translate(0,1.5793938e-6)"
       style="display:inline;opacity:1;fill:none;stroke:#c0c0c0;stroke-width:0.35433072;stroke-linecap:round;stroke-linejoin:round;stroke-miterlimit:4;stroke-dasharray:none;stroke-opacity:1"
       d="m 645.70311,591.93251 c -17.15321,0.11515 -19.49622,15.28347 -24.31641,35.56641"
       id="path1264"
       inkscape:connector-curvature="0"
       sodipodi:nodetypes="cc" />
    <path
       transform="translate(0,1.5793938e-6)"
       style="display:inline;opacity:1;fill:none;stroke:#c0c0c0;stroke-width:0.35433072;stroke-linecap:round;stroke-linejoin:round;stroke-miterlimit:4;stroke-dasharray:none;stroke-opacity:1"
       d="m 667.00195,591.39051 c 18.91156,-0.25544 18.13951,14.31603 23.08594,36.19629"
       id="path1266"
       inkscape:connector-curvature="0"
       sodipodi:nodetypes="cc" />
    <path
       transform="translate(0,1.5793938e-6)"
       style="display:inline;opacity:1;fill:none;stroke:#c0c0c0;stroke-width:0.35433072;stroke-linecap:round;stroke-linejoin:round;stroke-miterlimit:4;stroke-dasharray:none;stroke-opacity:1"
       d="m 465.76172,623.76722 c 39.78931,8.28996 88.65632,11.64342 156.44391,0.12555"
       id="path1268"
       inkscape:connector-curvature="0"
       sodipodi:nodetypes="cc" />
    <path
       transform="translate(0,1.5793938e-6)"
       style="display:inline;opacity:1;fill:none;stroke:#c0c0c0;stroke-width:0.35433072;stroke-linecap:round;stroke-linejoin:round;stroke-miterlimit:4;stroke-dasharray:none;stroke-opacity:1"
       d="m 845.9795,623.97906 c -39.78931,8.28996 -88.83241,11.58127 -156.62,0.0634"
       id="path1268-0"
       inkscape:connector-curvature="0"
       sodipodi:nodetypes="cc" />
    <path
       transform="translate(0,308.2677)"
       style="display:inline;opacity:0.98999999;fill:none;stroke:#c0c0c0;stroke-width:0.35433072;stroke-linecap:round;stroke-linejoin:round;stroke-miterlimit:4;stroke-dasharray:none;stroke-opacity:1"
       d="m 640.73692,241.13798 c 1.78725,-11.01089 28.57596,-8.84324 28.34404,-0.86713"
       id="path1293"
       inkscape:connector-curvature="0"
       sodipodi:nodetypes="cc" />
    <path
       transform="translate(0,1.5793938e-6)"
       style="display:inline;opacity:1;fill:none;stroke:#c0c0c0;stroke-width:0.35433072;stroke-linecap:round;stroke-linejoin:round;stroke-miterlimit:4;stroke-dasharray:none;stroke-opacity:1"
       d="m 649.10156,842.12782 c -5.51622,3.60284 -10.6737,3.74707 -13.125,2.08007"
       id="path1297"
       inkscape:connector-curvature="0"
       sodipodi:nodetypes="cc" />
    <path
       transform="translate(0,1.5793938e-6)"
       style="display:inline;opacity:1;fill:none;stroke:#c0c0c0;stroke-width:0.35433072;stroke-linecap:round;stroke-linejoin:round;stroke-miterlimit:4;stroke-dasharray:none;stroke-opacity:1"
       d="m 661.91824,839.98156 c 2.54084,1.55683 10.79914,5.02019 13.13395,1.78158"
       id="path1299"
       inkscape:connector-curvature="0"
       sodipodi:nodetypes="cc" />
    <path
       transform="translate(0,308.2677)"
       style="display:inline;opacity:0.98999999;fill:none;stroke:#c0c0c0;stroke-width:0.35433072;stroke-linecap:round;stroke-linejoin:round;stroke-miterlimit:4;stroke-dasharray:none;stroke-opacity:1"
       d="m 637.03125,311.43824 c 0,0 -4.48393,20.2891 -5.74219,30.58594 -0.44309,3.62598 -0.78849,7.29112 -0.63103,10.94067 0.6153,14.26072 6.13884,42.37964 6.13884,42.37964"
       id="path1346"
       inkscape:connector-curvature="0"
       sodipodi:nodetypes="caac" />
    <path
       transform="translate(0,308.2677)"
       style="display:inline;opacity:0.98999999;fill:none;stroke:#c0c0c0;stroke-width:0.35433072;stroke-linecap:round;stroke-linejoin:round;stroke-miterlimit:4;stroke-dasharray:none;stroke-opacity:1"
       d="m 675.34222,311.54401 c 0,0 2.93228,24.20497 3.31456,31.48836 0.38228,7.28339 0.57872,3.523 0,12.09814 -0.57872,8.57514 -5.63476,38.40751 -5.63476,38.40751 -5.46427,7.51155 -3.59404,9.41866 -4.22356,17.02683 0.0404,0.54315 -0.18886,1.91338 1.08187,1.64457 1.339,-0.28325 3.36852,-4.20312 3.22204,-7.79905 -0.10454,-2.56634 4.09391,-3.69881 3.99967,-0.69551 -0.0982,3.12872 -2.28339,6.7362 -4.16288,7.92895 -1.20402,0.76409 -1.5044,2.61817 -1.46235,3.61832 0.0421,1.00015 1.04802,0.77348 1.04802,0.77348 4.87332,-0.83321 7.25993,-3.42504 8.82087,-12.09521"
       id="path1348"
       inkscape:connector-curvature="0"
       sodipodi:nodetypes="czzccssssscc" />
    <path
       transform="translate(0,308.2677)"
       style="display:inline;opacity:1;fill:none;stroke:#c0c0c0;stroke-width:0.35433072;stroke-linecap:round;stroke-linejoin:round;stroke-miterlimit:4;stroke-dasharray:none;stroke-opacity:1"
       d="m 680.41157,416.52275 c -1.24665,1.46761 -2.79898,1.74821 -5.67355,2.53623 -0.54229,0.16104 -1.2072,-0.13671 -1.27345,-0.7404 -0.0704,-0.64121 0.31242,-2.30413 0.50545,-2.66677"
       id="path1419"
       inkscape:connector-curvature="0"
       sodipodi:nodetypes="ccsc" />
  </g>
</svg>
