<?xml version="1.0" encoding="UTF-8" standalone="no"?>
<!-- Created with Inkscape (http://www.inkscape.org/) -->

<svg
   xmlns:dc="http://purl.org/dc/elements/1.1/"
   xmlns:cc="http://creativecommons.org/ns#"
   xmlns:rdf="http://www.w3.org/1999/02/22-rdf-syntax-ns#"
   xmlns:svg="http://www.w3.org/2000/svg"
   xmlns="http://www.w3.org/2000/svg"
   xmlns:sodipodi="http://sodipodi.sourceforge.net/DTD/sodipodi-0.dtd"
   xmlns:inkscape="http://www.inkscape.org/namespaces/inkscape"
   width="297mm"
   height="210mm"
   id="svg2"
   version="1.1"
   inkscape:version="0.92.3 (2405546, 2018-03-11)"
   sodipodi:docname="WaterElf-undecorated.svg"
   inkscape:export-filename="/home/christian/SportsCar.svg.png"
   inkscape:export-xdpi="138.06"
   inkscape:export-ydpi="138.06">
  <defs
     id="defs4">
    <inkscape:path-effect
       effect="bspline"
       id="path-effect3088"
       is_visible="true"
       weight="33.333333"
       steps="2"
       helper_size="0"
       apply_no_weight="true"
       apply_with_weight="true"
       only_selected="false" />
    <inkscape:path-effect
       effect="simplify"
       id="path-effect3086"
       is_visible="true"
       steps="1"
       threshold="0.000408163"
       smooth_angles="360"
       helper_size="0"
       simplify_individual_paths="false"
       simplify_just_coalesce="false"
       simplifyindividualpaths="false"
       simplifyJustCoalesce="false" />
    <inkscape:path-effect
       effect="bspline"
       id="path-effect3077"
       is_visible="true"
       weight="33.333333"
       steps="2"
       helper_size="0"
       apply_no_weight="true"
       apply_with_weight="true"
       only_selected="false" />
    <inkscape:path-effect
       effect="simplify"
       id="path-effect3075"
       is_visible="true"
       steps="1"
       threshold="0.000408163"
       smooth_angles="360"
       helper_size="0"
       simplify_individual_paths="false"
       simplify_just_coalesce="false"
       simplifyindividualpaths="false"
       simplifyJustCoalesce="false" />
    <inkscape:path-effect
       effect="bspline"
       id="path-effect3060"
       is_visible="true"
       weight="33.333333"
       steps="2"
       helper_size="0"
       apply_no_weight="true"
       apply_with_weight="true"
       only_selected="false" />
    <inkscape:path-effect
       effect="simplify"
       id="path-effect3058"
       is_visible="true"
       steps="1"
       threshold="0.000408163"
       smooth_angles="360"
       helper_size="0"
       simplify_individual_paths="false"
       simplify_just_coalesce="false"
       simplifyindividualpaths="false"
       simplifyJustCoalesce="false" />
    <inkscape:path-effect
       effect="bspline"
       id="path-effect3046"
       is_visible="true"
       weight="33.333333"
       steps="2"
       helper_size="0"
       apply_no_weight="true"
       apply_with_weight="true"
       only_selected="false" />
    <inkscape:path-effect
       effect="simplify"
       id="path-effect3044"
       is_visible="true"
       steps="1"
       threshold="0.000408163"
       smooth_angles="360"
       helper_size="0"
       simplify_individual_paths="false"
       simplify_just_coalesce="false"
       simplifyindividualpaths="false"
       simplifyJustCoalesce="false" />
    <inkscape:path-effect
       effect="bspline"
       id="path-effect3040"
       is_visible="true"
       weight="33.333333"
       steps="2"
       helper_size="0"
       apply_no_weight="true"
       apply_with_weight="true"
       only_selected="false" />
    <inkscape:path-effect
       effect="simplify"
       id="path-effect3038"
       is_visible="true"
       steps="1"
       threshold="0.000408163"
       smooth_angles="360"
       helper_size="0"
       simplify_individual_paths="false"
       simplify_just_coalesce="false"
       simplifyindividualpaths="false"
       simplifyJustCoalesce="false" />
    <inkscape:path-effect
       effect="bspline"
       id="path-effect3034"
       is_visible="true"
       weight="33.333333"
       steps="2"
       helper_size="0"
       apply_no_weight="true"
       apply_with_weight="true"
       only_selected="false" />
    <inkscape:path-effect
       effect="spiro"
       id="path-effect3030"
       is_visible="true" />
    <inkscape:path-effect
       effect="roughen"
       id="path-effect2964"
       is_visible="true"
       method="segments"
       max_segment_size="10"
       segments="2"
       displace_x="2;1"
       displace_y="2;1"
       global_randomize="0;1"
       handles="along"
       shift_nodes="true"
       fixed_displacement="false"
       spray_tool_friendly="false" />
    <inkscape:path-effect
       effect="powerstroke"
       id="path-effect2911"
       is_visible="true"
       offset_points="0,0.46875"
       sort_points="true"
       interpolator_type="CubicBezierJohan"
       interpolator_beta="0.2"
       start_linecap_type="zerowidth"
       linejoin_type="extrp_arc"
       miter_limit="4"
       end_linecap_type="zerowidth" />
    <inkscape:path-effect
       effect="roughen"
       id="path-effect2907"
       is_visible="true"
       method="segments"
       max_segment_size="10"
       segments="2"
       displace_x="10;1"
       displace_y="10;1"
       global_randomize="1;1"
       handles="along"
       shift_nodes="true"
       fixed_displacement="false"
       spray_tool_friendly="false" />
    <inkscape:path-effect
       effect="powerstroke"
       id="path-effect2905"
       is_visible="true"
       offset_points="0,0.46875"
       sort_points="true"
       interpolator_type="CubicBezierJohan"
       interpolator_beta="0.2"
       start_linecap_type="zerowidth"
       linejoin_type="extrp_arc"
       miter_limit="4"
       end_linecap_type="zerowidth" />
  </defs>
  <sodipodi:namedview
     id="base"
     pagecolor="#ffffff"
     bordercolor="#666666"
     borderopacity="1.0"
     inkscape:pageopacity="0.0"
     inkscape:pageshadow="2"
     inkscape:zoom="1.4142136"
     inkscape:cx="448.54242"
     inkscape:cy="467.53858"
     inkscape:document-units="mm"
     inkscape:current-layer="layer4"
     showgrid="false"
     units="mm"
     inkscape:window-width="1920"
     inkscape:window-height="1080"
     inkscape:window-x="1920"
     inkscape:window-y="0"
     inkscape:window-maximized="0"
     inkscape:snap-global="false" />
  <metadata
     id="metadata7">
    <rdf:RDF>
      <cc:Work
         rdf:about="">
        <dc:format>image/svg+xml</dc:format>
        <dc:type
           rdf:resource="http://purl.org/dc/dcmitype/StillImage" />
        <dc:title></dc:title>
      </cc:Work>
    </rdf:RDF>
  </metadata>
  <g
     inkscape:label="Mask"
     inkscape:groupmode="layer"
     id="Mask"
     style="display:inline;opacity:1"
     transform="translate(0,-328.81888)">
    <path
       style="display:inline;opacity:1;fill:#ffffff;fill-opacity:1;stroke:#808080;stroke-width:0.75590551;stroke-linecap:round;stroke-linejoin:round;stroke-miterlimit:4;stroke-dasharray:none;stroke-opacity:1"
       d="m 716.2793,535.53372 c -0.92593,0.0342 -2.01518,1.11571 -2.28516,1.76758 -3.17867,7.67497 -7.67689,14.57553 -12.98437,20.78516 -3.28253,3.84048 -7.76234,6.47736 -11.44727,9.93359 -6.00875,5.63582 -6.37109,20.20594 -6.37109,25.50781 -1.34707,-4.62441 -3.64424,-6.42926 -5.06641,-12.13281 0,0 -1.65881,21.30725 2.48828,25.44141 0.90896,0.90612 3.76172,-0.81641 3.76172,-0.81641 1.26588,6.46787 3.66426,13.3474 10.48242,14.95703 l -0.29492,10.23047 -5.48633,0.0488 c -67.73942,-32.79619 -123.69216,-26.78997 -145.66406,-25.27734 -21.9719,1.51263 -60.25596,10.27755 -75.66016,19.26757 -20.66275,12.05898 -10.48171,23.71146 -1.06054,28.99219 14.04819,7.87427 30.05078,11.13672 30.05078,11.13672 -27.74238,12.77226 -37.87042,31.80417 -0.70703,40.30469 37.16338,8.50052 80.13729,-6.25338 107.37695,-14.80664 27.23966,-8.55326 59.32422,-21.60938 59.32422,-21.60938 l -4.72461,25.86719 c -0.57048,4.84926 0.0167,11.98555 0.63955,16.55914 l 4.06304,22.7136 2.78151,11.60679 1.90652,8.4818 c 0,0 -1.21152,5.35397 -1.09785,8.06304 0.11367,2.70907 1.26895,7.87541 3.10328,10.69366 1.37382,2.11073 4.28743,3.31912 4.28743,3.31912 l -4.77137,29.69762 c -1.75298,13.76475 -1.35227,27.60854 0.70703,39.24414 l 8.83789,55.0664 c 0,0 -6.11668,3.64438 -7.42383,11.40235 -0.76903,4.56423 -4.8192,8.90828 -12.21875,5.99804 -7.58901,-2.98475 -5.23539,3.57152 -3.89062,5.30274 2.53958,3.26941 10.30563,4.82718 15.57812,3.90234 3.42875,-0.60143 6.65796,-2.98769 8.66211,-5.83398 1.69016,-2.40036 3.51755,-4.09353 5.83399,-4.59571 3.23525,-0.70137 7.98508,-2.30448 9.54492,-5.6582 1.81391,-3.89997 -2.1211,-12.72656 -2.1211,-12.72656 l -6.71679,-58.16016 c -0.70811,-8.4609 -0.53212,-17.48363 1.59179,-25.98633 l 12.55079,-44.01757 10.95898,42.60351 c 2.22342,9.19959 3.19401,18.36253 1.41406,29.16797 l -6.18554,53.74023 c 0,0 -2.1809,7.07538 -2.03907,10.70508 0.0901,2.30586 2.34626,6.13113 4.98242,6.14063 6.09936,0.022 7.16876,7.06922 10.90821,9.5957 3.73945,2.52649 17.20655,2.61398 20.08789,-2.04687 1.00982,-1.82985 1.82028,-5.30679 0.0781,-6.70899 -2.23472,-1.79864 -5.62107,2.70439 -8.38476,1.93555 -2.52928,-0.70363 -5.21179,-2.89142 -5.65821,-5.47852 -0.84566,-4.9009 -5.69564,-12.24586 -6.00976,-12.02148 l 9.89844,-62.04883 c 1.73501,-10.73345 1.25581,-20.08285 0.35351,-29.16797 l -4.50723,-33.36742 c 4.11707,-2.94291 6.4104,-12.37631 3.97705,-20.8138 l 8.13174,-44.28362 c 2.54683,-9.4212 0.88512,-27.9659 -1.29296,-37.33008 l -0.47461,-1.39648 0.35351,0.0664 c 0,0 32.08454,13.05612 59.32422,21.60938 27.23968,8.55327 70.21365,23.30715 107.37695,14.80664 37.16346,-8.50053 27.03537,-27.53242 -0.70703,-40.30469 0,0 16.00257,-3.26245 30.05078,-11.13672 9.42117,-5.28072 19.60233,-16.93321 -1.06054,-28.99219 -15.40416,-8.99002 -53.68832,-17.7569 -75.66016,-19.26953 -21.8174,-1.50199 -77.14499,-7.41239 -144.24219,24.61328 l -6.7832,-0.17578 0.4375,-9.1875 c 3.7152,-0.11818 5.92546,-2.87003 6.8125,-7.9375 l 0.3125,-7.8125 c 0.80009,0.59855 3.75481,1.37913 4.82617,0.17774 2.14676,-2.40733 0.9655,-15.99024 2.11133,-24.42774 -1.89583,4.24871 -4.72917,5.93786 -5.6875,10.375 0.0603,-7.28563 0.68675,-18.01229 0.625,-25.0625 -0.0492,-5.61941 0.52013,-11.24047 1.25,-16.8125 0.52448,-4.0041 2.39354,-7.1579 2.24414,-11.90625 -0.061,-1.93749 -0.68218,-2.54415 -1.40234,-2.51758 z"
       id="path967"
       inkscape:connector-curvature="0"
       sodipodi:nodetypes="ccsscccccccssscssccccccssccccsscsssccccccccccccssccccccccccsscscsccccccccccscc" />
  </g>
  <g
     inkscape:groupmode="layer"
     id="layer1"
     inkscape:label="Overlay"
     style="display:inline;opacity:1"
     transform="translate(0,-328.81888)">
    <path
       style="fill:none;stroke:#c0c0c0;stroke-width:0.37795275;stroke-linecap:round;stroke-linejoin:round;stroke-miterlimit:4;stroke-dasharray:none;stroke-opacity:1"
       d="m 673.77414,776.60836 3.33131,1.16702 c 0.53892,0.0987 1.29928,0.38754 1.51882,-0.23927 0.65532,-2.72122 0.003,-2.67526 -0.64001,-3.63534"
       id="path1338"
       inkscape:connector-curvature="0"
       sodipodi:nodetypes="cccc" />
    <path
       style="fill:none;stroke:#c0c0c0;stroke-width:0.37795275;stroke-linecap:round;stroke-linejoin:round;stroke-miterlimit:4;stroke-dasharray:none;stroke-opacity:1"
       d="m 679.257,750.45527 c 0,0 3.54059,4.95066 3.9984,8.03496 0.54128,3.64664 0.5833,10.8294 0.5833,10.8294 -0.0789,0.73612 -0.48727,1.09119 -1.61929,0.69346 -1.13619,-0.39919 -2.43154,-3.69229 -2.73866,-5.1302 -0.37252,-1.74406 -0.0291,-4.24356 -1.58654,-5.11804 -0.87723,-0.49257 -2.71843,-0.58268 -2.92662,0.73773 -0.45091,2.85997 1.93446,7.44985 4.50187,9.49317 1.24868,0.95183 1.52965,2.74878 1.22989,4.27605 -0.13723,0.55033 -0.91603,0.46241 -1.08016,0.4209 -8.39922,-3.2577 -9.16929,-8.88298 -8.87892,-13.43906"
       id="path1340"
       inkscape:connector-curvature="0"
       sodipodi:nodetypes="cscssascccc" />
    <path
       style="display:inline;opacity:1;fill:none;stroke:#c0c0c0;stroke-width:0.37795275;stroke-linecap:round;stroke-linejoin:round;stroke-miterlimit:4;stroke-dasharray:none;stroke-opacity:1"
       d="m 688.74998,631.39468 c -18.29675,0.12283 -20.79596,16.30237 -25.9375,37.9375"
       id="path1264"
       inkscape:connector-curvature="0"
       sodipodi:nodetypes="cc" />
    <path
       style="display:inline;opacity:1;fill:none;stroke:#c0c0c0;stroke-width:0.37795275;stroke-linecap:round;stroke-linejoin:round;stroke-miterlimit:4;stroke-dasharray:none;stroke-opacity:1"
       d="m 711.46875,630.81655 c 20.17233,-0.27247 19.34881,15.27043 24.625,38.60937"
       id="path1266"
       inkscape:connector-curvature="0"
       sodipodi:nodetypes="cc" />
    <path
       style="display:inline;opacity:1;fill:none;stroke:#c0c0c0;stroke-width:0.37795275;stroke-linecap:round;stroke-linejoin:round;stroke-miterlimit:4;stroke-dasharray:none;stroke-opacity:1"
       d="m 496.8125,665.3517 c 42.44193,8.84263 94.56674,12.41965 166.87351,0.13392"
       id="path1268"
       inkscape:connector-curvature="0"
       sodipodi:nodetypes="cc" />
    <path
       style="display:inline;opacity:1;fill:none;stroke:#c0c0c0;stroke-width:0.37795275;stroke-linecap:round;stroke-linejoin:round;stroke-miterlimit:4;stroke-dasharray:none;stroke-opacity:1"
       d="m 902.37813,665.57767 c -42.44193,8.84262 -94.75457,12.35335 -167.06133,0.0676"
       id="path1268-0"
       inkscape:connector-curvature="0"
       sodipodi:nodetypes="cc" />
    <path
       style="display:inline;opacity:0.98999999;fill:none;stroke:#c0c0c0;stroke-width:0.37795275;stroke-linecap:round;stroke-linejoin:round;stroke-miterlimit:4;stroke-dasharray:none;stroke-opacity:1"
       d="m 683.45271,586.03273 c 1.9064,-11.74495 30.48103,-9.43279 30.23365,-0.92494"
       id="path1293"
       inkscape:connector-curvature="0"
       sodipodi:nodetypes="cc" />
    <path
       style="display:inline;opacity:1;fill:none;stroke:#c0c0c0;stroke-width:0.37795275;stroke-linecap:round;stroke-linejoin:round;stroke-miterlimit:4;stroke-dasharray:none;stroke-opacity:1"
       d="m 692.375,898.26968 c -5.88397,3.84303 -11.38528,3.99687 -14,2.21874"
       id="path1297"
       inkscape:connector-curvature="0"
       sodipodi:nodetypes="cc" />
    <path
       style="display:inline;opacity:1;fill:none;stroke:#c0c0c0;stroke-width:0.37795275;stroke-linecap:round;stroke-linejoin:round;stroke-miterlimit:4;stroke-dasharray:none;stroke-opacity:1"
       d="m 706.04612,895.98033 c 2.71023,1.66062 11.51909,5.35487 14.00955,1.90035"
       id="path1299"
       inkscape:connector-curvature="0"
       sodipodi:nodetypes="cc" />
    <path
       style="display:inline;opacity:0.98999999;fill:none;stroke:#c0c0c0;stroke-width:0.37795275;stroke-linecap:round;stroke-linejoin:round;stroke-miterlimit:4;stroke-dasharray:none;stroke-opacity:1"
       d="m 679.5,661.01967 c 0,0 -4.78286,21.64171 -6.125,32.625 -0.47263,3.86771 -0.84106,7.7772 -0.6731,11.67005 0.65632,15.21143 6.54809,45.20495 6.54809,45.20495"
       id="path1346"
       inkscape:connector-curvature="0"
       sodipodi:nodetypes="caac" />
    <path
       style="display:inline;opacity:0.98999999;fill:none;stroke:#c0c0c0;stroke-width:0.37795275;stroke-linecap:round;stroke-linejoin:round;stroke-miterlimit:4;stroke-dasharray:none;stroke-opacity:1"
       d="m 720.36503,661.13249 c 0,0 3.12777,25.81864 3.53554,33.58758 0.40776,7.76895 0.6173,3.75787 0,12.90469 -0.61731,9.14681 -6.01042,40.96801 -6.01042,40.96801 -5.82855,8.01232 -3.83364,10.04657 -4.50513,18.16195 0.0431,0.57936 -0.20145,2.04094 1.154,1.75421 1.42827,-0.30214 3.59309,-4.48333 3.43684,-8.31899 -0.11151,-2.73743 4.36684,-3.9454 4.26632,-0.74188 -0.10475,3.33731 -2.43562,7.18528 -4.44041,8.45755 -1.28429,0.81503 -1.60469,2.79272 -1.55984,3.85954 0.0449,1.06683 1.11789,0.82505 1.11789,0.82505 5.19821,-0.88876 7.74392,-3.65338 9.40893,-12.90156"
       id="path1348"
       inkscape:connector-curvature="0"
       sodipodi:nodetypes="czzccssssscc" />
    <path
       style="display:inline;opacity:1;fill:none;stroke:#c0c0c0;stroke-width:0.37795275;stroke-linecap:round;stroke-linejoin:round;stroke-miterlimit:4;stroke-dasharray:none;stroke-opacity:1"
       d="m 725.77234,773.10981 c -1.32976,1.56545 -2.98558,1.86476 -6.05179,2.70532 -0.57844,0.17177 -1.28768,-0.14583 -1.35834,-0.78976 -0.0751,-0.68396 0.33325,-2.45774 0.53914,-2.84456"
       id="path1419"
       inkscape:connector-curvature="0"
       sodipodi:nodetypes="ccsc" />
  </g>
  <g
     inkscape:groupmode="layer"
     id="layer4"
     inkscape:label="Detailed"
     style="display:inline">
    <path
       style="display:inline;opacity:0.98999999;fill:none;stroke:#c0c0c0;stroke-width:0.37795275;stroke-linecap:round;stroke-linejoin:round;stroke-miterlimit:4;stroke-dasharray:none;stroke-opacity:1"
       d="m 688.90925,263.08748 c 3.14538,-2.74156 4.59329,-1.8174 7.67226,-0.58268 -3.43526,2.0425 -5.02149,2.33908 -7.67226,0.58268 z"
       id="path1285"
       inkscape:connector-curvature="0"
       sodipodi:nodetypes="ccc" />
    <path
       style="display:inline;opacity:0.98999999;fill:none;stroke:#c0c0c0;stroke-width:0.37795275;stroke-linecap:round;stroke-linejoin:round;stroke-miterlimit:4;stroke-dasharray:none;stroke-opacity:1"
       d="m 690.31299,280.95998 c 5.57481,3.6396 10.68705,3.27028 15.55635,0.7955"
       id="path1287"
       inkscape:connector-curvature="0"
       sodipodi:nodetypes="cc" />
    <path
       style="display:inline;opacity:0.98999999;fill:none;stroke:#c0c0c0;stroke-width:0.37795275;stroke-linecap:round;stroke-linejoin:round;stroke-miterlimit:4;stroke-dasharray:none;stroke-opacity:1"
       d="m 698.97505,261.60293 c -1.59376,4.96159 -8.2696,19.2544 0.53033,16.61702"
       id="path1289"
       inkscape:connector-curvature="0"
       sodipodi:nodetypes="cc" />
    <path
       style="display:inline;opacity:0.98999999;fill:none;stroke:#c0c0c0;stroke-width:0.37795275;stroke-linecap:round;stroke-linejoin:round;stroke-miterlimit:4;stroke-dasharray:none;stroke-opacity:1"
       d="m 701.27314,262.39843 c 3.85452,-1.46885 6.07215,-0.82612 7.33624,1.23744 -2.47487,0.8193 -4.86137,0.76219 -7.33624,-1.23744 z"
       id="path1291"
       inkscape:connector-curvature="0"
       sodipodi:nodetypes="ccc" />
    <path
       style="fill:none;stroke:#c0c0c0;stroke-width:0.37795275;stroke-linecap:round;stroke-linejoin:round;stroke-miterlimit:4;stroke-dasharray:none;stroke-opacity:1"
       d="m 692.5625,302.38829 c 3.27146,6.07489 11.45631,6.2367 14,-0.375"
       id="path2870"
       inkscape:connector-curvature="0"
       sodipodi:nodetypes="cc" />
    <path
       style="fill:none;stroke:#c0c0c0;stroke-width:0.37795275;stroke-linecap:round;stroke-linejoin:round;stroke-miterlimit:4;stroke-dasharray:none;stroke-opacity:1"
       d="m 666.93428,423.4862 c 5.61521,-0.30957 8.72906,-1.05874 11.97662,-3.49135"
       id="path2872"
       inkscape:connector-curvature="0"
       sodipodi:nodetypes="cc" />
    <path
       style="fill:none;stroke:#c0c0c0;stroke-width:0.37795275;stroke-linecap:round;stroke-linejoin:round;stroke-miterlimit:4;stroke-dasharray:none;stroke-opacity:1"
       d="m 718.1875,418.38829 c 3.22134,1.83682 6.85726,3.12087 12.06249,2.3125"
       id="path2874"
       inkscape:connector-curvature="0"
       sodipodi:nodetypes="cc" />
    <path
       style="display:inline;opacity:1;fill:none;stroke:#c0c0c0;stroke-width:0.37795275;stroke-linecap:round;stroke-linejoin:round;stroke-miterlimit:4;stroke-dasharray:none;stroke-opacity:1"
       d="m 568.23633,281.07617 c -3.70498,0.0106 -7.43374,0.0905 -11.19922,0.26953 -0.0973,0.19733 -0.20128,0.39818 -0.30078,0.59766 -9.7e-4,0.19883 0.004,0.39267 0,0.59375 l 0.002,-0.12695 c 0.01,0.69801 0.009,1.40668 0,2.12109 v 0.10352 c 0.009,0.69881 0.01,1.40587 0,2.12109 l -0.0176,1.11133 -0.61132,0.92383 c -0.25659,0.38765 -0.52453,0.7861 -0.78711,1.17968 -9.4e-4,0.084 10e-4,0.16563 0,0.25 v 0.0957 c 0.01,1.84678 0.01,3.70272 0,5.56836 v 0.0312 c 0.01,2.79943 0.01,5.60882 0,8.42773 v 0.0527 c 0.006,0.61688 0.002,1.24446 0,1.86914 l 0.90234,0.0176 0.89844,0.57813 c 0.13169,0.0847 0.25761,0.17432 0.38867,0.25976 0.31731,-1.4199 0.63896,-2.84115 0.94726,-4.25195 l 0.0684,-0.31445 0.11914,-0.29883 c 0.47734,-1.17843 0.94509,-2.34588 1.40235,-3.50391 l 0.10156,-0.2539 0.13477,-0.24024 c 0.78425,-1.36629 1.55946,-2.71969 2.33007,-4.07226 -0.001,-0.10889 0.002,-0.22483 0,-0.33203 l -0.0176,-0.7754 0.29296,-0.71874 c 0.47735,-1.17847 0.94313,-2.3498 1.4004,-3.50782 l 0.28906,-0.72851 0.15039,-0.15235 -0.0273,-1.38281 1.40821,-1.4082 v -0.0156 l 0.45117,-0.88476 c 0.23647,-0.46333 0.46195,-0.91431 0.67773,-1.35547 l 0.11329,-0.23242 0.14453,-0.21485 c 0.25583,-0.38109 0.49998,-0.75173 0.75,-1.12695 z m 9.96875,0.17188 c -0.50498,0.40399 -1.00523,0.8034 -1.51367,1.21093 -0.29288,0.29287 -0.59368,0.59172 -0.89453,0.89258 l -0.0117,0.31446 -0.58399,0.88281 c -0.42124,0.63642 -0.85362,1.28508 -1.29101,1.9375 -0.0673,0.13648 -0.14019,0.27616 -0.20899,0.41406 l -0.0527,1.43164 -1.35938,1.35547 -0.0273,1.44336 -1.07617,1.07617 -0.15625,0.15625 c -0.28254,0.71172 -0.56963,1.42574 -0.85938,2.14453 -1.7e-4,0.25281 0.005,0.50329 0,0.75977 l -0.0176,0.95703 -0.47461,0.83398 c -0.89132,1.56698 -1.79369,3.14547 -2.70312,4.73047 -0.39359,0.99488 -0.79342,1.9971 -1.20117,3.00586 -0.35227,1.6093 -0.71433,3.22894 -1.07813,4.84961 1.54609,-0.58299 3.0901,-1.16462 4.62305,-1.73437 l 0.61328,-0.22657 0.6543,-0.008 c 0.48594,-0.006 0.96109,-0.002 1.43945,0 0.96443,-0.38877 1.92717,-0.77459 2.87891,-1.15039 l 0.0801,-0.0332 0.082,-0.0274 c 0.5616,-0.19242 1.11317,-0.3738 1.66406,-0.55468 0.57695,-0.38627 1.15234,-0.77093 1.7168,-1.14454 l 0.92773,-0.61132 1.10742,-0.0156 c 0.43209,-0.005 0.85515,-8.8e-4 1.28125,0 0.20026,-0.0999 0.40626,-0.20414 0.60352,-0.30078 0.96209,-0.48608 1.9128,-0.96146 2.85547,-1.42773 l 0.35156,-0.17578 0.3789,-0.0977 c 0.61995,-0.15986 1.22959,-0.30728 1.8418,-0.45899 l 0.69727,-0.69726 0.99804,-0.25781 c 0.69225,-0.1785 1.37213,-0.34536 2.05469,-0.51368 0.96967,-0.77676 1.93816,-1.55099 2.89453,-2.31445 l 0.82422,-0.66015 1.04883,-0.13477 c 1.6856,-0.21848 3.36106,-0.42609 5.03125,-0.62891 0.75918,-0.38192 1.51672,-0.76333 2.26367,-1.13281 l 0.0781,-0.0371 -0.0645,-0.18164 0.004,-0.66016 c 0.007,-1.11637 0.004,-2.22269 0,-3.32617 -0.32823,-0.66595 -0.65591,-1.33094 -0.99414,-1.98633 l -0.43945,-0.85351 0.0215,-0.95508 c 0.009,-0.43221 0.009,-0.85385 0,-1.26172 l -0.002,-0.0508 v -0.0527 c 0.006,-0.91355 0.002,-1.81597 0,-2.72071 -7.87461,-1.02349 -15.87075,-1.70559 -24.00586,-2.0039 z m -29.02539,0.60742 c -2.88622,0.22774 -5.79299,0.51526 -8.7168,0.84765 l 0.01,1.13477 c 0.006,0.65241 0.002,1.31541 0,1.97656 0.11608,0.23391 0.23817,0.46154 0.34961,0.69922 l 0.35156,0.74414 0.008,0.82422 c 0.005,0.56962 10e-4,1.14831 0,1.72461 0.27128,0.40554 0.54767,0.80715 0.8125,1.21875 l 0.57617,0.89649 0.0234,1.07031 c 0.01,0.47315 0.009,0.95308 0,1.43945 v 0.12695 c 0.009,0.69144 0.01,1.39015 0,2.09766 l 0.002,-0.0664 c 0.004,1.10366 -2.8e-4,2.21622 0,3.32422 l 0.59961,0.0137 1.0625,1.01954 c 0.35339,0.3387 0.69759,0.6884 1.04102,1.03711 0.3181,0.15704 0.63822,0.31095 0.94922,0.47656 l 0.13672,0.0742 0.13281,0.084 c 0.42136,0.27112 0.83306,0.55223 1.24804,0.83008 0.006,-2.51997 0.009,-5.03506 0,-7.53906 v -0.0176 -0.0137 c 0.01,-1.88293 0.01,-3.75649 0,-5.61914 v -0.0469 -0.0488 c 0.009,-0.43224 0.009,-0.84994 0,-1.25781 l -0.0254,-1.19336 0.66602,-0.99219 c 0.26331,-0.39222 0.5163,-0.77416 0.77344,-1.16015 -3.5e-4,-0.30791 0.004,-0.62249 0,-0.92578 l -0.002,-0.0488 0.002,-0.0527 c 0.01,-0.68385 0.01,-1.35761 0,-2.01953 l -0.002,-0.0625 0.002,-0.0644 c 0.004,-0.18227 -5.7e-4,-0.35326 0,-0.53125 z m -17.83594,2.03125 c -5.7309,0.85953 -11.54342,1.94584 -17.42773,3.23242 0.15088,0.12195 0.30434,0.24125 0.45507,0.36328 0.69357,0.16956 1.38842,0.33746 2.07227,0.51758 l 0.94531,0.25 0.70703,0.67773 c 0.28587,0.27399 0.56049,0.55734 0.83985,0.83789 0.44678,0.14731 0.89595,0.2922 1.33593,0.44727 l 0.41797,0.14453 0.37305,0.24024 c 0.62129,0.39976 1.2285,0.81215 1.83594,1.22656 1.07797,0.42125 2.15059,0.84751 3.21289,1.28516 l 1.03515,0.42773 0.63672,0.91797 c 0.16932,0.24519 0.33114,0.49861 0.49805,0.74609 0.77276,0.1873 1.54199,0.37774 2.30273,0.57813 l 0.10352,0.0273 0.0996,0.0312 c 1.42406,0.46136 2.83934,0.93284 4.24414,1.41406 10e-4,0 0.003,10e-4 0.004,0.002 -7.1e-4,-0.21039 8.6e-4,-0.4226 0,-0.63282 v -0.0332 -0.0332 c 0.01,-0.68387 0.01,-1.35761 0,-2.01953 v -0.0645 l 0.002,-0.0625 c 10e-4,-0.0664 -9.2e-4,-0.12754 0,-0.19336 -0.24805,-0.37349 -0.49236,-0.7517 -0.74609,-1.11914 l -0.68164,-0.98828 0.0117,-1.19726 c 0.006,-0.64187 0.002,-1.27252 0,-1.9043 -0.0879,-0.17416 -0.17289,-0.35486 -0.26367,-0.52539 l -0.45312,-0.84961 0.01,-0.96484 c 0.004,-0.41255 -4.6e-4,-0.81429 0,-1.22266 -0.32603,-0.32563 -0.64612,-0.65535 -0.97656,-0.97656 z m 78.42773,0.45703 c -8.1e-4,0.56056 0.004,1.1161 0,1.67969 l -0.002,-0.10547 c 0.004,0.19625 -9.6e-4,0.39914 0,0.59765 0.042,0.083 0.0831,0.16691 0.125,0.25 l 0.0293,-0.0449 c 0.35591,-0.53017 0.70031,-1.04961 1.04492,-1.56836 0.051,-0.2005 0.0996,-0.3974 0.15039,-0.59765 -0.44807,-0.0733 -0.89882,-0.1398 -1.34766,-0.21094 z m 8.8086,1.5293 c -0.14537,0.58985 -0.29105,1.1792 -0.44531,1.77734 l -0.15821,0.61133 -0.34961,0.5293 c -0.25712,0.38846 -0.52398,0.78724 -0.78711,1.18164 -10e-4,0.11549 0.002,0.22749 0,0.34375 l -0.0176,0.84375 -0.33594,0.68359 c 1.09255,-0.32752 2.18903,-0.65918 3.27734,-0.98242 l 0.5,-0.15039 0.52539,-0.008 c 0.20395,-0.003 0.40287,10e-4 0.60547,0 l 2.52149,-2.51953 1.10937,-0.23047 c 0.61633,-0.12741 1.22357,-0.24397 1.83399,-0.36523 -2.74744,-0.60646 -5.5044,-1.18485 -8.2793,-1.71484 z m -115.7461,3.90039 c -4.58826,1.20095 -9.22486,2.53522 -13.9121,4.01172 l 0.62304,0.85351 0.0176,1.20703 c 0.007,0.56346 0.004,1.1368 0,1.71094 0.2074,0.80144 0.41053,1.60527 0.60352,2.41992 l 0.0976,0.41016 0.006,0.42187 c 0.009,0.80228 0.005,1.61614 0,2.43164 0.27156,0.40596 0.54739,0.80672 0.8125,1.21875 l 0.43945,0.68164 0.0625,0.41407 c 0.4546,-0.006 0.90462,-0.01 1.34766,0 0.47704,-0.007 0.94974,-0.01 1.41406,0 2.58109,-0.01 5.15315,-0.01 7.71485,0 2.83778,-0.01 5.66437,-0.01 8.48242,0 1.19375,-0.01 2.37975,-0.01 3.55469,0 0.95432,-0.01 1.89962,-0.01 2.83593,0 l 0.56055,0.004 0.53516,0.16797 c 0.53998,0.16994 1.06934,0.35216 1.59961,0.53321 0.52294,-0.003 1.0465,-0.007 1.56054,0 l 0.68164,0.0117 0.63477,0.2461 c 0.97283,0.37767 1.93448,0.76725 2.89453,1.1582 0.48394,-0.002 0.96901,-0.006 1.44531,0 l 0.23047,0.002 0.22852,0.0312 c 1.57891,0.21468 3.14562,0.43922 4.70703,0.67188 0.87309,-0.007 1.7436,-0.009 2.60156,0 l 0.42188,0.006 c -8e-4,-1.05402 10e-4,-2.11249 0,-3.16602 -0.77743,-0.26 -1.55221,-0.52342 -2.33594,-0.77734 l -0.0293,-0.01 -0.0312,-0.0117 c -1.35281,-0.46378 -2.71384,-0.91625 -4.08594,-1.36133 -0.73785,-0.19357 -1.48656,-0.37772 -2.23828,-0.5586 -0.0287,6.9e-4 -0.0479,-10e-4 -0.0781,0 l -2.16016,0.0859 -1.16797,-1.81641 c -0.23769,-0.36941 -0.48538,-0.72814 -0.72851,-1.09179 -0.80041,-0.3239 -1.59801,-0.65031 -2.40821,-0.96485 l -0.41601,-0.16015 -0.36524,-0.25391 c -0.54067,-0.37339 -1.0927,-0.73857 -1.64648,-1.09961 -0.52279,-0.18005 -1.04809,-0.35673 -1.58398,-0.52539 l -0.92188,-0.29297 -0.67187,-0.69726 c -0.20168,-0.21042 -0.41136,-0.41288 -0.61719,-0.61914 -0.58678,-0.14896 -1.17219,-0.30039 -1.76758,-0.44141 l -0.84375,-0.19922 -0.67383,-0.54883 c -0.81784,-0.66687 -1.64674,-1.32155 -2.47461,-1.97851 -0.004,7e-5 -0.007,-1e-4 -0.0117,0 l -1.21875,0.0234 -1.0039,-0.69336 c -0.54192,-0.37424 -1.09528,-0.73776 -1.65039,-1.09961 -0.35511,-0.12028 -0.71466,-0.23573 -1.07032,-0.35547 z m 136.84375,0.92383 c -0.65082,0.10832 -1.29905,0.21458 -1.95312,0.32617 -0.96501,0.57686 -1.93324,1.15744 -2.91211,1.74804 l -0.27148,0.16211 -0.29297,0.11524 c -1.15802,0.45727 -2.32546,0.925 -3.50391,1.40234 l -0.3418,0.13867 -0.36132,0.0684 c -0.78862,0.15232 -1.5884,0.31491 -2.38672,0.47657 l -3.15039,3.15039 -1.59571,-0.0234 c -0.49591,-0.006 -1.00346,-0.003 -1.51172,0 -2.16891,0.64516 -4.34508,1.29861 -6.53125,1.96094 l -0.55273,0.16601 -0.57617,-0.006 c -0.358,-0.003 -0.72202,0.001 -1.08203,0 -0.0596,0.23452 -0.11498,0.46358 -0.17578,0.69922 l -0.0703,0.27539 -0.11132,0.26172 c -0.1335,0.31402 -0.27205,0.63252 -0.40626,0.94727 0.005,2.48438 0.007,4.97128 0,7.46875 v 0.0156 c 0.006,4.62225 0.001,9.25695 0,13.88672 0.17049,0.001 0.34612,-0.002 0.51563,0 1.88433,-0.01 3.7599,-0.01 5.625,0 1.42548,-0.01 2.84165,-0.01 4.24805,0 l 0.56836,0.004 0.54101,0.16992 c 0.53974,0.16988 1.06755,0.35416 1.59766,0.53515 0.52294,-0.003 1.0465,-0.007 1.56055,0 l 1.08398,0.0137 0.91016,0.58593 c 0.41243,0.26537 0.81438,0.54264 1.2207,0.81446 0.34258,3.5e-4 0.69058,-0.004 1.0293,0 l 0.41406,0.004 0.4043,0.0957 c 0.8147,0.19298 1.6204,0.39806 2.42187,0.60546 0.5736,-0.004 1.148,-0.007 1.71094,0 1.18026,-0.01 2.35183,-0.01 3.51367,0 l -0.17969,0.004 c 0.33993,-0.0132 0.6783,-0.0125 1.01563,0.002 l 0.51367,0.0195 0.49023,0.1582 c 1.08511,0.35155 2.15845,0.71697 3.23242,1.08008 0.167,-0.49497 0.33553,-0.99073 0.49219,-1.47461 l 0.006,-0.0215 0.01,-0.0215 c 0.65007,-1.93205 1.28835,-3.85219 1.92187,-5.76758 0.003,-0.49034 0.006,-0.98209 0,-1.46094 l -0.0156,-1.29101 0.77734,-1.03125 c 0.46101,-0.61255 0.90869,-1.21617 1.36133,-1.82032 -4.4e-4,-0.0237 4.9e-4,-0.0487 0,-0.0723 l -0.0137,-0.66992 0.21679,-0.63477 c 0.17522,-0.51138 0.33951,-1.00991 0.50391,-1.50976 0.006,-1.44477 0.009,-2.88349 0,-4.3125 l -0.006,-0.91211 0.41211,-0.81446 c 0.34334,-0.67954 0.67494,-1.34867 1.00781,-2.01757 -8.8e-4,-0.14663 0.003,-0.29976 0,-0.44336 l -0.002,-0.0645 0.002,-0.0645 c 0.01,-0.68386 0.01,-1.35762 0,-2.01953 l -0.002,-0.0488 0.002,-0.0527 c 0.01,-0.68387 0.01,-1.35763 0,-2.01953 l -0.0117,-0.9336 0.42383,-0.83594 c 0.1024,-0.20063 0.19636,-0.39139 0.29492,-0.58789 8.9e-4,-0.39342 0.005,-0.79178 0,-1.17773 v -0.0449 -0.0449 c 0.006,-0.5873 0.002,-1.16316 0,-1.74219 -3.98472,-1.21032 -7.99568,-2.35112 -12.03125,-3.41992 z m -158.2539,5.68945 c -7.78067,3.39311 -12.8707,6.42454 -15.84375,9.16797 1.09481,-0.007 2.18488,-0.009 3.26367,0 0.72159,-0.009 1.43575,-0.01 2.14063,0 l 0.41601,0.004 0.4043,0.0957 c 0.81473,0.19299 1.61847,0.39806 2.41992,0.60547 0.34452,-0.002 0.69148,-0.007 1.0293,0 0.93794,-0.009 1.86855,-0.01 2.78906,0 1.72385,-0.007 3.43739,-0.005 5.14844,0 l -0.52735,-0.76563 0.0488,-1.25976 c 0.006,-0.15147 0.005,-0.28239 0,-0.39649 l -0.004,-0.0996 0.002,-0.10156 c 0.007,-0.78443 0.005,-1.55682 0,-2.32617 -0.18839,-0.78242 -0.38184,-1.56267 -0.58399,-2.33008 l -0.13086,-0.49805 0.008,-0.51367 c 0.003,-0.27382 -7.4e-4,-0.53828 0,-0.80859 -0.19262,-0.25871 -0.38755,-0.51483 -0.58008,-0.77344 z m 177.84375,0.11523 c 0.003,0.51932 0.007,1.03754 0,1.56641 l -0.0117,0.84961 -0.37305,0.75976 c -0.10333,0.21124 -0.21521,0.43182 -0.32226,0.64649 8e-4,0.39182 0.005,0.78084 0,1.17773 v 0.10157 c 0.009,0.65692 0.007,1.32271 0,1.99414 v 0.1289 c 0.009,0.47366 0.01,0.95067 0,1.4375 l -0.0176,0.84375 -0.375,0.75781 c -0.33364,0.67452 -0.67768,1.36043 -1.02149,2.04493 0.005,1.35463 0.007,2.71038 0,4.07812 l -0.002,0.58594 -0.18164,0.55859 c -0.16788,0.51852 -0.34714,1.04604 -0.52539,1.57422 6.5e-4,0.28969 0.005,0.57657 0,0.8711 l -0.0234,1.21484 -0.72656,0.97266 c -0.45054,0.60286 -0.91231,1.21703 -1.37109,1.82812 -7.5e-4,0.30428 0.004,0.60284 0,0.91016 l -0.006,0.58008 -0.1836,0.55468 c -0.69484,2.10446 -1.40065,4.21774 -2.11523,6.3418 -6.4e-4,0.002 6.3e-4,0.004 0,0.006 0.69271,9.5e-4 1.39195,-0.003 2.08203,0 0.95793,-0.01 1.90789,-0.01 2.84766,0 l 0.41992,0.004 0.41211,0.0996 c 0.9212,0.21822 1.83197,0.44497 2.73633,0.68165 1.38021,0.2197 2.75297,0.44718 4.11523,0.68554 l 0.0273,0.006 0.0274,0.006 c 0.0925,0.0176 0.183,0.037 0.27539,0.0547 0.0857,-0.019 0.1701,-0.0357 0.25586,-0.0547 1.85349,-6.96928 3.62633,-13.97928 7.42383,-19.97656 1.80139,-2.56094 4.47886,-4.63513 7.77929,-6.36328 -6.9861,-2.68388 -14.03138,-5.20255 -21.14648,-7.52735 z m -56.16016,7.36719 -0.20117,0.0234 c -1.51802,0.18268 -3.04667,0.37639 -4.57813,0.57226 -0.8961,0.71609 -1.79329,1.43233 -2.70117,2.16016 l -0.6582,0.52734 -0.81641,0.19727 c -0.58804,0.14228 -1.18843,0.29477 -1.78515,0.44531 l -0.71875,0.71875 -1.03125,0.25 c -0.78834,0.19074 -1.59053,0.3901 -2.39453,0.59571 -0.80929,0.4014 -1.62223,0.80776 -2.44727,1.2246 l -0.0234,0.0117 -0.0215,0.01 c -0.44124,0.21584 -0.89223,0.44324 -1.35547,0.67969 l -0.83594,0.42578 -0.93554,-0.0137 c -0.3033,-0.004 -0.61593,3.4e-4 -0.92383,0 -0.38577,0.25699 -0.76618,0.51028 -1.15821,0.77343 l -0.43945,0.29297 -0.50391,0.16602 c -0.6438,0.20843 -1.29953,0.42563 -1.96289,0.65234 -1.1371,0.44922 -2.28258,0.90643 -3.43945,1.375 l -0.25,0.10156 c 0.17375,0.1729 0.34633,0.34609 0.51758,0.52149 h 0.002 c 3.03442,0.68847 6.06107,1.38775 9.07617,2.0957 l 0.9629,0.22461 0.72851,0.66992 c 0.026,0.0239 0.0483,0.0521 0.0742,0.0762 0.57923,0.14268 1.16194,0.28353 1.73437,0.4336 1.0334,0.19695 2.05697,0.4033 3.07618,0.61523 0.37657,-0.003 0.75446,-0.007 1.12304,0 l 0.80078,0.0176 0.72461,0.33984 c 0.2391,0.1121 0.46784,0.23477 0.70313,0.35157 0.19852,9.7e-4 0.40335,-0.004 0.59961,0 l -0.10938,-0.002 c 0.87886,-0.007 1.74659,-0.003 2.61524,0 -0.001,-0.13547 0.002,-0.27558 0,-0.41015 l -0.0215,-1.59571 1.12696,-1.13086 c 0.37068,-0.37068 0.7323,-0.73033 1.09765,-1.0957 l 0.19531,-0.47851 c 0.38735,-0.9563 0.76258,-1.90088 1.13672,-2.84375 -1.3e-4,-0.20255 0.004,-0.41056 0,-0.60743 l -0.0215,-1.05078 0.52344,-0.91015 c 0.78393,-1.36573 1.55783,-2.7183 2.32812,-4.07032 2.8e-4,-0.35587 0.005,-0.71861 0,-1.06836 l -0.0117,-0.80664 z m -60.51172,5.21875 c 6e-4,0.90146 -2.5e-4,1.80327 0,2.70508 0.89781,0.29945 1.79909,0.5954 2.69336,0.89844 0.59133,0.063 1.17777,0.13078 1.76758,0.19531 10e-4,-0.5565 0.002,-1.11079 0,-1.66406 -0.44483,-0.11107 -0.88421,-0.22743 -1.33398,-0.33399 l -0.69141,-0.16406 -0.58594,-0.4043 c -0.60765,-0.41962 -1.22546,-0.82844 -1.84961,-1.23242 z m -80.24609,4.02539 c 1.35295,4.78694 9.30281,8.68161 17.95312,12.48242 2.90301,0.84169 5.82764,1.64791 8.76758,2.42774 l 0.004,-0.34375 c 0.007,-0.70859 0.004,-1.40723 0,-2.10352 -0.61752,-1.67198 -1.23989,-3.34002 -1.87305,-4.99609 l -0.25586,-0.66797 0.006,-0.71875 c 0.006,-0.68031 0.003,-1.34861 0,-2.01758 -0.47501,-1.12459 -0.95521,-2.24228 -1.43945,-3.35742 -0.37619,0.001 -0.748,-0.002 -1.125,0 h -0.0176 -0.0195 c -2.0998,-0.01 -4.21006,-0.01 -6.33008,0 h -0.0254 -0.0293 c -0.9066,-0.01 -1.82231,-0.01 -2.75,0 l -0.0586,0.002 -0.0586,-0.002 c -0.40789,-0.009 -0.82752,-0.009 -1.25977,0 l -0.5293,0.01 -0.51171,-0.13476 c -0.76733,-0.20212 -1.54392,-0.39174 -2.32618,-0.58008 -0.53091,-0.004 -1.06455,-0.007 -1.60937,0 h -0.041 -0.0391 c -1.14765,-0.01 -2.30628,-0.01 -3.47461,0 h -0.0215 -0.0195 c -0.96925,-0.003 -1.94508,0.001 -2.91601,0 z m 31.08398,0 c 0.25982,0.60951 0.52612,1.21399 0.78321,1.82617 l 0.28711,0.6836 0.006,0.74218 c 0.007,0.71909 0.003,1.44802 0,2.17774 0.63706,1.67375 1.26937,3.35362 1.89062,5.04297 l 0.22461,0.61133 0.008,0.65234 c 0.005,0.53073 5.9e-4,1.07286 0,1.60937 0.43242,0.57258 0.86785,1.14294 1.29297,1.72266 1.25051,-0.003 2.49824,-0.005 3.74024,0 1.0729,-0.22027 2.14166,-0.43636 3.19921,-0.64062 l 0.33985,-0.0645 0.3457,-0.004 c 0.99243,-0.009 1.97371,-0.005 2.95313,0 0.5103,-0.17221 1.02213,-0.3453 1.52343,-0.50782 1.4342,-0.48479 2.85893,-0.95902 4.27344,-1.42382 l 0.55078,-0.18164 0.58008,-0.008 c 0.43179,-0.005 0.85349,-8.7e-4 1.2793,0 0.68449,-0.34381 1.36842,-0.68978 2.04297,-1.02344 l 0.35156,-0.17187 0.38281,-0.0977 c 0.74618,-0.19241 1.48181,-0.3741 2.2168,-0.55468 0.53336,-0.35678 1.06528,-0.71463 1.58789,-1.06055 l 0.5293,-0.34961 0.61523,-0.1582 c 0.39271,-0.10127 0.77639,-0.19495 1.16602,-0.29297 l 0.55273,-1.12891 1.3418,-0.54297 c 1.1986,-0.4855 2.38547,-0.96024 3.56445,-1.42578 l 0.63281,-0.25 0.68164,-0.0137 c 0.242,-0.005 0.47611,4.3e-4 0.71485,0 0.65055,-0.28039 1.29584,-0.55664 1.94336,-0.83398 9e-5,-0.20079 -8e-5,-0.4008 0,-0.60157 -0.50182,-0.3036 -1.00417,-0.60632 -1.50977,-0.90625 -0.57908,-10e-4 -1.15466,-0.006 -1.74219,0 l -0.30273,0.004 -0.29688,-0.043 c -1.54554,-0.23156 -3.10013,-0.4543 -4.66406,-0.66797 -0.59099,-0.006 -1.18852,-0.009 -1.79687,0 l -0.77344,0.0117 -0.7168,-0.29687 c -0.93303,-0.38439 -1.87584,-0.75739 -2.82226,-1.12891 -0.4455,-0.002 -0.88856,-0.006 -1.34375,0 l -0.67188,0.008 -0.63476,-0.22265 c -0.48389,-0.17055 -0.97939,-0.32958 -1.47461,-0.49024 -0.72203,-0.004 -1.44638,-0.007 -2.18164,0 h -0.0332 -0.0351 c -1.14764,-0.01 -2.30433,-0.01 -3.47266,0 h -0.0234 -0.0195 c -2.80982,-0.01 -5.63102,-0.01 -8.46094,0 h -0.0117 -0.0156 c -2.57333,-0.01 -5.15653,-0.01 -7.75,0 h -0.0449 -0.0469 c -0.24471,-0.005 -0.50234,-10e-4 -0.75586,0 z m 66.81446,8.93945 c -0.29849,0.47714 -0.59478,0.95128 -0.89453,1.42969 -0.18707,0.95513 -0.37417,1.91129 -0.57422,2.87891 l -0.0117,0.0703 -0.0195,0.0684 c -0.45485,1.84899 -0.92044,3.70823 -1.39453,5.57617 -0.2228,1.1511 -0.45359,2.30921 -0.69532,3.47852 l -0.041,0.20117 -0.0625,0.19726 c -0.21541,0.6653 -0.44331,1.34028 -0.67578,2.02149 -0.0997,0.41033 -0.20742,0.82873 -0.31055,1.24219 9.72807,0.68816 19.69548,0.97533 29.92578,0.82226 l 1.56055,-1.56054 0.5332,-0.53321 c -0.30878,-0.15279 -0.61277,-0.31225 -0.92383,-0.46289 l -0.60937,-0.29492 -0.47071,-0.49219 c -0.42444,-0.44283 -0.85795,-0.8744 -1.30078,-1.29883 l -1.22656,-1.17773 0.0547,-1.38672 c -0.0854,-0.16876 -0.16775,-0.34439 -0.25586,-0.50976 l -0.0449,-0.084 -0.041,-0.0879 c -0.12482,-0.26625 -0.25943,-0.52111 -0.39062,-0.7793 -0.30531,-0.31079 -0.60927,-0.62429 -0.92383,-0.92578 l -0.0566,-0.0527 -0.0566,-0.0586 c -0.42439,-0.44279 -0.85792,-0.87826 -1.30078,-1.30273 l -0.043,-0.041 -0.041,-0.043 c -0.78157,-0.79833 -1.5752,-1.5871 -2.37109,-2.3711 -0.25705,-0.13057 -0.51231,-0.26246 -0.77735,-0.38672 l -0.63867,-0.29883 -0.48437,-0.50781 c -0.23706,-0.24731 -0.48385,-0.48503 -0.72657,-0.72656 -0.40334,-0.13609 -0.80376,-0.27491 -1.21484,-0.4043 l -0.96484,-0.30468 -0.68555,-0.74415 c -0.0613,-0.0667 -0.12805,-0.12697 -0.19141,-0.1914 -2.2986,-0.005 -4.59811,-0.007 -6.91015,0 h -0.4336 l -0.42187,-0.0957 c -1.2905,-0.29424 -2.59055,-0.57653 -3.88867,-0.86329 z m -15.31641,0.46875 c -0.52698,0.26312 -1.05044,0.52145 -1.58398,0.79102 l -0.75196,0.38086 c -2e-4,0.15786 2.3e-4,0.31479 0,0.47266 v 0.0215 c 0.01,2.35052 0.01,4.71181 0,7.08203 l -0.002,-0.0703 c 0.007,0.54099 0.003,1.09369 0,1.64453 0.0747,0.2558 0.14657,0.51522 0.2207,0.77148 -4.6e-4,-0.29805 0.004,-0.60275 0,-0.89648 l -0.002,-0.0625 0.002,-0.0645 c 0.009,-0.43224 0.009,-0.85188 0,-1.25977 l -0.0117,-0.57812 0.16211,-0.55469 c 0.47864,-1.65032 0.94567,-3.28983 1.4043,-4.91992 l 0.10156,-0.36133 0.17188,-0.33203 c 0.10246,-0.20074 0.19441,-0.39129 0.29297,-0.58789 8.9e-4,-0.39383 0.005,-0.79139 0,-1.17774 z m -9.89648,3.1504 -0.42383,0.18359 -0.82422,-0.0156 c -0.19551,-0.004 -0.4024,1.7e-4 -0.60352,0 -0.50696,0.20117 -1.01846,0.40441 -1.52929,0.60938 -0.0272,0.0535 -0.0527,0.10444 -0.0801,0.1582 l -0.78906,1.54688 -1.6875,0.4082 c -0.71412,0.17278 -1.43904,0.35604 -2.16602,0.54102 -0.51822,0.34426 -1.03683,0.68744 -1.56641,1.04296 l -0.56054,0.37891 -0.65625,0.1582 c -0.78908,0.19093 -1.58974,0.39381 -2.39453,0.59961 -0.809,0.40126 -1.62255,0.80403 -2.44727,1.22071 l -0.82812,0.41797 -0.92774,-0.0117 c -0.47611,-0.006 -0.96566,-0.003 -1.45312,0 -0.77562,0.25585 -1.55894,0.51828 -2.33985,0.77929 7.28365,1.41082 14.69181,2.61277 22.24024,3.58008 -0.26833,-0.94403 -0.53332,-1.89234 -0.8086,-2.83008 l -0.16015,-0.54687 0.006,-0.57031 c 0.01,-0.68384 0.01,-1.35565 0,-2.01758 v -0.0332 -0.0332 c 0.007,-1.86301 0.004,-3.71599 0,-5.5664 z m 53.66015,1.45117 0.125,0.23242 c 0.24614,0.46222 0.47983,0.93434 0.70703,1.41211 l 0.0879,0.17383 c 0.24381,0.46415 0.48017,0.93431 0.70508,1.41406 l 0.3086,0.65625 c 0.33037,0.16236 0.65823,0.32938 0.98632,0.49414 0.16492,-0.24758 0.33371,-0.49912 0.4961,-0.74414 0.20136,-0.39676 0.39796,-0.78964 0.58398,-1.16992 l 0.11328,-0.23242 0.14258,-0.2129 c 0.26926,-0.40109 0.53015,-0.79097 0.79297,-1.18554 -0.36256,-0.005 -0.73178,-0.007 -1.11328,0 l -0.98242,0.0195 -0.86914,-0.46289 c -0.17211,-0.0917 -0.3535,-0.17493 -0.5293,-0.26367 -0.15055,8.8e-4 -0.29367,-0.003 -0.44727,0 l -0.43164,0.008 -0.42187,-0.0898 c -0.0839,-0.0177 -0.16985,-0.0313 -0.25391,-0.0488 z m 12.71289,2.25195 c -0.10952,0.32764 -0.21261,0.65103 -0.32617,0.98242 l -0.1582,0.45703 -0.26758,0.4043 c -0.42257,0.63844 -0.85418,1.28695 -1.29297,1.94141 -0.1989,0.40358 -0.40096,0.80859 -0.61328,1.22461 l -0.0957,0.1914 -0.11914,0.17774 c -0.26202,0.39587 -0.53446,0.80302 -0.80274,1.20507 l -0.0176,0.48047 -0.34961,0.7168 c -0.0174,0.0355 -0.0372,0.0738 -0.0547,0.10937 0.1204,0.2263 0.22985,0.4614 0.3457,0.69141 0.70879,0.52525 1.41704,1.04986 2.11523,1.58594 1.51418,-0.0826 3.03662,-0.17904 4.5625,-0.28125 0.003,-2.19735 0.007,-4.39506 0,-6.58203 v -0.008 -0.01 c 10e-4,-0.93593 -8.9e-4,-1.86907 0,-2.80469 -0.26823,-0.16081 -0.53537,-0.32267 -0.80468,-0.48242 -0.34089,-6e-5 -0.67693,-0.004 -1.02344,0 l -0.0644,0.002 -0.0645,-0.002 c -0.3135,-0.006 -0.64084,-0.003 -0.96875,0 z m 10.48242,2.11914 c -4.4e-4,0.38726 5e-4,0.7748 0,1.16211 v 0.0156 c 0.006,1.99711 0.002,4.0046 0,6.00976 9.55728,-0.83496 19.34733,-2.06062 29.38672,-3.70312 -0.65142,-0.21921 -1.30256,-0.44003 -1.95898,-0.6543 l -0.0352,0.002 -0.0898,-0.002 c -1.14764,-0.01 -2.30628,-0.01 -3.47461,0 h -0.0391 -0.043 c -0.66193,-0.01 -1.33374,-0.01 -2.01758,0 l -0.51562,0.006 -0.5,-0.13086 c -0.7673,-0.20211 -1.54389,-0.39174 -2.32618,-0.58008 -0.53091,-0.004 -1.06454,-0.007 -1.60937,0 l -1.20508,0.0137 -0.99219,-0.68554 c -0.36666,-0.25322 -0.74451,-0.49662 -1.11718,-0.74415 -0.31012,3.5e-4 -0.61299,-0.004 -0.92774,0 l -0.67187,0.01 -0.63477,-0.22266 c -0.48382,-0.17053 -0.97937,-0.33151 -1.47461,-0.49218 -1.19565,-0.006 -2.39663,-0.009 -3.60742,0 h -0.0234 -0.0215 c -1.86266,-0.01 -3.73622,-0.01 -5.61914,0 h -0.0352 l -0.0352,-0.002 c -0.13457,-0.002 -0.27467,10e-4 -0.41015,0 z"
       id="path3026"
       inkscape:connector-curvature="0"
       sodipodi:nodetypes="ccccccccccccccccccccccccccccccccccccccccccccccccccccccccccccccccccccccccccccccccccccccccccccccccccccccccccccccccccccccccccccccccccccccccccccccccccccccccccccccccccccccccccccccccccccccccccccccccccccccccccccccccccccccccccccccccccccccccccccccccccccccccccccccccccccccccccccccccccccccccccccccccccccccccccccccccccccccccccccccccccccccccccccccccccccccccccccccccccccccccccccccccccccccccccccccccccccccccccccccccccccccccccccccccccccccccccccccccccccccccccccccccccccccccccccccccccccccccccccccccccccccccccccccccccccccccccccccccccccccccccccccccccccccccccccccccccccccccccccccccccccccccccccccccccccccccccccccccccccccccccccccccccccccccccccccccccccccccccccccccccccccccccccccccccccccccccccccccccccccccccccccccccccccccccccccccccccccccccccccccccccc" />
    <path
       style="display:inline;opacity:1;fill:none;stroke:#c0c0c0;stroke-width:0.37795275;stroke-linecap:round;stroke-linejoin:round;stroke-miterlimit:4;stroke-dasharray:none;stroke-opacity:1"
       d="m 505.66992,338.2793 c -0.67311,0.35824 -1.28016,0.70438 -1.93164,1.05859 0.10939,1.33597 0.21415,2.67497 0.3086,4.02539 l 0.008,0.0918 0.002,0.0918 c 0.002,0.11557 -10e-4,0.23521 0,0.35156 0.045,0.0708 0.0944,0.13762 0.13867,0.20898 l 0.53907,0.86914 0.0273,1.01953 c 0.01,0.3489 0.006,0.70502 0,1.0625 v 0.20313 c 0.006,0.3504 0.01,0.70149 0,1.06055 l 0.002,-0.12696 c 0.01,1.2936 0.01,2.59554 0,3.90821 v 0.0351 c 0.002,0.70934 -10e-4,1.42281 0,2.13281 0.14323,0.0246 0.28909,0.0488 0.43164,0.0742 0.28293,-0.002 0.56624,-0.007 0.84375,0 l 1.02149,0.0273 0.86914,0.53906 c 0.0713,0.0443 0.13631,0.0937 0.20703,0.13867 0.11581,0.001 0.23652,-0.002 0.35156,0 l 0.37891,0.01 0.36133,0.0781 0.48828,-0.48633 c 0.16439,-0.24515 0.32867,-0.49253 0.48242,-0.72656 l 0.21289,-0.32422 0.27539,-0.27344 0.54883,-0.54687 -0.0293,-0.32617 2.57422,-2.57422 0.11523,-0.2207 c 0.11004,-0.21148 0.20757,-0.40904 0.29493,-0.5918 l 0.0215,-0.043 0.0234,-0.0449 c 0.23646,-0.46325 0.46195,-0.91626 0.67773,-1.35742 l 0.27735,-0.56446 0.79882,-0.80078 c 0.24569,-0.24567 0.48138,-0.48136 0.70704,-0.70703 l 0.0781,-0.0762 c 0.0158,-0.0491 0.0336,-0.10381 0.0488,-0.15234 l 0.27734,-0.88282 0.65625,-0.65625 0.27539,-0.27539 c 0.0147,-0.0304 0.0346,-0.0661 0.0488,-0.0957 l 0.11914,-0.25391 0.16016,-0.23437 c 0.19489,-0.28839 0.37597,-0.56239 0.55664,-0.83594 0.20363,-0.40104 0.40376,-0.79728 0.5918,-1.18164 l 0.14453,-0.29492 c -4.73394,-0.66643 -9.40852,-1.43363 -13.98438,-2.33203 z m 144.33789,0.66406 c -0.33156,0.0484 -0.66261,0.0907 -0.99414,0.13867 -1e-4,0.062 1.1e-4,0.12358 0,0.18555 0.33158,-0.10614 0.66249,-0.21871 0.99414,-0.32422 z m -8.55078,1.1875 c -6.76925,0.90889 -13.53532,1.71967 -20.30273,2.39062 0.0888,0.17702 0.17963,0.35176 0.26562,0.53125 l 0.35938,0.75 0.01,0.83204 c 0.007,0.51494 0.003,1.04059 0,1.56445 0.0657,0.19892 0.13721,0.3934 0.19727,0.5957 l 0.15039,0.5 0.008,0.52344 c 0.002,0.16986 5.8e-4,0.34323 0,0.51562 6.44599,-2.23609 12.89299,-4.46558 19.35156,-6.61328 l -0.041,-0.22851 0.002,-0.34961 c 8.9e-4,-0.33814 -7.2e-4,-0.67377 0,-1.01172 z m -113.74805,1.51562 c -0.0784,0.11817 -0.15776,0.23564 -0.23632,0.35352 -0.0687,0.27625 -0.13432,0.54707 -0.20899,0.82812 l -0.25976,0.98438 -0.71875,0.71875 c -0.0876,0.0876 -0.18473,0.18472 -0.27539,0.27539 -0.14755,0.29642 -0.29063,0.58951 -0.44532,0.89258 l -0.0937,0.18359 -0.11523,0.17383 c -0.18996,0.28917 -0.3895,0.5878 -0.5918,0.88867 -0.0893,0.18124 -0.17637,0.36235 -0.27344,0.54883 l -0.26953,0.51563 -0.41015,0.41015 -0.0781,0.0781 c -0.0315,0.0918 -0.0573,0.18085 -0.0898,0.27343 l -0.28516,0.81055 -0.60937,0.60547 c -0.22578,0.22579 -0.46137,0.46138 -0.70703,0.70703 -0.20047,0.20048 -0.41265,0.41265 -0.62891,0.62891 -0.1327,0.26661 -0.26192,0.53076 -0.40039,0.80273 -0.007,0.0142 -0.014,0.0268 -0.0215,0.041 l -0.0801,1.07031 -1.69727,1.70117 -0.39258,0.39258 -0.0293,0.38086 -0.99219,0.99219 c -0.2702,0.2702 -0.55162,0.55163 -0.82617,0.82617 0.11445,0.0494 0.22964,0.0968 0.34375,0.14648 0.46694,-0.002 0.93666,-0.006 1.39648,0 1.18027,-0.01 2.35379,-0.01 3.51563,0 0.49364,-0.009 0.98088,-0.01 1.46093,0 l 0.37696,0.01 0.37109,0.082 c 0.35524,0.0796 0.70101,0.17386 1.04883,0.26367 0.57486,-0.004 1.14874,-0.007 1.71289,0 l 0.63281,0.008 0.5957,0.21485 c 0.95827,0.34551 1.90799,0.70282 2.84766,1.06836 0.26851,0.083 0.53445,0.1725 0.79688,0.26562 0.65546,0.15623 1.30237,0.32076 1.94921,0.48633 l 0.0801,-0.29492 c 0.0836,-0.31471 0.15481,-0.61705 0.22852,-0.91992 -5.8e-4,-0.0215 8.6e-4,-0.05 0,-0.0703 l -0.041,-0.99414 0.45117,-0.88476 c 0.0988,-0.19354 0.18806,-0.37674 0.28321,-0.56641 l -0.01,-0.25 0.14649,-0.55664 c 0.0832,-0.31324 0.15708,-0.61255 0.23046,-0.91406 5.9e-4,-0.1627 0.004,-0.33259 0,-0.48633 l -0.0352,-1.21484 0.67969,-1.00782 c 0.11578,-0.17132 0.22124,-0.33193 0.33203,-0.49804 0.0606,-0.24069 0.12713,-0.48733 0.18164,-0.72071 l 0.10351,-0.44726 0.20899,-0.4082 c 0.10302,-0.20184 0.19583,-0.39416 0.29492,-0.5918 -4.6e-4,-0.0192 5.3e-4,-0.0414 0,-0.0606 l -0.0137,-0.54687 0.13867,-0.5293 c 0.0832,-0.31322 0.15708,-0.61255 0.23047,-0.91406 5.9e-4,-0.1627 0.004,-0.33064 0,-0.48438 l -0.0234,-0.80078 0.30469,-0.74023 c 0.2292,-0.55902 0.44596,-1.10587 0.65625,-1.64453 0.10629,-0.30421 0.2066,-0.59765 0.29492,-0.87891 l 0.0352,-0.11523 c -3.70561,-0.31789 -7.40329,-0.66572 -11.07032,-1.0879 z m 85.44336,1.61133 c -4.89489,0.40425 -9.79255,0.72421 -14.69531,0.96094 -10e-4,0.61097 0.003,1.21685 0,1.83008 v 0.0703 c 0.01,0.70954 0.01,1.42783 0,2.1543 l -0.004,0.32226 -0.0605,0.31836 c -0.11411,0.61289 -0.2386,1.23307 -0.37305,1.86328 l -0.006,0.0371 -0.01,0.0352 c -0.0785,0.33592 -0.16818,0.68035 -0.25586,1.02344 0.003,0.45039 0.007,0.90008 0,1.35937 l -0.004,0.31836 -0.0586,0.3125 c -0.0886,0.47597 -0.18816,0.96093 -0.28907,1.44727 0.003,0.33522 0.006,0.67191 0,1.01367 v 0.10547 c 8e-4,0.10727 -6.6e-4,0.21682 0,0.32422 5.72855,-1.87764 11.45335,-3.8236 17.17579,-5.80079 l 0.0137,-1.01367 c 0.006,-0.49612 0.003,-0.97829 0,-1.46289 -0.0392,-0.11571 -0.0757,-0.2401 -0.11719,-0.35156 l -0.24609,-0.66211 0.01,-0.70508 c 0.005,-0.39945 9e-4,-0.78772 0,-1.17969 -0.20928,-0.42322 -0.41629,-0.85043 -0.63281,-1.26562 l -0.45313,-0.86719 z m -66.19922,0.10547 c -0.0395,0.0592 -0.0777,0.11676 -0.11718,0.17578 -0.0702,0.21147 -0.13705,0.41921 -0.21289,0.63477 l -0.15235,0.43555 -0.2539,0.38671 c -0.14239,0.21676 -0.29405,0.4427 -0.44336,0.66602 -0.0699,0.21063 -0.13542,0.41811 -0.21094,0.63281 l -0.0195,0.0586 -0.0234,0.0605 c -0.14398,0.36953 -0.29975,0.74865 -0.45117,1.125 -0.001,0.14433 0.004,0.28586 0,0.43164 l -0.01,0.38282 -0.0879,0.37695 c -0.0785,0.33587 -0.16818,0.68033 -0.25586,1.02344 5.7e-4,0.2298 0.006,0.45596 0,0.68945 l -0.0215,0.82226 -0.36133,0.74024 c -0.17153,0.35064 -0.35339,0.71025 -0.53515,1.07031 -0.086,0.35309 -0.17169,0.70539 -0.26758,1.06641 l -0.15821,0.5918 -0.33593,0.51367 c -0.028,0.0426 -0.0596,0.088 -0.0879,0.13086 -1.3e-4,0.005 1.2e-4,0.008 0,0.0137 l -0.01,0.38672 -0.0879,0.375 c -0.0792,0.33881 -0.16939,0.68703 -0.25781,1.0332 -10e-4,0.12562 0.005,0.25086 0,0.37695 l -0.0312,0.79493 -0.34961,0.71679 c -0.1048,0.21425 -0.21951,0.43656 -0.32813,0.6543 l -0.0117,0.31445 -0.082,0.35352 c -0.0785,0.3359 -0.16818,0.67839 -0.25586,1.02148 10e-4,0.21468 1.5e-4,0.43224 0,0.64844 0.0445,0.0179 0.0884,0.0367 0.13282,0.0547 0.48276,-0.002 0.97013,-0.006 1.44531,0 l 0.81445,0.01 0.73633,0.34571 c 0.23768,0.11143 0.46727,0.23548 0.70117,0.35156 0.19993,9.5e-4 0.40393,-0.004 0.60156,0 l 0.37891,0.008 0.36914,0.084 c 0.35686,0.0799 0.70529,0.17137 1.05469,0.26171 0.23354,-6.6e-4 0.46936,-0.006 0.69922,0 0.92866,-0.009 1.85014,-0.01 2.76172,0 1.08761,-0.005 2.16553,-1.6e-4 3.24804,0 l 0.008,-0.21093 c 0.004,-0.14729 -6e-5,-0.27935 0,-0.41993 -0.0891,-0.17653 -0.17553,-0.35847 -0.26758,-0.53125 l -0.4668,-0.8789 0.0254,-0.99805 c 0.007,-0.29891 0.007,-0.58429 0,-0.85547 l -0.002,-0.0664 0.002,-0.0664 c 0.01,-1.28798 0.01,-2.56657 0,-3.83398 l -0.002,-0.0645 0.002,-0.0625 c 6.5e-4,-0.0247 -5.4e-4,-0.0458 0,-0.0703 -0.0887,-0.17582 -0.174,-0.35717 -0.26562,-0.5293 l -0.46875,-0.8789 0.0273,-0.9961 c 0.007,-0.29891 0.007,-0.58429 0,-0.85547 l -0.002,-0.084 v -0.084 c 0.009,-0.5596 0.009,-1.10578 0,-1.64258 v -0.0469 -0.043 c 0.01,-1.28799 0.01,-2.56656 0,-3.83398 v -0.0508 l 0.002,-0.0527 c 0.005,-0.24861 7.5e-4,-0.48402 0,-0.72461 -0.0399,-0.11814 -0.0768,-0.24371 -0.11914,-0.35742 l -0.25,-0.67383 0.0117,-0.54492 c -1.91933,-0.10894 -3.83743,-0.2331 -5.75782,-0.36328 z m -50.47656,0.11133 c -3.21257,1.93911 -6.05577,3.81357 -8.4082,5.60742 0.18768,0.0821 0.3795,0.15907 0.56641,0.24219 l 0.10156,0.0449 c 0.57708,0.23821 1.14255,0.4848 1.71094,0.73242 0.23849,4.3e-4 0.48155,-0.005 0.71679,0 l 0.80078,0.0176 0.72461,0.33984 c 0.24111,0.11304 0.4737,0.23765 0.71094,0.35547 l 0.43359,0.0176 0.44727,0.13281 c 0.20155,0.0598 0.39555,0.13188 0.59375,0.19727 0.18599,6e-4 0.37496,-0.005 0.55859,0 l 1.41211,0.0391 0.36133,0.33203 c 0.005,-1.09995 0.009,-2.19637 0,-3.28125 v -0.0645 -0.0645 c 0.007,-0.29892 0.007,-0.58232 0,-0.85352 v -0.0273 l -0.002,-0.002 -0.73047,-1.01953 0.0254,-1.2539 c 0.009,-0.4058 0.007,-0.79924 0,-1.1836 -0.007,-0.10352 -0.016,-0.20526 -0.0234,-0.30859 z m 64.13672,0.64648 0.01,0.48829 c 0.01,0.48138 0.009,0.9698 0,1.46484 v 0.10156 c 0.009,1.24236 0.009,2.49203 0,3.75195 v 0.0899 c 0.009,0.53879 0.007,1.08307 0,1.63476 v 0.16602 c 7.4e-4,0.0365 -5.8e-4,0.0728 0,0.10937 0.11615,0.23404 0.23811,0.46335 0.34961,0.70118 l 0.33593,0.71093 0.0215,0.78907 c 0.0116,0.41593 0.0113,0.83548 0,1.26367 l 0.002,-0.12696 c 0.01,1.30531 0.01,2.62058 0,3.94532 l -0.002,-0.13282 c 0.002,0.0891 -10e-4,0.18189 0,0.27149 0.1168,0.23528 0.23948,0.46403 0.35156,0.70312 l 0.2832,0.60547 0.0586,0.66407 c 0.0312,0.35005 0.0265,0.67186 0.004,0.97265 l 0.0117,-0.38867 c 0.007,0.25995 0.002,0.52632 0,0.79102 0.0425,0.20126 0.0809,0.40435 0.1211,0.60742 l 0.44726,0.19726 c 0.0242,0.0107 0.0462,0.0244 0.0703,0.0352 0.20272,9.3e-4 0.41097,-0.004 0.61133,0 l 0.28321,0.006 0.28125,0.0488 c 1.32801,0.22943 2.64466,0.46884 3.95312,0.71875 l 0.22852,0.043 0.21875,0.0684 c 0.52658,0.16897 1.04389,0.34758 1.56445,0.52343 6.68949,-1.72332 13.35818,-3.68519 20.01758,-5.77343 0.005,-0.93415 0.008,-1.86655 0,-2.78711 l -0.002,-0.0527 0.002,-0.0547 c 0.009,-0.43223 0.009,-0.8519 0,-1.25976 l -0.008,-0.4375 0.0918,-0.42969 c 0.0986,-0.46205 0.18594,-0.9104 0.27149,-1.35742 0.004,-0.44752 0.007,-0.89348 0,-1.32617 l -0.0117,-0.52344 0.13476,-0.50977 c 0.11223,-0.42259 0.21604,-0.83133 0.31055,-1.23242 0.002,-0.007 0.005,-0.014 0.006,-0.0215 0.0969,-0.45467 0.18136,-0.89575 0.26562,-1.33594 0.005,-0.56935 0.007,-1.13741 0,-1.69141 v -0.0351 -0.0352 c 0.003,-0.52685 -10e-4,-1.04696 0,-1.57226 -8.38073,0.24075 -16.77963,0.20695 -25.21093,-0.17579 -1.68461,-0.0614 -3.37968,-0.13896 -5.07227,-0.21289 z m -78.62695,11.0625 -0.29102,0.0117 c -4.10377,5.63082 -1.73736,10.27319 9.5625,13.72071 0.0149,-0.0111 0.03,-0.0241 0.0449,-0.0352 l 0.24219,-0.18164 0.27149,-0.14063 c 0.0719,-0.0374 0.13979,-0.0711 0.21093,-0.10742 0.32993,-0.32993 0.6602,-0.66018 0.98047,-0.98047 l 0.41211,-0.41015 0.51758,-0.26953 c 0.0715,-0.0372 0.13826,-0.0675 0.20898,-0.10352 0.0911,-0.0911 0.18739,-0.18934 0.2754,-0.27734 l 0.32421,-0.32227 0.38868,-0.23633 c 0.46989,-0.28507 0.92821,-0.55862 1.38671,-0.83203 0.12549,-0.12548 0.25513,-0.25514 0.375,-0.375 l 0.3086,-0.30859 c -6.5e-4,-0.17917 7.7e-4,-0.36198 0,-0.54102 v -0.0117 -0.0117 c 0.003,-1.16069 -10e-4,-2.31374 0,-3.47265 l -0.47266,-0.25391 c -0.35428,-0.18866 -0.7198,-0.36864 -1.08984,-0.54492 -0.22141,-0.0795 -0.44554,-0.1579 -0.6836,-0.22852 l -1.00195,-0.29687 -0.21875,-0.23633 -0.10351,0.002 -0.68555,-0.25781 c -0.11146,-0.0415 -0.23389,-0.076 -0.34961,-0.11523 l -0.97461,0.0371 -0.90234,-0.48047 c -0.17209,-0.0916 -0.3535,-0.17688 -0.5293,-0.26563 -0.15054,8.8e-4 -0.29367,-0.003 -0.44727,0 l -0.84375,0.0195 -0.77148,-0.3457 c -0.78091,-0.34836 -1.57179,-0.68789 -2.37305,-1.01758 l -0.0527,-0.0215 -0.0488,-0.0215 c -0.56353,-0.25139 -1.13879,-0.49271 -1.71289,-0.73437 -0.0627,9.6e-4 -0.11959,-0.002 -0.18359,0 l -0.73047,0.0195 -0.68555,-0.25391 c -0.1134,-0.0422 -0.23956,-0.0792 -0.35742,-0.11914 z m 28.78125,8.40235 -0.93946,0.93945 -0.22265,0.16406 c -0.38636,0.28768 -0.78229,0.58819 -1.18359,0.89063 -0.51976,0.51976 -1.04629,1.04434 -1.58204,1.58008 l -0.65625,0.65429 -0.88281,0.2793 c -0.0485,0.0152 -0.10317,0.035 -0.15234,0.0508 -0.12746,0.12746 -0.25389,0.25389 -0.38282,0.38281 -0.001,0.64074 0.003,1.27564 0,1.91797 v 0.0684 c 0.005,0.36944 10e-4,0.74633 0,1.1211 8.80089,0.7999 17.52854,0.78726 26.19727,0.11523 0.0315,-0.0477 0.0666,-0.0992 0.0977,-0.14648 l 0.20703,-0.31446 c 0.14022,-0.41814 0.2832,-0.83978 0.41601,-1.25 l 0.21485,-0.66015 0.43554,-0.54102 c 0.19515,-0.24292 0.38048,-0.47724 0.57227,-0.7168 l -0.006,-0.18554 0.0371,-0.13672 -0.0352,-0.0117 c -0.90198,-0.23758 -1.81369,-0.46503 -2.73632,-0.68359 l -0.22852,-0.0547 -0.21875,-0.0801 c -0.26073,-0.097 -0.53206,-0.18906 -0.81641,-0.27344 l -0.15234,-0.043 -0.14648,-0.0586 c -0.70464,-0.27463 -1.41962,-0.53966 -2.13672,-0.80273 -0.46034,-0.002 -0.91797,-0.006 -1.38868,0 l -0.54101,0.006 -0.51953,-0.14258 c -0.28024,-0.0777 -0.5738,-0.14704 -0.86524,-0.2168 -0.28966,-0.002 -0.57742,-0.006 -0.8789,0 h -0.0527 -0.0547 c -1.14764,-0.01 -2.30432,-0.01 -3.47266,0 h -0.041 -0.041 c -0.66192,-0.01 -1.33568,-0.01 -2.01953,0 l -0.83203,0.0117 -0.75782,-0.33984 c -0.72527,-0.32355 -1.46023,-0.6359 -2.20312,-0.94336 -0.66998,-0.20039 -1.34599,-0.39344 -2.03125,-0.58008 z"
       id="path3054"
       inkscape:connector-curvature="0"
       sodipodi:nodetypes="ccccccccccccccccccccccccccccccccccccccccccccccccccccccccccccccccccccccccccccccccccccccccccccccscccccccccccccccccccccccccccccccccccccccccccccccccccccccccccccccccccccccccccccccccccccccccccccccccccccccccccccccccccccccccccccccccccccccccccccccccccccccccccccccccccccccccccccccccccccccccccccccccccccccccccccccccccccccccccccccccccccccccccccccccccccccccccccccccccccccccccccccccccccccccccccccccccccccccccccccccccccccccccccc" />
    <path
       style="display:inline;opacity:1;fill:none;stroke:#c0c0c0;stroke-width:0.37795275;stroke-linecap:round;stroke-linejoin:round;stroke-miterlimit:4;stroke-dasharray:none;stroke-opacity:1"
       d="m 827.81836,280.64844 c -2.78397,-0.009 -5.51679,0.0508 -8.22852,0.13867 -0.523,0.97292 -1.04338,1.94495 -1.57422,2.92578 -0.20667,0.52688 -0.41698,1.05693 -0.63867,1.59766 l -0.0527,0.125 -0.0605,0.12304 c -0.65856,1.32654 -1.32774,2.66183 -2.0039,4.00586 -0.20478,0.62763 -0.41291,1.26054 -0.63282,1.90235 l -0.0254,0.0723 -0.0293,0.0742 c -0.20687,0.53093 -0.42232,1.0702 -0.64454,1.61524 -0.0849,0.30478 -0.17815,0.61654 -0.26562,0.92382 2.73599,0.64693 5.46653,1.29884 8.18555,1.96289 l 0.13476,0.0332 0.13477,0.043 c 1.38146,0.44754 2.74996,0.90485 4.11328,1.37109 0.63108,0.14107 1.2569,0.2892 1.88476,0.43359 1.97335,-0.80959 3.94632,-1.61986 5.90821,-2.41797 l 0.17383,-0.0703 0.18164,-0.0547 c 0.85378,-0.25124 1.69822,-0.49336 2.5332,-0.7246 l 0.11133,-0.0293 0.10937,-0.0215 c 0.0647,-0.0138 0.12688,-0.0255 0.19141,-0.0391 -0.001,-0.87167 0.003,-1.7473 0,-2.61719 v -0.0156 -0.0117 c 0.01,-2.35685 0.01,-4.70631 0,-7.04297 l -0.002,-0.0234 0.002,-0.0273 c 0.009,-0.83429 0.006,-1.65737 0,-2.47461 -0.0827,-0.51842 -0.17261,-1.0292 -0.25781,-1.54492 -3.12288,-0.13157 -6.21595,-0.22286 -9.24805,-0.23242 z m -16.94922,0.58008 c -10.71364,0.75627 -20.88616,2.2325 -30.65234,4.23046 0.39417,0.11955 0.79297,0.23423 1.18554,0.35547 0.96745,0.0998 1.93036,0.20441 2.88282,0.32032 l 0.16211,0.0215 0.16015,0.0332 c 1.01323,0.21359 2.01697,0.43667 3.01367,0.66797 1.01715,0.10394 2.02675,0.21612 3.02735,0.33789 l 0.33008,0.0391 0.3164,0.0976 c 1.82418,0.55742 3.6373,1.1253 5.44336,1.70117 0.6429,0.0997 1.28455,0.2029 1.91406,0.31836 l 0.30469,0.0566 0.29492,0.10547 c 0.94912,0.34221 1.88755,0.69482 2.81836,1.05664 0.7097,0.22498 1.41262,0.45894 2.10547,0.70313 l 0.19336,0.0664 0.18164,0.0899 c 0.53996,0.25869 1.07171,0.52708 1.60156,0.79687 0.065,0.008 0.12851,0.0179 0.19336,0.0254 0.11942,-0.41749 0.24142,-0.84017 0.35547,-1.25195 l 0.0605,-0.2168 0.0859,-0.20898 c 0.22751,-0.55489 0.44349,-1.09803 0.65234,-1.63281 0.22959,-0.67139 0.45115,-1.3348 0.66211,-1.98633 l 0.0898,-0.27539 0.13086,-0.25977 c 0.69466,-1.37966 1.37901,-2.74887 2.05469,-4.10937 0.14958,-0.36621 0.29014,-0.72379 0.43164,-1.08203 z m 33.9375,0.0996 c 0.01,0.0629 0.0213,0.12455 0.0312,0.1875 l 0.041,0.2754 0.004,0.27929 c 0.01,0.94183 0.01,1.89151 0,2.85157 v 0.0527 c 0.01,2.33055 0.01,4.67155 0,7.02148 v 0.0293 c 5e-4,0.15432 -4.5e-4,0.31047 0,0.46484 0.3125,-0.0652 0.62149,-0.12538 0.92969,-0.18554 1.13647,-0.6228 2.26707,-1.24375 3.38867,-1.85157 l 0.0469,-0.0234 0.0449,-0.0234 c 0.53813,-0.27282 1.06605,-0.53676 1.59375,-0.79883 l 0.9082,-0.91015 1.07422,-0.0781 c 0.23861,-0.11924 0.48238,-0.24471 0.7168,-0.35937 l 0.21289,-0.10352 0.22265,-0.0781 c 0.49814,-0.17067 0.98495,-0.32864 1.47461,-0.49023 0.38666,-0.32264 0.77152,-0.64412 1.15235,-0.96094 0.13037,-0.19515 0.26515,-0.39598 0.38867,-0.58398 l 0.55273,-0.8418 0.90235,-0.45508 c 0.92987,-0.46983 1.84816,-0.9296 2.75976,-1.38086 0.13598,-0.0783 0.26877,-0.15271 0.4043,-0.23046 -5.77021,-0.80978 -11.37817,-1.40185 -16.84961,-1.80665 z m 29.13281,3.8086 c -0.26717,0.12767 -0.53137,0.25294 -0.79883,0.38086 l -0.11914,0.0566 -0.12304,0.0508 c -1.02384,0.40428 -2.05978,0.81831 -3.09961,1.23828 -0.69265,0.49306 -1.38829,0.99035 -2.09571,1.49805 l -0.16601,0.11719 -0.17578,0.0996 c -0.80612,0.45641 -1.62253,0.92377 -2.44922,1.4004 l -0.10352,0.0605 -0.10742,0.0547 c -0.63266,0.31295 -1.27766,0.6366 -1.91992,0.95898 -0.0551,0.082 -0.10611,0.15931 -0.16211,0.24219 l -0.30078,0.44727 -0.41406,0.34375 c -0.69434,0.57695 -1.40075,1.16465 -2.11524,1.76172 l -0.56054,0.4707 -0.69727,0.22461 c -0.60366,0.19544 -1.21901,0.40373 -1.83984,0.61523 -0.37423,0.18437 -0.75069,0.37131 -1.14063,0.57032 l -0.1914,0.0976 -0.004,0.002 -0.0801,0.0391 -0.69336,0.35547 -0.0176,-0.002 c -0.59511,0.29425 -1.19583,0.59482 -1.80664,0.9043 -1.26533,0.68581 -2.53909,1.37854 -3.82422,2.08398 l -0.53125,0.29297 -0.5957,0.10938 c -0.53814,0.10019 -1.08818,0.2127 -1.64844,0.33203 l -0.0234,0.004 c -0.40109,0.0945 -0.80982,0.19831 -1.23243,0.31054 l -0.0195,0.004 c -5.4e-4,0.19499 6.4e-4,0.38891 0,0.58398 v 0.0137 c 5.3e-4,0.89597 -4.6e-4,1.79342 0,2.68945 0.0173,0.005 0.0355,0.0122 0.0527,0.0176 1.3019,0.31465 2.59304,0.63748 3.8789,0.96875 1.21504,0.10199 2.42438,0.20901 3.62305,0.32812 l 0.45508,0.0469 0.42969,0.15234 c 1.15259,0.40711 2.29384,0.82544 3.43164,1.24805 1.37706,0.0985 2.74958,0.20201 4.11132,0.3164 l 0.375,0.0312 0.35743,0.10352 c 1.16733,0.33744 2.32542,0.68834 3.47461,1.04492 2.75636,0.67721 5.50446,1.36255 8.24218,2.05859 2.90078,0.41976 5.79329,0.8489 8.67774,1.28516 0.1283,-0.21274 0.2533,-0.4248 0.3789,-0.63477 0.0828,-0.56294 0.16912,-1.12528 0.24219,-1.67773 l 0.082,-0.64062 0.29297,-0.57422 c 0.2665,-0.52567 0.52018,-1.03873 0.77539,-1.55274 0.0911,-0.61419 0.18215,-1.2284 0.26172,-1.83008 l 0.10352,-0.78711 0.41211,-0.67578 c 0.27283,-0.44969 0.53593,-0.88865 0.79687,-1.32617 0.19238,-0.6609 0.3814,-1.31996 0.56055,-1.96679 l 0.11523,-0.42383 0.21289,-0.38672 c 0.68432,-1.24663 1.35956,-2.481 2.02539,-3.70899 0.33752,-0.77647 0.66884,-1.54497 0.98828,-2.30273 l 0.20508,-0.48828 0.33008,-0.41211 c 0.44196,-0.55016 0.87406,-1.0882 1.29883,-1.6211 0.2504,-0.37327 0.49279,-0.73702 0.73828,-1.10546 -6.11668,-1.51611 -12.07722,-2.82096 -17.87305,-3.89844 z m -113,5.01367 c -5.27031,1.48331 -10.44128,3.08994 -15.53515,4.78711 0.0451,0.0595 0.0913,0.11873 0.13476,0.17969 l 0.68946,0.96679 0.0117,1.18946 c 0.007,0.7459 0.004,1.50243 0,2.25976 0.0654,0.19819 0.13949,0.39225 0.19922,0.59375 l 0.14844,0.5 0.008,0.52344 c 0.009,0.58063 0.004,1.16975 0,1.76172 0.21486,0.9316 0.42558,1.8665 0.625,2.8125 l 0.0723,0.3457 0.01,0.35547 c 0.007,0.36995 0.003,0.74894 0,1.12695 0.0921,0.43643 0.18229,0.87348 0.26368,1.31836 l 0.0293,0.14453 c 0.12664,0.58214 0.24603,1.17225 0.35352,1.76954 l 0.0527,0.29101 0.006,0.29883 c 0.007,0.36654 0.003,0.74273 0,1.11719 0.10305,0.48804 0.20717,0.97591 0.29688,1.47461 l 0.0508,0.29297 0.008,0.29882 c 0.006,0.30814 10e-4,0.62379 0,0.9375 0.30996,1.00765 0.61681,2.01747 0.91211,3.03907 l 0.14258,0.49804 0.006,0.51953 c 5.4e-4,0.0585 -4.7e-4,0.11723 0,0.17579 0.0677,0.0366 0.13809,0.0675 0.20508,0.10546 l 0.39843,0.22461 0.33399,0.31641 c 0.20141,0.19033 0.38987,0.39217 0.58594,0.58789 0.3747,0.14835 0.75294,0.29111 1.12109,0.44727 l 1.18164,0.5 0.24609,0.43164 0.51953,0.14258 0.54102,0.38867 c 0.44998,0.32113 0.88743,0.65656 1.32227,0.99414 0.45269,0.26233 0.89928,0.52933 1.34179,0.80273 0.52703,0.20291 1.05227,0.40886 1.56641,0.62696 l 0.63867,0.27148 0.50195,0.48242 c 0.13196,0.12648 0.25616,0.25886 0.38672,0.38672 l 0.29883,0.0664 c 0.51621,0.11565 1.02476,0.24339 1.52539,0.38086 0.43223,-0.10056 0.86226,-0.19789 1.29297,-0.29688 -10e-4,-0.91614 0.002,-1.83648 0,-2.75195 v -0.0156 -0.0117 c 0.01,-1.76424 0.01,-3.51974 0,-5.26367 v -0.0293 -0.0273 c 0.009,-0.86449 0.007,-1.72022 0,-2.5664 -0.21744,-1.93357 -0.44371,-3.85877 -0.67969,-5.77344 l -0.0293,-0.24219 0.002,-0.24609 c 0.01,-1.40735 0.01,-2.80454 0,-4.19141 v -0.0215 -0.0195 c 0.01,-2.12002 0.01,-4.23028 0,-6.33007 v -0.0293 -0.0273 c 0.01,-0.9277 0.01,-1.84534 0,-2.75196 v -0.0391 -0.041 c 0.007,-0.64099 0.004,-1.27097 0,-1.89843 -0.17802,-0.64461 -0.35665,-1.28893 -0.54688,-1.91993 l -0.0859,-0.28515 -0.0391,-0.29492 c -0.0575,-0.4228 -0.12091,-0.83832 -0.17968,-1.25977 l -0.0918,-0.041 c -0.27687,-0.12351 -0.56088,-0.23975 -0.8418,-0.35938 z m 138.76758,0.94531 c -0.36433,0.45679 -0.73353,0.91664 -1.10937,1.38477 -0.43374,0.65462 -0.87158,1.31692 -1.32227,1.98828 l -0.0859,0.12695 -0.0957,0.1211 c -0.35934,0.45111 -0.73036,0.91401 -1.10156,1.37695 -0.28374,0.66862 -0.56875,1.34052 -0.86524,2.02148 l -0.0644,0.14649 -0.0762,0.14453 c -0.63321,1.16845 -1.27826,2.34666 -1.92774,3.53125 -0.19433,0.69409 -0.39156,1.39066 -0.59961,2.09766 l -0.13476,0.45507 -0.24024,0.40625 c -0.22029,0.37146 -0.45163,0.75382 -0.67968,1.13282 -0.0809,0.58256 -0.15944,1.16261 -0.25,1.7539 l -0.0879,0.57618 -0.25782,0.52148 c -0.25824,0.524 -0.52792,1.05941 -0.79687,1.59375 -0.087,0.63158 -0.17119,1.26235 -0.26953,1.9043 l -0.0332,0.21679 c 0.93775,0.12603 1.87342,0.25419 2.8086,0.38282 0.93303,-0.28375 1.86195,-0.56432 2.7832,-0.83594 1.82931,-0.80535 3.65005,-1.59987 5.46094,-2.38672 l 0.084,-0.0371 0.0859,-0.0312 c 1.83538,-0.69433 3.65968,-1.37896 5.47656,-2.05469 0.8978,-0.45299 1.78918,-0.90029 2.66992,-1.33593 l 0.11133,-0.0527 0.11719,-0.0488 c 1.94864,-0.80807 3.88626,-1.607 5.81641,-2.39648 1.00777,-0.56352 2.00746,-1.11988 2.99804,-1.66602 l 0.23438,-0.1289 0.25391,-0.0957 c 0.24779,-0.0937 0.49082,-0.1839 0.73828,-0.27734 10e-4,-1.48482 -6.7e-4,-2.96565 0,-4.44922 -1.99365,-0.75449 -4.15853,-1.50386 -6.52539,-2.24805 -4.46189,-1.40289 -8.81875,-2.66221 -13.11524,-3.83789 z m -130.01172,0.0957 c 0.15377,0.53123 0.31143,1.05906 0.45703,1.59765 l 0.125,0.46289 0.006,0.47852 c 0.01,0.81822 0.009,1.64679 0,2.48242 v 0.0801 c 0.009,0.91414 0.009,1.83822 0,2.76953 v 0.0566 c 0.01,2.09051 0.01,4.18913 0,6.29883 v 0.043 c 0.009,1.32862 0.009,2.66605 0,4.01172 0.23648,1.92584 0.46568,3.85865 0.6836,5.80273 l 0.0215,0.19141 0.002,0.1914 c 0.01,0.93975 0.01,1.8878 0,2.84571 v 0.0586 c 0.01,1.74351 0.01,3.49524 0,5.25781 v 0.0274 c 2e-4,0.097 -1.7e-4,0.19395 0,0.29101 0.97708,-0.16527 1.9539,-0.32845 2.92188,-0.48437 0.21276,-0.0452 0.41814,-0.0841 0.62891,-0.12696 l 0.25,-0.25 0.69921,-0.69726 0.95118,-0.26953 c 1.81507,-0.51033 3.61913,-1.00797 5.41992,-1.50391 l 0.77539,-0.7793 0.5332,-0.27343 c 0.49951,-0.25495 0.99105,-0.49881 1.47266,-0.73438 l 0.33203,-0.16406 0.35937,-0.0957 c 0.0558,-0.0148 0.10839,-0.0264 0.16407,-0.041 0.0811,-0.10859 0.16804,-0.22265 0.24804,-0.33008 l 0.84961,-1.14062 1.39453,-0.29883 c 0.23454,-0.05 0.46125,-0.0914 0.69336,-0.13867 l 1.04102,-1.04102 1.0918,-0.23437 c 0.39714,-0.0847 0.78551,-0.15769 1.17578,-0.23438 0.40927,-0.24655 0.8202,-0.49684 1.2207,-0.73437 l 0.5918,-0.34961 0.67383,-0.11914 c 0.5408,-0.0964 1.07226,-0.18193 1.60351,-0.26758 0.54762,-0.27577 1.09412,-0.5519 1.63086,-0.81641 l 0.22266,-0.10937 0.23242,-0.0801 c 0.95775,-0.32522 1.90696,-0.63958 2.84961,-0.94922 0.0467,-0.0268 0.0919,-0.0533 0.13867,-0.0801 0.43447,-1.6085 0.86336,-3.20912 1.28125,-4.80078 0.62334,-2.46727 1.23559,-4.92495 1.84375,-7.37695 l -0.36523,-0.043 -0.62305,-0.32617 c -0.5972,-0.31145 -1.20454,-0.61176 -1.81836,-0.90821 -0.59634,-0.20802 -1.19706,-0.41041 -1.81055,-0.60351 l -0.12109,-0.0391 -0.11719,-0.0449 c -0.80356,-0.31318 -1.61779,-0.61593 -2.4375,-0.91406 -0.56067,-0.1 -1.12487,-0.19843 -1.70117,-0.28516 l -0.29883,-0.0449 -0.29101,-0.0918 c -1.75251,-0.55991 -3.5148,-1.10995 -5.28516,-1.65235 -0.91971,-0.10987 -1.84479,-0.21625 -2.78125,-0.31054 l -0.24414,-0.0215 -0.23633,-0.0566 c -0.96896,-0.2266 -1.95004,-0.443 -2.9375,-0.65234 -0.97312,-0.11737 -1.95343,-0.23013 -2.94531,-0.33008 l -0.38086,-0.0371 -0.36328,-0.11524 c -1.04816,-0.32611 -2.10855,-0.63936 -3.17383,-0.94921 -0.92584,-0.11073 -1.85611,-0.21757 -2.79883,-0.3125 l -0.24414,-0.0234 -0.23828,-0.0547 c -0.90307,-0.21119 -1.81725,-0.41318 -2.73633,-0.60937 -0.21075,-9.9e-4 -0.42567,6.9e-4 -0.63672,0 z m -31.81836,6.33984 c -5.565,1.96728 -11.05788,4.0158 -16.50195,6.10742 3.16535,1.85256 5.50504,3.27209 8.05859,8.97461 0.15946,0.3869 0.29425,0.77878 0.44141,1.16797 l 0.0215,0.006 c 0.95211,0.22552 1.89607,0.46179 2.83008,0.70703 l 0.0918,0.0215 c 0.95148,0.22618 1.89278,0.46119 2.82617,0.70704 l 0.0879,0.0234 0.0859,0.0274 c 0.63335,0.19935 1.25692,0.41037 1.87695,0.625 1.03879,0.15318 2.06955,0.31631 3.09961,0.47851 l 0.008,-0.40234 c 0.006,-0.33294 0.003,-0.6522 0,-0.9707 -0.0835,-0.44583 -0.16852,-0.88911 -0.26367,-1.32032 l -0.0976,-0.43945 0.01,-0.45117 c 0.006,-0.33007 0.003,-0.64701 0,-0.96289 -0.0841,-0.44951 -0.16973,-0.89554 -0.26562,-1.33008 l -0.0176,-0.0703 -0.0117,-0.0742 c -0.0993,-0.55198 -0.20924,-1.09327 -0.32617,-1.62305 l -0.0957,-0.43945 0.01,-0.44922 c 0.006,-0.31721 0.003,-0.62167 0,-0.92578 -0.1962,-0.91905 -0.39821,-1.83141 -0.60937,-2.73438 l -0.10352,-0.45117 0.006,-0.46289 c 0.006,-0.49471 0.003,-0.97573 0,-1.45898 -0.0395,-0.11674 -0.0754,-0.24113 -0.11719,-0.35352 l -0.24414,-0.65625 0.008,-0.69922 c 0.005,-0.51616 5.9e-4,-1.0216 0,-1.53125 -0.0844,-0.10995 -0.16434,-0.22531 -0.25,-0.33398 z m 73.74219,3.90234 c -0.3785,1.52604 -0.76216,3.05802 -1.14648,4.58985 0.63545,-0.18642 1.26364,-0.36569 1.88867,-0.54102 0.45653,-0.27549 0.91179,-0.55014 1.35742,-0.81445 l 0.20508,-0.12109 0.21484,-0.0938 c 0.75325,-0.32797 1.49628,-0.64471 2.23438,-0.95703 0.36104,-0.22298 0.7162,-0.44021 1.07617,-0.66211 -1.94089,-0.46916 -3.8804,-0.93995 -5.83008,-1.40039 z m 121.32813,2.88086 c -0.88068,0.35171 -1.75727,0.6977 -2.64258,1.05469 -0.01,0.004 -0.0197,0.007 -0.0293,0.0117 -1.03092,0.45283 -2.07195,0.91607 -3.12305,1.38867 l -0.11523,0.0508 -0.11719,0.0449 c -0.003,10e-4 -0.009,0.003 -0.0117,0.004 3.8e-4,0.82876 0.005,1.6539 0,2.48828 l -0.002,-0.0762 c 0.01,0.7323 0.01,1.47231 0,2.22266 l -0.004,0.37695 -0.0801,0.36719 c -0.10201,0.47487 -0.21244,0.95883 -0.31836,1.4375 2.76912,-0.002 5.54113,-0.006 8.30078,0 0.80472,-0.005 1.60015,1.5e-4 2.40039,0 0.89612,-3.00101 -0.31307,-6.17015 -4.25781,-9.3711 z m -104.2168,1.58594 c -0.84004,0.31038 -1.68568,0.62602 -2.54297,0.95313 l -0.0918,0.0332 -0.0918,0.0312 c -0.54891,0.17772 -1.10882,0.36567 -1.67188,0.55664 -1.39957,0.8583 -2.80605,1.72236 -4.22265,2.59766 l -0.24805,0.15429 -0.26953,0.11328 c -0.73045,0.30793 -1.47295,0.62647 -2.22071,0.95118 -0.5033,0.29932 -1.01174,0.60473 -1.53125,0.91992 l -0.44531,0.26953 -0.50391,0.14062 c -0.5647,0.1564 -1.14138,0.32374 -1.71679,0.49024 -0.38714,0.30927 -0.77384,0.61735 -1.16992,0.93555 l -0.13477,0.10937 -0.14648,0.0957 c -0.69004,0.45673 -1.38915,0.92344 -2.09961,1.40039 l -0.11719,0.0781 -0.12109,0.0684 c -0.43264,0.24609 -0.87064,0.49859 -1.30469,0.74609 -2.8e-4,0.002 2.8e-4,0.006 0,0.008 l -0.0254,0.19532 -0.0469,0.1914 c -0.19232,0.79482 -0.39527,1.60011 -0.60156,2.40821 0.005,0.79399 0.009,1.59155 0,2.39843 l -0.002,0.26953 -0.041,0.26954 c -0.10805,0.69843 -0.22859,1.40591 -0.35547,2.12109 l -0.0137,0.0859 c -0.10882,0.69913 -0.22787,1.40533 -0.35547,2.12109 l -0.0273,0.17383 -0.0488,0.17187 c -0.20289,0.73257 -0.41647,1.4756 -0.63477,2.22266 -0.10024,0.85156 -0.20795,1.70773 -0.32421,2.57422 l -0.0664,0.5 -0.19531,0.46484 c -0.27535,0.6532 -0.56,1.31738 -0.84766,1.98242 -0.0925,0.87506 -0.189,1.75294 -0.29492,2.64063 l -0.002,0.0137 c -0.10183,0.88004 -0.21303,1.77198 -0.33204,2.66797 0.51591,-0.1284 1.0355,-0.26289 1.54883,-0.38867 0.14407,-0.0497 0.28552,-0.0935 0.42774,-0.14063 0.22131,-0.14795 0.44529,-0.30025 0.66015,-0.4414 l 0.92188,-0.60742 1.10156,-0.0137 c 0.52623,-0.007 1.0432,-0.003 1.56055,0 0.52607,-0.17752 1.05186,-0.3562 1.56836,-0.52343 l 0.0508,-0.0156 0.0469,-0.0137 c 0.76597,-0.22541 1.52261,-0.44109 2.27344,-0.65039 0.76571,-0.33242 1.5254,-0.65843 2.27539,-0.97461 l 0.22266,-0.0937 0.23242,-0.0644 c 1.18947,-0.33103 2.3694,-0.65205 3.54297,-0.9668 0.6091,-0.30744 1.21292,-0.61073 1.80859,-0.9043 l 0.35156,-0.17187 0.37696,-0.0977 c 0.93975,-0.24232 1.86906,-0.47568 2.79101,-0.69922 1.64474,-0.4768 3.28066,-0.94301 4.90625,-1.40039 l 0.22266,-0.0644 0.23047,-0.0332 c 0.67856,-0.10391 1.34665,-0.19591 2.01367,-0.28711 0.68442,-0.29625 1.36722,-0.59177 2.03906,-0.875 l 0.44141,-0.18555 0.47461,-0.0684 c 0.45965,-0.068 0.91097,-0.12875 1.36914,-0.19531 7.5e-4,-7.02222 0.003,-14.04586 0,-21.06446 -2.8563,-1.06843 -5.72113,-2.13135 -8.59375,-3.18359 z m 90.61719,4.19922 c -0.24723,0.13789 -0.488,0.27117 -0.73633,0.41016 l -0.20313,0.11328 -0.21484,0.0879 c -1.94483,0.79508 -3.89722,1.59981 -5.86133,2.41406 -0.37097,0.18364 -0.75072,0.37366 -1.125,0.56055 2.51939,-10e-4 5.03713,-0.002 7.55274,0 0.20346,-0.88855 0.3986,-1.76884 0.58789,-2.64258 0.003,-0.31787 10e-4,-0.63028 0,-0.94336 z m -74.46485,1.24609 c 0.002,5.7806 4.3e-4,11.56461 0,17.34766 0.17516,-0.0214 0.35281,-0.0436 0.52735,-0.0644 0.67221,-0.29083 1.34189,-0.57915 2.00195,-0.85743 l 0.30469,-0.12695 0.31836,-0.0762 c 0.96355,-0.22111 1.91871,-0.43135 2.86718,-0.63672 0.72846,-0.31581 1.45371,-0.62858 2.16797,-0.92969 l 0.0606,-0.0254 0.0606,-0.0215 c 0.96614,-0.36864 1.92225,-0.72938 2.86914,-1.07813 l 0.11914,-0.041 0.12109,-0.0371 c 0.7478,-0.22006 1.48545,-0.43007 2.21875,-0.63477 1.45664,-0.67679 2.90661,-1.34479 4.3457,-2.0039 l 0.51172,-0.23438 0.5586,-0.0762 c 0.81602,-0.10949 1.62302,-0.20748 2.42578,-0.30273 0.8149,-0.30931 1.62664,-0.61706 2.42773,-0.91211 l 0.39063,-0.14258 0.41211,-0.0566 c 0.86716,-0.11637 1.72394,-0.222 2.57617,-0.32227 0.74636,-0.21807 1.48882,-0.43206 2.2207,-0.63476 l 0.0312,-0.008 0.0352,-0.008 c 0.88926,-0.22931 1.7673,-0.44766 2.64062,-0.66016 0.47158,-0.17947 0.93538,-0.35263 1.40235,-0.52734 -2.15397,-0.3219 -4.3055,-0.64628 -6.46875,-0.95898 l -0.19727,-0.0293 -0.19531,-0.0488 c -2.80823,-0.71451 -5.62483,-1.41866 -8.45313,-2.11328 l -0.11328,-0.0273 -0.10742,-0.0352 c -1.02687,-0.31949 -2.06605,-0.62773 -3.10937,-0.93164 -1.38032,-0.1143 -2.76658,-0.22261 -4.16407,-0.32031 l -0.54687,-0.0371 -0.51563,-0.19532 c -1.12163,-0.41977 -2.25297,-0.82794 -3.39062,-1.23242 -1.11708,-0.10875 -2.23808,-0.21309 -3.3711,-0.30664 l -0.32421,-0.0273 -0.31446,-0.0801 c -0.77557,-0.20079 -1.5618,-0.39129 -2.34375,-0.58594 z m -45.03515,9.05274 c -0.29257,0.14661 -0.57875,0.28731 -0.875,0.4375 l -0.53711,0.27344 -0.59375,0.0918 c -0.44989,0.0696 -0.91321,0.15001 -1.37305,0.22852 -0.37632,0.225 -0.74951,0.44791 -1.13477,0.68164 l -0.58984,0.35742 -0.67969,0.125 c -0.19385,0.0361 -0.39701,0.0805 -0.59375,0.11914 l -1.08203,1.08203 -1.15234,0.21485 c -0.0986,0.0183 -0.20137,0.0396 -0.30078,0.0586 -0.0685,0.0909 -0.13401,0.17801 -0.20313,0.26953 l -0.82422,1.0918 -1.33203,0.3125 c -0.31062,0.0726 -0.63333,0.15693 -0.95703,0.24023 -0.16111,0.0797 -0.32624,0.15984 -0.49023,0.24219 l -1.33594,1.33789 -0.9668,0.26562 c -1.78973,0.49103 -3.58823,0.99255 -5.39258,1.49805 -0.12055,0.12056 -0.23653,0.23459 -0.35937,0.35742 l -0.82617,0.83008 -1.15235,0.21485 c -0.54563,0.10158 -1.10356,0.21078 -1.67187,0.33203 l -0.0957,0.0215 -0.0937,0.0137 c -0.87484,0.14062 -1.75963,0.29291 -2.64258,0.44141 0.11483,0.0858 0.22994,0.17294 0.34375,0.25977 0.79308,0.29028 1.58305,0.58068 2.36328,0.88476 l 0.6875,0.26953 0.53906,0.50586 c 0.32452,0.30668 0.6347,0.62465 0.94531,0.94531 0.42946,0.31214 0.85615,0.62784 1.27149,0.95508 l 0.043,0.0332 0.0391,0.0332 c 0.78845,0.65829 1.56659,1.32817 2.33789,2.0039 0.66852,0.43346 1.33406,0.87184 1.98633,1.32227 l 0.0215,0.0176 0.0254,0.0156 c 0.008,0.005 0.0158,0.0102 0.0234,0.0156 4.42214,0.42603 8.76757,0.7755 13.03906,1.04883 0.0276,-0.20051 0.0596,-0.40653 0.0859,-0.60547 l 0.002,-0.002 v -0.004 c 0.12487,-0.93051 0.23858,-1.85238 0.34375,-2.76172 l 0.002,-0.006 v -0.006 c 0.12543,-1.05039 0.24195,-2.09163 0.34765,-3.12109 l 0.0586,-0.58399 0.23632,-0.53906 c 0.28834,-0.66221 0.56463,-1.31229 0.83985,-1.96094 0.0997,-0.76165 0.19875,-1.52018 0.28515,-2.26758 l 0.0371,-0.32226 0.0918,-0.31055 c 0.22214,-0.75489 0.43168,-1.49758 0.63672,-2.23437 0.11155,-0.6323 0.21757,-1.25935 0.3125,-1.87305 l 0.008,-0.041 0.008,-0.0449 c 0.10709,-0.60059 0.20277,-1.18943 0.29493,-1.77344 0.003,-0.33421 -2.6e-4,-0.66072 0,-0.99218 z m 93.69531,0.34961 c -0.76545,0.3817 -1.52661,0.76199 -2.30078,1.15234 l -0.24805,0.125 -0.26758,0.0879 c -1.87201,0.61957 -3.75386,1.25047 -5.63476,1.87891 -0.25282,0.88576 -0.50126,1.76684 -0.75977,2.6582 l -0.0391,0.13281 -0.0488,0.12891 c -0.65786,1.77 -1.32645,3.55041 -2.00195,5.33789 -0.16549,0.95755 -0.3402,1.9231 -0.50977,2.88477 10.1103,-1.81463 19.96193,-4.01294 29.68164,-6.51954 1.35067,-0.34832 2.65863,-0.72034 3.93946,-1.10351 0.17628,-0.86356 0.35281,-1.72609 0.51757,-2.57813 10e-4,-0.004 10e-4,-0.007 0.002,-0.0117 0.12206,-0.68519 0.23517,-1.35991 0.33789,-2.02344 l 0.0937,-0.59961 0.27539,-0.54297 c 0.0893,-0.17503 0.16946,-0.33984 0.25586,-0.51172 -3.79078,-0.002 -7.57946,-0.006 -11.37891,0 h -0.0156 -0.0137 c -1.50605,-0.01 -3.02429,-0.01 -4.55078,0 h -0.0312 -0.0312 c -0.9066,-0.01 -1.82231,-0.01 -2.75,0 l -0.25,0.002 -0.24609,-0.0293 c -1.02435,-0.12465 -2.05839,-0.24043 -3.10352,-0.34571 l -0.0723,-0.006 -0.0762,-0.0117 c -0.25669,-0.0362 -0.51657,-0.0695 -0.77344,-0.10547 z m 31.16406,0.49609 c -0.123,0.55401 -0.24085,1.10303 -0.36914,1.66211 l -0.0977,0.42578 -0.1914,0.38867 c -0.1375,0.28109 -0.28463,0.57128 -0.42969,0.85938 2.46855,-1.0423 4.68917,-2.1574 6.58203,-3.33594 -1.83153,8e-5 -3.65935,-0.003 -5.49414,0 z m -192.40234,0.93555 c 0.67143,3.02484 1.21955,6.09996 1.85351,9.21875 3.4027,0.68554 6.74713,1.31662 10.0625,1.91992 -0.0485,-0.0962 -0.0945,-0.19509 -0.14453,-0.28906 l -0.27734,-0.52344 -0.10742,-0.58203 c -0.0993,-0.55194 -0.20728,-1.09322 -0.32422,-1.62305 l -0.0156,-0.0742 -0.0117,-0.0723 c -0.0993,-0.55194 -0.20728,-1.09322 -0.32422,-1.62305 l -0.0176,-0.0703 -0.0117,-0.0742 c -0.0993,-0.55198 -0.20925,-1.09131 -0.32617,-1.6211 l -0.004,-0.0176 -0.004,-0.0195 c -0.14316,-0.67917 -0.29594,-1.34519 -0.44726,-2.01563 -0.17124,-0.0765 -0.34013,-0.15821 -0.51172,-0.23437 -0.003,-10e-4 -0.007,-0.003 -0.01,-0.004 -0.41728,-0.17688 -0.84715,-0.34361 -1.27734,-0.50977 -1.37483,-0.22012 -2.75662,-0.43691 -4.14844,-0.64062 l -0.36133,-0.0508 -0.34765,-0.12305 c -0.62738,-0.22112 -1.2656,-0.43415 -1.91211,-0.63867 -0.43916,-0.11531 -0.88808,-0.22123 -1.33203,-0.33203 z m 143.90039,4.64062 c -0.73088,0.2035 -1.46613,0.41251 -2.21485,0.63281 l -0.31054,0.0918 -0.32227,0.0371 c -0.77348,0.0894 -1.55892,0.18929 -2.34765,0.29297 -0.79226,0.29329 -1.587,0.59031 -2.39454,0.89844 l -0.44531,0.16992 -0.4707,0.0547 c -0.72741,0.0841 -1.46418,0.17864 -2.20508,0.27539 -1.34557,0.61735 -2.69712,1.23602 -4.05859,1.86914 l -0.28321,0.13476 -0.30273,0.082 c -0.75598,0.20937 -1.52179,0.42881 -2.29688,0.65624 -0.85569,0.31566 -1.7201,0.63962 -2.59375,0.97266 -0.78554,0.33138 -1.58108,0.67071 -2.38671,1.02149 l -0.34571,0.15234 -0.36914,0.0781 c -0.92922,0.19962 -1.87034,0.40927 -2.8164,0.625 -0.70192,0.29717 -1.40719,0.60151 -2.125,0.91407 l -0.51563,0.22461 -0.55859,0.0644 c -0.64516,0.0746 -1.30321,0.15966 -1.95899,0.24414 -2.6e-4,1.14876 -1.9e-4,2.29701 0,3.44531 9.95953,-0.70751 19.57632,-1.82266 28.93946,-3.28906 0.35397,-1.96211 0.69839,-3.91668 1.0332,-5.85937 l 0.0606,-0.35547 0.1289,-0.33789 c 0.39241,-1.03732 0.77574,-2.0645 1.16211,-3.09571 z m -114.72852,8.08789 c -0.27385,0.0918 -0.54112,0.1784 -0.81836,0.27344 l -0.0312,0.01 -0.0293,0.01 c -0.5576,0.18054 -1.12834,0.37371 -1.70118,0.56836 1.52076,0.23068 3.0325,0.45285 4.53516,0.66602 -10e-5,-0.2694 -2.5e-4,-0.53883 0,-0.8086 -0.41294,-0.13955 -0.82312,-0.28155 -1.24414,-0.41406 l -0.31836,-0.0996 -0.29492,-0.1543 c -0.0322,-0.0168 -0.0653,-0.034 -0.0977,-0.0508 z m 75.84766,2.93555 c -0.59106,0.2514 -1.18093,0.5034 -1.7832,0.76563 l -0.48633,0.20898 -0.52539,0.0723 c -0.7169,0.0949 -1.44699,0.19942 -2.18164,0.31055 -1.5537,0.43779 -3.1154,0.88195 -4.6875,1.33789 l -0.043,0.0117 c 3.2735,-0.0685 6.51111,-0.17584 9.70703,-0.33203 -4e-5,-0.79162 -2e-4,-1.58311 0,-2.375 z"
       id="path3065"
       inkscape:connector-curvature="0"
       sodipodi:nodetypes="scccccccccccccccccccccccccccccccscccccccccccccccccccccccccccccccccccccccccccccccccccccccccccccccccccccccccccccccccccccccccccccccccccccccccccccccccccccccccccccccccccccccccccccccccccccccccccccccccccccccccccccccccccccccccccccccccccccccccccccccccccccsccccccccccccccccccccccccccccccccccccccccccccccccccccccccccccccccccccccccccccccccccccccccccccccccccccccccccccccccccccccccccccccccccccccccccccccccccccccccccccccccccccccccccccccccccccccccccccccccccccccccccccccccccccccccccccccccccccccccccccccccccccccccccccccccccccccccccccccccccccccccccccccccccccccccccccccccccccccccccccccccccccccccccccccccccccccccccccccccccccccccccccccccccccccccccccccccccccccccccccccccccccccccccccccccccccccccccccccccccccccccc" />
    <path
       style="display:inline;opacity:1;fill:none;stroke:#c0c0c0;stroke-width:0.37795275;stroke-linecap:round;stroke-linejoin:round;stroke-miterlimit:4;stroke-dasharray:none;stroke-opacity:1"
       d="m 894.78125,338.63672 c 10e-4,0.92906 0.006,1.85526 0,2.79101 v 0.0449 c 0.01,1.49135 0.01,2.99141 0,4.50195 0.009,0.50909 0.01,1.02546 0,1.54883 l -0.004,-0.1836 c 0.0118,0.40036 0.0115,0.80514 0,1.2168 l -0.006,0.28516 -0.0508,0.27929 c -0.0562,0.31201 -0.12548,0.63089 -0.1914,0.94922 0.005,0.63779 0.009,1.27761 0,1.92774 l -0.002,0.21679 -0.0273,0.21485 c -0.0736,0.57549 -0.15621,1.15992 -0.24805,1.75 l -0.0176,0.10742 c -0.0747,0.57643 -0.1571,1.15906 -0.25,1.75 l -0.0215,0.13281 c 0.61081,-0.002 1.22518,-0.006 1.82813,0 0.92533,-0.009 1.84249,-0.01 2.75,0 l 0.1289,0.002 0.12891,0.0117 c 0.87864,0.0695 1.7487,0.15114 2.61133,0.23829 0.88464,-0.007 1.76254,-0.01 2.63086,0 1.00802,-0.01 2.00812,-0.01 2.99804,0 0.73414,-0.006 1.45906,-0.003 2.1836,0 -4.6e-4,-0.15163 5.1e-4,-0.30547 0,-0.45704 v -0.0254 -0.0254 c 0.01,-0.98629 0.01,-1.96047 0,-2.92578 l -0.002,-0.1914 0.0176,-0.19336 c 0.0913,-0.98766 0.17257,-1.96506 0.24414,-2.93164 l 0.043,-0.60547 0.23438,-0.5625 c 0.13618,-0.3289 0.26075,-0.64422 0.38281,-0.95703 -4.97785,-3.43687 -10.85591,-6.52932 -15.36133,-8.91016 z m -7.56055,1.01562 c -4.22042,0.73432 -8.45132,1.37243 -12.6914,1.91993 l -0.004,0.0762 c -0.0718,1.37669 -0.15543,2.7633 -0.24609,4.1582 0.007,0.56218 0.01,1.12867 0,1.70508 l -0.006,0.36523 -0.0762,0.35547 c -0.14733,0.69585 -0.3067,1.40216 -0.47071,2.11328 -0.0708,0.6177 -0.14527,1.23928 -0.23242,1.8711 l -0.0195,0.13476 -0.0273,0.13086 c -0.14324,0.67658 -0.29609,1.36375 -0.45508,2.05469 -0.0312,0.37565 -0.071,0.75609 -0.10547,1.13477 0.0577,7.7e-4 0.11818,-9.8e-4 0.17578,0 l 0.45898,0.008 0.44336,0.11523 c 0.44254,0.11684 0.87481,0.24742 1.3086,0.375 0.59562,-0.004 1.19218,-0.007 1.77734,0 1.50044,-0.01 2.99309,-0.01 4.47461,0 1.55374,-0.004 3.0999,7.3e-4 4.65039,0 0.12665,-0.49205 0.24616,-0.97959 0.36133,-1.45898 0.078,-0.50471 0.15092,-1.00497 0.21289,-1.49024 l 0.008,-0.0547 0.01,-0.0508 c 0.0769,-0.4889 0.14115,-0.96659 0.20312,-1.4375 0.006,-0.64974 0.009,-1.29537 0,-1.92773 l -0.006,-0.43359 0.0937,-0.42188 c 0.062,-0.28332 0.11276,-0.55324 0.16407,-0.82226 10e-4,-0.17275 0.004,-0.34928 0,-0.50977 l -0.004,-0.0918 0.002,-0.0918 c 0.009,-0.46353 0.009,-0.91387 0,-1.35352 v -0.0508 -0.0469 c 0.01,-1.49409 0.01,-2.97947 0,-4.45312 v -0.0234 -0.0215 c 0.004,-0.59619 -8.8e-4,-1.18407 0,-1.77735 z m -132.28711,0.10157 c -0.15162,0.20207 -0.30097,0.40104 -0.45312,0.60351 -0.0268,0.1035 -0.0487,0.20473 -0.0762,0.3086 4.11374,1.18153 8.22609,2.44793 12.33593,3.7871 l 0.0684,-0.30859 c 0.084,-0.38393 0.15823,-0.75563 0.22266,-1.11328 l 0.0117,-0.0684 0.0156,-0.0684 c 0.084,-0.38397 0.15823,-0.75569 0.22266,-1.11328 l 0.0117,-0.0684 0.0156,-0.0684 c 0.0255,-0.11664 0.0458,-0.22525 0.0684,-0.33789 -4.14895,-0.48857 -8.29645,-1.00986 -12.44336,-1.55273 z m 19.97852,2.40039 c -0.061,0.31993 -0.12323,0.64066 -0.19336,0.96679 l -0.0254,0.13672 c -0.0675,0.36649 -0.14386,0.73802 -0.22461,1.11328 l -0.0254,0.13672 c -0.0493,0.26762 -0.10764,0.5402 -0.16406,0.8125 0.002,0.32008 0.007,0.6381 0,0.96485 l -0.0137,0.6582 -0.0137,0.0332 c 8.06936,2.75967 16.13455,5.66899 24.20117,8.53906 l -0.0137,-0.54492 0.79883,-1.05273 c 0.18639,-0.24615 0.36009,-0.4803 0.53516,-0.71485 0.1411,-0.27881 0.2777,-0.5525 0.41211,-0.82421 0.0441,-0.17315 0.092,-0.35099 0.1289,-0.51368 l 0.0703,-0.3125 0.12304,-0.29882 c 0.16064,-0.38794 0.31189,-0.76313 0.45313,-1.12891 0.0669,-0.18852 0.12455,-0.3679 0.17383,-0.5293 l 0.16601,-0.53711 0.31445,-0.46875 c 0.33712,-0.50074 0.66388,-0.99089 0.98047,-1.4707 l 0.0664,-0.10352 0.0762,-0.0976 c 0.0984,-0.13003 0.18784,-0.25016 0.2832,-0.37695 0.0136,-0.0572 0.0303,-0.11989 0.043,-0.17579 l 0.24219,-1.0664 0.76953,-0.76953 0.0781,-0.0781 c -9.76244,-0.43492 -19.50671,-1.25598 -29.24219,-2.29687 z m 91.99414,0.3125 c -11.4073,1.20157 -22.87459,1.83035 -34.37695,2.1289 -9e-4,0.25284 10e-4,0.50262 0,0.75586 0.27267,0.0536 0.5507,0.10262 0.81836,0.16406 l 0.58593,0.13477 0.51758,0.3125 c 0.23418,0.1411 0.45686,0.29858 0.68164,0.45313 0.36619,0.1758 0.72617,0.35715 1.08399,0.54296 0.21849,0.0706 0.44058,0.13566 0.65429,0.21875 l 0.31446,0.12305 0.29101,0.17774 c 1.18299,0.72505 2.3536,1.46069 3.52149,2.20117 0.183,0.0466 0.37053,0.0847 0.55078,0.13672 l 0.0312,0.0117 0.0312,0.008 c 0.45909,0.14102 0.90641,0.29659 1.35351,0.45312 0.38028,0.0701 0.76212,0.14144 1.13282,0.22656 l 0.11328,0.0274 0.11133,0.0332 c 1.04325,0.30852 2.07723,0.62657 3.10351,0.95313 0.39392,0.072 0.78819,0.14822 1.17188,0.23632 l 0.23242,0.0547 0.22265,0.0801 c 0.32896,0.12078 0.64793,0.25867 0.96875,0.39063 0.3719,0.0584 0.74493,0.115 1.10938,0.18359 0.95716,0.16181 1.90567,0.33283 2.84375,0.51562 l 0.29492,0.0566 0.2832,0.10351 c 0.3139,0.11525 0.61923,0.24565 0.92579,0.37109 0.41486,0.0556 0.82698,0.11267 1.23437,0.17774 l 0.14453,0.0215 c 0.47709,0.0603 0.94679,0.12843 1.41406,0.20118 0.43829,-0.005 0.87652,-0.009 1.30469,0 l 0.45117,0.008 0.4375,0.11523 c 0.51775,0.13671 1.02542,0.28607 1.53125,0.4375 1.13118,0.13336 2.25533,0.27641 3.37305,0.42383 0.0379,-0.41966 0.0816,-0.84679 0.11524,-1.26172 l 0.0234,-0.2793 0.0625,-0.26953 c 0.16104,-0.69273 0.30967,-1.3752 0.45313,-2.04882 0.0813,-0.59741 0.15617,-1.18742 0.2207,-1.76563 l 0.0254,-0.2207 0.0508,-0.21485 c 0.14237,-0.61242 0.27371,-1.21301 0.40235,-1.81054 0.004,-0.4288 0.007,-0.85667 0,-1.27149 l -0.004,-0.15625 0.0117,-0.1543 c 0.0656,-1.00282 0.12069,-1.99404 0.17578,-2.98632 z m -54.8457,3.47656 c -0.16613,0.27635 -0.3259,0.54773 -0.49414,0.82617 -0.22568,0.45877 -0.45787,0.92305 -0.69922,1.39649 l -0.26953,0.5332 -0.42383,0.42383 -0.01,0.01 c -0.005,0.0197 -0.0103,0.0388 -0.0156,0.0586 l -0.1875,0.68945 -0.42578,0.57226 c -0.22366,0.30133 -0.45806,0.61322 -0.69727,0.92969 -0.21672,0.32799 -0.44096,0.66389 -0.66601,1 -0.0392,0.1151 -0.0735,0.22742 -0.11524,0.34375 l -0.0137,0.043 -0.0156,0.041 c -0.13351,0.34656 -0.27615,0.70168 -0.42187,1.05859 -0.0656,0.27285 -0.13119,0.54316 -0.20703,0.82227 l -0.0957,0.34765 -0.1582,0.32422 c -0.24931,0.509 -0.5086,1.02559 -0.77734,1.55274 l -0.14453,0.2832 -0.1875,0.2539 c -0.002,0.003 -0.004,0.007 -0.006,0.01 -4.9e-4,0.0247 5.5e-4,0.0476 0,0.0723 l -0.0117,0.49609 -0.0391,0.13672 c 4.73951,1.65019 9.47968,3.25553 14.22265,4.76562 0.13335,-0.48501 0.26995,-0.97312 0.39649,-1.45117 l 0.12109,-0.46484 0.23633,-0.41797 c 0.42125,-0.75032 0.83142,-1.48905 1.23242,-2.21875 l 0.34961,-0.63281 c 0.0768,-0.46223 0.15804,-0.93111 0.23047,-1.38867 l 0.0762,-0.48047 0.19531,-0.44532 c 0.19361,-0.44183 0.37702,-0.87176 0.5586,-1.30078 0.0582,-0.33434 0.11791,-0.67066 0.16601,-0.99219 l 0.0273,-0.1875 0.0469,-0.18554 c 0.13568,-0.53319 0.26481,-1.05679 0.39844,-1.58789 l -0.29883,-0.16407 c -0.16186,-0.0884 -0.33472,-0.16896 -0.50586,-0.25195 -0.0411,-0.0107 -0.0832,-0.0206 -0.125,-0.0312 l -1.06641,0.0586 -1.02539,-0.65625 c -0.0863,-0.0552 -0.17815,-0.10402 -0.26562,-0.15821 l -0.4961,-0.14453 c -0.23427,-0.0676 -0.48225,-0.12813 -0.74218,-0.18359 l -0.0274,-0.008 -0.0293,-0.006 c -0.33617,-0.0772 -0.68259,-0.14897 -1.04297,-0.21094 l -1.55469,-0.26563 -0.41797,-0.59765 -0.39648,0.0195 -0.24414,-0.31055 -0.64063,0.0234 -0.77539,-0.87305 -1.2793,-0.21875 -0.8789,-0.99414 c -0.022,-0.0247 -0.0475,-0.0449 -0.0703,-0.0684 -0.0956,-0.0658 -0.19004,-0.13302 -0.29297,-0.19531 z m 19.49218,7.13476 v 0.002 c -0.11755,0.46703 -0.2305,0.92989 -0.34961,1.39844 -0.0715,0.46341 -0.14744,0.92745 -0.23437,1.40234 l -0.0742,0.40234 -0.1582,0.37696 c -0.1872,0.4472 -0.38564,0.90571 -0.58399,1.36328 -0.13745,0.85416 -0.2779,1.71234 -0.42968,2.58008 l -0.33985,1.93945 -1.16211,0.54297 c -0.14779,0.26622 -0.29313,0.53216 -0.44336,0.80078 -0.1126,0.42111 -0.23008,0.84746 -0.3457,1.27148 11.05472,3.26737 22.12548,5.88742 33.22656,7.27735 0.0167,-0.0336 0.0341,-0.068 0.0508,-0.10157 0.28236,-0.97126 0.55977,-1.93573 0.82813,-2.89257 0.0754,-0.56035 0.14634,-1.11678 0.20703,-1.66016 l 0.0547,-0.48242 0.17383,-0.45313 c 0.23089,-0.6009 0.45001,-1.19046 0.66406,-1.77343 0.1532,-0.59129 0.29882,-1.17693 0.43555,-1.75 l 0.043,-0.17383 0.0586,-0.17188 c 0.0808,-0.23618 0.1537,-0.46325 0.23242,-0.69726 -0.86246,-0.11014 -1.72239,-0.22257 -2.59375,-0.32422 l -0.34375,-0.041 -0.33203,-0.10156 c -0.38229,-0.1178 -0.77606,-0.22543 -1.16992,-0.33398 -0.29622,-0.002 -0.58985,-0.005 -0.89649,0 l -0.34179,0.008 -0.33399,-0.0547 c -0.52421,-0.0853 -1.06275,-0.16099 -1.60937,-0.22852 l -0.0703,-0.01 -0.0723,-0.0117 c -0.52419,-0.0853 -1.06075,-0.16099 -1.60742,-0.22852 l -0.54102,-0.0684 -0.5,-0.21875 c -0.25332,-0.11006 -0.51772,-0.2127 -0.7832,-0.31446 -0.77307,-0.14821 -1.55056,-0.29039 -2.33985,-0.42383 l -0.0391,-0.006 -0.0391,-0.008 c -0.43201,-0.0823 -0.87495,-0.15727 -1.33008,-0.22265 l -0.50195,-0.0723 -0.4668,-0.20312 c -0.26404,-0.11471 -0.53923,-0.22047 -0.81641,-0.32618 -0.26713,-0.0578 -0.53443,-0.11563 -0.8164,-0.16406 l -0.26172,-0.0449 -0.25195,-0.0801 c -0.99975,-0.3198 -2.00895,-0.62939 -3.02735,-0.93164 -0.3111,-0.0699 -0.62742,-0.1364 -0.95898,-0.19336 l -0.33008,-0.0566 -0.3125,-0.11328 c -0.42713,-0.15401 -0.86612,-0.29954 -1.31445,-0.4375 -0.22063,-0.0625 -0.45021,-0.11798 -0.69336,-0.16992 l -0.66797,-0.14453 -0.57422,-0.36719 c -1.19173,-0.75948 -2.39316,-1.50881 -3.60156,-2.25195 -0.0488,-0.0155 -0.0904,-0.0302 -0.14258,-0.0449 l -0.38867,-0.11132 -0.35742,-0.18946 c -0.43576,-0.23121 -0.87978,-0.45331 -1.33594,-0.66797 z m 85.22657,0.01 c -3.6e-4,0.004 3.5e-4,0.008 0,0.0117 0.009,0.93867 0.009,1.88296 0,2.83789 v 0.0508 c 2e-4,0.0609 -2e-4,0.12269 0,0.1836 0.75035,-0.006 1.49335,-0.004 2.23437,0 -0.54292,-1.0298 -1.29527,-2.06026 -2.23437,-3.08399 z m -45.72071,10.14063 c -0.21878,0.67275 -0.44339,1.35368 -0.67773,2.04101 -0.14974,0.62206 -0.30636,1.24978 -0.47266,1.88672 l -0.0449,0.17383 -0.0625,0.16797 c -0.19351,0.52946 -0.39787,1.07054 -0.60351,1.61133 -0.0628,0.53278 -0.12825,1.06418 -0.20313,1.60742 l -0.0352,0.2539 -0.0684,0.24805 c -0.18149,0.64928 -0.37326,1.30946 -0.56054,1.96484 5.62194,0.3986 11.25134,0.46097 16.89258,0.0781 -0.001,-0.34248 0.003,-0.69 0,-1.03125 v -0.084 l 0.002,-0.084 c 0.006,-0.17073 0.005,-0.32372 0,-0.45898 l -0.006,-0.17969 0.008,-0.17774 c 0.003,-0.0481 0.002,-0.0709 0.002,-0.0644 l -0.0645,-1.05859 0.3086,-0.58203 c -7.9e-4,-0.17053 0.003,-0.34857 0,-0.51563 v -0.0508 -0.0508 c 0.01,-1.32547 0.01,-2.63845 0,-3.94336 v -0.0566 -0.0566 c 0.009,-0.37136 0.009,-0.73041 0,-1.07617 l -0.002,-0.0586 c -1.32073,10e-4 -2.63587,-0.003 -3.95898,0 h -0.0195 -0.0156 c -1.47366,-0.01 -2.95709,-0.01 -4.45117,0 h -0.0371 l -0.0371,-0.002 c -0.70687,-0.01 -1.42374,-0.01 -2.15234,0 l -0.59375,0.008 -0.56641,-0.17578 c -0.38232,-0.11781 -0.7761,-0.22349 -1.16992,-0.33203 -0.38164,-0.003 -0.76309,-0.006 -1.15625,0 l -0.1543,0.004 z m 22.02539,0.50195 c -0.0193,0.10399 -0.037,0.20633 -0.0566,0.31055 0.003,0.29223 0.005,0.58306 0,0.88086 v 0.11328 c 0.009,1.27192 0.009,2.55239 0,3.84179 v 0.0996 c 0.009,0.50843 0.01,1.02421 0,1.54688 l -0.0137,0.80078 -0.23828,0.50586 c -1.5e-4,0.16958 0.006,0.33898 0,0.50976 l 0.002,-0.16796 c 7.6e-4,0.10467 -6.3e-4,0.21161 0,0.3164 2.454,-0.33932 4.91067,-0.76253 7.36914,-1.2832 3.57724,-0.78407 6.56368,-1.62926 9.07422,-2.51758 0.002,-0.39639 0.005,-0.79506 0,-1.18164 v -0.0449 -0.0469 c 0.01,-0.98629 0.01,-1.96242 0,-2.92773 v -0.0234 -0.0254 c 5.2e-4,-0.15265 -4.6e-4,-0.30443 0,-0.45703 -0.72469,-0.003 -1.44916,-0.007 -2.18554,0 H 907 906.9629 c -0.96532,-0.01 -1.94144,-0.01 -2.92773,0 h -0.0371 -0.0371 c -0.8797,-0.01 -1.77101,-0.01 -2.67188,0 l -0.21484,0.002 -0.21094,-0.0215 c -0.83121,-0.0856 -1.6733,-0.1622 -2.52344,-0.23047 -0.84081,-0.009 -1.69067,-0.009 -2.55078,0 h -0.0391 -0.0391 c -0.86461,-0.01 -1.73997,-0.009 -2.625,0 z m 23.69727,0.002 c -6.4e-4,0.22841 7.6e-4,0.45507 0,0.6836 v 0.0488 c 10e-4,0.13933 -9.5e-4,0.28217 0,0.42188 0.48736,-0.38059 0.9116,-0.76495 1.2793,-1.1543 -0.42706,3e-4 -0.84873,-0.004 -1.2793,0 z"
       id="path3082"
       inkscape:connector-curvature="0"
       sodipodi:nodetypes="cccccccccccccccccccccccccccccccccccccccccccccccccccccccccccccccccccccccccccccccccccccccccccccccccccccccccccccccccccccccccccccccccccccccccccccccccccccccccccccccccccccccccccccccccccccccccccccccccccccccccccccccccccccccccccccccccccccccccccccccccccccccccccccccccccccccccccccccccccccccccccccccccccccccccccccccccccccccccccccccccccccccccccccccccccccccccccccccccccccccccccccccccccccccccc" />
    <path
       style="display:inline;opacity:1;fill:none;stroke:#c0c0c0;stroke-width:0.37795275;stroke-linecap:round;stroke-linejoin:round;stroke-miterlimit:4;stroke-dasharray:none;stroke-opacity:1"
       d="m 676.90625,408.76451 c 15.55537,1.30571 29.88485,1.24351 42.77174,-0.099"
       id="path2163"
       inkscape:connector-curvature="0"
       sodipodi:nodetypes="cc" />
    <path
       style="display:inline;opacity:1;fill:none;stroke:#c0c0c0;stroke-width:0.37795275;stroke-linecap:round;stroke-linejoin:round;stroke-miterlimit:4;stroke-dasharray:none;stroke-opacity:1"
       d="m 677.98503,414.86834 c 13.94788,0.78905 27.81,1.14363 40.76757,-0.37807"
       id="path2165"
       inkscape:connector-curvature="0"
       sodipodi:nodetypes="cc" />
  </g>
</svg>
