<?xml version="1.0" encoding="UTF-8" standalone="no"?>
<!-- Created with Inkscape (http://www.inkscape.org/) -->

<svg
   xmlns:dc="http://purl.org/dc/elements/1.1/"
   xmlns:cc="http://creativecommons.org/ns#"
   xmlns:rdf="http://www.w3.org/1999/02/22-rdf-syntax-ns#"
   xmlns:svg="http://www.w3.org/2000/svg"
   xmlns="http://www.w3.org/2000/svg"
   xmlns:sodipodi="http://sodipodi.sourceforge.net/DTD/sodipodi-0.dtd"
   xmlns:inkscape="http://www.inkscape.org/namespaces/inkscape"
   width="1052.3622"
   height="744.09448"
   id="svg2"
   version="1.1"
   inkscape:version="0.48.3.1 r9886"
   sodipodi:docname="Bunny.svg">
  <defs
     id="defs4" />
  <sodipodi:namedview
     id="base"
     pagecolor="#ffffff"
     bordercolor="#666666"
     borderopacity="1.0"
     inkscape:pageopacity="0.0"
     inkscape:pageshadow="2"
     inkscape:zoom="0.50536287"
     inkscape:cx="1381.4232"
     inkscape:cy="638.32868"
     inkscape:document-units="mm"
     inkscape:current-layer="layer3"
     showgrid="false"
     units="mm"
     inkscape:window-width="1920"
     inkscape:window-height="1080"
     inkscape:window-x="1920"
     inkscape:window-y="0"
     inkscape:window-maximized="0" />
  <metadata
     id="metadata7">
    <rdf:RDF>
      <cc:Work
         rdf:about="">
        <dc:format>image/svg+xml</dc:format>
        <dc:type
           rdf:resource="http://purl.org/dc/dcmitype/StillImage" />
        <dc:title />
      </cc:Work>
    </rdf:RDF>
  </metadata>
  <g
     inkscape:groupmode="layer"
     id="layer3"
     inkscape:label="Meta"
     style="display:inline"
     transform="translate(0,-308.2677)">
    <path
       style="fill:#000000"
       d="m 35.433071,749.21258 11.904762,0 0,11.90476 -11.904762,0 z m 11.904762,0 11.904762,0 0,11.90476 -11.904762,0 z m 11.904762,0 11.904762,0 0,11.90476 -11.904762,0 z m 11.904762,0 11.904762,0 0,11.90476 -11.904762,0 z m 11.904762,0 11.904762,0 0,11.90476 -11.904762,0 z m 11.904762,0 11.904759,0 0,11.90476 -11.904759,0 z m 11.904759,0 11.90476,0 0,11.90476 -11.90476,0 z m 35.71429,0 11.90476,0 0,11.90476 -11.90476,0 z m 35.71428,0 11.90477,0 0,11.90476 -11.90477,0 z m 23.80953,0 11.90476,0 0,11.90476 -11.90476,0 z m 11.90476,0 11.90476,0 0,11.90476 -11.90476,0 z m 11.90476,0 11.90476,0 0,11.90476 -11.90476,0 z m 11.90476,0 11.90477,0 0,11.90476 -11.90477,0 z m 11.90477,0 11.90476,0 0,11.90476 -11.90476,0 z m 11.90476,0 11.90476,0 0,11.90476 -11.90476,0 z m 11.90476,0 11.90476,0 0,11.90476 -11.90476,0 z m -238.095239,11.90476 11.904762,0 0,11.90476 -11.904762,0 z m 71.428569,0 11.90476,0 0,11.90476 -11.90476,0 z m 23.80953,0 11.90476,0 0,11.90476 -11.90476,0 z m 35.71428,0 11.90476,0 0,11.90476 -11.90476,0 z m 35.71429,0 11.90476,0 0,11.90476 -11.90476,0 z m 71.42857,0 11.90476,0 0,11.90476 -11.90476,0 z m -238.095239,11.90476 11.904762,0 0,11.90477 -11.904762,0 z m 23.809524,0 11.904762,0 0,11.90477 -11.904762,0 z m 11.904762,0 11.904762,0 0,11.90477 -11.904762,0 z m 11.904762,0 11.904762,0 0,11.90477 -11.904762,0 z m 23.809521,0 11.90476,0 0,11.90477 -11.90476,0 z m 35.71429,0 11.90476,0 0,11.90477 -11.90476,0 z m 59.52381,0 11.90476,0 0,11.90477 -11.90476,0 z m 23.80952,0 11.90476,0 0,11.90477 -11.90476,0 z m 11.90476,0 11.90477,0 0,11.90477 -11.90477,0 z m 11.90477,0 11.90476,0 0,11.90477 -11.90476,0 z m 23.80952,0 11.90476,0 0,11.90477 -11.90476,0 z m -238.095239,11.90477 11.904762,0 0,11.90476 -11.904762,0 z m 23.809524,0 11.904762,0 0,11.90476 -11.904762,0 z m 11.904762,0 11.904762,0 0,11.90476 -11.904762,0 z m 11.904762,0 11.904762,0 0,11.90476 -11.904762,0 z m 23.809521,0 11.90476,0 0,11.90476 -11.90476,0 z m 23.80953,0 11.90476,0 0,11.90476 -11.90476,0 z m 35.71428,0 11.90476,0 0,11.90476 -11.90476,0 z m 35.71429,0 11.90476,0 0,11.90476 -11.90476,0 z m 23.80952,0 11.90476,0 0,11.90476 -11.90476,0 z m 11.90476,0 11.90477,0 0,11.90476 -11.90477,0 z m 11.90477,0 11.90476,0 0,11.90476 -11.90476,0 z m 23.80952,0 11.90476,0 0,11.90476 -11.90476,0 z m -238.095239,11.90476 11.904762,0 0,11.90476 -11.904762,0 z m 23.809524,0 11.904762,0 0,11.90476 -11.904762,0 z m 11.904762,0 11.904762,0 0,11.90476 -11.904762,0 z m 11.904762,0 11.904762,0 0,11.90476 -11.904762,0 z m 23.809521,0 11.90476,0 0,11.90476 -11.90476,0 z m 47.61905,0 11.90476,0 0,11.90476 -11.90476,0 z m 23.80952,0 11.90477,0 0,11.90476 -11.90477,0 z m 23.80953,0 11.90476,0 0,11.90476 -11.90476,0 z m 23.80952,0 11.90476,0 0,11.90476 -11.90476,0 z m 11.90476,0 11.90477,0 0,11.90476 -11.90477,0 z m 11.90477,0 11.90476,0 0,11.90476 -11.90476,0 z m 23.80952,0 11.90476,0 0,11.90476 -11.90476,0 z m -238.095239,11.90476 11.904762,0 0,11.90476 -11.904762,0 z m 71.428569,0 11.90476,0 0,11.90476 -11.90476,0 z m 23.80953,0 11.90476,0 0,11.90476 -11.90476,0 z m 11.90476,0 11.90476,0 0,11.90476 -11.90476,0 z m 11.90476,0 11.90476,0 0,11.90476 -11.90476,0 z m 23.80952,0 11.90477,0 0,11.90476 -11.90477,0 z m 23.80953,0 11.90476,0 0,11.90476 -11.90476,0 z m 71.42857,0 11.90476,0 0,11.90476 -11.90476,0 z m -238.095239,11.90476 11.904762,0 0,11.90476 -11.904762,0 z m 11.904762,0 11.904762,0 0,11.90476 -11.904762,0 z m 11.904762,0 11.904762,0 0,11.90476 -11.904762,0 z m 11.904762,0 11.904762,0 0,11.90476 -11.904762,0 z m 11.904762,0 11.904762,0 0,11.90476 -11.904762,0 z m 11.904762,0 11.904759,0 0,11.90476 -11.904759,0 z m 11.904759,0 11.90476,0 0,11.90476 -11.90476,0 z m 23.80953,0 11.90476,0 0,11.90476 -11.90476,0 z m 23.80952,0 11.90476,0 0,11.90476 -11.90476,0 z m 23.80952,0 11.90477,0 0,11.90476 -11.90477,0 z m 23.80953,0 11.90476,0 0,11.90476 -11.90476,0 z m 11.90476,0 11.90476,0 0,11.90476 -11.90476,0 z m 11.90476,0 11.90476,0 0,11.90476 -11.90476,0 z m 11.90476,0 11.90477,0 0,11.90476 -11.90477,0 z m 11.90477,0 11.90476,0 0,11.90476 -11.90476,0 z m 11.90476,0 11.90476,0 0,11.90476 -11.90476,0 z m 11.90476,0 11.90476,0 0,11.90476 -11.90476,0 z m -119.04762,11.90476 11.90476,0 0,11.90477 -11.90476,0 z m 11.90476,0 11.90476,0 0,11.90477 -11.90476,0 z m 11.90476,0 11.90477,0 0,11.90477 -11.90477,0 z m -142.857139,11.90477 11.904762,0 0,11.90476 -11.904762,0 z m 11.904762,0 11.904762,0 0,11.90476 -11.904762,0 z m 11.904762,0 11.904762,0 0,11.90476 -11.904762,0 z m 11.904762,0 11.904762,0 0,11.90476 -11.904762,0 z m 11.904762,0 11.904762,0 0,11.90476 -11.904762,0 z m 23.809521,0 11.90476,0 0,11.90476 -11.90476,0 z m 11.90476,0 11.90477,0 0,11.90476 -11.90477,0 z m 11.90477,0 11.90476,0 0,11.90476 -11.90476,0 z m 11.90476,0 11.90476,0 0,11.90476 -11.90476,0 z m 47.61905,0 11.90476,0 0,11.90476 -11.90476,0 z m 23.80952,0 11.90476,0 0,11.90476 -11.90476,0 z m 23.80952,0 11.90477,0 0,11.90476 -11.90477,0 z m 23.80953,0 11.90476,0 0,11.90476 -11.90476,0 z m -214.285717,11.90476 11.904762,0 0,11.90476 -11.904762,0 z m 11.904762,0 11.904762,0 0,11.90476 -11.904762,0 z m 11.904762,0 11.904762,0 0,11.90476 -11.904762,0 z m 11.904762,0 11.904762,0 0,11.90476 -11.904762,0 z m 11.904762,0 11.904759,0 0,11.90476 -11.904759,0 z m 35.714289,0 11.90476,0 0,11.90476 -11.90476,0 z m 11.90476,0 11.90476,0 0,11.90476 -11.90476,0 z m 23.80952,0 11.90476,0 0,11.90476 -11.90476,0 z m 59.52381,0 11.90476,0 0,11.90476 -11.90476,0 z m 23.80953,0 11.90476,0 0,11.90476 -11.90476,0 z m 23.80952,0 11.90476,0 0,11.90476 -11.90476,0 z m -226.190477,11.90476 11.904762,0 0,11.90476 -11.904762,0 z m 11.904762,0 11.904762,0 0,11.90476 -11.904762,0 z m 11.904762,0 11.904762,0 0,11.90476 -11.904762,0 z m 11.904762,0 11.904762,0 0,11.90476 -11.904762,0 z m 23.809521,0 11.90476,0 0,11.90476 -11.90476,0 z m 11.90476,0 11.90477,0 0,11.90476 -11.90477,0 z m 11.90477,0 11.90476,0 0,11.90476 -11.90476,0 z m 11.90476,0 11.90476,0 0,11.90476 -11.90476,0 z m 11.90476,0 11.90476,0 0,11.90476 -11.90476,0 z m 11.90476,0 11.90476,0 0,11.90476 -11.90476,0 z m 11.90476,0 11.90477,0 0,11.90476 -11.90477,0 z m 11.90477,0 11.90476,0 0,11.90476 -11.90476,0 z m 11.90476,0 11.90476,0 0,11.90476 -11.90476,0 z m 35.71428,0 11.90477,0 0,11.90476 -11.90477,0 z m 11.90477,0 11.90476,0 0,11.90476 -11.90476,0 z m 11.90476,0 11.90476,0 0,11.90476 -11.90476,0 z m -214.285717,11.90476 11.904762,0 0,11.90476 -11.904762,0 z m 23.809524,0 11.904762,0 0,11.90476 -11.904762,0 z m 11.904762,0 11.904762,0 0,11.90476 -11.904762,0 z m 11.904762,0 11.904759,0 0,11.90476 -11.904759,0 z m 35.714289,0 11.90476,0 0,11.90476 -11.90476,0 z m 83.33333,0 11.90476,0 0,11.90476 -11.90476,0 z m 11.90476,0 11.90476,0 0,11.90476 -11.90476,0 z m 11.90476,0 11.90477,0 0,11.90476 -11.90477,0 z m 11.90477,0 11.90476,0 0,11.90476 -11.90476,0 z m 23.80952,0 11.90476,0 0,11.90476 -11.90476,0 z m -238.095239,11.90476 11.904762,0 0,11.90476 -11.904762,0 z m 23.809524,0 11.904762,0 0,11.90476 -11.904762,0 z m 23.809524,0 11.904762,0 0,11.90476 -11.904762,0 z m 23.809521,0 11.90476,0 0,11.90476 -11.90476,0 z m 35.71429,0 11.90476,0 0,11.90476 -11.90476,0 z m 11.90476,0 11.90476,0 0,11.90476 -11.90476,0 z m 11.90476,0 11.90476,0 0,11.90476 -11.90476,0 z m 23.80953,0 11.90476,0 0,11.90476 -11.90476,0 z m 11.90476,0 11.90476,0 0,11.90476 -11.90476,0 z m 23.80952,0 11.90476,0 0,11.90476 -11.90476,0 z m -95.23809,11.90476 11.90476,0 0,11.90477 -11.90476,0 z m 71.42857,0 11.90476,0 0,11.90477 -11.90476,0 z m 11.90476,0 11.90476,0 0,11.90477 -11.90476,0 z m 11.90476,0 11.90476,0 0,11.90477 -11.90476,0 z m 11.90476,0 11.90477,0 0,11.90477 -11.90477,0 z m 35.71429,0 11.90476,0 0,11.90477 -11.90476,0 z m -238.095239,11.90477 11.904762,0 0,11.90476 -11.904762,0 z m 11.904762,0 11.904762,0 0,11.90476 -11.904762,0 z m 11.904762,0 11.904762,0 0,11.90476 -11.904762,0 z m 11.904762,0 11.904762,0 0,11.90476 -11.904762,0 z m 11.904762,0 11.904762,0 0,11.90476 -11.904762,0 z m 11.904762,0 11.904759,0 0,11.90476 -11.904759,0 z m 11.904759,0 11.90476,0 0,11.90476 -11.90476,0 z m 23.80953,0 11.90476,0 0,11.90476 -11.90476,0 z m 11.90476,0 11.90476,0 0,11.90476 -11.90476,0 z m 11.90476,0 11.90476,0 0,11.90476 -11.90476,0 z m 11.90476,0 11.90476,0 0,11.90476 -11.90476,0 z m 11.90476,0 11.90477,0 0,11.90476 -11.90477,0 z m 23.80953,0 11.90476,0 0,11.90476 -11.90476,0 z m 47.61905,0 11.90476,0 0,11.90476 -11.90476,0 z m 11.90476,0 11.90476,0 0,11.90476 -11.90476,0 z m -226.190479,11.90476 11.904762,0 0,11.90476 -11.904762,0 z m 71.428569,0 11.90476,0 0,11.90476 -11.90476,0 z m 47.61905,0 11.90476,0 0,11.90476 -11.90476,0 z m 35.71429,0 11.90476,0 0,11.90476 -11.90476,0 z m 35.71428,0 11.90476,0 0,11.90476 -11.90476,0 z m 11.90476,0 11.90477,0 0,11.90476 -11.90477,0 z m 11.90477,0 11.90476,0 0,11.90476 -11.90476,0 z m 23.80952,0 11.90476,0 0,11.90476 -11.90476,0 z m -238.095239,11.90476 11.904762,0 0,11.90476 -11.904762,0 z m 23.809524,0 11.904762,0 0,11.90476 -11.904762,0 z m 11.904762,0 11.904762,0 0,11.90476 -11.904762,0 z m 11.904762,0 11.904762,0 0,11.90476 -11.904762,0 z m 23.809521,0 11.90476,0 0,11.90476 -11.90476,0 z m 23.80953,0 11.90476,0 0,11.90476 -11.90476,0 z m 35.71428,0 11.90476,0 0,11.90476 -11.90476,0 z m 59.52381,0 11.90476,0 0,11.90476 -11.90476,0 z m 35.71429,0 11.90476,0 0,11.90476 -11.90476,0 z m 11.90476,0 11.90476,0 0,11.90476 -11.90476,0 z m -238.095239,11.90476 11.904762,0 0,11.90476 -11.904762,0 z m 23.809524,0 11.904762,0 0,11.90476 -11.904762,0 z m 11.904762,0 11.904762,0 0,11.90476 -11.904762,0 z m 11.904762,0 11.904762,0 0,11.90476 -11.904762,0 z m 23.809521,0 11.90476,0 0,11.90476 -11.90476,0 z m 23.80953,0 11.90476,0 0,11.90476 -11.90476,0 z m 11.90476,0 11.90476,0 0,11.90476 -11.90476,0 z m 11.90476,0 11.90476,0 0,11.90476 -11.90476,0 z m 59.52381,0 11.90476,0 0,11.90476 -11.90476,0 z m 11.90476,0 11.90476,0 0,11.90476 -11.90476,0 z m 11.90476,0 11.90477,0 0,11.90476 -11.90477,0 z m -202.380949,11.90476 11.904762,0 0,11.90477 -11.904762,0 z m 23.809524,0 11.904762,0 0,11.90477 -11.904762,0 z m 11.904762,0 11.904762,0 0,11.90477 -11.904762,0 z m 11.904762,0 11.904762,0 0,11.90477 -11.904762,0 z m 23.809521,0 11.90476,0 0,11.90477 -11.90476,0 z m 23.80953,0 11.90476,0 0,11.90477 -11.90476,0 z m 35.71428,0 11.90476,0 0,11.90477 -11.90476,0 z m 11.90476,0 11.90477,0 0,11.90477 -11.90477,0 z m 23.80953,0 11.90476,0 0,11.90477 -11.90476,0 z m 47.61905,0 11.90476,0 0,11.90477 -11.90476,0 z m -214.285719,11.90477 11.904762,0 0,11.90476 -11.904762,0 z m 71.428569,0 11.90476,0 0,11.90476 -11.90476,0 z m 23.80953,0 11.90476,0 0,11.90476 -11.90476,0 z m 35.71428,0 11.90476,0 0,11.90476 -11.90476,0 z m 11.90476,0 11.90477,0 0,11.90476 -11.90477,0 z m 11.90477,0 11.90476,0 0,11.90476 -11.90476,0 z m 35.71428,0 11.90476,0 0,11.90476 -11.90476,0 z m 11.90476,0 11.90477,0 0,11.90476 -11.90477,0 z m 11.90477,0 11.90476,0 0,11.90476 -11.90476,0 z m -214.285719,11.90476 11.904762,0 0,11.90476 -11.904762,0 z m 11.904762,0 11.904762,0 0,11.90476 -11.904762,0 z m 11.904762,0 11.904762,0 0,11.90476 -11.904762,0 z m 11.904762,0 11.904762,0 0,11.90476 -11.904762,0 z m 11.904762,0 11.904762,0 0,11.90476 -11.904762,0 z m 11.904762,0 11.904759,0 0,11.90476 -11.904759,0 z m 11.904759,0 11.90476,0 0,11.90476 -11.90476,0 z m 23.80953,0 11.90476,0 0,11.90476 -11.90476,0 z m 11.90476,0 11.90476,0 0,11.90476 -11.90476,0 z m 11.90476,0 11.90476,0 0,11.90476 -11.90476,0 z m 11.90476,0 11.90476,0 0,11.90476 -11.90476,0 z m 11.90476,0 11.90477,0 0,11.90476 -11.90477,0 z m 11.90477,0 11.90476,0 0,11.90476 -11.90476,0 z m 11.90476,0 11.90476,0 0,11.90476 -11.90476,0 z m 23.80952,0 11.90476,0 0,11.90476 -11.90476,0 z m 35.71429,0 11.90476,0 0,11.90476 -11.90476,0 z"
       id="path7"
       inkscape:connector-curvature="0" />
    <text
       xml:space="preserve"
       style="font-size:12px;line-height:125%;letter-spacing:0px;word-spacing:0px;color:#000000;fill:#000000;fill-opacity:1;fill-rule:nonzero;stroke:none;stroke-width:1px;marker:none;visibility:visible;display:inline;overflow:visible;enable-background:accumulate"
       x="34.782681"
       y="1014.433"
       id="text2990"
       sodipodi:linespacing="125%"><tspan
         sodipodi:role="line"
         id="tspan2992"
         x="34.782681"
         y="1014.433">balloons:Bunny</tspan></text>
  </g>
  <g
     inkscape:label="Mask"
     inkscape:groupmode="layer"
     id="Mask"
     style="display:inline"
     transform="translate(0,-308.2677)">
    <path
       style="color:#000000;fill:#ffffff;fill-opacity:1;fill-rule:nonzero;stroke:#808080;stroke-width:0.70866144;stroke-linecap:round;stroke-linejoin:round;stroke-miterlimit:4;stroke-opacity:1;stroke-dasharray:none;marker:none;visibility:visible;display:inline;overflow:visible;enable-background:accumulate"
       d="m 816.59293,495.49498 c -19.89666,0.44426 -50.61993,32.18867 -71.66565,103.97823 -65.31612,-160.55176 -155.19861,-111.99466 -63.31391,17.18533 -14.11577,9.76702 -46.10189,49.48873 -5.82197,116.93653 -32.32444,69.22911 -26.62135,117.24623 63.48718,118.18385 0.0314,0.0829 0.072,0.1596 0.10391,0.24253 l -10.81223,19.22957 9.77259,-2.42536 9.98052,5.37042 6.30713,-3.77661 -11.02015,-18.29407 c 0.0428,-0.0336 0.0955,-0.0679 0.13861,-0.10389 l 0.27724,0 c 68.68558,-2.34336 108.88658,-5.99033 64.7694,-118.42638 32.88776,-53.26732 16.95383,-102.91308 -3.7427,-118.2185 43.76732,-75.34204 35.55319,-120.41777 11.53997,-119.88159 z"
       id="path2991-3"
       inkscape:connector-curvature="0" />
  </g>
  <g
     inkscape:groupmode="layer"
     id="layer1"
     inkscape:label="Overlay"
     style="display:inline"
     transform="translate(0,-308.2677)" />
</svg>
