<?xml version="1.0" encoding="UTF-8" standalone="no"?>
<!-- Created with Inkscape (http://www.inkscape.org/) -->

<svg
   xmlns:dc="http://purl.org/dc/elements/1.1/"
   xmlns:cc="http://creativecommons.org/ns#"
   xmlns:rdf="http://www.w3.org/1999/02/22-rdf-syntax-ns#"
   xmlns:svg="http://www.w3.org/2000/svg"
   xmlns="http://www.w3.org/2000/svg"
   xmlns:sodipodi="http://sodipodi.sourceforge.net/DTD/sodipodi-0.dtd"
   xmlns:inkscape="http://www.inkscape.org/namespaces/inkscape"
   width="297mm"
   height="210mm"
   id="svg2"
   version="1.1"
   inkscape:version="0.92.3 (2405546, 2018-03-11)"
   sodipodi:docname="Bunny.svg"
   viewBox="0 0 1052.3622 744.09448">
  <defs
     id="defs4" />
  <sodipodi:namedview
     id="base"
     pagecolor="#ffffff"
     bordercolor="#666666"
     borderopacity="1.0"
     inkscape:pageopacity="0.0"
     inkscape:pageshadow="2"
     inkscape:zoom="0.50536287"
     inkscape:cx="1381.4232"
     inkscape:cy="638.32868"
     inkscape:document-units="mm"
     inkscape:current-layer="layer3"
     showgrid="false"
     units="mm"
     inkscape:window-width="1920"
     inkscape:window-height="1080"
     inkscape:window-x="1920"
     inkscape:window-y="0"
     inkscape:window-maximized="0" />
  <metadata
     id="metadata7">
    <rdf:RDF>
      <cc:Work
         rdf:about="">
        <dc:format>image/svg+xml</dc:format>
        <dc:type
           rdf:resource="http://purl.org/dc/dcmitype/StillImage" />
        <dc:title></dc:title>
      </cc:Work>
    </rdf:RDF>
  </metadata>
  <g
     inkscape:groupmode="layer"
     id="layer3"
     inkscape:label="Meta"
     style="display:inline"
     transform="translate(0,-308.2677)">
    <path
       style="fill:#000000"
       d="m 35.433071,749.21258 h 11.904762 v 11.90476 H 35.433071 Z m 11.904762,0 h 11.904762 v 11.90476 H 47.337833 Z m 11.904762,0 h 11.904762 v 11.90476 H 59.242595 Z m 11.904762,0 h 11.904762 v 11.90476 H 71.147357 Z m 11.904762,0 h 11.904762 v 11.90476 H 83.052119 Z m 11.904762,0 h 11.904759 v 11.90476 H 94.956881 Z m 11.904759,0 h 11.90476 v 11.90476 h -11.90476 z m 35.71429,0 h 11.90476 v 11.90476 h -11.90476 z m 35.71428,0 h 11.90477 v 11.90476 h -11.90477 z m 23.80953,0 h 11.90476 v 11.90476 h -11.90476 z m 11.90476,0 h 11.90476 v 11.90476 H 214.0045 Z m 11.90476,0 h 11.90476 v 11.90476 h -11.90476 z m 11.90476,0 h 11.90477 v 11.90476 h -11.90477 z m 11.90477,0 h 11.90476 v 11.90476 h -11.90476 z m 11.90476,0 h 11.90476 v 11.90476 h -11.90476 z m 11.90476,0 h 11.90476 v 11.90476 H 273.52831 Z M 35.433071,761.11734 H 47.337833 V 773.0221 H 35.433071 Z m 71.428569,0 h 11.90476 v 11.90476 h -11.90476 z m 23.80953,0 h 11.90476 v 11.90476 h -11.90476 z m 35.71428,0 h 11.90476 v 11.90476 h -11.90476 z m 35.71429,0 h 11.90476 v 11.90476 h -11.90476 z m 71.42857,0 h 11.90476 V 773.0221 H 273.52831 Z M 35.433071,773.0221 h 11.904762 v 11.90477 H 35.433071 Z m 23.809524,0 h 11.904762 v 11.90477 H 59.242595 Z m 11.904762,0 h 11.904762 v 11.90477 H 71.147357 Z m 11.904762,0 h 11.904762 v 11.90477 H 83.052119 Z m 23.809521,0 h 11.90476 v 11.90477 h -11.90476 z m 35.71429,0 h 11.90476 v 11.90477 h -11.90476 z m 59.52381,0 h 11.90476 v 11.90477 h -11.90476 z m 23.80952,0 h 11.90476 v 11.90477 h -11.90476 z m 11.90476,0 h 11.90477 v 11.90477 h -11.90477 z m 11.90477,0 h 11.90476 v 11.90477 h -11.90476 z m 23.80952,0 h 11.90476 v 11.90477 H 273.52831 Z M 35.433071,784.92687 h 11.904762 v 11.90476 H 35.433071 Z m 23.809524,0 h 11.904762 v 11.90476 H 59.242595 Z m 11.904762,0 h 11.904762 v 11.90476 H 71.147357 Z m 11.904762,0 h 11.904762 v 11.90476 H 83.052119 Z m 23.809521,0 h 11.90476 v 11.90476 h -11.90476 z m 23.80953,0 h 11.90476 v 11.90476 h -11.90476 z m 35.71428,0 h 11.90476 v 11.90476 h -11.90476 z m 35.71429,0 h 11.90476 v 11.90476 h -11.90476 z m 23.80952,0 h 11.90476 v 11.90476 h -11.90476 z m 11.90476,0 h 11.90477 v 11.90476 h -11.90477 z m 11.90477,0 h 11.90476 v 11.90476 h -11.90476 z m 23.80952,0 h 11.90476 v 11.90476 H 273.52831 Z M 35.433071,796.83163 h 11.904762 v 11.90476 H 35.433071 Z m 23.809524,0 h 11.904762 v 11.90476 H 59.242595 Z m 11.904762,0 h 11.904762 v 11.90476 H 71.147357 Z m 11.904762,0 h 11.904762 v 11.90476 H 83.052119 Z m 23.809521,0 h 11.90476 v 11.90476 h -11.90476 z m 47.61905,0 h 11.90476 v 11.90476 h -11.90476 z m 23.80952,0 h 11.90477 v 11.90476 h -11.90477 z m 23.80953,0 h 11.90476 v 11.90476 h -11.90476 z m 23.80952,0 h 11.90476 v 11.90476 h -11.90476 z m 11.90476,0 h 11.90477 v 11.90476 h -11.90477 z m 11.90477,0 h 11.90476 v 11.90476 h -11.90476 z m 23.80952,0 h 11.90476 v 11.90476 H 273.52831 Z M 35.433071,808.73639 h 11.904762 v 11.90476 H 35.433071 Z m 71.428569,0 h 11.90476 v 11.90476 h -11.90476 z m 23.80953,0 h 11.90476 v 11.90476 h -11.90476 z m 11.90476,0 h 11.90476 v 11.90476 h -11.90476 z m 11.90476,0 h 11.90476 v 11.90476 h -11.90476 z m 23.80952,0 h 11.90477 v 11.90476 h -11.90477 z m 23.80953,0 h 11.90476 v 11.90476 h -11.90476 z m 71.42857,0 h 11.90476 v 11.90476 H 273.52831 Z M 35.433071,820.64115 h 11.904762 v 11.90476 H 35.433071 Z m 11.904762,0 h 11.904762 v 11.90476 H 47.337833 Z m 11.904762,0 h 11.904762 v 11.90476 H 59.242595 Z m 11.904762,0 h 11.904762 v 11.90476 H 71.147357 Z m 11.904762,0 h 11.904762 v 11.90476 H 83.052119 Z m 11.904762,0 h 11.904759 v 11.90476 H 94.956881 Z m 11.904759,0 h 11.90476 v 11.90476 h -11.90476 z m 23.80953,0 h 11.90476 v 11.90476 h -11.90476 z m 23.80952,0 h 11.90476 v 11.90476 h -11.90476 z m 23.80952,0 h 11.90477 v 11.90476 h -11.90477 z m 23.80953,0 h 11.90476 v 11.90476 h -11.90476 z m 11.90476,0 h 11.90476 v 11.90476 H 214.0045 Z m 11.90476,0 h 11.90476 v 11.90476 h -11.90476 z m 11.90476,0 h 11.90477 v 11.90476 h -11.90477 z m 11.90477,0 h 11.90476 v 11.90476 h -11.90476 z m 11.90476,0 h 11.90476 v 11.90476 h -11.90476 z m 11.90476,0 h 11.90476 v 11.90476 h -11.90476 z m -119.04762,11.90476 h 11.90476 v 11.90477 h -11.90476 z m 11.90476,0 h 11.90476 v 11.90477 h -11.90476 z m 11.90476,0 h 11.90477 v 11.90477 H 178.29021 Z M 35.433071,844.45068 h 11.904762 v 11.90476 H 35.433071 Z m 11.904762,0 h 11.904762 v 11.90476 H 47.337833 Z m 11.904762,0 h 11.904762 v 11.90476 H 59.242595 Z m 11.904762,0 h 11.904762 v 11.90476 H 71.147357 Z m 11.904762,0 h 11.904762 v 11.90476 H 83.052119 Z m 23.809521,0 h 11.90476 v 11.90476 h -11.90476 z m 11.90476,0 h 11.90477 v 11.90476 H 118.7664 Z m 11.90477,0 h 11.90476 v 11.90476 h -11.90476 z m 11.90476,0 h 11.90476 v 11.90476 h -11.90476 z m 47.61905,0 h 11.90476 v 11.90476 h -11.90476 z m 23.80952,0 h 11.90476 v 11.90476 H 214.0045 Z m 23.80952,0 h 11.90477 v 11.90476 h -11.90477 z m 23.80953,0 h 11.90476 v 11.90476 H 261.62355 Z M 47.337833,856.35544 H 59.242595 V 868.2602 H 47.337833 Z m 11.904762,0 H 71.147357 V 868.2602 H 59.242595 Z m 11.904762,0 H 83.052119 V 868.2602 H 71.147357 Z m 11.904762,0 H 94.956881 V 868.2602 H 83.052119 Z m 11.904762,0 H 106.86164 V 868.2602 H 94.956881 Z m 35.714289,0 h 11.90476 v 11.90476 h -11.90476 z m 11.90476,0 h 11.90476 v 11.90476 h -11.90476 z m 23.80952,0 h 11.90476 v 11.90476 h -11.90476 z m 59.52381,0 h 11.90476 v 11.90476 h -11.90476 z m 23.80953,0 h 11.90476 v 11.90476 h -11.90476 z m 23.80952,0 h 11.90476 V 868.2602 H 273.52831 Z M 47.337833,868.2602 h 11.904762 v 11.90476 H 47.337833 Z m 11.904762,0 h 11.904762 v 11.90476 H 59.242595 Z m 11.904762,0 h 11.904762 v 11.90476 H 71.147357 Z m 11.904762,0 h 11.904762 v 11.90476 H 83.052119 Z m 23.809521,0 h 11.90476 v 11.90476 h -11.90476 z m 11.90476,0 h 11.90477 v 11.90476 H 118.7664 Z m 11.90477,0 h 11.90476 v 11.90476 h -11.90476 z m 11.90476,0 h 11.90476 v 11.90476 h -11.90476 z m 11.90476,0 h 11.90476 v 11.90476 h -11.90476 z m 11.90476,0 h 11.90476 v 11.90476 h -11.90476 z m 11.90476,0 h 11.90477 v 11.90476 h -11.90477 z m 11.90477,0 h 11.90476 v 11.90476 h -11.90476 z m 11.90476,0 h 11.90476 v 11.90476 h -11.90476 z m 35.71428,0 h 11.90477 v 11.90476 h -11.90477 z m 11.90477,0 h 11.90476 v 11.90476 h -11.90476 z m 11.90476,0 h 11.90476 v 11.90476 H 261.62355 Z M 47.337833,880.16496 h 11.904762 v 11.90476 H 47.337833 Z m 23.809524,0 h 11.904762 v 11.90476 H 71.147357 Z m 11.904762,0 h 11.904762 v 11.90476 H 83.052119 Z m 11.904762,0 h 11.904759 v 11.90476 H 94.956881 Z m 35.714289,0 h 11.90476 v 11.90476 h -11.90476 z m 83.33333,0 h 11.90476 v 11.90476 H 214.0045 Z m 11.90476,0 h 11.90476 v 11.90476 h -11.90476 z m 11.90476,0 h 11.90477 v 11.90476 h -11.90477 z m 11.90477,0 h 11.90476 v 11.90476 h -11.90476 z m 23.80952,0 h 11.90476 v 11.90476 H 273.52831 Z M 35.433071,892.06972 h 11.904762 v 11.90476 H 35.433071 Z m 23.809524,0 h 11.904762 v 11.90476 H 59.242595 Z m 23.809524,0 h 11.904762 v 11.90476 H 83.052119 Z m 23.809521,0 h 11.90476 v 11.90476 h -11.90476 z m 35.71429,0 h 11.90476 v 11.90476 h -11.90476 z m 11.90476,0 h 11.90476 v 11.90476 h -11.90476 z m 11.90476,0 h 11.90476 v 11.90476 h -11.90476 z m 23.80953,0 h 11.90476 v 11.90476 h -11.90476 z m 11.90476,0 h 11.90476 v 11.90476 h -11.90476 z m 23.80952,0 h 11.90476 v 11.90476 h -11.90476 z m -95.23809,11.90476 h 11.90476 v 11.90477 h -11.90476 z m 71.42857,0 h 11.90476 v 11.90477 h -11.90476 z m 11.90476,0 h 11.90476 v 11.90477 H 214.0045 Z m 11.90476,0 h 11.90476 v 11.90477 h -11.90476 z m 11.90476,0 h 11.90477 v 11.90477 h -11.90477 z m 35.71429,0 h 11.90476 v 11.90477 H 273.52831 Z M 35.433071,915.87925 h 11.904762 v 11.90476 H 35.433071 Z m 11.904762,0 h 11.904762 v 11.90476 H 47.337833 Z m 11.904762,0 h 11.904762 v 11.90476 H 59.242595 Z m 11.904762,0 h 11.904762 v 11.90476 H 71.147357 Z m 11.904762,0 h 11.904762 v 11.90476 H 83.052119 Z m 11.904762,0 h 11.904759 v 11.90476 H 94.956881 Z m 11.904759,0 h 11.90476 v 11.90476 h -11.90476 z m 23.80953,0 h 11.90476 v 11.90476 h -11.90476 z m 11.90476,0 h 11.90476 v 11.90476 h -11.90476 z m 11.90476,0 h 11.90476 v 11.90476 h -11.90476 z m 11.90476,0 h 11.90476 v 11.90476 h -11.90476 z m 11.90476,0 h 11.90477 v 11.90476 h -11.90477 z m 23.80953,0 h 11.90476 v 11.90476 h -11.90476 z m 47.61905,0 h 11.90476 v 11.90476 h -11.90476 z m 11.90476,0 h 11.90476 v 11.90476 H 261.62355 Z M 35.433071,927.78401 h 11.904762 v 11.90476 H 35.433071 Z m 71.428569,0 h 11.90476 v 11.90476 h -11.90476 z m 47.61905,0 h 11.90476 v 11.90476 h -11.90476 z m 35.71429,0 h 11.90476 v 11.90476 h -11.90476 z m 35.71428,0 h 11.90476 v 11.90476 h -11.90476 z m 11.90476,0 h 11.90477 v 11.90476 h -11.90477 z m 11.90477,0 h 11.90476 v 11.90476 h -11.90476 z m 23.80952,0 h 11.90476 v 11.90476 H 273.52831 Z M 35.433071,939.68877 h 11.904762 v 11.90476 H 35.433071 Z m 23.809524,0 h 11.904762 v 11.90476 H 59.242595 Z m 11.904762,0 h 11.904762 v 11.90476 H 71.147357 Z m 11.904762,0 h 11.904762 v 11.90476 H 83.052119 Z m 23.809521,0 h 11.90476 v 11.90476 h -11.90476 z m 23.80953,0 h 11.90476 v 11.90476 h -11.90476 z m 35.71428,0 h 11.90476 v 11.90476 h -11.90476 z m 59.52381,0 h 11.90476 v 11.90476 h -11.90476 z m 35.71429,0 h 11.90476 v 11.90476 h -11.90476 z m 11.90476,0 h 11.90476 v 11.90476 H 273.52831 Z M 35.433071,951.59353 h 11.904762 v 11.90476 H 35.433071 Z m 23.809524,0 h 11.904762 v 11.90476 H 59.242595 Z m 11.904762,0 h 11.904762 v 11.90476 H 71.147357 Z m 11.904762,0 h 11.904762 v 11.90476 H 83.052119 Z m 23.809521,0 h 11.90476 v 11.90476 h -11.90476 z m 23.80953,0 h 11.90476 v 11.90476 h -11.90476 z m 11.90476,0 h 11.90476 v 11.90476 h -11.90476 z m 11.90476,0 h 11.90476 v 11.90476 h -11.90476 z m 59.52381,0 h 11.90476 v 11.90476 H 214.0045 Z m 11.90476,0 h 11.90476 v 11.90476 h -11.90476 z m 11.90476,0 h 11.90477 v 11.90476 H 237.81402 Z M 35.433071,963.49829 h 11.904762 v 11.90477 H 35.433071 Z m 23.809524,0 h 11.904762 v 11.90477 H 59.242595 Z m 11.904762,0 h 11.904762 v 11.90477 H 71.147357 Z m 11.904762,0 h 11.904762 v 11.90477 H 83.052119 Z m 23.809521,0 h 11.90476 v 11.90477 h -11.90476 z m 23.80953,0 h 11.90476 v 11.90477 h -11.90476 z m 35.71428,0 h 11.90476 v 11.90477 h -11.90476 z m 11.90476,0 h 11.90477 v 11.90477 h -11.90477 z m 23.80953,0 h 11.90476 v 11.90477 h -11.90476 z m 47.61905,0 h 11.90476 v 11.90477 H 249.71879 Z M 35.433071,975.40306 h 11.904762 v 11.90476 H 35.433071 Z m 71.428569,0 h 11.90476 v 11.90476 h -11.90476 z m 23.80953,0 h 11.90476 v 11.90476 h -11.90476 z m 35.71428,0 h 11.90476 v 11.90476 h -11.90476 z m 11.90476,0 h 11.90477 v 11.90476 h -11.90477 z m 11.90477,0 h 11.90476 v 11.90476 h -11.90476 z m 35.71428,0 h 11.90476 v 11.90476 h -11.90476 z m 11.90476,0 h 11.90477 v 11.90476 h -11.90477 z m 11.90477,0 h 11.90476 v 11.90476 H 249.71879 Z M 35.433071,987.30782 h 11.904762 v 11.90476 H 35.433071 Z m 11.904762,0 h 11.904762 v 11.90476 H 47.337833 Z m 11.904762,0 h 11.904762 v 11.90476 H 59.242595 Z m 11.904762,0 h 11.904762 v 11.90476 H 71.147357 Z m 11.904762,0 h 11.904762 v 11.90476 H 83.052119 Z m 11.904762,0 h 11.904759 v 11.90476 H 94.956881 Z m 11.904759,0 h 11.90476 v 11.90476 h -11.90476 z m 23.80953,0 h 11.90476 v 11.90476 h -11.90476 z m 11.90476,0 h 11.90476 v 11.90476 h -11.90476 z m 11.90476,0 h 11.90476 v 11.90476 h -11.90476 z m 11.90476,0 h 11.90476 v 11.90476 h -11.90476 z m 11.90476,0 h 11.90477 v 11.90476 h -11.90477 z m 11.90477,0 h 11.90476 v 11.90476 h -11.90476 z m 11.90476,0 h 11.90476 v 11.90476 h -11.90476 z m 23.80952,0 h 11.90476 v 11.90476 h -11.90476 z m 35.71429,0 h 11.90476 v 11.90476 h -11.90476 z"
       id="path7"
       inkscape:connector-curvature="0" />
    <text
       xml:space="preserve"
       style="color:#000000;line-height:0%;letter-spacing:0px;word-spacing:0px;display:inline;overflow:visible;visibility:visible;fill:#000000;fill-opacity:1;fill-rule:nonzero;stroke:none;stroke-width:1px;marker:none;enable-background:accumulate"
       x="34.782681"
       y="1014.433"
       id="text2990"><tspan
         sodipodi:role="line"
         id="tspan2992"
         x="34.782681"
         y="1014.433"
         style="font-size:12px;line-height:1.25">balloons:Bunny</tspan></text>
  </g>
  <g
     inkscape:label="Mask"
     inkscape:groupmode="layer"
     id="Mask"
     style="display:inline"
     transform="translate(0,-308.2677)">
    <path
       style="color:#000000;display:inline;overflow:visible;visibility:visible;fill:#ffffff;fill-opacity:1;fill-rule:nonzero;stroke:#808080;stroke-width:0.70866144;stroke-linecap:round;stroke-linejoin:round;stroke-miterlimit:4;stroke-dasharray:none;stroke-opacity:1;marker:none;enable-background:accumulate"
       d="m 816.59293,495.49498 c -19.89666,0.44426 -50.61993,32.18867 -71.66565,103.97823 -65.31612,-160.55176 -155.19861,-111.99466 -63.31391,17.18533 -14.11577,9.76702 -46.10189,49.48873 -5.82197,116.93653 -32.32444,69.22911 -26.62135,117.24623 63.48718,118.18385 0.0314,0.0829 0.072,0.1596 0.10391,0.24253 l -10.81223,19.22957 9.77259,-2.42536 9.98052,5.37042 6.30713,-3.77661 -11.02015,-18.29407 c 0.0428,-0.0336 0.0955,-0.0679 0.13861,-0.10389 h 0.27724 c 68.68558,-2.34336 108.88658,-5.99033 64.7694,-118.42638 32.88776,-53.26732 16.95383,-102.91308 -3.7427,-118.2185 43.76732,-75.34204 35.55319,-120.41777 11.53997,-119.88159 z"
       id="path2991-3"
       inkscape:connector-curvature="0" />
  </g>
  <g
     inkscape:groupmode="layer"
     id="layer1"
     inkscape:label="Overlay"
     style="display:inline"
     transform="translate(0,-308.2677)" />
</svg>
