<?xml version="1.0" encoding="UTF-8" standalone="no"?>
<!-- Created with Inkscape (http://www.inkscape.org/) -->

<svg
   xmlns:dc="http://purl.org/dc/elements/1.1/"
   xmlns:cc="http://creativecommons.org/ns#"
   xmlns:rdf="http://www.w3.org/1999/02/22-rdf-syntax-ns#"
   xmlns:svg="http://www.w3.org/2000/svg"
   xmlns="http://www.w3.org/2000/svg"
   xmlns:sodipodi="http://sodipodi.sourceforge.net/DTD/sodipodi-0.dtd"
   xmlns:inkscape="http://www.inkscape.org/namespaces/inkscape"
   width="297mm"
   height="210mm"
   id="svg2"
   version="1.1"
   inkscape:version="0.92.3 (2405546, 2018-03-11)"
   sodipodi:docname="DragonBalloon-undecorated.svg"
   viewBox="0 0 1052.3622 744.09448">
  <defs
     id="defs4" />
  <sodipodi:namedview
     id="base"
     pagecolor="#ffffff"
     bordercolor="#666666"
     borderopacity="1.0"
     inkscape:pageopacity="0.0"
     inkscape:pageshadow="2"
     inkscape:zoom="1"
     inkscape:cx="708.9485"
     inkscape:cy="582.16901"
     inkscape:document-units="mm"
     inkscape:current-layer="Mask"
     showgrid="false"
     units="mm"
     inkscape:window-width="1920"
     inkscape:window-height="1015"
     inkscape:window-x="0"
     inkscape:window-y="0"
     inkscape:window-maximized="0"
     inkscape:snap-nodes="false"
     inkscape:snap-global="false" />
  <metadata
     id="metadata7">
    <rdf:RDF>
      <cc:Work
         rdf:about="">
        <dc:format>image/svg+xml</dc:format>
        <dc:type
           rdf:resource="http://purl.org/dc/dcmitype/StillImage" />
        <dc:title></dc:title>
      </cc:Work>
    </rdf:RDF>
  </metadata>
  <g
     inkscape:label="Mask"
     inkscape:groupmode="layer"
     id="Mask"
     style="display:inline"
     transform="translate(0,-308.2677)">
    <path
       style="color:#000000;display:inline;overflow:visible;visibility:visible;fill:#ffffff;fill-opacity:1;fill-rule:nonzero;stroke:#808080;stroke-width:0.70866144;stroke-linecap:round;stroke-linejoin:round;stroke-miterlimit:4;stroke-dasharray:none;stroke-opacity:1;marker:none;enable-background:accumulate"
       d="m -284.06286,-222.64506 c -8.53575,4.16637 35.71106,110.8429 35.71106,110.8429 -31.03654,25.306891 -61.87257,47.790091 -92.29248,64.46411 -34.23105,19.970428 -25.32446,37.237341 -22.90101,44.8077377 2.42346,7.5703969 3.18563,9.4596562 4.81385,13.0590843 -2.2377,4.94985 3.37395,11.064488 5.87768,11.048578 2.19375,-0.206625 3.30215,-1.056403 5.19471,-2.01599 -4.23091,2.137537 -5.30226,5.33625 -0.57495,7.448737 4.38117,4.948856 4.29047,4.633697 5.71472,7.565916 7.79691,5.99205 15.90572,8.981147 26.25367,0.540159 28.40185,-25.2850593 62.02395,-32.8165499 95.75865,-34.76257494 46.50921,-5.83457816 70.30373,51.93268094 75.42664,116.74622294 l 0.70679,3.50646 -9.77783,17.38953 9.77234,-2.42615 9.98107,5.37049 6.30615,-3.77564 -10.22826,-16.9812 0.57861,-1.02539 122.526857,-73.372192 C 0.91312612,36.152081 -4.1405426,15.99826 -5.4202864,9.8293127 -19.551533,-75.984965 -99.097096,-152.02431 -171.0172,-146.81742 c -2.14245,-9.51104 -5.76451,-17.11491 -13.79883,-26.90003 -3.55355,6.41488 -4.88129,11.70253 -6.60828,17.50855 -20.8127,-1.29869 -33.31635,10.70166 -37.68127,23.53638 0,0 -46.42153,-94.1389 -54.95728,-89.97254 z"
       id="path2991-3"
       inkscape:connector-curvature="0"
       sodipodi:nodetypes="zccscccccccccccccccccccccz" />
    <path
       style="color:#000000;display:inline;overflow:visible;visibility:visible;fill:#ffffff;fill-opacity:1;fill-rule:nonzero;stroke:#808080;stroke-width:0.75590551;stroke-linecap:round;stroke-linejoin:round;stroke-miterlimit:4;stroke-dasharray:none;stroke-opacity:1;marker:none;enable-background:accumulate"
       d="m 742.40625,190.67969 c -7.78705,-0.41448 -18.6127,24.29833 -14.28125,38.89648 -13.57663,15.98139 -20.47264,34.79696 -18.5,57.375 -23.73668,7.1033 -31.53749,16.30178 -32.875,28.125 -1.33751,11.82322 8.94086,17.31686 23.625,16.75 -7.11289,12.57885 -12.13808,24.98374 -24.5,38 -12.33101,-0.38864 -29.57633,-1.53041 -36,8.625 -6.42367,10.15542 -11.53841,31.37986 -2,43 l 4.9375,1.625 c -2.43309,11.59902 -3.82982,21.38739 -3.57422,28.63477 -16.19172,0.35299 -22.11292,17.52152 -21.11328,30.99023 12.0134,2.2638 22.9703,3.68068 39.625,1.5 5.99363,3.83843 13.40155,6.54542 21.75,8.5 -3.27063,12.61372 15.88415,14.70629 49.76562,9.89063 l -9.89648,17.59961 10.42383,-2.58789 10.64648,5.72851 6.72657,-4.02734 -10.3086,-17.11524 C 839.40493,501.89348 896.40695,417.60924 913,374.70117 c 16.61509,-42.96507 -1.6054,-46.71836 -9.375,-42.25 -4.52016,-24.3 -35.81609,-18.00545 -23.75,21.125 -2.10443,2.5633 -4.30316,5.40947 -6.875,9.375 -9.9152,-29.40968 -37.34098,-16.5912 -26,31.25 -9.79834,5.51448 -18.20586,2.22047 -26.625,-1 25.7697,-56.58235 1.45371,-48.90178 -16.01172,-29.80273 -1.63052,-9.25213 -2.12239,-16.22439 -2.86328,-23.69727 29.00756,-22.78948 36.90058,-49.34265 0.34766,-44.60351 0.0527,-9.3315 0.4826,-18.66671 -0.83594,-29.4043 33.26912,-20.34235 24.08339,-44.41458 -9.76172,-25.86719 -1.24512,-3.96993 -2.88887,-6.74142 -4.59961,-9.31445 25.01969,-35.25442 -12.06903,-51.2205 -24.40039,-11.43555 -2.9008,0.007 -8.7002,0.88324 -12.82031,2.24414 0.75718,-22.26907 -2.6551,-30.40811 -7.02344,-30.64062 z"
       transform="matrix(0.9375,0,0,0.9375,0,308.2677)"
       id="path2991-3-3"
       inkscape:connector-curvature="0" />
  </g>
  <g
     inkscape:groupmode="layer"
     id="layer1"
     inkscape:label="Overlay"
     style="display:inline"
     transform="translate(0,-308.2677)">
    <path
       style="display:inline;fill:none;stroke:#c0c0c0;stroke-width:0.35433072;stroke-linecap:round;stroke-linejoin:round;stroke-miterlimit:4;stroke-dasharray:none;stroke-opacity:1"
       d="m -356.76027,-28.439331 c 6.19672,9.98373 8.22717,20.2799303 2.087,31.1889203"
       id="path913"
       inkscape:connector-curvature="0"
       sodipodi:nodetypes="cc" />
    <path
       style="display:inline;fill:none;stroke:#c0c0c0;stroke-width:0.35433072;stroke-linecap:round;stroke-linejoin:round;stroke-miterlimit:4;stroke-dasharray:none;stroke-opacity:1"
       d="m -355.60082,-25.772621 c -2.29354,9.72979 -2.76313,18.7755903 2.31887,25.73955026"
       id="path915"
       inkscape:connector-curvature="0"
       sodipodi:nodetypes="cc" />
    <path
       style="display:inline;fill:none;stroke:#c0c0c0;stroke-width:0.35433072;stroke-linecap:round;stroke-linejoin:round;stroke-miterlimit:4;stroke-dasharray:none;stroke-opacity:1"
       d="m -255.07745,-75.860391 c 7.08053,-11.73494 24.49435,-26.912599 43.36302,-17.39159 -18.88276,21.71372 -30.64141,17.28559 -43.36302,17.39159 z"
       id="path917"
       inkscape:connector-curvature="0"
       sodipodi:nodetypes="ccc" />
    <path
       style="display:inline;fill:none;stroke:#c0c0c0;stroke-width:0.35433072;stroke-linecap:round;stroke-linejoin:round;stroke-miterlimit:4;stroke-dasharray:none;stroke-opacity:1"
       d="m -240.47094,-87.548421 c -1.40776,3.75643 2.62754,10.89075 8.17718,9.1232 6.05578,-1.92877 7.29802,-7.8824 5.04285,-11.58033 -3.25146,-5.3316 -10.95846,-3.57757 -13.22003,2.45713 z"
       id="path919"
       inkscape:connector-curvature="0"
       sodipodi:nodetypes="ssss" />
    <path
       style="display:inline;fill:none;stroke:#c0c0c0;stroke-width:0.35433072;stroke-linecap:round;stroke-linejoin:round;stroke-miterlimit:4;stroke-dasharray:none;stroke-opacity:1"
       d="m -186.43742,-120.32764 c -1.25624,-11.79786 -1.35747,-24.93302 4.29958,-36.72916 5.13773,11.39718 8.73997,24.92543 2.62352,41.64825"
       id="path921"
       inkscape:connector-curvature="0"
       sodipodi:nodetypes="ccc" />
    <path
       style="display:inline;fill:none;stroke:#c0c0c0;stroke-width:0.35433072;stroke-linecap:round;stroke-linejoin:round;stroke-miterlimit:4;stroke-dasharray:none;stroke-opacity:1"
       d="m -191.42424,-156.20952 c -4.25472,16.59648 -4.65427,23.71627 -2.08699,33.62374"
       id="path923"
       inkscape:connector-curvature="0"
       sodipodi:nodetypes="cc" />
    <path
       style="display:inline;fill:none;stroke:#c0c0c0;stroke-width:0.35433072;stroke-linecap:round;stroke-linejoin:round;stroke-miterlimit:4;stroke-dasharray:none;stroke-opacity:1"
       d="m -171.01108,-146.70855 c 1.98973,11.28514 1.80885,23.77304 -3.94912,35.25338"
       id="path925"
       inkscape:connector-curvature="0"
       sodipodi:nodetypes="cc" />
    <path
       style="display:inline;fill:none;stroke:#c0c0c0;stroke-width:0.35433072;stroke-linecap:round;stroke-linejoin:round;stroke-miterlimit:4;stroke-dasharray:none;stroke-opacity:1"
       d="m -229.04804,-132.78886 c -3.26471,8.19154 -6.59212,24.66658 0.57972,33.507799 1.03583,-4.290659 2.81694,-7.577619 5.97111,-10.319009 -0.0786,2.11364 0.42796,3.83715 1.27539,5.33342 0.94464,-2.04983 0.57595,-4.97522 4.05803,-5.33342 5.20624,-12.75169 12.09597,-20.03205 18.43508,-29.10192"
       id="path929"
       inkscape:connector-curvature="0"
       sodipodi:nodetypes="cccccc" />
    <path
       style="display:inline;fill:none;stroke:#c0c0c0;stroke-width:0.35433072;stroke-linecap:round;stroke-linejoin:round;stroke-miterlimit:4;stroke-dasharray:none;stroke-opacity:1"
       d="m -212.52603,-118.87558 c 0.13403,11.89601 7.43056,23.383579 15.52141,33.595599 -1.05211,-3.05427 -1.44517,-5.54772 0.47884,-9.47926 0.72244,3.32966 3.27266,5.74542 6.60881,7.76823 -6.60453,-15.905259 -0.6178,-24.949599 -3.65224,-35.594779"
       id="path931"
       inkscape:connector-curvature="0"
       sodipodi:nodetypes="ccccc" />
    <path
       style="display:inline;fill:none;stroke:#c0c0c0;stroke-width:0.35433072;stroke-linecap:round;stroke-linejoin:round;stroke-miterlimit:4;stroke-dasharray:none;stroke-opacity:1"
       d="m -211.49832,0.00689926 c 58.58419,1.22068004 62.53037,-37.91279026 61.82643,-59.50188026"
       id="path933"
       inkscape:connector-curvature="0"
       sodipodi:nodetypes="cc" />
    <path
       style="display:inline;fill:none;stroke:#c0c0c0;stroke-width:0.35433072;stroke-linecap:round;stroke-linejoin:round;stroke-miterlimit:4;stroke-dasharray:none;stroke-opacity:1"
       d="m -169.90746,-131.32914 c 7.59723,27.24504 13.19198,59.727319 26.13847,72.981959 -0.22059,-2.62286 -0.99119,-5.06238 1.31176,-8.52642 1.91298,-0.0876 3.82595,0.77596 5.73893,3.7713 0.88882,-0.45679 1.94914,-2.45704 3.27939,-6.88672 1.24321,3.63599 2.91643,4.69195 4.59115,5.73893 -3.5749,-27.55732 -6.61507,-56.558139 -22.1349,-81.982439"
       id="path935"
       inkscape:connector-curvature="0"
       sodipodi:nodetypes="ccccccc" />
    <path
       style="display:inline;fill:none;stroke:#c0c0c0;stroke-width:0.35433072;stroke-linecap:round;stroke-linejoin:round;stroke-miterlimit:4;stroke-dasharray:none;stroke-opacity:1"
       d="m -175.00978,-111.35159 c -3.82594,10.75808 0.97542,23.084759 1.46312,34.627139 2.3234,-2.81225 3.97657,-6.01874 4.97184,-9.61223 3.14537,3.69042 6.50475,7.07513 11.26951,8.45213 -0.54572,-2.37963 -1.01295,-4.80832 -0.33145,-7.95495"
       id="path937"
       inkscape:connector-curvature="0"
       sodipodi:nodetypes="ccccc" />
    <path
       style="display:inline;fill:none;stroke:#c0c0c0;stroke-width:0.35433072;stroke-linecap:round;stroke-linejoin:round;stroke-miterlimit:4;stroke-dasharray:none;stroke-opacity:1"
       d="m -248.38476,-111.82816 1.15723,2.56349 c 2.10162,1.40189 11.23163,-0.30476 14.51764,-1.83601"
       id="path939"
       inkscape:connector-curvature="0"
       sodipodi:nodetypes="ccc" />
    <path
       style="display:inline;fill:none;stroke:#c0c0c0;stroke-width:0.35433072;stroke-linecap:round;stroke-linejoin:round;stroke-miterlimit:4;stroke-dasharray:none;stroke-opacity:1"
       d="m -127.22753,-51.432641 c -3.50214,16.18198 -0.75074,33.78915 8.23278,49.1915303 0.9727,-1.12204 1.28233,-2.69994 1.37659,-4.42591 0.47071,1.52895 1.13175,2.81657 1.93359,3.07617 1.48639,-1.97776 2.63335,-4.38349 6.5625,-3.28125 -3.44403,-41.1648803 8.10144,-121.3679493 -18.47168,-133.9013693"
       id="path941"
       inkscape:connector-curvature="0"
       sodipodi:nodetypes="cccccc" />
    <path
       style="display:inline;fill:none;stroke:#c0c0c0;stroke-width:0.35433072;stroke-linecap:round;stroke-linejoin:round;stroke-miterlimit:4;stroke-dasharray:none;stroke-opacity:1"
       d="m -135.51414,-65.637211 c -0.10376,8.96837 3.13553,14.85362 7.20704,20.41992"
       id="path943"
       inkscape:connector-curvature="0"
       sodipodi:nodetypes="cc" />
    <path
       style="display:inline;fill:none;stroke:#c0c0c0;stroke-width:0.35433072;stroke-linecap:round;stroke-linejoin:round;stroke-miterlimit:4;stroke-dasharray:none;stroke-opacity:1"
       d="m -154.264,3.6820477 c 1.21241,12.8179403 3.72909,18.4918603 5.5131,24.8669003 1.47347,-2.69983 3.02074,-5.1045 4.80468,-6.56249 1.01563,7.24548 2.03125,8.43339 3.04688,8.90625 0.95793,-8.03845 4.19245,-11.48085 2.57812,-33.2812503 -1.61433,-21.8003997 -0.70012,-38.3789997 4.45313,-49.2187497 5.15325,-10.83975 1.77925,-57.324548 -9.24316,-64.643558"
       id="path945"
       inkscape:connector-curvature="0"
       sodipodi:nodetypes="cccczzc" />
    <path
       style="display:inline;fill:none;stroke:#c0c0c0;stroke-width:0.35433072;stroke-linecap:round;stroke-linejoin:round;stroke-miterlimit:4;stroke-dasharray:none;stroke-opacity:1"
       d="m -93.219783,6.3154093 c -0.19644,5.0885097 -0.33399,10.0592497 -0.82864,15.7441697 2.46052,-2.23271 3.45458,-5.23781 4.47466,-8.61787 -0.15677,3.4033 0.47172,5.39315 1.07494,7.42847 1.82433,-2.28671 2.72753,-6.51804 3.14883,-11.7666997 0.6673,2.8305397 1.21056,5.2889597 2.32019,9.4465097 6.22652,-6.38785 7.11324,-18.86247974 7.45777,-28.8367 0.0572,-21.41076 19.37571,-63.3258 -0.20321,-100.518149"
       id="path947"
       inkscape:connector-curvature="0"
       sodipodi:nodetypes="cccccccc" />
    <path
       style="display:inline;fill:none;stroke:#c0c0c0;stroke-width:0.35433072;stroke-linecap:round;stroke-linejoin:round;stroke-miterlimit:4;stroke-dasharray:none;stroke-opacity:1"
       d="M -76.276373,0.11273926 C -78.216863,31.905919 -98.310763,48.214119 -103.58009,71.748719 c 2.78917,-4.17259 6.849267,-6.49452 11.269517,-5.96621 -1.84901,2.65072 -0.29371,3.35612 0.82864,4.30893 1.67215,-2.74274 8.30716,-4.62237 13.25826,-6.79485 1.45602,0.94801 2.30293,2.0483 3.14882,3.14884 20.24725,-36.59736 40.84027,-87.04912 30.52028,-144.56809"
       id="path949"
       inkscape:connector-curvature="0"
       sodipodi:nodetypes="ccccccc" />
    <path
       style="display:inline;fill:none;stroke:#c0c0c0;stroke-width:0.35433072;stroke-linecap:round;stroke-linejoin:round;stroke-miterlimit:4;stroke-dasharray:none;stroke-opacity:1"
       d="m -21.802773,-41.257461 c 12.2546897,29.90061 -14.09931,92.1702 -36.53353,113.00618"
       id="path951"
       inkscape:connector-curvature="0"
       sodipodi:nodetypes="cc" />
    <path
       style="display:inline;fill:none;stroke:#c0c0c0;stroke-width:0.35433072;stroke-linecap:round;stroke-linejoin:round;stroke-miterlimit:4;stroke-dasharray:none;stroke-opacity:1"
       d="m -78.309363,63.345299 c -5.65459,8.49868 -4.10516,13.52178 -2.82249,17.98824 0.51717,-3.5544 0.99921,-6.24495 3.30251,-7.43964 -0.21928,3.73349 -0.57098,4.8975 2.04251,8.04656"
       id="path953"
       inkscape:connector-curvature="0"
       sodipodi:nodetypes="cccc" />
    <path
       transform="translate(0,308.2677)"
       style="fill:none;stroke:#c0c0c0;stroke-width:0.35433072;stroke-linecap:round;stroke-linejoin:round;stroke-miterlimit:4;stroke-dasharray:none;stroke-opacity:1"
       d="M 687.44037,442.30353 C 676.80578,413.09589 665.9233,383.77822 739.81047,392.0879"
       id="path1131"
       inkscape:connector-curvature="0"
       sodipodi:nodetypes="cc" />
    <path
       transform="translate(0,308.2677)"
       style="fill:none;stroke:#c0c0c0;stroke-width:0.35433072;stroke-linecap:round;stroke-linejoin:round;stroke-miterlimit:4;stroke-dasharray:none;stroke-opacity:1"
       d="m 579.72656,452.4734 9.31641,-10.01953 m 0,0 c -2.31863,-2.17985 -7.78301,-3.14299 -8.61328,-1.34766"
       id="path1133"
       inkscape:connector-curvature="0"
       sodipodi:nodetypes="cccc" />
    <path
       transform="translate(0,308.2677)"
       style="fill:none;stroke:#c0c0c0;stroke-width:0.35433072;stroke-linecap:round;stroke-linejoin:round;stroke-miterlimit:4;stroke-dasharray:none;stroke-opacity:1"
       d="m 584.50195,453.17652 10.16602,-8.67187 m 0,0 c -0.83489,-1.67942 -4.08665,-3.95011 -5.66895,-2.05078"
       id="path1135"
       inkscape:connector-curvature="0"
       sodipodi:nodetypes="cccc" />
    <path
       transform="translate(0,308.2677)"
       style="fill:none;stroke:#c0c0c0;stroke-width:0.35433072;stroke-linecap:round;stroke-linejoin:round;stroke-miterlimit:4;stroke-dasharray:none;stroke-opacity:1"
       d="m 588.36914,453.93824 12.59765,-7.99805 m -0.46875,0.11719 c -0.50007,-1.50912 -3.31545,-3.50274 -5.82357,-1.52282"
       id="path1137"
       inkscape:connector-curvature="0"
       sodipodi:nodetypes="cccc" />
    <path
       transform="translate(0,308.2677)"
       style="fill:none;stroke:#c0c0c0;stroke-width:0.35433072;stroke-linecap:round;stroke-linejoin:round;stroke-miterlimit:4;stroke-dasharray:none;stroke-opacity:1"
       d="m 606.88476,454.55347 c 2.10214,-1.57586 -1.94659,-10.8029 -5.88866,-8.61328"
       id="path1139"
       inkscape:connector-curvature="0"
       sodipodi:nodetypes="cc" />
    <path
       transform="translate(0,308.2677)"
       style="fill:none;stroke:#c0c0c0;stroke-width:0.35433072;stroke-linecap:round;stroke-linejoin:round;stroke-miterlimit:4;stroke-dasharray:none;stroke-opacity:1"
       d="M 616.52344,453.87965 C 606.43506,446.06896 599.56871,436.5194 599.29687,423.4109"
       id="path1141"
       inkscape:connector-curvature="0"
       sodipodi:nodetypes="cc" />
    <path
       transform="translate(0,308.2677)"
       style="fill:none;stroke:#c0c0c0;stroke-width:0.35433072;stroke-linecap:round;stroke-linejoin:round;stroke-miterlimit:4;stroke-dasharray:none;stroke-opacity:1"
       d="m 602.50469,396.47969 9.19792,2.32019 c -1.74121,-4.91578 -3.75278,-9.62127 -7.45777,-13.00966 3.61936,2.59111 7.62921,3.03459 11.68384,3.23171 -2.21039,-5.45199 -5.20536,-9.57568 -7.85137,-13.29969 3.67652,2.1977 7.62748,2.98083 11.08306,1.86444 -1.55864,-3.93275 -4.41189,-7.00243 -7.95495,-9.61223 3.56243,1.86105 7.37651,3.30267 11.60097,4.06034 -1.26777,-4.35835 -2.66286,-8.70256 -5.88334,-12.84394 -4.77366,-2.88173 -10.08059,6.73458 -5.80049,8.7836 -4.43522,-1.71122 -5.66204,4.17275 -3.06598,7.70635 -3.93432,-1.98911 -7.41366,6.59556 -3.64601,9.9437 -4.05957,-2.53168 -9.04387,7.65223 -5.80049,9.36364"
       id="path1143"
       inkscape:connector-curvature="0"
       sodipodi:nodetypes="ccccccccccccc" />
    <path
       transform="translate(0,308.2677)"
       style="fill:none;stroke:#c0c0c0;stroke-width:0.35433072;stroke-linecap:round;stroke-linejoin:round;stroke-miterlimit:4;stroke-dasharray:none;stroke-opacity:1"
       d="m 633.74445,346.51266 c -3.64333,3.96082 -11.23945,8.745 -14.7498,15.57844"
       id="path1145"
       inkscape:connector-curvature="0"
       sodipodi:nodetypes="cc" />
    <path
       transform="translate(0,308.2677)"
       style="fill:none;stroke:#c0c0c0;stroke-width:0.35433072;stroke-linecap:round;stroke-linejoin:round;stroke-miterlimit:4;stroke-dasharray:none;stroke-opacity:1"
       d="m 641.11935,337.93622 c 15.01719,2.74593 26.79541,9.37031 33.89141,19.59735"
       id="path1147"
       inkscape:connector-curvature="0"
       sodipodi:nodetypes="cc" />
    <path
       transform="translate(0,308.2677)"
       style="fill:none;stroke:#c0c0c0;stroke-width:0.35433072;stroke-linecap:round;stroke-linejoin:round;stroke-miterlimit:4;stroke-dasharray:none;stroke-opacity:1"
       d="m 691.0864,331.1828 c -1.77868,7.95634 -4.24192,18.21469 -8.28642,21.79325 -4.0445,3.57856 -6.84625,5.65053 -22.87048,8.45214 -3.07206,0.19246 -5.19349,2.47406 -10.10942,5.71761 5.2906,4.74936 7.07782,2.70491 10.27515,3.89462 -6.33895,-0.008 -6.54669,1.79519 -10.02657,4.88898 4.76694,2.06434 5.45299,3.0085 11.36834,2.28587 -4.85785,1.51837 -6.41151,2.51067 -9.3796,5.75194 4.29298,1.74215 7.10208,2.70334 10.60662,0.82864 -3.32069,3.00487 -3.9415,3.48345 -5.5519,8.03781 5.08071,0.55211 8.02537,0.16325 12.42961,-1.65728 11.03285,-0.98306 30.04512,-8.09391 39.4433,-15.24698 9.39818,-7.15307 13.92117,-37.62029 13.92117,-37.62029"
       id="path1149"
       inkscape:connector-curvature="0"
       sodipodi:nodetypes="czccccccccczc" />
    <path
       transform="translate(0,308.2677)"
       style="fill:none;stroke:#c0c0c0;stroke-width:0.35433072;stroke-linecap:round;stroke-linejoin:round;stroke-miterlimit:4;stroke-dasharray:none;stroke-opacity:1"
       d="m 681.35553,388.82675 c -0.0183,20.26307 -3.59155,40.18994 -14.27251,56.42556"
       id="path1151"
       inkscape:connector-curvature="0"
       sodipodi:nodetypes="cc" />
    <path
       transform="translate(0,308.2677)"
       style="fill:none;stroke:#c0c0c0;stroke-width:0.35433072;stroke-linecap:round;stroke-linejoin:round;stroke-miterlimit:4;stroke-dasharray:none;stroke-opacity:1"
       d="m 660,361.24293 c 4.87946,0.52037 3.50675,10.54998 0.0586,9.84375 3.69451,0.54576 3.89478,6.41687 1.08728,7.13594 3.82664,-0.71647 3.65704,4.45642 1.59554,6.57256 3.98585,-2.09626 8.75215,4.08243 6.29553,6.5885"
       id="path1153"
       inkscape:connector-curvature="0"
       sodipodi:nodetypes="ccccc" />
    <path
       transform="translate(0,308.2677)"
       style="fill:none;stroke:#c0c0c0;stroke-width:0.35433072;stroke-linecap:round;stroke-linejoin:round;stroke-miterlimit:4;stroke-dasharray:none;stroke-opacity:1"
       d="m 682.65177,215.26773 c 6.6162,-4.64698 12.60085,-5.94742 19.92014,-7.79008"
       id="path1155"
       inkscape:connector-curvature="0"
       sodipodi:nodetypes="cc" />
    <path
       transform="translate(0,308.2677)"
       style="fill:none;stroke:#c0c0c0;stroke-width:0.35433072;stroke-linecap:round;stroke-linejoin:round;stroke-miterlimit:4;stroke-dasharray:none;stroke-opacity:1"
       d="m 714.70265,205.31226 c 10.0875,0.40728 16.55302,1.72951 22.74619,10.73091"
       id="path1157"
       inkscape:connector-curvature="0"
       sodipodi:nodetypes="cc" />
    <path
       transform="translate(0,308.2677)"
       style="fill:none;stroke:#c0c0c0;stroke-width:0.35433072;stroke-linecap:round;stroke-linejoin:round;stroke-miterlimit:4;stroke-dasharray:none;stroke-opacity:1"
       d="m 741.7992,224.8682 c 3.56458,8.32182 7.71548,16.342 9.19792,24.03058"
       id="path1159"
       inkscape:connector-curvature="0"
       sodipodi:nodetypes="cc" />
    <path
       transform="translate(0,308.2677)"
       style="fill:none;stroke:#c0c0c0;stroke-width:0.35433072;stroke-linecap:round;stroke-linejoin:round;stroke-miterlimit:4;stroke-dasharray:none;stroke-opacity:1"
       d="m 751.74289,276.57538 c 0.0276,14.19738 -1.23839,30.61539 -0.41431,41.59776"
       id="path1161"
       inkscape:connector-curvature="0"
       sodipodi:nodetypes="cc" />
    <path
       transform="translate(0,308.2677)"
       style="fill:none;stroke:#c0c0c0;stroke-width:0.35433072;stroke-linecap:round;stroke-linejoin:round;stroke-miterlimit:4;stroke-dasharray:none;stroke-opacity:1"
       d="m 754.12524,340.65002 c 2.29638,11.54383 7.45295,22.32742 14.97767,27.90448"
       id="path1163"
       inkscape:connector-curvature="0"
       sodipodi:nodetypes="cc" />
    <path
       transform="translate(0,308.2677)"
       style="fill:none;stroke:#c0c0c0;stroke-width:0.35433072;stroke-linecap:round;stroke-linejoin:round;stroke-miterlimit:4;stroke-dasharray:none;stroke-opacity:1"
       d="m 794.12787,369.42457 c 7.19037,-5.87248 19.51631,-21.93778 24.32061,-29.37531"
       id="path1165"
       inkscape:connector-curvature="0"
       sodipodi:nodetypes="cc" />
    <path
       transform="translate(0,308.2677)"
       style="fill:none;stroke:#c0c0c0;stroke-width:0.35433072;stroke-linecap:round;stroke-linejoin:round;stroke-miterlimit:4;stroke-dasharray:none;stroke-opacity:1"
       d="m 824.82901,331.34852 c 5.66889,-7.97038 12.54842,-13.64617 22.24901,-19.72165"
       id="path1167"
       inkscape:connector-curvature="0"
       sodipodi:nodetypes="cc" />
    <path
       transform="translate(0,308.2677)"
       style="fill:none;stroke:#c0c0c0;stroke-width:0.35433072;stroke-linecap:round;stroke-linejoin:round;stroke-miterlimit:4;stroke-dasharray:none;stroke-opacity:1"
       d="m 732.27086,465.30074 c 14.20951,-3.93672 -1.38919,-28.11813 -9.71623,-39.50139"
       id="path1169"
       inkscape:connector-curvature="0"
       sodipodi:nodetypes="cc" />
    <path
       transform="translate(0,308.2677)"
       style="fill:none;stroke:#c0c0c0;stroke-width:0.35433072;stroke-linecap:round;stroke-linejoin:round;stroke-miterlimit:4;stroke-dasharray:none;stroke-opacity:1"
       d="m 747.01965,429.62532 -20.16706,2.42378"
       id="path1171"
       inkscape:connector-curvature="0"
       sodipodi:nodetypes="cc" />
    <path
       transform="translate(0,308.2677)"
       style="fill:none;stroke:#c0c0c0;stroke-width:0.35433072;stroke-linecap:round;stroke-linejoin:round;stroke-miterlimit:4;stroke-dasharray:none;stroke-opacity:1"
       d="m 665.31236,268.97572 c 14.0405,-3.40633 25.47198,-5.03732 41.07443,-4.92704 6.01092,-0.29028 7.99266,5.52519 8.39872,17.83 0.40606,12.30481 -0.448,16.86598 -3.81174,20.55029 -3.36374,3.68431 -8.04175,5.2126 -17.12342,7.27537 -9.08167,2.06278 -37.23542,1.67395 -37.23542,1.67395"
       id="path1173"
       inkscape:connector-curvature="0"
       sodipodi:nodetypes="cczzzc" />
    <path
       transform="translate(0,308.2677)"
       style="fill:none;stroke:#c0c0c0;stroke-width:0.35433072;stroke-linecap:round;stroke-linejoin:round;stroke-miterlimit:4;stroke-dasharray:none;stroke-opacity:1"
       d="m 634.61245,294.92266 c 15.50054,8.03567 33.02415,2.58522 50.67345,-2.27166"
       id="path1175"
       inkscape:connector-curvature="0"
       sodipodi:nodetypes="cc" />
    <path
       transform="translate(0,308.2677)"
       style="fill:none;stroke:#c0c0c0;stroke-width:0.35433072;stroke-linecap:round;stroke-linejoin:round;stroke-miterlimit:4;stroke-dasharray:none;stroke-opacity:1"
       d="m 682.20571,265.57614 c 0,0 -0.74605,-29.44567 6.46829,-36.36799 7.21433,-6.92232 20.93662,-7.7552 22.4655,2.30842 1.52888,10.06361 -0.0489,22.6218 -2.3403,32.7372"
       id="path1177"
       inkscape:connector-curvature="0"
       sodipodi:nodetypes="czzc" />
    <path
       transform="translate(0,308.2677)"
       style="fill:none;stroke:#c0c0c0;stroke-width:0.35433072;stroke-linecap:round;stroke-linejoin:round;stroke-miterlimit:4;stroke-dasharray:none;stroke-opacity:1"
       d="m 665.06708,268.95188 c -1.48753,-15.53111 6.67162,-51.34618 20.86103,-35.35189"
       id="path1179"
       inkscape:connector-curvature="0"
       sodipodi:nodetypes="cc" />
    <path
       transform="translate(0,308.2677)"
       style="fill:none;stroke:#c0c0c0;stroke-width:0.35433072;stroke-linecap:round;stroke-linejoin:round;stroke-miterlimit:4;stroke-dasharray:none;stroke-opacity:1"
       d="m 665.18168,257.6255 c 1.12677,-3.80487 11.21321,-5.85632 11.74831,8.82954"
       id="path1181"
       inkscape:connector-curvature="0"
       sodipodi:nodetypes="cc" />
    <path
       transform="translate(0,308.2677)"
       style="fill:none;stroke:#c0c0c0;stroke-width:0.35433072;stroke-linecap:round;stroke-linejoin:round;stroke-miterlimit:4;stroke-dasharray:none;stroke-opacity:1"
       d="m 682.43623,254.90485 c 1.83845,-3.66621 11.50364,-5.05301 10.96305,9.37441"
       id="path1183"
       inkscape:connector-curvature="0"
       sodipodi:nodetypes="cc" />
    <path
       transform="translate(0,1.5793938e-6)"
       style="display:inline;fill:none;stroke:#c0c0c0;stroke-width:0.35433072;stroke-linecap:round;stroke-linejoin:round;stroke-miterlimit:4;stroke-dasharray:none;stroke-opacity:1"
       d="m 662.98828,781.42469 c 5.3768,-0.93747 -1.09079,-13.04597 -4.42383,-10.54688 l -16.66992,8.43751"
       id="path1121"
       inkscape:connector-curvature="0"
       sodipodi:nodetypes="ccc" />
    <path
       transform="translate(0,1.5793938e-6)"
       style="display:inline;fill:none;stroke:#c0c0c0;stroke-width:0.35433072;stroke-linecap:round;stroke-linejoin:round;stroke-miterlimit:4;stroke-dasharray:none;stroke-opacity:1"
       d="m 657.80273,771.28798 c -0.67528,-1.2926 -2.61267,-3.50376 -4.05129,-2.42072 l -14.61081,8.71954"
       id="path1123"
       inkscape:connector-curvature="0"
       sodipodi:nodetypes="ccc" />
    <path
       transform="translate(0,1.5793938e-6)"
       style="display:inline;fill:none;stroke:#c0c0c0;stroke-width:0.35433072;stroke-linecap:round;stroke-linejoin:round;stroke-miterlimit:4;stroke-dasharray:none;stroke-opacity:1"
       d="m 653.05665,769.12001 c -0.91977,-1.54698 -3.03045,-3.83 -5.25162,-2.26333 l -10.5394,8.152"
       id="path1125"
       inkscape:connector-curvature="0"
       sodipodi:nodetypes="ccc" />
    <path
       transform="translate(0,1.5793938e-6)"
       style="display:inline;fill:none;stroke:#c0c0c0;stroke-width:0.35433072;stroke-linecap:round;stroke-linejoin:round;stroke-miterlimit:4;stroke-dasharray:none;stroke-opacity:1"
       d="m 647.98828,766.62977 c -1.63442,-2.63607 -2.94876,-4.24205 -6.38671,-1.52344"
       id="path1127"
       inkscape:connector-curvature="0"
       sodipodi:nodetypes="cc" />
    <path
       transform="translate(0,1.5793938e-6)"
       style="display:inline;fill:none;stroke:#c0c0c0;stroke-width:0.35433072;stroke-linecap:round;stroke-linejoin:round;stroke-miterlimit:4;stroke-dasharray:none;stroke-opacity:1"
       d="m 637.03125,770.0575 c 12.4015,-16.62144 41.59218,-19.00867 50.625,-19.45312 9.03282,-0.44445 10.78125,2.92969 10.78125,2.92969"
       id="path1129"
       inkscape:connector-curvature="0"
       sodipodi:nodetypes="czc" />
  </g>
</svg>
