<?xml version="1.0" encoding="UTF-8" standalone="no"?>
<!-- Created with Inkscape (http://www.inkscape.org/) -->

<svg
   xmlns:dc="http://purl.org/dc/elements/1.1/"
   xmlns:cc="http://creativecommons.org/ns#"
   xmlns:rdf="http://www.w3.org/1999/02/22-rdf-syntax-ns#"
   xmlns:svg="http://www.w3.org/2000/svg"
   xmlns="http://www.w3.org/2000/svg"
   xmlns:sodipodi="http://sodipodi.sourceforge.net/DTD/sodipodi-0.dtd"
   xmlns:inkscape="http://www.inkscape.org/namespaces/inkscape"
   width="297mm"
   height="210mm"
   id="svg2"
   version="1.1"
   inkscape:version="0.92.3 (2405546, 2018-03-11)"
   sodipodi:docname="DragonBalloon-undecorated.svg">
  <defs
     id="defs4" />
  <sodipodi:namedview
     id="base"
     pagecolor="#ffffff"
     bordercolor="#666666"
     borderopacity="1.0"
     inkscape:pageopacity="0.0"
     inkscape:pageshadow="2"
     inkscape:zoom="1"
     inkscape:cx="541.4485"
     inkscape:cy="582.16901"
     inkscape:document-units="mm"
     inkscape:current-layer="Mask"
     showgrid="false"
     units="mm"
     inkscape:window-width="1920"
     inkscape:window-height="1015"
     inkscape:window-x="0"
     inkscape:window-y="0"
     inkscape:window-maximized="0"
     inkscape:snap-nodes="false"
     inkscape:snap-global="false" />
  <metadata
     id="metadata7">
    <rdf:RDF>
      <cc:Work
         rdf:about="">
        <dc:format>image/svg+xml</dc:format>
        <dc:type
           rdf:resource="http://purl.org/dc/dcmitype/StillImage" />
        <dc:title />
      </cc:Work>
    </rdf:RDF>
  </metadata>
  <g
     inkscape:label="Mask"
     inkscape:groupmode="layer"
     id="Mask"
     style="display:inline"
     transform="translate(0,-328.81888)">
    <path
       style="color:#000000;display:inline;overflow:visible;visibility:visible;fill:#ffffff;fill-opacity:1;fill-rule:nonzero;stroke:#808080;stroke-width:0.75590551;stroke-linecap:round;stroke-linejoin:round;stroke-miterlimit:4;stroke-dasharray:none;stroke-opacity:1;marker:none;enable-background:accumulate"
       d="m -303.00038,-237.48806 c -9.1048,4.44412 38.09179,118.23242 38.09179,118.23242 -33.10564,26.99402 -65.9974,50.9761 -98.44531,68.76172 -36.51312,21.30179 -27.01276,39.71983 -24.42774,47.7949202 2.58502,8.07509 3.398,10.0903 5.13477,13.9296898 -2.38688,5.27984 3.59888,11.802121 6.26953,11.78515 2.34,-0.2204 3.52229,-1.12683 5.54102,-2.150389 -4.51297,2.280039 -5.65574,5.692 -0.61328,7.945319 4.67325,5.27878 4.5765,4.94261 6.0957,8.070311 8.31671,6.39152 16.9661,9.57989 28.00392,0.576169 30.2953,-26.97073 66.15888,-35.0043198 102.14256,-37.0800798 49.60982,-6.22355 74.99064,55.3948598 80.45508,124.5292998 l 0.75391,3.74023 -10.42969,18.54883 10.42383,-2.58789 10.64648,5.72852 6.72656,-4.02735 -10.91015,-18.11328 0.61719,-1.09375 130.695311,-78.26367 C 0.97400119,38.56222 -4.4165788,17.064811 -5.7816388,10.4846 -20.854969,-81.050629 -105.70357,-162.15926 -182.41835,-156.60525 c -2.28528,-10.14511 -6.14881,-18.2559 -14.71875,-28.69336 -3.79045,6.84254 -5.20671,12.4827 -7.04883,18.67578 -22.20021,-1.38527 -35.53744,11.41511 -40.19336,25.10548 0,0 -49.51629,-100.41483 -58.62109,-95.97071 z"
       id="path2991-3"
       inkscape:connector-curvature="0"
       sodipodi:nodetypes="zccscccccccccccccccccccccz" />
    <path
       style="color:#000000;display:inline;overflow:visible;visibility:visible;fill:#ffffff;fill-opacity:1;fill-rule:nonzero;stroke:#808080;stroke-width:0.75590551;stroke-linecap:round;stroke-linejoin:round;stroke-miterlimit:4;stroke-dasharray:none;stroke-opacity:1;marker:none;enable-background:accumulate"
       d="m 742.40625,519.49857 c -7.78705,-0.41448 -18.6127,24.29833 -14.28125,38.89648 -13.57663,15.98139 -20.47264,34.79696 -18.5,57.375 -23.73668,7.1033 -31.53749,16.30178 -32.875,28.125 -1.33751,11.82322 8.94086,17.31686 23.625,16.75 -7.11289,12.57885 -12.13808,24.98374 -24.5,38 -12.33101,-0.38864 -29.57633,-1.53041 -36,8.625 -6.42367,10.15542 -11.53841,31.37986 -2,43 l 4.9375,1.625 c -2.43309,11.59902 -3.82982,21.38739 -3.57422,28.63477 -16.19172,0.35299 -22.11292,17.52152 -21.11328,30.99023 12.0134,2.2638 22.9703,3.68068 39.625,1.5 5.99363,3.83843 13.40155,6.54542 21.75,8.5 -3.27063,12.61372 15.88415,14.70629 49.76562,9.89063 l -9.89648,17.59961 10.42383,-2.58789 10.64648,5.72851 6.72657,-4.02734 -10.3086,-17.11524 C 839.40493,830.71236 896.40695,746.42812 913,703.52005 c 16.61509,-42.96507 -1.6054,-46.71836 -9.375,-42.25 -4.52016,-24.3 -35.81609,-18.00545 -23.75,21.125 -2.10443,2.5633 -4.30316,5.40947 -6.875,9.375 -9.9152,-29.40968 -37.34098,-16.5912 -26,31.25 -9.79834,5.51448 -18.20586,2.22047 -26.625,-1 25.7697,-56.58235 1.45371,-48.90178 -16.01172,-29.80273 -1.63052,-9.25213 -2.12239,-16.22439 -2.86328,-23.69727 29.00756,-22.78948 36.90058,-49.34265 0.34766,-44.60351 0.0527,-9.3315 0.4826,-18.66671 -0.83594,-29.4043 33.26912,-20.34235 24.08339,-44.41458 -9.76172,-25.86719 -1.24512,-3.96993 -2.88887,-6.74142 -4.59961,-9.31445 25.01969,-35.25442 -12.06903,-51.2205 -24.40039,-11.43555 -2.9008,0.007 -8.7002,0.88324 -12.82031,2.24414 0.75718,-22.26907 -2.6551,-30.40811 -7.02344,-30.64062 z"
       id="path2991-3-3"
       inkscape:connector-curvature="0" />
  </g>
  <g
     inkscape:groupmode="layer"
     id="layer1"
     inkscape:label="Overlay"
     style="display:inline"
     transform="translate(0,-328.81888)">
    <path
       style="display:inline;fill:none;stroke:#c0c0c0;stroke-width:0.37795275;stroke-linecap:round;stroke-linejoin:round;stroke-miterlimit:4;stroke-dasharray:none;stroke-opacity:1"
       d="m -380.54429,-30.335286 c 6.60984,10.649312 8.77565,21.6319253 2.22614,33.2681813"
       id="path913"
       inkscape:connector-curvature="0"
       sodipodi:nodetypes="cc" />
    <path
       style="display:inline;fill:none;stroke:#c0c0c0;stroke-width:0.37795275;stroke-linecap:round;stroke-linejoin:round;stroke-miterlimit:4;stroke-dasharray:none;stroke-opacity:1"
       d="m -379.30754,-27.490796 c -2.44644,10.378443 -2.94734,20.0272966 2.47346,27.45552054"
       id="path915"
       inkscape:connector-curvature="0"
       sodipodi:nodetypes="cc" />
    <path
       style="display:inline;fill:none;stroke:#c0c0c0;stroke-width:0.37795275;stroke-linecap:round;stroke-linejoin:round;stroke-miterlimit:4;stroke-dasharray:none;stroke-opacity:1"
       d="m -272.08261,-80.91775 c 7.55256,-12.51727 26.1273,-28.70677 46.25388,-18.55103 -20.14161,23.161302 -32.68417,18.437963 -46.25388,18.55103 z"
       id="path917"
       inkscape:connector-curvature="0"
       sodipodi:nodetypes="ccc" />
    <path
       style="display:inline;fill:none;stroke:#c0c0c0;stroke-width:0.37795275;stroke-linecap:round;stroke-linejoin:round;stroke-miterlimit:4;stroke-dasharray:none;stroke-opacity:1"
       d="m -256.50234,-93.384982 c -1.50161,4.006858 2.80271,11.6168 8.72233,9.731413 6.4595,-2.057355 7.78455,-8.407893 5.37904,-12.352352 -3.46822,-5.687039 -11.68902,-3.816075 -14.10137,2.620939 z"
       id="path919"
       inkscape:connector-curvature="0"
       sodipodi:nodetypes="ssss" />
    <path
       style="display:inline;fill:none;stroke:#c0c0c0;stroke-width:0.37795275;stroke-linecap:round;stroke-linejoin:round;stroke-miterlimit:4;stroke-dasharray:none;stroke-opacity:1"
       d="m -198.86658,-128.34948 c -1.33999,-12.58439 -1.44797,-26.59522 4.58622,-39.17777 5.48024,12.15699 9.32263,26.58712 2.79842,44.4248"
       id="path921"
       inkscape:connector-curvature="0"
       sodipodi:nodetypes="ccc" />
    <path
       style="display:inline;fill:none;stroke:#c0c0c0;stroke-width:0.37795275;stroke-linecap:round;stroke-linejoin:round;stroke-miterlimit:4;stroke-dasharray:none;stroke-opacity:1"
       d="m -204.18586,-166.62349 c -4.53836,17.70291 -4.96455,25.29736 -2.22612,35.86532"
       id="path923"
       inkscape:connector-curvature="0"
       sodipodi:nodetypes="cc" />
    <path
       style="display:inline;fill:none;stroke:#c0c0c0;stroke-width:0.37795275;stroke-linecap:round;stroke-linejoin:round;stroke-miterlimit:4;stroke-dasharray:none;stroke-opacity:1"
       d="m -182.41182,-156.48912 c 2.12238,12.03748 1.92944,25.35791 -4.21239,37.60361"
       id="path925"
       inkscape:connector-curvature="0"
       sodipodi:nodetypes="cc" />
    <path
       style="display:inline;fill:none;stroke:#c0c0c0;stroke-width:0.37795275;stroke-linecap:round;stroke-linejoin:round;stroke-miterlimit:4;stroke-dasharray:none;stroke-opacity:1"
       d="m -244.31791,-141.64145 c -3.48236,8.73764 -7.03159,26.31102 0.61837,35.74165 1.10488,-4.5767 3.00473,-8.08279 6.36918,-11.00694 -0.0838,2.25455 0.45649,4.09296 1.36042,5.68898 1.00761,-2.18649 0.61435,-5.3069 4.32856,-5.68898 5.55333,-13.6018 12.90237,-21.36752 19.66409,-31.04205"
       id="path929"
       inkscape:connector-curvature="0"
       sodipodi:nodetypes="cccccc" />
    <path
       style="display:inline;fill:none;stroke:#c0c0c0;stroke-width:0.37795275;stroke-linecap:round;stroke-linejoin:round;stroke-miterlimit:4;stroke-dasharray:none;stroke-opacity:1"
       d="m -226.69443,-126.80062 c 0.14296,12.68908 7.92593,24.94249 16.55617,35.835307 -1.12225,-3.257888 -1.54152,-5.917568 0.51076,-10.111207 0.7706,3.551634 3.49084,6.128444 7.0494,8.286108 -7.04483,-16.965608 -0.65899,-26.612908 -3.89572,-37.967768"
       id="path931"
       inkscape:connector-curvature="0"
       sodipodi:nodetypes="ccccc" />
    <path
       style="display:inline;fill:none;stroke:#c0c0c0;stroke-width:0.37795275;stroke-linecap:round;stroke-linejoin:round;stroke-miterlimit:4;stroke-dasharray:none;stroke-opacity:1"
       d="m -225.59821,0.00735921 c 62.4898,1.30205869 66.69906,-40.44030921 65.94819,-63.46867221"
       id="path933"
       inkscape:connector-curvature="0"
       sodipodi:nodetypes="cc" />
    <path
       style="display:inline;fill:none;stroke:#c0c0c0;stroke-width:0.37795275;stroke-linecap:round;stroke-linejoin:round;stroke-miterlimit:4;stroke-dasharray:none;stroke-opacity:1"
       d="m -181.23462,-140.08442 c 8.10371,29.06138 14.07144,63.709144 27.88103,77.847427 -0.2353,-2.797717 -1.05727,-5.399872 1.39921,-9.094848 2.04051,-0.09344 4.08101,0.827691 6.12153,4.02272 0.94807,-0.487243 2.07908,-2.620843 3.49801,-7.345835 1.32609,3.87839 3.11086,5.004747 4.89723,6.121526 -3.81323,-29.394475 -7.05608,-60.32868 -23.61056,-87.44794"
       id="path935"
       inkscape:connector-curvature="0"
       sodipodi:nodetypes="ccccccc" />
    <path
       style="display:inline;fill:none;stroke:#c0c0c0;stroke-width:0.37795275;stroke-linecap:round;stroke-linejoin:round;stroke-miterlimit:4;stroke-dasharray:none;stroke-opacity:1"
       d="m -186.6771,-118.77503 c -4.081,11.47529 1.04045,24.623744 1.56066,36.935616 2.4783,-2.999734 4.24168,-6.41999 5.3033,-10.253046 3.35506,3.936448 6.9384,7.546806 12.02081,9.015606 -0.5821,-2.538272 -1.08048,-5.128875 -0.35355,-8.48528"
       id="path937"
       inkscape:connector-curvature="0"
       sodipodi:nodetypes="ccccc" />
    <path
       style="display:inline;fill:none;stroke:#c0c0c0;stroke-width:0.37795275;stroke-linecap:round;stroke-linejoin:round;stroke-miterlimit:4;stroke-dasharray:none;stroke-opacity:1"
       d="m -264.94374,-119.28337 1.23437,2.73439 c 2.24173,1.49535 11.98041,-0.32508 15.48549,-1.95841"
       id="path939"
       inkscape:connector-curvature="0"
       sodipodi:nodetypes="ccc" />
    <path
       style="display:inline;fill:none;stroke:#c0c0c0;stroke-width:0.37795275;stroke-linecap:round;stroke-linejoin:round;stroke-miterlimit:4;stroke-dasharray:none;stroke-opacity:1"
       d="m -135.70937,-54.861484 c -3.73561,17.260779 -0.80078,36.04176 8.78164,52.4709659 1.03754,-1.1968426 1.36782,-2.879936 1.46836,-4.7209706 0.50209,1.63088 1.2072,3.0043413 2.0625,3.281248 1.58548,-2.1096107 2.8089,-4.6757227 7,-3.5 C -120.07051,-51.239446 -107.75534,-136.78939 -136.1,-150.15837"
       id="path941"
       inkscape:connector-curvature="0"
       sodipodi:nodetypes="cccccc" />
    <path
       style="display:inline;fill:none;stroke:#c0c0c0;stroke-width:0.37795275;stroke-linecap:round;stroke-linejoin:round;stroke-miterlimit:4;stroke-dasharray:none;stroke-opacity:1"
       d="m -144.54842,-70.013025 c -0.11067,9.566261 3.34457,15.843861 7.68751,21.781248"
       id="path943"
       inkscape:connector-curvature="0"
       sodipodi:nodetypes="cc" />
    <path
       style="display:inline;fill:none;stroke:#c0c0c0;stroke-width:0.37795275;stroke-linecap:round;stroke-linejoin:round;stroke-miterlimit:4;stroke-dasharray:none;stroke-opacity:1"
       d="m -164.54827,3.9275175 c 1.29324,13.6724695 3.9777,19.7246515 5.88064,26.5246935 1.5717,-2.879818 3.22213,-5.4448 5.125,-6.999989 1.08333,7.728512 2.16666,8.995616 3.25,9.5 1.02179,-8.574347 4.47195,-12.24624 2.75,-35.5000005 -1.72196,-23.2537595 -0.7468,-40.9375995 4.75,-52.4999995 5.4968,-11.5624 1.89787,-61.146182 -9.85937,-68.953132"
       id="path945"
       inkscape:connector-curvature="0"
       sodipodi:nodetypes="cccczzc" />
    <path
       style="display:inline;fill:none;stroke:#c0c0c0;stroke-width:0.37795275;stroke-linecap:round;stroke-linejoin:round;stroke-miterlimit:4;stroke-dasharray:none;stroke-opacity:1"
       d="m -99.434435,6.7364366 c -0.209536,5.4277434 -0.356256,10.7298664 -0.883885,16.7937814 2.624557,-2.381558 3.684887,-5.586998 4.772973,-9.192395 -0.167222,3.630187 0.503168,5.752693 1.146602,7.923701 1.945952,-2.439157 2.909366,-6.952576 3.358752,-12.5511461 0.711787,3.0192421 1.291264,5.6415571 2.47487,10.0762771 6.641621,-6.813707 7.587456,-20.11997846 7.954954,-30.759147 0.06101,-22.838144 20.667424,-67.54752 -0.216757,-107.219358"
       id="path947"
       inkscape:connector-curvature="0"
       sodipodi:nodetypes="cccccccc" />
    <path
       style="display:inline;fill:none;stroke:#c0c0c0;stroke-width:0.37795275;stroke-linecap:round;stroke-linejoin:round;stroke-miterlimit:4;stroke-dasharray:none;stroke-opacity:1"
       d="M -81.361465,0.12025521 C -83.431321,34.03298 -104.86481,51.428394 -110.48543,76.531967 c 2.97512,-4.450763 7.30589,-6.927488 12.020819,-6.363957 -1.972279,2.827434 -0.313291,3.579861 0.883882,4.596192 1.783627,-2.92559 8.860971,-4.930528 14.142144,-7.24784 1.553088,1.01121 2.456459,2.184853 3.358742,3.358762 21.597066,-39.037184 43.562954,-92.852394 32.554965,-154.205962"
       id="path949"
       inkscape:connector-curvature="0"
       sodipodi:nodetypes="ccccccc" />
    <path
       style="display:inline;fill:none;stroke:#c0c0c0;stroke-width:0.37795275;stroke-linecap:round;stroke-linejoin:round;stroke-miterlimit:4;stroke-dasharray:none;stroke-opacity:1"
       d="m -23.256291,-44.007958 c 13.071669,31.893984 -15.039264,98.31488 -38.969099,120.539925"
       id="path951"
       inkscape:connector-curvature="0"
       sodipodi:nodetypes="cc" />
    <path
       style="display:inline;fill:none;stroke:#c0c0c0;stroke-width:0.37795275;stroke-linecap:round;stroke-linejoin:round;stroke-miterlimit:4;stroke-dasharray:none;stroke-opacity:1"
       d="m -83.529987,67.568319 c -6.031563,9.065259 -4.378838,14.423232 -3.010656,19.187456 0.551648,-3.79136 1.065824,-6.66128 3.522677,-7.935616 -0.233899,3.982389 -0.609045,5.224 2.178677,8.582997"
       id="path953"
       inkscape:connector-curvature="0"
       sodipodi:nodetypes="cccc" />
    <path
       style="fill:none;stroke:#c0c0c0;stroke-width:0.37795275;stroke-linecap:round;stroke-linejoin:round;stroke-miterlimit:4;stroke-dasharray:none;stroke-opacity:1"
       d="m 733.26973,800.60931 c -11.34356,-31.15481 -22.95154,-62.427 55.86144,-53.56334"
       id="path1131"
       inkscape:connector-curvature="0"
       sodipodi:nodetypes="cc" />
    <path
       style="fill:none;stroke:#c0c0c0;stroke-width:0.37795275;stroke-linecap:round;stroke-linejoin:round;stroke-miterlimit:4;stroke-dasharray:none;stroke-opacity:1"
       d="m 618.375,811.45717 9.9375,-10.6875 m 0,0 c -2.4732,-2.32517 -8.30188,-3.35252 -9.1875,-1.4375"
       id="path1133"
       inkscape:connector-curvature="0"
       sodipodi:nodetypes="cccc" />
    <path
       style="fill:none;stroke:#c0c0c0;stroke-width:0.37795275;stroke-linecap:round;stroke-linejoin:round;stroke-miterlimit:4;stroke-dasharray:none;stroke-opacity:1"
       d="m 623.46875,812.20717 10.84375,-9.25 m 0,0 c -0.89055,-1.79138 -4.35909,-4.21345 -6.04688,-2.1875"
       id="path1135"
       inkscape:connector-curvature="0"
       sodipodi:nodetypes="cccc" />
    <path
       style="fill:none;stroke:#c0c0c0;stroke-width:0.37795275;stroke-linecap:round;stroke-linejoin:round;stroke-miterlimit:4;stroke-dasharray:none;stroke-opacity:1"
       d="m 627.59375,813.01967 13.43749,-8.53125 m -0.5,0.125 c -0.53341,-1.60973 -3.53648,-3.73626 -6.21181,-1.62434"
       id="path1137"
       inkscape:connector-curvature="0"
       sodipodi:nodetypes="cccc" />
    <path
       style="fill:none;stroke:#c0c0c0;stroke-width:0.37795275;stroke-linecap:round;stroke-linejoin:round;stroke-miterlimit:4;stroke-dasharray:none;stroke-opacity:1"
       d="m 647.34374,813.67591 c 2.24229,-1.68091 -2.07636,-11.52309 -6.28123,-9.18749"
       id="path1139"
       inkscape:connector-curvature="0"
       sodipodi:nodetypes="cc" />
    <path
       style="fill:none;stroke:#c0c0c0;stroke-width:0.37795275;stroke-linecap:round;stroke-linejoin:round;stroke-miterlimit:4;stroke-dasharray:none;stroke-opacity:1"
       d="m 657.625,812.95717 c -10.76094,-8.3314 -18.08504,-18.5176 -18.37501,-32.5"
       id="path1141"
       inkscape:connector-curvature="0"
       sodipodi:nodetypes="cc" />
    <path
       style="fill:none;stroke:#c0c0c0;stroke-width:0.37795275;stroke-linecap:round;stroke-linejoin:round;stroke-miterlimit:4;stroke-dasharray:none;stroke-opacity:1"
       d="m 642.67167,751.73055 9.81111,2.47487 c -1.85729,-5.2435 -4.00296,-10.26269 -7.95495,-13.87697 3.86065,2.76385 8.13782,3.23689 12.46276,3.44716 -2.35775,-5.81546 -5.55238,-10.21406 -8.37479,-14.18634 3.92162,2.34421 8.13598,3.17955 11.82193,1.98874 -1.66255,-4.19494 -4.70602,-7.46926 -8.48528,-10.25305 3.79992,1.98512 7.86828,3.52285 12.37437,4.33103 -1.35229,-4.64891 -2.84039,-9.28273 -6.27557,-13.7002 -5.0919,-3.07385 -10.75263,7.18355 -6.18719,9.36917 -4.7309,-1.8253 -6.03951,4.45093 -3.27037,8.22011 -4.19661,-2.12172 -7.90791,7.03526 -3.88908,10.60661 -4.33021,-2.70046 -9.6468,8.16238 -6.18719,9.98788"
       id="path1143"
       inkscape:connector-curvature="0"
       sodipodi:nodetypes="ccccccccccccc" />
    <path
       style="fill:none;stroke:#c0c0c0;stroke-width:0.37795275;stroke-linecap:round;stroke-linejoin:round;stroke-miterlimit:4;stroke-dasharray:none;stroke-opacity:1"
       d="m 675.99408,698.43238 c -3.88622,4.22488 -11.98875,9.328 -15.73312,16.61701"
       id="path1145"
       inkscape:connector-curvature="0"
       sodipodi:nodetypes="cc" />
    <path
       style="fill:none;stroke:#c0c0c0;stroke-width:0.37795275;stroke-linecap:round;stroke-linejoin:round;stroke-miterlimit:4;stroke-dasharray:none;stroke-opacity:1"
       d="m 683.86064,689.28418 c 16.01834,2.92899 28.58177,9.995 36.15084,20.90384"
       id="path1147"
       inkscape:connector-curvature="0"
       sodipodi:nodetypes="cc" />
    <path
       style="fill:none;stroke:#c0c0c0;stroke-width:0.37795275;stroke-linecap:round;stroke-linejoin:round;stroke-miterlimit:4;stroke-dasharray:none;stroke-opacity:1"
       d="m 737.15883,682.08053 c -1.89726,8.48677 -4.52472,19.42901 -8.83885,23.24614 -4.31413,3.81713 -7.30267,6.02723 -24.39518,9.01561 -3.27686,0.20529 -5.53972,2.639 -10.78338,6.09879 5.64331,5.06598 7.54967,2.88523 10.96016,4.15426 -6.76155,-0.009 -6.98314,1.91487 -10.69501,5.21491 5.08474,2.20196 5.81652,3.20907 12.12623,2.43826 -5.18171,1.6196 -6.83894,2.67805 -10.00491,6.1354 4.57918,1.8583 7.57556,2.88357 11.31373,0.88389 -3.54207,3.20519 -4.20427,3.71568 -5.92203,8.57366 5.41943,0.58892 8.5604,0.17413 13.25826,-1.76776 11.76837,-1.0486 32.04812,-8.63351 42.07285,-16.26345 10.02472,-7.62994 14.84925,-40.12831 14.84925,-40.12831"
       id="path1149"
       inkscape:connector-curvature="0"
       sodipodi:nodetypes="czccccccccczc" />
    <path
       style="fill:none;stroke:#c0c0c0;stroke-width:0.37795275;stroke-linecap:round;stroke-linejoin:round;stroke-miterlimit:4;stroke-dasharray:none;stroke-opacity:1"
       d="m 726.77923,743.56741 c -0.0195,21.61394 -3.83098,42.86927 -15.22401,60.18727"
       id="path1151"
       inkscape:connector-curvature="0"
       sodipodi:nodetypes="cc" />
    <path
       style="fill:none;stroke:#c0c0c0;stroke-width:0.37795275;stroke-linecap:round;stroke-linejoin:round;stroke-miterlimit:4;stroke-dasharray:none;stroke-opacity:1"
       d="m 704,714.14467 c 5.20476,0.55506 3.74053,11.25331 0.0625,10.5 3.94081,0.58215 4.15443,6.84466 1.15976,7.61167 4.08175,-0.76423 3.90084,4.75352 1.70191,7.01073 4.25157,-2.23601 9.33563,4.35459 6.71523,7.02774"
       id="path1153"
       inkscape:connector-curvature="0"
       sodipodi:nodetypes="ccccc" />
    <path
       style="fill:none;stroke:#c0c0c0;stroke-width:0.37795275;stroke-linecap:round;stroke-linejoin:round;stroke-miterlimit:4;stroke-dasharray:none;stroke-opacity:1"
       d="m 728.16189,558.43779 c 7.05728,-4.95678 13.4409,-6.34391 21.24815,-8.30942"
       id="path1155"
       inkscape:connector-curvature="0"
       sodipodi:nodetypes="cc" />
    <path
       style="fill:none;stroke:#c0c0c0;stroke-width:0.37795275;stroke-linecap:round;stroke-linejoin:round;stroke-miterlimit:4;stroke-dasharray:none;stroke-opacity:1"
       d="m 762.34949,547.81862 c 10.76,0.43444 17.65656,1.84481 24.26261,11.44631"
       id="path1157"
       inkscape:connector-curvature="0"
       sodipodi:nodetypes="cc" />
    <path
       style="fill:none;stroke:#c0c0c0;stroke-width:0.37795275;stroke-linecap:round;stroke-linejoin:round;stroke-miterlimit:4;stroke-dasharray:none;stroke-opacity:1"
       d="m 791.25248,568.67829 c 3.80222,8.87661 8.22985,17.43147 9.81111,25.63262"
       id="path1159"
       inkscape:connector-curvature="0"
       sodipodi:nodetypes="cc" />
    <path
       style="fill:none;stroke:#c0c0c0;stroke-width:0.37795275;stroke-linecap:round;stroke-linejoin:round;stroke-miterlimit:4;stroke-dasharray:none;stroke-opacity:1"
       d="m 801.85908,623.83262 c 0.0294,15.14387 -1.32095,32.65641 -0.44193,44.37094"
       id="path1161"
       inkscape:connector-curvature="0"
       sodipodi:nodetypes="cc" />
    <path
       style="fill:none;stroke:#c0c0c0;stroke-width:0.37795275;stroke-linecap:round;stroke-linejoin:round;stroke-miterlimit:4;stroke-dasharray:none;stroke-opacity:1"
       d="m 804.40026,692.1789 c 2.44947,12.31342 7.94981,23.81592 15.97618,29.76478"
       id="path1163"
       inkscape:connector-curvature="0"
       sodipodi:nodetypes="cc" />
    <path
       style="fill:none;stroke:#c0c0c0;stroke-width:0.37795275;stroke-linecap:round;stroke-linejoin:round;stroke-miterlimit:4;stroke-dasharray:none;stroke-opacity:1"
       d="m 847.06973,722.87175 c 7.66973,-6.26397 20.8174,-23.40029 25.94198,-31.33366"
       id="path1165"
       inkscape:connector-curvature="0"
       sodipodi:nodetypes="cc" />
    <path
       style="fill:none;stroke:#c0c0c0;stroke-width:0.37795275;stroke-linecap:round;stroke-linejoin:round;stroke-miterlimit:4;stroke-dasharray:none;stroke-opacity:1"
       d="m 879.81761,682.2573 c 6.04682,-8.50174 13.38498,-14.55591 23.73228,-21.03643"
       id="path1167"
       inkscape:connector-curvature="0"
       sodipodi:nodetypes="cc" />
    <path
       style="fill:none;stroke:#c0c0c0;stroke-width:0.37795275;stroke-linecap:round;stroke-linejoin:round;stroke-miterlimit:4;stroke-dasharray:none;stroke-opacity:1"
       d="M 781.08892,825.13967 C 796.24573,820.9405 779.60711,795.147 770.72494,783.00485"
       id="path1169"
       inkscape:connector-curvature="0"
       sodipodi:nodetypes="cc" />
    <path
       style="fill:none;stroke:#c0c0c0;stroke-width:0.37795275;stroke-linecap:round;stroke-linejoin:round;stroke-miterlimit:4;stroke-dasharray:none;stroke-opacity:1"
       d="m 796.82096,787.08589 -21.51153,2.58536"
       id="path1171"
       inkscape:connector-curvature="0"
       sodipodi:nodetypes="cc" />
    <path
       style="fill:none;stroke:#c0c0c0;stroke-width:0.37795275;stroke-linecap:round;stroke-linejoin:round;stroke-miterlimit:4;stroke-dasharray:none;stroke-opacity:1"
       d="m 709.66652,615.72631 c 14.97653,-3.63341 27.17011,-5.37314 43.81272,-5.2555 6.41165,-0.30964 8.52551,5.89353 8.95864,19.01866 0.43313,13.12513 -0.47787,17.99038 -4.06586,21.92031 -3.58799,3.92993 -8.57787,5.56011 -18.26498,7.7604 -9.68711,2.20029 -39.71778,1.78554 -39.71778,1.78554"
       id="path1173"
       inkscape:connector-curvature="0"
       sodipodi:nodetypes="cczzzc" />
    <path
       style="fill:none;stroke:#c0c0c0;stroke-width:0.37795275;stroke-linecap:round;stroke-linejoin:round;stroke-miterlimit:4;stroke-dasharray:none;stroke-opacity:1"
       d="m 676.91995,643.40305 c 16.53391,8.57138 35.22576,2.75757 54.05168,-2.4231"
       id="path1175"
       inkscape:connector-curvature="0"
       sodipodi:nodetypes="cc" />
    <path
       style="fill:none;stroke:#c0c0c0;stroke-width:0.37795275;stroke-linecap:round;stroke-linejoin:round;stroke-miterlimit:4;stroke-dasharray:none;stroke-opacity:1"
       d="m 727.68609,612.1001 c 0,0 -0.79579,-31.40872 6.89951,-38.79253 7.69529,-7.3838 22.33239,-8.27221 23.9632,2.46232 1.63081,10.73452 -0.0522,24.12992 -2.49632,34.91968"
       id="path1177"
       inkscape:connector-curvature="0"
       sodipodi:nodetypes="czzc" />
    <path
       style="fill:none;stroke:#c0c0c0;stroke-width:0.37795275;stroke-linecap:round;stroke-linejoin:round;stroke-miterlimit:4;stroke-dasharray:none;stroke-opacity:1"
       d="m 709.40489,615.70089 c -1.5867,-16.56652 7.11639,-54.76926 22.25176,-37.70869"
       id="path1179"
       inkscape:connector-curvature="0"
       sodipodi:nodetypes="cc" />
    <path
       style="fill:none;stroke:#c0c0c0;stroke-width:0.37795275;stroke-linecap:round;stroke-linejoin:round;stroke-miterlimit:4;stroke-dasharray:none;stroke-opacity:1"
       d="m 709.52713,603.61941 c 1.20188,-4.05852 11.96075,-6.24674 12.53153,9.41818"
       id="path1181"
       inkscape:connector-curvature="0"
       sodipodi:nodetypes="cc" />
    <path
       style="fill:none;stroke:#c0c0c0;stroke-width:0.37795275;stroke-linecap:round;stroke-linejoin:round;stroke-miterlimit:4;stroke-dasharray:none;stroke-opacity:1"
       d="m 727.93198,600.71739 c 1.96101,-3.91063 12.27055,-5.38988 11.69392,9.99937"
       id="path1183"
       inkscape:connector-curvature="0"
       sodipodi:nodetypes="cc" />
    <path
       style="display:inline;fill:none;stroke:#c0c0c0;stroke-width:0.37795275;stroke-linecap:round;stroke-linejoin:round;stroke-miterlimit:4;stroke-dasharray:none;stroke-opacity:1"
       d="m 707.1875,833.51967 c 5.73525,-0.99997 -1.16351,-13.9157 -4.71875,-11.25 l -17.78125,9.00001"
       id="path1121"
       inkscape:connector-curvature="0"
       sodipodi:nodetypes="ccc" />
    <path
       style="display:inline;fill:none;stroke:#c0c0c0;stroke-width:0.37795275;stroke-linecap:round;stroke-linejoin:round;stroke-miterlimit:4;stroke-dasharray:none;stroke-opacity:1"
       d="m 701.65625,822.70718 c -0.7203,-1.37877 -2.78685,-3.73734 -4.32138,-2.5821 l -15.58486,9.30084"
       id="path1123"
       inkscape:connector-curvature="0"
       sodipodi:nodetypes="ccc" />
    <path
       style="display:inline;fill:none;stroke:#c0c0c0;stroke-width:0.37795275;stroke-linecap:round;stroke-linejoin:round;stroke-miterlimit:4;stroke-dasharray:none;stroke-opacity:1"
       d="m 696.59376,820.39468 c -0.98109,-1.65011 -3.23248,-4.08533 -5.60173,-2.41422 l -11.24202,8.69547"
       id="path1125"
       inkscape:connector-curvature="0"
       sodipodi:nodetypes="ccc" />
    <path
       style="display:inline;fill:none;stroke:#c0c0c0;stroke-width:0.37795275;stroke-linecap:round;stroke-linejoin:round;stroke-miterlimit:4;stroke-dasharray:none;stroke-opacity:1"
       d="m 691.1875,817.73842 c -1.74338,-2.8118 -3.14535,-4.52485 -6.81249,-1.625"
       id="path1127"
       inkscape:connector-curvature="0"
       sodipodi:nodetypes="cc" />
    <path
       style="display:inline;fill:none;stroke:#c0c0c0;stroke-width:0.37795275;stroke-linecap:round;stroke-linejoin:round;stroke-miterlimit:4;stroke-dasharray:none;stroke-opacity:1"
       d="m 679.5,821.39467 c 13.22827,-17.72954 44.36499,-20.27592 54,-20.75 9.63501,-0.47408 11.5,3.12501 11.5,3.12501"
       id="path1129"
       inkscape:connector-curvature="0"
       sodipodi:nodetypes="czc" />
  </g>
</svg>
