<?xml version="1.0" encoding="UTF-8" standalone="no"?>
<!-- Created with Inkscape (http://www.inkscape.org/) -->

<svg
   xmlns:dc="http://purl.org/dc/elements/1.1/"
   xmlns:cc="http://creativecommons.org/ns#"
   xmlns:rdf="http://www.w3.org/1999/02/22-rdf-syntax-ns#"
   xmlns:svg="http://www.w3.org/2000/svg"
   xmlns="http://www.w3.org/2000/svg"
   xmlns:sodipodi="http://sodipodi.sourceforge.net/DTD/sodipodi-0.dtd"
   xmlns:inkscape="http://www.inkscape.org/namespaces/inkscape"
   width="297mm"
   height="210mm"
   id="svg2"
   version="1.1"
   inkscape:version="0.92.3 (2405546, 2018-03-11)"
   sodipodi:docname="PhotoWomanAndChild-undecorated.svg"
   inkscape:export-filename="/home/christian/SportsCar.svg.png"
   inkscape:export-xdpi="138.06"
   inkscape:export-ydpi="138.06">
  <defs
     id="defs4" />
  <sodipodi:namedview
     id="base"
     pagecolor="#ffffff"
     bordercolor="#666666"
     borderopacity="1.0"
     inkscape:pageopacity="0.0"
     inkscape:pageshadow="2"
     inkscape:zoom="4"
     inkscape:cx="658.6411"
     inkscape:cy="451.70895"
     inkscape:document-units="mm"
     inkscape:current-layer="layer1"
     showgrid="false"
     units="mm"
     inkscape:window-width="1920"
     inkscape:window-height="1080"
     inkscape:window-x="1920"
     inkscape:window-y="0"
     inkscape:window-maximized="0"
     inkscape:snap-global="false"
     showguides="false" />
  <metadata
     id="metadata7">
    <rdf:RDF>
      <cc:Work
         rdf:about="">
        <dc:format>image/svg+xml</dc:format>
        <dc:type
           rdf:resource="http://purl.org/dc/dcmitype/StillImage" />
        <dc:title />
      </cc:Work>
    </rdf:RDF>
  </metadata>
  <g
     inkscape:label="Mask"
     inkscape:groupmode="layer"
     id="Mask"
     style="display:inline;opacity:1"
     transform="translate(0,-328.81888)"
     sodipodi:insensitive="true">
    <rect
       style="display:inline;opacity:1;fill:none;fill-opacity:1;stroke:#808080;stroke-width:0.75590551;stroke-linecap:round;stroke-linejoin:round;stroke-miterlimit:4;stroke-dasharray:none;stroke-dashoffset:0;stroke-opacity:1"
       id="rect814"
       width="566.14978"
       x="442.59436"
       y="-873.50861"
       heightx="549.12811"
       height="377.17337"
       transform="rotate(90)" />
  </g>
  <g
     inkscape:groupmode="layer"
     id="layer1"
     inkscape:label="Overlay"
     style="display:inline"
     transform="translate(0,-328.81888)">
    <path
       style="display:inline;opacity:1;fill:none;stroke:#c0c0c0;stroke-width:0.37795275;stroke-linecap:round;stroke-linejoin:round;stroke-miterlimit:4;stroke-dasharray:none;stroke-opacity:1"
       d="m 683.68359,158.36523 c -13.03557,0.67379 -21.37465,8.19788 -22.90429,27.00391 -5.58242,1.77835 -3.39214,5.65918 -3.04688,11.64648 0.64467,4.71699 0.51119,11.76745 5.15039,9.03907 2.03556,9.25272 5.89695,14.74698 10.31446,18.38672 -0.52359,7.4633 -0.0213,11.23967 -7.49805,12.3164 -19.46684,2.80345 -21.24029,7.16581 -28.70508,19.03711 -11.07588,17.61402 -16.99196,53.15701 -16.60547,86.38672 1.2031,18.5721 1.06958,37.84661 4.97071,55.05078 -0.32836,3.54956 -1.02318,7.08527 -0.47071,10.67188 1.29229,8.12443 4.94495,13.16811 7.31836,16.00781 1.40895,1.41333 2.5293,2.26367 2.5293,2.26367 0.1578,4.51769 0.35579,9.13065 0.51562,13.50781 0.58758,16.09215 9.2671,50.4143 8.72266,71.60157 -0.77028,29.97609 2.46094,84.09765 2.46094,84.09765 l 0.14062,1.15625 c -4.32816,7.33447 -6.42363,10.92101 -8.92578,15.66992 -2.89459,5.49373 -2.24427,9.37444 2.06445,12.2793 6.10827,4.11805 9.9959,2.96311 14.79102,-2.79883 5.04631,-6.06377 12.8457,-24.39843 12.8457,-24.39843 l 0.21289,-1.36719 6.63086,-78.57227 4.13867,-53.66601 c 1.7574,3.34486 3.52555,6.57967 5.06641,9.5957 0.61221,16.02461 0.8134,32.33558 1.18945,41.28711 1.76811,42.08716 3.73913,37.3643 4.69532,81.46484 l -0.041,4.01953 h 7.97852 c -0.11429,2.32974 -0.32306,4.4367 -0.68164,6.1875 -5.11464,8.38685 -8.70542,14.15493 -7.64454,18.90625 1.02681,4.59873 7.77716,4.55373 12.25977,3.10157 7.53557,-2.44119 10.37088,-15.11352 11.94922,-21.77149 0.0882,-2.35695 -0.10126,-4.45008 -0.32617,-6.42383 h 18.58984 c -0.0506,1.39203 -0.1358,2.65574 -0.26562,3.5918 0.32753,4.08899 0.39604,5.6326 2.58984,9.93164 2.27075,4.44983 5.67286,8.93787 9.42773,10.45899 6.70736,2.71718 15.10159,2.40061 13.64453,-4.30664 -1.5256,-7.02282 -6.6378,-14.26613 -9.70312,-17.98438 0.67742,-8.39713 1.46501,-30.23503 1.65625,-45.07812 0.0523,-4.06268 0.53437,-3.03704 0.47461,-7.09961 -0.23202,-15.77479 0.0984,-34.50739 -0.47461,-45.97071 1.74751,0.35889 3.27115,0.013 3.86719,-0.42773 2.01079,-1.48663 1.49826,-20.61586 0.86523,-25.30274 3.52471,-9.48779 14.67718,-25.64515 17.39453,-39.39843 1.38368,-7.00323 1.56629,-13.21995 -0.35547,-20.11524 -2.8158,-10.10312 -5.79621,-21.23649 -12.30468,-29.46094 -2.80606,-3.54588 -6.83325,-7.09853 -10.74024,-8.37695 0.0177,-0.0756 0.0408,-0.14772 0.0566,-0.22461 0.50097,-2.43145 -0.51343,-4.64767 -2.04492,-6.52929 -0.0853,-4.97213 -0.23024,-12.35619 -0.70312,-22.79297 0.35705,-1.3381 0.61988,-2.70093 0.76367,-4.07813 2.03171,0.28539 4.27797,-2.3986 4.67383,-5.91601 0.42528,-3.77892 0.76556,-7.95834 0.20312,-11.77735 -0.2804,-1.90392 -1.14173,-4.41371 -4.22656,-3.60547 -0.3264,-2.15351 -1.76648,-6.15522 -4.0625,-9.88867 -1.20009,-10.81085 -2.83097,-21.66057 -5.07422,-31.35547 -4.0051,-17.30929 -10.3844,-30.58573 -12.86523,-34.19922 -6.96327,-10.14246 -17.71325,-13.49343 -26.14454,-13.89453 -7.57469,-0.36035 -6.94039,-0.26527 -7.05078,-5.51757 l -0.22656,-7.94922 c 4.17828,-2.05834 9.76557,-5.73219 11.62109,-18.89063 3.29826,0.89394 3.3782,-4.65037 4.01172,-9.70117 0.48745,-14.25105 0.75533,-12.95075 -2.27734,-14.31055 -2.86446,-15.3909 -7.82777,-20.92325 -20.41602,-21.51758 z m -41.53328,131.03952 c -0.92712,2.62303 -1.18353,8.97518 -0.28508,14.64798 1.42677,9.00854 4.78917,26.41375 3.8125,40.51758 -0.88846,12.82995 -6.74693,23.24651 -8.95117,29.91016 -0.64605,-11.38385 -1.03775,-24.5537 -1.52539,-35.94727 0.88153,-25.45828 5.32821,-43.08308 6.94914,-49.12845 z m 74.12451,-12.97688 c 2.65205,5.243 6.47075,23.9899 7.13575,29.22314 -0.82328,-0.0931 -4.76022,0.0676 -5.54534,0.12633 0.0708,-0.57357 0.15599,-1.15501 0.21875,-1.72461 0.56088,-5.09056 1.03379,-9.11054 0.6656,-13.34265 -0.21029,-2.41713 -1.85315,-12.19782 -2.47476,-14.28221 z m 2.98299,220.24986 c 1.15867,5.73742 1.05833,3.11413 2.01172,8.875 0.9534,5.76087 2.00645,17.17705 2.7207,25.79297 0.86502,10.43465 1.3774,20.93278 2.39649,31.35352 0.75847,7.75579 4.4055,20.38112 4.84766,26.55273 0.0723,0.78376 0.13009,2.61377 0.16406,4.6543 l -18.3086,-7.01563 c 2.19535,-13.0859 3.12351,-25.64397 2.14649,-40.16406 1.11433,-15.59955 3.53212,-31.69121 4.02148,-50.04883 z"
       transform="translate(0,328.81888)"
       id="path881"
       inkscape:connector-curvature="0"
       sodipodi:nodetypes="cccccssccccccsccscsccccccccccscccccsccccccccssscccccccccsssccccccccsccccccccsccsccccccc" />
    <path
       style="display:inline;opacity:1;fill:none;stroke:#c0c0c0;stroke-width:0.37795276;stroke-linecap:butt;stroke-linejoin:miter;stroke-miterlimit:4;stroke-dasharray:none;stroke-opacity:1"
       d="m 646.55577,925.35136 c 2.15095,-5.53317 7.59087,-6.73159 10.66233,-6.62032 4.18857,0.15172 10.05904,0.49542 10.15484,7.37259"
       id="path883"
       inkscape:connector-curvature="0"
       sodipodi:nodetypes="csc" />
    <path
       style="display:inline;opacity:1;fill:none;fill-opacity:1;stroke:#c0c0c0;stroke-width:0.37795276;stroke-linecap:round;stroke-linejoin:round;stroke-miterlimit:4;stroke-dasharray:none;stroke-dashoffset:0;stroke-opacity:1"
       d="m 704.05368,508.73538 c -0.28822,8.39958 -0.21702,16.51408 -1.70796,24.02054"
       id="path901"
       inkscape:connector-curvature="0"
       sodipodi:nodetypes="cc" />
    <path
       style="opacity:1;fill:none;fill-opacity:1;stroke:#c0c0c0;stroke-width:0.37795276;stroke-linecap:round;stroke-linejoin:round;stroke-miterlimit:4;stroke-dasharray:none;stroke-dashoffset:0;stroke-opacity:1"
       d="m 660.76608,514.29455 c 0.48664,6.86439 1.18836,13.71757 2.07804,20.61911"
       id="path905"
       inkscape:connector-curvature="0"
       sodipodi:nodetypes="cc" />
    <path
       style="opacity:1;fill:none;fill-opacity:1;stroke:#c0c0c0;stroke-width:0.37795276;stroke-linecap:round;stroke-linejoin:round;stroke-miterlimit:4;stroke-dasharray:none;stroke-dashoffset:0;stroke-opacity:1"
       d="m 681.14402,511.64872 c -1.66625,6.48631 -8.26586,20.69755 1.51424,19.8635"
       id="path907"
       inkscape:connector-curvature="0"
       sodipodi:nodetypes="cc" />
    <path
       style="opacity:1;fill:none;fill-opacity:1;stroke:#c0c0c0;stroke-width:0.37795276;stroke-linecap:round;stroke-linejoin:round;stroke-miterlimit:4;stroke-dasharray:none;stroke-dashoffset:0;stroke-opacity:1"
       d="m 669.20467,513.06855 c -0.97026,1.98091 0.39096,4.25056 2.01959,4.21342 1.62865,-0.0371 3.03941,-3.25357 1.86545,-4.73944 -1.17398,-1.48587 -2.91478,-1.45488 -3.88504,0.52602 z"
       id="path909"
       inkscape:connector-curvature="0"
       sodipodi:nodetypes="zzzz" />
    <path
       style="opacity:1;fill:none;fill-opacity:1;stroke:#c0c0c0;stroke-width:0.37795276;stroke-linecap:round;stroke-linejoin:round;stroke-miterlimit:4;stroke-dasharray:none;stroke-dashoffset:0;stroke-opacity:1"
       d="m 693.16884,511.21533 c -1.69306,-0.18668 -2.90241,2.4019 -2.13774,3.90047 0.76467,1.49858 2.42946,1.77893 3.50353,0.32505 1.07407,-1.45389 0.32729,-4.03883 -1.36579,-4.22552 z"
       id="path911"
       inkscape:connector-curvature="0"
       sodipodi:nodetypes="zzzz" />
    <path
       style="opacity:1;fill:none;fill-opacity:1;stroke:#c0c0c0;stroke-width:0.37795276;stroke-linecap:round;stroke-linejoin:round;stroke-miterlimit:4;stroke-dasharray:none;stroke-dashoffset:0;stroke-opacity:1"
       d="m 671.11906,538.54148 c 7.00103,6.64816 14.35826,7.25506 21.65704,-0.93363 0.20233,-0.59163 -0.77886,-1.56901 -1.57242,-0.82082 -5.29757,4.99468 -13.74183,3.51071 -18.99826,0.64908 -1.35178,-0.7359 -1.5212,0.69245 -1.08636,1.10537 z"
       id="path913"
       inkscape:connector-curvature="0"
       sodipodi:nodetypes="scsss" />
    <path
       style="display:inline;opacity:1;fill:none;fill-opacity:1;stroke:#c0c0c0;stroke-width:0.37795276;stroke-linecap:round;stroke-linejoin:round;stroke-miterlimit:4;stroke-dasharray:none;stroke-dashoffset:0;stroke-opacity:1"
       d="m 634.89523,736.52241 c -1.05126,2.38417 -1.28522,5.44101 0.2375,9.9436 0.93298,3.25082 6.47588,5.38637 5.24144,8.07138 l -0.8163,1.1784 c -1.4866,-0.84799 -4.04076,-2.30182 -5.33119,-3.38281 -2.42279,-2.40844 -4.03789,-6.32574 -4.96331,-9.9679"
       id="path899-5"
       inkscape:connector-curvature="0"
       sodipodi:nodetypes="cccccc" />
    <path
       style="opacity:1;fill:none;fill-opacity:1;stroke:#c0c0c0;stroke-width:0.37795275;stroke-linecap:round;stroke-linejoin:round;stroke-miterlimit:4;stroke-dasharray:none;stroke-dashoffset:0;stroke-opacity:1"
       d="m 636.98287,706.78452 c 2.71071,0.28871 74.12945,0 74.12945,0"
       id="path1009"
       inkscape:connector-curvature="0"
       sodipodi:nodetypes="cc" />
    <path
       style="opacity:1;fill:none;fill-opacity:1;stroke:#c0c0c0;stroke-width:0.37795276;stroke-linecap:round;stroke-linejoin:round;stroke-miterlimit:4;stroke-dasharray:none;stroke-dashoffset:0;stroke-opacity:1"
       d="m 673.14783,553.1945 c 5.01,2.95731 11.74707,1.17341 17.64485,-1.58239"
       id="path1015"
       inkscape:connector-curvature="0"
       sodipodi:nodetypes="cc" />
    <path
       style="opacity:1;fill:none;fill-opacity:1;stroke:#c0c0c0;stroke-width:0.37795276;stroke-linecap:round;stroke-linejoin:round;stroke-miterlimit:4;stroke-dasharray:none;stroke-dashoffset:0;stroke-opacity:1"
       d="m 638.2135,723.78468 c -0.56696,-6.7937 -1.00316,-13.60485 -1.48706,-20.40684"
       id="path1069"
       inkscape:connector-curvature="0"
       sodipodi:nodetypes="cc" />
    <path
       style="opacity:1;fill:none;fill-opacity:1;stroke:#c0c0c0;stroke-width:0.37795276;stroke-linecap:round;stroke-linejoin:round;stroke-miterlimit:4;stroke-dasharray:none;stroke-dashoffset:0;stroke-opacity:1"
       d="m 638.23456,723.74958 c 0.0703,0.29176 1.70784,8.03758 1.77359,8.33067 0.88507,3.94519 1.4072,7.99582 2.93486,11.75439 1.1826,4.02283 -1.0725,4.41437 -2.23211,3.61957 -0.74636,-0.51156 -2.18266,-2.2543 -3.3668,-4.8006 -1.17778,-2.53264 -2.28433,-5.40723 -2.45306,-6.11275"
       id="path1071"
       inkscape:connector-curvature="0"
       sodipodi:nodetypes="cscssc" />
    <path
       style="opacity:1;fill:none;fill-opacity:1;stroke:#c0c0c0;stroke-width:0.37795275;stroke-linecap:round;stroke-linejoin:round;stroke-miterlimit:4;stroke-dasharray:none;stroke-dashoffset:0;stroke-opacity:1"
       d="m 642.1488,618.16127 c 0.87275,-4.07236 2.17997,-6.68937 3.62455,-10.20739"
       id="path1090"
       inkscape:connector-curvature="0"
       sodipodi:nodetypes="cc" />
    <path
       style="opacity:1;fill:none;fill-opacity:1;stroke:#c0c0c0;stroke-width:0.37795276;stroke-linecap:round;stroke-linejoin:round;stroke-miterlimit:4;stroke-dasharray:none;stroke-dashoffset:0;stroke-opacity:1"
       d="m 634.74752,754.98923 4.79732,2.78132 0.77755,-1.23441 c 0.29937,-0.4647 -0.0227,-1.1425 -0.36677,-1.34378"
       id="path1044"
       inkscape:connector-curvature="0"
       sodipodi:nodetypes="cccc" />
    <path
       style="display:inline;opacity:1;fill:none;fill-opacity:1;stroke:#c0c0c0;stroke-width:0.37795276;stroke-linecap:round;stroke-linejoin:round;stroke-miterlimit:4;stroke-dasharray:none;stroke-dashoffset:0;stroke-opacity:1"
       d="m 691.50773,732.07493 c -2.44713,10.2488 -6.10304,19.31597 -7.11384,28.36188 -0.97908,8.76197 1.63277,16.77659 3.74581,25.33495 1.28911,5.22122 1.76586,7.66967 3.03128,12.87976 z"
       id="path906-6"
       inkscape:connector-curvature="0"
       sodipodi:nodetypes="csscc" />
    <path
       style="display:inline;opacity:1;fill:none;fill-opacity:1;stroke:#c0c0c0;stroke-width:0.37795276;stroke-linecap:round;stroke-linejoin:round;stroke-miterlimit:4;stroke-dasharray:none;stroke-dashoffset:0;stroke-opacity:1"
       d="m 691.17308,798.54546 1.19579,33.83675"
       id="path908-7"
       inkscape:connector-curvature="0"
       sodipodi:nodetypes="cc" />
    <path
       style="display:inline;opacity:1;fill:none;fill-opacity:1;stroke:#c0c0c0;stroke-width:0.37795276;stroke-linecap:round;stroke-linejoin:round;stroke-miterlimit:4;stroke-dasharray:none;stroke-dashoffset:0;stroke-opacity:1"
       d="m 747.39485,730.40167 0.83663,62.16186 c 0,0 9.64231,-23.11654 9.03564,-35.22227 -0.47869,-9.55185 -9.87227,-26.93959 -9.87227,-26.93959 z"
       id="path910-5"
       inkscape:connector-curvature="0"
       sodipodi:nodetypes="ccsc" />
    <path
       style="display:inline;opacity:1;fill:none;fill-opacity:1;stroke:#c0c0c0;stroke-width:0.37795276;stroke-linecap:round;stroke-linejoin:round;stroke-miterlimit:4;stroke-dasharray:none;stroke-dashoffset:0;stroke-opacity:1"
       d="m 748.25598,792.64719 0.47241,39.73256"
       id="path912-3"
       inkscape:connector-curvature="0"
       sodipodi:nodetypes="cc" />
    <path
       style="display:inline;opacity:1;fill:none;fill-opacity:1;stroke:#c0c0c0;stroke-width:0.37795276;stroke-linecap:round;stroke-linejoin:round;stroke-miterlimit:4;stroke-dasharray:none;stroke-dashoffset:0;stroke-opacity:1"
       d="m 691.25167,797.31958 c 7.00714,2.61379 48.96865,2.25297 57.00011,-1.49318"
       id="path914-5"
       inkscape:connector-curvature="0"
       sodipodi:nodetypes="cc" />
    <path
       style="display:inline;opacity:1;fill:none;fill-opacity:1;stroke:#c0c0c0;stroke-width:0.37795276;stroke-linecap:round;stroke-linejoin:round;stroke-miterlimit:4;stroke-dasharray:none;stroke-dashoffset:0;stroke-opacity:1"
       d="m 697.96664,655.94764 c -1.20161,6.67971 -1.33896,13.88047 -0.11832,21.23806"
       id="path916-6"
       inkscape:connector-curvature="0"
       sodipodi:nodetypes="cc" />
    <path
       style="display:inline;opacity:1;fill:none;fill-opacity:1;stroke:#c0c0c0;stroke-width:0.37795276;stroke-linecap:round;stroke-linejoin:round;stroke-miterlimit:4;stroke-dasharray:none;stroke-dashoffset:0;stroke-opacity:1"
       d="m 746.16775,654.41807 c 0.63153,6.5976 0.34419,14.38239 -0.64706,21.29721"
       id="path918-2"
       inkscape:connector-curvature="0"
       sodipodi:nodetypes="cc" />
    <path
       style="display:inline;opacity:1;fill:none;fill-opacity:1;stroke:#c0c0c0;stroke-width:0.37795276;stroke-linecap:round;stroke-linejoin:round;stroke-miterlimit:4;stroke-dasharray:none;stroke-dashoffset:0;stroke-opacity:1"
       d="m 708.71664,654.22322 c -0.91205,1.61114 0.45876,3.69257 2.26906,4.08044 1.75524,0.37607 3.93032,-2.47585 2.85122,-4.65891 -0.90947,-1.8399 -4.3347,-0.80924 -5.12028,0.57847 z"
       id="path920-9"
       inkscape:connector-curvature="0"
       sodipodi:nodetypes="ssss" />
    <path
       style="display:inline;opacity:1;fill:none;fill-opacity:1;stroke:#c0c0c0;stroke-width:0.37795276;stroke-linecap:round;stroke-linejoin:round;stroke-miterlimit:4;stroke-dasharray:none;stroke-dashoffset:0;stroke-opacity:1"
       d="m 730.32803,653.5294 c -1.38795,1.79645 0.47338,4.7296 2.74182,4.64158 2.40225,-0.0932 3.55953,-3.00249 1.9584,-4.79578 -1.27024,-1.42269 -3.57788,-1.29847 -4.70022,0.1542 z"
       id="path922-1"
       inkscape:connector-curvature="0"
       sodipodi:nodetypes="ssss" />
    <path
       style="display:inline;opacity:1;fill:none;fill-opacity:1;stroke:#c0c0c0;stroke-width:0.37795276;stroke-linecap:round;stroke-linejoin:round;stroke-miterlimit:4;stroke-dasharray:none;stroke-dashoffset:0;stroke-opacity:1"
       d="m 708.07722,680.14364 c 7.17773,9.10735 13.84796,15.37355 28.02451,-1.64804 0.67108,-1.06725 -0.0385,-1.82059 -0.7099,-1.41982 -8.96231,5.0601 -16.33828,4.49588 -26.36806,1.29309 -1.07851,-0.33037 -1.5035,1.01429 -0.94655,1.77477 z"
       id="path924-2"
       inkscape:connector-curvature="0"
       sodipodi:nodetypes="ccccc" />
    <path
       style="display:inline;opacity:1;fill:none;fill-opacity:1;stroke:#c0c0c0;stroke-width:0.37795276;stroke-linecap:round;stroke-linejoin:round;stroke-miterlimit:4;stroke-dasharray:none;stroke-dashoffset:0;stroke-opacity:1"
       d="m 688.66318,810.55115 c 0.0718,4.32768 0.27522,12.79192 1.19159,12.98304 0.72975,0.1522 1.49955,0.14024 2.16509,-0.0268"
       id="path926-7"
       inkscape:connector-curvature="0"
       sodipodi:nodetypes="csc" />
    <path
       style="display:inline;opacity:1;fill:none;fill-opacity:1;stroke:#c0c0c0;stroke-width:0.37795276;stroke-linecap:round;stroke-linejoin:round;stroke-miterlimit:4;stroke-dasharray:none;stroke-dashoffset:0;stroke-opacity:1"
       d="m 687.94797,817.19752 c 0.0986,4.80173 1.04602,12.80279 2.31648,13.06397 0.8557,0.17591 1.30835,-0.0858 2.00256,-0.25723"
       id="path928-0"
       inkscape:connector-curvature="0"
       sodipodi:nodetypes="csc" />
    <path
       style="display:inline;opacity:1;fill:none;fill-opacity:1;stroke:#c0c0c0;stroke-width:0.37795276;stroke-linecap:round;stroke-linejoin:round;stroke-miterlimit:4;stroke-dasharray:none;stroke-dashoffset:0;stroke-opacity:1"
       d="m 751.98366,810.55115 c -0.0718,4.32768 -0.27523,12.79192 -1.19159,12.98304 -0.72975,0.1522 -1.49955,0.14024 -2.16509,-0.0268"
       id="path926-3-9"
       inkscape:connector-curvature="0"
       sodipodi:nodetypes="csc" />
    <path
       style="display:inline;opacity:1;fill:none;fill-opacity:1;stroke:#c0c0c0;stroke-width:0.37795276;stroke-linecap:round;stroke-linejoin:round;stroke-miterlimit:4;stroke-dasharray:none;stroke-dashoffset:0;stroke-opacity:1"
       d="m 753.03325,817.19752 c -0.0986,4.80173 -1.04602,12.80279 -2.31647,13.06397 -0.85571,0.17591 -1.30835,-0.0858 -2.00256,-0.25723"
       id="path928-7-3"
       inkscape:connector-curvature="0"
       sodipodi:nodetypes="csc" />
    <path
       style="display:inline;opacity:1;vector-effect:none;fill:none;fill-opacity:1;stroke:#c0c0c0;stroke-width:0.37795276;stroke-linecap:round;stroke-linejoin:round;stroke-miterlimit:4;stroke-dasharray:none;stroke-dashoffset:0;stroke-opacity:1"
       d="m 712.88389,699.13365 c 4.62856,0.54526 12.02591,0.57659 14.59746,-0.0296"
       id="path965-6"
       inkscape:connector-curvature="0"
       sodipodi:nodetypes="cc" />
    <path
       style="display:inline;opacity:1;vector-effect:none;fill:none;fill-opacity:1;stroke:#c0c0c0;stroke-width:0.37795276;stroke-linecap:round;stroke-linejoin:round;stroke-miterlimit:4;stroke-dasharray:none;stroke-dashoffset:0;stroke-opacity:1"
       d="m 731.53556,710.08836 c -0.53621,2.83521 -1.31416,5.41907 -2.96962,7.41478 l -2.46012,2.74077 c -0.91639,1.56181 0.66807,2.58107 2.63517,3.86826 2.46882,-2.37764 3.50608,-4.6505 5.22046,-7.15387 0.86568,-2.25977 1.15931,-3.86741 1.63458,-6.90785"
       id="path3629-9"
       inkscape:connector-curvature="0"
       sodipodi:nodetypes="cccccc" />
    <path
       style="display:inline;opacity:1;vector-effect:none;fill:none;fill-opacity:1;stroke:#c0c0c0;stroke-width:0.37795276;stroke-linecap:round;stroke-linejoin:round;stroke-miterlimit:4;stroke-dasharray:none;stroke-dashoffset:0;stroke-opacity:1"
       d="m 730.02345,722.78591 c -0.91639,1.56181 0.72089,2.10563 2.68799,3.39282 2.46882,-2.37763 3.50609,-4.6505 5.22046,-7.15387 0.86568,-2.25977 1.68758,-6.19178 2.16285,-9.23222"
       id="path3629-2-3"
       inkscape:connector-curvature="0"
       sodipodi:nodetypes="cccc" />
    <path
       style="display:inline;opacity:1;vector-effect:none;fill:none;fill-opacity:1;stroke:#c0c0c0;stroke-width:0.37795276;stroke-linecap:round;stroke-linejoin:round;stroke-miterlimit:4;stroke-dasharray:none;stroke-dashoffset:0;stroke-opacity:1"
       d="m 735.50889,722.83308 c 0.4161,1.28015 0.93719,1.17533 3.02929,2.24734 2.20368,-2.6253 2.99481,-4.99508 4.43499,-7.66566 0.62192,-2.33862 0.74388,-3.96829 0.89509,-7.04193"
       id="path3629-7-1"
       inkscape:connector-curvature="0"
       sodipodi:nodetypes="cccc" />
    <path
       style="display:inline;opacity:1;vector-effect:none;fill:none;fill-opacity:1;stroke:#c0c0c0;stroke-width:0.37795275;stroke-linecap:round;stroke-linejoin:round;stroke-miterlimit:4;stroke-dasharray:none;stroke-dashoffset:0;stroke-opacity:1"
       d="m 740.41137,722.39524 c 0.38111,0.49827 0.76569,0.75023 1.46309,1.17398 1.97707,-1.90396 2.80759,-3.72403 4.18049,-5.72868 0.69317,-1.80958 1.0167,-6.10214 1.39731,-8.53686"
       id="path3629-22-9"
       inkscape:connector-curvature="0"
       sodipodi:nodetypes="cccc" />
    <path
       style="opacity:1;vector-effect:none;fill:none;fill-opacity:1;stroke:#c0c0c0;stroke-width:0.37795276;stroke-linecap:round;stroke-linejoin:round;stroke-miterlimit:4;stroke-dasharray:none;stroke-dashoffset:0;stroke-opacity:1"
       d="m 731.36938,922.67361 -0.0442,6.18719"
       id="path1666"
       inkscape:connector-curvature="0" />
    <path
       style="opacity:1;vector-effect:none;fill:none;fill-opacity:1;stroke:#c0c0c0;stroke-width:0.37795276;stroke-linecap:round;stroke-linejoin:round;stroke-miterlimit:4;stroke-dasharray:none;stroke-dashoffset:0;stroke-opacity:1"
       d="m 713.073,915.60254 c -0.66245,4.48982 -0.91188,8.16505 -0.30936,13.30245"
       id="path1668"
       inkscape:connector-curvature="0"
       sodipodi:nodetypes="cc" />
    <path
       style="opacity:1;vector-effect:none;fill:none;fill-opacity:1;stroke:#c0c0c0;stroke-width:0.37795275;stroke-linecap:round;stroke-linejoin:round;stroke-miterlimit:4;stroke-dasharray:none;stroke-dashoffset:0;stroke-opacity:1"
       d="m 692.36803,832.41806 c -0.18121,5.74416 -0.36693,11.4917 -0.38591,17.11419 0.0539,4.98785 2.36387,36.25978 4.2529,54.40303 0.84516,8.86771 0.93912,15.71312 0.97226,24.92552"
       id="path1670"
       inkscape:connector-curvature="0"
       sodipodi:nodetypes="cccc" />
    <path
       style="opacity:1;vector-effect:none;fill:none;fill-opacity:1;stroke:#c0c0c0;stroke-width:0.37795275;stroke-linecap:round;stroke-linejoin:round;stroke-miterlimit:4;stroke-dasharray:none;stroke-dashoffset:0;stroke-opacity:1"
       d="m 683.37451,802.06771 c 1.45391,2.94275 2.95627,5.87805 3.88664,8.90134 0.0409,0.34424 -0.18819,22.33863 3.22862,21.76942 0.3436,0.0222 1.52136,-0.22339 1.81196,-0.39775"
       id="path1672"
       inkscape:connector-curvature="0"
       sodipodi:nodetypes="cccc" />
    <path
       style="opacity:1;vector-effect:none;fill:none;fill-opacity:1;stroke:#c0c0c0;stroke-width:0.37795275;stroke-linecap:round;stroke-linejoin:round;stroke-miterlimit:4;stroke-dasharray:none;stroke-dashoffset:0;stroke-opacity:1"
       d="m 678.33638,792.52177 c -2.53933,-5.0326 -5.10427,-10.0396 -7.07107,-15.64474 -3.0518,-8.50626 -1.98974,-14.18425 -1.41422,-20.19673 1.42174,-9.48066 4.97514,-18.35227 8.83884,-27.13523 l 3.8007,-9.36916 c 2.47429,-6.24669 8.61418,-11.86637 19.18027,-10.96016 10.6742,1.08175 11.12697,-4.39154 11.18113,-10.12046"
       id="path1674"
       inkscape:connector-curvature="0"
       sodipodi:nodetypes="ccccccc" />
    <path
       style="opacity:1;vector-effect:none;fill:none;fill-opacity:1;stroke:#c0c0c0;stroke-width:0.37795275;stroke-linecap:round;stroke-linejoin:round;stroke-miterlimit:4;stroke-dasharray:none;stroke-dashoffset:0;stroke-opacity:1"
       d="m 727.46875,699.11342 c 8.1112,-2.36498 13.91995,-8.72895 17.28125,-19.34375"
       id="path1676"
       inkscape:connector-curvature="0"
       sodipodi:nodetypes="cc" />
    <path
       style="opacity:1;vector-effect:none;fill:none;fill-opacity:1;stroke:#c0c0c0;stroke-width:0.37795275;stroke-linecap:round;stroke-linejoin:round;stroke-miterlimit:4;stroke-dasharray:none;stroke-dashoffset:0;stroke-opacity:1"
       d="m 742.0625,644.51967 c -2.22373,-3.69921 -4.76523,-6.08207 -7.83486,-7.77294 -2.15788,-1.18864 -6.64644,-2.03899 -10.81257,-2.27452"
       id="path1678"
       inkscape:connector-curvature="0"
       sodipodi:nodetypes="csc" />
    <path
       style="opacity:1;vector-effect:none;fill:none;fill-opacity:1;stroke:#c0c0c0;stroke-width:0.37795275;stroke-linecap:round;stroke-linejoin:round;stroke-miterlimit:4;stroke-dasharray:none;stroke-dashoffset:0;stroke-opacity:1"
       d="m 717.89016,634.62135 c -3.78176,0.22109 -8.00508,0.97998 -10.67051,2.85458 -3.92394,2.7597 -6.94315,8.30221 -9.26106,18.53004 -1.86548,-0.88944 -3.81726,-0.56039 -4.5299,2.56326 -1.11855,3.78673 -0.61494,14.12105 0.37565,16.35184 0.91093,1.6786 1.9921,3.33748 4.04376,2.20971 1.55128,11.15816 6.63243,19.78713 15.00929,21.95692"
       id="path1680"
       inkscape:connector-curvature="0"
       sodipodi:nodetypes="csccccc" />
    <path
       style="opacity:1;vector-effect:none;fill:none;fill-opacity:1;stroke:#c0c0c0;stroke-width:0.37795275;stroke-linecap:round;stroke-linejoin:round;stroke-miterlimit:4;stroke-dasharray:none;stroke-dashoffset:0;stroke-opacity:1"
       d="m 731.55178,709.96789 c -4.17196,-0.35301 -3.91449,-7.141 -4.08081,-10.86741"
       id="path1727"
       inkscape:connector-curvature="0"
       sodipodi:nodetypes="cc" />
    <path
       style="opacity:1;vector-effect:none;fill:none;fill-opacity:1;stroke:#c0c0c0;stroke-width:0.37795275;stroke-linecap:round;stroke-linejoin:round;stroke-miterlimit:4;stroke-dasharray:none;stroke-dashoffset:0;stroke-opacity:1"
       d="m 730.97164,697.85785 -0.22097,5.21491 c -1.32262,1.64629 -1.80623,3.19935 -2.07713,4.72878"
       id="path1729"
       inkscape:connector-curvature="0"
       sodipodi:nodetypes="ccc" />
    <path
       style="opacity:1;vector-effect:none;fill:none;fill-opacity:1;stroke:#c0c0c0;stroke-width:0.37795275;stroke-linecap:round;stroke-linejoin:round;stroke-miterlimit:4;stroke-dasharray:none;stroke-dashoffset:0;stroke-opacity:1"
       d="m 689.29653,925.0601 7.77817,-4.22054"
       id="path1731"
       inkscape:connector-curvature="0"
       sodipodi:nodetypes="cc" />
  </g>
</svg>
