<?xml version="1.0" encoding="UTF-8" standalone="no"?>
<!-- Created with Inkscape (http://www.inkscape.org/) -->

<svg
   xmlns:dc="http://purl.org/dc/elements/1.1/"
   xmlns:cc="http://creativecommons.org/ns#"
   xmlns:rdf="http://www.w3.org/1999/02/22-rdf-syntax-ns#"
   xmlns:svg="http://www.w3.org/2000/svg"
   xmlns="http://www.w3.org/2000/svg"
   xmlns:sodipodi="http://sodipodi.sourceforge.net/DTD/sodipodi-0.dtd"
   xmlns:inkscape="http://www.inkscape.org/namespaces/inkscape"
   width="297mm"
   height="210mm"
   id="svg2"
   version="1.1"
   inkscape:version="0.92.3 (2405546, 2018-03-11)"
   sodipodi:docname="UnicornBalloon-undecorated.svg"
   viewBox="0 0 1052.3622 744.09448">
  <defs
     id="defs4" />
  <sodipodi:namedview
     id="base"
     pagecolor="#ffffff"
     bordercolor="#666666"
     borderopacity="1.0"
     inkscape:pageopacity="0.0"
     inkscape:pageshadow="2"
     inkscape:zoom="2.8284271"
     inkscape:cx="719.09771"
     inkscape:cy="433.46242"
     inkscape:document-units="mm"
     inkscape:current-layer="layer1"
     showgrid="false"
     units="mm"
     inkscape:window-width="1920"
     inkscape:window-height="1015"
     inkscape:window-x="0"
     inkscape:window-y="0"
     inkscape:window-maximized="0"
     inkscape:snap-nodes="false"
     inkscape:snap-global="false" />
  <metadata
     id="metadata7">
    <rdf:RDF>
      <cc:Work
         rdf:about="">
        <dc:format>image/svg+xml</dc:format>
        <dc:type
           rdf:resource="http://purl.org/dc/dcmitype/StillImage" />
        <dc:title></dc:title>
      </cc:Work>
    </rdf:RDF>
  </metadata>
  <g
     inkscape:label="Mask"
     inkscape:groupmode="layer"
     id="Mask"
     style="display:inline"
     transform="translate(0,-308.2677)">
    <path
       style="color:#000000;display:inline;overflow:visible;visibility:visible;fill:#ffffff;fill-opacity:1;fill-rule:nonzero;stroke:#808080;stroke-width:0.75590551;stroke-linecap:round;stroke-linejoin:round;stroke-miterlimit:4;stroke-dasharray:none;stroke-opacity:1;marker:none;enable-background:accumulate"
       d="m 633.20898,222.82422 c -9.1048,4.44412 38.0918,118.23242 38.0918,118.23242 -33.10564,26.99402 -65.99741,50.9761 -98.44531,68.76172 -36.51312,21.30179 -27.01276,39.71983 -24.42774,47.79492 2.58502,8.07509 3.398,10.0903 5.13477,13.92969 -2.38688,5.27984 3.59888,11.80212 6.26953,11.78515 2.33999,-0.2204 3.52229,-1.12683 5.54102,-2.15039 -4.51297,2.28004 -5.65574,5.692 -0.61328,7.94532 4.67325,5.27878 4.5765,4.94261 6.0957,8.07031 8.3167,6.39152 16.9661,9.57989 28.00391,0.57617 30.29531,-26.97073 66.15888,-35.00432 102.14257,-37.08008 49.60982,-6.22355 74.99064,55.39486 80.45508,124.5293 l 0.75391,3.74023 -10.42969,18.54883 10.42383,-2.58789 10.64648,5.72852 6.72656,-4.02735 -10.91015,-18.11328 0.61719,-1.09375 130.69531,-78.26367 c 17.2029,-10.27589 11.81232,-31.7733 10.44726,-38.35351 C 915.3544,379.26165 830.5058,298.15302 753.79102,303.70703 c -2.28528,-10.14511 -6.14881,-18.2559 -14.71875,-28.69336 -3.79045,6.84253 -5.20671,12.4827 -7.04883,18.67578 -22.20022,-1.38527 -35.53744,11.41511 -40.19336,25.10547 0,0 -49.5163,-100.41482 -58.6211,-95.9707 z"
       id="path2991-3"
       transform="matrix(0.9375,0,0,0.9375,0,308.2677)"
       inkscape:connector-curvature="0"
       sodipodi:nodetypes="zccscccccccccccccccccccccz" />
  </g>
  <g
     inkscape:groupmode="layer"
     id="layer1"
     inkscape:label="Overlay"
     style="display:inline"
     transform="translate(0,-308.2677)">
    <path
       transform="translate(0,1.5793938e-6)"
       style="display:inline;fill:none;stroke:#c0c0c0;stroke-width:0.35433072;stroke-linecap:round;stroke-linejoin:round;stroke-miterlimit:4;stroke-dasharray:none;stroke-opacity:1"
       d="m 520.93601,711.37113 c 6.19672,9.98373 8.22717,20.27993 2.087,31.18892"
       id="path913"
       inkscape:connector-curvature="0"
       sodipodi:nodetypes="cc" />
    <path
       transform="translate(0,1.5793938e-6)"
       style="display:inline;fill:none;stroke:#c0c0c0;stroke-width:0.35433072;stroke-linecap:round;stroke-linejoin:round;stroke-miterlimit:4;stroke-dasharray:none;stroke-opacity:1"
       d="m 522.09546,714.03784 c -2.29354,9.72979 -2.76313,18.77559 2.31887,25.73955"
       id="path915"
       inkscape:connector-curvature="0"
       sodipodi:nodetypes="cc" />
    <path
       transform="translate(0,1.5793938e-6)"
       style="display:inline;fill:none;stroke:#c0c0c0;stroke-width:0.35433072;stroke-linecap:round;stroke-linejoin:round;stroke-miterlimit:4;stroke-dasharray:none;stroke-opacity:1"
       d="m 622.61883,663.95007 c 7.08053,-11.73494 24.49435,-26.9126 43.36302,-17.39159 -18.88276,21.71372 -30.64141,17.28559 -43.36302,17.39159 z"
       id="path917"
       inkscape:connector-curvature="0"
       sodipodi:nodetypes="ccc" />
    <path
       transform="translate(0,1.5793938e-6)"
       style="display:inline;fill:none;stroke:#c0c0c0;stroke-width:0.35433072;stroke-linecap:butt;stroke-linejoin:miter;stroke-miterlimit:4;stroke-dasharray:none;stroke-opacity:1"
       d="m 637.22534,652.26204 c -1.40776,3.75643 2.62754,10.89075 8.17718,9.1232 6.05578,-1.92877 7.29802,-7.8824 5.04285,-11.58033 -3.25146,-5.3316 -10.95846,-3.57757 -13.22003,2.45713 z"
       id="path919"
       inkscape:connector-curvature="0"
       sodipodi:nodetypes="ssss" />
    <path
       transform="translate(0,1.5793938e-6)"
       style="display:inline;fill:none;stroke:#c0c0c0;stroke-width:0.35433072;stroke-linecap:round;stroke-linejoin:round;stroke-miterlimit:4;stroke-dasharray:none;stroke-opacity:1"
       d="m 691.25886,619.48282 c -1.25624,-11.79786 -1.35747,-24.93302 4.29958,-36.72916 5.13773,11.39718 8.73997,24.92543 2.62352,41.64825"
       id="path921"
       inkscape:connector-curvature="0"
       sodipodi:nodetypes="ccc" />
    <path
       transform="translate(0,1.5793938e-6)"
       style="display:inline;fill:none;stroke:#c0c0c0;stroke-width:0.35433072;stroke-linecap:round;stroke-linejoin:round;stroke-miterlimit:4;stroke-dasharray:none;stroke-opacity:1"
       d="m 686.27204,583.60094 c -4.25472,16.59648 -4.65427,23.71627 -2.08699,33.62374"
       id="path923"
       inkscape:connector-curvature="0"
       sodipodi:nodetypes="cc" />
    <path
       transform="translate(0,1.5793938e-6)"
       style="display:inline;fill:none;stroke:#c0c0c0;stroke-width:0.35433072;stroke-linecap:round;stroke-linejoin:round;stroke-miterlimit:4;stroke-dasharray:none;stroke-opacity:1"
       d="m 706.6852,593.10191 c 1.98973,11.28514 1.80885,23.77304 -3.94912,35.25338"
       id="path925"
       inkscape:connector-curvature="0"
       sodipodi:nodetypes="cc" />
    <path
       transform="translate(0,1.5793938e-6)"
       style="display:inline;fill:none;stroke:#c0c0c0;stroke-width:0.35433072;stroke-linecap:round;stroke-linejoin:round;stroke-miterlimit:4;stroke-dasharray:none;stroke-opacity:1"
       d="m 648.64824,607.0216 c -3.26471,8.19154 -6.59212,24.66658 0.57972,33.5078 1.03583,-4.29066 2.81694,-7.57762 5.97111,-10.31901 -0.0786,2.11364 0.42796,3.83715 1.27539,5.33342 0.94464,-2.04983 0.57595,-4.97522 4.05803,-5.33342 5.20624,-12.75169 12.09597,-20.03205 18.43508,-29.10192"
       id="path929"
       inkscape:connector-curvature="0"
       sodipodi:nodetypes="cccccc" />
    <path
       transform="translate(0,1.5793938e-6)"
       style="display:inline;fill:none;stroke:#c0c0c0;stroke-width:0.35433072;stroke-linecap:round;stroke-linejoin:round;stroke-miterlimit:4;stroke-dasharray:none;stroke-opacity:1"
       d="m 665.17025,620.93488 c 0.13403,11.89601 7.43056,23.38358 15.52141,33.5956 -1.05211,-3.05427 -1.44517,-5.54772 0.47884,-9.47926 0.72244,3.32966 3.27266,5.74542 6.60881,7.76823 -6.60453,-15.90526 -0.6178,-24.9496 -3.65224,-35.59478"
       id="path931"
       inkscape:connector-curvature="0"
       sodipodi:nodetypes="ccccc" />
    <path
       transform="translate(0,1.5793938e-6)"
       style="display:inline;fill:none;stroke:#c0c0c0;stroke-width:0.35433072;stroke-linecap:round;stroke-linejoin:round;stroke-miterlimit:4;stroke-dasharray:none;stroke-opacity:1"
       d="m 666.19796,739.81736 c 58.58419,1.22068 62.53037,-37.91279 61.82643,-59.50188"
       id="path933"
       inkscape:connector-curvature="0"
       sodipodi:nodetypes="cc" />
    <path
       transform="translate(0,1.5793938e-6)"
       style="display:inline;fill:none;stroke:#c0c0c0;stroke-width:0.35433072;stroke-linecap:round;stroke-linejoin:round;stroke-miterlimit:4;stroke-dasharray:none;stroke-opacity:1"
       d="m 707.78882,608.48132 c 7.59723,27.24504 13.19198,59.72732 26.13847,72.98196 -0.22059,-2.62286 -0.99119,-5.06238 1.31176,-8.52642 1.91298,-0.0876 3.82595,0.77596 5.73893,3.7713 0.88882,-0.45679 1.94914,-2.45704 3.27939,-6.88672 1.24321,3.63599 2.91643,4.69195 4.59115,5.73893 -3.5749,-27.55732 -6.61507,-56.55814 -22.1349,-81.98244"
       id="path935"
       inkscape:connector-curvature="0"
       sodipodi:nodetypes="ccccccc" />
    <path
       transform="translate(0,1.5793938e-6)"
       style="display:inline;fill:none;stroke:#c0c0c0;stroke-width:0.35433072;stroke-linecap:round;stroke-linejoin:round;stroke-miterlimit:4;stroke-dasharray:none;stroke-opacity:1"
       d="m 702.6865,628.45887 c -3.82594,10.75808 0.97542,23.08476 1.46312,34.62714 2.3234,-2.81225 3.97657,-6.01874 4.97184,-9.61223 3.14537,3.69042 6.50475,7.07513 11.26951,8.45213 -0.54572,-2.37963 -1.01295,-4.80832 -0.33145,-7.95495"
       id="path937"
       inkscape:connector-curvature="0"
       sodipodi:nodetypes="ccccc" />
    <path
       transform="translate(0,1.5793938e-6)"
       style="display:inline;fill:none;stroke:#c0c0c0;stroke-width:0.35433072;stroke-linecap:round;stroke-linejoin:round;stroke-miterlimit:4;stroke-dasharray:none;stroke-opacity:1"
       d="m 629.31152,627.9823 1.15723,2.56349 c 2.10162,1.40189 11.23163,-0.30476 14.51764,-1.83601"
       id="path939"
       inkscape:connector-curvature="0"
       sodipodi:nodetypes="ccc" />
    <path
       transform="translate(0,1.5793938e-6)"
       style="display:inline;fill:none;stroke:#c0c0c0;stroke-width:0.35433072;stroke-linecap:round;stroke-linejoin:round;stroke-miterlimit:4;stroke-dasharray:none;stroke-opacity:1"
       d="m 750.46875,688.37782 c -3.50214,16.18198 -0.75074,33.78915 8.23278,49.19153 0.9727,-1.12204 1.28233,-2.69994 1.37659,-4.42591 0.47071,1.52895 1.13175,2.81657 1.93359,3.07617 1.48639,-1.97776 2.63335,-4.38349 6.5625,-3.28125 -3.44403,-41.16488 8.10144,-121.36795 -18.47168,-133.90137"
       id="path941"
       inkscape:connector-curvature="0"
       sodipodi:nodetypes="cccccc" />
    <path
       transform="translate(0,1.5793938e-6)"
       style="display:inline;fill:none;stroke:#c0c0c0;stroke-width:0.35433072;stroke-linecap:round;stroke-linejoin:round;stroke-miterlimit:4;stroke-dasharray:none;stroke-opacity:1"
       d="m 742.18214,674.17325 c -0.10376,8.96837 3.13553,14.85362 7.20704,20.41992"
       id="path943"
       inkscape:connector-curvature="0"
       sodipodi:nodetypes="cc" />
    <path
       transform="translate(0,1.5793938e-6)"
       style="display:inline;fill:none;stroke:#c0c0c0;stroke-width:0.35433072;stroke-linecap:round;stroke-linejoin:round;stroke-miterlimit:4;stroke-dasharray:none;stroke-opacity:1"
       d="m 768.51034,732.88591 c 1.21241,12.81794 3.72909,18.49186 5.5131,24.8669 1.47347,-2.69983 3.02074,-5.1045 4.80468,-6.56249 1.01563,7.24548 2.03125,8.43339 3.04688,8.90625 0.95793,-8.03845 4.19245,-11.48085 2.57812,-33.28125 -1.61433,-21.8004 -0.70012,-38.379 4.45313,-49.21875 5.15325,-10.83975 1.77925,-57.32455 -9.24316,-64.64356"
       id="path945"
       inkscape:connector-curvature="0"
       sodipodi:nodetypes="cccczzc" />
    <path
       transform="translate(0,1.5793938e-6)"
       style="display:inline;fill:none;stroke:#c0c0c0;stroke-width:0.35433072;stroke-linecap:round;stroke-linejoin:round;stroke-miterlimit:4;stroke-dasharray:none;stroke-opacity:1"
       d="m 784.4765,746.12587 c -0.19644,5.08851 -0.33399,10.05925 -0.82864,15.74417 2.46052,-2.23271 3.45458,-5.23781 4.47466,-8.61787 -0.15677,3.4033 0.47172,5.39315 1.07494,7.42847 1.82433,-2.28671 2.72753,-6.51804 3.14883,-11.7667 0.6673,2.83054 1.21056,5.28896 2.32019,9.44651 6.22652,-6.38785 7.11324,-18.86248 7.45777,-28.8367 0.0572,-21.41076 19.37571,-63.3258 -0.20321,-100.51815"
       id="path947"
       inkscape:connector-curvature="0"
       sodipodi:nodetypes="cccccccc" />
    <path
       transform="translate(0,1.5793938e-6)"
       style="display:inline;fill:none;stroke:#c0c0c0;stroke-width:0.35433072;stroke-linecap:round;stroke-linejoin:round;stroke-miterlimit:4;stroke-dasharray:none;stroke-opacity:1"
       d="m 801.41991,739.9232 c -1.94049,31.79318 -22.03439,48.10138 -27.30372,71.63598 2.78917,-4.17259 6.84927,-6.49452 11.26952,-5.96621 -1.84901,2.65072 -0.29371,3.35612 0.82864,4.30893 1.67215,-2.74274 8.30716,-4.62237 13.25826,-6.79485 1.45602,0.94801 2.30293,2.0483 3.14882,3.14884 20.24725,-36.59736 40.84027,-87.04912 30.52028,-144.56809"
       id="path949"
       inkscape:connector-curvature="0"
       sodipodi:nodetypes="ccccccc" />
    <path
       transform="translate(0,1.5793938e-6)"
       style="display:inline;fill:none;stroke:#c0c0c0;stroke-width:0.35433072;stroke-linecap:round;stroke-linejoin:round;stroke-miterlimit:4;stroke-dasharray:none;stroke-opacity:1"
       d="m 855.89351,698.553 c 12.25469,29.90061 -14.09931,92.1702 -36.53353,113.00618"
       id="path951"
       inkscape:connector-curvature="0"
       sodipodi:nodetypes="cc" />
    <path
       transform="translate(0,1.5793938e-6)"
       style="display:inline;fill:none;stroke:#c0c0c0;stroke-width:0.35433072;stroke-linecap:round;stroke-linejoin:round;stroke-miterlimit:4;stroke-dasharray:none;stroke-opacity:1"
       d="m 799.38692,803.15576 c -5.65459,8.49868 -4.10516,13.52178 -2.82249,17.98824 0.51717,-3.5544 0.99921,-6.24495 3.30251,-7.43964 -0.21928,3.73349 -0.57098,4.8975 2.04251,8.04656"
       id="path953"
       inkscape:connector-curvature="0"
       sodipodi:nodetypes="cccc" />
  </g>
</svg>
