<?xml version="1.0" encoding="UTF-8" standalone="no"?>
<!-- Created with Inkscape (http://www.inkscape.org/) -->

<svg
   xmlns:dc="http://purl.org/dc/elements/1.1/"
   xmlns:cc="http://creativecommons.org/ns#"
   xmlns:rdf="http://www.w3.org/1999/02/22-rdf-syntax-ns#"
   xmlns:svg="http://www.w3.org/2000/svg"
   xmlns="http://www.w3.org/2000/svg"
   xmlns:sodipodi="http://sodipodi.sourceforge.net/DTD/sodipodi-0.dtd"
   xmlns:inkscape="http://www.inkscape.org/namespaces/inkscape"
   width="297mm"
   height="210mm"
   id="svg2"
   version="1.1"
   inkscape:version="0.92.3 (2405546, 2018-03-11)"
   sodipodi:docname="UnicornBalloon-undecorated.svg">
  <defs
     id="defs4" />
  <sodipodi:namedview
     id="base"
     pagecolor="#ffffff"
     bordercolor="#666666"
     borderopacity="1.0"
     inkscape:pageopacity="0.0"
     inkscape:pageshadow="2"
     inkscape:zoom="2.8284271"
     inkscape:cx="659.87752"
     inkscape:cy="433.46242"
     inkscape:document-units="mm"
     inkscape:current-layer="layer1"
     showgrid="false"
     units="mm"
     inkscape:window-width="1920"
     inkscape:window-height="1015"
     inkscape:window-x="0"
     inkscape:window-y="0"
     inkscape:window-maximized="0"
     inkscape:snap-nodes="false"
     inkscape:snap-global="false" />
  <metadata
     id="metadata7">
    <rdf:RDF>
      <cc:Work
         rdf:about="">
        <dc:format>image/svg+xml</dc:format>
        <dc:type
           rdf:resource="http://purl.org/dc/dcmitype/StillImage" />
        <dc:title />
      </cc:Work>
    </rdf:RDF>
  </metadata>
  <g
     inkscape:label="Mask"
     inkscape:groupmode="layer"
     id="Mask"
     style="display:inline"
     transform="translate(0,-328.81888)">
    <path
       style="color:#000000;display:inline;overflow:visible;visibility:visible;fill:#ffffff;fill-opacity:1;fill-rule:nonzero;stroke:#808080;stroke-width:0.75590551;stroke-linecap:round;stroke-linejoin:round;stroke-miterlimit:4;stroke-dasharray:none;stroke-opacity:1;marker:none;enable-background:accumulate"
       d="m 633.20898,551.6431 c -9.1048,4.44412 38.0918,118.23242 38.0918,118.23242 -33.10564,26.99402 -65.99741,50.9761 -98.44531,68.76172 -36.51312,21.30179 -27.01276,39.71983 -24.42774,47.79492 2.58502,8.07509 3.398,10.0903 5.13477,13.92969 -2.38688,5.27984 3.59888,11.80212 6.26953,11.78515 2.33999,-0.2204 3.52229,-1.12683 5.54102,-2.15039 -4.51297,2.28004 -5.65574,5.692 -0.61328,7.94532 4.67325,5.27878 4.5765,4.94261 6.0957,8.07031 8.3167,6.39152 16.9661,9.57989 28.00391,0.57617 30.29531,-26.97073 66.15888,-35.00432 102.14257,-37.08008 49.60982,-6.22355 74.99064,55.39486 80.45508,124.5293 l 0.75391,3.74023 -10.42969,18.54883 10.42383,-2.58789 10.64648,5.72852 6.72656,-4.02735 -10.91015,-18.11328 0.61719,-1.09375 130.69531,-78.26367 c 17.2029,-10.27589 11.81232,-31.7733 10.44726,-38.35351 C 915.3544,708.08053 830.5058,626.9719 753.79102,632.52591 c -2.28528,-10.14511 -6.14881,-18.2559 -14.71875,-28.69336 -3.79045,6.84253 -5.20671,12.4827 -7.04883,18.67578 -22.20022,-1.38527 -35.53744,11.41511 -40.19336,25.10547 0,0 -49.5163,-100.41482 -58.6211,-95.9707 z"
       id="path2991-3"
       inkscape:connector-curvature="0"
       sodipodi:nodetypes="zccscccccccccccccccccccccz" />
  </g>
  <g
     inkscape:groupmode="layer"
     id="layer1"
     inkscape:label="Overlay"
     style="display:inline"
     transform="translate(0,-328.81888)">
    <path
       style="display:inline;fill:none;stroke:#c0c0c0;stroke-width:0.37795275;stroke-linecap:round;stroke-linejoin:round;stroke-miterlimit:4;stroke-dasharray:none;stroke-opacity:1"
       d="m 555.66508,758.79587 c 6.60983,10.64932 8.77565,21.63193 2.22613,33.26819"
       id="path913"
       inkscape:connector-curvature="0"
       sodipodi:nodetypes="cc" />
    <path
       style="display:inline;fill:none;stroke:#c0c0c0;stroke-width:0.37795275;stroke-linecap:round;stroke-linejoin:round;stroke-miterlimit:4;stroke-dasharray:none;stroke-opacity:1"
       d="m 556.90182,761.64036 c -2.44644,10.37845 -2.94733,20.0273 2.47347,27.45552"
       id="path915"
       inkscape:connector-curvature="0"
       sodipodi:nodetypes="cc" />
    <path
       style="display:inline;fill:none;stroke:#c0c0c0;stroke-width:0.37795275;stroke-linecap:round;stroke-linejoin:round;stroke-miterlimit:4;stroke-dasharray:none;stroke-opacity:1"
       d="m 664.12675,708.21341 c 7.55257,-12.51727 26.12731,-28.70677 46.25389,-18.55103 -20.14161,23.1613 -32.68417,18.43796 -46.25389,18.55103 z"
       id="path917"
       inkscape:connector-curvature="0"
       sodipodi:nodetypes="ccc" />
    <path
       style="display:inline;fill:none;stroke:#c0c0c0;stroke-width:0.37795275;stroke-linecap:butt;stroke-linejoin:miter;stroke-miterlimit:4;stroke-dasharray:none;stroke-opacity:1"
       d="m 679.70703,695.74618 c -1.50161,4.00686 2.80271,11.6168 8.72232,9.73141 6.4595,-2.05735 7.78456,-8.40789 5.37904,-12.35235 -3.46822,-5.68704 -11.68902,-3.81608 -14.10136,2.62094 z"
       id="path919"
       inkscape:connector-curvature="0"
       sodipodi:nodetypes="ssss" />
    <path
       style="display:inline;fill:none;stroke:#c0c0c0;stroke-width:0.37795275;stroke-linecap:round;stroke-linejoin:round;stroke-miterlimit:4;stroke-dasharray:none;stroke-opacity:1"
       d="m 737.34278,660.78168 c -1.33999,-12.58439 -1.44796,-26.59522 4.58622,-39.17777 5.48025,12.15699 9.32264,26.58712 2.79842,44.4248"
       id="path921"
       inkscape:connector-curvature="0"
       sodipodi:nodetypes="ccc" />
    <path
       style="display:inline;fill:none;stroke:#c0c0c0;stroke-width:0.37795275;stroke-linecap:round;stroke-linejoin:round;stroke-miterlimit:4;stroke-dasharray:none;stroke-opacity:1"
       d="m 732.02351,622.50767 c -4.53837,17.70291 -4.96456,25.29736 -2.22612,35.86532"
       id="path923"
       inkscape:connector-curvature="0"
       sodipodi:nodetypes="cc" />
    <path
       style="display:inline;fill:none;stroke:#c0c0c0;stroke-width:0.37795275;stroke-linecap:round;stroke-linejoin:round;stroke-miterlimit:4;stroke-dasharray:none;stroke-opacity:1"
       d="m 753.79755,632.64204 c 2.12238,12.03748 1.92944,25.35791 -4.2124,37.6036"
       id="path925"
       inkscape:connector-curvature="0"
       sodipodi:nodetypes="cc" />
    <path
       style="display:inline;fill:none;stroke:#c0c0c0;stroke-width:0.37795275;stroke-linecap:round;stroke-linejoin:round;stroke-miterlimit:4;stroke-dasharray:none;stroke-opacity:1"
       d="m 691.89146,647.48971 c -3.48236,8.73764 -7.0316,26.31102 0.61836,35.74165 1.10489,-4.5767 3.00474,-8.08279 6.36919,-11.00694 -0.0838,2.25455 0.45649,4.09296 1.36041,5.68898 1.00762,-2.18649 0.61435,-5.3069 4.32857,-5.68898 5.55332,-13.6018 12.90237,-21.36752 19.66408,-31.04205"
       id="path929"
       inkscape:connector-curvature="0"
       sodipodi:nodetypes="cccccc" />
    <path
       style="display:inline;fill:none;stroke:#c0c0c0;stroke-width:0.37795275;stroke-linecap:round;stroke-linejoin:round;stroke-miterlimit:4;stroke-dasharray:none;stroke-opacity:1"
       d="m 709.51493,662.33054 c 0.14297,12.68908 7.92593,24.94249 16.55617,35.83531 -1.12225,-3.25789 -1.54151,-5.91757 0.51077,-10.11121 0.7706,3.55163 3.49083,6.12844 7.04939,8.28611 -7.04483,-16.96561 -0.65898,-26.61291 -3.89572,-37.96777"
       id="path931"
       inkscape:connector-curvature="0"
       sodipodi:nodetypes="ccccc" />
    <path
       style="display:inline;fill:none;stroke:#c0c0c0;stroke-width:0.37795275;stroke-linecap:round;stroke-linejoin:round;stroke-miterlimit:4;stroke-dasharray:none;stroke-opacity:1"
       d="m 710.61116,789.13852 c 62.4898,1.30206 66.69906,-40.44031 65.94819,-63.46867"
       id="path933"
       inkscape:connector-curvature="0"
       sodipodi:nodetypes="cc" />
    <path
       style="display:inline;fill:none;stroke:#c0c0c0;stroke-width:0.37795275;stroke-linecap:round;stroke-linejoin:round;stroke-miterlimit:4;stroke-dasharray:none;stroke-opacity:1"
       d="m 754.97474,649.04674 c 8.10371,29.06138 14.07145,63.70914 27.88104,77.84743 -0.2353,-2.79772 -1.05727,-5.39987 1.39921,-9.09485 2.04051,-0.0934 4.08101,0.82769 6.12152,4.02272 0.94808,-0.48724 2.07908,-2.62084 3.49802,-7.34584 1.32609,3.87839 3.11086,5.00475 4.89722,6.12153 -3.81322,-29.39447 -7.05607,-60.32868 -23.61056,-87.44794"
       id="path935"
       inkscape:connector-curvature="0"
       sodipodi:nodetypes="ccccccc" />
    <path
       style="display:inline;fill:none;stroke:#c0c0c0;stroke-width:0.37795275;stroke-linecap:round;stroke-linejoin:round;stroke-miterlimit:4;stroke-dasharray:none;stroke-opacity:1"
       d="m 749.53227,670.35613 c -4.08101,11.47529 1.04044,24.62374 1.56066,36.93562 2.47829,-2.99974 4.24167,-6.41999 5.30329,-10.25305 3.35507,3.93645 6.9384,7.54681 12.02081,9.01561 -0.5821,-2.53828 -1.08048,-5.12888 -0.35354,-8.48528"
       id="path937"
       inkscape:connector-curvature="0"
       sodipodi:nodetypes="ccccc" />
    <path
       style="display:inline;fill:none;stroke:#c0c0c0;stroke-width:0.37795275;stroke-linecap:round;stroke-linejoin:round;stroke-miterlimit:4;stroke-dasharray:none;stroke-opacity:1"
       d="m 671.26562,669.84779 1.23438,2.73439 c 2.24173,1.49535 11.98041,-0.32508 15.48548,-1.95841"
       id="path939"
       inkscape:connector-curvature="0"
       sodipodi:nodetypes="ccc" />
    <path
       style="display:inline;fill:none;stroke:#c0c0c0;stroke-width:0.37795275;stroke-linecap:round;stroke-linejoin:round;stroke-miterlimit:4;stroke-dasharray:none;stroke-opacity:1"
       d="m 800.5,734.26968 c -3.73562,17.26078 -0.80079,36.04176 8.78163,52.47096 1.03755,-1.19684 1.36782,-2.87993 1.46836,-4.72097 0.5021,1.63088 1.2072,3.00434 2.0625,3.28125 1.58548,-2.10961 2.80891,-4.67572 7,-3.5 -3.67363,-43.90921 8.64154,-129.45915 -19.70312,-142.82813"
       id="path941"
       inkscape:connector-curvature="0"
       sodipodi:nodetypes="cccccc" />
    <path
       style="display:inline;fill:none;stroke:#c0c0c0;stroke-width:0.37795275;stroke-linecap:round;stroke-linejoin:round;stroke-miterlimit:4;stroke-dasharray:none;stroke-opacity:1"
       d="m 791.66095,719.11814 c -0.11068,9.56626 3.34456,15.84386 7.68751,21.78124"
       id="path943"
       inkscape:connector-curvature="0"
       sodipodi:nodetypes="cc" />
    <path
       style="display:inline;fill:none;stroke:#c0c0c0;stroke-width:0.37795275;stroke-linecap:round;stroke-linejoin:round;stroke-miterlimit:4;stroke-dasharray:none;stroke-opacity:1"
       d="m 819.74436,781.74497 c 1.29324,13.67247 3.9777,19.72465 5.88064,26.5247 1.5717,-2.87982 3.22213,-5.4448 5.12499,-6.99999 1.08334,7.72851 2.16667,8.99561 3.25001,9.5 1.02179,-8.57435 4.47195,-12.24624 2.74999,-35.5 -1.72195,-23.25376 -0.74679,-40.9376 4.75001,-52.5 5.4968,-11.5624 1.89787,-61.14619 -9.85937,-68.95313"
       id="path945"
       inkscape:connector-curvature="0"
       sodipodi:nodetypes="cccczzc" />
    <path
       style="display:inline;fill:none;stroke:#c0c0c0;stroke-width:0.37795275;stroke-linecap:round;stroke-linejoin:round;stroke-miterlimit:4;stroke-dasharray:none;stroke-opacity:1"
       d="m 836.77493,795.8676 c -0.20953,5.42774 -0.35625,10.72986 -0.88388,16.79378 2.62456,-2.38156 3.68489,-5.587 4.77297,-9.1924 -0.16722,3.63019 0.50317,5.7527 1.1466,7.9237 1.94596,-2.43915 2.90937,-6.95257 3.35876,-12.55114 0.71178,3.01924 1.29126,5.64156 2.47487,10.07628 6.64162,-6.81371 7.58745,-20.11998 7.95495,-30.75915 0.061,-22.83815 20.66742,-67.54752 -0.21676,-107.21936"
       id="path947"
       inkscape:connector-curvature="0"
       sodipodi:nodetypes="cccccccc" />
    <path
       style="display:inline;fill:none;stroke:#c0c0c0;stroke-width:0.37795275;stroke-linecap:round;stroke-linejoin:round;stroke-miterlimit:4;stroke-dasharray:none;stroke-opacity:1"
       d="m 854.8479,789.25142 c -2.06985,33.91272 -23.50335,51.30813 -29.12396,76.41171 2.97511,-4.45077 7.30588,-6.92749 12.02082,-6.36396 -1.97228,2.82743 -0.31329,3.57986 0.88388,4.59619 1.78363,-2.92559 8.86097,-4.93053 14.14214,-7.24784 1.55309,1.01121 2.45646,2.18486 3.35875,3.35876 21.59706,-39.03718 43.56295,-92.85239 32.55496,-154.20596"
       id="path949"
       inkscape:connector-curvature="0"
       sodipodi:nodetypes="ccccccc" />
    <path
       style="display:inline;fill:none;stroke:#c0c0c0;stroke-width:0.37795275;stroke-linecap:round;stroke-linejoin:round;stroke-miterlimit:4;stroke-dasharray:none;stroke-opacity:1"
       d="m 912.95308,745.1232 c 13.07167,31.89399 -15.03927,98.31488 -38.9691,120.53993"
       id="path951"
       inkscape:connector-curvature="0"
       sodipodi:nodetypes="cc" />
    <path
       style="display:inline;fill:none;stroke:#c0c0c0;stroke-width:0.37795275;stroke-linecap:round;stroke-linejoin:round;stroke-miterlimit:4;stroke-dasharray:none;stroke-opacity:1"
       d="m 852.67938,856.69948 c -6.03156,9.06526 -4.37884,14.42323 -3.01065,19.18746 0.55164,-3.79136 1.06582,-6.66128 3.52267,-7.93562 -0.2339,3.98239 -0.60904,5.224 2.17868,8.583"
       id="path953"
       inkscape:connector-curvature="0"
       sodipodi:nodetypes="cccc" />
  </g>
</svg>
