<?xml version="1.0" encoding="UTF-8" standalone="no"?>
<!-- Created with Inkscape (http://www.inkscape.org/) -->

<svg
   xmlns:dc="http://purl.org/dc/elements/1.1/"
   xmlns:cc="http://creativecommons.org/ns#"
   xmlns:rdf="http://www.w3.org/1999/02/22-rdf-syntax-ns#"
   xmlns:svg="http://www.w3.org/2000/svg"
   xmlns="http://www.w3.org/2000/svg"
   xmlns:sodipodi="http://sodipodi.sourceforge.net/DTD/sodipodi-0.dtd"
   xmlns:inkscape="http://www.inkscape.org/namespaces/inkscape"
   width="297mm"
   height="210mm"
   id="svg2"
   version="1.1"
   inkscape:version="0.92.3 (2405546, 2018-03-11)"
   sodipodi:docname="PhotoRacingCar-undecorated.svg"
   inkscape:export-filename="/home/christian/SportsCar.svg.png"
   inkscape:export-xdpi="138.06"
   inkscape:export-ydpi="138.06">
  <defs
     id="defs4" />
  <sodipodi:namedview
     id="base"
     pagecolor="#ffffff"
     bordercolor="#666666"
     borderopacity="1.0"
     inkscape:pageopacity="0.0"
     inkscape:pageshadow="2"
     inkscape:zoom="1"
     inkscape:cx="572.18379"
     inkscape:cy="167.85156"
     inkscape:document-units="mm"
     inkscape:current-layer="Mask"
     showgrid="false"
     units="mm"
     inkscape:window-width="1920"
     inkscape:window-height="1080"
     inkscape:window-x="1920"
     inkscape:window-y="0"
     inkscape:window-maximized="0"
     inkscape:snap-global="false" />
  <metadata
     id="metadata7">
    <rdf:RDF>
      <cc:Work
         rdf:about="">
        <dc:format>image/svg+xml</dc:format>
        <dc:type
           rdf:resource="http://purl.org/dc/dcmitype/StillImage" />
        <dc:title />
      </cc:Work>
    </rdf:RDF>
  </metadata>
  <g
     inkscape:label="Mask"
     inkscape:groupmode="layer"
     id="Mask"
     style="display:inline;opacity:1"
     transform="translate(0,-328.81888)">
    <rect
       style="display:inline;opacity:1;fill:none;fill-opacity:1;stroke:#808080;stroke-width:0.779378;stroke-linecap:round;stroke-linejoin:round;stroke-miterlimit:4;stroke-dasharray:none;stroke-dashoffset:0;stroke-opacity:1"
       id="rect814"
       width="566.14978"
       x="401.84705"
       y="537.08258"
       heightx="549.12811"
       height="377.17337" />
  </g>
  <g
     inkscape:groupmode="layer"
     id="layer1"
     inkscape:label="Overlay"
     style="display:inline"
     transform="translate(0,-328.81888)">
    <path
       style="display:inline;opacity:1;vector-effect:none;fill:none;fill-opacity:1;stroke:#c0c0c0;stroke-width:0.37795276;stroke-linecap:round;stroke-linejoin:round;stroke-miterlimit:4;stroke-dasharray:none;stroke-dashoffset:0;stroke-opacity:1"
       d="m 739.98725,308.44876 c 1.98764,0.18279 3.02753,0.3717 2.96099,2.89472 -0.0665,2.52301 -0.80762,4.02654 -0.97226,5.65685 -0.19924,1.97292 0.0954,3.35517 -0.35355,5.21492 -0.43785,1.81369 -3.40295,1.98874 -3.40295,1.98874"
       id="path1065"
       inkscape:connector-curvature="0"
       sodipodi:nodetypes="czssc"
       transform="translate(0,328.81888)" />
    <path
       style="display:inline;opacity:1;vector-effect:none;fill:none;fill-opacity:1;stroke:#c0c0c0;stroke-width:0.37795276;stroke-linecap:round;stroke-linejoin:round;stroke-miterlimit:4;stroke-dasharray:none;stroke-dashoffset:0;stroke-opacity:1"
       d="m 699.875,307.88829 c 0,0 -2.37473,0.14484 -3,1.5 -0.62527,1.35516 0.16115,4.05164 0.1875,6 0.0263,1.94836 -0.64332,5.87455 0.0625,7.5 0.70582,1.62545 2.875,1.8125 2.875,1.8125"
       id="path1067"
       inkscape:connector-curvature="0"
       sodipodi:nodetypes="czzzc"
       transform="translate(0,328.81888)" />
    <path
       style="display:inline;opacity:1;vector-effect:none;fill:none;fill-opacity:1;stroke:#c0c0c0;stroke-width:0.37795276;stroke-linecap:round;stroke-linejoin:round;stroke-miterlimit:4;stroke-dasharray:none;stroke-dashoffset:0;stroke-opacity:1"
       d="m 823.01899,387.90913 c -18.02506,-12.91804 -40.5415,-22.42388 -64.2454,-27.73856 m -72.71386,-4.83614 c -5.06711,0.31921 -7.75506,0.57774 -12.87973,1.17036 l -0.68834,44.32022 c -0.0723,2.31873 -1.77587,2.35354 -3.47437,2.39552 -5.97873,-0.59087 -30.86221,-2.36165 -58.48799,-2.21467 -13.92121,0.0741 -27.59165,0.72152 -37.9043,2.44531 -0.87632,0.14648 -1.79123,0.32181 -2.69922,0.49219 m -55.13476,16.25195 C 483.13955,431.54367 454.5,444.07617 454.5,444.07617"
       id="path901"
       inkscape:connector-curvature="0"
       sodipodi:nodetypes="ccccccssccc"
       transform="translate(0,328.81888)" />
    <path
       style="display:inline;opacity:1;vector-effect:none;fill:none;fill-opacity:1;stroke:#c0c0c0;stroke-width:0.37795276;stroke-linecap:round;stroke-linejoin:round;stroke-miterlimit:4;stroke-dasharray:none;stroke-dashoffset:0;stroke-opacity:1"
       d="m 437.49999,444.0758 h 56.375 v 20.125 h -56.375 z"
       id="path899"
       inkscape:connector-curvature="0"
       sodipodi:nodetypes="ccccc"
       transform="translate(0,328.81888)" />
    <circle
       style="display:inline;opacity:1;vector-effect:none;fill:none;fill-opacity:1;stroke:#c0c0c0;stroke-width:0.37795276;stroke-linecap:round;stroke-linejoin:round;stroke-miterlimit:4;stroke-dasharray:none;stroke-dashoffset:0;stroke-opacity:1"
       id="path897"
       cx="548"
       cy="760.01971"
       r="35.012535" />
    <path
       style="display:inline;opacity:1;vector-effect:none;fill:none;fill-opacity:1;stroke:#c0c0c0;stroke-width:0.37795276;stroke-linecap:round;stroke-linejoin:round;stroke-miterlimit:4;stroke-dasharray:none;stroke-dashoffset:0;stroke-opacity:1"
       d="m 493.82569,784.69941 25.97173,-3.72861 m 60.87051,-8.19873 10.56171,-1.50769 c 2.23323,-0.2173 4.64481,-0.10283 4.5962,6.01041 l 0.35355,13.52342 100.98761,-4.40614 m 16.33585,-0.65612 2.81777,-0.1235 m 18.0876,-0.72494 67.60089,-2.97043"
       id="path909"
       inkscape:connector-curvature="0"
       sodipodi:nodetypes="ccccccccccc" />
    <path
       style="display:inline;opacity:1;vector-effect:none;fill:none;fill-opacity:1;stroke:#c0c0c0;stroke-width:0.37795276;stroke-linecap:round;stroke-linejoin:round;stroke-miterlimit:4;stroke-dasharray:none;stroke-dashoffset:0;stroke-opacity:1"
       d="m 708.56517,337.63902 c -20.69098,6.41275 -23.76867,17.0141 -24.43049,29.72817 l -2.30698,44.31917 15.17246,-0.62316 c 1.22585,-12.70372 0.87339,-31.19053 2.17403,-41.8564 0.39708,-3.25618 0.19822,-6.40844 1.62039,-9.56969"
       id="path984"
       inkscape:connector-curvature="0"
       sodipodi:nodetypes="csccsc"
       transform="translate(0,328.81888)" />
    <path
       style="display:inline;opacity:1;vector-effect:none;fill:none;fill-opacity:1;stroke:#c0c0c0;stroke-width:0.37795276;stroke-linecap:round;stroke-linejoin:round;stroke-miterlimit:4;stroke-dasharray:none;stroke-dashoffset:0;stroke-opacity:1"
       d="m 695.06248,411.0758 0.875,11.1875 0.5,15.3125 0.625,13.5625 0.5,21.24999 0.125,6.0625 -6.375,9.625 c -3.54248,5.5003 -4.17749,14.30165 0.6875,14.375 4.7269,-0.0362 8.09359,-2.6321 13.05622,-9.16475 3.47301,-4.73555 5.87512,-9.40285 8.13128,-14.21025 1.25725,-6.93026 -0.0558,-13.60804 0.25,-20.56249 0.49962,-11.36114 0.93826,-22.87202 1.28217,-34.22097 l 0.0928,-7.34153 0.92862,8.04603 c -0.38662,12.77772 0.89058,24.17117 0.57008,37.85042 -0.13259,5.65907 -0.55553,10.67424 -0.41345,15.90087 2.44641,5.05218 4.85893,10.16462 8.35225,14.57767 2.45812,3.1053 6.66205,8.0423 12.0625,8.0625 8.931,0.0334 7.27269,-9.97635 3.6875,-14.5 -0.2363,-0.29816 -3.55959,-5.0163 -6.0625,-8 -0.0502,-4.58986 0.57508,-9.20668 0.59597,-13.81249 0.0314,-6.91772 -0.44152,-15.32698 -0.59597,-20.75 1.02599,-13.26783 0.91766,-26.49199 0.8125,-39.8125"
       id="path986"
       inkscape:connector-curvature="0"
       sodipodi:nodetypes="ccccccccccscccscssscscc"
       transform="translate(0,328.81888)" />
    <path
       style="display:inline;opacity:1;vector-effect:none;fill:none;fill-opacity:1;stroke:#c0c0c0;stroke-width:0.37795276;stroke-linecap:round;stroke-linejoin:round;stroke-miterlimit:4;stroke-dasharray:none;stroke-dashoffset:0;stroke-opacity:1"
       d="m 733.81248,366.7633 c -6.59083,6.31962 -8.09198,16.88448 -8.625,26 -0.15646,2.67573 0.0217,5.28963 1.625,7.4375 1.58345,2.12124 4.47336,2.96066 7,3.75 4.90367,1.53194 9.62092,2.70786 14.75,3 4.57592,0.26063 12.08598,0.35268 14.3125,-0.8125 2.38251,-1.24681 4.74626,-3.49651 6.125,-6 0.57558,-1.04514 0.7422,-2.32428 0.75,-3.5 0.0362,-5.45014 -0.17298,-11.098 -1.5,-16.4375 -0.83335,-3.35313 -1.84253,-6.83878 -4,-9.5625 -3.15005,-3.97681 -7.72206,-7.24041 -14.6875,-8.0625 -5.34046,-0.6303 -11.58995,0.19864 -15.75,4.1875 z"
       id="path988"
       inkscape:connector-curvature="0"
       sodipodi:nodetypes="ssssssasasss"
       transform="translate(0,328.81888)" />
    <path
       style="display:inline;opacity:1;vector-effect:none;fill:none;fill-opacity:1;stroke:#c0c0c0;stroke-width:0.37795276;stroke-linecap:round;stroke-linejoin:round;stroke-miterlimit:4;stroke-dasharray:none;stroke-dashoffset:0;stroke-opacity:1"
       d="m 768.12498,379.91765 c 0,0 -8.4985,0.76107 -12.0625,0.65815 -6.13144,-0.17707 -14.01882,-1.04761 -18.3125,-1.8125 -8.12603,-1.4476 -8.33891,14.24537 1.125,16.5 7.25609,1.72865 12.56193,1.52424 18.875,1.5625 3.55041,0.0215 11.95613,-0.7721 11.95613,-0.7721"
       id="path990"
       inkscape:connector-curvature="0"
       sodipodi:nodetypes="cssssc"
       transform="translate(0,328.81888)" />
    <path
       style="display:inline;opacity:1;vector-effect:none;fill:none;fill-opacity:1;stroke:#c0c0c0;stroke-width:0.37795276;stroke-linecap:round;stroke-linejoin:round;stroke-miterlimit:4;stroke-dasharray:none;stroke-dashoffset:0;stroke-opacity:1"
       d="m 730.52968,335.58399 c 16.45137,8.22199 27.5277,20.42046 33.14563,34.29468"
       id="path992"
       inkscape:connector-curvature="0"
       sodipodi:nodetypes="cc"
       transform="translate(0,328.81888)" />
    <path
       style="display:inline;opacity:1;vector-effect:none;fill:none;fill-opacity:1;stroke:#c0c0c0;stroke-width:0.37795276;stroke-linecap:round;stroke-linejoin:round;stroke-miterlimit:4;stroke-dasharray:none;stroke-dashoffset:0;stroke-opacity:1"
       d="m 735.81088,365.10569 c 0.46832,-2.51534 0.65605,-4.71601 1.34792,-7.07106 2.22217,1.25444 4.28198,3.11319 5.56847,4.5078"
       id="path994"
       inkscape:connector-curvature="0"
       sodipodi:nodetypes="ccc"
       transform="translate(0,328.81888)" />
    <path
       style="display:inline;opacity:1;vector-effect:none;fill:none;fill-opacity:1;stroke:#c0c0c0;stroke-width:0.37795276;stroke-linecap:round;stroke-linejoin:round;stroke-miterlimit:4;stroke-dasharray:none;stroke-dashoffset:0;stroke-opacity:1"
       d="m 686.31248,411.5133 c 0,0 0.0408,2.05951 -0.15625,3.0625 -0.33402,1.70037 -1.60872,3.17688 -1.71875,4.90625 -0.11429,1.79628 1.0625,5.125 1.125,5.28125 0.0625,0.15625 1.50337,4.39521 3.28125,5.65625 0.76985,0.54605 1.87483,0.7944 2.78125,0.53125 0.67233,-0.19519 1.46496,-0.49491 1.53125,-1.4375 0.0367,-0.52146 -0.27168,-0.8493 -0.90024,-1.3333 -0.63267,-0.48715 -1.67838,-0.13425 -2.2904,-0.64709 -0.75004,-0.6285 -1.62186,-3.05086 -1.55936,-3.36336 0.0625,-0.3125 -0.1741,-2.29834 0.15625,-3.375 0.24001,-0.78223 0.5217,-1.78949 1.28125,-2.09375 0.64032,-0.2565 1.75,0.375 2,0.53125 0.25,0.15625 0.46707,1.49385 0.375,2.21875 -0.0884,0.69556 -0.64917,2.04523 -0.65625,2.75 -0.007,0.68311 0.0615,1.56488 0.46875,2 0.40783,0.4357 1.625,0.34375 1.6875,0.21875 0.0625,-0.125 0.59625,-2.56846 0.77811,-3.82544 0.21922,-1.51519 0.50314,-4.17456 0.44064,-4.48706 -0.0625,-0.3125 -0.80353,-2.98164 -1.21875,-4.46875 -0.22433,-0.80345 -0.6875,-2.40625 -0.6875,-2.40625"
       id="path996"
       inkscape:connector-curvature="0"
       sodipodi:nodetypes="csssssssssssssssssssc"
       transform="translate(0,328.81888)" />
    <path
       style="display:inline;opacity:1;vector-effect:none;fill:none;fill-opacity:1;stroke:#c0c0c0;stroke-width:0.37795276;stroke-linecap:round;stroke-linejoin:round;stroke-miterlimit:4;stroke-dasharray:none;stroke-dashoffset:0;stroke-opacity:1"
       d="m 768.91232,729.21834 c 0,0 2.82657,0.74715 1.66282,2.36001 -1.22303,1.69501 -2.81299,-0.59048 -2.81299,-0.59048"
       id="path998"
       inkscape:connector-curvature="0"
       sodipodi:nodetypes="csc" />
    <path
       style="display:inline;opacity:1;vector-effect:none;fill:none;fill-opacity:1;stroke:#c0c0c0;stroke-width:0.37795276;stroke-linecap:round;stroke-linejoin:round;stroke-miterlimit:4;stroke-dasharray:none;stroke-dashoffset:0;stroke-opacity:1"
       d="m 767.45692,402.48796 c 0,0 2.68373,1.25065 1.0534,2.75049 -1.44063,1.32532 -2.50521,-1.20841 -2.50521,-1.20841"
       id="path1000"
       inkscape:connector-curvature="0"
       sodipodi:nodetypes="csc"
       transform="translate(0,328.81888)" />
    <path
       style="display:inline;opacity:1;vector-effect:none;fill:none;fill-opacity:1;stroke:#c0c0c0;stroke-width:0.37795276;stroke-linecap:round;stroke-linejoin:round;stroke-miterlimit:4;stroke-dasharray:none;stroke-dashoffset:0;stroke-opacity:1"
       d="m 765.68595,733.05113 c 0,0 2.31528,1.53218 0.38571,2.78951 -1.81943,1.18557 -1.94629,-1.61013 -1.94629,-1.61013"
       id="path1002"
       inkscape:connector-curvature="0"
       sodipodi:nodetypes="csc" />
    <path
       style="display:inline;opacity:1;vector-effect:none;fill:none;fill-opacity:1;stroke:#c0c0c0;stroke-width:0.37795276;stroke-linecap:round;stroke-linejoin:round;stroke-miterlimit:4;stroke-dasharray:none;stroke-dashoffset:0;stroke-opacity:1"
       d="m 763.81419,734.46553 c 0,0 1.61594,2.04232 -0.15657,2.45584 -1.50308,0.35066 -1.25247,-1.7516 -1.25247,-1.7516"
       id="path1004"
       inkscape:connector-curvature="0"
       sodipodi:nodetypes="csc" />
    <circle
       style="display:inline;opacity:1;vector-effect:none;fill:none;fill-opacity:1;stroke:#c0c0c0;stroke-width:0.37795276;stroke-linecap:round;stroke-linejoin:round;stroke-miterlimit:4;stroke-dasharray:none;stroke-dashoffset:0;stroke-opacity:1"
       id="path897-7"
       cx="829.42847"
       cy="760.01971"
       r="35.012535" />
    <path
       style="display:inline;opacity:1;vector-effect:none;fill:none;fill-opacity:1;stroke:#c0c0c0;stroke-width:0.37795276;stroke-linecap:round;stroke-linejoin:round;stroke-miterlimit:4;stroke-dasharray:none;stroke-dashoffset:0;stroke-opacity:1"
       d="m 861.60959,746.16209 h 37.12311 l 15.65111,-58.41075 h -83.51008 l -10.26746,38.33969"
       id="path933"
       inkscape:connector-curvature="0"
       sodipodi:nodetypes="ccccc" />
    <path
       style="display:inline;opacity:1;vector-effect:none;fill:none;fill-opacity:1;stroke:#c0c0c0;stroke-width:0.37795276;stroke-linecap:round;stroke-linejoin:round;stroke-miterlimit:4;stroke-dasharray:none;stroke-dashoffset:0;stroke-opacity:1"
       d="m 574.53497,731.80213 c 6.60909,-19.31661 16.27428,-41.4962 36.58205,-41.67825 20.92087,0.24533 40.60615,8.31288 61.82007,8.83884"
       id="path935"
       inkscape:connector-curvature="0"
       sodipodi:nodetypes="ccc" />
    <path
       style="display:inline;opacity:1;vector-effect:none;fill:none;fill-opacity:1;stroke:#c0c0c0;stroke-width:0.37795276;stroke-linecap:round;stroke-linejoin:round;stroke-miterlimit:4;stroke-dasharray:none;stroke-dashoffset:0;stroke-opacity:1"
       d="m 580.35788,731.1468 c 4.06274,-12.05626 14.40127,-35.03258 29.6467,-34.40007 25.11286,-0.24416 42.45501,9.00325 62.80751,9.81738"
       id="path937"
       inkscape:connector-curvature="0"
       sodipodi:nodetypes="ccc" />
    <circle
       style="display:inline;opacity:1;vector-effect:none;fill:none;fill-opacity:1;stroke:#c0c0c0;stroke-width:0.37795276;stroke-linecap:round;stroke-linejoin:round;stroke-miterlimit:4;stroke-dasharray:none;stroke-dashoffset:0;stroke-opacity:1"
       id="path897-3"
       cx="548"
       cy="760.01971"
       r="18.127066" />
    <circle
       style="display:inline;opacity:1;vector-effect:none;fill:none;fill-opacity:1;stroke:#c0c0c0;stroke-width:0.37795276;stroke-linecap:round;stroke-linejoin:round;stroke-miterlimit:4;stroke-dasharray:none;stroke-dashoffset:0;stroke-opacity:1"
       id="path897-3-5"
       cx="829.42847"
       cy="760.01971"
       r="18.127066" />
    <path
       style="display:inline;opacity:1;vector-effect:none;fill:none;fill-opacity:1;stroke:#c0c0c0;stroke-width:0.37795276;stroke-linecap:round;stroke-linejoin:round;stroke-miterlimit:4;stroke-dasharray:none;stroke-dashoffset:0;stroke-opacity:1"
       d="m 725.375,637.20717 c -1.24272,1.54675 -0.27906,3.44829 1.34375,3.6875 1.62281,0.23921 3.22871,-1.68634 2.5,-3.40625 -0.72871,-1.71991 -2.60103,-1.828 -3.84375,-0.28125 z"
       id="path1044"
       inkscape:connector-curvature="0"
       sodipodi:nodetypes="zzzz" />
    <path
       style="display:inline;opacity:1;vector-effect:none;fill:none;fill-opacity:1;stroke:#c0c0c0;stroke-width:0.37795276;stroke-linecap:round;stroke-linejoin:round;stroke-miterlimit:4;stroke-dasharray:none;stroke-dashoffset:0;stroke-opacity:1"
       d="m 707.75,651.26967 c 7.1201,7.40937 14.3456,11.841 22.125,0.625"
       id="path1046"
       inkscape:connector-curvature="0"
       sodipodi:nodetypes="cc" />
    <path
       style="display:inline;opacity:1;vector-effect:none;fill:none;fill-opacity:1;stroke:#c0c0c0;stroke-width:0.37795276;stroke-linecap:round;stroke-linejoin:round;stroke-miterlimit:4;stroke-dasharray:none;stroke-dashoffset:0;stroke-opacity:1"
       d="m 700.875,633.14467 c -2.52102,8.0826 -2.77335,17.85923 1.125,25.375 2.88571,5.56347 9.27758,11.20382 15.53791,11.5 7.08973,0.33542 13.61127,-5.4918 17.64645,-11.33081 4.83621,-6.99813 6.11968,-16.78927 4.06564,-25.04419 -1.34358,-5.39969 -4.75743,-10.69045 -9.875,-12.875 -6.22505,-2.65731 -14.30319,-1.73233 -20.25,1.5 -3.9977,2.17291 -6.89517,6.53132 -8.25,10.875 z"
       id="path1048"
       inkscape:connector-curvature="0"
       sodipodi:nodetypes="ssssssss" />
    <path
       style="display:inline;opacity:1;vector-effect:none;fill:none;fill-opacity:1;stroke:#c0c0c0;stroke-width:0.37795276;stroke-linecap:round;stroke-linejoin:round;stroke-miterlimit:4;stroke-dasharray:none;stroke-dashoffset:0;stroke-opacity:1"
       d="m 714.23948,638.78578 c -0.50181,1.91963 -2.60315,2.27864 -3.76215,1.11784 -1.159,-1.1608 -0.56934,-3.5978 1.24613,-4.03729 1.81548,-0.43948 3.01783,0.99983 2.51602,2.91945 z"
       id="path1044-6"
       inkscape:connector-curvature="0"
       sodipodi:nodetypes="zzzz" />
    <path
       style="opacity:1;vector-effect:none;fill:none;fill-opacity:1;stroke:#c0c0c0;stroke-width:0.37795275;stroke-linecap:round;stroke-linejoin:round;stroke-miterlimit:4;stroke-dasharray:none;stroke-dashoffset:0;stroke-opacity:1"
       d="m 402.06711,795.0197 h 295.30031 m 16.19508,0 h 2.5625 m 18.40625,0 233.19294,0"
       id="path1125"
       inkscape:connector-curvature="0"
       sodipodi:nodetypes="cccccc" />
  </g>
</svg>
