<?xml version="1.0" encoding="UTF-8" standalone="no"?>
<!-- Created with Inkscape (http://www.inkscape.org/) -->

<svg
   xmlns:dc="http://purl.org/dc/elements/1.1/"
   xmlns:cc="http://creativecommons.org/ns#"
   xmlns:rdf="http://www.w3.org/1999/02/22-rdf-syntax-ns#"
   xmlns:svg="http://www.w3.org/2000/svg"
   xmlns="http://www.w3.org/2000/svg"
   xmlns:sodipodi="http://sodipodi.sourceforge.net/DTD/sodipodi-0.dtd"
   xmlns:inkscape="http://www.inkscape.org/namespaces/inkscape"
   width="297mm"
   height="210mm"
   id="svg2"
   version="1.1"
   inkscape:version="0.92.3 (2405546, 2018-03-11)"
   sodipodi:docname="PhotoChild-undecorated.svg"
   inkscape:export-filename="/home/christian/SportsCar.svg.png"
   inkscape:export-xdpi="138.06"
   inkscape:export-ydpi="138.06">
  <defs
     id="defs4" />
  <sodipodi:namedview
     id="base"
     pagecolor="#ffffff"
     bordercolor="#666666"
     borderopacity="1.0"
     inkscape:pageopacity="0.0"
     inkscape:pageshadow="2"
     inkscape:zoom="1"
     inkscape:cx="1163.2449"
     inkscape:cy="383.39247"
     inkscape:document-units="mm"
     inkscape:current-layer="Mask"
     showgrid="false"
     units="mm"
     inkscape:window-width="1920"
     inkscape:window-height="1080"
     inkscape:window-x="1920"
     inkscape:window-y="0"
     inkscape:window-maximized="0"
     inkscape:snap-global="false" />
  <metadata
     id="metadata7">
    <rdf:RDF>
      <cc:Work
         rdf:about="">
        <dc:format>image/svg+xml</dc:format>
        <dc:type
           rdf:resource="http://purl.org/dc/dcmitype/StillImage" />
        <dc:title />
      </cc:Work>
    </rdf:RDF>
  </metadata>
  <g
     inkscape:label="Mask"
     inkscape:groupmode="layer"
     id="Mask"
     style="display:inline;opacity:1"
     transform="translate(0,-328.81888)">
    <rect
       style="display:inline;opacity:1;fill:none;fill-opacity:1;stroke:#808080;stroke-width:0.779378;stroke-linecap:round;stroke-linejoin:round;stroke-miterlimit:4;stroke-dasharray:none;stroke-dashoffset:0;stroke-opacity:1"
       id="rect814"
       width="566.14978"
       x="442.59436"
       y="-873.50861"
       heightx="549.12811"
       height="377.17337"
       transform="rotate(90)" />
  </g>
  <g
     inkscape:groupmode="layer"
     id="layer1"
     inkscape:label="Overlay"
     style="display:inline"
     transform="translate(0,-328.81888)">
    <path
       style="opacity:1;fill:none;fill-opacity:1;stroke:#c0c0c0;stroke-width:0.378;stroke-linecap:round;stroke-linejoin:round;stroke-miterlimit:4;stroke-dasharray:none;stroke-dashoffset:0;stroke-opacity:1"
       d="m 663.68556,489.55556 c -8.21508,6.6971 -10.73579,20.24236 -12.81891,26.97729 -4.70812,-2.01507 -6.34825,1.28103 -7.18607,5.35488 -1.02658,4.99168 -0.48524,14.29131 0.13328,19.4131 0.48361,4.00467 2.83626,8.97125 6.91002,7.01414 2.0634,16.71026 10.33158,29.3337 22.48465,32.6935 0.10004,16.38868 -8.53439,14.92261 -12.78338,15.2041 -4.9515,0.32803 -11.82413,-1.3721 -18.47424,1.56434 -5.33278,2.35475 -12.14307,8.79626 -14.74721,15.97944 -4.85636,13.39565 -11.69187,26.14207 -15.2028,39.95153 -2.7105,10.66115 -5.21007,20.41985 -3.79441,31.32869 2.95457,22.76746 21.68493,46.98168 26.704,63.13257 0.46609,19.26881 1.9106,31.40842 3.91572,32.19283 1.33506,0.52228 0.91612,0.31359 3.71026,-0.17665 -0.21729,10.82845 -0.91329,20.92189 -0.41919,30.92704 0.58997,11.9466 1.52961,23.53021 2.41053,35.45889 2.1377,28.94702 7.88435,69.19347 4.24265,86.97413 -7.6417,12.53066 -13.00599,21.14835 -11.42095,28.24722 1.53414,6.87088 11.61785,6.8029 18.31524,4.63325 11.25877,-3.64733 15.49626,-22.57935 17.85444,-32.52691 0.35818,-9.57256 -2.3362,-16.27185 -0.88388,-24.21841 3.91279,-21.40935 5.65096,-41.4968 4.06586,-65.05382 1.6649,-23.30702 5.27927,-47.34873 6.01041,-74.77654 1.73114,8.57219 1.58075,4.65103 3.0052,13.25825 1.42445,8.60722 2.99872,25.66441 4.06587,38.53732 1.29242,15.59023 2.05582,31.27638 3.57842,46.84582 1.13322,11.58781 6.58217,30.45073 7.24279,39.67163 0.28562,3.0959 0.56749,16.01986 -0.19316,21.50415 0.48935,6.10929 0.58992,8.41508 3.86764,14.8382 3.39269,6.64842 8.47657,13.35321 14.08667,15.62589 10.02135,4.0597 22.56173,3.58769 20.38478,-6.4335 -2.27938,-10.49268 -9.91585,-21.31469 -14.49569,-26.87006 1.01212,-12.54601 2.18915,-45.17511 2.47488,-67.35192 0.0782,-6.06997 0.79638,-4.53678 0.7071,-10.6066 -0.34666,-23.56885 0.14903,-51.55652 -0.7071,-68.68368 2.61092,0.53622 4.88572,0.0185 5.77626,-0.6399 3.00428,-2.22114 2.2406,-30.80051 1.2948,-37.8031 5.2662,-14.17554 21.92623,-38.31809 25.98618,-58.86663 2.06734,-10.46341 2.34093,-19.74991 -0.53034,-30.05204 -4.20704,-15.09491 -8.66057,-31.72937 -18.38477,-44.01739 -5.36543,-6.78005 -13.71781,-13.60337 -20.85965,-13.25826 -6.08513,0.29405 -9.0492,1.54362 -16.97056,1.76777 -7.23321,0.20467 -8.05706,-5.29314 -8.04334,-16.30765 11.68098,-2.17568 25.17183,-17.94053 26.94848,-34.95759 3.03554,0.4264 6.39124,-3.58353 6.98268,-8.83884 0.63541,-5.64602 1.14211,-11.88964 0.30178,-17.59556 -0.41894,-2.84462 -1.7032,-6.59298 -6.31218,-5.38541 -0.85898,-5.66743 -6.87041,-19.91211 -15.96536,-25.41815 -10.22498,-6.19016 -35.34343,-5.71714 -43.2674,0.74264 z"
       id="path904"
       inkscape:connector-curvature="0"
       sodipodi:nodetypes="scssccssssscscsscsscscccssccssscsscscsssssccsscss" />
    <path
       style="opacity:1;fill:none;fill-opacity:1;stroke:#c0c0c0;stroke-width:0.378;stroke-linecap:round;stroke-linejoin:round;stroke-miterlimit:4;stroke-dasharray:none;stroke-dashoffset:0;stroke-opacity:1"
       d="m 641.24998,630.26968 c -3.65622,15.31256 -9.11845,28.85966 -10.62868,42.375 -1.46282,13.09112 2.4395,25.06563 5.59656,37.85253 1.92603,7.80093 2.63834,11.45913 4.52898,19.24344 z"
       id="path906"
       inkscape:connector-curvature="0"
       sodipodi:nodetypes="csscc" />
    <path
       style="opacity:1;fill:none;fill-opacity:1;stroke:#c0c0c0;stroke-width:0.378;stroke-linecap:round;stroke-linejoin:round;stroke-miterlimit:4;stroke-dasharray:none;stroke-dashoffset:0;stroke-opacity:1"
       d="m 640.74998,729.58218 1.78661,50.55492"
       id="path908"
       inkscape:connector-curvature="0"
       sodipodi:nodetypes="cc" />
    <path
       style="opacity:1;fill:none;fill-opacity:1;stroke:#c0c0c0;stroke-width:0.378;stroke-linecap:round;stroke-linejoin:round;stroke-miterlimit:4;stroke-dasharray:none;stroke-dashoffset:0;stroke-opacity:1"
       d="m 724.74998,627.76968 1.25,92.875 c 0,0 14.40642,-34.53803 13.5,-52.625 -0.7152,-14.27127 -14.75,-40.25 -14.75,-40.25 z"
       id="path910"
       inkscape:connector-curvature="0"
       sodipodi:nodetypes="ccsc" />
    <path
       style="opacity:1;fill:none;fill-opacity:1;stroke:#c0c0c0;stroke-width:0.378;stroke-linecap:round;stroke-linejoin:round;stroke-miterlimit:4;stroke-dasharray:none;stroke-dashoffset:0;stroke-opacity:1"
       d="m 726.03659,720.76968 0.70581,59.36374"
       id="path912"
       inkscape:connector-curvature="0"
       sodipodi:nodetypes="cc" />
    <path
       style="opacity:1;fill:none;fill-opacity:1;stroke:#c0c0c0;stroke-width:0.378;stroke-linecap:round;stroke-linejoin:round;stroke-miterlimit:4;stroke-dasharray:none;stroke-dashoffset:0;stroke-opacity:1"
       d="m 640.8674,727.75061 c 10.46925,3.90522 73.16324,3.36613 85.16291,-2.23093"
       id="path914"
       inkscape:connector-curvature="0"
       sodipodi:nodetypes="cc" />
    <path
       style="opacity:1;fill:none;fill-opacity:1;stroke:#c0c0c0;stroke-width:0.378;stroke-linecap:round;stroke-linejoin:round;stroke-miterlimit:4;stroke-dasharray:none;stroke-dashoffset:0;stroke-opacity:1"
       d="m 650.90012,516.52917 c -1.7953,9.98004 -2.00052,20.73858 -0.17678,31.73142"
       id="path916"
       inkscape:connector-curvature="0"
       sodipodi:nodetypes="cc" />
    <path
       style="opacity:1;fill:none;fill-opacity:1;stroke:#c0c0c0;stroke-width:0.378;stroke-linecap:round;stroke-linejoin:round;stroke-miterlimit:4;stroke-dasharray:none;stroke-dashoffset:0;stroke-opacity:1"
       d="m 722.91659,514.24386 c 0.94357,9.85736 0.51426,21.48849 -0.96676,31.8198"
       id="path918"
       inkscape:connector-curvature="0"
       sodipodi:nodetypes="cc" />
    <path
       style="opacity:1;fill:none;fill-opacity:1;stroke:#c0c0c0;stroke-width:0.378;stroke-linecap:round;stroke-linejoin:round;stroke-miterlimit:4;stroke-dasharray:none;stroke-dashoffset:0;stroke-opacity:1"
       d="m 666.96152,513.95274 c -1.36268,2.40718 0.68542,5.517 3.39017,6.09651 2.62247,0.56188 5.87222,-3.69912 4.25996,-6.96079 -1.35883,-2.74897 -6.47641,-1.20907 -7.65013,0.86428 z"
       id="path920"
       inkscape:connector-curvature="0"
       sodipodi:nodetypes="ssss" />
    <path
       style="opacity:1;fill:none;fill-opacity:1;stroke:#c0c0c0;stroke-width:0.378;stroke-linecap:round;stroke-linejoin:round;stroke-miterlimit:4;stroke-dasharray:none;stroke-dashoffset:0;stroke-opacity:1"
       d="m 699.25074,512.91612 c -2.07371,2.68404 0.70726,7.06641 4.09651,6.9349 3.58916,-0.13927 5.31823,-4.48597 2.92601,-7.16529 -1.89785,-2.12562 -5.34565,-1.94002 -7.02252,0.23039 z"
       id="path922"
       inkscape:connector-curvature="0"
       sodipodi:nodetypes="ssss" />
    <path
       style="opacity:1;fill:none;fill-opacity:1;stroke:#c0c0c0;stroke-width:0.378;stroke-linecap:round;stroke-linejoin:round;stroke-miterlimit:4;stroke-dasharray:none;stroke-dashoffset:0;stroke-opacity:1"
       d="m 666.00618,552.68 c 10.72412,13.60715 20.69,22.96937 41.87095,-2.46231 1.00264,-1.59455 -0.0575,-2.7201 -1.06066,-2.12132 -13.39044,7.56021 -24.41075,6.71722 -39.39607,1.93198 -1.61138,-0.4936 -2.24636,1.51544 -1.41422,2.65165 z"
       id="path924"
       inkscape:connector-curvature="0"
       sodipodi:nodetypes="ccccc" />
    <path
       style="opacity:1;fill:none;fill-opacity:1;stroke:#c0c0c0;stroke-width:0.378;stroke-linecap:round;stroke-linejoin:round;stroke-miterlimit:4;stroke-dasharray:none;stroke-dashoffset:0;stroke-opacity:1"
       d="m 636.99998,747.51968 c 0.10731,6.46592 0.41121,19.1122 1.78033,19.39775 1.09031,0.2274 2.24046,0.20953 3.23483,-0.04"
       id="path926"
       inkscape:connector-curvature="0"
       sodipodi:nodetypes="csc" />
    <path
       style="opacity:1;fill:none;fill-opacity:1;stroke:#c0c0c0;stroke-width:0.378;stroke-linecap:round;stroke-linejoin:round;stroke-miterlimit:4;stroke-dasharray:none;stroke-dashoffset:0;stroke-opacity:1"
       d="m 635.9314,757.44991 c 0.14731,7.17419 1.56284,19.12844 3.46101,19.51866 1.27849,0.26283 1.95478,-0.1282 2.99199,-0.38432"
       id="path928"
       inkscape:connector-curvature="0"
       sodipodi:nodetypes="csc" />
    <path
       style="display:inline;opacity:1;fill:none;fill-opacity:1;stroke:#c0c0c0;stroke-width:0.378;stroke-linecap:round;stroke-linejoin:round;stroke-miterlimit:4;stroke-dasharray:none;stroke-dashoffset:0;stroke-opacity:1"
       d="m 731.60605,747.51968 c -0.10731,6.46592 -0.41121,19.1122 -1.78033,19.39775 -1.09031,0.2274 -2.24046,0.20953 -3.23483,-0.04"
       id="path926-3"
       inkscape:connector-curvature="0"
       sodipodi:nodetypes="csc" />
    <path
       style="display:inline;opacity:1;fill:none;fill-opacity:1;stroke:#c0c0c0;stroke-width:0.378;stroke-linecap:round;stroke-linejoin:round;stroke-miterlimit:4;stroke-dasharray:none;stroke-dashoffset:0;stroke-opacity:1"
       d="m 733.17423,757.44991 c -0.14731,7.17419 -1.56284,19.12844 -3.46101,19.51866 -1.27849,0.26283 -1.95478,-0.1282 -2.99199,-0.38432"
       id="path928-7"
       inkscape:connector-curvature="0"
       sodipodi:nodetypes="csc" />
    <path
       style="opacity:1;vector-effect:none;fill:none;fill-opacity:1;stroke:#c0c0c0;stroke-width:0.378;stroke-linecap:round;stroke-linejoin:round;stroke-miterlimit:4;stroke-dasharray:none;stroke-dashoffset:0;stroke-opacity:1"
       d="m 673.18774,581.05266 c 6.91545,0.81466 17.96771,0.86148 21.80982,-0.0442"
       id="path965"
       inkscape:connector-curvature="0"
       sodipodi:nodetypes="cc" />
  </g>
</svg>
