<?xml version="1.0" encoding="UTF-8" standalone="no"?>
<!-- Created with Inkscape (http://www.inkscape.org/) -->

<svg
   xmlns:dc="http://purl.org/dc/elements/1.1/"
   xmlns:cc="http://creativecommons.org/ns#"
   xmlns:rdf="http://www.w3.org/1999/02/22-rdf-syntax-ns#"
   xmlns:svg="http://www.w3.org/2000/svg"
   xmlns="http://www.w3.org/2000/svg"
   xmlns:xlink="http://www.w3.org/1999/xlink"
   xmlns:sodipodi="http://sodipodi.sourceforge.net/DTD/sodipodi-0.dtd"
   xmlns:inkscape="http://www.inkscape.org/namespaces/inkscape"
   width="297mm"
   height="210mm"
   id="svg2"
   version="1.1"
   inkscape:version="0.92.3 (2405546, 2018-03-11)"
   sodipodi:docname="MonsterTruck.svg"
   viewBox="0 0 1052.3622 744.09448"
   inkscape:export-filename="/home/christian/SportsCar.svg.png"
   inkscape:export-xdpi="138.06"
   inkscape:export-ydpi="138.06">
  <defs
     id="defs4" />
  <sodipodi:namedview
     id="base"
     pagecolor="#ffffff"
     bordercolor="#666666"
     borderopacity="1.0"
     inkscape:pageopacity="0.0"
     inkscape:pageshadow="2"
     inkscape:zoom="0.5"
     inkscape:cx="15.748918"
     inkscape:cy="345.92191"
     inkscape:document-units="mm"
     inkscape:current-layer="Mask"
     showgrid="false"
     units="mm"
     inkscape:window-width="1920"
     inkscape:window-height="1015"
     inkscape:window-x="0"
     inkscape:window-y="0"
     inkscape:window-maximized="1"
     inkscape:snap-global="false" />
  <metadata
     id="metadata7">
    <rdf:RDF>
      <cc:Work
         rdf:about="">
        <dc:format>image/svg+xml</dc:format>
        <dc:type
           rdf:resource="http://purl.org/dc/dcmitype/StillImage" />
        <dc:title></dc:title>
      </cc:Work>
    </rdf:RDF>
  </metadata>
  <g
     inkscape:label="Mask"
     inkscape:groupmode="layer"
     id="Mask"
     style="display:inline;opacity:1"
     transform="translate(0,-308.2677)">
    <path
       transform="translate(0,308.2677)"
       style="display:inline;opacity:1;fill:#ffffff;stroke:#808080;stroke-width:0.70866141;stroke-linecap:round;stroke-linejoin:round;stroke-miterlimit:4;stroke-dasharray:none;stroke-opacity:1;fill-opacity:1"
       d="m 407.57812,256.4773 c -7.08,-4.04797 -15.23152,-6.48865 -24.96093,-6.5625 -9.9083,-0.07 -13.3447,30.86345 -5.625,30.9375 l -3.75,11.36719 c -21.47753,8.99927 -39.57549,20.53323 -53.55469,35.15625 -12.04488,11.20506 -5.1541,14.42223 6.32813,7.5 58.28799,-49.30727 135.83265,-55.26477 206.01562,9.84375 5.68444,6.74955 13.4886,0.73803 10.42968,-4.04297 l -3.16406,-3.33984 H 693.75 c -2.30352,2.33789 -4.52307,4.25597 -7.03125,7.61719 -4.91596,5.71039 2.16886,9.39506 6.5625,4.6875 59.94586,-65.838 161.22495,-79.84928 221.8696,0.16085 4.3338,5.24962 10.91885,5.1013 6.5487,-2.65509 -17.33516,-32.05487 -71.7011,-59.04552 -102.2567,-59.37577 v -6.47273 h 5.38616 c 6.11552,-0.37861 6.84987,-22.58973 0,-22.6219 h -5.38616 v -7.45777 h 5.38616 c 6.17065,-0.23589 6.64548,-22.59375 0,-22.20757 h -5.38616 v -25.8544 c 0.74903,-32.68643 -27.91919,-32.89999 -50.45848,-32.8125 h -224.0625 c -6.11097,0.31866 -13.19306,6.76827 -17.8125,14.76563 l -28.82812,54.375 c -36.38229,-0.11125 -68.83267,3.47111 -90.70313,16.99218 z"
       id="path1280"
       inkscape:connector-curvature="0"
       sodipodi:nodetypes="ccccccccccccccccccccccccccccc" />
    <circle
       transform="translate(0,1.5793938e-6)"
       style="display:inline;opacity:1;fill:#ffffff;fill-opacity:1;stroke:#808080;stroke-width:0.70866141;stroke-linecap:round;stroke-linejoin:round;stroke-miterlimit:4;stroke-dasharray:none;stroke-opacity:1"
       id="path1309-3"
       cx="808.125"
       cy="733.61218"
       r="116.26888" />
    <circle
       transform="translate(0,1.5793938e-6)"
       style="display:inline;opacity:1;fill:#ffffff;fill-opacity:1;stroke:#808080;stroke-width:0.70866141;stroke-linecap:round;stroke-linejoin:round;stroke-miterlimit:4;stroke-dasharray:none;stroke-opacity:1"
       id="path1309-3-5"
       cx="421.875"
       cy="733.61218"
       r="116.26889" />
  </g>
  <g
     inkscape:groupmode="layer"
     id="layer1"
     inkscape:label="Overlay"
     style="display:inline"
     transform="translate(0,-308.2677)">
    <path
       transform="translate(0,1.5793938e-6)"
       style="display:inline;opacity:1;fill:none;stroke:#c0c0c0;stroke-width:0.35433072;stroke-linecap:round;stroke-linejoin:round;stroke-miterlimit:4;stroke-dasharray:none;stroke-opacity:1"
       d="m 377.03154,589.23486 c 11.4508,-0.13602 23.8113,-1.92525 30.32826,-13.17538 0.54101,-0.90751 3.91832,-8.61088 0.33145,-11.35239"
       id="path1283"
       inkscape:connector-curvature="0"
       sodipodi:nodetypes="ccc" />
    <path
       transform="translate(0,1.5793938e-6)"
       style="display:inline;opacity:1;fill:none;stroke:#c0c0c0;stroke-width:0.35433072;stroke-linecap:round;stroke-linejoin:round;stroke-miterlimit:4;stroke-dasharray:none;stroke-opacity:1"
       d="m 382.25198,558.32657 -5.22044,30.74257"
       id="path1285"
       inkscape:connector-curvature="0" />
    <path
       transform="translate(0,1.5793938e-6)"
       style="display:inline;opacity:1;fill:none;stroke:#c0c0c0;stroke-width:0.35433072;stroke-linecap:round;stroke-linejoin:round;stroke-miterlimit:4;stroke-dasharray:none;stroke-opacity:1"
       d="M 531.5625,638.45594 H 701.98034"
       id="path1287"
       inkscape:connector-curvature="0"
       sodipodi:nodetypes="cc" />
    <path
       transform="translate(0,1.5793938e-6)"
       style="display:inline;opacity:1;fill:none;stroke:#c0c0c0;stroke-width:0.35433072;stroke-linecap:round;stroke-linejoin:round;stroke-miterlimit:4;stroke-dasharray:none;stroke-opacity:1"
       d="m 373.41797,600.48719 c 45.23062,-9.75782 104.67908,-12.67677 165.87891,45.05859"
       id="path1289"
       inkscape:connector-curvature="0"
       sodipodi:nodetypes="cc" />
    <path
       transform="translate(0,1.5793938e-6)"
       style="display:inline;opacity:1;fill:none;stroke:#c0c0c0;stroke-width:0.35433072;stroke-linecap:round;stroke-linejoin:round;stroke-miterlimit:4;stroke-dasharray:none;stroke-opacity:1"
       d="m 819.31641,596.00477 c -55.78942,-1.2491 -99.23297,25.79285 -125.44922,49.48242"
       id="path1291"
       inkscape:connector-curvature="0"
       sodipodi:nodetypes="cc" />
    <path
       transform="translate(0,1.5793938e-6)"
       style="display:inline;opacity:1;fill:none;stroke:#c0c0c0;stroke-width:0.35433072;stroke-linecap:round;stroke-linejoin:round;stroke-miterlimit:4;stroke-dasharray:none;stroke-opacity:1"
       d="m 642.65625,547.75282 h 75 v -48.10863 c -0.29816,-4.5024 -2.60887,-7.48679 -7.37651,-7.907 h -59.90577 c -4.27976,-0.46922 -7.6898,2.76234 -7.71772,7.907 z"
       id="path1293"
       inkscape:connector-curvature="0"
       sodipodi:nodetypes="ccccccc" />
    <path
       transform="translate(0,1.5793938e-6)"
       style="display:inline;opacity:1;fill:none;stroke:#c0c0c0;stroke-width:0.35433072;stroke-linecap:round;stroke-linejoin:round;stroke-miterlimit:4;stroke-dasharray:none;stroke-opacity:1"
       d="m 736.875,547.75282 h 72.65625 v -48.10863 c -0.12542,-3.567 -4.12315,-7.62321 -8.5366,-7.907 h -55.24671 c -4.9022,0.23951 -9.30721,4.35291 -8.87294,7.907 z"
       id="path1295"
       inkscape:connector-curvature="0"
       sodipodi:nodetypes="ccccccc" />
    <path
       transform="translate(0,1.5793938e-6)"
       style="display:inline;opacity:1;fill:none;stroke:#c0c0c0;stroke-width:0.35433072;stroke-linecap:round;stroke-linejoin:round;stroke-miterlimit:4;stroke-dasharray:none;stroke-opacity:1"
       d="m 498.26169,547.76139 h 17.56718 c 5.45656,-0.23395 7.47345,-2.50305 8.70073,-5.84191 l 15.57845,-50.87854 c 0.51871,-2.15801 0.48522,-3.73002 -2.48592,-3.97748 h -5.96622"
       id="path1297"
       inkscape:connector-curvature="0"
       sodipodi:nodetypes="cccccc" />
    <path
       transform="translate(0,1.5793938e-6)"
       style="display:inline;opacity:1;fill:none;stroke:#c0c0c0;stroke-width:0.35433072;stroke-linecap:round;stroke-linejoin:round;stroke-miterlimit:4;stroke-dasharray:none;stroke-opacity:1"
       d="m 543.98437,491.73719 -15.23437,50.625 -2.34375,11.25 v 58.82813 c 8.30294,5.43971 13.84835,11.51577 16.40625,18.28125 h 67.18199 c 4.04565,-0.0473 4.55748,-0.39013 4.53676,-4.02957 V 491.73719 c -0.3508,-2.93045 -2.88483,-3.67767 -5.85938,-3.98437 H 548.4375 c -2.21749,0.22054 -3.75,1.97265 -4.45313,3.98437 z"
       id="path1299"
       inkscape:connector-curvature="0"
       sodipodi:nodetypes="ccccccccccc" />
    <path
       transform="translate(0,1.5793938e-6)"
       style="display:inline;opacity:1;fill:none;stroke:#c0c0c0;stroke-width:0.35433072;stroke-linecap:round;stroke-linejoin:round;stroke-miterlimit:4;stroke-dasharray:none;stroke-opacity:1"
       d="M 548.20312,494.61346 534.375,542.59657 c -1.13829,4.08208 0.6947,5.01811 3.28125,5.15625 h 66.90573 c 4.00732,-0.11653 5.02741,-1.15649 5.15625,-3.98437 v -49.38937 c -0.40289,-2.03304 -1.61071,-2.50014 -4.93644,-2.85007 h -50.95367 c -3.78401,0.20255 -4.66016,1.15355 -5.625,3.08445 z"
       id="path1301"
       inkscape:connector-curvature="0"
       sodipodi:nodetypes="ccccccccc" />
    <path
       transform="translate(0,1.5793938e-6)"
       style="display:inline;opacity:1;fill:none;stroke:#c0c0c0;stroke-width:0.35433072;stroke-linecap:round;stroke-linejoin:round;stroke-miterlimit:4;stroke-dasharray:none;stroke-opacity:1"
       d="m 585.1861,568.76744 h 23.86486 c -0.077,-3.10727 -0.38993,-5.79803 -2.3202,-5.63476 h -19.39019 c -1.81261,-0.0188 -1.95334,2.86032 -2.15447,5.63476 z"
       id="path1303"
       inkscape:connector-curvature="0"
       sodipodi:nodetypes="ccccc" />
    <path
       transform="translate(0,1.5793938e-6)"
       style="display:inline;opacity:1;fill:none;stroke:#c0c0c0;stroke-width:0.35433072;stroke-linecap:round;stroke-linejoin:round;stroke-miterlimit:4;stroke-dasharray:none;stroke-opacity:1"
       d="m 819.40142,537.19623 v 22.249"
       id="path1305"
       inkscape:connector-curvature="0" />
    <path
       transform="translate(0,1.5793938e-6)"
       style="display:inline;opacity:1;fill:none;stroke:#c0c0c0;stroke-width:0.35433072;stroke-linecap:round;stroke-linejoin:round;stroke-miterlimit:4;stroke-dasharray:none;stroke-opacity:1"
       d="m 819.52571,566.98586 -0.0414,22.45617"
       id="path1307"
       inkscape:connector-curvature="0" />
    <circle
       transform="translate(0,1.5793938e-6)"
       style="display:inline;opacity:1;fill:none;fill-opacity:1;stroke:#c0c0c0;stroke-width:0.35433072;stroke-linecap:round;stroke-linejoin:round;stroke-miterlimit:4;stroke-dasharray:none;stroke-opacity:1"
       id="path1341"
       cx="421.875"
       cy="733.61218"
       r="62.8125" />
    <circle
       transform="translate(0,1.5793938e-6)"
       style="display:inline;opacity:1;fill:none;fill-opacity:1;stroke:#c0c0c0;stroke-width:0.35433072;stroke-linecap:round;stroke-linejoin:round;stroke-miterlimit:4;stroke-dasharray:none;stroke-opacity:1"
       id="path1341-6"
       cx="808.125"
       cy="733.61218"
       r="62.8125" />
  </g>
</svg>
