<?xml version="1.0" encoding="UTF-8" standalone="no"?>
<!-- Created with Inkscape (http://www.inkscape.org/) -->

<svg
   xmlns:dc="http://purl.org/dc/elements/1.1/"
   xmlns:cc="http://creativecommons.org/ns#"
   xmlns:rdf="http://www.w3.org/1999/02/22-rdf-syntax-ns#"
   xmlns:svg="http://www.w3.org/2000/svg"
   xmlns="http://www.w3.org/2000/svg"
   xmlns:sodipodi="http://sodipodi.sourceforge.net/DTD/sodipodi-0.dtd"
   xmlns:inkscape="http://www.inkscape.org/namespaces/inkscape"
   width="297mm"
   height="210mm"
   id="svg2"
   version="1.1"
   inkscape:version="0.92.3 (2405546, 2018-03-11)"
   sodipodi:docname="MonsterTruck-undecorated.svg"
   inkscape:export-filename="/home/christian/SportsCar.svg.png"
   inkscape:export-xdpi="138.06"
   inkscape:export-ydpi="138.06">
  <defs
     id="defs4" />
  <sodipodi:namedview
     id="base"
     pagecolor="#ffffff"
     bordercolor="#666666"
     borderopacity="1.0"
     inkscape:pageopacity="0.0"
     inkscape:pageshadow="2"
     inkscape:zoom="0.5"
     inkscape:cx="-576.25108"
     inkscape:cy="345.92191"
     inkscape:document-units="mm"
     inkscape:current-layer="Mask"
     showgrid="false"
     units="mm"
     inkscape:window-width="1920"
     inkscape:window-height="1080"
     inkscape:window-x="1920"
     inkscape:window-y="0"
     inkscape:window-maximized="0"
     inkscape:snap-global="false" />
  <metadata
     id="metadata7">
    <rdf:RDF>
      <cc:Work
         rdf:about="">
        <dc:format>image/svg+xml</dc:format>
        <dc:type
           rdf:resource="http://purl.org/dc/dcmitype/StillImage" />
        <dc:title></dc:title>
      </cc:Work>
    </rdf:RDF>
  </metadata>
  <g
     inkscape:label="Mask"
     inkscape:groupmode="layer"
     id="Mask"
     style="display:inline;opacity:1"
     transform="translate(0,-328.81888)">
    <path
       style="display:inline;opacity:1;fill:#ffffff;fill-opacity:1;stroke:#808080;stroke-width:0.75590551;stroke-linecap:round;stroke-linejoin:round;stroke-miterlimit:4;stroke-dasharray:none;stroke-opacity:1"
       d="m 434.74999,602.39467 c -7.552,-4.31784 -16.24695,-6.92123 -26.62499,-7 -10.56885,-0.0747 -14.23434,32.92101 -6,33 l -4,12.125 c -22.90936,9.59922 -42.21385,21.90211 -57.125,37.5 -12.84787,11.95206 -5.49771,15.38371 6.75001,8 62.17385,-52.59442 144.88816,-58.94909 219.74999,10.5 6.0634,7.19952 14.38784,0.78723 11.12499,-4.3125 l -3.375,-3.5625 H 740 c -2.45709,2.49375 -4.82461,4.5397 -7.5,8.125 -5.24369,6.09109 2.31345,10.0214 7,5 63.94225,-70.2272 171.97328,-85.17256 236.66091,0.17158 4.62272,5.59959 11.64677,5.44138 6.98528,-2.8321 C 964.65535,664.91729 906.66501,636.12726 874.07237,635.775 v -6.90425 h 5.74524 c 6.52322,-0.40385 7.30653,-24.09571 0,-24.13002 h -5.74524 v -7.95496 h 5.74524 c 6.58203,-0.25162 7.08851,-24.1 0,-23.68807 h -5.74524 v -27.57803 c 0.79897,-34.86553 -29.78047,-35.09332 -53.82238,-35 h -239 c -6.51836,0.3399 -14.07259,7.21949 -19,15.75 l -30.74999,58 c -38.80778,-0.11866 -73.42151,3.70252 -96.75001,18.125 z"
       id="path1280"
       inkscape:connector-curvature="0"
       sodipodi:nodetypes="ccccccccccccccccccccccccccccc" />
    <circle
       style="display:inline;opacity:1;fill:#ffffff;fill-opacity:1;stroke:#808080;stroke-width:0.75590551;stroke-linecap:round;stroke-linejoin:round;stroke-miterlimit:4;stroke-dasharray:none;stroke-opacity:1"
       id="path1309-3"
       cx="862"
       cy="782.51965"
       r="124.02014" />
    <circle
       style="display:inline;opacity:1;fill:#ffffff;fill-opacity:1;stroke:#808080;stroke-width:0.75590551;stroke-linecap:round;stroke-linejoin:round;stroke-miterlimit:4;stroke-dasharray:none;stroke-opacity:1"
       id="path1309-3-5"
       cx="450"
       cy="782.51965"
       r="124.02015" />
  </g>
  <g
     inkscape:groupmode="layer"
     id="layer1"
     inkscape:label="Overlay"
     style="display:inline"
     transform="translate(0,-328.81888)">
    <path
       style="display:inline;opacity:1;fill:none;stroke:#c0c0c0;stroke-width:0.37795275;stroke-linecap:round;stroke-linejoin:round;stroke-miterlimit:4;stroke-dasharray:none;stroke-opacity:1"
       d="m 402.16698,628.51719 c 12.21418,-0.14509 25.39872,-2.0536 32.35014,-14.05374 0.57708,-0.96801 4.17954,-9.18494 0.35355,-12.10922"
       id="path1283"
       inkscape:connector-curvature="0"
       sodipodi:nodetypes="ccc" />
    <path
       style="display:inline;opacity:1;fill:none;stroke:#c0c0c0;stroke-width:0.37795275;stroke-linecap:round;stroke-linejoin:round;stroke-miterlimit:4;stroke-dasharray:none;stroke-opacity:1"
       d="m 407.73545,595.54834 -5.56847,32.79208"
       id="path1285"
       inkscape:connector-curvature="0" />
    <path
       style="display:inline;opacity:1;fill:none;stroke:#c0c0c0;stroke-width:0.37795275;stroke-linecap:round;stroke-linejoin:round;stroke-miterlimit:4;stroke-dasharray:none;stroke-opacity:1"
       d="M 567,681.01967 H 748.77903"
       id="path1287"
       inkscape:connector-curvature="0"
       sodipodi:nodetypes="cc" />
    <path
       style="display:inline;opacity:1;fill:none;stroke:#c0c0c0;stroke-width:0.37795275;stroke-linecap:round;stroke-linejoin:round;stroke-miterlimit:4;stroke-dasharray:none;stroke-opacity:1"
       d="m 398.3125,640.51967 c 48.246,-10.40834 111.65769,-13.52189 176.93751,48.0625"
       id="path1289"
       inkscape:connector-curvature="0"
       sodipodi:nodetypes="cc" />
    <path
       style="display:inline;opacity:1;fill:none;stroke:#c0c0c0;stroke-width:0.37795275;stroke-linecap:round;stroke-linejoin:round;stroke-miterlimit:4;stroke-dasharray:none;stroke-opacity:1"
       d="M 873.9375,635.73842 C 814.42879,634.40605 768.089,663.2508 740.125,688.51967"
       id="path1291"
       inkscape:connector-curvature="0"
       sodipodi:nodetypes="cc" />
    <path
       style="display:inline;opacity:1;fill:none;stroke:#c0c0c0;stroke-width:0.37795275;stroke-linecap:round;stroke-linejoin:round;stroke-miterlimit:4;stroke-dasharray:none;stroke-opacity:1"
       d="m 685.5,584.26968 h 80 V 532.9538 c -0.31804,-4.80256 -2.78279,-7.9859 -7.86828,-8.43413 h -63.89949 c -4.56507,-0.5005 -8.20245,2.9465 -8.23223,8.43413 z"
       id="path1293"
       inkscape:connector-curvature="0"
       sodipodi:nodetypes="ccccccc" />
    <path
       style="display:inline;opacity:1;fill:none;stroke:#c0c0c0;stroke-width:0.37795275;stroke-linecap:round;stroke-linejoin:round;stroke-miterlimit:4;stroke-dasharray:none;stroke-opacity:1"
       d="m 786,584.26968 h 77.5 V 532.9538 c -0.13378,-3.8048 -4.39803,-8.13142 -9.10571,-8.43413 h -58.92982 c -5.22901,0.25548 -9.92769,4.64311 -9.46447,8.43413 z"
       id="path1295"
       inkscape:connector-curvature="0"
       sodipodi:nodetypes="ccccccc" />
    <path
       style="display:inline;opacity:1;fill:none;stroke:#c0c0c0;stroke-width:0.37795275;stroke-linecap:round;stroke-linejoin:round;stroke-miterlimit:4;stroke-dasharray:none;stroke-opacity:1"
       d="m 531.47914,584.27882 h 18.73832 c 5.82033,-0.24955 7.97168,-2.66992 9.28078,-6.23137 L 576.11525,523.777 c 0.55329,-2.30187 0.51757,-3.97868 -2.65164,-4.24264 h -6.36397"
       id="path1297"
       inkscape:connector-curvature="0"
       sodipodi:nodetypes="cccccc" />
    <path
       style="display:inline;opacity:1;fill:none;stroke:#c0c0c0;stroke-width:0.37795275;stroke-linecap:round;stroke-linejoin:round;stroke-miterlimit:4;stroke-dasharray:none;stroke-opacity:1"
       d="m 580.24999,524.51967 -16.24999,54 -2.5,12 v 62.75001 c 8.85647,5.80235 14.77157,12.28348 17.5,19.5 h 71.66079 c 4.31536,-0.0505 4.86131,-0.41614 4.83921,-4.29821 v -143.9518 c -0.37419,-3.12581 -3.07715,-3.92285 -6.25001,-4.24999 H 585 c -2.36532,0.23524 -4,2.10416 -4.75001,4.24999 z"
       id="path1299"
       inkscape:connector-curvature="0"
       sodipodi:nodetypes="ccccccccccc" />
    <path
       style="display:inline;opacity:1;fill:none;stroke:#c0c0c0;stroke-width:0.37795275;stroke-linecap:round;stroke-linejoin:round;stroke-miterlimit:4;stroke-dasharray:none;stroke-opacity:1"
       d="M 584.74999,527.58769 570,578.76968 c -1.21418,4.35422 0.74101,5.35265 3.5,5.5 h 71.36611 c 4.27448,-0.1243 5.36257,-1.23359 5.5,-4.25 v -52.68199 c -0.42975,-2.16858 -1.71809,-2.66682 -5.26553,-3.04008 h -54.35059 c -4.03627,0.21606 -4.97083,1.23046 -6,3.29008 z"
       id="path1301"
       inkscape:connector-curvature="0"
       sodipodi:nodetypes="ccccccccc" />
    <path
       style="display:inline;opacity:1;fill:none;stroke:#c0c0c0;stroke-width:0.37795275;stroke-linecap:round;stroke-linejoin:round;stroke-miterlimit:4;stroke-dasharray:none;stroke-opacity:1"
       d="m 624.19851,606.68527 h 25.45585 c -0.0821,-3.31442 -0.41593,-6.18456 -2.47488,-6.01041 h -20.68287 c -1.93345,-0.02 -2.08356,3.05101 -2.2981,6.01041 z"
       id="path1303"
       inkscape:connector-curvature="0"
       sodipodi:nodetypes="ccccc" />
    <path
       style="display:inline;opacity:1;fill:none;stroke:#c0c0c0;stroke-width:0.37795275;stroke-linecap:round;stroke-linejoin:round;stroke-miterlimit:4;stroke-dasharray:none;stroke-opacity:1"
       d="m 874.02818,573.00931 v 23.73227"
       id="path1305"
       inkscape:connector-curvature="0" />
    <path
       style="display:inline;opacity:1;fill:none;stroke:#c0c0c0;stroke-width:0.37795275;stroke-linecap:round;stroke-linejoin:round;stroke-miterlimit:4;stroke-dasharray:none;stroke-opacity:1"
       d="m 874.16076,604.78492 -0.0442,23.95325"
       id="path1307"
       inkscape:connector-curvature="0" />
    <circle
       style="display:inline;opacity:1;fill:none;fill-opacity:1;stroke:#c0c0c0;stroke-width:0.37795275;stroke-linecap:round;stroke-linejoin:round;stroke-miterlimit:4;stroke-dasharray:none;stroke-opacity:1"
       id="path1341"
       cx="450"
       cy="782.51965"
       r="67" />
    <circle
       style="display:inline;opacity:1;fill:none;fill-opacity:1;stroke:#c0c0c0;stroke-width:0.37795275;stroke-linecap:round;stroke-linejoin:round;stroke-miterlimit:4;stroke-dasharray:none;stroke-opacity:1"
       id="path1341-6"
       cx="862"
       cy="782.51965"
       r="67" />
  </g>
</svg>
