<?xml version="1.0" encoding="UTF-8" standalone="no"?>
<!-- Created with Inkscape (http://www.inkscape.org/) -->

<svg
   xmlns:dc="http://purl.org/dc/elements/1.1/"
   xmlns:cc="http://creativecommons.org/ns#"
   xmlns:rdf="http://www.w3.org/1999/02/22-rdf-syntax-ns#"
   xmlns:svg="http://www.w3.org/2000/svg"
   xmlns="http://www.w3.org/2000/svg"
   xmlns:sodipodi="http://sodipodi.sourceforge.net/DTD/sodipodi-0.dtd"
   xmlns:inkscape="http://www.inkscape.org/namespaces/inkscape"
   width="297mm"
   height="210mm"
   id="svg2"
   version="1.1"
   inkscape:version="0.92.3 (2405546, 2018-03-11)"
   sodipodi:docname="FlyingSaucer-undecorated.svg"
   viewBox="0 0 1052.3622 744.09448">
  <defs
     id="defs4" />
  <sodipodi:namedview
     id="base"
     pagecolor="#ffffff"
     bordercolor="#666666"
     borderopacity="1.0"
     inkscape:pageopacity="0.0"
     inkscape:pageshadow="2"
     inkscape:zoom="1.190709"
     inkscape:cx="409.86384"
     inkscape:cy="372.04724"
     inkscape:document-units="mm"
     inkscape:current-layer="Mask"
     showgrid="false"
     units="mm"
     inkscape:window-width="1920"
     inkscape:window-height="1080"
     inkscape:window-x="1920"
     inkscape:window-y="0"
     inkscape:window-maximized="0" />
  <metadata
     id="metadata7">
    <rdf:RDF>
      <cc:Work
         rdf:about="">
        <dc:format>image/svg+xml</dc:format>
        <dc:type
           rdf:resource="http://purl.org/dc/dcmitype/StillImage" />
        <dc:title />
      </cc:Work>
    </rdf:RDF>
  </metadata>
  <g
     inkscape:label="Mask"
     inkscape:groupmode="layer"
     id="Mask"
     style="display:inline"
     transform="translate(0,-308.2677)">
    <path
       style="color:#000000;display:inline;overflow:visible;visibility:visible;fill:#ffffff;stroke:#808080;stroke-width:0.70866144;stroke-linecap:butt;stroke-linejoin:miter;stroke-miterlimit:4;stroke-dasharray:none;stroke-dashoffset:0;stroke-opacity:1;marker:none;enable-background:accumulate"
       d="m 662.36094,533.80479 c -126.95568,-0.0671 -146.84862,88.12457 -146.6875,187.5 0,0 -52.18215,-2.84179 -112.90625,38 -14.16594,9.52772 -22.34375,19.32583 -22.34375,29.9375 0,6.3302 2.11489,12.45961 7.0625,17.4375 4.94761,4.97789 0.68216,2.56384 13.875,12.15625 13.19284,9.59241 70.75522,28.43607 98.65625,33.34375 27.90103,4.90768 -4.06578,-0.35009 18.8125,3.46875 22.87828,3.81884 104.86287,10.17676 132.5625,10.40625 27.69963,0.22949 -9.5236,0.16663 18.81255,5e-5 28.33615,-0.16658 112.55322,-6.57542 135.84153,-10.45581 23.28831,-3.88039 -9.16476,1.48022 18.72097,-3.41919 27.88573,-4.89941 85.46338,-23.75134 98.65625,-33.34375 13.19287,-9.59241 8.92743,-7.17836 13.875,-12.15625 4.94757,-4.97789 7.0625,-11.1073 7.0625,-17.4375 0,-10.61167 -8.17785,-20.40978 -22.34375,-29.9375 -60.7241,-40.84179 -112.90625,-38 -112.90625,-38 0.16112,-99.37543 -19.73182,-187.56714 -146.6875,-187.5 -0.0211,10e-6 -0.0414,-2e-5 -0.0625,0 z"
       id="path2992"
       inkscape:connector-curvature="0"
       sodipodi:nodetypes="ccsszzzzzzzzzzsscccc" />
  </g>
  <g
     inkscape:groupmode="layer"
     id="layer1"
     inkscape:label="Overlay"
     style="display:inline"
     transform="translate(0,-308.2677)">
    <path
       style="fill:none;stroke:#c0c0c0;stroke-width:0.35433071;stroke-linecap:butt;stroke-linejoin:miter;stroke-miterlimit:4;stroke-dasharray:none;stroke-opacity:1"
       d="m 515.59777,721.30891 c 3.24842,25.10517 98.33145,36.97147 147.24781,37.00445 48.91636,0.033 141.16606,-9.76735 146.24781,-36.99545"
       id="path3881"
       inkscape:connector-curvature="0"
       sodipodi:nodetypes="csc" />
  </g>
</svg>
