<?xml version="1.0" encoding="UTF-8" standalone="no"?>
<!-- Created with Inkscape (http://www.inkscape.org/) -->

<svg
   xmlns:dc="http://purl.org/dc/elements/1.1/"
   xmlns:cc="http://creativecommons.org/ns#"
   xmlns:rdf="http://www.w3.org/1999/02/22-rdf-syntax-ns#"
   xmlns:svg="http://www.w3.org/2000/svg"
   xmlns="http://www.w3.org/2000/svg"
   xmlns:sodipodi="http://sodipodi.sourceforge.net/DTD/sodipodi-0.dtd"
   xmlns:inkscape="http://www.inkscape.org/namespaces/inkscape"
   width="297mm"
   height="210mm"
   id="svg2"
   version="1.1"
   inkscape:version="0.92.3 (2405546, 2018-03-11)"
   sodipodi:docname="Parrot-undecorated.svg">
  <defs
     id="defs4" />
  <sodipodi:namedview
     id="base"
     pagecolor="#ffffff"
     bordercolor="#666666"
     borderopacity="1.0"
     inkscape:pageopacity="0.0"
     inkscape:pageshadow="2"
     inkscape:zoom="1.0107258"
     inkscape:cx="870.99619"
     inkscape:cy="439.67042"
     inkscape:document-units="mm"
     inkscape:current-layer="Mask"
     showgrid="false"
     units="mm"
     inkscape:window-width="1920"
     inkscape:window-height="1080"
     inkscape:window-x="1920"
     inkscape:window-y="0"
     inkscape:window-maximized="0"
     guidetolerance="1"
     objecttolerance="1" />
  <metadata
     id="metadata7">
    <rdf:RDF>
      <cc:Work
         rdf:about="">
        <dc:format>image/svg+xml</dc:format>
        <dc:type
           rdf:resource="http://purl.org/dc/dcmitype/StillImage" />
        <dc:title />
      </cc:Work>
    </rdf:RDF>
  </metadata>
  <g
     inkscape:label="Mask"
     inkscape:groupmode="layer"
     id="Mask"
     style="display:inline"
     transform="translate(0,-328.81888)">
    <path
       style="fill:#ffffff;fill-opacity:1;stroke:#808080;stroke-width:0.75590551;stroke-linecap:round;stroke-linejoin:round;stroke-miterlimit:4;stroke-dasharray:none;stroke-opacity:1"
       d="m 449.84474,830.08561 c -50.05983,7.6192 -99.16195,16.31709 -138.23161,45.51663 -6.94328,5.18921 -15.43929,14.03119 -4.28978,20.36608 -3.33996,36.24862 1.40831,59.26575 33.68251,72.0173 -5.03744,-8.07363 -7.9105,-16.95891 -9.21895,-26.43092 10.22304,1.25577 22.07752,-1.24075 36.95485,-10.68985 5.28533,2.98219 12.36704,7.07511 18.3136,6.26001 29.02937,-3.97906 57.43533,-5.27498 86.75078,1.39922 74.7552,17.01939 143.68514,1.6675 210.10836,-36.39061 25.93641,1.47193 84.19233,12.13931 84.59268,-6.67836 13.96146,-0.82177 38.26438,-1.63615 36.11267,-15.58287 13.74412,-1.30888 37.57744,-2.70404 33.88654,-21.76653 25.82544,-0.38803 59.57142,0.83845 85.00135,3.07067 25.42993,2.23222 70.00324,5.81997 71.48444,-7.8603 9.17522,-0.44898 21.79982,0.82035 17.89382,-12.77201 4.924,-1.15478 8.9747,-13.75401 5.1943,-13.35674 -106.46314,5.38786 -206.11354,-3.01923 -324.02457,2.89828 3.22156,-10.29811 5.13185,-20.85848 3.71021,-32.08523 4.25111,-7.71351 3.17832,-16.09251 0,-24.7347 4.16188,-6.66762 6.29562,-14.49417 0.74204,-26.71348 2.72688,-7.29396 2.71107,-14.74925 -2.47347,-22.50858 1.7688,-4.79106 0.91477,-10.10668 -1.97878,-15.83021 1.7173,-9.76314 -0.68778,-17.46509 -6.43102,-23.49796 0.76686,-9.21998 4.32085,-21.62806 -1.97878,-27.95022 2.54124,-15.78996 -2.69875,-19.38343 -5.68898,-23.74531 0.15517,-7.79597 -1.038,-19.07167 -15.37795,-21.7708 1.11435,-13.4106 4.94417,-30.25546 -9.1094,-24.48309 3.18019,-26.32036 -4.57911,-28.93852 -15.28065,-25.18181 7.39757,-6.92425 -5.78277,-30.21307 -9.29674,-26.74349 l -23.16059,22.24365 c 30.78418,-35.8325 9.33348,-44.55614 8.11487,-43.35817 l -28.89202,25.30184 c 32.67431,-31.81101 10.57343,-52.00611 7.96997,-49.42181 l -25.28426,29.8814 c 27.98101,-34.652 6.67873,-53.75403 1.2916,-46.45365 l -26.27365,37.05446 c 23.02286,-35.00064 -1.88972,-50.82609 -4.52984,-44.26997 l -26.14119,54.65855 c 23.13607,-64.38294 -10.03036,-62.37163 -10.63592,-60.60002 -20.17028,72.19095 -37.25338,145.70498 -66.04165,214.20251 -5.83341,14.09011 -10.23872,29.01328 -0.4947,52.19022 19.52448,39.34941 13.39768,70.68279 13.02991,103.81587 z"
       id="path889"
       inkscape:connector-curvature="0"
       sodipodi:nodetypes="csccccsscccccccccccccccccccccccccccccccccc" />
  </g>
  <g
     inkscape:groupmode="layer"
     id="layer1"
     inkscape:label="Overlay"
     style="display:inline"
     transform="translate(0,-328.81888)">
    <path
       style="fill:none;stroke:#c0c0c0;stroke-width:0.37795275;stroke-linecap:round;stroke-linejoin:round;stroke-miterlimit:4;stroke-dasharray:none;stroke-opacity:1"
       d="m 307.32335,895.96832 c 5.15357,4.07736 11.1238,6.69704 17.69063,8.14393 9.08194,2.00105 16.4544,6.75598 23.49797,12.12 6.60138,5.02727 12.95998,10.28163 20.22981,14.6326"
       id="path891"
       inkscape:connector-curvature="0"
       sodipodi:nodetypes="cssc" />
    <path
       style="fill:none;stroke:#c0c0c0;stroke-width:0.37795275;stroke-linecap:round;stroke-linejoin:round;stroke-miterlimit:4;stroke-dasharray:none;stroke-opacity:1"
       d="m 331.78673,941.40994 c -1.21287,-12.58714 -0.76402,-25.34909 2.09881,-34.10565"
       id="path893"
       inkscape:connector-curvature="0"
       sodipodi:nodetypes="cc" />
    <path
       style="fill:none;stroke:#c0c0c0;stroke-width:0.37795275;stroke-linecap:round;stroke-linejoin:round;stroke-miterlimit:4;stroke-dasharray:none;stroke-opacity:1"
       d="m 353.95358,869.66918 c -3.78356,6.49026 0.0852,12.81961 9.27552,12.86204 6.86148,0.0317 15.08821,-9.24468 11.43979,-16.38674 -3.37136,-6.5997 -16.62113,-3.49839 -20.71531,3.5247 z"
       id="path895"
       inkscape:connector-curvature="0"
       sodipodi:nodetypes="ssss" />
    <path
       style="fill:none;stroke:#c0c0c0;stroke-width:0.37795275;stroke-linecap:round;stroke-linejoin:round;stroke-miterlimit:4;stroke-dasharray:none;stroke-opacity:1"
       d="m 449.84474,830.08561 c 46.87518,-7.17504 94.60419,-11.4742 144.53014,-5.37175 32.17645,3.93293 65.69167,5.61379 99.68085,5.37175"
       id="path897"
       inkscape:connector-curvature="0"
       sodipodi:nodetypes="csc" />
    <path
       style="fill:none;stroke:#c0c0c0;stroke-width:0.37795275;stroke-linecap:round;stroke-linejoin:round;stroke-miterlimit:4;stroke-dasharray:none;stroke-opacity:1"
       d="m 768.50718,895.45511 c -11.44225,0.44481 -22.15262,0.45049 -33.04951,0.56808"
       id="path899"
       inkscape:connector-curvature="0"
       sodipodi:nodetypes="cc" />
    <path
       style="fill:none;stroke:#c0c0c0;stroke-width:0.37795275;stroke-linecap:round;stroke-linejoin:round;stroke-miterlimit:4;stroke-dasharray:none;stroke-opacity:1"
       d="m 804.61985,879.87224 c -12.76455,0.94257 -25.69163,1.77914 -38.74052,1.92391"
       id="path901"
       inkscape:connector-curvature="0"
       sodipodi:nodetypes="cc" />
    <path
       style="fill:none;stroke:#c0c0c0;stroke-width:0.37795275;stroke-linecap:round;stroke-linejoin:round;stroke-miterlimit:4;stroke-dasharray:none;stroke-opacity:1"
       d="m 994.99218,853.31608 c -18.56187,0.5813 -39.41436,0.33447 -54.94984,-0.0955"
       id="path903"
       inkscape:connector-curvature="0"
       sodipodi:nodetypes="cc" />
    <path
       style="fill:none;stroke:#c0c0c0;stroke-width:0.37795275;stroke-linecap:round;stroke-linejoin:round;stroke-miterlimit:4;stroke-dasharray:none;stroke-opacity:1"
       d="m 1012.886,840.54407 c -18.49283,1.42095 -36.99814,2.76699 -55.65304,3.21551"
       id="path905"
       inkscape:connector-curvature="0"
       sodipodi:nodetypes="cc" />
  </g>
</svg>
