<?xml version="1.0" encoding="UTF-8" standalone="no"?>
<!-- Created with Inkscape (http://www.inkscape.org/) -->

<svg
   xmlns:dc="http://purl.org/dc/elements/1.1/"
   xmlns:cc="http://creativecommons.org/ns#"
   xmlns:rdf="http://www.w3.org/1999/02/22-rdf-syntax-ns#"
   xmlns:svg="http://www.w3.org/2000/svg"
   xmlns="http://www.w3.org/2000/svg"
   xmlns:sodipodi="http://sodipodi.sourceforge.net/DTD/sodipodi-0.dtd"
   xmlns:inkscape="http://www.inkscape.org/namespaces/inkscape"
   width="297mm"
   height="210mm"
   id="svg2"
   version="1.1"
   inkscape:version="0.92.3 (2405546, 2018-03-11)"
   sodipodi:docname="auto.svg"
   viewBox="0 0 1052.3622 744.09448">
  <defs
     id="defs4" />
  <sodipodi:namedview
     id="base"
     pagecolor="#ffffff"
     bordercolor="#666666"
     borderopacity="1.0"
     inkscape:pageopacity="0.0"
     inkscape:pageshadow="2"
     inkscape:zoom="1"
     inkscape:cx="1013.688"
     inkscape:cy="397.5241"
     inkscape:document-units="mm"
     inkscape:current-layer="Mask"
     showgrid="false"
     units="mm"
     inkscape:window-width="1920"
     inkscape:window-height="1015"
     inkscape:window-x="0"
     inkscape:window-y="0"
     inkscape:window-maximized="0"
     inkscape:snap-global="false" />
  <metadata
     id="metadata7">
    <rdf:RDF>
      <cc:Work
         rdf:about="">
        <dc:format>image/svg+xml</dc:format>
        <dc:type
           rdf:resource="http://purl.org/dc/dcmitype/StillImage" />
        <dc:title></dc:title>
      </cc:Work>
    </rdf:RDF>
  </metadata>
  <g
     inkscape:label="Mask"
     inkscape:groupmode="layer"
     id="Mask"
     style="display:inline"
     transform="translate(0,-308.2677)">
    <circle
       transform="translate(0,1.5793938e-6)"
       style="display:inline;fill:#ffffff;fill-opacity:1;stroke:#808080;stroke-width:0.70866144;stroke-linecap:round;stroke-linejoin:round;stroke-miterlimit:4;stroke-dasharray:none;stroke-dashoffset:0;stroke-opacity:1"
       id="path2264"
       cx="495.41098"
       cy="750.67169"
       r="41.362072" />
    <circle
       transform="translate(0,1.5793938e-6)"
       style="display:inline;fill:#ffffff;fill-opacity:1;stroke:#808080;stroke-width:0.70866144;stroke-linecap:round;stroke-linejoin:round;stroke-miterlimit:4;stroke-dasharray:none;stroke-dashoffset:0;stroke-opacity:1"
       id="path2264-1"
       cx="822.86847"
       cy="750.67169"
       r="41.362072" />
    <path
       transform="translate(0,1.5793938e-6)"
       style="display:inline;fill:#ffffff;fill-opacity:1;stroke:#808080;stroke-width:0.70866144;stroke-linecap:butt;stroke-linejoin:miter;stroke-miterlimit:4;stroke-dasharray:none;stroke-opacity:1"
       d="m 403.83349,744.46499 46.79007,-0.40873 c 0,0 2.08988,-37.75851 44.67817,-37.75851 42.58828,0 44.67817,37.75851 44.67817,37.75851 h 237.17671 c 0,0 6.55462,-38.71194 45.73854,-38.71194 39.18393,0 45.73854,38.71194 45.73854,38.71194 l 52.48028,0.0609 c 2.18227,0.0391 3.90199,-1.13413 4.05647,-2.61585 l 2.20464,-24.77286 c 8.12232,-0.3217 8.48271,-11.52397 1.14358,-12.33558 l 1.34803,-16.83155 c 12.89088,0.83633 9.44523,-24.89441 2.28729,-25.0799 l 0.32617,-4.87637 c 0.14206,-3.35771 -0.51544,-4.30782 -2.94295,-4.36018 l -98.79671,-2.88811 c -1.89158,-0.1973 -2.85918,-2.20178 -5.06089,-5.32022 l -33.93978,-53.94541 c -1.96648,-2.79486 -3.70156,-5.21278 -6.31586,-5.41314 l -194.81549,-0.1445 c -3.47743,0.1582 -4.61998,1.1104 -5.92474,3.17913 l -42.19569,69.21826 c -29.9725,12.13469 -150.91612,0.26782 -146.09534,25.72203 -7.94738,1.3435 -7.23709,29.80264 2.83327,29.69308 l 1.06838,12.79162 c -12.2376,0 -9.89344,14.37495 0.003,14.37495 0.17358,3.48785 1.76196,3.97489 3.53621,3.9525 z"
       id="path2262"
       inkscape:connector-curvature="0"
       sodipodi:nodetypes="cczcczccccccccccccccccccccc" />
  </g>
  <g
     inkscape:groupmode="layer"
     id="layer1"
     inkscape:label="Overlay"
     style="display:inline"
     transform="translate(0,-308.2677)">
    <path
       transform="translate(0,1.5793938e-6)"
       style="display:inline;fill:none;stroke:#c0c0c0;stroke-width:0.35433072;stroke-linecap:butt;stroke-linejoin:miter;stroke-miterlimit:4;stroke-dasharray:none;stroke-opacity:1"
       d="m 546.96772,663.42204 0.1445,70.2298 c 0.14565,3.39486 0.15327,6.91395 4.04616,6.93628 h 126.4097 c 3.25248,-0.30355 4.80001,-1.77499 5.20221,-5.78022 l 2.3121,-139.30358 c -0.0526,-3.43313 -2.3095,-6.10338 -5.92474,-6.06924 l -84.64753,-0.28902 c -2.9835,0.18833 -5.17572,1.71549 -6.21375,3.90166 l -38.29403,61.84848 c -1.23314,2.39875 -2.8767,3.97666 -3.03462,8.52584 z"
       id="path2286"
       inkscape:connector-curvature="0"
       sodipodi:nodetypes="ccccccccccc" />
    <path
       transform="translate(0,1.5793938e-6)"
       style="display:inline;fill:none;stroke:#c0c0c0;stroke-width:0.35433072;stroke-linecap:butt;stroke-linejoin:miter;stroke-miterlimit:4;stroke-dasharray:none;stroke-opacity:1"
       d="m 556.0306,653.53367 c -1.36075,2.66102 0.51515,5.03455 3.06544,5.10905 h 19.21002 c 1.93996,-0.0321 4.12682,0.60396 4.49597,-3.67851 l 4.08724,-45.36838 c 0.0637,-2.60255 -2.94662,-2.70467 -4.29159,-0.81745 -1.0884,1.78469 -25.12776,42.26696 -26.56708,44.75529 z"
       id="path2288"
       inkscape:connector-curvature="0"
       sodipodi:nodetypes="ccccccc" />
    <path
       transform="translate(0,1.5793938e-6)"
       style="display:inline;fill:none;stroke:#c0c0c0;stroke-width:0.35433072;stroke-linecap:butt;stroke-linejoin:miter;stroke-miterlimit:4;stroke-dasharray:none;stroke-opacity:1"
       d="m 589.54598,658.84708 86.11045,0.20436 c 1.72002,-0.12776 3.90522,0.59729 4.08724,-2.35016 l 1.32835,-59.06064 c 0.0852,-2.71635 -0.80326,-5.00544 -4.18942,-5.10904 l -83.24938,-0.10218 c -1.87552,-0.0146 -2.48345,1.82185 -2.86107,5.10905 l -4.90469,58.03882 c -0.74225,3.0127 0.69459,3.25873 3.67852,3.26979 z"
       id="path2290"
       inkscape:connector-curvature="0"
       sodipodi:nodetypes="ccccccccc" />
    <path
       transform="translate(0,1.5793938e-6)"
       style="display:inline;fill:none;stroke:#c0c0c0;stroke-width:0.35433072;stroke-linecap:butt;stroke-linejoin:miter;stroke-miterlimit:4;stroke-dasharray:none;stroke-opacity:1"
       d="m 647.2845,673.96987 29.72729,0.20436 c -0.0263,-2.63122 -0.7948,-5.63127 -4.2916,-5.41559 l -21.96154,-0.20436 c -3.0622,0.1427 -3.4684,3.04288 -3.47415,5.41559 z"
       id="path2292"
       inkscape:connector-curvature="0"
       sodipodi:nodetypes="ccccc" />
    <path
       transform="translate(0,1.5793938e-6)"
       style="display:inline;fill:none;stroke:#c0c0c0;stroke-width:0.35433072;stroke-linecap:butt;stroke-linejoin:miter;stroke-miterlimit:4;stroke-dasharray:none;stroke-opacity:1"
       d="m 400.30674,740.48971 c 36.42833,0.0416 34.63516,-15.82306 -0.033,-14.3443"
       id="path2294"
       inkscape:connector-curvature="0"
       sodipodi:nodetypes="cc" />
    <path
       transform="translate(0,1.5793938e-6)"
       style="display:inline;fill:none;stroke:#c0c0c0;stroke-width:0.35433072;stroke-linecap:butt;stroke-linejoin:miter;stroke-miterlimit:4;stroke-dasharray:none;stroke-opacity:1"
       d="m 396.39294,683.64411 2.83907,29.76713"
       id="path2296"
       inkscape:connector-curvature="0" />
    <path
       transform="translate(0,1.5793938e-6)"
       style="display:inline;fill:none;stroke:#c0c0c0;stroke-width:0.35433072;stroke-linecap:butt;stroke-linejoin:miter;stroke-miterlimit:4;stroke-dasharray:none;stroke-opacity:1"
       d="m 932.11526,662.56622 -2.23684,25.07838"
       id="path2298"
       inkscape:connector-curvature="0"
       sodipodi:nodetypes="cc" />
    <path
       transform="translate(0,1.5793938e-6)"
       style="display:inline;fill:none;stroke:#c0c0c0;stroke-width:0.35433072;stroke-linecap:butt;stroke-linejoin:miter;stroke-miterlimit:4;stroke-dasharray:none;stroke-opacity:1"
       d="m 928.5019,704.42088 c -26.78309,-1.58287 -38.33186,12.46172 -1.1184,12.30259"
       id="path2300"
       inkscape:connector-curvature="0"
       sodipodi:nodetypes="cc" />
    <path
       transform="translate(0,1.5793938e-6)"
       style="display:inline;fill:none;stroke:#c0c0c0;stroke-width:0.35433072;stroke-linecap:butt;stroke-linejoin:miter;stroke-miterlimit:4;stroke-dasharray:none;stroke-opacity:1"
       d="m 691.69829,593.72439 -2.4089,141.25618 c 0.10712,3.48803 1.04432,5.52342 3.09716,5.60645 l 81.04378,-0.12127 c 6.57199,-17.03515 17.63526,-33.65174 39.28107,-37.57623 1.20844,-0.37138 2.06029,-0.47359 2.667,-2.06478 l 8.38507,-44.83124 c 0.33368,-1.68719 -0.8776,-4.87263 -2.176,-7.03645 l -34.58493,-54.71646 c -1.9677,-3.18721 -3.09348,-4.50586 -5.33399,-4.64574 L 696.43259,589.434 c -3.84914,0.13236 -4.50342,1.86949 -4.7343,4.29039 z"
       id="path2302"
       inkscape:connector-curvature="0"
       sodipodi:nodetypes="cccccccccccc" />
    <path
       transform="translate(0,1.5793938e-6)"
       style="display:inline;fill:none;stroke:#c0c0c0;stroke-width:0.35433072;stroke-linecap:butt;stroke-linejoin:miter;stroke-miterlimit:4;stroke-dasharray:none;stroke-opacity:1"
       d="m 787.01264,673.96987 29.72729,0.20436 c -0.0263,-2.63122 -0.7948,-5.63127 -4.2916,-5.41559 l -21.96154,-0.20436 c -3.0622,0.1427 -3.4684,3.04288 -3.47415,5.41559 z"
       id="path2292-2"
       inkscape:connector-curvature="0"
       sodipodi:nodetypes="ccccc" />
    <path
       transform="translate(0,1.5793938e-6)"
       style="display:inline;fill:none;stroke:#c0c0c0;stroke-width:0.35433072;stroke-linecap:butt;stroke-linejoin:miter;stroke-miterlimit:4;stroke-dasharray:none;stroke-opacity:1"
       d="m 695.5399,595.95205 -0.73,60.10393 c 0.0821,1.76474 0.89406,2.89081 2.92003,2.95466 l 80.78745,-0.0806 c 1.98015,-0.14315 3.5545,-1.13947 3.65004,-4.0907 l -0.24333,-57.9139 c -0.0474,-2.93426 -2.34941,-3.45081 -4.38005,-3.4067 l -79.81411,-0.48667 c -1.18888,0.18655 -2.14198,0.35544 -2.19003,2.92003 z"
       id="path2321"
       inkscape:connector-curvature="0"
       sodipodi:nodetypes="ccccccccc" />
    <path
       transform="translate(0,1.5793938e-6)"
       style="display:inline;fill:none;stroke:#c0c0c0;stroke-width:0.35433072;stroke-linecap:butt;stroke-linejoin:miter;stroke-miterlimit:4;stroke-dasharray:none;stroke-opacity:1"
       d="m 785.81746,605.44214 0.38588,46.92206 c 0.22334,6.03425 2.34412,6.48879 4.23749,6.56579 h 21.90021 c 5.81814,0.16716 7.54014,-2.44629 5.73211,-5.98789 l -28.17803,-46.54897 c -3.27695,-5.17863 -4.04802,-1.64486 -4.07766,-0.95099 z"
       id="path2323"
       inkscape:connector-curvature="0"
       sodipodi:nodetypes="ccccccc" />
    <circle
       transform="translate(0,1.5793938e-6)"
       style="display:inline;fill:none;fill-opacity:1;stroke:#c0c0c0;stroke-width:0.35433072;stroke-linecap:round;stroke-linejoin:round;stroke-miterlimit:4;stroke-dasharray:none;stroke-dashoffset:0;stroke-opacity:1"
       id="path2355"
       cx="495.41098"
       cy="750.67169"
       r="24.362038" />
    <circle
       transform="translate(0,1.5793938e-6)"
       style="display:inline;fill:none;fill-opacity:1;stroke:#c0c0c0;stroke-width:0.35433075;stroke-linecap:round;stroke-linejoin:round;stroke-miterlimit:4;stroke-dasharray:none;stroke-dashoffset:0;stroke-opacity:1"
       id="path2355-7"
       cx="822.86847"
       cy="750.67169"
       r="24.362038" />
  </g>
</svg>
