<?xml version="1.0" encoding="UTF-8" standalone="no"?>
<!-- Created with Inkscape (http://www.inkscape.org/) -->

<svg
   xmlns:dc="http://purl.org/dc/elements/1.1/"
   xmlns:cc="http://creativecommons.org/ns#"
   xmlns:rdf="http://www.w3.org/1999/02/22-rdf-syntax-ns#"
   xmlns:svg="http://www.w3.org/2000/svg"
   xmlns="http://www.w3.org/2000/svg"
   xmlns:sodipodi="http://sodipodi.sourceforge.net/DTD/sodipodi-0.dtd"
   xmlns:inkscape="http://www.inkscape.org/namespaces/inkscape"
   width="297mm"
   height="210mm"
   id="svg2"
   version="1.1"
   inkscape:version="0.92.3 (2405546, 2018-03-11)"
   sodipodi:docname="OldFamilyCar-undecorated.svg">
  <defs
     id="defs4" />
  <sodipodi:namedview
     id="base"
     pagecolor="#ffffff"
     bordercolor="#666666"
     borderopacity="1.0"
     inkscape:pageopacity="0.0"
     inkscape:pageshadow="2"
     inkscape:zoom="1"
     inkscape:cx="717.688"
     inkscape:cy="397.5241"
     inkscape:document-units="mm"
     inkscape:current-layer="Mask"
     showgrid="false"
     units="mm"
     inkscape:window-width="1920"
     inkscape:window-height="1015"
     inkscape:window-x="0"
     inkscape:window-y="0"
     inkscape:window-maximized="0"
     inkscape:snap-global="false" />
  <metadata
     id="metadata7">
    <rdf:RDF>
      <cc:Work
         rdf:about="">
        <dc:format>image/svg+xml</dc:format>
        <dc:type
           rdf:resource="http://purl.org/dc/dcmitype/StillImage" />
        <dc:title></dc:title>
      </cc:Work>
    </rdf:RDF>
  </metadata>
  <g
     inkscape:label="Mask"
     inkscape:groupmode="layer"
     id="Mask"
     style="display:inline"
     transform="translate(0,-328.81888)">
    <circle
       style="display:inline;fill:#ffffff;fill-opacity:1;stroke:#808080;stroke-width:0.75590551;stroke-linecap:round;stroke-linejoin:round;stroke-miterlimit:4;stroke-dasharray:none;stroke-dashoffset:0;stroke-opacity:1"
       id="path2264"
       cx="528.43835"
       cy="800.71649"
       r="44.119545" />
    <circle
       style="display:inline;fill:#ffffff;fill-opacity:1;stroke:#808080;stroke-width:0.75590551;stroke-linecap:round;stroke-linejoin:round;stroke-miterlimit:4;stroke-dasharray:none;stroke-dashoffset:0;stroke-opacity:1"
       id="path2264-1"
       cx="877.72638"
       cy="800.71649"
       r="44.119545" />
    <path
       style="display:inline;fill:#ffffff;fill-opacity:1;stroke:#808080;stroke-width:0.75590551;stroke-linecap:butt;stroke-linejoin:miter;stroke-miterlimit:4;stroke-dasharray:none;stroke-opacity:1"
       d="m 430.75572,794.09599 49.90941,-0.43598 c 0,0 2.22921,-40.27574 47.65672,-40.27574 45.42749,0 47.65671,40.27574 47.65671,40.27574 h 252.98849 c 0,0 6.9916,-41.29273 48.78778,-41.29273 41.79619,0 48.78777,41.29273 48.78777,41.29273 l 55.97897,0.065 c 2.32775,0.0417 4.16212,-1.20974 4.3269,-2.79024 l 2.35162,-26.42438 c 8.6638,-0.34315 9.04822,-12.29224 1.21981,-13.15795 l 1.4379,-17.95366 c 13.7503,0.89209 10.0749,-26.55403 2.43978,-26.75189 l 0.34791,-5.20146 c 0.15153,-3.58156 -0.5498,-4.59501 -3.13914,-4.65086 l -105.38316,-3.08065 c -2.01769,-0.21045 -3.04979,-2.34857 -5.39828,-5.6749 l -36.20244,-57.54177 c -2.09757,-2.98119 -3.94833,-5.5603 -6.73691,-5.77402 L 629.98237,624.5691 c -3.70926,0.16874 -4.92798,1.18442 -6.31972,3.39107 l -45.00874,73.83281 c -31.97067,12.94367 -160.9772,0.28568 -155.83503,27.43683 -8.47721,1.43307 -7.71956,31.78949 3.02215,31.67262 l 1.13961,13.6444 c -13.05344,0 -10.553,15.33328 0.003,15.33328 0.18515,3.72037 1.87942,4.23988 3.77196,4.216 z"
       id="path2262"
       inkscape:connector-curvature="0"
       sodipodi:nodetypes="cczcczccccccccccccccccccccc" />
  </g>
  <g
     inkscape:groupmode="layer"
     id="layer1"
     inkscape:label="Overlay"
     style="display:inline"
     transform="translate(0,-328.81888)">
    <path
       style="display:inline;fill:none;stroke:#c0c0c0;stroke-width:0.37795275;stroke-linecap:butt;stroke-linejoin:miter;stroke-miterlimit:4;stroke-dasharray:none;stroke-opacity:1"
       d="m 583.43223,707.65018 0.15414,74.91178 c 0.15536,3.62119 0.16349,7.37488 4.3159,7.3987 h 134.83702 c 3.46931,-0.32378 5.12001,-1.89332 5.54902,-6.16556 l 2.46624,-148.59049 c -0.0561,-3.66201 -2.46347,-6.51027 -6.31972,-6.47386 l -90.2907,-0.30828 c -3.1824,0.20088 -5.52077,1.82985 -6.628,4.16177 l -40.84697,65.97171 c -1.31535,2.55867 -3.06848,4.24177 -3.23693,9.09423 z"
       id="path2286"
       inkscape:connector-curvature="0"
       sodipodi:nodetypes="ccccccccccc" />
    <path
       style="display:inline;fill:none;stroke:#c0c0c0;stroke-width:0.37795275;stroke-linecap:butt;stroke-linejoin:miter;stroke-miterlimit:4;stroke-dasharray:none;stroke-opacity:1"
       d="m 593.09931,697.10258 c -1.45147,2.83842 0.54949,5.37019 3.2698,5.44966 h 20.49069 c 2.06929,-0.0342 4.40194,0.64422 4.7957,-3.92375 l 4.35972,-48.39294 c 0.0679,-2.77605 -3.14306,-2.88498 -4.57769,-0.87194 -1.16096,1.90367 -26.80295,45.08475 -28.33822,47.73897 z"
       id="path2288"
       inkscape:connector-curvature="0"
       sodipodi:nodetypes="ccccccc" />
    <path
       style="display:inline;fill:none;stroke:#c0c0c0;stroke-width:0.37795275;stroke-linecap:butt;stroke-linejoin:miter;stroke-miterlimit:4;stroke-dasharray:none;stroke-opacity:1"
       d="m 628.84905,702.77022 91.85114,0.21798 c 1.83469,-0.13627 4.16557,0.63711 4.35972,-2.50683 l 1.41691,-62.99802 c 0.0909,-2.89744 -0.85681,-5.33913 -4.46871,-5.44964 l -88.79934,-0.10899 c -2.00056,-0.0156 -2.64902,1.9433 -3.05181,5.44965 l -5.23167,61.90807 c -0.79173,3.21355 0.7409,3.47598 3.92376,3.48778 z"
       id="path2290"
       inkscape:connector-curvature="0"
       sodipodi:nodetypes="ccccccccc" />
    <path
       style="display:inline;fill:none;stroke:#c0c0c0;stroke-width:0.37795275;stroke-linecap:butt;stroke-linejoin:miter;stroke-miterlimit:4;stroke-dasharray:none;stroke-opacity:1"
       d="m 690.4368,718.9012 31.70911,0.21798 c -0.0281,-2.80663 -0.84779,-6.00669 -4.57771,-5.77663 l -23.42564,-0.21798 c -3.26635,0.15221 -3.69963,3.24574 -3.70576,5.77663 z"
       id="path2292"
       inkscape:connector-curvature="0"
       sodipodi:nodetypes="ccccc" />
    <path
       style="display:inline;fill:none;stroke:#c0c0c0;stroke-width:0.37795275;stroke-linecap:butt;stroke-linejoin:miter;stroke-miterlimit:4;stroke-dasharray:none;stroke-opacity:1"
       d="m 426.99386,789.85569 c 38.85688,0.0444 36.94417,-16.87793 -0.0352,-15.30058"
       id="path2294"
       inkscape:connector-curvature="0"
       sodipodi:nodetypes="cc" />
    <path
       style="display:inline;fill:none;stroke:#c0c0c0;stroke-width:0.37795275;stroke-linecap:butt;stroke-linejoin:miter;stroke-miterlimit:4;stroke-dasharray:none;stroke-opacity:1"
       d="m 422.81914,729.22039 3.02834,31.7516"
       id="path2296"
       inkscape:connector-curvature="0" />
    <path
       style="display:inline;fill:none;stroke:#c0c0c0;stroke-width:0.37795275;stroke-linecap:butt;stroke-linejoin:miter;stroke-miterlimit:4;stroke-dasharray:none;stroke-opacity:1"
       d="m 994.25628,706.7373 -2.38597,26.75028"
       id="path2298"
       inkscape:connector-curvature="0"
       sodipodi:nodetypes="cc" />
    <path
       style="display:inline;fill:none;stroke:#c0c0c0;stroke-width:0.37795275;stroke-linecap:butt;stroke-linejoin:miter;stroke-miterlimit:4;stroke-dasharray:none;stroke-opacity:1"
       d="m 990.40203,751.38227 c -28.56863,-1.68839 -40.88732,13.29251 -1.19296,13.12277"
       id="path2300"
       inkscape:connector-curvature="0"
       sodipodi:nodetypes="cc" />
    <path
       style="display:inline;fill:none;stroke:#c0c0c0;stroke-width:0.37795275;stroke-linecap:butt;stroke-linejoin:miter;stroke-miterlimit:4;stroke-dasharray:none;stroke-opacity:1"
       d="m 737.81151,633.30602 -2.56949,150.67326 c 0.11426,3.72056 1.11394,5.89164 3.30363,5.98021 l 86.4467,-0.12935 c 7.01012,-18.17083 18.81095,-35.89519 41.89981,-40.08132 1.289,-0.39614 2.19764,-0.50516 2.8448,-2.20243 l 8.94407,-47.81999 c 0.35593,-1.79967 -0.9361,-5.19747 -2.32106,-7.50554 l -36.89059,-58.36423 c -2.09888,-3.39969 -3.29972,-4.80625 -5.68959,-4.95545 l -90.91836,-0.17158 c -4.10575,0.14119 -4.80365,1.99412 -5.04992,4.57642 z"
       id="path2302"
       inkscape:connector-curvature="0"
       sodipodi:nodetypes="cccccccccccc" />
    <path
       style="display:inline;fill:none;stroke:#c0c0c0;stroke-width:0.37795275;stroke-linecap:butt;stroke-linejoin:miter;stroke-miterlimit:4;stroke-dasharray:none;stroke-opacity:1"
       d="m 839.48015,718.9012 31.70911,0.21798 c -0.0281,-2.80663 -0.84779,-6.00669 -4.57771,-5.77663 l -23.42564,-0.21798 c -3.26635,0.15221 -3.69963,3.24574 -3.70576,5.77663 z"
       id="path2292-2"
       inkscape:connector-curvature="0"
       sodipodi:nodetypes="ccccc" />
    <path
       style="display:inline;fill:none;stroke:#c0c0c0;stroke-width:0.37795275;stroke-linecap:butt;stroke-linejoin:miter;stroke-miterlimit:4;stroke-dasharray:none;stroke-opacity:1"
       d="m 741.90923,635.68219 -0.77867,64.11086 c 0.0876,1.88239 0.95366,3.08353 3.1147,3.15163 l 86.17328,-0.086 c 2.11216,-0.15269 3.79147,-1.21543 3.89337,-4.36341 l -0.25955,-61.77483 c -0.0506,-3.12988 -2.50603,-3.68086 -4.67205,-3.63381 l -85.13505,-0.51912 c -1.26814,0.19899 -2.28478,0.37914 -2.33603,3.1147 z"
       id="path2321"
       inkscape:connector-curvature="0"
       sodipodi:nodetypes="ccccccccc" />
    <path
       style="display:inline;fill:none;stroke:#c0c0c0;stroke-width:0.37795275;stroke-linecap:butt;stroke-linejoin:miter;stroke-miterlimit:4;stroke-dasharray:none;stroke-opacity:1"
       d="m 838.20529,645.80495 0.41161,50.0502 c 0.23823,6.43653 2.50039,6.92137 4.51999,7.00351 h 23.36022 c 6.20602,0.1783 8.04282,-2.60938 6.11425,-6.38708 l -30.05657,-49.65224 c -3.49541,-5.52387 -4.31788,-1.75452 -4.3495,-1.01439 z"
       id="path2323"
       inkscape:connector-curvature="0"
       sodipodi:nodetypes="ccccccc" />
    <circle
       style="display:inline;fill:none;fill-opacity:1;stroke:#c0c0c0;stroke-width:0.37795275;stroke-linecap:round;stroke-linejoin:round;stroke-miterlimit:4;stroke-dasharray:none;stroke-dashoffset:0;stroke-opacity:1"
       id="path2355"
       cx="528.43835"
       cy="800.71649"
       r="25.986174" />
    <circle
       style="display:inline;fill:none;fill-opacity:1;stroke:#c0c0c0;stroke-width:0.37795278;stroke-linecap:round;stroke-linejoin:round;stroke-miterlimit:4;stroke-dasharray:none;stroke-dashoffset:0;stroke-opacity:1"
       id="path2355-7"
       cx="877.72638"
       cy="800.71649"
       r="25.986174" />
  </g>
</svg>
