<?xml version="1.0" encoding="UTF-8" standalone="no"?>
<!-- Created with Inkscape (http://www.inkscape.org/) -->

<svg
   xmlns:dc="http://purl.org/dc/elements/1.1/"
   xmlns:cc="http://creativecommons.org/ns#"
   xmlns:rdf="http://www.w3.org/1999/02/22-rdf-syntax-ns#"
   xmlns:svg="http://www.w3.org/2000/svg"
   xmlns="http://www.w3.org/2000/svg"
   xmlns:sodipodi="http://sodipodi.sourceforge.net/DTD/sodipodi-0.dtd"
   xmlns:inkscape="http://www.inkscape.org/namespaces/inkscape"
   width="297mm"
   height="210mm"
   id="svg2"
   version="1.1"
   inkscape:version="0.92.3 (2405546, 2018-03-11)"
   sodipodi:docname="PhotoMan-undecorated.svg"
   inkscape:export-filename="/home/christian/SportsCar.svg.png"
   inkscape:export-xdpi="138.06"
   inkscape:export-ydpi="138.06">
  <defs
     id="defs4" />
  <sodipodi:namedview
     id="base"
     pagecolor="#ffffff"
     bordercolor="#666666"
     borderopacity="1.0"
     inkscape:pageopacity="0.0"
     inkscape:pageshadow="2"
     inkscape:zoom="1.4142136"
     inkscape:cx="658.46093"
     inkscape:cy="396.10887"
     inkscape:document-units="mm"
     inkscape:current-layer="layer1"
     showgrid="false"
     units="mm"
     inkscape:window-width="1920"
     inkscape:window-height="1080"
     inkscape:window-x="1920"
     inkscape:window-y="0"
     inkscape:window-maximized="0"
     inkscape:snap-global="false" />
  <metadata
     id="metadata7">
    <rdf:RDF>
      <cc:Work
         rdf:about="">
        <dc:format>image/svg+xml</dc:format>
        <dc:type
           rdf:resource="http://purl.org/dc/dcmitype/StillImage" />
        <dc:title />
      </cc:Work>
    </rdf:RDF>
  </metadata>
  <g
     inkscape:label="Mask"
     inkscape:groupmode="layer"
     id="Mask"
     style="display:inline;opacity:1"
     transform="translate(0,-328.81888)">
    <rect
       style="display:inline;opacity:1;fill:none;fill-opacity:1;stroke:#808080;stroke-width:0.779378;stroke-linecap:round;stroke-linejoin:round;stroke-miterlimit:4;stroke-dasharray:none;stroke-dashoffset:0;stroke-opacity:1"
       id="rect814"
       width="566.14978"
       x="442.59436"
       y="-873.50861"
       heightx="549.12811"
       height="377.17337"
       transform="rotate(90)" />
  </g>
  <g
     inkscape:groupmode="layer"
     id="layer1"
     inkscape:label="Overlay"
     style="display:inline"
     transform="translate(0,-328.81888)">
    <path
       style="display:inline;opacity:1;fill:none;stroke:#c0c0c0;stroke-width:0.378;stroke-linecap:round;stroke-linejoin:round;stroke-miterlimit:4;stroke-dasharray:none;stroke-opacity:1"
       d="m 687.89979,487.19015 c -13.88352,0.67378 -25.01507,8.19727 -26.64422,27.00283 -5.94555,1.77831 -4.98698,8.15934 -4.61926,14.1465 0.6866,4.71687 1.92025,9.267 6.86123,6.53869 2.16797,9.25249 5.28023,12.99692 9.98509,16.63657 -0.55765,7.46312 0.72743,13.23842 -7.23564,14.31513 -20.73314,2.80338 -25.57198,6.02258 -33.7161,17.7615 -12.04635,17.36358 -15.45943,59.13213 -15.0478,92.36101 0.22657,18.29006 4.83339,35.42501 8.22351,49.79992 l 0.0767,0.29923 c -0.34972,3.54948 -1.09137,7.08424 -0.50296,10.67076 1.37636,8.12423 5.2672,13.16765 7.795,16.00728 0.90634,1.01794 6.49825,5.01589 7.87395,5.08841 0.67238,-0.15495 1.57626,-2.15639 0.77589,-3.15319 0.18652,-0.32322 0.26835,-0.6213 0.27517,-0.9022 0.47916,16.09678 1.18208,55.07622 0.60222,76.26296 -0.82039,29.97534 -1.63686,98.96923 -1.63686,98.96923 l 0.36927,2.09518 c -5.80296,6.31782 -8.01714,10.84123 -10.68205,15.59002 -3.08288,5.49359 -2.56807,13.26264 2.02093,16.16742 6.5056,4.11795 15.91281,-2.42854 21.9415,-7.2176 6.96555,-5.53329 13.85779,-22.80761 13.85779,-22.80761 l 0.33056,-2.1726 8.99142,-84.48144 6.60626,-80.44399 c 3.66384,17.94529 15.00398,63.48445 17.54587,80.13396 6.47931,42.43967 9.12868,35.6318 10.14707,79.73125 l 0.51218,2.49402 c 0,0 3.39116,15.66361 7.11158,22.78279 4.38451,8.38992 15.13971,15.48035 26.84947,2.74269 6.32293,-6.87797 -5.77408,-27.42687 -5.77408,-27.42687 l -0.27509,-1.64436 c 0,0 1.43516,-60.55604 -1.82253,-91.44236 -1.74428,-16.53765 -2.99694,-31.51825 -5.49664,-47.95869 -1.82806,-12.02306 -5.02456,-29.66282 -6.46202,-37.54053 1.57231,0.68623 4.55718,-1.76101 8.02959,-11.05194 1.45157,2.97915 1.18708,5.86358 -0.43983,10.02569 -1.74441,4.46285 -7.1652,5.27173 -5.64551,8.01153 -0.81716,0.98309 0.0522,2.99813 0.72176,3.16447 1.37673,-0.0492 7.0362,-3.95066 7.95966,-4.95308 2.5756,-2.79635 6.55395,-7.77222 8.06791,-15.87195 0.71563,-3.9422 -0.18222,-7.84786 -0.39245,-11.7692 l 0.0108,-0.58207 c 0,0 7.71485,-39.27339 7.31054,-61.38778 -0.40429,-22.11438 -4.92899,-70.01572 -11.1943,-81.01245 -7.79277,-13.67766 -23.51519,-15.19281 -32.49492,-15.5939 -8.06742,-0.36034 -10.14024,-1.76589 -10.25781,-7.01806 l -0.4917,-8.69894 c 4.45007,-2.05829 10.14934,-5.60763 12.12556,-18.76575 5.88781,2.76892 5.09935,-3.89914 5.77408,-8.94982 1.76916,-14.62569 0.30419,-14.95043 -3.17574,-14.4352 -3.05079,-15.39052 -11.33798,-20.92314 -24.74508,-21.51746 z m 36.50751,131.3575 4.39597,42.01996 2.56892,62.49327 0.0339,0.86597 -3.06748,12.55186 c -0.59202,3.44061 -1.67455,5.75143 -2.26903,7.41607 -0.073,-0.39758 -0.50748,-2.80358 -0.50748,-2.80358 l -2.22138,-23.77835 z m -80.27999,0.11955 c 0.24933,7.07036 -2.63366,93.16426 -2.50354,98.46763 l -0.46921,14.05021 -1.69162,-7.47471 -0.0704,-0.357 -0.2454,-54.33661 c 0.93887,-25.45765 3.25378,-44.3043 4.98015,-50.34952 z m -8.17844,117.86113 c 2.21828,6.25698 4.26894,9.43624 5.85979,10.66625 0.0627,1.87036 0.10174,3.52471 0.18946,6.46651 -0.0915,-2.01473 -4.71992,-4.24027 -5.78085,-7.10256 -1.16243,-3.1361 -1.77029,-7.07609 -0.2684,-10.0302 z"
       id="path881"
       inkscape:connector-curvature="0"
       sodipodi:nodetypes="cccccssscccccccsccsssccccsccssccssccccccccccsscccccccccccccccccccccccccaccc" />
    <path
       style="display:inline;opacity:1;fill:none;stroke:#c0c0c0;stroke-width:0.378;stroke-linecap:butt;stroke-linejoin:miter;stroke-miterlimit:4;stroke-dasharray:none;stroke-opacity:1"
       d="m 641.42214,930.98358 c 2.51183,-7.30079 14.08105,-6.9501 17.3523,-6.83884 4.46103,0.15172 10.66918,-0.23379 9.79893,8.67614"
       id="path883"
       inkscape:connector-curvature="0"
       sodipodi:nodetypes="csc" />
    <path
       style="display:inline;opacity:1;fill:none;stroke:#c0c0c0;stroke-width:0.378;stroke-linecap:butt;stroke-linejoin:miter;stroke-miterlimit:4;stroke-dasharray:none;stroke-opacity:1"
       d="m 712.5665,927.93273 c -0.63803,-6.06046 4.55507,-10.07845 11.38982,-11.33107 6.21477,-1.139 16.34157,2.61031 16.69756,9.37419"
       id="path885"
       inkscape:connector-curvature="0"
       sodipodi:nodetypes="csc" />
    <path
       style="display:inline;opacity:1;fill:none;fill-opacity:1;stroke:#c0c0c0;stroke-width:0.378;stroke-linecap:round;stroke-linejoin:round;stroke-miterlimit:4;stroke-dasharray:none;stroke-dashoffset:0;stroke-opacity:1"
       d="m 712.64485,508.77861 c -0.30697,8.39937 -0.93823,15.80657 -2.52616,23.31284"
       id="path901"
       inkscape:connector-curvature="0"
       sodipodi:nodetypes="cc" />
    <path
       style="opacity:1;fill:none;fill-opacity:1;stroke:#c0c0c0;stroke-width:0.378;stroke-linecap:round;stroke-linejoin:round;stroke-miterlimit:4;stroke-dasharray:none;stroke-dashoffset:0;stroke-opacity:1"
       d="m 661.2752,514.24297 c 0.5183,6.86422 1.22147,13.71723 2.16903,20.6186"
       id="path905"
       inkscape:connector-curvature="0"
       sodipodi:nodetypes="cc" />
    <path
       style="opacity:1;fill:none;fill-opacity:1;stroke:#c0c0c0;stroke-width:0.378;stroke-linecap:round;stroke-linejoin:round;stroke-miterlimit:4;stroke-dasharray:none;stroke-dashoffset:0;stroke-opacity:1"
       d="m 687.09455,511.66565 c -2.02525,6.48138 -10.04678,20.6818 1.84048,19.84839"
       id="path907"
       inkscape:connector-curvature="0"
       sodipodi:nodetypes="cc" />
    <path
       style="opacity:1;fill:none;fill-opacity:1;stroke:#c0c0c0;stroke-width:0.378;stroke-linecap:round;stroke-linejoin:round;stroke-miterlimit:4;stroke-dasharray:none;stroke-dashoffset:0;stroke-opacity:1"
       d="m 672.5828,513.0844 c -1.17931,1.9794 0.47519,4.24733 2.45473,4.21022 1.97955,-0.0371 3.69427,-3.2511 2.26736,-4.73585 -1.42692,-1.48473 -3.54278,-1.45377 -4.72209,0.52563 z"
       id="path909"
       inkscape:connector-curvature="0"
       sodipodi:nodetypes="zzzz" />
    <path
       style="opacity:1;fill:none;fill-opacity:1;stroke:#c0c0c0;stroke-width:0.378;stroke-linecap:round;stroke-linejoin:round;stroke-miterlimit:4;stroke-dasharray:none;stroke-dashoffset:0;stroke-opacity:1"
       d="m 701.71018,511.23259 c -2.05785,-0.18654 -3.52775,2.40007 -2.59833,3.8975 0.92942,1.49744 2.9529,1.77758 4.25838,0.3248 1.30549,-1.45278 0.39781,-4.03576 -1.66005,-4.2223 z"
       id="path911"
       inkscape:connector-curvature="0"
       sodipodi:nodetypes="zzzz" />
    <path
       style="opacity:1;fill:none;fill-opacity:1;stroke:#c0c0c0;stroke-width:0.378;stroke-linecap:round;stroke-linejoin:round;stroke-miterlimit:4;stroke-dasharray:none;stroke-dashoffset:0;stroke-opacity:1"
       d="m 672.1459,536.03539 c 9.80003,10.17574 20.09865,11.10467 30.31546,-1.42902 0.28323,-0.90554 -1.09026,-2.40155 -2.20108,-1.25637 -7.41552,7.64493 -19.23576,5.37353 -26.59369,0.9935 -1.89221,-1.12639 -2.12937,1.05987 -1.52069,1.69189 z"
       id="path913"
       inkscape:connector-curvature="0"
       sodipodi:nodetypes="scsss" />
    <path
       style="display:inline;opacity:1;fill:none;fill-opacity:1;stroke:#c0c0c0;stroke-width:0.378;stroke-linecap:round;stroke-linejoin:round;stroke-miterlimit:4;stroke-dasharray:none;stroke-dashoffset:0;stroke-opacity:1"
       d="m 641.79792,754.55331 -0.89343,1.16166 c -1.5833,-0.84797 -4.3036,-2.30177 -5.67798,-3.38273 -2.58039,-2.40838 -4.30055,-6.32558 -5.28616,-9.96765"
       id="path899-5"
       inkscape:connector-curvature="0"
       sodipodi:nodetypes="cccc" />
    <path
       style="display:inline;opacity:1;fill:none;fill-opacity:1;stroke:#c0c0c0;stroke-width:0.378;stroke-linecap:round;stroke-linejoin:round;stroke-miterlimit:4;stroke-dasharray:none;stroke-dashoffset:0;stroke-opacity:1"
       d="m 728.61095,754.48661 0.87358,1.17665 c 1.59747,-0.82099 4.34203,-2.22844 5.73455,-3.28595 2.62086,-2.36426 4.40723,-6.25171 5.45447,-9.87653"
       id="path899-5-3-6"
       inkscape:connector-curvature="0"
       sodipodi:nodetypes="cccc" />
    <path
       style="opacity:1;fill:none;fill-opacity:1;stroke:#c0c0c0;stroke-width:0.378;stroke-linecap:round;stroke-linejoin:round;stroke-miterlimit:4;stroke-dasharray:none;stroke-dashoffset:0;stroke-opacity:1"
       d="m 641.70113,717.13781 c 2.88704,0.28871 81.37208,0.22166 81.37208,0.22166"
       id="path1009"
       inkscape:connector-curvature="0"
       sodipodi:nodetypes="cc" />
    <path
       style="opacity:1;fill:none;fill-opacity:1;stroke:#c0c0c0;stroke-width:0.378;stroke-linecap:round;stroke-linejoin:round;stroke-miterlimit:4;stroke-dasharray:none;stroke-dashoffset:0;stroke-opacity:1"
       d="m 673.45533,551.5996 c 6.59543,3.39918 16.78764,2.67847 24.68214,-0.85066"
       id="path1015"
       inkscape:connector-curvature="0"
       sodipodi:nodetypes="cc" />
    <path
       style="opacity:1;fill:none;fill-opacity:1;stroke:#c0c0c0;stroke-width:0.378;stroke-linecap:round;stroke-linejoin:round;stroke-miterlimit:4;stroke-dasharray:none;stroke-dashoffset:0;stroke-opacity:1"
       d="m 641.16697,731.20267 c 1.08302,4.219 1.59496,8.59375 3.34286,12.63144 1.36045,4.34504 -1.5313,4.50755 -2.65387,3.3939"
       id="path1071"
       inkscape:connector-curvature="0"
       sodipodi:nodetypes="ccc" />
    <path
       style="opacity:1;fill:none;fill-opacity:1;stroke:#c0c0c0;stroke-width:0.378;stroke-linecap:round;stroke-linejoin:round;stroke-miterlimit:4;stroke-dasharray:none;stroke-dashoffset:0;stroke-opacity:1"
       d="m 726.06556,743.83411 c -0.27325,1.26318 -0.95897,2.65323 0.63795,3.75115"
       id="path1073"
       inkscape:connector-curvature="0"
       sodipodi:nodetypes="cc" />
    <path
       style="opacity:1;fill:none;fill-opacity:1;stroke:#c0c0c0;stroke-width:0.378;stroke-linecap:round;stroke-linejoin:round;stroke-miterlimit:4;stroke-dasharray:none;stroke-dashoffset:0;stroke-opacity:1"
       d="m 644.12706,618.61697 1.2759,-5.18016"
       id="path1090"
       inkscape:connector-curvature="0" />
    <path
       style="opacity:1;fill:none;fill-opacity:1;stroke:#c0c0c0;stroke-width:0.378;stroke-linecap:round;stroke-linejoin:round;stroke-miterlimit:4;stroke-dasharray:none;stroke-dashoffset:0;stroke-opacity:1"
       d="m 724.40953,618.53144 -1.43166,-6.11536"
       id="path1092"
       inkscape:connector-curvature="0" />
  </g>
</svg>
