<?xml version="1.0" encoding="UTF-8" standalone="no"?>
<!-- Created with Inkscape (http://www.inkscape.org/) -->

<svg
   xmlns:dc="http://purl.org/dc/elements/1.1/"
   xmlns:cc="http://creativecommons.org/ns#"
   xmlns:rdf="http://www.w3.org/1999/02/22-rdf-syntax-ns#"
   xmlns:svg="http://www.w3.org/2000/svg"
   xmlns="http://www.w3.org/2000/svg"
   xmlns:sodipodi="http://sodipodi.sourceforge.net/DTD/sodipodi-0.dtd"
   xmlns:inkscape="http://www.inkscape.org/namespaces/inkscape"
   width="297mm"
   height="210mm"
   id="svg2"
   version="1.1"
   inkscape:version="0.92.3 (2405546, 2018-03-11)"
   sodipodi:docname="TailedButterfly-undecorated.svg"
   inkscape:export-filename="/home/christian/SportsCar.svg.png"
   inkscape:export-xdpi="138.06"
   inkscape:export-ydpi="138.06">
  <defs
     id="defs4" />
  <sodipodi:namedview
     id="base"
     pagecolor="#ffffff"
     bordercolor="#666666"
     borderopacity="1.0"
     inkscape:pageopacity="0.0"
     inkscape:pageshadow="2"
     inkscape:zoom="1"
     inkscape:cx="174.97897"
     inkscape:cy="372.50317"
     inkscape:document-units="mm"
     inkscape:current-layer="layer4"
     showgrid="false"
     units="mm"
     inkscape:window-width="1920"
     inkscape:window-height="1080"
     inkscape:window-x="1920"
     inkscape:window-y="0"
     inkscape:window-maximized="0"
     inkscape:snap-global="false" />
  <metadata
     id="metadata7">
    <rdf:RDF>
      <cc:Work
         rdf:about="">
        <dc:format>image/svg+xml</dc:format>
        <dc:type
           rdf:resource="http://purl.org/dc/dcmitype/StillImage" />
        <dc:title />
      </cc:Work>
    </rdf:RDF>
  </metadata>
  <g
     inkscape:label="Mask"
     inkscape:groupmode="layer"
     id="Mask"
     style="display:inline;opacity:1"
     transform="translate(0,-328.81888)">
    <path
       style="display:inline;opacity:1;fill:#ffffff;fill-opacity:1;stroke:#808080;stroke-width:0.75590551;stroke-linecap:round;stroke-linejoin:round;stroke-miterlimit:4;stroke-dasharray:none;stroke-opacity:1"
       d="m 659.22266,583.58841 c -3.46453,-0.10005 -6.59302,0.90156 -8.6211,2.66797 -6.48984,5.65249 -4.997,11.6973 -2.82812,16.0332 2.16886,4.3359 6.41307,5.7137 9.81054,4.04102 3.39749,-1.67267 3.99518,-10.44256 3.17383,-11.6875 -0.82133,-1.24494 -5.24027,-3.82171 -7.26758,-3.23438 1.11683,-4.63425 10.29821,-1.30085 13.16016,1.37305 2.86198,2.6739 5.33207,3.31473 6.78125,13.47852 1.4492,10.16379 14.31864,52.95539 25.41797,77.98437 -4.95389,8.59265 -3.27966,16.94501 3.46484,17.25391 0,0 -2.11705,1.35197 -2.66015,5.37109 -0.26176,0.006 -0.51576,0.0241 -0.76953,0.043 h -0.18555 C 602.33947,601.65505 531.51046,575.21041 514.43555,620.09622 c -17.07493,44.88582 -59.76492,89.48632 -45.80078,117.79688 13.96415,28.31057 49.53155,44.76325 42.81445,92.65039 -1.2524,8.92856 6.76377,12.65714 20.00586,13.32031 6.62105,0.33159 -12.82012,82.43828 -35.72266,116.96289 100.71841,-72.041 27.81183,-74.57198 73.6582,-91.95508 7.38319,-2.79941 12.99562,19.79669 40.22657,11.66016 27.23096,-8.13653 10.08083,-47.00407 31.94336,-52.73047 28.46681,-2.59797 29.49056,71.82197 42.0957,76.61524 -6.89939,-40.70811 8.89736,-140.00803 15.04297,-185.06446 h 0.98828 c 1.3966,47.83132 -0.62678,79.48818 10.41797,79.45703 11.04981,-0.0311 9.01308,-31.64097 10.41406,-79.54101 0.077,-0.0434 0.14343,-0.0856 0.21875,-0.12891 h 1.0625 c 6.14561,45.05643 21.94236,144.35635 15.04297,185.06446 12.60514,-4.79327 13.62889,-79.21321 42.0957,-76.61524 21.86253,5.7264 4.7124,44.59394 31.94336,52.73047 27.23095,8.13653 32.84338,-14.45957 40.22657,-11.66016 45.84637,17.3831 -27.06021,19.91408 73.6582,91.95508 -22.90254,-34.52461 -42.34371,-116.6313 -35.72266,-116.96289 13.24209,-0.66317 21.25826,-4.39175 20.00586,-13.32031 -6.7171,-47.88714 28.8503,-64.33982 42.81445,-92.65039 13.96414,-28.31056 -28.72585,-72.91105 -45.80078,-117.79688 -17.07491,-44.88581 -87.90392,-18.44118 -184.26367,86.81641 h -1.35937 c -0.43832,-2.68046 -1.02495,-4.15911 -2.55079,-5.22266 6.74452,-0.30889 8.41678,-8.66125 3.4629,-17.2539 11.0993,-25.029 23.96878,-67.82056 25.41796,-77.98438 1.4492,-10.1638 3.91928,-10.80462 6.78125,-13.47851 2.86196,-2.6739 12.13513,-5.80419 13.25196,-1.16993 -2.02731,-0.58733 -6.53803,1.78633 -7.35938,3.03125 -0.82133,1.24494 -0.22364,10.01483 3.17383,11.6875 3.39746,1.67269 7.64364,0.29489 9.8125,-4.04101 2.16888,-4.33588 4.47342,-4.50492 -1.07812,-14.0332 -5.55154,-9.52828 -24.96252,-3.54826 -28.95313,14.31445 -3.94561,21.03463 -13.35793,50.02188 -24.89453,76.38476 -1.67397,-1.44273 -3.87294,-1.08317 -7.40625,-1.05859 -3.53333,0.0246 -3.95146,-0.14381 -6.02734,1.58008 -11.53661,-26.36288 -21.32392,-54.60014 -25.26954,-75.63477 -2.7126,-14.46132 -11.95811,-20.0123 -19.58007,-20.23242 z"
       id="path925-0"
       inkscape:connector-curvature="0" />
  </g>
  <g
     inkscape:groupmode="layer"
     id="layer1"
     inkscape:label="Overlay"
     style="display:inline"
     transform="translate(0,-328.81888)">
    <path
       style="display:inline;opacity:1;fill:none;stroke:#c0c0c0;stroke-width:0.37795275;stroke-linecap:round;stroke-linejoin:round;stroke-miterlimit:4;stroke-dasharray:none;stroke-opacity:1"
       d="m 653.46426,591.38831 c -1.2958,6.22077 -1.19484,7.75959 -0.20406,8.26415"
       id="path943-4"
       inkscape:connector-curvature="0"
       sodipodi:nodetypes="cc" />
    <path
       style="display:inline;opacity:1;fill:none;stroke:#c0c0c0;stroke-width:0.37795275;stroke-linecap:round;stroke-linejoin:round;stroke-miterlimit:4;stroke-dasharray:none;stroke-opacity:1"
       d="m 766.98086,591.90039 c 1.2958,6.22077 1.19484,7.75959 0.20405,8.26416"
       id="path943-6-8"
       inkscape:connector-curvature="0"
       sodipodi:nodetypes="cc" />
    <path
       style="display:inline;opacity:1;fill:none;stroke:#c0c0c0;stroke-width:0.37795275;stroke-linecap:round;stroke-linejoin:round;stroke-miterlimit:4;stroke-dasharray:none;stroke-dashoffset:0;stroke-opacity:1"
       d="m 702.24067,701.41564 c 5.25076,0.28298 10.49858,0.54246 15.65518,0.0721"
       id="path961-8"
       inkscape:connector-curvature="0"
       sodipodi:nodetypes="cc" />
    <path
       style="display:inline;opacity:1;fill:none;stroke:#c0c0c0;stroke-width:0.37795275;stroke-linecap:round;stroke-linejoin:round;stroke-miterlimit:4;stroke-dasharray:none;stroke-opacity:1"
       d="m 699.65677,706.88237 c -0.18395,3.82057 -0.17272,7.96386 0,12.47273"
       id="path963-8"
       inkscape:connector-curvature="0"
       sodipodi:nodetypes="cc" />
    <path
       style="display:inline;opacity:1;fill:none;stroke:#c0c0c0;stroke-width:0.37795275;stroke-linecap:round;stroke-linejoin:round;stroke-miterlimit:4;stroke-dasharray:none;stroke-opacity:1"
       d="m 720.47019,706.80584 c 0.18331,4.3409 0.15951,8.34714 0.0255,12.49826"
       id="path965-9"
       inkscape:connector-curvature="0"
       sodipodi:nodetypes="cc" />
  </g>
  <g
     inkscape:groupmode="layer"
     id="layer4"
     inkscape:label="Detailed"
     style="display:inline">
    <path
       style="fill:none;stroke:#c0c0c0;stroke-width:0.37795275;stroke-linecap:round;stroke-linejoin:round;stroke-miterlimit:4;stroke-dasharray:none;stroke-opacity:1"
       d="m 547,298.20079 c -33.70341,10.26051 -63.58317,64.34508 -46.5,88 17.08317,23.65492 54.21274,-20.95169 74.5,-12.5 20.28726,8.45169 24.625,40.75 32.5,46 7.875,5.24999 37,3.375 47,1 10,-2.375 26.0026,-10.07297 27.5,-28.5 1.4974,-18.42703 -12.55155,-23.88845 -36.5,-41 -23.94845,-17.11155 -64.79659,-63.26051 -98.5,-53 z"
       id="path2399"
       inkscape:connector-curvature="0"
       sodipodi:nodetypes="zzzzzzzz" />
    <path
       style="fill:none;stroke:#c0c0c0;stroke-width:0.37795275;stroke-linecap:round;stroke-linejoin:round;stroke-miterlimit:4;stroke-dasharray:none;stroke-opacity:1"
       d="m 513,433.70079 c -3.89244,19.32704 20.21007,40.115 34.5,51.5 14.28993,11.385 25.19856,33.49358 42.37868,31.84924 17.18011,-1.64434 36.75237,-37.27275 49.62132,-44.34924 12.86895,-7.07649 27.03857,-4.93763 29,-14 1.96143,-9.06237 -3.31326,-12.52622 -15,-18 -11.68674,-5.47378 -37.17891,6.77759 -54,0 -16.82109,-6.77759 -21.05847,-36.30816 -39.5,-38 -18.44153,-1.69184 -43.10756,11.67296 -47,31 z"
       id="path2401"
       inkscape:connector-curvature="0"
       sodipodi:nodetypes="zzzzzzzzz" />
    <path
       style="fill:none;stroke:#c0c0c0;stroke-width:0.37795275;stroke-linecap:round;stroke-linejoin:round;stroke-miterlimit:4;stroke-dasharray:none;stroke-opacity:1"
       d="m 538,325.70079 c -11.41803,5.57216 -20.09717,20.8213 -10,31 10.09717,10.1787 46.73281,-11.4869 47.11091,-27.66726 0.3781,-16.18037 -25.69288,-8.9049 -37.11091,-3.33274 z"
       id="path2403"
       inkscape:connector-curvature="0"
       sodipodi:nodetypes="zzzz" />
    <path
       style="fill:none;stroke:#c0c0c0;stroke-width:0.37795275;stroke-linecap:round;stroke-linejoin:round;stroke-miterlimit:4;stroke-dasharray:none;stroke-opacity:1"
       d="m 622.65685,360.98327 c -12.65033,6.60539 -14.00496,28.91403 -3,37.64645 11.00496,8.73241 32.37455,2.57855 34.1005,-12.93934 1.72596,-15.51789 -18.45016,-31.31249 -31.1005,-24.70711 z"
       id="path2405"
       inkscape:connector-curvature="0"
       sodipodi:nodetypes="zzzz" />
    <path
       style="fill:none;stroke:#c0c0c0;stroke-width:0.37795275;stroke-linecap:round;stroke-linejoin:round;stroke-miterlimit:4;stroke-dasharray:none;stroke-opacity:1"
       d="m 873.8192,298.20079 c 33.70341,10.26051 63.58317,64.34508 46.5,88 -17.08317,23.65492 -54.21274,-20.95169 -74.5,-12.5 -20.28726,8.45169 -24.625,40.75 -32.5,46 -7.875,5.24999 -37,3.375 -47,1 -10,-2.375 -26.0026,-10.07297 -27.5,-28.5 -1.4974,-18.42703 12.55155,-23.88845 36.5,-41 23.94845,-17.11155 64.79659,-63.26051 98.5,-53 z"
       id="path2399-6"
       inkscape:connector-curvature="0"
       sodipodi:nodetypes="zzzzzzzz" />
    <path
       style="fill:none;stroke:#c0c0c0;stroke-width:0.37795275;stroke-linecap:round;stroke-linejoin:round;stroke-miterlimit:4;stroke-dasharray:none;stroke-opacity:1"
       d="m 907.8192,433.70079 c 3.89244,19.32704 -20.21007,40.115 -34.5,51.5 -14.28993,11.385 -25.19856,33.49358 -42.37868,31.84924 -17.18011,-1.64434 -36.75237,-37.27275 -49.62132,-44.34924 -12.86895,-7.07649 -27.03857,-4.93763 -29,-14 -1.96143,-9.06237 3.31326,-12.52622 15,-18 11.68674,-5.47378 37.17891,6.77759 54,0 16.82109,-6.77759 21.05847,-36.30816 39.5,-38 18.44153,-1.69184 43.10756,11.67296 47,31 z"
       id="path2401-0"
       inkscape:connector-curvature="0"
       sodipodi:nodetypes="zzzzzzzzz" />
    <path
       style="fill:none;stroke:#c0c0c0;stroke-width:0.37795275;stroke-linecap:round;stroke-linejoin:round;stroke-miterlimit:4;stroke-dasharray:none;stroke-opacity:1"
       d="m 882.8192,325.70079 c 11.41803,5.57216 20.09717,20.8213 10,31 -10.09717,10.1787 -46.73281,-11.4869 -47.11091,-27.66726 -0.3781,-16.18037 25.69288,-8.9049 37.11091,-3.33274 z"
       id="path2403-6"
       inkscape:connector-curvature="0"
       sodipodi:nodetypes="zzzz" />
    <path
       style="fill:none;stroke:#c0c0c0;stroke-width:0.37795275;stroke-linecap:round;stroke-linejoin:round;stroke-miterlimit:4;stroke-dasharray:none;stroke-opacity:1"
       d="m 798.16235,360.98327 c 12.65033,6.60539 14.00496,28.91403 3,37.64645 -11.00496,8.73241 -32.37455,2.57855 -34.1005,-12.93934 -1.72596,-15.51789 18.45016,-31.31249 31.1005,-24.70711 z"
       id="path2405-2"
       inkscape:connector-curvature="0"
       sodipodi:nodetypes="zzzz" />
  </g>
</svg>
