<?xml version="1.0" encoding="UTF-8" standalone="no"?>
<!-- Created with Inkscape (http://www.inkscape.org/) -->

<svg
   xmlns:dc="http://purl.org/dc/elements/1.1/"
   xmlns:cc="http://creativecommons.org/ns#"
   xmlns:rdf="http://www.w3.org/1999/02/22-rdf-syntax-ns#"
   xmlns:svg="http://www.w3.org/2000/svg"
   xmlns="http://www.w3.org/2000/svg"
   xmlns:sodipodi="http://sodipodi.sourceforge.net/DTD/sodipodi-0.dtd"
   xmlns:inkscape="http://www.inkscape.org/namespaces/inkscape"
   width="297mm"
   height="210mm"
   id="svg2"
   version="1.1"
   inkscape:version="0.92.3 (2405546, 2018-03-11)"
   sodipodi:docname="Butterfly.svg"
   viewBox="0 0 1052.3622 744.09448"
   inkscape:export-filename="/home/christian/SportsCar.svg.png"
   inkscape:export-xdpi="138.06"
   inkscape:export-ydpi="138.06">
  <defs
     id="defs4" />
  <sodipodi:namedview
     id="base"
     pagecolor="#ffffff"
     bordercolor="#666666"
     borderopacity="1.0"
     inkscape:pageopacity="0.0"
     inkscape:pageshadow="2"
     inkscape:zoom="1.4142136"
     inkscape:cx="651.8009"
     inkscape:cy="329.54879"
     inkscape:document-units="mm"
     inkscape:current-layer="Mask"
     showgrid="false"
     units="mm"
     inkscape:window-width="1920"
     inkscape:window-height="1015"
     inkscape:window-x="0"
     inkscape:window-y="0"
     inkscape:window-maximized="1"
     inkscape:snap-global="false" />
  <metadata
     id="metadata7">
    <rdf:RDF>
      <cc:Work
         rdf:about="">
        <dc:format>image/svg+xml</dc:format>
        <dc:type
           rdf:resource="http://purl.org/dc/dcmitype/StillImage" />
        <dc:title></dc:title>
      </cc:Work>
    </rdf:RDF>
  </metadata>
  <g
     inkscape:label="Mask"
     inkscape:groupmode="layer"
     id="Mask"
     style="display:inline;opacity:1"
     transform="translate(0,-308.2677)">
    <path
       style="fill:#ffffff;fill-opacity:1;stroke:#808080;stroke-width:0.75590551;stroke-linecap:round;stroke-linejoin:round;stroke-miterlimit:4;stroke-dasharray:none;stroke-opacity:1"
       d="M 798.94922 197.9082 C 788.46657 197.99753 773.29784 210.68323 752.09766 243.98242 C 677.00593 361.92921 683.42484 362.12825 666.92578 363.95898 C 666.36595 360.00209 664.31055 358.66211 664.31055 358.66211 C 671.05504 358.35322 672.72733 350.00085 667.77344 341.4082 C 678.87275 316.37921 691.74222 273.58764 693.19141 263.42383 C 694.6406 253.26003 697.11069 252.61921 699.97266 249.94531 C 702.83462 247.27141 712.10778 244.14113 713.22461 248.77539 C 711.1973 248.18805 706.68657 250.56171 705.86523 251.80664 C 705.0439 253.05158 705.64159 261.82147 709.03906 263.49414 C 712.43653 265.16682 716.6827 263.78902 718.85156 259.45312 C 721.02044 255.11723 723.32498 254.94821 717.77344 245.41992 C 712.22191 235.89164 692.81093 241.87168 688.82031 259.73438 C 684.8747 280.76902 675.46238 309.75626 663.92578 336.11914 C 662.25181 334.6764 660.05285 335.03598 656.51953 335.06055 C 652.9862 335.08519 652.56808 334.91672 650.49219 336.64062 C 638.95559 310.27774 629.16827 282.04049 625.22266 261.00586 C 621.27706 239.97121 603.51133 237.7889 597.02148 243.44141 C 590.53164 249.09391 592.02448 255.13871 594.19336 259.47461 C 596.36222 263.8105 600.60643 265.18831 604.00391 263.51562 C 607.40139 261.84295 607.99907 253.07306 607.17773 251.82812 C 606.3564 250.58319 601.93746 248.00641 599.91016 248.59375 C 601.02698 243.95949 610.20835 247.2929 613.07031 249.9668 C 615.93229 252.6407 618.40238 253.28152 619.85156 263.44531 C 621.30076 273.60911 634.1702 316.4007 645.26953 341.42969 C 640.31564 350.02234 641.98988 358.3747 648.73438 358.68359 C 648.73438 358.68359 646.64858 360.03556 646.10547 364.05469 C 629.36611 362.20271 636.13623 362.45375 560.75781 244.05664 C 485.37939 125.65953 486.24562 267.8477 502.91016 310.33203 C 519.57469 352.81636 455.20854 386.16388 544.8457 394.24023 C 548.90323 396.27993 547.24811 398.82761 544.26953 397.70312 C 503.12753 418.62096 501.48212 542.30226 555.8125 540.83594 C 610.14287 539.36961 634.73542 574.29231 639.12109 513.50195 C 643.50676 452.71161 635.15666 378.83351 646.10547 376.46289 C 647.50643 424.33659 645.47481 456.0253 656.52539 455.99414 C 667.5752 455.963 665.53847 424.35316 666.93945 376.45312 C 677.59589 379.65271 669.37482 452.99918 673.73438 513.42773 C 678.12005 574.21809 702.71066 539.2954 757.04102 540.76172 C 811.37139 542.22805 809.72594 418.54673 768.58398 397.62891 C 765.6054 398.75339 763.95029 396.20572 768.00781 394.16602 C 857.64499 386.08966 793.27883 352.74214 809.94336 310.25781 C 821.92099 279.7222 825.73821 197.67993 798.94922 197.9082 z "
       transform="matrix(0.9375,0,0,0.9375,0,308.2677)"
       id="path925" />
  </g>
  <g
     inkscape:groupmode="layer"
     id="layer1"
     inkscape:label="Overlay"
     style="display:inline"
     transform="translate(0,-308.2677)">
    <path
       style="display:inline;opacity:1;fill:none;stroke:#c0c0c0;stroke-width:0.35433072;stroke-linecap:round;stroke-linejoin:round;stroke-miterlimit:4;stroke-dasharray:none;stroke-opacity:1"
       d="m 562.39204,541.30476 c -1.21481,5.83197 -1.12016,7.27461 -0.19131,7.74764"
       id="path943"
       inkscape:connector-curvature="0"
       sodipodi:nodetypes="cc" />
    <path
       style="display:inline;opacity:1;fill:none;stroke:#c0c0c0;stroke-width:0.35433072;stroke-linecap:round;stroke-linejoin:round;stroke-miterlimit:4;stroke-dasharray:none;stroke-opacity:1"
       d="m 668.81385,541.78483 c 1.21481,5.83198 1.12016,7.27462 0.1913,7.74765"
       id="path943-6"
       inkscape:connector-curvature="0"
       sodipodi:nodetypes="cc" />
    <path
       style="fill:none;stroke:#c0c0c0;stroke-width:0.35433072;stroke-linecap:round;stroke-linejoin:round;stroke-miterlimit:4;stroke-dasharray:none;stroke-dashoffset:0;stroke-opacity:1"
       d="m 608.11992,644.45537 c 4.92259,0.2653 9.84242,0.50857 14.67673,0.0676"
       id="path961"
       inkscape:connector-curvature="0"
       sodipodi:nodetypes="cc" />
    <path
       style="fill:none;stroke:#c0c0c0;stroke-width:0.35433072;stroke-linecap:round;stroke-linejoin:round;stroke-miterlimit:4;stroke-dasharray:none;stroke-opacity:1"
       d="m 605.69752,649.58043 c -0.17246,3.58179 -0.16193,7.46613 0,11.69319"
       id="path963"
       inkscape:connector-curvature="0"
       sodipodi:nodetypes="cc" />
    <path
       style="fill:none;stroke:#c0c0c0;stroke-width:0.35433072;stroke-linecap:round;stroke-linejoin:round;stroke-miterlimit:4;stroke-dasharray:none;stroke-opacity:1"
       d="m 625.2101,649.50869 c 0.17185,4.0696 0.14954,7.82545 0.0239,11.71711"
       id="path965"
       inkscape:connector-curvature="0"
       sodipodi:nodetypes="cc" />
  </g>
</svg>
